<svg width="706" height="363" viewBox="0 0 706 363" fill="none" xmlns="http://www.w3.org/2000/svg">
<path d="M414.761 82.27C414.641 81.49 414.561 80.7 414.561 79.88C414.561 71.06 421.711 63.92 430.521 63.92C433.121 63.92 435.571 64.55 437.731 65.66C441.121 58.5 448.411 53.54 456.861 53.54C466.791 53.54 475.121 60.39 477.391 69.62C478.911 69.03 480.561 68.69 482.291 68.69C489.791 68.69 495.871 74.77 495.871 82.26H414.751L414.761 82.27Z" fill="#A0C966"/>
<path d="M411.702 85.82H499.422V82.27C499.422 72.83 491.742 65.15 482.302 65.15C481.442 65.15 480.582 65.22 479.732 65.35C475.992 56.16 467.042 50 456.862 50C448.492 50 440.682 54.31 436.162 61.22C434.342 60.66 432.452 60.38 430.512 60.38C419.752 60.38 411.002 69.13 411.002 79.89C411.002 80.8 411.082 81.75 411.242 82.81L411.702 85.83V85.82ZM491.672 78.72H418.152C418.742 72.42 424.062 67.47 430.512 67.47C432.472 67.47 434.352 67.92 436.112 68.82L439.362 70.48L440.922 67.18C443.822 61.05 450.072 57.09 456.842 57.09C464.962 57.09 471.992 62.59 473.932 70.47L474.892 74.39L478.662 72.93C479.832 72.47 481.052 72.24 482.282 72.24C486.562 72.24 490.222 74.93 491.662 78.72H491.672Z" fill="#1D1D1B"/>
<path d="M192.933 186.03H222.763V237.019H192.933V284.423H137.649V237.019H6V186.03L98.671 5.57692H157.535L65.2617 186.03H137.649V119.904H192.933V186.03Z" fill="white"/>
<path d="M353.647 290C318.912 290 291.601 276.854 271.714 250.563C252.093 223.741 242.282 188.553 242.282 145C242.282 101.447 252.093 66.3919 271.714 39.8352C291.601 13.2784 318.912 0 353.647 0C388.912 0 416.223 13.2784 435.579 39.8352C455.2 66.3919 465.011 101.447 465.011 145C465.011 188.553 455.2 223.741 435.579 250.563C416.223 276.854 388.912 290 353.647 290ZM410.522 145C410.522 115.256 405.617 92.5504 395.806 76.8819C386.261 61.2134 372.208 53.3791 353.647 53.3791C335.086 53.3791 321.033 61.2134 311.487 76.8819C301.942 92.5504 297.169 115.256 297.169 145C297.169 174.744 301.942 197.45 311.487 213.118C321.033 228.521 335.086 236.223 353.647 236.223C372.208 236.223 386.261 228.388 395.806 212.72C405.617 197.051 410.522 174.478 410.522 145Z" fill="white"/>
<path d="M674.17 186.03H704V237.019H674.17V284.423H618.886V237.019H487.237V186.03L579.908 5.57692H638.772L546.499 186.03H618.886V119.904H674.17V186.03Z" fill="white"/>
<path d="M18.0807 350.26C12.9213 350.26 8.60661 348.525 5.13657 345.055C1.71219 341.584 0 337.292 0 332.178C0 327.064 1.71219 322.772 5.13657 319.301C8.60661 315.831 12.9213 314.096 18.0807 314.096C21.4138 314.096 24.4501 314.895 27.1896 316.493C29.9291 318.091 32.0065 320.237 33.4219 322.932L25.8198 327.384C25.1349 325.968 24.0848 324.849 22.6694 324.027C21.2996 323.205 19.7473 322.795 18.0122 322.795C15.364 322.795 13.1724 323.685 11.4374 325.466C9.70241 327.201 8.8349 329.438 8.8349 332.178C8.8349 334.826 9.70241 337.064 11.4374 338.89C13.1724 340.626 15.364 341.493 18.0122 341.493C19.7929 341.493 21.3681 341.105 22.7379 340.329C24.1533 339.507 25.2034 338.388 25.8883 336.973L33.5589 341.356C32.0522 344.096 29.9062 346.265 27.1211 347.863C24.3816 349.461 21.3681 350.26 18.0807 350.26Z" fill="white"/>
<path d="M34.6751 315.055H65.0151V323.548H54.331V349.301H45.4961V323.548H34.6751V315.055Z" fill="white"/>
<path d="M89.6631 314.096C94.2746 314.096 98.2012 315.854 101.443 319.37C104.73 322.886 106.374 327.155 106.374 332.178C106.374 337.292 104.73 341.584 101.443 345.055C98.2469 348.525 94.3202 350.26 89.6631 350.26C84.8689 350.26 81.1706 348.594 78.5681 345.26V363H69.7332V315.055H78.5681V319.096C81.1706 315.763 84.8689 314.096 89.6631 314.096ZM81.2391 339.164C83.0198 340.945 85.2799 341.836 88.0194 341.836C90.7589 341.836 93.019 340.945 94.7997 339.164C96.626 337.338 97.5392 335.009 97.5392 332.178C97.5392 329.347 96.626 327.041 94.7997 325.26C93.019 323.434 90.7589 322.521 88.0194 322.521C85.2799 322.521 83.0198 323.434 81.2391 325.26C79.4584 327.041 78.5681 329.347 78.5681 332.178C78.5681 335.009 79.4584 337.338 81.2391 339.164Z" fill="white"/>
<path d="M138.63 319.096V315.055H147.465V349.301H138.63V345.26C135.982 348.594 132.261 350.26 127.467 350.26C122.901 350.26 118.974 348.525 115.687 345.055C112.445 341.539 110.824 337.247 110.824 332.178C110.824 327.155 112.445 322.886 115.687 319.37C118.974 315.854 122.901 314.096 127.467 314.096C132.261 314.096 135.982 315.763 138.63 319.096ZM122.33 339.164C124.111 340.945 126.371 341.836 129.11 341.836C131.85 341.836 134.11 340.945 135.891 339.164C137.717 337.338 138.63 335.009 138.63 332.178C138.63 329.347 137.717 327.041 135.891 325.26C134.11 323.434 131.85 322.521 129.11 322.521C126.371 322.521 124.111 323.434 122.33 325.26C120.549 327.041 119.659 329.347 119.659 332.178C119.659 335.009 120.549 337.338 122.33 339.164Z" fill="white"/>
<path d="M177.94 328V315.055H186.775V349.301H177.94V336.288H164.311V349.301H155.476V315.055H164.311V328H177.94Z" fill="white"/>
<path d="M203.5 334.507L219.594 315.055H226.169V349.301H217.54V329.849L201.445 349.301H194.87V315.055H203.5V334.507Z" fill="white"/>
<path d="M264.398 315.055V341.014H270.151V358.479H261.522V349.301H234.264V315.055H243.099V341.014H255.564V315.055H264.398Z" fill="white"/>
<path d="M300.419 319.096V315.055H309.254V349.301H300.419V345.26C297.77 348.594 294.049 350.26 289.255 350.26C284.689 350.26 280.763 348.525 277.475 345.055C274.234 341.539 272.613 337.247 272.613 332.178C272.613 327.155 274.234 322.886 277.475 319.37C280.763 315.854 284.689 314.096 289.255 314.096C294.049 314.096 297.77 315.763 300.419 319.096ZM284.119 339.164C285.899 340.945 288.159 341.836 290.899 341.836C293.638 341.836 295.898 340.945 297.679 339.164C299.505 337.338 300.419 335.009 300.419 332.178C300.419 329.347 299.505 327.041 297.679 325.26C295.898 323.434 293.638 322.521 290.899 322.521C288.159 322.521 285.899 323.434 284.119 325.26C282.338 327.041 281.448 329.347 281.448 332.178C281.448 335.009 282.338 337.338 284.119 339.164Z" fill="white"/>
<path d="M356.851 328V315.055H365.686V349.301H356.851V336.288H343.222V349.301H334.387V315.055H343.222V328H356.851Z" fill="white"/>
<path d="M407.066 335.808H381.246C382.387 340.1 385.606 342.247 390.902 342.247C394.281 342.247 396.838 341.105 398.573 338.822L405.696 342.932C402.317 347.817 397.34 350.26 390.766 350.26C385.104 350.26 380.561 348.548 377.136 345.123C373.712 341.699 372 337.384 372 332.178C372 327.064 373.689 322.772 377.068 319.301C380.401 315.831 384.739 314.096 390.081 314.096C395.149 314.096 399.281 315.831 402.477 319.301C405.764 322.772 407.408 327.064 407.408 332.178C407.408 333.137 407.294 334.347 407.066 335.808ZM381.109 328.959H398.573C398.071 326.721 397.044 325.009 395.491 323.822C393.984 322.635 392.181 322.041 390.081 322.041C387.706 322.041 385.743 322.658 384.191 323.89C382.638 325.078 381.611 326.767 381.109 328.959Z" fill="white"/>
<path d="M453.161 328V315.055H461.996V349.301H453.161V336.288H439.532V349.301H430.698V315.055H439.532V328H453.161Z" fill="white"/>
<path d="M496.117 319.096V315.055H504.951V349.301H496.117V345.26C493.468 348.594 489.747 350.26 484.953 350.26C480.387 350.26 476.461 348.525 473.173 345.055C469.931 341.539 468.311 337.247 468.311 332.178C468.311 327.155 469.931 322.886 473.173 319.37C476.461 315.854 480.387 314.096 484.953 314.096C489.747 314.096 493.468 315.763 496.117 319.096ZM479.817 339.164C481.597 340.945 483.857 341.836 486.597 341.836C489.336 341.836 491.596 340.945 493.377 339.164C495.203 337.338 496.117 335.009 496.117 332.178C496.117 329.347 495.203 327.041 493.377 325.26C491.596 323.434 489.336 322.521 486.597 322.521C483.857 322.521 481.597 323.434 479.817 325.26C478.036 327.041 477.145 329.347 477.145 332.178C477.145 335.009 478.036 337.338 479.817 339.164Z" fill="white"/>
<path d="M538.577 310.671H518.716V303H538.577V310.671ZM521.592 334.507L537.687 315.055H544.262V349.301H535.632V329.849L519.538 349.301H512.963V315.055H521.592V334.507Z" fill="white"/>
<path d="M583.176 315.055V341.014H587.696V358.479H579.067V349.301H557.836V358.479H549.206V341.014H553.384C555.347 338.091 556.329 334.05 556.329 328.89V315.055H583.176ZM562.835 341.014H574.547V323H564.958V328.89C564.958 333.822 564.251 337.863 562.835 341.014Z" fill="white"/>
<path d="M625.236 335.808H599.416C600.558 340.1 603.776 342.247 609.073 342.247C612.452 342.247 615.008 341.105 616.743 338.822L623.866 342.932C620.487 347.817 615.511 350.26 608.936 350.26C603.274 350.26 598.731 348.548 595.307 345.123C591.883 341.699 590.17 337.384 590.17 332.178C590.17 327.064 591.86 322.772 595.238 319.301C598.571 315.831 602.909 314.096 608.251 314.096C613.319 314.096 617.451 315.831 620.647 319.301C623.935 322.772 625.578 327.064 625.578 332.178C625.578 333.137 625.464 334.347 625.236 335.808ZM599.279 328.959H616.743C616.241 326.721 615.214 325.009 613.662 323.822C612.155 322.635 610.351 322.041 608.251 322.041C605.877 322.041 603.913 322.658 602.361 323.89C600.809 325.078 599.781 326.767 599.279 328.959Z" fill="white"/>
<path d="M654.21 328V315.055H663.045V349.301H654.21V336.288H640.581V349.301H631.746V315.055H640.581V328H654.21Z" fill="white"/>
<path d="M697.165 319.096V315.055H706V349.301H697.165V345.26C694.517 348.594 690.796 350.26 686.002 350.26C681.436 350.26 677.509 348.525 674.222 345.055C670.98 341.539 669.359 337.247 669.359 332.178C669.359 327.155 670.98 322.886 674.222 319.37C677.509 315.854 681.436 314.096 686.002 314.096C690.796 314.096 694.517 315.763 697.165 319.096ZM680.865 339.164C682.646 340.945 684.906 341.836 687.645 341.836C690.385 341.836 692.645 340.945 694.426 339.164C696.252 337.338 697.165 335.009 697.165 332.178C697.165 329.347 696.252 327.041 694.426 325.26C692.645 323.434 690.385 322.521 687.645 322.521C684.906 322.521 682.646 323.434 680.865 325.26C679.084 327.041 678.194 329.347 678.194 332.178C678.194 335.009 679.084 337.338 680.865 339.164Z" fill="white"/>
<path d="M159.95 170.78H102.33L101.57 168.24C101.43 167.76 100.22 163.34 101.82 156.04C103.51 148.33 111.79 140 122.21 140C129.16 140 135.65 143.5 139.52 149.14C140.94 148.75 142.41 148.55 143.9 148.55C153.11 148.55 160.61 156.05 160.61 165.26C160.61 166.04 160.55 166.83 160.41 167.76L159.95 170.79V170.78ZM108.13 163.66H153.36C152.6 159.13 148.65 155.67 143.91 155.67C142.4 155.67 140.95 156.02 139.58 156.72L136.31 158.38L134.74 155.07C132.46 150.24 127.54 147.13 122.21 147.13C115.65 147.13 109.86 152.64 108.78 157.58C108.22 160.14 108.1 162.2 108.13 163.67V163.66Z" fill="#163029"/>
</svg>
