<svg id="adults" width="54" height="51" viewBox="0 0 54 51" fill="" xmlns="http://www.w3.org/2000/svg">
<path fill-rule="evenodd" clip-rule="evenodd" d="M5.27203 33.1651C4.93112 33.4171 4.50946 33.566 4.05301 33.566C2.91913 33.566 1.99994 32.6468 1.99994 31.5129V19.7078C1.99994 19.5978 2.00859 19.4898 2.02524 19.3845C2.40763 15.8375 7.07592 13.0353 12.7786 13.0353C18.4666 13.0353 23.1256 15.8231 23.5289 19.3573C23.5485 19.4712 23.5587 19.5883 23.5587 19.7078V31.5129C23.5587 32.6468 22.6395 33.566 21.5056 33.566C21.0487 33.566 20.6267 33.4168 20.2856 33.1644C19.7802 32.7904 19.4525 32.1899 19.4525 31.5129V22.76H19.4511C19.4511 22.76 19.4511 22.7601 19.4511 22.76C19.4511 22.7514 19.4511 22.7428 19.4512 22.7342C19.4512 22.7342 19.4512 22.7342 19.4512 22.7342C19.4515 22.7167 19.4519 22.6992 19.4525 22.6818V20.4755L19.4506 20.4736C19.4484 19.9091 18.9906 19.4521 18.4258 19.4511V45.6277C18.4258 47.0451 17.2768 48.1941 15.8595 48.1941C15.0369 48.1941 14.3046 47.807 13.835 47.2051C13.4954 46.7699 13.2931 46.2224 13.2931 45.6277V31.5129H12.2645V45.6277C12.2645 46.2224 12.0622 46.7699 11.7227 47.2051C11.253 47.807 10.5208 48.1941 9.69818 48.1941C8.28082 48.1941 7.13183 47.0451 7.13183 45.6277V19.4511C6.56531 19.4516 6.10621 19.911 6.10621 20.4777C6.10621 20.4925 6.10653 20.5073 6.10715 20.522L6.10609 20.5231V31.5129C6.10609 32.1904 5.77799 32.7912 5.27203 33.1651ZM5.27203 35.2322C4.8884 35.3579 4.47864 35.4258 4.05301 35.4258C1.89199 35.4258 0.140137 33.674 0.140137 31.5129V19.7078C0.140137 19.5169 0.153937 19.3282 0.180856 19.1429C0.471637 16.6042 2.24446 14.5937 4.4577 13.2804C6.02676 12.3492 7.92415 11.6941 9.99166 11.3821C8.10124 10.3813 6.8133 8.39411 6.8133 6.10615C6.8133 2.81124 9.48435 0.140198 12.7793 0.140198C16.0742 0.140198 18.7452 2.81124 18.7452 6.10615C18.7452 8.39423 17.4571 10.3815 15.5665 11.3823C17.6261 11.6932 19.5166 12.3446 21.082 13.27C23.2908 14.5759 25.0634 16.5734 25.371 19.0979C25.4024 19.2977 25.4185 19.5015 25.4185 19.7078V31.5129C25.4185 33.674 23.6666 35.4258 21.5056 35.4258C21.0796 35.4258 20.6695 35.3577 20.2856 35.2319V45.6277C20.2856 48.0722 18.304 50.0539 15.8595 50.0539C14.662 50.0539 13.5756 49.5783 12.7788 48.8058C11.982 49.5783 10.8956 50.0539 9.69818 50.0539C7.25368 50.0539 5.27203 48.0722 5.27203 45.6277V35.2322ZM16.8854 6.10615C16.8854 8.37391 15.047 10.2123 12.7793 10.2123C10.5115 10.2123 8.6731 8.37391 8.6731 6.10615C8.6731 3.83839 10.5115 2 12.7793 2C15.047 2 16.8854 3.83839 16.8854 6.10615Z" />
<path fill-rule="evenodd" clip-rule="evenodd" d="M37.131 12.0262C36.5407 12.1875 35.9755 12.4041 35.4434 12.6703C32.1509 14.27 30.1091 17.4251 29.2461 19.4037L25.7712 25.4224C24.6907 27.2939 25.3319 29.687 27.2034 30.7675C27.9149 31.1783 28.7017 31.3402 29.4631 31.2803L29.0667 32.7052C28.4255 35.0101 29.8439 37.2944 32.0314 37.8596V45.6278C32.0314 48.0723 34.0131 50.0539 36.4575 50.0539C37.6545 50.0539 38.7405 49.5788 39.5373 48.8068C40.334 49.5788 41.42 50.0539 42.617 50.0539C45.0614 50.0539 47.0431 48.0723 47.0431 45.6278V37.8606C49.2327 37.2971 50.6532 35.0114 50.0116 32.7052L49.616 31.2832C50.3661 31.3352 51.1391 31.1719 51.8392 30.7677C53.7107 29.6872 54.3519 27.2941 53.2714 25.4226L49.9513 19.6721C49.2667 17.8458 47.5949 14.9639 44.8076 13.2003C43.9785 12.6524 43.041 12.2374 42.0346 11.9821C43.7909 11.0765 44.9918 9.24486 44.9918 7.1327C44.9918 4.12127 42.5505 1.68002 39.5391 1.68002C36.5277 1.68002 34.0864 4.12127 34.0864 7.1327C34.0864 9.27969 35.3273 11.1369 37.131 12.0262ZM43.7974 14.762C42.7029 14.0345 41.3462 13.5892 39.8717 13.5513C39.8043 13.5495 39.7364 13.5486 39.6682 13.5486H39.6664C38.4276 13.5486 37.2662 13.8361 36.2658 14.3384C33.4635 15.6955 31.651 18.4926 30.9114 20.239L27.3819 26.3523C26.8149 27.3343 27.1514 28.5899 28.1333 29.1569C28.7371 29.5055 29.4443 29.5125 30.0313 29.238C30.399 29.0661 30.7195 28.7836 30.9379 28.4054L33.3608 24.2088L30.8585 33.2037C30.449 34.6756 31.5558 36.1324 33.0837 36.1324H33.8912V45.6278C33.8912 47.0451 35.0402 48.1941 36.4575 48.1941C37.2794 48.1941 38.0111 47.8078 38.4808 47.2068C38.8211 46.7714 39.0239 46.2233 39.0239 45.6278V36.1324H40.0506V45.6278C40.0506 46.2233 40.2534 46.7714 40.5937 47.2068C41.0634 47.8078 41.7951 48.1941 42.617 48.1941C44.0343 48.1941 45.1833 47.0451 45.1833 45.6278V36.1324H45.9947C47.5225 36.1324 48.6293 34.6756 48.2199 33.2037L45.7508 24.3284L48.1048 28.4056C48.3312 28.7978 48.6675 29.087 49.0523 29.2568C49.631 29.5122 50.3195 29.4976 50.9093 29.1571C51.8913 28.5901 52.2277 27.3345 51.6608 26.3525L48.2599 20.462C47.7054 18.8968 46.2205 16.2879 43.7974 14.762ZM43.132 7.1327C43.132 9.117 41.5234 10.7256 39.5391 10.7256C37.5548 10.7256 35.9462 9.117 35.9462 7.1327C35.9462 5.14841 37.5548 3.53983 39.5391 3.53983C41.5234 3.53983 43.132 5.14841 43.132 7.1327Z" />
</svg>
