<svg id="allegory" width="52" height="50" viewBox="0 0 52 50" fill="none" xmlns="http://www.w3.org/2000/svg">
<rect x="0.5" width="50" height="50" rx="25" fill="white"/>
<path fill-rule="evenodd" clip-rule="evenodd" d="M23.4232 15.4676C23.6531 15.4676 23.8395 15.654 23.8395 15.8839V23.1113C23.8395 23.3412 23.6531 23.5276 23.4232 23.5276C23.1933 23.5276 23.0069 23.3412 23.0069 23.1113V15.8839C23.0069 15.654 23.1933 15.4676 23.4232 15.4676ZM27.5881 15.4676C27.818 15.4676 28.0044 15.654 28.0044 15.8839V23.1113C28.0044 23.3412 27.818 23.5276 27.5881 23.5276C27.3582 23.5276 27.1718 23.3412 27.1718 23.1113V15.8839C27.1718 15.654 27.3582 15.4676 27.5881 15.4676ZM20.3362 16.9376C20.5662 16.9376 20.7526 17.124 20.7526 17.3539V26.1248C20.7526 26.3547 20.5662 26.5411 20.3362 26.5411C20.1063 26.5411 19.9199 26.3547 19.9199 26.1248V17.3539C19.9199 17.124 20.1063 16.9376 20.3362 16.9376Z" fill="#333333"/>
<path fill-rule="evenodd" clip-rule="evenodd" d="M30.7269 16.9376C30.9568 16.9376 31.1432 17.124 31.1432 17.3539V23.1113C31.1432 23.3412 30.9568 23.5276 30.7269 23.5276C30.4969 23.5276 30.3105 23.3412 30.3105 23.1113V17.3539C30.3105 17.124 30.4969 16.9376 30.7269 16.9376Z" fill="#333333"/>
<path fill-rule="evenodd" clip-rule="evenodd" d="M22.4187 15.6878C21.4985 15.6878 20.7526 16.4337 20.7526 17.3539C20.7526 17.5838 20.5662 17.7702 20.3362 17.7702C20.1063 17.7702 19.9199 17.5838 19.9199 17.3539C19.9199 15.9738 21.0387 14.8551 22.4187 14.8551C22.8671 14.8551 23.2891 14.9736 23.6537 15.1812C23.8535 15.295 23.9233 15.5492 23.8095 15.749C23.6957 15.9488 23.4415 16.0186 23.2417 15.9048C22.9993 15.7667 22.7188 15.6878 22.4187 15.6878Z" fill="#333333"/>
<path fill-rule="evenodd" clip-rule="evenodd" d="M25.5066 14.2178C24.5864 14.2178 23.8405 14.9638 23.8405 15.884C23.8405 16.1139 23.6541 16.3003 23.4241 16.3003C23.1942 16.3003 23.0078 16.1139 23.0078 15.884C23.0078 14.5039 24.1266 13.3852 25.5066 13.3852C26.8866 13.3852 28.0054 14.5039 28.0054 15.884C28.0054 16.1139 27.819 16.3003 27.5891 16.3003C27.3591 16.3003 27.1727 16.1139 27.1727 15.884C27.1727 14.9638 26.4268 14.2178 25.5066 14.2178Z" fill="#333333"/>
<path fill-rule="evenodd" clip-rule="evenodd" d="M13.9978 26.9359C13.5377 27.7328 13.8108 28.7518 14.6077 29.2119C14.8068 29.3269 14.875 29.5815 14.7601 29.7806C14.6451 29.9797 14.3905 30.048 14.1914 29.933C12.9962 29.243 12.5867 27.7147 13.2767 26.5196C13.9668 25.3244 15.495 24.9149 16.6901 25.605C16.8893 25.7199 16.9575 25.9745 16.8425 26.1737C16.7276 26.3728 16.4729 26.441 16.2738 26.3261C15.4769 25.866 14.4579 26.139 13.9978 26.9359Z" fill="#333333"/>
<path fill-rule="evenodd" clip-rule="evenodd" d="M33.2188 32.984C32.4764 33.9188 31.3383 34.5418 29.7929 34.5418C29.5538 34.5418 29.3591 34.5958 29.1349 34.6915C29.0193 34.7409 28.9007 34.7992 28.7598 34.8684L28.7564 34.8701C28.6169 34.9386 28.4598 35.0157 28.2829 35.0931C27.5565 35.4109 26.5413 35.7143 24.7119 35.7143C23.918 35.7143 22.9886 35.4298 22.0382 35.0124C21.0791 34.5912 20.0589 34.0166 19.072 33.3981C17.1002 32.1624 15.2268 30.7293 14.1904 29.9365L14.1556 29.9099C13.973 29.7701 13.9382 29.5088 14.0779 29.3262C14.2176 29.1436 14.4789 29.1088 14.6615 29.2485L14.693 29.2726C14.693 29.2726 14.693 29.2726 14.693 29.2726C15.7305 30.0663 17.5773 31.4788 19.5142 32.6926C20.4827 33.2995 21.465 33.8512 22.373 34.25C23.2897 34.6526 24.0919 34.8816 24.7119 34.8816C26.4348 34.8816 27.3354 34.5988 27.9491 34.3303C28.1072 34.2611 28.2491 34.1916 28.3892 34.1228L28.4026 34.1162C28.5356 34.0508 28.6716 33.984 28.8079 33.9258C29.0985 33.8016 29.4072 33.7091 29.7929 33.7091C31.0894 33.7091 31.9855 33.1982 32.5668 32.4662C33.1583 31.7213 33.4449 30.7189 33.4449 29.7262C33.4449 29.4963 33.6313 29.3099 33.8613 29.3099C34.0912 29.3099 34.2776 29.4963 34.2776 29.7262C34.2776 30.865 33.951 32.0621 33.2188 32.984ZM19.7153 26.7541C19.8659 26.6035 19.9395 26.3925 19.9232 26.1632C19.9069 25.9338 20.0796 25.7347 20.309 25.7184C20.5383 25.702 20.7375 25.8748 20.7538 26.1041C20.7854 26.549 20.6425 27.0044 20.304 27.3429C19.82 27.8269 19.1069 27.908 18.5116 27.6607L18.5068 27.6588L18.5021 27.6567C18.0216 27.443 17.6541 27.1895 17.3191 26.9566L17.3011 26.9441C16.9699 26.7138 16.6717 26.5065 16.292 26.3313C16.0833 26.2349 15.9921 25.9876 16.0885 25.7788C16.1848 25.57 16.4322 25.4789 16.641 25.5753C17.088 25.7816 17.4385 26.0254 17.7602 26.2492C17.7716 26.2571 17.783 26.265 17.7943 26.2729C18.1275 26.5045 18.4366 26.7157 18.8354 26.8936C19.1644 27.0284 19.5042 26.9652 19.7153 26.7541Z" fill="#333333"/>
<path fill-rule="evenodd" clip-rule="evenodd" d="M28.6448 15.6878C28.3284 15.6878 28.0338 15.7755 27.7826 15.9278C27.586 16.047 27.3299 15.9842 27.2108 15.7876C27.0916 15.591 27.1543 15.335 27.351 15.2158C27.7287 14.9868 28.172 14.8551 28.6448 14.8551C30.0248 14.8551 31.1435 15.9738 31.1435 17.3539C31.1435 17.5838 30.9572 17.7702 30.7272 17.7702C30.4973 17.7702 30.3109 17.5838 30.3109 17.3539C30.3109 16.4337 29.5649 15.6878 28.6448 15.6878Z" fill="#333333"/>
<path fill-rule="evenodd" clip-rule="evenodd" d="M31.7804 17.3047C31.4722 17.3047 31.1847 17.388 30.9379 17.5331C30.7396 17.6496 30.4845 17.5833 30.368 17.3851C30.2515 17.1868 30.3178 16.9317 30.516 16.8152C30.8873 16.5971 31.3199 16.4721 31.7804 16.4721C33.1605 16.4721 34.2792 17.5908 34.2792 18.9709C34.2792 19.2008 34.0928 19.3872 33.8629 19.3872C33.633 19.3872 33.4466 19.2008 33.4466 18.9709C33.4466 18.0507 32.7006 17.3047 31.7804 17.3047Z" fill="#333333"/>
<path fill-rule="evenodd" clip-rule="evenodd" d="M33.8616 18.5546C34.0916 18.5546 34.278 18.741 34.278 18.9709V26.9332C34.278 27.1632 34.0916 27.3496 33.8616 27.3496C33.6317 27.3496 33.4453 27.1632 33.4453 26.9332V18.9709C33.4453 18.741 33.6317 18.5546 33.8616 18.5546Z" fill="#333333"/>
<path fill-rule="evenodd" clip-rule="evenodd" d="M24.3587 27.5055C24.8185 27.5055 25.1913 27.1327 25.1913 26.6728C25.1913 26.213 24.8185 25.8402 24.3587 25.8402C23.8988 25.8402 23.526 26.213 23.526 26.6728C23.526 27.1327 23.8988 27.5055 24.3587 27.5055ZM24.3587 28.3381C25.2784 28.3381 26.024 27.5925 26.024 26.6728C26.024 25.7531 25.2784 25.0075 24.3587 25.0075C23.4389 25.0075 22.6934 25.7531 22.6934 26.6728C22.6934 27.5925 23.4389 28.3381 24.3587 28.3381Z" fill="#333333"/>
<path fill-rule="evenodd" clip-rule="evenodd" d="M26.2332 33.7504C27.0379 33.7504 27.6903 33.098 27.6903 32.2932C27.6903 31.4885 27.0379 30.8361 26.2332 30.8361C25.4284 30.8361 24.776 31.4885 24.776 32.2932C24.776 33.098 25.4284 33.7504 26.2332 33.7504ZM26.2332 34.583C27.4978 34.583 28.523 33.5579 28.523 32.2932C28.523 31.0286 27.4978 30.0034 26.2332 30.0034C24.9685 30.0034 23.9434 31.0286 23.9434 32.2932C23.9434 33.5579 24.9685 34.583 26.2332 34.583Z" fill="#333333"/>
<path fill-rule="evenodd" clip-rule="evenodd" d="M28.9384 25.4239C29.1684 25.4239 29.3548 25.2375 29.3548 25.0075C29.3548 24.7776 29.1684 24.5912 28.9384 24.5912C28.7085 24.5912 28.5221 24.7776 28.5221 25.0075C28.5221 25.2375 28.7085 25.4239 28.9384 25.4239ZM28.9384 26.2565C29.6282 26.2565 30.1874 25.6973 30.1874 25.0075C30.1874 24.3177 29.6282 23.7585 28.9384 23.7585C28.2486 23.7585 27.6895 24.3177 27.6895 25.0075C27.6895 25.6973 28.2486 26.2565 28.9384 26.2565Z" fill="#333333"/>
<path fill-rule="evenodd" clip-rule="evenodd" d="M28.7303 28.7544C28.8452 28.7544 28.9384 28.6612 28.9384 28.5463C28.9384 28.4313 28.8452 28.3381 28.7303 28.3381C28.6153 28.3381 28.5221 28.4313 28.5221 28.5463C28.5221 28.6612 28.6153 28.7544 28.7303 28.7544ZM28.7303 29.5871C29.3051 29.5871 29.7711 29.1211 29.7711 28.5463C29.7711 27.9715 29.3051 27.5055 28.7303 27.5055C28.1554 27.5055 27.6895 27.9715 27.6895 28.5463C27.6895 29.1211 28.1554 29.5871 28.7303 29.5871Z" fill="#333333"/>
<path fill-rule="evenodd" clip-rule="evenodd" d="M22.0701 30.4198C22.1851 30.4198 22.2783 30.3266 22.2783 30.2116C22.2783 30.0967 22.1851 30.0035 22.0701 30.0035C21.9551 30.0035 21.862 30.0967 21.862 30.2116C21.862 30.3266 21.9551 30.4198 22.0701 30.4198ZM22.0701 31.2524C22.6449 31.2524 23.1109 30.7865 23.1109 30.2116C23.1109 29.6368 22.6449 29.1708 22.0701 29.1708C21.4953 29.1708 21.0293 29.6368 21.0293 30.2116C21.0293 30.7865 21.4953 31.2524 22.0701 31.2524Z" fill="#333333"/>
<path fill-rule="evenodd" clip-rule="evenodd" d="M32.7185 27.4746C32.0798 27.7351 31.7731 28.464 32.0335 29.1028C32.294 29.7415 33.0229 30.0482 33.6617 29.7877C33.8746 29.7009 34.1175 29.8031 34.2044 30.016C34.2912 30.2289 34.189 30.4719 33.976 30.5587C32.9115 30.9928 31.6966 30.4817 31.2625 29.4171C30.8285 28.3526 31.3396 27.1377 32.4041 26.7036C32.617 26.6168 32.86 26.719 32.9468 26.9319C33.0336 27.1449 32.9314 27.3878 32.7185 27.4746Z" fill="#333333"/>
<path fill-rule="evenodd" clip-rule="evenodd" d="M30.8831 32.3027C30.3479 32.5738 30.1337 33.2274 30.4047 33.7627L29.6619 34.1389C29.1831 33.1933 29.5614 32.0387 30.507 31.5599C31.4525 31.0811 32.6072 31.4594 33.086 32.405L32.3431 32.7811C32.0721 32.2458 31.4184 32.0317 30.8831 32.3027Z" fill="#333333"/>
<circle cx="25.4291" cy="24.6428" r="17.5" stroke="#333333" stroke-width="1.42857"/>
<line x1="13.4949" y1="36.9949" x2="37.7806" y2="12.7092" stroke="#333333" stroke-width="1.42857"/>
</svg>
