<svg width="1920" height="490" viewBox="0 0 1920 490" fill="none" xmlns="http://www.w3.org/2000/svg">
<g clip-path="url(#clip0_1403_4260)">
<path d="M271.491 409.31L268.941 496.85L1172.26 501.45L1165.97 451.05L1154.07 435.38L1129.01 417.35L1099.91 409.6L271.491 409.31Z" fill="#A2D45E"/>
<path d="M1633.89 268.12C1633.23 268.17 1632.58 268.19 1631.93 268.19C1630.16 268.19 1628.44 267.98 1626.78 267.62C1628.36 275.95 1625.55 285.42 1618.52 292.45L1615.9 295.07L1606.11 285.27C1601.27 280.43 1599.07 273.56 1599.87 266.41C1592.73 267.2 1585.86 265.01 1581.01 260.17L1571.21 250.38L1573.83 247.76C1581.03 240.56 1590.81 237.77 1599.28 239.61C1597.69 231.28 1600.5 221.79 1607.54 214.75L1610.16 212.13L1619.96 221.93C1624.8 226.77 1627 233.64 1626.2 240.79C1633.34 240 1640.21 242.19 1645.06 247.04L1654.85 256.83L1652.23 259.45C1647.15 264.53 1640.64 267.61 1633.9 268.11L1633.89 268.12Z" fill="black"/>
<path d="M1141.46 450.45H1141.53C1142.41 450.41 1143.3 450.38 1144.19 450.38H1397.56C1416.55 450.38 1433.26 460.23 1442.9 475.08C1448 435.94 1481.55 405.6 1522.06 405.6H1637.34C1620.03 395.86 1607.91 373.85 1607.91 348.31V344.61H1620.27C1620.44 343.39 1620.66 342.16 1620.95 340.94C1623.25 331.15 1629.23 322.85 1637.78 317.56C1638.08 317.37 1638.4 317.23 1638.71 317.05C1636.83 311.87 1636.48 306.27 1637.77 300.78C1639.52 293.33 1644.07 287.02 1650.57 282.99C1658.3 278.21 1667.42 277.58 1675.37 280.44L1684.71 275.17L1684.62 284.13L1694.31 284.19L1689.77 291.95C1689.84 292.06 1689.92 292.16 1689.99 292.27C1696.78 303.24 1695.24 317.04 1687.13 326.26C1688.01 327.37 1688.84 328.53 1689.6 329.76C1692.45 334.36 1694.2 339.41 1694.89 344.61H1702.11L1706.63 350.45L1706.57 351.81C1705.53 375.99 1693.73 396.34 1677.26 405.6H1680.9C1713.89 405.6 1742.51 424.56 1756.51 452.14V412.95H1743.85C1732.79 412.95 1723.78 403.95 1723.78 392.88V389.17H1743.85C1748.65 389.17 1753.05 390.87 1756.51 393.68V377.09C1741.89 375.26 1730.54 362.78 1730.54 347.68V318.01H1734.25C1745.42 318.01 1755.15 324.21 1760.22 333.34C1765.28 324.21 1775.01 318.01 1786.18 318.01H1789.89V347.68C1789.89 362.78 1778.54 375.26 1763.93 377.09V437.84C1772.92 414.62 1791.85 396.33 1815.49 388.2V347.09C1815.49 293.74 1862.13 250.33 1919.45 250.33H1920.58C1948.75 250.33 1975.13 260.64 1994.85 279.37C2014 297.56 2024.55 321.61 2024.55 347.09V383.6H2033.37V490H1092.15C1096.99 472.56 1110.36 458.62 1127.49 453.04C1132.62 451.28 1140.44 450.49 1141.46 450.45Z" fill="black"/>
<path d="M1873.45 362.98C1873.45 335.97 1894.23 314 1919.78 314H1920.26C1932.88 314 1944.68 319.26 1953.47 328.83C1961.93 338.02 1966.59 350.15 1966.59 362.98V383.6H1978.49V357.68C1978.49 342.58 1972.62 328.32 1961.95 317.52C1950.92 306.35 1936.15 300.2 1920.36 300.2H1919.66C1887.61 300.2 1861.54 325.99 1861.54 357.69V383.61H1873.44V362.99L1873.45 362.98Z" fill="#F3BD48"/>
<path d="M1693.74 352.02L1691.33 355.13L1685.36 362.84L1683.86 364.78L1673.98 352.02H1669.25L1659.37 364.78L1649.49 352.02H1644.76L1634.88 364.78L1627.28 354.96L1625 352.02H1615.44C1616.89 380.76 1635.12 403.55 1657.3 403.55C1679.48 403.55 1697.36 381.38 1699.11 352.83L1698.48 352.02H1693.75H1693.74Z" fill="#F3BD48"/>
<path d="M1737.97 325.73V347.67C1737.97 358.67 1746 367.84 1756.51 369.61V347.67C1756.51 336.67 1748.48 327.5 1737.97 325.73Z" fill="#F3BD48"/>
<path d="M1810.25 443.5C1785.66 443.5 1765.65 463.51 1765.65 488.1V490H2033.38V443.5H1810.25Z" fill="#F3BD48"/>
<path d="M1682.4 321.26C1688.21 314.25 1689.23 304.03 1684.18 295.87C1680.06 289.21 1672.91 285.55 1665.61 285.55C1661.7 285.55 1657.74 286.6 1654.17 288.81C1645.45 294.21 1641.89 304.79 1644.95 314.13C1645.3 315.2 1645.74 316.26 1646.26 317.29C1646.52 317.81 1646.79 318.32 1647.1 318.82C1647.42 319.33 1647.76 319.81 1648.12 320.29C1654.79 329.32 1667.41 331.9 1677.12 325.89C1677.15 325.87 1677.17 325.85 1677.19 325.84C1678.21 325.2 1679.14 324.48 1680.02 323.71C1680.88 322.95 1681.68 322.14 1682.4 321.27V321.26ZM1674.12 306.92C1670.61 309.09 1666.01 308.01 1663.84 304.5C1661.67 300.99 1662.75 296.39 1666.26 294.22C1669.77 292.05 1674.37 293.13 1676.54 296.64C1678.71 300.15 1677.63 304.75 1674.12 306.92ZM1641.38 323.37C1641.52 323.28 1641.67 323.22 1641.81 323.13C1647.29 331.4 1656.38 335.97 1665.69 335.97C1670.83 335.97 1676.03 334.59 1680.71 331.69C1681.16 331.41 1681.58 331.09 1682.01 330.79C1682.64 331.61 1683.23 332.46 1683.78 333.35C1686.42 337.62 1687.86 342.29 1688.25 346.98L1683.85 352.67L1677.6 344.61H1665.6L1659.35 352.67L1653.1 344.61H1641.1L1634.85 352.67L1628.6 344.61H1627.2C1627.32 343.91 1627.42 343.21 1627.59 342.51C1629.47 334.5 1634.37 327.7 1641.37 323.37H1641.38ZM1919.78 321.42H1920.26C1930.78 321.42 1940.64 325.83 1948.01 333.85C1955.2 341.67 1959.17 352.01 1959.17 362.98V383.6H1880.87V362.98C1880.87 340.06 1898.33 321.42 1919.78 321.42Z" fill="#FCE200"/>
<path d="M1919.56 278.97H1920.47C1941.5 278.97 1961.16 286.84 1975.85 301.14C1990.01 314.93 1997.81 333.12 1997.81 352.38V383.6H1985.91V357.68C1985.91 340.62 1979.28 324.5 1967.23 312.3C1954.79 299.71 1938.15 292.77 1920.36 292.77H1919.66C1883.52 292.77 1854.12 321.89 1854.12 357.68V383.6H1842.96C1842.71 383.6 1842.47 383.62 1842.22 383.62V352.38C1842.22 311.9 1876.91 278.97 1919.56 278.97ZM1763.92 347.68V369.62C1774.43 367.85 1782.46 358.68 1782.46 347.68V325.74C1771.95 327.51 1763.92 336.68 1763.92 347.68ZM1617.77 244.48C1620.07 238 1618.89 231.38 1614.7 227.19L1610.36 222.85C1604.89 230.37 1604.74 240.07 1610.45 245.79L1615.52 250.85L1617.78 244.48H1617.77ZM1581.9 250.6L1586.24 254.94C1590.43 259.13 1597.06 260.3 1603.53 258.01L1609.89 255.75L1604.83 250.69C1599.11 244.97 1589.42 245.13 1581.89 250.6H1581.9ZM1608.27 262.75C1605.98 269.23 1607.15 275.85 1611.34 280.04L1615.68 284.38C1621.15 276.86 1621.3 267.16 1615.59 261.44L1610.52 256.37L1608.27 262.74V262.75ZM1616.14 251.47L1621.21 256.54C1624.26 259.59 1628.57 261.08 1633.33 260.72C1637.14 260.44 1640.88 259.01 1644.14 256.63L1639.8 252.29C1635.61 248.1 1628.99 246.93 1622.51 249.22L1616.15 251.47H1616.14ZM1397.56 457.8H1144.19C1143.66 457.8 1143.15 457.86 1142.62 457.88C1142.26 457.88 1141.9 457.92 1141.53 457.94H1141.46C1140.37 458 1139.28 458.09 1138.21 458.23C1138.08 458.25 1137.95 458.27 1137.82 458.29C1137.8 458.29 1137.77 458.3 1137.75 458.3C1136.52 458.47 1135.31 458.66 1134.11 458.93C1134.09 458.94 1134.06 458.94 1134.04 458.95C1133.99 458.96 1133.95 458.97 1133.9 458.98C1117.86 462.62 1104.95 474.55 1099.91 490H1441.83C1435.74 471.34 1418.23 457.8 1397.56 457.8Z" fill="#F09F54"/>
<path d="M1743.86 405.53H1755.96C1754.37 400.36 1749.55 396.59 1743.86 396.59H1731.76C1733.35 401.76 1738.17 405.53 1743.86 405.53Z" fill="#A2D45E"/>
<path d="M1834.81 352.38C1834.81 307.81 1872.83 271.55 1919.57 271.55H1920.48C1943.45 271.55 1964.96 280.17 1981.03 295.82C1996.64 311.02 2005.23 331.1 2005.23 352.38V383.6H2017.13V347.08C2017.13 323.66 2007.4 301.52 1989.73 284.74C1971.4 267.33 1946.84 257.74 1920.58 257.74H1919.45C1866.21 257.74 1822.9 297.82 1822.9 347.08V386.02C1826.77 385.08 1830.74 384.39 1834.8 384V352.38H1834.81Z" fill="#A2D45E"/>
<path d="M1842.97 391.02C1842.72 391.02 1842.48 391.04 1842.23 391.04C1840.99 391.05 1839.75 391.09 1838.52 391.16C1837.28 391.23 1836.04 391.33 1834.81 391.46C1830.74 391.89 1826.77 392.64 1822.91 393.68C1821.66 394.02 1820.42 394.38 1819.2 394.78C1817.95 395.19 1816.71 395.62 1815.49 396.09C1788.65 406.33 1768.93 431.11 1766.02 460.76C1775.2 445.97 1791.59 436.09 1810.24 436.09H2033.37V391.03H1842.96L1842.97 391.02Z" fill="#A2D45E"/>
<path d="M1680.9 413.02H1522.06C1482.12 413.02 1449.62 445.51 1449.62 485.46V490.01H1758.21C1758.02 447.53 1723.42 413.03 1680.9 413.03V413.02Z" fill="#A2D45E"/>
<path d="M302.19 468.31C301.29 450.19 300.01 432.08 299.08 413.96C298.94 411.17 298.84 408.38 298.76 405.59H239.28C206.29 405.59 177.67 424.55 163.67 452.13V412.94H176.33C187.39 412.94 196.4 403.94 196.4 392.87V389.16H176.33C171.53 389.16 167.13 390.86 163.67 393.67V377.08C178.29 375.25 189.64 362.77 189.64 347.67V318H185.93C174.76 318 165.03 324.2 159.96 333.33C154.9 324.2 145.17 318 134 318H130.29V347.67C130.29 362.77 141.64 375.25 156.25 377.08V437.83C147.26 414.61 128.33 396.32 104.69 388.19V347.08C104.69 293.72 58.0503 250.32 0.730316 250.32H-0.399689C-28.5597 250.32 -54.9397 260.63 -74.6597 279.36C-93.8097 297.55 -104.36 321.6 -104.36 347.08V383.59H-113.18V489.99H302.87C302.6 482.72 302.55 475.44 302.19 468.31Z" fill="black"/>
<path d="M-46.4008 362.98C-46.4008 350.15 -41.7408 338.02 -33.2808 328.83C-24.4808 319.26 -12.6908 314 -0.0707817 314H0.409218C25.9592 314 46.7392 335.97 46.7392 362.98V383.6H58.6392V357.68C58.6392 325.98 32.5692 300.2 0.519218 300.2H-0.180782C-15.9608 300.2 -30.7308 306.35 -41.7608 317.52C-52.4308 328.32 -58.3008 342.58 -58.3008 357.68V383.6H-46.4008V362.98Z" fill="#F3BD48"/>
<path d="M109.95 443.51H-113.18V490H154.55V488.11C154.55 463.51 134.54 443.51 109.95 443.51Z" fill="#F3BD48"/>
<path d="M163.68 347.68V369.62C174.19 367.85 182.23 358.68 182.23 347.68V325.74C171.72 327.51 163.68 336.67 163.68 347.68Z" fill="#F3BD48"/>
<path d="M0.409531 321.42H-0.0704689C-10.5905 321.42 -20.4505 325.83 -27.8205 333.85C-35.0205 341.67 -38.9805 352.02 -38.9805 362.98V383.6H39.3195V362.98C39.3195 340.06 21.8695 321.42 0.409531 321.42Z" fill="#FCE200"/>
<path d="M137.719 325.74V347.68C137.719 358.68 145.749 367.85 156.259 369.62V347.68C156.259 336.67 148.229 327.51 137.719 325.74Z" fill="#F09F54"/>
<path d="M0.628906 278.97H-0.291092C-21.3111 278.97 -40.9811 286.85 -55.6611 301.14C-69.8211 314.93 -77.6211 333.13 -77.6211 352.38V383.6H-65.7211V357.68C-65.7211 340.62 -59.0911 324.5 -47.0411 312.31C-34.6111 299.71 -17.9611 292.78 -0.181091 292.78H0.518906C36.6589 292.78 66.0589 321.89 66.0589 357.68V383.6H77.2189C77.4689 383.6 77.7189 383.62 77.9589 383.62V352.38C77.9589 311.9 43.2689 278.97 0.628906 278.97Z" fill="#F09F54"/>
<path d="M104.7 396.09C103.48 395.62 102.25 395.18 100.99 394.78C99.7703 394.38 98.5303 394.01 97.2803 393.68C93.4303 392.64 89.4503 391.89 85.3803 391.46C84.1603 391.33 82.9203 391.23 81.6703 391.16C80.4403 391.09 79.2103 391.05 77.9603 391.04C77.7203 391.04 77.4703 391.02 77.2203 391.02H-113.18V436.09H109.95C128.6 436.09 144.99 445.96 154.17 460.76C151.27 431.11 131.55 406.33 104.7 396.09Z" fill="#A2D45E"/>
<path d="M-85.0414 352.38C-85.0414 331.11 -76.4514 311.02 -60.8414 295.83C-44.7614 280.17 -23.2614 271.55 -0.291405 271.55H0.628593C47.3586 271.55 85.3786 307.81 85.3786 352.38V384C89.4386 384.39 93.4086 385.08 97.2786 386.02V347.09C97.2786 297.83 53.9686 257.75 0.738594 257.75H-0.401405C-26.6514 257.75 -51.2114 267.34 -69.5514 284.75C-87.2114 301.52 -96.9414 323.66 -96.9414 347.09V383.6H-85.0414V352.38Z" fill="#A2D45E"/>
<path d="M188.432 396.59H176.342C170.652 396.59 165.832 400.36 164.242 405.53H176.342C182.022 405.53 186.842 401.76 188.432 396.59Z" fill="#A2D45E"/>
<path d="M311.579 468.31C310.679 450.19 314.679 427.43 313.749 409.31C313.729 408.99 299.059 413.33 299.039 413.02H239.289C196.769 413.02 162.159 447.52 161.969 490H307.879C307.609 482.73 311.939 475.45 311.579 468.32V468.31Z" fill="#A2D45E"/>
<path d="M297.988 409.31H1092.93C1125.32 409.31 1153.47 427.48 1167.74 454.18" stroke="#1D1D1B" stroke-width="7.43" stroke-miterlimit="10"/>
<path d="M244.23 288.83C258.3 288.83 269.72 300.25 269.72 314.32V341.81H266.4C254.17 341.81 244.23 331.88 244.23 319.64V288.82V288.83Z" fill="#F3BD48"/>
<path d="M273.049 341.82H269.729V314.33C269.729 300.26 281.149 288.84 295.219 288.84V319.66C295.219 331.89 285.289 341.83 273.049 341.83V341.82Z" fill="#F09F54"/>
<path d="M269.719 381.96V384.46H253.219C244.779 384.46 237.929 377.61 237.929 369.17V366.67H254.429C262.869 366.67 269.719 373.52 269.719 381.96Z" fill="#A2D45E"/>
<path d="M244.23 288.83C258.3 288.83 269.72 300.25 269.72 314.32V341.81H266.4C254.17 341.81 244.23 331.88 244.23 319.64V288.82V288.83Z" stroke="#1D1D1B" stroke-width="7.43" stroke-miterlimit="10"/>
<path d="M273.049 341.82H269.729V314.33C269.729 300.26 281.149 288.84 295.219 288.84V319.66C295.219 331.89 285.289 341.83 273.049 341.83V341.82Z" stroke="#1D1D1B" stroke-width="7.43" stroke-miterlimit="10"/>
<path d="M269.719 381.96V384.46H253.219C244.779 384.46 237.929 377.61 237.929 369.17V366.67H254.429C262.869 366.67 269.719 373.52 269.719 381.96Z" stroke="#1D1D1B" stroke-width="7.43" stroke-miterlimit="10"/>
<path d="M269.719 338.48V409.29" stroke="#1D1D1B" stroke-width="7.43" stroke-miterlimit="10"/>
<path d="M339.553 306.41H336.233V278.92C336.233 264.85 347.653 253.43 361.723 253.43V284.25C361.723 296.48 351.793 306.42 339.553 306.42V306.41Z" fill="#F3BD48"/>
<path d="M310.742 253.43C324.812 253.43 336.232 264.85 336.232 278.92V306.41H332.912C320.682 306.41 310.742 296.48 310.742 284.24V253.42V253.43Z" fill="#F09F54"/>
<path d="M368.02 331.26V333.76C368.02 342.2 361.17 349.05 352.73 349.05H336.23V346.55C336.23 338.11 343.08 331.26 351.52 331.26H368.02Z" fill="#A2D45E"/>
<path d="M339.553 306.41H336.233V278.92C336.233 264.85 347.653 253.43 361.723 253.43V284.25C361.723 296.48 351.793 306.42 339.553 306.42V306.41Z" stroke="#1D1D1B" stroke-width="7.43" stroke-miterlimit="10"/>
<path d="M310.742 253.43C324.812 253.43 336.232 264.85 336.232 278.92V306.41H332.912C320.682 306.41 310.742 296.48 310.742 284.24V253.42V253.43Z" stroke="#1D1D1B" stroke-width="7.43" stroke-miterlimit="10"/>
<path d="M368.02 331.26V333.76C368.02 342.2 361.17 349.05 352.73 349.05H336.23V346.55C336.23 338.11 343.08 331.26 351.52 331.26H368.02Z" stroke="#1D1D1B" stroke-width="7.43" stroke-miterlimit="10"/>
<path d="M336.23 383.61V386.11H319.73C311.29 386.11 304.44 379.26 304.44 370.82V368.32H320.94C329.38 368.32 336.23 375.17 336.23 383.61Z" fill="#A2D45E"/>
<path d="M336.23 383.61V386.11H319.73C311.29 386.11 304.44 379.26 304.44 370.82V368.32H320.94C329.38 368.32 336.23 375.17 336.23 383.61Z" stroke="#1D1D1B" stroke-width="7.43" stroke-miterlimit="10"/>
<path d="M336.23 303.07V409.29" stroke="#1D1D1B" stroke-width="7.43" stroke-miterlimit="10"/>
<path d="M392.039 315.33C406.109 315.33 417.529 326.75 417.529 340.82V368.31H414.209C401.979 368.31 392.039 358.38 392.039 346.14V315.32V315.33Z" fill="#F3BD48"/>
<path d="M420.861 368.32H417.541V340.83C417.541 326.76 428.961 315.34 443.031 315.34V346.16C443.031 358.39 433.101 368.33 420.861 368.33V368.32Z" fill="#F09F54"/>
<path d="M417.539 394.09V396.59H401.039C392.599 396.59 385.749 389.74 385.749 381.3V378.8H402.249C410.689 378.8 417.539 385.65 417.539 394.09Z" fill="#A2D45E"/>
<path d="M392.039 315.33C406.109 315.33 417.529 326.75 417.529 340.82V368.31H414.209C401.979 368.31 392.039 358.38 392.039 346.14V315.32V315.33Z" stroke="#1D1D1B" stroke-width="7.43" stroke-miterlimit="10"/>
<path d="M420.861 368.32H417.541V340.83C417.541 326.76 428.961 315.34 443.031 315.34V346.16C443.031 358.39 433.101 368.33 420.861 368.33V368.32Z" stroke="#1D1D1B" stroke-width="7.43" stroke-miterlimit="10"/>
<path d="M417.539 394.09V396.59H401.039C392.599 396.59 385.749 389.74 385.749 381.3V378.8H402.249C410.689 378.8 417.539 385.65 417.539 394.09Z" stroke="#1D1D1B" stroke-width="7.43" stroke-miterlimit="10"/>
<path d="M417.531 364.98V409.31" stroke="#1D1D1B" stroke-width="7.43" stroke-miterlimit="10"/>
<path d="M793.352 315.33C807.422 315.33 818.842 326.75 818.842 340.82V368.31H815.522C803.292 368.31 793.352 358.38 793.352 346.14V315.32V315.33Z" fill="#F3BD48"/>
<path d="M822.162 368.32H818.842V340.83C818.842 326.76 830.262 315.34 844.332 315.34V346.16C844.332 358.39 834.402 368.33 822.162 368.33V368.32Z" fill="#F09F54"/>
<path d="M818.84 394.08V396.58H802.34C793.9 396.58 787.05 389.73 787.05 381.29V378.79H803.55C811.99 378.79 818.84 385.64 818.84 394.08Z" fill="#A2D45E"/>
<path d="M793.352 315.33C807.422 315.33 818.842 326.75 818.842 340.82V368.31H815.522C803.292 368.31 793.352 358.38 793.352 346.14V315.32V315.33Z" stroke="#1D1D1B" stroke-width="7.43" stroke-miterlimit="10"/>
<path d="M822.162 368.32H818.842V340.83C818.842 326.76 830.262 315.34 844.332 315.34V346.16C844.332 358.39 834.402 368.33 822.162 368.33V368.32Z" stroke="#1D1D1B" stroke-width="7.43" stroke-miterlimit="10"/>
<path d="M818.84 394.08V396.58H802.34C793.9 396.58 787.05 389.73 787.05 381.29V378.79H803.55C811.99 378.79 818.84 385.64 818.84 394.08Z" stroke="#1D1D1B" stroke-width="7.43" stroke-miterlimit="10"/>
<path d="M818.84 364.98V409.31" stroke="#1D1D1B" stroke-width="7.43" stroke-miterlimit="10"/>
<path d="M904.211 315.33C918.281 315.33 929.701 326.75 929.701 340.82V368.31H926.381C914.151 368.31 904.211 358.38 904.211 346.14V315.32V315.33Z" fill="#F3BD48"/>
<path d="M933.033 368.32H929.713V340.83C929.713 326.76 941.133 315.34 955.203 315.34V346.16C955.203 358.39 945.273 368.33 933.033 368.33V368.32Z" fill="#F09F54"/>
<path d="M929.711 394.09V396.59H913.211C904.771 396.59 897.921 389.74 897.921 381.3V378.8H914.421C922.861 378.8 929.711 385.65 929.711 394.09Z" fill="#A2D45E"/>
<path d="M904.211 315.33C918.281 315.33 929.701 326.75 929.701 340.82V368.31H926.381C914.151 368.31 904.211 358.38 904.211 346.14V315.32V315.33Z" stroke="#1D1D1B" stroke-width="7.43" stroke-miterlimit="10"/>
<path d="M933.033 368.32H929.713V340.83C929.713 326.76 941.133 315.34 955.203 315.34V346.16C955.203 358.39 945.273 368.33 933.033 368.33V368.32Z" stroke="#1D1D1B" stroke-width="7.43" stroke-miterlimit="10"/>
<path d="M929.711 394.09V396.59H913.211C904.771 396.59 897.921 389.74 897.921 381.3V378.8H914.421C922.861 378.8 929.711 385.65 929.711 394.09Z" stroke="#1D1D1B" stroke-width="7.43" stroke-miterlimit="10"/>
<path d="M929.703 364.98V409.31" stroke="#1D1D1B" stroke-width="7.43" stroke-miterlimit="10"/>
<path d="M1054.85 288.83C1068.92 288.83 1080.34 300.25 1080.34 314.32V341.81H1077.02C1064.79 341.81 1054.85 331.88 1054.85 319.64V288.82V288.83Z" fill="#F3BD48"/>
<path d="M1083.67 341.81H1080.35V314.32C1080.35 300.25 1091.77 288.83 1105.84 288.83V319.65C1105.84 331.88 1095.91 341.82 1083.67 341.82V341.81Z" fill="#F09F54"/>
<path d="M1080.34 381.95V384.45H1063.84C1055.4 384.45 1048.55 377.6 1048.55 369.16V366.66H1065.05C1073.49 366.66 1080.34 373.51 1080.34 381.95Z" fill="#A2D45E"/>
<path d="M1054.85 288.83C1068.92 288.83 1080.34 300.25 1080.34 314.32V341.81H1077.02C1064.79 341.81 1054.85 331.88 1054.85 319.64V288.82V288.83Z" stroke="#1D1D1B" stroke-width="7.43" stroke-miterlimit="10"/>
<path d="M1083.67 341.81H1080.35V314.32C1080.35 300.25 1091.77 288.83 1105.84 288.83V319.65C1105.84 331.88 1095.91 341.82 1083.67 341.82V341.81Z" stroke="#1D1D1B" stroke-width="7.43" stroke-miterlimit="10"/>
<path d="M1080.34 381.95V384.45H1063.84C1055.4 384.45 1048.55 377.6 1048.55 369.16V366.66H1065.05C1073.49 366.66 1080.34 373.51 1080.34 381.95Z" stroke="#1D1D1B" stroke-width="7.43" stroke-miterlimit="10"/>
<path d="M1080.34 338.47V409.28" stroke="#1D1D1B" stroke-width="7.43" stroke-miterlimit="10"/>
<path d="M1285.15 333.72C1299.22 333.72 1310.64 345.14 1310.64 359.21V386.7H1307.32C1295.09 386.7 1285.15 376.77 1285.15 364.53V333.71V333.72Z" fill="#F3BD48"/>
<path d="M1313.96 386.7H1310.64V359.21C1310.64 345.14 1322.06 333.72 1336.13 333.72V364.54C1336.13 376.77 1326.2 386.71 1313.96 386.71V386.7Z" fill="#F09F54"/>
<path d="M1310.64 426.84V429.34H1294.14C1285.7 429.34 1278.85 422.49 1278.85 414.05V411.55H1295.35C1303.79 411.55 1310.64 418.4 1310.64 426.84Z" fill="#A2D45E"/>
<path d="M1285.15 333.72C1299.22 333.72 1310.64 345.14 1310.64 359.21V386.7H1307.32C1295.09 386.7 1285.15 376.77 1285.15 364.53V333.71V333.72Z" stroke="#1D1D1B" stroke-width="7.43" stroke-miterlimit="10"/>
<path d="M1313.96 386.7H1310.64V359.21C1310.64 345.14 1322.06 333.72 1336.13 333.72V364.54C1336.13 376.77 1326.2 386.71 1313.96 386.71V386.7Z" stroke="#1D1D1B" stroke-width="7.43" stroke-miterlimit="10"/>
<path d="M1310.64 426.84V429.34H1294.14C1285.7 429.34 1278.85 422.49 1278.85 414.05V411.55H1295.35C1303.79 411.55 1310.64 418.4 1310.64 426.84Z" stroke="#1D1D1B" stroke-width="7.43" stroke-miterlimit="10"/>
<path d="M1310.64 383.36V454.18" stroke="#1D1D1B" stroke-width="7.43" stroke-miterlimit="10"/>
<path d="M1375.07 348.07H1371.75V320.58C1371.75 306.51 1383.17 295.09 1397.24 295.09V325.91C1397.24 338.14 1387.31 348.08 1375.07 348.08V348.07Z" fill="#F3BD48"/>
<path d="M1346.25 295.08C1360.32 295.08 1371.74 306.5 1371.74 320.57V348.06H1368.42C1356.19 348.06 1346.25 338.13 1346.25 325.89V295.07V295.08Z" fill="#F09F54"/>
<path d="M1403.53 372.91V375.41C1403.53 383.85 1396.68 390.7 1388.24 390.7H1371.74V388.2C1371.74 379.76 1378.59 372.91 1387.03 372.91H1403.53Z" fill="#A2D45E"/>
<path d="M1375.07 348.07H1371.75V320.58C1371.75 306.51 1383.17 295.09 1397.24 295.09V325.91C1397.24 338.14 1387.31 348.08 1375.07 348.08V348.07Z" stroke="#1D1D1B" stroke-width="7.43" stroke-miterlimit="10"/>
<path d="M1346.25 295.08C1360.32 295.08 1371.74 306.5 1371.74 320.57V348.06H1368.42C1356.19 348.06 1346.25 338.13 1346.25 325.89V295.07V295.08Z" stroke="#1D1D1B" stroke-width="7.43" stroke-miterlimit="10"/>
<path d="M1403.53 372.91V375.41C1403.53 383.85 1396.68 390.7 1388.24 390.7H1371.74V388.2C1371.74 379.76 1378.59 372.91 1387.03 372.91H1403.53Z" stroke="#1D1D1B" stroke-width="7.43" stroke-miterlimit="10"/>
<path d="M1371.75 415.71V418.21H1355.25C1346.81 418.21 1339.96 411.36 1339.96 402.92V400.42H1356.46C1364.9 400.42 1371.75 407.27 1371.75 415.71Z" fill="#A2D45E"/>
<path d="M1371.75 415.71V418.21H1355.25C1346.81 418.21 1339.96 411.36 1339.96 402.92V400.42H1356.46C1364.9 400.42 1371.75 407.27 1371.75 415.71Z" stroke="#1D1D1B" stroke-width="7.43" stroke-miterlimit="10"/>
<path d="M1371.75 344.73V454.18" stroke="#1D1D1B" stroke-width="7.43" stroke-miterlimit="10"/>
<path d="M519.289 331.68V334.18C519.289 342.62 512.439 349.47 503.999 349.47H487.499V346.97C487.499 338.53 494.349 331.68 502.789 331.68H519.289Z" fill="#A2D45E"/>
<path d="M519.289 331.68V334.18C519.289 342.62 512.439 349.47 503.999 349.47H487.499V346.97C487.499 338.53 494.349 331.68 502.789 331.68H519.289Z" stroke="#1D1D1B" stroke-width="7.43" stroke-miterlimit="10"/>
<path d="M487.5 384.03V386.53H471C462.56 386.53 455.71 379.68 455.71 371.24V368.74H472.21C480.65 368.74 487.5 375.59 487.5 384.03Z" fill="#A2D45E"/>
<path d="M487.5 384.03V386.53H471C462.56 386.53 455.71 379.68 455.71 371.24V368.74H472.21C480.65 368.74 487.5 375.59 487.5 384.03Z" stroke="#1D1D1B" stroke-width="7.43" stroke-miterlimit="10"/>
<path d="M487.5 303.49V409.71" stroke="#1D1D1B" stroke-width="7.43" stroke-miterlimit="10"/>
<path d="M475.23 291.54C484.569 291.54 492.14 283.969 492.14 274.63C492.14 265.291 484.569 257.72 475.23 257.72C465.891 257.72 458.32 265.291 458.32 274.63C458.32 283.969 465.891 291.54 475.23 291.54Z" fill="#F3BD48"/>
<path d="M499.14 315.45C508.48 315.45 516.05 307.879 516.05 298.54C516.05 289.201 508.48 281.63 499.14 281.63C489.801 281.63 482.23 289.201 482.23 298.54C482.23 307.879 489.801 315.45 499.14 315.45Z" fill="#F3BD48"/>
<path d="M499.14 291.54C508.48 291.54 516.05 283.969 516.05 274.63C516.05 265.291 508.48 257.72 499.14 257.72C489.801 257.72 482.23 265.291 482.23 274.63C482.23 283.969 489.801 291.54 499.14 291.54Z" fill="#F09F54"/>
<path d="M475.23 315.45C484.569 315.45 492.14 307.879 492.14 298.54C492.14 289.201 484.569 281.63 475.23 281.63C465.891 281.63 458.32 289.201 458.32 298.54C458.32 307.879 465.891 315.45 475.23 315.45Z" fill="#F09F54"/>
<path d="M475.23 291.54C484.569 291.54 492.14 283.969 492.14 274.63C492.14 265.291 484.569 257.72 475.23 257.72C465.891 257.72 458.32 265.291 458.32 274.63C458.32 283.969 465.891 291.54 475.23 291.54Z" stroke="#1D1D1B" stroke-width="7.43" stroke-miterlimit="10"/>
<path d="M499.14 315.45C508.48 315.45 516.05 307.879 516.05 298.54C516.05 289.201 508.48 281.63 499.14 281.63C489.801 281.63 482.23 289.201 482.23 298.54C482.23 307.879 489.801 315.45 499.14 315.45Z" stroke="#1D1D1B" stroke-width="7.43" stroke-miterlimit="10"/>
<path d="M499.14 291.54C508.48 291.54 516.05 283.969 516.05 274.63C516.05 265.291 508.48 257.72 499.14 257.72C489.801 257.72 482.23 265.291 482.23 274.63C482.23 283.969 489.801 291.54 499.14 291.54Z" stroke="#1D1D1B" stroke-width="7.43" stroke-miterlimit="10"/>
<path d="M475.23 315.45C484.569 315.45 492.14 307.879 492.14 298.54C492.14 289.201 484.569 281.63 475.23 281.63C465.891 281.63 458.32 289.201 458.32 298.54C458.32 307.879 465.891 315.45 475.23 315.45Z" stroke="#1D1D1B" stroke-width="7.43" stroke-miterlimit="10"/>
<path d="M487.402 306.31C498.16 306.31 506.882 297.589 506.882 286.83C506.882 276.072 498.16 267.35 487.402 267.35C476.643 267.35 467.922 276.072 467.922 286.83C467.922 297.589 476.643 306.31 487.402 306.31Z" fill="#FCE200"/>
<path d="M487.511 306.05C498.27 306.05 506.991 297.328 506.991 286.57C506.991 275.811 498.27 267.09 487.511 267.09C476.753 267.09 468.031 275.811 468.031 286.57C468.031 297.328 476.753 306.05 487.511 306.05Z" stroke="#1D1D1B" stroke-width="7.43" stroke-miterlimit="10"/>
<path d="M1030.25 331.68V334.18C1030.25 342.62 1023.4 349.47 1014.96 349.47H998.46V346.97C998.46 338.53 1005.31 331.68 1013.75 331.68H1030.25Z" fill="#A2D45E"/>
<path d="M1030.25 331.68V334.18C1030.25 342.62 1023.4 349.47 1014.96 349.47H998.46V346.97C998.46 338.53 1005.31 331.68 1013.75 331.68H1030.25Z" stroke="#1D1D1B" stroke-width="7.43" stroke-miterlimit="10"/>
<path d="M998.461 384.03V386.53H981.961C973.521 386.53 966.671 379.68 966.671 371.24V368.74H983.171C991.611 368.74 998.461 375.59 998.461 384.03Z" fill="#A2D45E"/>
<path d="M998.461 384.03V386.53H981.961C973.521 386.53 966.671 379.68 966.671 371.24V368.74H983.171C991.611 368.74 998.461 375.59 998.461 384.03Z" stroke="#1D1D1B" stroke-width="7.43" stroke-miterlimit="10"/>
<path d="M998.461 303.49V409.71" stroke="#1D1D1B" stroke-width="7.43" stroke-miterlimit="10"/>
<path d="M986.183 291.54C995.523 291.54 1003.09 283.969 1003.09 274.63C1003.09 265.291 995.523 257.72 986.183 257.72C976.844 257.72 969.273 265.291 969.273 274.63C969.273 283.969 976.844 291.54 986.183 291.54Z" fill="#F3BD48"/>
<path d="M1010.09 315.45C1019.43 315.45 1027 307.879 1027 298.54C1027 289.201 1019.43 281.63 1010.09 281.63C1000.75 281.63 993.184 289.201 993.184 298.54C993.184 307.879 1000.75 315.45 1010.09 315.45Z" fill="#F3BD48"/>
<path d="M1010.09 291.54C1019.43 291.54 1027 283.969 1027 274.63C1027 265.291 1019.43 257.72 1010.09 257.72C1000.75 257.72 993.184 265.291 993.184 274.63C993.184 283.969 1000.75 291.54 1010.09 291.54Z" fill="#F09F54"/>
<path d="M986.183 315.45C995.523 315.45 1003.09 307.879 1003.09 298.54C1003.09 289.201 995.523 281.63 986.183 281.63C976.844 281.63 969.273 289.201 969.273 298.54C969.273 307.879 976.844 315.45 986.183 315.45Z" fill="#F09F54"/>
<path d="M986.183 291.54C995.523 291.54 1003.09 283.969 1003.09 274.63C1003.09 265.291 995.523 257.72 986.183 257.72C976.844 257.72 969.273 265.291 969.273 274.63C969.273 283.969 976.844 291.54 986.183 291.54Z" stroke="#1D1D1B" stroke-width="7.43" stroke-miterlimit="10"/>
<path d="M1010.09 315.45C1019.43 315.45 1027 307.879 1027 298.54C1027 289.201 1019.43 281.63 1010.09 281.63C1000.75 281.63 993.184 289.201 993.184 298.54C993.184 307.879 1000.75 315.45 1010.09 315.45Z" stroke="#1D1D1B" stroke-width="7.43" stroke-miterlimit="10"/>
<path d="M1010.09 291.54C1019.43 291.54 1027 283.969 1027 274.63C1027 265.291 1019.43 257.72 1010.09 257.72C1000.75 257.72 993.184 265.291 993.184 274.63C993.184 283.969 1000.75 291.54 1010.09 291.54Z" stroke="#1D1D1B" stroke-width="7.43" stroke-miterlimit="10"/>
<path d="M986.183 315.45C995.523 315.45 1003.09 307.879 1003.09 298.54C1003.09 289.201 995.523 281.63 986.183 281.63C976.844 281.63 969.273 289.201 969.273 298.54C969.273 307.879 976.844 315.45 986.183 315.45Z" stroke="#1D1D1B" stroke-width="7.43" stroke-miterlimit="10"/>
<path d="M998.363 306.31C1009.12 306.31 1017.84 297.589 1017.84 286.83C1017.84 276.072 1009.12 267.35 998.363 267.35C987.604 267.35 978.883 276.072 978.883 286.83C978.883 297.589 987.604 306.31 998.363 306.31Z" fill="#FCE200"/>
<path d="M998.472 306.05C1009.23 306.05 1017.95 297.328 1017.95 286.57C1017.95 275.811 1009.23 267.09 998.472 267.09C987.714 267.09 978.992 275.811 978.992 286.57C978.992 297.328 987.714 306.05 998.472 306.05Z" stroke="#1D1D1B" stroke-width="7.43" stroke-miterlimit="10"/>
<path d="M768.656 331.68V334.18C768.656 342.62 761.806 349.47 753.366 349.47H736.866V346.97C736.866 338.53 743.716 331.68 752.156 331.68H768.656Z" fill="#A2D45E"/>
<path d="M768.656 331.68V334.18C768.656 342.62 761.806 349.47 753.366 349.47H736.866V346.97C736.866 338.53 743.716 331.68 752.156 331.68H768.656Z" stroke="#1D1D1B" stroke-width="7.43" stroke-miterlimit="10"/>
<path d="M736.867 384.04V386.54H720.367C711.927 386.54 705.077 379.69 705.077 371.25V368.75H721.577C730.017 368.75 736.867 375.6 736.867 384.04Z" fill="#A2D45E"/>
<path d="M736.867 384.04V386.54H720.367C711.927 386.54 705.077 379.69 705.077 371.25V368.75H721.577C730.017 368.75 736.867 375.6 736.867 384.04Z" stroke="#1D1D1B" stroke-width="7.43" stroke-miterlimit="10"/>
<path d="M736.867 303.49V409.71" stroke="#1D1D1B" stroke-width="7.43" stroke-miterlimit="10"/>
<path d="M724.597 291.54C733.937 291.54 741.508 283.969 741.508 274.63C741.508 265.291 733.937 257.72 724.597 257.72C715.258 257.72 707.688 265.291 707.688 274.63C707.688 283.969 715.258 291.54 724.597 291.54Z" fill="#F3BD48"/>
<path d="M748.508 315.45C757.847 315.45 765.418 307.879 765.418 298.54C765.418 289.201 757.847 281.63 748.508 281.63C739.169 281.63 731.598 289.201 731.598 298.54C731.598 307.879 739.169 315.45 748.508 315.45Z" fill="#F3BD48"/>
<path d="M748.508 291.54C757.847 291.54 765.418 283.969 765.418 274.63C765.418 265.291 757.847 257.72 748.508 257.72C739.169 257.72 731.598 265.291 731.598 274.63C731.598 283.969 739.169 291.54 748.508 291.54Z" fill="#F09F54"/>
<path d="M724.597 315.45C733.937 315.45 741.508 307.879 741.508 298.54C741.508 289.201 733.937 281.63 724.597 281.63C715.258 281.63 707.688 289.201 707.688 298.54C707.688 307.879 715.258 315.45 724.597 315.45Z" fill="#F09F54"/>
<path d="M724.597 291.54C733.937 291.54 741.508 283.969 741.508 274.63C741.508 265.291 733.937 257.72 724.597 257.72C715.258 257.72 707.688 265.291 707.688 274.63C707.688 283.969 715.258 291.54 724.597 291.54Z" stroke="#1D1D1B" stroke-width="7.43" stroke-miterlimit="10"/>
<path d="M748.508 315.45C757.847 315.45 765.418 307.879 765.418 298.54C765.418 289.201 757.847 281.63 748.508 281.63C739.169 281.63 731.598 289.201 731.598 298.54C731.598 307.879 739.169 315.45 748.508 315.45Z" stroke="#1D1D1B" stroke-width="7.43" stroke-miterlimit="10"/>
<path d="M748.508 291.54C757.847 291.54 765.418 283.969 765.418 274.63C765.418 265.291 757.847 257.72 748.508 257.72C739.169 257.72 731.598 265.291 731.598 274.63C731.598 283.969 739.169 291.54 748.508 291.54Z" stroke="#1D1D1B" stroke-width="7.43" stroke-miterlimit="10"/>
<path d="M724.597 315.45C733.937 315.45 741.508 307.879 741.508 298.54C741.508 289.201 733.937 281.63 724.597 281.63C715.258 281.63 707.688 289.201 707.688 298.54C707.688 307.879 715.258 315.45 724.597 315.45Z" stroke="#1D1D1B" stroke-width="7.43" stroke-miterlimit="10"/>
<path d="M736.769 306.31C747.528 306.31 756.249 297.589 756.249 286.83C756.249 276.072 747.528 267.35 736.769 267.35C726.011 267.35 717.289 276.072 717.289 286.83C717.289 297.589 726.011 306.31 736.769 306.31Z" fill="#FCE200"/>
<path d="M736.878 306.05C747.637 306.05 756.358 297.328 756.358 286.57C756.358 275.811 747.637 267.09 736.878 267.09C726.12 267.09 717.398 275.811 717.398 286.57C717.398 297.328 726.12 306.05 736.878 306.05Z" stroke="#1D1D1B" stroke-width="7.43" stroke-miterlimit="10"/>
<path d="M1088.68 167.99C1088.02 168.04 1087.37 168.06 1086.72 168.06C1084.95 168.06 1083.23 167.85 1081.57 167.49C1083.15 175.82 1080.34 185.29 1073.31 192.32L1070.69 194.94L1060.9 185.14C1056.06 180.3 1053.86 173.43 1054.66 166.28C1047.52 167.07 1040.65 164.88 1035.8 160.04L1026 150.25L1028.62 147.63C1035.82 140.43 1045.6 137.64 1054.07 139.48C1052.48 131.15 1055.29 121.66 1062.33 114.62L1064.95 112L1074.75 121.8C1079.59 126.64 1081.79 133.51 1080.99 140.66C1088.13 139.87 1095 142.06 1099.85 146.91L1109.64 156.7L1107.02 159.32C1101.94 164.4 1095.43 167.48 1088.69 167.98L1088.68 167.99Z" fill="black"/>
<path d="M1072.56 144.35C1074.86 137.87 1073.68 131.25 1069.49 127.06L1065.15 122.72C1059.68 130.24 1059.53 139.94 1065.24 145.66L1070.31 150.72L1072.57 144.35H1072.56ZM1036.69 150.47L1041.03 154.81C1045.22 159 1051.85 160.17 1058.32 157.88L1064.68 155.62L1059.62 150.56C1053.9 144.84 1044.21 145 1036.68 150.47H1036.69ZM1063.06 162.62C1060.77 169.1 1061.94 175.72 1066.13 179.91L1070.47 184.25C1075.94 176.73 1076.09 167.03 1070.38 161.31L1065.31 156.24L1063.06 162.61V162.62ZM1070.93 151.34L1076 156.41C1079.05 159.46 1083.36 160.95 1088.12 160.59C1091.93 160.31 1095.67 158.88 1098.93 156.5L1094.59 152.16C1090.4 147.97 1083.78 146.8 1077.3 149.09L1070.94 151.34H1070.93Z" fill="#F3BD48"/>
<path d="M406.61 147.98C405.95 148.03 405.3 148.05 404.65 148.05C402.88 148.05 401.16 147.84 399.5 147.48C401.08 155.81 398.27 165.28 391.24 172.31L388.62 174.93L378.83 165.13C373.99 160.29 371.79 153.42 372.59 146.27C365.45 147.06 358.58 144.87 353.73 140.03L343.93 130.24L346.55 127.62C353.75 120.42 363.53 117.63 372 119.47C370.41 111.14 373.22 101.65 380.26 94.61L382.88 91.99L392.68 101.79C397.52 106.63 399.72 113.5 398.92 120.65C406.06 119.86 412.93 122.05 417.78 126.9L427.57 136.69L424.95 139.31C419.87 144.39 413.36 147.47 406.62 147.97L406.61 147.98Z" fill="black"/>
<path d="M390.489 124.34C392.789 117.86 391.609 111.24 387.419 107.05L383.079 102.71C377.609 110.23 377.459 119.93 383.169 125.65L388.239 130.71L390.499 124.34H390.489ZM354.619 130.46L358.959 134.8C363.149 138.99 369.779 140.16 376.249 137.87L382.609 135.61L377.549 130.55C371.829 124.83 362.139 124.99 354.609 130.46H354.619ZM380.989 142.61C378.699 149.09 379.869 155.71 384.059 159.9L388.399 164.24C393.869 156.72 394.019 147.02 388.309 141.3L383.239 136.23L380.989 142.6V142.61ZM388.859 131.33L393.929 136.4C396.979 139.45 401.289 140.94 406.049 140.58C409.859 140.3 413.599 138.87 416.859 136.49L412.519 132.15C408.329 127.96 401.709 126.79 395.229 129.08L388.869 131.33H388.859Z" fill="#F3BD48"/>
<path d="M803.962 224.26C803.912 223.6 803.892 222.95 803.892 222.3C803.892 220.53 804.102 218.81 804.462 217.15C796.132 218.73 786.662 215.92 779.632 208.89L777.012 206.27L786.812 196.48C791.652 191.64 798.522 189.44 805.672 190.24C804.882 183.1 807.072 176.23 811.912 171.38L821.702 161.58L824.322 164.2C831.522 171.4 834.312 181.18 832.472 189.65C840.802 188.06 850.292 190.87 857.332 197.91L859.952 200.53L850.152 210.33C845.312 215.17 838.442 217.37 831.292 216.57C832.082 223.71 829.892 230.58 825.042 235.43L815.252 245.22L812.632 242.6C807.552 237.52 804.472 231.01 803.972 224.27L803.962 224.26Z" fill="black"/>
<path d="M827.603 208.14C834.083 210.44 840.703 209.26 844.893 205.07L849.233 200.73C841.713 195.26 832.013 195.11 826.293 200.82L821.233 205.89L827.603 208.15V208.14ZM821.483 172.27L817.143 176.61C812.953 180.8 811.783 187.43 814.073 193.9L816.333 200.26L821.393 195.2C827.113 189.48 826.953 179.79 821.483 172.26V172.27ZM809.333 198.64C802.853 196.35 796.233 197.52 792.043 201.71L787.703 206.05C795.223 211.52 804.923 211.67 810.643 205.96L815.713 200.89L809.343 198.64H809.333ZM820.613 206.51L815.543 211.58C812.493 214.63 811.003 218.94 811.363 223.7C811.643 227.51 813.073 231.25 815.453 234.51L819.793 230.17C823.983 225.98 825.153 219.36 822.863 212.88L820.613 206.52V206.51Z" fill="#FCE200"/>
<path d="M602.7 390.4C621.224 390.4 636.24 375.383 636.24 356.86C636.24 338.336 621.224 323.32 602.7 323.32C584.177 323.32 569.16 338.336 569.16 356.86C569.16 375.383 584.177 390.4 602.7 390.4Z" fill="#FCE200" stroke="#1D1D1B" stroke-width="7.43" stroke-miterlimit="10"/>
<path d="M635.487 356.79C649.399 356.79 660.677 345.512 660.677 331.6C660.677 317.688 649.399 306.41 635.487 306.41C621.575 306.41 610.297 317.688 610.297 331.6C610.297 345.512 621.575 356.79 635.487 356.79Z" fill="#FCE200" stroke="#1D1D1B" stroke-width="7.43" stroke-miterlimit="10"/>
<path d="M657.348 321.75L671.998 325.74L665.598 332.01L672.408 338.91L659.118 342.47L660.318 330.97L657.348 321.75Z" fill="black"/>
<path d="M644.397 339.07C648.556 339.07 651.927 335.699 651.927 331.54C651.927 327.381 648.556 324.01 644.397 324.01C640.239 324.01 636.867 327.381 636.867 331.54C636.867 335.699 640.239 339.07 644.397 339.07Z" fill="black"/>
<path d="M593.641 342.514L599.183 350.718L578.699 364.555C571.705 369.28 562.194 367.438 557.47 360.444L551.928 352.24L572.412 338.403C579.406 333.678 588.916 335.52 593.641 342.514Z" fill="#FCE200"/>
<path d="M593.641 342.514L599.183 350.718L578.699 364.555C571.705 369.28 562.194 367.438 557.47 360.444L551.928 352.24L572.412 338.403C579.406 333.678 588.916 335.52 593.641 342.514Z" stroke="#1D1D1B" stroke-width="7.43" stroke-miterlimit="10"/>
<path d="M595.758 389.67V410.12" stroke="#1D1D1B" stroke-width="7.43" stroke-miterlimit="10"/>
<path d="M613.5 387.76V408.2" stroke="#1D1D1B" stroke-width="7.43" stroke-miterlimit="10"/>
<path d="M172.953 216.372L173.427 215.346C176.835 207.975 185.582 204.759 192.952 208.166L203.191 212.899L202.717 213.925C199.31 221.295 190.563 224.512 183.192 221.105L172.953 216.372Z" fill="#FCE200"/>
<path d="M172.953 216.372L173.427 215.346C176.835 207.975 185.582 204.759 192.952 208.166L203.191 212.899L202.717 213.925C199.31 221.295 190.563 224.512 183.192 221.105L172.953 216.372Z" stroke="#1D1D1B" stroke-width="7.43" stroke-miterlimit="10"/>
<path d="M204.041 206.936L201.272 212.927L182.537 204.267C174.876 200.725 171.532 191.633 175.074 183.972L177.843 177.981L196.578 186.642C204.239 190.183 207.583 199.275 204.041 206.936Z" fill="#F3BD48"/>
<path d="M204.041 206.936L201.272 212.927L182.537 204.267C174.876 200.725 171.532 191.633 175.074 183.972L177.843 177.981L196.578 186.642C204.239 190.183 207.583 199.275 204.041 206.936Z" stroke="#1D1D1B" stroke-width="7.43" stroke-miterlimit="10"/>
<path d="M217.951 229.72C211.961 229.62 206.021 228.19 203.951 222.57C201.881 216.95 204.771 210.71 210.391 208.64C216.011 206.57 221.761 209.73 224.321 215.08C225.801 218.16 228.041 223.38 229.741 228.11C224.471 229.68 221.051 229.78 217.961 229.72H217.951Z" fill="#FCE200"/>
<path d="M217.951 229.72C211.961 229.62 206.021 228.19 203.951 222.57C201.881 216.95 204.771 210.71 210.391 208.64C216.011 206.57 221.761 209.73 224.321 215.08C225.801 218.16 228.041 223.38 229.741 228.11C224.471 229.68 221.051 229.78 217.961 229.72H217.951Z" stroke="#1D1D1B" stroke-width="7.43" stroke-miterlimit="10"/>
<path d="M185.578 209.52L186.958 219.17" stroke="#1D1D1B" stroke-width="7.43" stroke-miterlimit="10"/>
<path d="M1310.58 279.784L1310.08 278.773C1306.46 271.502 1309.43 262.667 1316.7 259.052L1326.8 254.029L1327.3 255.041C1330.92 262.311 1327.95 271.146 1320.68 274.762L1310.58 279.784Z" fill="#FCE200"/>
<path d="M1310.58 279.784L1310.08 278.773C1306.46 271.502 1309.43 262.667 1316.7 259.052L1326.8 254.029L1327.3 255.041C1330.92 262.311 1327.95 271.146 1320.68 274.762L1310.58 279.784Z" stroke="#1D1D1B" stroke-width="7.43" stroke-miterlimit="10"/>
<path d="M1322.66 249.617L1325.59 255.526L1307.11 264.717C1299.56 268.475 1290.37 265.391 1286.61 257.834L1283.68 251.924L1302.16 242.734C1309.71 238.976 1318.9 242.06 1322.66 249.617Z" fill="#F3BD48"/>
<path d="M1322.66 249.617L1325.59 255.526L1307.11 264.717C1299.56 268.475 1290.37 265.391 1286.61 257.834L1283.68 251.924L1302.16 242.734C1309.71 238.976 1318.9 242.06 1322.66 249.617Z" stroke="#1D1D1B" stroke-width="7.43" stroke-miterlimit="10"/>
<path d="M1349.15 253.04C1345.32 257.65 1340.49 261.39 1334.81 259.48C1329.13 257.57 1326.07 251.42 1327.98 245.74C1329.89 240.06 1335.95 237.56 1341.72 238.91C1345.05 239.69 1350.52 241.2 1355.27 242.84C1353.2 247.94 1351.13 250.66 1349.15 253.04Z" fill="#FCE200"/>
<path d="M1349.15 253.04C1345.32 257.65 1340.49 261.39 1334.81 259.48C1329.13 257.57 1326.07 251.42 1327.98 245.74C1329.89 240.06 1335.95 237.56 1341.72 238.91C1345.05 239.69 1350.52 241.2 1355.27 242.84C1353.2 247.94 1351.13 250.66 1349.15 253.04Z" stroke="#1D1D1B" stroke-width="7.43" stroke-miterlimit="10"/>
<path d="M1313.14 265.63L1321.53 270.6" stroke="#1D1D1B" stroke-width="7.43" stroke-miterlimit="10"/>
</g>
<defs>
<clipPath id="clip0_1403_4260">
<rect width="1920" height="490" fill="white"/>
</clipPath>
</defs>
</svg>
