<?xml version="1.0" encoding="UTF-8"?>
<!-- Generated by Pixelmator Pro 3.3.6 -->
<svg width="1920" height="390" viewBox="0 0 1920 390" xmlns="http://www.w3.org/2000/svg">
    <path id="path1" fill="#ff9900" stroke="none" d="M 0 0 L 1920 0 L 1920 390 L 0 390 Z"/>
    <path id="path2" fill="#ffffff" stroke="#1d1d1b" stroke-width="8" d="M 485.071014 110.630005 L 599.760986 110.630005 C 628.950989 110.630005 652.651001 134.330002 652.651001 163.520004 L 652.651001 399.410004 L 433.710999 399.410004 L 433.710999 162 C 433.710999 133.649994 456.721008 110.640015 485.071014 110.640015 L 485.071014 110.630005 Z"/>
    <path id="path3" fill="#8c9091" stroke="#1d1d1b" stroke-width="8" d="M 591.059021 -19.829987 L 670.979004 -19.829987 C 700.169006 -19.829987 723.869019 3.869995 723.869019 33.059998 L 723.869019 399.410004 L 539.698975 399.410004 L 539.698975 31.529999 C 539.698975 3.179993 562.708984 -19.829987 591.059021 -19.829987 Z"/>
    <path id="path4" fill="#1d1d1b" stroke="none" d="M 660.257996 334.519989 C 658.288025 333.070007 656.538025 331.399994 655.047974 329.540009 C 653.547974 331.399994 651.797974 333.070007 649.828003 334.519989 C 651.377991 336.369995 653.127991 338.070007 655.047974 339.579987 C 661.317993 344.529999 669.437988 347.51001 678.278015 347.51001 L 678.278015 340.320007 C 671.468018 340.320007 665.197998 338.140015 660.257996 334.519989 Z"/>
    <path id="path5" fill="#1d1d1b" stroke="none" d="M 655.049988 329.540009 C 653.549988 331.399994 651.799988 333.070007 649.830017 334.519989 C 644.890015 338.140015 638.619995 340.320007 631.809998 340.320007 C 625 340.320007 618.940002 338.220001 614.039978 334.690002 C 612.059998 333.279999 610.280029 331.619995 608.77002 329.779999 C 607.26001 331.619995 605.47998 333.279999 603.5 334.690002 C 605.070007 336.540009 606.830017 338.230011 608.77002 339.730011 C 615.02002 344.589996 623.059998 347.51001 631.809998 347.51001 C 640.559998 347.51001 648.77002 344.529999 655.049988 339.579987 C 656.969971 338.070007 658.719971 336.369995 660.26001 334.519989 C 658.289978 333.070007 656.539978 331.399994 655.049988 329.540009 Z"/>
    <path id="path6" fill="#1d1d1b" stroke="none" d="M 608.770996 329.779999 C 607.260986 331.619995 605.481018 333.279999 603.500977 334.690002 C 598.601013 338.220001 592.421021 340.320007 585.731018 340.320007 C 579.041016 340.320007 572.801025 338.190002 567.880981 334.630005 C 565.911011 333.209991 564.140991 331.549988 562.630981 329.709991 C 561.111023 331.549988 559.341003 333.209991 557.370972 334.630005 C 558.93103 336.480011 560.690979 338.170013 562.620972 339.679993 C 568.880981 344.570007 576.940979 347.51001 585.731018 347.51001 C 594.520996 347.51001 602.520996 344.589996 608.770996 339.730011 C 610.710999 338.230011 612.471008 336.540009 614.041016 334.690002 C 612.060974 333.279999 610.281006 331.619995 608.770996 329.779999 Z"/>
    <path id="path7" fill="#1d1d1b" stroke="none" d="M 562.630005 329.700012 C 561.109985 331.540009 559.340027 333.200012 557.369995 334.619995 C 552.460022 338.179993 546.26001 340.309998 539.52002 340.309998 C 532.780029 340.309998 527.02002 338.329987 522.200012 335.01001 C 520.190002 333.619995 518.390015 332.01001 516.840027 330.200012 C 515.299988 332.01001 513.5 333.630005 511.5 335.019989 C 513.099976 336.859985 514.890015 338.529999 516.859985 340.01001 C 523.059998 344.690002 530.950012 347.5 539.52002 347.5 C 548.090027 347.5 556.369995 344.559998 562.619995 339.670013 C 564.559998 338.160004 566.320007 336.470001 567.880005 334.619995 C 565.909973 333.200012 564.140015 331.540009 562.630005 329.700012 Z"/>
    <path id="path8" fill="#1d1d1b" stroke="none" d="M 516.838989 330.200012 C 515.299011 332.01001 513.499023 333.630005 511.498993 335.019989 C 506.658997 338.369995 500.639008 340.369995 494.109009 340.369995 L 494.109009 347.570007 C 502.729004 347.570007 510.648987 344.73999 516.859009 340.01001 C 518.81897 338.519989 520.609009 336.850006 522.198975 335.01001 C 520.189026 333.619995 518.388977 332.01001 516.838989 330.200012 Z"/>
    <path id="path9" fill="#1d1d1b" stroke="none" d="M 839.218018 329.540009 C 837.718018 331.399994 835.968018 333.070007 833.997986 334.519989 C 829.057983 338.140015 822.788025 340.320007 815.978027 340.320007 C 809.16803 340.320007 803.107971 338.220001 798.208008 334.690002 C 796.228027 333.279999 794.447998 331.619995 792.937988 329.779999 C 791.427979 331.619995 789.64801 333.279999 787.66803 334.690002 C 789.237976 336.540009 790.997986 338.230011 792.937988 339.730011 C 799.187988 344.589996 807.228027 347.51001 815.978027 347.51001 C 824.728027 347.51001 832.937988 344.529999 839.218018 339.579987 C 841.138 338.070007 842.888 336.369995 844.427979 334.519989 C 842.458008 333.070007 840.708008 331.399994 839.218018 329.540009 Z"/>
    <path id="path10" fill="#1d1d1b" stroke="none" d="M 792.939026 329.779999 C 791.429016 331.619995 789.648987 333.279999 787.669006 334.690002 C 782.768982 338.220001 776.588989 340.320007 769.898987 340.320007 C 763.208984 340.320007 756.968994 338.190002 752.049011 334.630005 C 750.078979 333.209991 748.309021 331.549988 746.799011 329.709991 C 745.278992 331.549988 743.508972 333.209991 741.539001 334.630005 C 743.098999 336.480011 744.859009 338.170013 746.789001 339.679993 C 753.049011 344.570007 761.109009 347.51001 769.898987 347.51001 C 778.689026 347.51001 786.689026 344.589996 792.939026 339.730011 C 794.879028 338.230011 796.638977 336.540009 798.208984 334.690002 C 796.229004 333.279999 794.448975 331.619995 792.939026 329.779999 Z"/>
    <path id="path11" fill="#1d1d1b" stroke="none" d="M 746.797974 329.700012 C 745.278015 331.540009 743.507996 333.200012 741.538025 334.619995 C 736.627991 338.179993 730.427979 340.309998 723.687988 340.309998 C 716.947998 340.309998 711.187988 338.329987 706.367981 335.01001 C 704.357971 333.619995 702.557983 332.01001 701.007996 330.200012 C 699.468018 332.01001 697.66803 333.630005 695.66803 335.019989 C 697.268005 336.859985 699.057983 338.529999 701.028015 340.01001 C 707.228027 344.690002 715.117981 347.5 723.687988 347.5 C 732.257996 347.5 740.538025 344.559998 746.788025 339.670013 C 748.728027 338.160004 750.487976 336.470001 752.047974 334.619995 C 750.078003 333.200012 748.307983 331.540009 746.797974 329.700012 Z"/>
    <path id="path12" fill="#1d1d1b" stroke="none" d="M 701.010986 330.200012 C 699.471008 332.01001 697.671021 333.630005 695.671021 335.019989 C 690.830994 338.369995 684.810974 340.369995 678.281006 340.369995 L 678.281006 347.570007 C 686.901001 347.570007 694.820984 344.73999 701.031006 340.01001 C 702.991028 338.519989 704.781006 336.850006 706.370972 335.01001 C 704.361023 333.619995 702.560974 332.01001 701.010986 330.200012 Z"/>
    <path id="path13" fill="#1d1d1b" stroke="none" d="M 660.257996 358.429993 C 658.288025 356.980011 656.538025 355.309998 655.047974 353.450012 C 653.547974 355.309998 651.797974 356.980011 649.828003 358.429993 C 651.377991 360.279999 653.127991 361.980011 655.047974 363.48999 C 661.317993 368.440002 669.437988 371.420013 678.278015 371.420013 L 678.278015 364.230011 C 671.468018 364.230011 665.197998 362.049988 660.257996 358.429993 Z"/>
    <path id="path14" fill="#1d1d1b" stroke="none" d="M 655.049988 353.450012 C 653.549988 355.309998 651.799988 356.980011 649.830017 358.429993 C 644.890015 362.049988 638.619995 364.230011 631.809998 364.230011 C 625 364.230011 618.940002 362.130005 614.039978 358.600006 C 612.059998 357.190002 610.280029 355.529999 608.77002 353.690002 C 607.26001 355.529999 605.47998 357.190002 603.5 358.600006 C 605.070007 360.450012 606.830017 362.140015 608.77002 363.640015 C 615.02002 368.5 623.059998 371.420013 631.809998 371.420013 C 640.559998 371.420013 648.77002 368.440002 655.049988 363.48999 C 656.969971 361.980011 658.719971 360.279999 660.26001 358.429993 C 658.289978 356.980011 656.539978 355.309998 655.049988 353.450012 Z"/>
    <path id="path15" fill="#1d1d1b" stroke="none" d="M 608.770996 353.690002 C 607.260986 355.529999 605.481018 357.190002 603.500977 358.600006 C 598.601013 362.130005 592.421021 364.230011 585.731018 364.230011 C 579.041016 364.230011 572.801025 362.100006 567.880981 358.540009 C 565.911011 357.119995 564.140991 355.459991 562.630981 353.619995 C 561.111023 355.459991 559.341003 357.119995 557.370972 358.540009 C 558.93103 360.390015 560.690979 362.079987 562.620972 363.589996 C 568.880981 368.480011 576.940979 371.420013 585.731018 371.420013 C 594.520996 371.420013 602.520996 368.5 608.770996 363.640015 C 610.710999 362.140015 612.471008 360.450012 614.041016 358.600006 C 612.060974 357.190002 610.281006 355.529999 608.770996 353.690002 Z"/>
    <path id="path16" fill="#1d1d1b" stroke="none" d="M 562.630005 353.619995 C 561.109985 355.459991 559.340027 357.119995 557.369995 358.540009 C 552.460022 362.100006 546.26001 364.230011 539.52002 364.230011 C 532.780029 364.230011 527.02002 362.25 522.200012 358.929993 C 520.190002 357.540009 518.390015 355.929993 516.840027 354.119995 C 515.299988 355.929993 513.5 357.549988 511.5 358.940002 C 513.099976 360.779999 514.890015 362.450012 516.859985 363.929993 C 523.059998 368.609985 530.950012 371.420013 539.52002 371.420013 C 548.090027 371.420013 556.369995 368.480011 562.619995 363.589996 C 564.559998 362.079987 566.320007 360.390015 567.880005 358.540009 C 565.909973 357.119995 564.140015 355.459991 562.630005 353.619995 Z"/>
    <path id="path17" fill="#1d1d1b" stroke="none" d="M 516.838989 354.119995 C 515.299011 355.929993 513.499023 357.549988 511.498993 358.940002 C 506.658997 362.290009 500.639008 364.290009 494.109009 364.290009 L 494.109009 371.48999 C 502.729004 371.48999 510.648987 368.660004 516.859009 363.929993 C 518.81897 362.440002 520.609009 360.769989 522.198975 358.929993 C 520.189026 357.540009 518.388977 355.929993 516.838989 354.119995 Z"/>
    <path id="path18" fill="#1d1d1b" stroke="none" d="M 839.218018 353.450012 C 837.718018 355.309998 835.968018 356.980011 833.997986 358.429993 C 829.057983 362.049988 822.788025 364.230011 815.978027 364.230011 C 809.16803 364.230011 803.107971 362.130005 798.208008 358.600006 C 796.228027 357.190002 794.447998 355.529999 792.937988 353.690002 C 791.427979 355.529999 789.64801 357.190002 787.66803 358.600006 C 789.237976 360.450012 790.997986 362.140015 792.937988 363.640015 C 799.187988 368.5 807.228027 371.420013 815.978027 371.420013 C 824.728027 371.420013 832.937988 368.440002 839.218018 363.48999 C 841.138 361.980011 842.888 360.279999 844.427979 358.429993 C 842.458008 356.980011 840.708008 355.309998 839.218018 353.450012 Z"/>
    <path id="path19" fill="#1d1d1b" stroke="none" d="M 792.939026 353.690002 C 791.429016 355.529999 789.648987 357.190002 787.669006 358.600006 C 782.768982 362.130005 776.588989 364.230011 769.898987 364.230011 C 763.208984 364.230011 756.968994 362.100006 752.049011 358.540009 C 750.078979 357.119995 748.309021 355.459991 746.799011 353.619995 C 745.278992 355.459991 743.508972 357.119995 741.539001 358.540009 C 743.098999 360.390015 744.859009 362.079987 746.789001 363.589996 C 753.049011 368.480011 761.109009 371.420013 769.898987 371.420013 C 778.689026 371.420013 786.689026 368.5 792.939026 363.640015 C 794.879028 362.140015 796.638977 360.450012 798.208984 358.600006 C 796.229004 357.190002 794.448975 355.529999 792.939026 353.690002 Z"/>
    <path id="path20" fill="#1d1d1b" stroke="none" d="M 746.797974 353.619995 C 745.278015 355.459991 743.507996 357.119995 741.538025 358.540009 C 736.627991 362.100006 730.427979 364.230011 723.687988 364.230011 C 716.947998 364.230011 711.187988 362.25 706.367981 358.929993 C 704.357971 357.540009 702.557983 355.929993 701.007996 354.119995 C 699.468018 355.929993 697.66803 357.549988 695.66803 358.940002 C 697.268005 360.779999 699.057983 362.450012 701.028015 363.929993 C 707.228027 368.609985 715.117981 371.420013 723.687988 371.420013 C 732.257996 371.420013 740.538025 368.480011 746.788025 363.589996 C 748.728027 362.079987 750.487976 360.390015 752.047974 358.540009 C 750.078003 357.119995 748.307983 355.459991 746.797974 353.619995 Z"/>
    <path id="path21" fill="#1d1d1b" stroke="none" d="M 701.010986 354.119995 C 699.471008 355.929993 697.671021 357.549988 695.671021 358.940002 C 690.830994 362.290009 684.810974 364.290009 678.281006 364.290009 L 678.281006 371.48999 C 686.901001 371.48999 694.820984 368.660004 701.031006 363.929993 C 702.991028 362.440002 704.781006 360.769989 706.370972 358.929993 C 704.361023 357.540009 702.560974 355.929993 701.010986 354.119995 Z"/>
    <path id="path22" fill="none" stroke="#1d1d1b" stroke-width="8" d="M 1060.599976 266 L 1060.599976 244 C 1060.599976 229.549988 1072.319946 217.829987 1086.77002 217.829987 L 1139.619995 217.829987 C 1154.069946 217.829987 1165.790039 229.549988 1165.790039 244 L 1165.790039 394.940002"/>
    <path id="path23" fill="none" stroke="#1d1d1b" stroke-width="8" d="M 1082.680054 265.369995 L 1029.829956 265.369995 C 1015.380005 265.369995 1003.659973 277.087006 1003.659973 291.540009 L 1003.659973 343.359985 C 1003.659973 357.812988 1015.380005 369.529999 1029.829956 369.529999 L 1082.680054 369.529999 C 1097.130005 369.529999 1108.849976 357.812988 1108.849976 343.359985 L 1108.849976 291.540009 C 1108.849976 277.087006 1097.130005 265.369995 1082.680054 265.369995 Z"/>
    <path id="path24" fill="#1d1d1b" stroke="none" d="M 1839.949951 80.570007 C 1850.369995 80.570007 1858.859985 72.01001 1858.859985 61.48999 C 1858.859985 50.970001 1850.380005 42.410004 1839.949951 42.410004 C 1829.52002 42.410004 1821.040039 50.970001 1821.040039 61.48999 C 1821.040039 72.01001 1829.52002 80.570007 1839.949951 80.570007 Z M 1839.949951 50.290009 C 1846.040039 50.290009 1850.98999 55.320007 1850.98999 61.5 C 1850.98999 67.679993 1846.040039 72.709991 1839.949951 72.709991 C 1833.859985 72.709991 1828.910034 67.679993 1828.910034 61.5 C 1828.910034 55.320007 1833.859985 50.290009 1839.949951 50.290009 Z M 1731.01001 103.619995 C 1730.839966 102.460022 1730.75 101.410004 1730.75 100.419983 C 1730.75 88.600006 1740.280029 78.980011 1752 78.980011 C 1754.079956 78.980011 1756.119995 79.279999 1758.079956 79.880005 C 1763 72.309998 1771.47998 67.589996 1780.569946 67.589996 C 1791.630005 67.589996 1801.359985 74.339996 1805.439941 84.419983 C 1806.339966 84.279999 1807.25 84.220001 1808.170044 84.220001 C 1818.459961 84.220001 1826.829956 92.669983 1826.829956 103.039978 L 1826.829956 106.970001 L 1731.51001 106.970001 L 1731.01001 103.619995 Z M 1923.709961 276.309998 L 1842.430054 276.309998 L 1842.430054 253.040009 L 1875.140015 253.040009 L 1875.140015 245.170013 C 1864.839966 245.170013 1855.109985 240.399994 1847.619995 231.850006 L 1864.869995 231.850006 L 1864.869995 223.980011 C 1847.97998 223.980011 1834.23999 206.740005 1834.23999 185.550003 L 1833.76001 185.550003 C 1826.079956 124.559998 1770.25 124.529999 1748.27002 124.529999 L 1649.859985 124.529999 L 1649.859985 124.429993 C 1636.050049 124.429993 1623.060059 118.559998 1613.26001 108.100006 L 1636.829956 108.100006 L 1636.829956 100.22998 C 1614.810059 100.22998 1596.900024 80.290009 1596.900024 55.769989 L 1589.030029 55.769989 C 1589.030029 80.290009 1571.119995 100.22998 1549.099976 100.22998 L 1549.099976 108.100006 L 1572.670044 108.100006 C 1562.869995 118.570007 1549.880005 124.429993 1536.069946 124.429993 L 1536.069946 132.299988 L 1564.369995 132.299988 C 1552.369995 143.350006 1537.449951 150.059998 1522.339966 151.009995 L 1522.589966 158.869995 L 1580.47998 158.869995 L 1580.47998 180.789993 L 1534.150024 180.789993 C 1499.209961 180.789993 1470.790039 209.210007 1470.790039 244.149994 L 1470.790039 276.329987 L 1444.449951 276.329987 C 1419.22998 276.329987 1397.640015 292.160004 1389.079956 314.410004 C 1380.52002 292.160004 1358.939941 276.329987 1333.709961 276.329987 L 1169.619995 276.329987 L 1169.619995 276.290009 L 1161.76001 276.290009 L 1161.76001 276.329987 L 1161.939941 284.200012 C 1163.369995 303.429993 1174.329956 320.040009 1190.119995 329.309998 L 1164.300049 329.309998 L 1164.300049 337.170013 L 1216.859985 337.170013 C 1241.369995 337.970001 1269.109985 357.850006 1269.109985 383.350006 L 1269.109985 394.170013 L 1315.319946 394.170013 L 1315.319946 393.820007 L 1315.189941 393.820007 L 1315.189941 383.350006 C 1315.189941 363.51001 1301.119995 346.570007 1283.439941 337.170013 L 1333.719971 337.170013 C 1362.089966 337.170013 1385.170044 360.25 1385.170044 388.619995 L 1385.170044 394.160004 L 1690.51001 394.160004 L 1690.51001 284.190002 L 1701.719971 284.190002 C 1743.02002 284.190002 1791.02002 317.859985 1791.02002 361.279999 L 1791.02002 394.160004 L 1832.26001 394.160004 L 1832.26001 361.279999 C 1832.26001 326.579987 1804.780029 297.540009 1772.530029 284.190002 L 1923.719971 284.190002 L 1923.719971 276.320007 L 1923.709961 276.309998 Z M 1385.130005 335.630005 L 1385.130005 359.109985 C 1374.880005 341.309998 1355.680054 329.299988 1333.709961 329.299988 L 1255.369995 329.299988 C 1254.76001 329.279999 1254.150024 329.25 1253.540039 329.25 L 1217.170044 329.25 C 1192.219971 328.329987 1171.949951 308.820007 1169.819946 284.190002 L 1333.709961 284.190002 C 1361.900024 284.190002 1384.849976 306.970001 1385.150024 335.089996 C 1385.150024 335.269989 1385.140015 335.450012 1385.140015 335.630005 L 1385.130005 335.630005 Z M 1748.27002 132.399994 C 1772.23999 132.399994 1820.560059 132.419983 1826.23999 188.869995 C 1825.689941 196.940002 1823.150024 204.309998 1819.22998 210.179993 C 1808.76001 203.940002 1801.469971 191.270004 1801.469971 182.119995 L 1801.390015 182.119995 C 1800.569946 162.009995 1787.619995 150.940002 1764.640015 150.940002 L 1702.880005 150.940002 C 1700.880005 145.210007 1699.540039 138.960007 1698.969971 132.399994 L 1748.27002 132.399994 Z M 1777.069946 209.429993 C 1770.22998 205.160004 1764.27002 198.059998 1759.959961 188.789993 L 1773.280029 188.789993 L 1773.280029 180.649994 C 1768.339966 179.679993 1763.150024 176.949997 1758.400024 172.699997 C 1753.819946 168.600006 1750.23999 163.570007 1748.280029 158.800003 L 1764.640015 158.800003 C 1783.599976 158.800003 1793.050049 166.669998 1793.560059 182.800003 C 1793.23999 191.529999 1786.640015 203.130005 1777.069946 209.429993 Z M 1782.530029 221.880005 C 1781.069946 224.929993 1778.869995 228.119995 1776.23999 231.140015 C 1772.800049 228.380005 1769.680054 225.269989 1767 221.880005 L 1782.530029 221.880005 Z M 1721.650024 176.75 C 1719.910034 175.649994 1718.199951 174.369995 1716.569946 172.869995 C 1712.469971 169.100006 1708.97998 164.300003 1706.189941 158.800003 L 1737.119995 158.800003 C 1735.170044 163.589996 1731.619995 168.630005 1727.050049 172.710007 C 1725.300049 174.270004 1723.48999 175.610001 1721.650024 176.759995 L 1721.650024 176.75 Z M 1725.380005 188.889999 C 1723.810059 192.25 1722.02002 195.309998 1720.050049 198.070007 C 1717.680054 195.330002 1715.439941 192.270004 1713.390015 188.889999 L 1725.380005 188.889999 Z M 1631.099976 132.289978 L 1631.099976 132.390015 L 1690.459961 132.390015 C 1689.890015 138.940002 1688.540039 145.190002 1686.550049 150.929993 L 1662.849976 150.929993 C 1647.98999 149.800003 1633.369995 143.149994 1621.579956 132.289978 L 1631.109985 132.289978 L 1631.099976 132.289978 Z M 1683.22998 158.789993 C 1680.439941 164.300003 1676.949951 169.089996 1672.849976 172.860001 C 1668.119995 177.210007 1662.859985 179.880005 1657.380005 180.770004 L 1605.449951 180.770004 L 1605.449951 158.850006 L 1663.339966 158.850006 L 1663.339966 158.779999 L 1683.219971 158.779999 L 1683.22998 158.789993 Z M 1551.140015 150.990005 C 1560.609985 146.199997 1569.329956 139.399994 1576.619995 130.919983 L 1582.209961 124.419983 L 1564.800049 124.419983 C 1572.209961 120.059998 1578.800049 113.97998 1584.150024 106.429993 L 1588.540039 100.22998 L 1574.290039 100.22998 C 1582.51001 94.630005 1589.079956 86.369995 1592.969971 76.549988 C 1596.859985 86.369995 1603.430054 94.619995 1611.650024 100.22998 L 1597.400024 100.22998 L 1601.790039 106.429993 C 1607.140015 113.98999 1613.72998 120.070007 1621.140015 124.419983 L 1603.72998 124.419983 L 1609.319946 130.919983 C 1616.609985 139.389999 1625.339966 146.199997 1634.800049 150.990005 L 1597.589966 150.990005 L 1597.589966 180.779999 L 1588.349976 180.779999 L 1588.349976 150.990005 L 1551.140015 150.990005 Z M 1478.670044 276.309998 L 1478.670044 244.130005 C 1478.670044 213.529999 1503.560059 188.639999 1534.160034 188.639999 L 1580.219971 188.639999 L 1580.219971 193.410004 C 1580.219971 230.329987 1602.390015 262.140015 1634.099976 276.309998 L 1478.670044 276.309998 Z M 1682.22998 276.309998 L 1670.969971 276.309998 C 1625.26001 276.309998 1588.069946 239.119995 1588.069946 193.410004 L 1588.069946 188.639999 L 1650.530029 188.639999 L 1650.530029 188.869995 C 1652.349976 189.020004 1654.160034 189.020004 1655.959961 188.880005 L 1676.030029 188.880005 C 1666.310059 204.929993 1652.640015 214 1637.810059 214 L 1637.810059 221.869995 L 1667.599976 221.869995 C 1655.630005 236.660004 1640.47998 244.720001 1624.329956 244.720001 L 1624.329956 252.589996 L 1682.219971 252.589996 L 1682.219971 276.299988 L 1682.22998 276.309998 Z M 1699.339966 275.779999 L 1690.099976 275.779999 L 1690.099976 252.600006 L 1699.339966 252.600006 L 1699.339966 275.779999 Z M 1698.329956 238.149994 C 1695.780029 239.450012 1693.150024 240.579987 1690.459961 241.519989 C 1684.550049 243.589996 1678.390015 244.73999 1672.319946 244.73999 L 1653.199951 244.73999 C 1662.75 239.23999 1671.390015 230.950012 1678.640015 220.149994 L 1682.76001 214.020004 L 1663.25 214.020004 C 1671.810059 208.360001 1679.300049 199.740005 1685.170044 188.649994 C 1685.51001 188 1685.869995 187.380005 1686.199951 186.720001 L 1689.040039 181.029999 L 1675.390015 181.029999 C 1675.48999 180.949997 1675.579956 180.860001 1675.680054 180.779999 C 1676.52002 180.110001 1677.359985 179.410004 1678.180054 178.660004 C 1683.829956 173.460007 1688.459961 166.649994 1691.890015 158.800003 C 1692.939941 156.389999 1693.890015 153.880005 1694.709961 151.289993 C 1695.530029 153.889999 1696.47998 156.389999 1697.530029 158.800003 C 1700.959961 166.649994 1705.589966 173.460007 1711.23999 178.660004 C 1711.910034 179.270004 1712.589966 179.830002 1713.280029 180.389999 C 1712.640015 180.550003 1712 180.679993 1711.369995 180.779999 C 1711.079956 180.830002 1710.780029 180.889999 1710.48999 180.929993 L 1705.790039 180.929993 L 1705.790039 181.029999 L 1700.380005 181.029999 L 1703.219971 186.720001 C 1703.550049 187.380005 1703.910034 188.009995 1704.25 188.649994 C 1707.369995 194.550003 1710.959961 199.729996 1714.930054 204.160004 C 1709.98999 209.070007 1704.319946 212.300003 1698.319946 213.490005 C 1696.609985 213.830002 1694.869995 214.020004 1693.119995 214.020004 L 1693.119995 221.890015 L 1712.02002 221.890015 C 1712.969971 223.23999 1713.949951 224.559998 1714.949951 225.829987 C 1710.209961 230.790009 1704.530029 234.980011 1698.329956 238.160004 L 1698.329956 238.149994 Z M 1730.219971 276.320007 L 1707.209961 276.320007 L 1707.209961 252.609985 L 1730.219971 252.609985 L 1730.219971 276.320007 Z M 1747.329956 245.519989 L 1747.329956 275.790009 L 1738.089966 275.790009 L 1738.089966 244.73999 L 1702.920044 244.73999 C 1709.290039 241.359985 1715.130005 236.980011 1720.119995 231.839996 C 1721.040039 230.890015 1721.930054 229.910004 1722.800049 228.899994 C 1723.660034 227.899994 1724.48999 226.869995 1725.280029 225.820007 C 1726.25 224.540009 1727.160034 223.230011 1728.02002 221.880005 C 1728.430054 221.230011 1728.869995 220.600006 1729.26001 219.929993 L 1730.430054 217.940002 L 1732.72998 214.009995 L 1715.579956 214.009995 C 1717.300049 212.720001 1718.939941 211.240005 1720.52002 209.660004 C 1721.430054 208.75 1722.319946 207.800003 1723.180054 206.800003 C 1724.030029 205.809998 1724.859985 204.779999 1725.660034 203.710007 C 1728.869995 199.419998 1731.660034 194.460007 1733.930054 188.910004 C 1733.969971 188.820007 1734 188.729996 1734.040039 188.649994 C 1734.369995 187.839996 1734.709961 187.050003 1735.02002 186.210007 L 1735.449951 185.029999 L 1735.47998 184.960007 L 1736.920044 181.029999 L 1736.959961 180.929993 L 1729.469971 180.929993 C 1729.530029 180.880005 1729.589966 180.830002 1729.650024 180.779999 C 1729.810059 180.649994 1729.969971 180.509995 1730.130005 180.380005 C 1730.869995 179.800003 1731.599976 179.210007 1732.319946 178.570007 C 1736.699951 174.660004 1740.26001 170.130005 1742.73999 165.5 C 1745.22998 170.119995 1748.790039 174.639999 1753.189941 178.570007 C 1754.119995 179.399994 1755.079956 180.190002 1756.040039 180.929993 L 1748.48999 180.929993 L 1750.430054 186.210007 C 1750.73999 187.039993 1751.079956 187.839996 1751.410034 188.649994 C 1755.630005 199.070007 1761.680054 207.460007 1768.869995 213.199997 C 1766.969971 213.699997 1765.02002 213.990005 1763.02002 213.990005 L 1763.02002 214.020004 L 1752.719971 214.020004 L 1756.189941 219.940002 C 1759.920044 226.299988 1764.869995 231.970001 1770.619995 236.75 C 1766.660034 240.140015 1762.300049 242.850006 1758.150024 244.209991 C 1757.51001 244.420013 1756.880005 244.600006 1756.25 244.73999 L 1747.359985 244.73999 L 1747.359985 245.519989 L 1747.329956 245.519989 Z M 1755.199951 276.320007 L 1755.199951 253.049988 L 1785.47998 253.049988 L 1785.719971 276.320007 L 1755.209961 276.320007 L 1755.199951 276.320007 Z M 1785.5 245.179993 L 1772.660034 245.179993 C 1772.849976 245.040009 1773.040039 244.880005 1773.22998 244.73999 C 1774.560059 243.730011 1775.849976 242.649994 1777.099976 241.519989 C 1778.099976 240.609985 1779.079956 239.670013 1780.02002 238.700012 C 1780.959961 237.720001 1781.869995 236.720001 1782.73999 235.700012 C 1786.51001 231.23999 1789.459961 226.429993 1791.040039 221.899994 C 1791.420044 220.829987 1791.719971 219.769989 1791.939941 218.73999 L 1792.099976 217.970001 L 1792.300049 217.01001 L 1792.930054 214 L 1784.400024 214 C 1784.76001 213.720001 1785.089966 213.419998 1785.439941 213.119995 C 1790.670044 208.710007 1794.869995 203.080002 1797.640015 197.289993 C 1800.670044 203.440002 1805.280029 209.449997 1811.02002 213.990005 L 1802.530029 213.990005 L 1803.150024 218.470001 C 1803.219971 218.950012 1803.319946 219.440002 1803.430054 219.929993 C 1803.900024 221.519989 1805.680054 227.149994 1808.72998 231.869995 L 1808.890015 231.869995 C 1809.459961 232.690002 1810.050049 233.51001 1810.680054 234.309998 C 1806.949951 237.959991 1802.77002 240.73999 1798.300049 242.579987 C 1796.170044 243.450012 1793.98999 244.109985 1791.75 244.540009 C 1789.699951 244.929993 1787.619995 245.179993 1785.5 245.179993 Z M 1801.810059 275.920013 L 1793.579956 275.920013 L 1793.349976 253.040009 L 1801.819946 253.040009 L 1801.819946 275.920013 L 1801.810059 275.920013 Z M 1809.680054 276.309998 L 1809.680054 253.040009 L 1818.25 253.040009 L 1818.47998 276.309998 L 1809.670044 276.309998 L 1809.680054 276.309998 Z M 1834.589966 245.170013 L 1834.589966 275.910004 L 1826.359985 275.910004 L 1826.130005 253.029999 L 1826.089966 249.100006 L 1826.050049 245.170013 L 1809.939941 245.170013 C 1810.170044 245.01001 1810.380005 244.809998 1810.609985 244.649994 C 1812.47998 243.290009 1814.26001 241.76001 1815.969971 240.100006 C 1816.900024 239.200012 1817.810059 238.26001 1818.689941 237.269989 C 1819.550049 236.290009 1820.420044 235.309998 1821.22998 234.26001 C 1822.26001 232.920013 1823.25 231.519989 1824.189941 230.049988 L 1828.040039 224 L 1817.22998 224 C 1818.060059 223.329987 1818.859985 222.609985 1819.640015 221.859985 C 1820.920044 220.640015 1822.140015 219.329987 1823.280029 217.929993 C 1823.609985 217.529999 1823.920044 217.119995 1824.22998 216.700012 C 1825.060059 215.600006 1825.849976 214.460007 1826.599976 213.270004 C 1828.030029 210.979996 1829.290039 208.539993 1830.349976 205.949997 C 1833.339966 213.259995 1837.890015 219.48999 1843.469971 224 L 1832.660034 224 L 1836.51001 230.049988 C 1840.47998 236.279999 1845.319946 241.390015 1850.75 245.190002 L 1834.599976 245.190002 L 1834.589966 245.170013 Z"/>
    <path id="path25" fill="#8c9091" stroke="none" d="M 1752.01001 86.839996 C 1754.109985 86.839996 1756.140015 87.330017 1758.040039 88.309998 L 1761.670044 90.179993 L 1763.400024 86.480011 C 1766.540039 79.779999 1773.280029 75.450012 1780.589966 75.450012 C 1789.359985 75.450012 1796.949951 81.470001 1799.050049 90.089996 L 1800.119995 94.470001 L 1804.310059 92.820007 C 1805.569946 92.330017 1806.880005 92.070007 1808.189941 92.070007 C 1812.780029 92.070007 1816.699951 94.98999 1818.26001 99.089996 L 1738.689941 99.089996 C 1739.339966 92.220001 1745.069946 86.830017 1752.01001 86.830017 L 1752.01001 86.839996 Z"/>
    <path id="path26" fill="#8c9091" stroke="none" d="M 1739.5 284.299988 C 1771.599976 297.709991 1798.890015 326.679993 1798.890015 361.26001 L 1798.890015 394.140015 L 1824.390015 394.140015 L 1824.390015 361.26001 C 1824.390015 319.380005 1779.72998 286.570007 1739.5 284.299988 Z"/>
    <path id="path27" fill="#8c9091" stroke="none" d="M 1444.459961 284.170013 L 1670.810059 284.170013 C 1670.869995 284.170013 1670.920044 284.170013 1670.97998 284.170013 L 1682.650024 284.170013 L 1682.650024 312.790009 C 1677.829956 315.75 1672.319946 317.369995 1666.650024 317.369995 C 1659.030029 317.369995 1651.660034 314.5 1645.910034 309.299988 L 1643.569946 307.190002 L 1641.22998 309.299988 C 1635.47998 314.5 1628.119995 317.369995 1620.5 317.369995 C 1612.880005 317.369995 1605.51001 314.5 1599.76001 309.299988 L 1597.420044 307.190002 L 1595.079956 309.299988 C 1589.329956 314.5 1581.969971 317.369995 1574.349976 317.369995 C 1566.72998 317.369995 1559.359985 314.5 1553.619995 309.299988 L 1551.280029 307.190002 L 1548.939941 309.299988 C 1543.189941 314.5 1535.829956 317.369995 1528.209961 317.369995 C 1520.589966 317.369995 1513.219971 314.5 1507.469971 309.299988 L 1505.130005 307.190002 L 1502.790039 309.299988 C 1497.040039 314.5 1489.680054 317.369995 1482.060059 317.369995 C 1474.439941 317.369995 1467.069946 314.5 1461.319946 309.299988 L 1458.97998 307.190002 L 1456.640015 309.299988 C 1450.890015 314.5 1443.530029 317.369995 1435.900024 317.369995 C 1428.27002 317.369995 1420.910034 314.5 1415.160034 309.299988 L 1412.819946 307.190002 L 1410.47998 309.299988 C 1406.5 312.899994 1401.75 315.350006 1396.680054 316.529999 C 1404.27002 297.579987 1422.810059 284.160004 1444.439941 284.160004 L 1444.459961 284.170013 Z M 1666.650024 340.350006 C 1659.030029 340.350006 1651.670044 337.480011 1645.920044 332.279999 L 1643.579956 330.170013 L 1641.23999 332.279999 C 1635.48999 337.480011 1628.130005 340.350006 1620.51001 340.350006 C 1612.890015 340.350006 1605.52002 337.480011 1599.780029 332.279999 L 1597.439941 330.170013 L 1595.099976 332.279999 C 1589.349976 337.480011 1581.98999 340.350006 1574.369995 340.350006 C 1566.75 340.350006 1559.390015 337.480011 1553.640015 332.279999 L 1551.300049 330.170013 L 1548.959961 332.279999 C 1543.209961 337.480011 1535.839966 340.350006 1528.22998 340.350006 C 1520.619995 340.350006 1513.23999 337.480011 1507.5 332.279999 L 1505.160034 330.170013 L 1502.819946 332.279999 C 1497.069946 337.480011 1489.709961 340.350006 1482.089966 340.350006 C 1474.469971 340.350006 1467.109985 337.480011 1461.359985 332.279999 L 1459.02002 330.170013 L 1456.680054 332.279999 C 1450.930054 337.480011 1443.560059 340.350006 1435.939941 340.350006 C 1428.319946 340.350006 1420.959961 337.480011 1415.209961 332.279999 L 1412.869995 330.170013 L 1410.530029 332.279999 C 1405.609985 336.730011 1399.5 339.459991 1393.060059 340.149994 L 1393.060059 335.609985 C 1393.060059 335.429993 1393.050049 335.25 1393.050049 335.070007 C 1393.089966 331.369995 1393.530029 327.76001 1394.310059 324.290009 C 1401 323.459991 1407.439941 320.859985 1412.859985 316.679993 C 1419.5 321.799988 1427.650024 324.600006 1435.930054 324.600006 C 1444.209961 324.600006 1452.369995 321.790009 1459 316.679993 C 1465.640015 321.799988 1473.790039 324.600006 1482.069946 324.600006 C 1490.349976 324.600006 1498.51001 321.790009 1505.140015 316.679993 C 1511.780029 321.799988 1519.930054 324.600006 1528.209961 324.600006 C 1536.48999 324.600006 1544.650024 321.790009 1551.280029 316.679993 C 1557.920044 321.799988 1566.069946 324.600006 1574.349976 324.600006 C 1582.630005 324.600006 1590.790039 321.790009 1597.420044 316.679993 C 1604.060059 321.799988 1612.209961 324.600006 1620.48999 324.600006 C 1628.77002 324.600006 1636.930054 321.790009 1643.560059 316.679993 C 1650.199951 321.799988 1658.349976 324.600006 1666.630005 324.600006 C 1672.160034 324.600006 1677.630005 323.320007 1682.630005 320.950012 L 1682.630005 335.76001 C 1677.810059 338.720001 1672.300049 340.339996 1666.630005 340.339996 L 1666.650024 340.350006 Z M 1682.650024 343.940002 C 1677.650024 346.299988 1672.189941 347.589996 1666.650024 347.589996 C 1658.369995 347.589996 1650.209961 344.779999 1643.579956 339.670013 C 1636.939941 344.790009 1628.790039 347.589996 1620.51001 347.589996 C 1612.22998 347.589996 1604.069946 344.779999 1597.439941 339.670013 C 1590.800049 344.790009 1582.650024 347.589996 1574.369995 347.589996 C 1566.089966 347.589996 1557.939941 344.779999 1551.300049 339.670013 C 1544.660034 344.790009 1536.51001 347.589996 1528.22998 347.589996 C 1519.949951 347.589996 1511.790039 344.779999 1505.160034 339.670013 C 1498.52002 344.790009 1490.369995 347.589996 1482.089966 347.589996 C 1473.810059 347.589996 1465.650024 344.779999 1459.02002 339.670013 C 1452.380005 344.790009 1444.22998 347.589996 1435.949951 347.589996 C 1427.670044 347.589996 1419.51001 344.779999 1412.880005 339.670013 C 1407.119995 344.109985 1400.209961 346.809998 1393.079956 347.440002 L 1393.079956 394.149994 L 1682.689941 394.149994 L 1682.689941 343.950012 L 1682.650024 343.940002 Z"/>
    <path id="path28" fill="#8c9091" stroke="none" d="M 1307.25 380.950012 L 1307.25 393.779999 L 1276.97998 393.779999 L 1276.97998 383.309998 C 1276.97998 363.470001 1262.920044 346.529999 1245.23999 337.130005 L 1255.119995 337.130005 C 1278.849976 337.929993 1305.599976 356.609985 1307.23999 380.940002 L 1307.25 380.950012 Z"/>
    <path id="path29" fill="#1d1d1b" stroke="none" d="M 493.450012 314.390015 C 484.890015 292.140015 463.299988 276.309998 438.079987 276.309998 L 411.73999 276.309998 L 411.73999 244.130005 C 411.73999 209.199997 383.320007 180.779999 348.380005 180.779999 L 302.049988 180.779999 L 302.049988 158.860001 L 359.950012 158.860001 L 360.190002 151 C 345.070007 150.050003 330.160004 143.339996 318.160004 132.289978 L 346.459991 132.289978 L 346.459991 124.419983 C 332.649994 124.419983 319.660004 118.559998 309.859985 108.089996 L 333.429993 108.089996 L 333.429993 100.220001 C 311.410004 100.220001 293.5 80.279999 293.5 55.76001 L 285.630005 55.76001 C 285.630005 80.279999 267.720001 100.220001 245.699997 100.220001 L 245.699997 108.089996 L 269.269989 108.089996 C 259.470001 118.559998 246.479996 124.419983 232.669998 124.419983 L 232.669998 124.529999 L 134.259995 124.529999 C 112.269997 124.529999 56.450298 124.559998 48.770302 185.550003 L 48.740299 185.550003 C 48.740299 206.740005 34.540298 223.980011 17.650299 223.980011 L 17.650299 231.850006 L 34.900299 231.850006 C 27.410299 240.390015 17.6903 245.170013 7.38031 245.170013 L 7.38031 253.029999 L 40.1003 253.029999 L 40.1003 276.299988 L -41.179699 276.299988 L -41.179699 284.170013 L 110 284.170013 C 77.7603 297.519989 50.2803 326.559998 50.2803 361.26001 L 50.2803 394.140015 L 91.5103 394.140015 L 91.5103 361.26001 C 91.5103 317.839996 139.520004 284.170013 180.820007 284.170013 L 192.029999 284.170013 L 192.029999 394.140015 L 497.369995 394.140015 L 497.369995 388.589996 C 497.369995 388.369995 497.369995 388.149994 497.380005 387.929993 L 497.380005 334.720001 C 497.380005 334.720001 497.380005 324.679993 493.450012 314.390015 Z M 214.929993 221.880005 L 244.720001 221.880005 L 244.720001 214.009995 C 229.889999 214.009995 216.210007 204.940002 206.5 188.889999 L 226.559998 188.889999 C 228.360001 189.029999 230.179993 189.020004 232.009995 188.880005 L 232.009995 188.639999 L 294.459991 188.639999 L 294.459991 193.410004 C 294.459991 239.119995 257.269989 276.299988 211.559998 276.299988 L 200.309998 276.299988 L 200.309998 252.589996 L 258.200012 252.589996 L 258.200012 244.720001 C 242.050003 244.720001 226.910004 236.670013 214.929993 221.880005 Z M 277.079987 158.860001 L 277.079987 180.779999 L 225.149994 180.779999 C 219.669998 179.889999 214.410004 177.220001 209.679993 172.869995 C 205.580002 169.089996 202.089996 164.300003 199.309998 158.789993 L 219.179993 158.789993 L 219.179993 158.860001 L 277.079987 158.860001 Z M 302.320007 193.410004 L 302.320007 188.639999 L 348.380005 188.639999 C 378.980011 188.639999 403.869995 213.539993 403.869995 244.130005 L 403.869995 276.309998 L 248.449997 276.309998 C 280.160004 262.140015 302.320007 230.329987 302.320007 193.410004 Z M 280.75 106.429993 L 285.130005 100.220001 L 270.880005 100.220001 C 279.109985 94.619995 285.670013 86.359985 289.559998 76.549988 C 293.459991 86.359985 300.019989 94.619995 308.25 100.220001 L 293.98999 100.220001 L 298.380005 106.429993 C 303.730011 113.98999 310.320007 120.059998 317.730011 124.419983 L 300.320007 124.419983 L 305.910004 130.919983 C 313.209991 139.399994 321.929993 146.210007 331.399994 150.990005 L 294.179993 150.990005 L 294.179993 180.779999 L 284.940002 180.779999 L 284.940002 150.990005 L 247.729996 150.990005 C 257.200012 146.210007 265.920013 139.399994 273.209991 130.919983 L 278.809998 124.419983 L 261.399994 124.419983 C 268.799988 120.059998 275.399994 113.98999 280.75 106.429993 Z M 251.440002 132.390015 L 251.440002 132.289978 L 260.970001 132.289978 C 249.169998 143.149994 234.550003 149.809998 219.699997 150.929993 L 195.990005 150.929993 C 193.990005 145.199997 192.649994 138.949997 192.080002 132.390015 L 251.440002 132.390015 Z M 134.259995 132.390015 L 183.559998 132.390015 C 182.990005 138.949997 181.649994 145.199997 179.649994 150.929993 L 117.879997 150.929993 C 94.910301 150.929993 81.960297 162 81.140297 182.119995 L 81.060303 182.119995 C 81.060303 191.270004 73.770302 203.940002 63.300301 210.179993 C 59.3703 204.300003 56.840302 196.940002 56.290298 188.869995 C 61.9603 132.410004 110.290001 132.390015 134.259995 132.390015 Z M 165.960007 172.869995 C 164.320007 174.369995 162.619995 175.649994 160.880005 176.75 C 159.039993 175.600006 157.229996 174.259995 155.479996 172.699997 C 150.910004 168.619995 147.350006 163.580002 145.410004 158.789993 L 176.330002 158.789993 C 173.550003 164.300003 170.059998 169.089996 165.960007 172.869995 Z M 169.139999 188.889999 C 167.089996 192.270004 164.860001 195.330002 162.479996 198.070007 C 160.520004 195.309998 158.720001 192.25 157.149994 188.889999 L 169.139999 188.889999 Z M 122.57 188.789993 C 118.260002 198.059998 112.300003 205.149994 105.459999 209.429993 C 95.890297 203.119995 89.290298 191.529999 88.970299 182.800003 C 89.470299 166.669998 98.930298 158.789993 117.879997 158.789993 L 134.25 158.789993 C 132.289993 163.570007 128.710007 168.600006 124.129997 172.699997 C 119.379997 176.940002 114.190002 179.669998 109.25 180.649994 L 109.25 188.789993 L 122.57 188.789993 Z M 115.540001 221.880005 C 112.860001 225.269989 109.730003 228.369995 106.300003 231.130005 C 103.669998 228.119995 101.459999 224.929993 100 221.880005 L 115.540001 221.880005 Z M 56.5103 245.170013 L 56.430302 253.029999 L 56.200298 275.910004 L 47.9603 275.910004 L 47.9603 245.170013 L 31.810301 245.170013 C 37.250301 241.369995 42.090302 236.26001 46.060299 230.029999 L 49.910301 223.980011 L 39.1003 223.980011 C 44.680302 219.470001 49.230301 213.240005 52.220299 205.929993 C 53.2803 208.520004 54.540298 210.960007 55.970299 213.25 C 56.7103 214.440002 57.500301 215.579987 58.330299 216.679993 C 58.650299 217.100006 58.9603 217.51001 59.290298 217.910004 C 60.430302 219.309998 61.640301 220.619995 62.9203 221.839996 C 63.7103 222.589996 64.5103 223.309998 65.340302 223.980011 L 54.5303 223.980011 L 58.380299 230.029999 C 59.310299 231.5 60.310299 232.899994 61.340302 234.23999 C 62.150299 235.299988 63.0103 236.279999 63.880299 237.25 C 64.750298 238.23999 65.660301 239.179993 66.590302 240.089996 C 68.300301 241.75 70.080299 243.290009 71.950302 244.640015 C 72.180298 244.809998 72.390297 245.01001 72.6203 245.170013 L 56.5103 245.170013 Z M 72.8703 276.299988 L 64.060303 276.299988 L 64.300301 253.029999 L 72.8703 253.029999 L 72.8703 276.299988 Z M 88.970299 275.910004 L 80.740303 275.910004 L 80.740303 253.029999 L 89.200302 253.029999 L 88.970299 275.910004 Z M 84.2603 242.559998 C 79.790298 240.720001 75.610298 237.950012 71.880302 234.290009 C 72.5103 233.48999 73.110298 232.670013 73.670303 231.850006 L 73.830299 231.850006 C 76.8703 227.130005 78.660301 221.5 79.130302 219.910004 C 79.230301 219.420013 79.340302 218.929993 79.410301 218.450012 L 80.030296 213.970001 L 71.540298 213.970001 C 77.280296 209.440002 81.890297 203.419998 84.920303 197.270004 C 87.700302 203.059998 91.890297 208.690002 97.1203 213.100006 C 97.470299 213.389999 97.810303 213.690002 98.160301 213.970001 L 89.630302 213.970001 L 90.2603 216.980011 L 90.450302 217.929993 L 90.460297 217.929993 L 90.6203 218.709991 C 90.830299 219.75 91.140297 220.799988 91.5103 221.880005 C 93.100304 226.410004 96.050301 231.220001 99.820297 235.679993 C 100.68 236.700012 101.589996 237.700012 102.529999 238.679993 C 103.470001 239.649994 104.449997 240.589996 105.449997 241.5 C 106.699997 242.630005 107.989998 243.709991 109.32 244.720001 C 109.510002 244.869995 109.699997 245.019989 109.889999 245.170013 L 97.050301 245.170013 C 94.9403 245.170013 92.860298 244.920013 90.800301 244.519989 C 88.570297 244.089996 86.380302 243.440002 84.2603 242.559998 Z M 96.830299 276.299988 L 97.070297 253.029999 L 127.349998 253.029999 L 127.349998 276.299988 L 96.830299 276.299988 Z M 175.330002 276.299988 L 152.320007 276.299988 L 152.320007 252.589996 L 175.330002 252.589996 L 175.330002 276.299988 Z M 144.449997 244.720001 L 144.449997 275.769989 L 135.210007 275.769989 L 135.210007 244.720001 L 126.330002 244.720001 C 125.699997 244.579987 125.07 244.399994 124.43 244.190002 C 120.269997 242.829987 115.910004 240.119995 111.949997 236.73999 C 117.699997 231.970001 122.660004 226.290009 126.379997 219.929993 L 129.850006 214.009995 L 119.550003 214.009995 L 119.550003 213.970001 C 117.550003 213.970001 115.599998 213.690002 113.699997 213.190002 C 120.889999 207.449997 126.940002 199.070007 131.160004 188.639999 C 131.490005 187.830002 131.830002 187.039993 132.139999 186.210007 L 134.070007 180.919998 L 126.519997 180.919998 C 127.489998 180.179993 128.440002 179.399994 129.369995 178.559998 C 133.759995 174.639999 137.330002 170.119995 139.820007 165.5 C 142.289993 170.130005 145.850006 174.649994 150.240005 178.570007 C 150.949997 179.210007 151.690002 179.789993 152.419998 180.380005 C 152.589996 180.509995 152.740005 180.649994 152.910004 180.779999 C 152.970001 180.820007 153.020004 180.880005 153.080002 180.919998 L 145.600006 180.919998 L 145.630005 181.020004 L 147.070007 184.960007 L 147.100006 185.029999 L 147.529999 186.210007 C 147.839996 187.039993 148.179993 187.830002 148.509995 188.639999 C 148.539993 188.729996 148.580002 188.820007 148.610001 188.910004 C 150.880005 194.460007 153.669998 199.419998 156.880005 203.710007 C 157.690002 204.779999 158.509995 205.809998 159.360001 206.800003 C 160.220001 207.800003 161.110001 208.75 162.020004 209.660004 C 163.610001 211.240005 165.25 212.720001 166.960007 214.009995 L 149.820007 214.009995 L 152.119995 217.940002 L 153.289993 219.929993 C 153.669998 220.589996 154.110001 221.230011 154.529999 221.880005 C 155.389999 223.220001 156.300003 224.540009 157.270004 225.820007 C 158.059998 226.859985 158.889999 227.890015 159.75 228.890015 C 160.610001 229.890015 161.5 230.869995 162.429993 231.829987 C 167.419998 236.959991 173.25 241.350006 179.619995 244.720001 L 144.449997 244.720001 Z M 192.440002 275.769989 L 183.199997 275.769989 L 183.199997 252.589996 L 192.440002 252.589996 L 192.440002 275.769989 Z M 192.080002 241.5 C 189.389999 240.570007 186.759995 239.440002 184.210007 238.140015 C 178.009995 234.970001 172.330002 230.769989 167.589996 225.809998 C 168.589996 224.540009 169.559998 223.230011 170.520004 221.880005 L 189.410004 221.880005 L 189.410004 214.009995 C 187.660004 214.009995 185.919998 213.820007 184.210007 213.479996 C 178.210007 212.289993 172.539993 209.059998 167.600006 204.149994 C 171.570007 199.729996 175.149994 194.539993 178.279999 188.639999 C 178.619995 188 178.979996 187.380005 179.309998 186.710007 L 182.149994 181.020004 L 176.740005 181.020004 L 176.740005 180.919998 L 172.039993 180.919998 C 171.75 180.889999 171.449997 180.820007 171.160004 180.779999 C 170.529999 180.669998 169.889999 180.550003 169.25 180.389999 C 169.929993 179.830002 170.619995 179.270004 171.289993 178.649994 C 176.929993 173.449997 181.570007 166.639999 185 158.789993 C 186.050003 156.380005 187 153.869995 187.820007 151.279999 C 188.639999 153.869995 189.589996 156.380005 190.639999 158.789993 C 194.070007 166.639999 198.710007 173.449997 204.350006 178.649994 C 205.169998 179.410004 206.009995 180.100006 206.850006 180.779999 C 206.949997 180.850006 207.039993 180.949997 207.139999 181.020004 L 193.490005 181.020004 L 196.330002 186.710007 C 196.660004 187.380005 197.020004 188 197.360001 188.639999 C 203.229996 199.720001 210.720001 208.350006 219.279999 214.009995 L 199.770004 214.009995 L 203.889999 220.140015 C 211.139999 230.929993 219.789993 239.220001 229.330002 244.720001 L 210.210007 244.720001 C 204.149994 244.720001 197.990005 243.570007 192.080002 241.5 Z"/>
    <path id="path30" fill="#8c9091" stroke="none" d="M 143.037994 284.299988 C 110.938004 297.709991 83.648399 326.679993 83.648399 361.26001 L 83.648399 394.140015 L 58.148399 394.140015 L 58.148399 361.26001 C 58.148399 319.380005 102.807999 286.570007 143.037994 284.299988 Z"/>
    <path id="path31" fill="#8c9091" stroke="none" d="M 469.697998 339.660004 C 463.058014 344.779999 454.90799 347.579987 446.627991 347.579987 C 438.347992 347.579987 430.187988 344.779999 423.548004 339.660004 C 416.917999 344.779999 408.757996 347.579987 400.477997 347.579987 C 392.197998 347.579987 384.037994 344.779999 377.40799 339.660004 C 370.768005 344.779999 362.618011 347.579987 354.328003 347.579987 C 346.037994 347.579987 337.89801 344.779999 331.257996 339.660004 C 324.618011 344.779999 316.467987 347.579987 308.187988 347.579987 C 299.90799 347.579987 291.747986 344.779999 285.108002 339.660004 C 278.477997 344.779999 270.317993 347.579987 262.037994 347.579987 C 253.757996 347.579987 245.608002 344.779999 238.968002 339.660004 C 232.328003 344.779999 224.177994 347.579987 215.888 347.579987 C 210.358002 347.579987 204.897995 346.299988 199.897995 343.940002 L 199.897995 394.140015 L 489.497986 394.140015 L 489.497986 347.429993 C 482.368011 346.799988 475.458008 344.100006 469.697998 339.660004 Z M 488.247986 324.299988 C 481.558014 323.470001 475.118011 320.859985 469.697998 316.679993 C 463.058014 321.799988 454.90799 324.609985 446.627991 324.609985 C 438.347992 324.609985 430.187988 321.799988 423.548004 316.679993 C 416.917999 321.799988 408.757996 324.609985 400.477997 324.609985 C 392.197998 324.609985 384.037994 321.799988 377.40799 316.679993 C 370.768005 321.799988 362.618011 324.609985 354.328003 324.609985 C 346.037994 324.609985 337.89801 321.799988 331.257996 316.679993 C 324.618011 321.799988 316.467987 324.609985 308.187988 324.609985 C 299.90799 324.609985 291.747986 321.799988 285.118011 316.679993 C 278.477997 321.799988 270.317993 324.609985 262.037994 324.609985 C 253.757996 324.609985 245.608002 321.799988 238.968002 316.679993 C 232.328003 321.799988 224.177994 324.609985 215.888 324.609985 C 210.358002 324.609985 204.897995 323.320007 199.897995 320.959991 L 199.897995 335.769989 C 204.718002 338.730011 210.227997 340.350006 215.888 340.350006 C 223.507996 340.350006 230.878006 337.48999 236.628006 332.279999 L 238.968002 330.170013 L 241.307999 332.279999 C 247.057999 337.48999 254.417999 340.350006 262.037994 340.350006 C 269.65799 340.350006 277.028015 337.48999 282.778015 332.279999 L 285.118011 330.170013 L 287.447998 332.279999 C 293.197998 337.48999 300.567993 340.350006 308.187988 340.350006 C 315.808014 340.350006 323.167999 337.48999 328.917999 332.279999 L 331.257996 330.170013 L 333.597992 332.279999 C 339.347992 337.48999 346.708008 340.350006 354.328003 340.350006 C 361.947998 340.350006 369.317993 337.48999 375.067993 332.279999 L 377.40799 330.170013 L 379.747986 332.279999 C 385.497986 337.48999 392.858002 340.350006 400.477997 340.350006 C 408.097992 340.350006 415.458008 337.48999 421.217987 332.279999 L 423.548004 330.170013 L 425.888 332.279999 C 431.638 337.48999 439.007996 340.350006 446.627991 340.350006 C 454.247986 340.350006 461.608002 337.48999 467.358002 332.279999 L 469.697998 330.170013 L 472.037994 332.279999 C 476.958008 336.73999 483.067993 339.459991 489.497986 340.160004 L 489.497986 335.619995 C 489.497986 335.440002 489.518005 335.26001 489.518005 335.079987 C 489.477997 331.380005 489.037994 327.769989 488.247986 324.299988 Z M 438.078003 284.170013 L 199.897995 284.170013 L 199.897995 312.790009 C 204.718002 315.75 210.227997 317.369995 215.888 317.369995 C 223.518005 317.369995 230.878006 314.51001 236.628006 309.299988 L 238.968002 307.190002 L 241.307999 309.299988 C 247.048004 314.51001 254.417999 317.369995 262.037994 317.369995 C 269.65799 317.369995 277.028015 314.51001 282.778015 309.299988 L 285.118011 307.190002 L 287.447998 309.299988 C 293.197998 314.51001 300.567993 317.369995 308.187988 317.369995 C 315.808014 317.369995 323.167999 314.51001 328.917999 309.299988 L 331.257996 307.190002 L 333.597992 309.299988 C 339.347992 314.51001 346.708008 317.369995 354.328003 317.369995 C 361.947998 317.369995 369.317993 314.51001 375.067993 309.299988 L 377.40799 307.190002 L 379.747986 309.299988 C 385.488007 314.51001 392.858002 317.369995 400.477997 317.369995 C 408.097992 317.369995 415.467987 314.51001 421.217987 309.299988 L 423.548004 307.190002 L 425.888 309.299988 C 431.638 314.51001 438.997986 317.369995 446.627991 317.369995 C 454.257996 317.369995 461.608002 314.51001 467.358002 309.299988 L 469.697998 307.190002 L 472.037994 309.299988 C 476.007996 312.899994 480.768005 315.350006 485.838013 316.540009 C 478.238007 297.589996 459.708008 284.170013 438.078003 284.170013 Z"/>
    <path id="path32" fill="#8c9091" stroke="none" d="M 820.629028 376.440002 L 820.629028 406.070007 L 1109.26001 406.070007 L 1109.26001 333.309998 C 1109.26001 311.369995 1091.47998 293.589996 1069.540039 293.589996 L 903.479004 293.589996 C 857.718994 293.589996 820.629028 330.679993 820.629028 376.440002 Z"/>
    <path id="path33" fill="#1d1d1b" stroke="none" d="M 816.698975 410 L 816.698975 376.429993 C 816.698975 328.5 855.549011 289.649994 903.479004 289.649994 L 1069.540039 289.649994 C 1093.650024 289.649994 1113.189941 309.190002 1113.189941 333.299988 L 1113.189941 410 L 816.698975 410 Z M 1105.329956 333.309998 C 1105.329956 313.540009 1089.300049 297.519989 1069.540039 297.519989 L 903.479004 297.519989 C 859.888977 297.519989 824.559021 332.859985 824.559021 376.440002 L 824.559021 402.140015 L 1105.329956 402.140015 L 1105.329956 333.309998 Z"/>
    <path id="path34" fill="#1d1d1b" stroke="none" d="M 926.809998 83.470001 C 927.26001 85.019989 927.419983 86.660004 927.23999 88.320007 C 926.890015 91.660004 925.26001 94.660004 922.650024 96.77002 L 912.25 105.190002 C 910.880005 100.47998 912.349976 95.179993 916.400024 91.899994 L 926.799988 83.480011 M 928.440002 74.429993 L 912.619995 87.23999 C 904.650024 93.690002 903.419983 105.380005 909.869995 113.339996 L 910.599976 114.23999 L 926.419983 101.429993 C 934.390015 94.97998 935.619995 83.290009 929.169983 75.330017 L 928.440002 74.429993 Z"/>
    <path id="path35" fill="#1d1d1b" stroke="none" d="M 878.049988 83.179993 L 888.539978 91.5 C 891.169983 93.580017 892.830017 96.570007 893.210022 99.899994 C 893.400024 101.549988 893.27002 103.200012 892.830017 104.75 L 882.340027 96.429993 C 879.710022 94.350006 878.049988 91.359985 877.669983 88.029999 C 877.47998 86.380005 877.609985 84.730011 878.049988 83.179993 Z M 876.320007 74.149994 L 875.599976 75.059998 C 869.22998 83.089996 870.580017 94.77002 878.609985 101.130005 L 894.559998 113.77002 L 895.280029 112.859985 C 901.650024 104.830017 900.299988 93.149994 892.27002 86.790009 L 876.320007 74.149994 Z"/>
    <path id="path36" fill="#1d1d1b" stroke="none" d="M 902.481995 105.72998 C 905.182007 105.72998 907.382019 107.929993 907.382019 110.630005 C 907.382019 113.330017 905.182007 115.529999 902.481995 115.529999 C 899.781982 115.529999 897.58197 113.330017 897.58197 110.630005 C 897.58197 107.929993 899.781982 105.72998 902.481995 105.72998 Z M 902.481995 99.72998 C 896.461975 99.72998 891.58197 104.609985 891.58197 110.630005 C 891.58197 116.649994 896.461975 121.529999 902.481995 121.529999 C 908.502014 121.529999 913.382019 116.649994 913.382019 110.630005 C 913.382019 104.609985 908.502014 99.72998 902.481995 99.72998 Z"/>
    <path id="path37" fill="#1d1d1b" stroke="none" d="M 848.85199 26.140015 C 850.221985 30.850006 848.752014 36.149994 844.702026 39.429993 L 834.302002 47.850006 C 833.85199 46.299988 833.692017 44.660004 833.872009 43 C 834.221985 39.660004 835.85199 36.660004 838.461975 34.549988 L 848.862 26.130005 M 850.502014 17.080017 L 834.682007 29.890015 C 826.711975 36.339996 825.481995 48.029999 831.932007 55.98999 L 832.661987 56.890015 L 848.481995 44.080017 C 856.452026 37.630005 857.682007 25.940002 851.231995 17.980011 L 850.502014 17.080017 Z"/>
    <path id="path38" fill="#1d1d1b" stroke="none" d="M 800.091003 25.850006 L 810.580994 34.169983 C 814.661011 37.410004 816.190979 42.690002 814.870972 47.419983 L 804.390991 39.109985 C 801.760986 37.029999 800.101013 34.040009 799.721008 30.709991 C 799.531006 29.059998 799.661011 27.410004 800.101013 25.859985 M 798.370972 16.830017 L 797.651001 17.73999 C 791.281006 25.769989 792.630981 37.450012 800.661011 43.809998 L 816.611023 56.450012 L 817.330994 55.540009 C 823.700989 47.51001 822.351013 35.830017 814.320984 29.470001 L 798.370972 16.830017 Z"/>
    <path id="path39" fill="#1d1d1b" stroke="none" d="M 824.53302 48.390015 C 827.232971 48.390015 829.432983 50.589996 829.432983 53.290009 C 829.432983 55.98999 827.232971 58.190002 824.53302 58.190002 C 821.833008 58.190002 819.632996 55.98999 819.632996 53.290009 C 819.632996 50.589996 821.833008 48.390015 824.53302 48.390015 Z M 824.53302 42.390015 C 818.513 42.390015 813.632996 47.269989 813.632996 53.290009 C 813.632996 59.309998 818.513 64.190002 824.53302 64.190002 C 830.552979 64.190002 835.432983 59.309998 835.432983 53.290009 C 835.432983 47.269989 830.552979 42.390015 824.53302 42.390015 Z"/>
    <path id="path40" fill="#8b8e8f" stroke="none" d="M 915.611023 293.910004 L 929.171021 262.339996 L 921.460999 244.429993 L 902.051025 293.350006 L 915.611023 293.910004 Z"/>
    <path id="path41" fill="#e1201c" stroke="none" d="M 922.210999 242.5 L 976.281006 242.5 L 995.161011 293.350006 L 941.781006 293.350006 L 922.210999 242.5 Z"/>
    <path id="path42" fill="#e1201c" stroke="none" d="M 917.52002 292.839996 L 928.729004 263.359985 L 940.400024 293.350006 L 917.52002 292.839996 Z"/>
    <path id="path43" fill="none" stroke="#1d1d1b" stroke-width="7" d="M 902.051025 293.350006 L 995.161011 293.350006 L 976.010986 243.519989 L 921.810974 243.519989 L 902.051025 293.350006 Z"/>
    <path id="path44" fill="none" stroke="#1d1d1b" stroke-width="7" d="M 941.453003 293.779999 L 921.812012 243.519989"/>
    <path id="path45" fill="none" stroke="#1d1d1b" stroke-width="7" d="M 928.789001 261.369995 L 915.629028 293.350006"/>
    <path id="path46" fill="#8b8e8f" stroke="none" d="M 964.039978 262.869995 C 964.109985 266.070007 961.549988 267.399994 959.049988 267.640015 C 953.609985 268.160004 948.340027 263.079987 948.619995 258.820007 C 948.830017 255.649994 950.309998 253.929993 953.75 253.649994 C 957.690002 253.329987 963.900024 256.660004 964.039978 262.869995 Z"/>
    <path id="path47" fill="none" stroke="#1d1d1b" stroke-width="5" d="M 964.04303 262.869995 C 964.112976 266.070007 961.552979 267.399994 959.052979 267.640015 C 953.612976 268.160004 948.992981 263.070007 948.622986 258.820007 C 948.382996 256.089996 949.872986 253.130005 953.312988 252.850006 C 957.252991 252.529999 963.903015 256.660004 964.052979 262.869995 L 964.04303 262.869995 Z"/>
    <path id="path48" fill="#163029" stroke="none" d="M 411.679993 69.179993 L 354.059998 69.179993 L 353.299988 66.640015 C 353.160004 66.160004 351.950012 61.73999 353.549988 54.440002 C 355.23999 46.730011 363.519989 38.399994 373.940002 38.399994 C 380.890015 38.399994 387.380005 41.899994 391.25 47.540009 C 392.670013 47.149994 394.140015 46.950012 395.630005 46.950012 C 404.839996 46.950012 412.339996 54.450012 412.339996 63.660004 C 412.339996 64.440002 412.279999 65.230011 412.140015 66.160004 L 411.679993 69.190002 L 411.679993 69.179993 Z M 359.859985 62.059998 L 405.089996 62.059998 C 404.329987 57.529999 400.380005 54.070007 395.640015 54.070007 C 394.130005 54.070007 392.679993 54.419983 391.309998 55.119995 L 388.040009 56.779999 L 386.470001 53.470001 C 384.190002 48.640015 379.269989 45.529999 373.940002 45.529999 C 367.380005 45.529999 361.589996 51.040009 360.51001 55.980011 C 359.950012 58.540009 359.829987 60.600006 359.859985 62.070007 L 359.859985 62.059998 Z"/>
    <path id="path49" fill="#ffffff" stroke="#1d1d1b" stroke-width="7" d="M 733.742004 96.23999 L 638.692017 96.23999 C 627.674011 96.23999 618.742004 105.171997 618.742004 116.190002 L 618.742004 127.859985 C 618.742004 138.878006 627.674011 147.809998 638.692017 147.809998 L 733.742004 147.809998 C 744.76001 147.809998 753.692017 138.878006 753.692017 127.859985 L 753.692017 116.190002 C 753.692017 105.171997 744.76001 96.23999 733.742004 96.23999 Z"/>
    <path id="path50" fill="#878787" stroke="#1d1d1b" stroke-width="7" d="M 695.76001 44.660004 L 697.520996 44.660004 C 704.43103 44.660004 710.039978 50.269989 710.039978 57.179993 L 710.039978 96.22998 L 683.22998 96.22998 L 683.22998 57.179993 C 683.22998 50.269989 688.840027 44.660004 695.75 44.660004 L 695.76001 44.660004 Z"/>
    <path id="path51" fill="#ff9900" stroke="none" opacity="0.88" d="M 0 0 L 1920 0 L 1920 390 L 0 390 Z"/>
</svg>
