<svg width="1134" height="522" viewBox="0 0 1134 522" fill="none" xmlns="http://www.w3.org/2000/svg">
<path d="M1110.62 65.4276C1064.49 65.4818 1020.28 84.4265 987.664 118.105C955.051 151.784 936.706 197.447 936.653 245.076V270.656H875.816V222.799H897.643L850.167 146.788H817.838V129.247H791.736V146.788H732.286L713.8 176.316C700.738 174.249 688.831 167.401 680.253 157.02H711.393V146.788H708.025C681.385 146.788 661.314 122.231 661.314 89.6635H651.405C651.405 122.231 631.362 146.788 604.723 146.788V157.02H632.409C627.112 163.438 620.509 168.57 613.071 172.052C605.634 175.534 597.544 177.279 589.379 177.163V187.395H622.897C608.233 203.445 590.653 212.45 573.525 212.45V222.682H641.469V270.54H623.464C608.739 270.507 594.468 275.803 583.132 285.507C571.795 295.212 564.109 308.711 561.409 323.659C550.358 328.822 540.979 337.161 534.393 347.679C527.807 358.197 524.291 370.451 524.267 382.977V386.807H407.999C396.948 377.838 383.298 372.968 369.243 372.978H152.702V227.155C152.695 213.345 147.381 200.104 137.928 190.336C128.475 180.569 115.655 175.074 102.283 175.058H32.8675V65.4276H0V75.6598H22.9591V97.7612H0V107.993H22.9591V138.164H0V148.396H22.9591V270.452H0V280.684H22.9591V412.65C22.9675 420.799 24.8322 428.832 28.4025 436.1C31.9729 443.367 37.1488 449.665 43.5119 454.485H0V464.717H155.25C179.257 464.717 219.372 481.323 225.854 504.009C226.853 507.568 227.507 511.221 227.808 514.914C227.808 516.405 228.034 517.837 228.034 519.416V521.696H237.943V519.416C237.943 517.896 237.943 516.492 237.745 514.884C238.944 501.225 245.041 488.521 254.839 479.263C264.637 470.004 277.431 464.858 290.712 464.834H524.267V521.813H534.175V430.045C543.099 431.275 552.178 429.908 560.39 426.098L561.013 425.806C562.485 425.104 563.844 424.344 565.344 423.496C566.821 422.606 568.248 421.63 569.619 420.573L570.185 420.163L570.638 420.485C572.568 421.924 574.592 423.224 576.696 424.373C577.998 425.075 579.329 425.718 580.688 426.303C582.619 427.112 584.595 427.806 586.604 428.379C588.93 429.026 591.294 429.514 593.682 429.84C595.747 430.117 597.827 430.264 599.91 430.279C601.641 430.276 603.371 430.168 605.091 429.957C609.96 429.427 614.728 428.167 619.245 426.215C620.774 425.543 622.275 424.783 623.718 423.964C625.162 423.146 626.549 422.239 627.965 421.274C628.503 420.894 629.069 420.543 629.607 420.134L630.881 421.099C633.98 423.281 637.303 425.105 640.789 426.537C646.684 428.988 652.977 430.259 659.332 430.279H659.53C670.236 430.255 680.657 426.712 689.284 420.163C697.91 426.712 708.331 430.255 719.037 430.279H720.934C731.03 429.889 740.778 426.364 748.904 420.163C757.543 426.78 768.014 430.353 778.77 430.353C789.527 430.353 799.998 426.78 808.637 420.163C817.273 426.768 827.729 430.344 838.475 430.366C844.485 430.357 850.442 429.218 856.056 427.005V454.368H681.64C665.326 454.387 649.66 460.96 637.958 472.698C637.137 473.488 636.345 474.336 635.58 475.184L634.872 475.973C633.372 477.727 632.042 479.54 630.626 481.44C630.553 481.532 630.487 481.63 630.428 481.732C629.579 482.931 628.758 484.188 627.993 485.474C627.229 486.761 626.408 488.398 625.672 489.801L625.219 490.678C624.285 492.695 623.407 494.771 622.643 496.876C620.079 504.055 618.766 511.647 618.764 519.299V521.579H628.673V519.299C628.689 514.447 629.337 509.619 630.598 504.945C631.333 502.22 632.28 499.56 633.429 496.993C634.08 495.473 634.816 494.069 635.608 492.52C640.072 484.445 646.441 477.666 654.123 472.815C662.401 467.534 671.938 464.731 681.668 464.717H1133.92V454.485H1078.12V335.587C1078.12 324.615 1075.43 313.82 1070.29 304.214C1065.16 294.607 1057.75 286.502 1048.76 280.655H1133.92V270.423H1020.51V259.372C1020.51 229.908 1031.84 201.651 1052.02 180.818C1072.19 159.984 1099.55 148.279 1128.08 148.279H1134V138.047H1128.08C1096.96 138.078 1067.11 150.861 1045.1 173.591C1023.09 196.32 1010.71 227.139 1010.68 259.284V270.335H981.383V253.905C981.383 215.162 996.276 178.004 1022.79 150.596C1049.31 123.187 1085.27 107.769 1122.79 107.73H1133.92V97.4982H1122.79C1082.67 97.5446 1044.21 114.023 1015.84 143.317C987.476 172.612 971.519 212.33 971.474 253.759V270.189H946.562V244.813C946.667 199.938 963.993 156.937 994.743 125.23C1025.49 93.5238 1067.16 75.6984 1110.62 75.6598H1133.92V65.4276H1110.62ZM937.05 280.888C951.09 280.904 964.551 286.673 974.477 296.928C984.402 307.184 989.981 321.088 989.989 335.587V341.434C984.872 341.646 980.033 343.895 976.486 347.71C972.939 351.525 970.961 356.61 970.965 361.899V371.254C970.945 373.232 971.212 375.203 971.757 377.101C968.516 378.538 965.71 380.851 963.632 383.795C941.976 380.638 924.763 360.407 921.649 335.061C921.643 332.362 921.463 329.666 921.111 326.992V326.817C919.875 317.486 916.688 308.544 911.77 300.613C906.852 292.682 900.321 285.952 892.632 280.888H937.05ZM235.848 487.725C234.798 489.698 233.853 491.728 233.017 493.806C232.394 492.315 231.715 490.883 231.007 489.45C229.594 486.662 227.986 483.985 226.194 481.44L226.053 481.206C214.587 465.039 176.284 454.485 155.448 454.485H152.9V383.298H369.441C375.838 383.316 382.179 384.535 388.154 386.894C391.614 388.232 394.926 389.947 398.034 392.01C400.343 393.531 402.53 395.242 404.573 397.126C411.552 403.476 416.802 411.599 419.804 420.69C420.352 422.369 420.815 424.077 421.191 425.806C421.58 427.494 421.883 429.201 422.097 430.922C422.435 433.353 422.615 435.804 422.635 438.26V454.485H290.712C279.536 454.512 268.567 457.604 258.927 463.444C249.288 469.284 241.323 477.664 235.848 487.725ZM102.623 454.485H73.4069C62.6624 454.477 52.3597 450.068 44.7595 442.225C37.1593 434.382 32.8825 423.746 32.8675 412.65V185.291H102.283C113.027 185.306 123.327 189.723 130.922 197.571C138.517 205.42 142.786 216.059 142.794 227.155V454.485H102.623ZM596.598 288.461C604.699 283.511 613.938 280.896 623.35 280.888H709.695H859.736C872.285 281.121 884.346 285.954 893.763 294.522C903.181 303.091 909.342 314.837 911.146 327.664C910.778 357.572 891.047 381.954 866.191 384.058V382.977C866.168 365.701 859.513 349.14 847.684 336.924C835.855 324.708 819.817 317.835 803.088 317.812H587.369C584.585 317.816 581.805 318.011 579.046 318.397C576.875 318.688 574.72 319.097 572.591 319.625C576.519 306.517 585.052 295.401 596.513 288.461H596.598ZM737.75 157.137H737.92L742.279 164.095L715.47 206.954L711.96 212.567H702.957L703.354 211.953L708.732 203.358L718.641 187.512L723.255 180.145L737.75 157.137ZM791.821 157.137V172.486H817.923V157.02H844.845L879.525 212.567H784.291L753.915 164.095L751.084 159.389L749.696 157.137H791.793H791.821ZM798.899 146.905V136.732H810.845V165.294H798.899V146.905ZM1002.11 343.627C1000.73 341.692 999.992 339.358 999.982 336.961C1000.15 333.554 1001.62 330.353 1004.06 328.059C1006.51 325.764 1009.73 324.56 1013.03 324.711H1020.03C1023.33 324.56 1026.55 325.764 1029 328.059C1031.44 330.353 1032.91 333.554 1033.08 336.961C1033.05 339.352 1032.32 341.678 1030.98 343.627L1025.32 351.725H1041.57C1044.22 351.733 1046.77 352.825 1048.65 354.764C1050.52 356.703 1051.58 359.331 1051.59 362.074V371.429C1051.57 373.622 1050.88 375.751 1049.61 377.51L1043.95 385.637H1058.47C1061.11 385.66 1063.63 386.762 1065.49 388.701C1067.35 390.64 1068.39 393.259 1068.38 395.986V405.341C1068.39 408.068 1067.35 410.688 1065.49 412.627C1063.63 414.566 1061.11 415.667 1058.47 415.69H1022.18V454.485H1006.72V415.69H979.656C978.209 415.676 976.782 415.348 975.466 414.726C973.732 413.894 972.263 412.57 971.23 410.908C970.198 409.247 969.644 407.316 969.634 405.341V395.986C969.646 393.343 970.639 390.806 972.408 388.897C974.178 386.987 976.59 385.852 979.146 385.725L988.403 385.228L982.883 377.568C981.583 375.803 980.877 373.647 980.873 371.429V362.074C980.878 359.5 981.817 357.022 983.505 355.128C985.192 353.233 987.506 352.061 989.989 351.842C990.3 351.842 990.583 351.842 990.895 351.842H1007.65L1002.11 343.627ZM560.475 335.792C562.125 334.793 563.826 333.886 565.57 333.073C567.214 332.291 568.896 331.598 570.609 330.997C576.008 329.103 581.667 328.116 587.369 328.074H803.173C817.257 328.112 830.752 333.911 840.706 344.201C850.659 354.49 856.26 368.433 856.282 382.977V383.445C849.111 386.991 841.091 388.291 833.213 387.184C825.335 386.078 817.943 382.613 811.949 377.218L808.864 374.294L805.75 377.218C798.329 383.889 788.822 387.564 778.983 387.564C769.144 387.564 759.637 383.889 752.216 377.218L749.13 374.294L746.044 377.218C738.664 383.891 729.187 387.57 719.377 387.57C709.566 387.57 700.09 383.891 692.709 377.218L689.623 374.294L686.538 377.218C679.134 383.871 669.656 387.545 659.842 387.566C653.354 387.556 646.964 385.932 641.214 382.83C638.33 381.291 635.631 379.408 633.174 377.218L631.305 375.522L630.088 374.44L627.002 377.364L626.776 377.714C619.316 384.158 609.884 387.659 600.159 387.595C590.434 387.53 581.046 383.905 573.667 377.364L570.694 374.703L567.609 377.627C567.042 378.124 566.448 378.592 565.854 379.059C560.785 383.138 554.86 385.931 548.556 387.216C546.009 387.719 543.421 387.973 540.828 387.976C538.771 387.971 536.717 387.805 534.685 387.479V382.977C534.661 373.49 537.016 364.158 541.521 355.889C546.025 347.621 552.526 340.697 560.39 335.792H560.475ZM921.678 365.436C926.044 372.861 931.823 379.295 938.663 384.351H921.31L921.593 384.789L926.632 392.361C932.792 401.8 940.832 409.774 950.214 415.749H920.942V454.602H911.118V415.749H882.016C891.389 409.773 899.419 401.799 905.569 392.361L910.92 384.351H893.566C901.033 378.868 907.246 371.763 911.769 363.535C913.463 360.538 914.93 357.411 916.157 354.18C916.327 354.619 916.525 355.057 916.723 355.525C918.113 358.961 919.77 362.276 921.678 365.436ZM960.15 409.522C952.932 405.821 946.45 400.753 941.041 394.583H959.839C959.839 395.051 959.839 395.518 959.839 395.986V405.341C959.799 406.742 959.903 408.144 960.15 409.522ZM534.175 397.126V396.922L535.619 397.126C537.176 397.273 538.733 397.36 540.318 397.36C541.904 397.36 543.461 397.36 545.046 397.126C550.339 396.595 555.517 395.204 560.39 393.004L562.456 392.01C563.447 391.513 564.41 390.958 565.287 390.403C566.955 389.42 568.571 388.346 570.128 387.186C572.185 388.761 574.363 390.159 576.639 391.367L578.423 392.244C583.928 394.931 589.852 396.584 595.918 397.126C597.221 397.126 598.551 397.273 599.853 397.273C601.889 397.268 603.921 397.132 605.94 396.863C614.528 395.784 622.7 392.43 629.663 387.128L630.937 388.093C634.036 390.284 637.359 392.118 640.846 393.56C646.746 395.988 653.037 397.247 659.389 397.273H659.587C670.295 397.263 680.72 393.719 689.34 387.158C697.962 393.715 708.386 397.259 719.094 397.273H720.99C731.084 396.87 740.829 393.347 748.96 387.158C757.6 393.774 768.071 397.347 778.827 397.347C789.583 397.347 800.054 393.774 808.694 387.158C815.408 392.313 823.27 395.642 831.556 396.837C839.843 398.033 848.287 397.056 856.112 393.998V416.626C848.94 420.176 840.918 421.475 833.038 420.363C825.157 419.251 817.766 415.777 811.78 410.37L808.694 407.446L805.58 410.37C798.167 417.058 788.657 420.744 778.813 420.744C768.969 420.744 759.459 417.058 752.046 410.37L748.96 407.446L745.875 410.37C738.502 417.061 729.022 420.751 719.207 420.751C709.392 420.751 699.912 417.061 692.539 410.37L689.453 407.446L686.368 410.37C680.254 415.928 672.651 419.44 664.564 420.442C656.477 421.444 648.286 419.889 641.072 415.983C638.182 414.455 635.483 412.57 633.032 410.37L631.164 408.704L629.947 407.593L626.861 410.516L626.634 410.867C625.612 411.772 624.544 412.621 623.435 413.41C622.057 414.391 620.62 415.279 619.132 416.07C617.636 416.904 616.085 417.628 614.49 418.234C609.964 419.992 605.169 420.893 600.335 420.894C595.805 420.883 591.308 420.093 587.029 418.556C583.517 417.283 580.185 415.533 577.121 413.352C575.89 412.446 574.708 411.47 573.582 410.428L570.609 407.768L567.524 410.691C566.958 411.218 566.363 411.656 565.769 412.124C559.126 417.494 551.013 420.563 542.583 420.894C541.96 420.894 541.366 420.894 540.743 420.894C540.12 420.894 539.525 420.894 538.903 420.894C537.461 420.837 536.024 420.69 534.6 420.456L534.175 397.126ZM866.191 394.583H891.273C884.418 402.45 875.809 408.471 866.191 412.124V394.583ZM930.963 425.864H978.722H979.656H996.811V454.427H930.963V425.864ZM742.109 270.656V238.673H754.084V270.832H742.109V270.656ZM776.647 270.656H761.162V231.306H735.032V270.656H719.518V219.261L720.481 217.741L723.68 212.625L724.954 210.579L748.083 173.597L772.514 212.625L775.713 217.741L776.647 219.261V270.773V270.656ZM865.908 270.656H786.641V222.74H865.908V270.656ZM709.61 222.799V270.656H671.307V222.799H709.61ZM524.267 420.69H429.995C427.653 412.077 423.615 404.055 418.134 397.126H524.267V420.69ZM431.921 430.922H524.267V454.485H432.345V438.26C432.347 435.807 432.206 433.357 431.921 430.922ZM866.191 425.864H901.323V454.485H866.191V425.864ZM706.864 187.512L700.551 197.598C696.7 194.539 693.093 191.167 689.765 187.512H706.864ZM608.233 212.567C619.583 205.589 629.506 196.394 637.449 185.495L643.62 177.28H624.766C633.493 171.53 640.856 163.827 646.31 154.74L651.122 146.905H635.495C644.969 139.667 652.191 129.73 656.275 118.313C660.377 129.727 667.607 139.661 677.082 146.905H661.455L666.268 154.74C671.721 163.827 679.084 171.53 687.811 177.28H668.986L675.157 185.495C680.916 193.294 687.656 200.265 695.2 206.223L691.237 212.567H661.399V270.656H651.179V212.567H608.233ZM1046.32 454.485H1032.17V425.923H1058.38C1061.88 425.892 1065.31 424.881 1068.29 422.999V454.368L1046.32 454.485ZM1068.21 335.587V378.211C1066 376.855 1063.56 375.97 1061.02 375.609C1061.3 374.235 1061.44 372.834 1061.44 371.429V362.074C1061.41 356.801 1059.43 351.74 1055.89 347.933C1052.36 344.127 1047.55 341.864 1042.45 341.609C1042.78 340.113 1042.94 338.583 1042.93 337.049C1042.76 330.928 1040.25 325.126 1035.94 320.913C1031.64 316.699 1025.9 314.418 1019.97 314.567H1012.95C1007.52 314.55 1002.25 316.46 998.029 319.975C994.119 303.872 984.396 289.92 970.852 280.976H1015.27C1029.29 281.007 1042.72 286.771 1052.63 297.005C1062.54 307.24 1068.12 321.113 1068.15 335.587H1068.21ZM795.048 262.178H821.178V231.365H795.048V262.178ZM802.126 238.791H814.101V254.986H802.041L802.126 238.791ZM857.415 231.482H831.313V262.295H857.415V231.482ZM850.337 254.87H838.391V238.673H850.337V254.87ZM723.651 54.289C724.372 48.916 723.764 43.4425 721.885 38.3772C720.006 33.3119 716.917 28.8197 712.905 25.3186C708.893 21.8174 704.089 19.4213 698.939 18.3528C693.789 17.2843 688.462 17.578 683.452 19.2071C679.558 12.8172 674.022 7.67003 667.461 4.33918C660.9 1.00834 653.573 -0.375206 646.295 0.343301C639.017 1.06181 632.076 3.85397 626.245 8.40823C620.414 12.9625 615.923 19.0997 613.272 26.1358C611.712 25.8435 610.13 25.6971 608.544 25.6976C601.361 25.7053 594.475 28.6554 589.396 33.9006C584.316 39.1458 581.46 46.2574 581.452 53.6752V58.7913H723L723.651 54.289ZM592.068 48.442C593.142 44.7918 595.323 41.5945 598.289 39.3207C601.255 37.047 604.85 35.8172 608.544 35.8127C610.664 35.8198 612.765 36.226 614.744 37.0114L620.01 39.1163L621.34 33.4738C622.784 27.3439 626.032 21.8267 630.637 17.6812C635.242 13.5356 640.978 10.9657 647.055 10.3246C653.132 9.68356 659.253 11.0029 664.574 14.1014C669.896 17.1998 674.156 21.925 676.771 27.6268L678.951 32.3628L683.508 29.995C686.45 28.4307 689.712 27.6185 693.02 27.6268C698.426 27.6341 703.622 29.7815 707.541 33.6265C711.459 37.4716 713.8 42.7218 714.083 48.2961L592.068 48.442ZM1015.92 54.9909C1020.83 54.9909 1025.63 53.4872 1029.71 50.67C1033.8 47.8527 1036.98 43.8483 1038.86 39.1634C1040.74 34.4785 1041.23 29.3235 1040.27 24.35C1039.31 19.3765 1036.95 14.8078 1033.48 11.2222C1030 7.63648 1025.58 5.19464 1020.76 4.20536C1015.95 3.21607 1010.96 3.72405 1006.42 5.6646C1001.88 7.60516 998.005 10.8911 995.277 15.1074C992.549 19.3237 991.093 24.281 991.093 29.3519C991.108 36.1443 993.729 42.6536 998.383 47.4538C1003.04 52.2541 1009.34 54.954 1015.92 54.9617V54.9909ZM1030.84 29.3519C1030.84 32.3991 1029.96 35.3778 1028.33 37.9115C1026.69 40.4451 1024.36 42.4196 1021.63 43.5857C1018.9 44.7518 1015.9 45.057 1013.01 44.4625C1010.12 43.8681 1007.46 42.4008 1005.37 40.2461C1003.28 38.0914 1001.86 35.3461 1001.29 32.3575C1000.71 29.3689 1001.01 26.2713 1002.14 23.456C1003.27 20.6408 1005.18 18.2346 1007.63 16.5417C1010.09 14.8488 1012.97 13.9451 1015.92 13.9451C1019.86 13.9526 1023.63 15.5621 1026.42 18.4245C1029.22 21.287 1030.8 25.1714 1030.84 29.2349V29.3519Z" fill="#F2F2F2"/>
</svg>
