<svg id="bottl" width="58" height="84" viewBox="0 0 58 84" fill="none" xmlns="http://www.w3.org/2000/svg">
<path fill-rule="evenodd" clip-rule="evenodd" d="M23.3901 6.9206H34.2532V32.6443L38.1904 34.5254C42.9444 36.7966 46.7416 40.7269 48.8415 45.5606H8.72193C10.8308 40.7063 14.6514 36.7631 19.4336 34.4965L23.3901 32.6212V6.9206ZM6.99237 52.4812C6.94483 53.0698 6.9206 53.6649 6.9206 54.2656C6.9206 66.3391 16.7081 76.1267 28.7817 76.1267C40.8552 76.1267 50.6428 66.3391 50.6428 54.2656C50.6428 53.6649 50.6186 53.0698 50.571 52.4812H33.1184C34.8953 57.2552 39.3454 60.5553 44.4076 60.5553L44.4076 67.4759C37.8473 67.4759 32.1347 64.0856 28.7228 58.9717C25.2679 63.7729 19.6313 66.8992 13.2646 66.8992L13.2646 59.9786C18.3198 59.9786 22.6515 56.8815 24.4659 52.4812H6.99237ZM41.1738 10.1351V28.2808C50.8669 32.9118 57.5634 42.8067 57.5634 54.2656C57.5634 70.1613 44.6774 83.0473 28.7817 83.0473C12.886 83.0473 0 70.1613 0 54.2656C0 42.7752 6.73333 32.8574 16.4695 28.2428V10.1351H15.8363C13.0375 10.1351 10.7687 7.86627 10.7687 5.06755C10.7687 2.26882 13.0375 0 15.8363 0H41.174C43.9727 0 46.2416 2.26882 46.2416 5.06755C46.2416 7.86628 43.9725 10.1351 41.1738 10.1351Z" fill="#3DAE2B"/>
</svg>
