<svg id="catalog" width="239" height="30" viewBox="0 0 239 30" fill="none" xmlns="http://www.w3.org/2000/svg">
<path d="M14.7046 14.9999L23.6806 26.9999H15.5206L7.84062 16.3919V26.9999H0.640625V2.99988H7.84062V13.5119L15.0406 2.99988H23.4406L14.7046 14.9999Z" fill="#F3BD48"/>
<path d="M42.299 5.25588V2.99988H49.499V26.9999H42.299V24.7439C40.635 26.6959 38.251 27.6719 35.147 27.6719C31.979 27.6719 29.275 26.4559 27.035 24.0239C24.795 21.5919 23.675 18.5839 23.675 14.9999C23.675 11.4479 24.795 8.45588 27.035 6.02388C29.307 3.55988 32.011 2.32788 35.147 2.32788C38.251 2.32788 40.635 3.30388 42.299 5.25588ZM30.875 14.9999C30.875 16.7919 31.403 18.2159 32.459 19.2719C33.515 20.3279 34.891 20.8559 36.587 20.8559C38.283 20.8559 39.659 20.3279 40.715 19.2719C41.771 18.2159 42.299 16.7919 42.299 14.9999C42.299 13.2079 41.771 11.7839 40.715 10.7279C39.659 9.67188 38.283 9.14388 36.587 9.14388C34.891 9.14388 33.515 9.67188 32.459 10.7279C31.403 11.7839 30.875 13.2079 30.875 14.9999Z" fill="#F3BD48"/>
<path d="M52.6213 2.99988H74.2213V9.91188H67.0693V26.9999H59.8693V9.91188H52.6213V2.99988Z" fill="#F3BD48"/>
<path d="M93.8146 5.25588V2.99988H101.015V26.9999H93.8146V24.7439C92.1506 26.6959 89.7666 27.6719 86.6626 27.6719C83.4946 27.6719 80.7906 26.4559 78.5506 24.0239C76.3106 21.5919 75.1906 18.5839 75.1906 14.9999C75.1906 11.4479 76.3106 8.45588 78.5506 6.02388C80.8226 3.55988 83.5266 2.32788 86.6626 2.32788C89.7666 2.32788 92.1506 3.30388 93.8146 5.25588ZM82.3906 14.9999C82.3906 16.7919 82.9186 18.2159 83.9746 19.2719C85.0306 20.3279 86.4066 20.8559 88.1026 20.8559C89.7986 20.8559 91.1746 20.3279 92.2306 19.2719C93.2866 18.2159 93.8146 16.7919 93.8146 14.9999C93.8146 13.2079 93.2866 11.7839 92.2306 10.7279C91.1746 9.67188 89.7986 9.14388 88.1026 9.14388C86.4066 9.14388 85.0306 9.67188 83.9746 10.7279C82.9186 11.7839 82.3906 13.2079 82.3906 14.9999Z" fill="#F3BD48"/>
<path d="M107.593 2.99988H127.177V26.9999H119.977V9.91188H114.793V17.0639C114.793 20.7119 113.881 23.3839 112.057 25.0799C110.265 26.7759 107.625 27.4159 104.137 26.9999V20.2799C105.257 20.5999 106.105 20.4399 106.681 19.7999C107.289 19.1599 107.593 18.0879 107.593 16.5839V2.99988Z" fill="#F3BD48"/>
<path d="M152.997 24.0239C150.565 26.4559 147.557 27.6719 143.973 27.6719C140.389 27.6719 137.381 26.4559 134.949 24.0239C132.485 21.5599 131.253 18.5519 131.253 14.9999C131.253 11.4799 132.485 8.48788 134.949 6.02388C137.413 3.55988 140.421 2.32788 143.973 2.32788C147.525 2.32788 150.533 3.55988 152.997 6.02388C155.461 8.48788 156.693 11.4799 156.693 14.9999C156.693 18.5519 155.461 21.5599 152.997 24.0239ZM138.453 14.9999C138.453 16.6639 138.981 18.0239 140.037 19.0799C141.093 20.1359 142.405 20.6639 143.973 20.6639C145.541 20.6639 146.853 20.1359 147.909 19.0799C148.965 18.0239 149.493 16.6639 149.493 14.9999C149.493 13.3359 148.965 11.9759 147.909 10.9199C146.853 9.86388 145.541 9.33588 143.973 9.33588C142.405 9.33588 141.093 9.86388 140.037 10.9199C138.981 11.9759 138.453 13.3359 138.453 14.9999Z" fill="#F3BD48"/>
<path d="M160.766 2.99988H177.566V9.91188H167.966V26.9999H160.766V2.99988Z" fill="#F3BD48"/>
<path d="M203.222 17.8799H186.182C186.982 20.1199 188.902 21.2399 191.942 21.2399C193.894 21.2399 195.43 20.6319 196.55 19.4159L202.31 22.7279C199.974 26.0239 196.486 27.6719 191.846 27.6719C187.846 27.6719 184.614 26.4719 182.15 24.0719C179.75 21.6719 178.55 18.6479 178.55 14.9999C178.55 11.4159 179.734 8.40788 182.102 5.97588C184.502 3.54388 187.574 2.32788 191.318 2.32788C194.806 2.32788 197.702 3.54388 200.006 5.97588C202.342 8.34388 203.51 11.3519 203.51 14.9999C203.51 16.0239 203.414 16.9839 203.222 17.8799ZM186.038 12.5039H196.358C195.654 9.97588 193.958 8.71188 191.27 8.71188C188.486 8.71188 186.742 9.97588 186.038 12.5039Z" fill="#F3BD48"/>
<path fill-rule="evenodd" clip-rule="evenodd" d="M229.05 15L219.525 5.47489L224.474 0.525146L238.949 15L224.474 29.4749L219.525 24.5251L229.05 15Z" fill="#F3BD48"/>
</svg>
