<svg id="children" width="54" height="50" viewBox="0 0 54 50" fill="" xmlns="http://www.w3.org/2000/svg">
<path fill-rule="evenodd" clip-rule="evenodd" d="M10.6212 37.4024C10.5465 37.4148 10.4697 37.4213 10.3915 37.4213C9.62295 37.4213 8.99994 36.7983 8.99994 36.0298V28.0285C8.99994 27.9517 9.00615 27.8765 9.0181 27.8031C9.27201 25.4935 12.2071 23.6513 15.8673 23.5142C16.012 23.5087 16.1578 23.506 16.3046 23.506C16.305 23.506 16.3054 23.506 16.3058 23.506C16.4524 23.506 16.5981 23.5087 16.7426 23.5141C20.4134 23.6511 23.3553 25.5031 23.5955 27.8218C23.6055 27.8892 23.6107 27.9582 23.6107 28.0285V28.0693C23.6111 28.0891 23.6113 28.1088 23.6113 28.1286C23.6113 28.1484 23.6111 28.168 23.6107 28.1874V36.0298C23.6107 36.7983 22.9877 37.4213 22.2192 37.4213C22.1418 37.4213 22.0659 37.415 21.992 37.4028C21.3316 37.2944 20.8277 36.7209 20.8277 36.0298V28.5473C20.8259 28.1654 20.5163 27.8561 20.1344 27.8546V33.7686C20.1344 33.8023 20.1337 33.8359 20.1322 33.8693V45.5967C20.1322 46.5573 19.3535 47.3361 18.3928 47.3361C18.0652 47.3361 17.7587 47.2455 17.4971 47.088C16.9916 46.7837 16.6534 46.2297 16.6534 45.5967V36.0298H15.9598V45.5967C15.9598 46.2297 15.6217 46.7837 15.1161 47.088C14.8545 47.2455 14.548 47.3361 14.2204 47.3361C13.2598 47.3361 12.481 46.5573 12.481 45.5967V27.8546L12.4782 27.8546C12.4773 27.8546 12.4763 27.8546 12.4754 27.8546C12.2044 27.8557 11.97 28.0117 11.856 28.2387C11.8128 28.3249 11.7869 28.4214 11.783 28.5235V28.5772L11.7832 28.5812L11.783 30.066C11.7832 30.0744 11.7833 30.0827 11.7833 30.0911C11.7833 30.0932 11.7833 30.0952 11.7833 30.0972C11.7833 30.0972 11.7833 30.0972 11.7833 30.0972L11.783 36.0298C11.783 36.72 11.2804 37.2929 10.6212 37.4024ZM10.6212 39.2731C10.5453 39.2784 10.4687 39.2811 10.3915 39.2811C8.59581 39.2811 7.14014 37.8254 7.14014 36.0298V28.0285C7.14014 27.8692 7.15174 27.7115 7.1744 27.5564C7.40765 25.5937 8.77261 24.0977 10.3645 23.1542C11.0827 22.7285 11.8904 22.3853 12.7589 22.1345C11.7434 21.1862 11.1085 19.8353 11.1085 18.3362C11.1085 15.4665 13.4349 13.1402 16.3046 13.1402C19.1743 13.1402 21.5006 15.4665 21.5006 18.3362C21.5006 19.8351 20.866 21.1856 19.8509 22.134C20.7251 22.3863 21.5379 22.7323 22.2598 23.1618C23.8555 24.1111 25.2217 25.6178 25.4414 27.5928C25.4607 27.7361 25.4705 27.8816 25.4705 28.0285V28.053C25.4709 28.0782 25.4711 28.1034 25.4711 28.1286C25.4711 28.1537 25.4709 28.1788 25.4705 28.2039V36.0298C25.4705 37.8254 24.0149 39.2811 22.2192 39.2811C22.1428 39.2811 22.0671 39.2785 21.992 39.2733V45.5967C21.992 47.5845 20.3806 49.1959 18.3928 49.1959C17.6152 49.1959 16.8951 48.9493 16.3066 48.53C15.7181 48.9493 14.9981 49.1959 14.2204 49.1959C12.2326 49.1959 10.6212 47.5845 10.6212 45.5967V39.2731ZM16.682 21.6514C18.3469 21.4639 19.6408 20.0512 19.6408 18.3362C19.6408 16.4937 18.1471 15 16.3046 15C14.462 15 12.9683 16.4937 12.9683 18.3362C12.9683 20.0513 14.2625 21.4642 15.9276 21.6514C16.0513 21.6653 16.1771 21.6725 16.3046 21.6725C16.305 21.6725 16.3054 21.6725 16.3058 21.6725C16.433 21.6724 16.5585 21.6653 16.682 21.6514Z" />
<path fill-rule="evenodd" clip-rule="evenodd" d="M43.9795 26.1864L46.7092 30.9145C47.7297 32.682 47.1241 34.942 45.3566 35.9624C44.8993 36.2265 44.409 36.3817 43.9157 36.436L44.0174 36.8019C44.4965 38.5238 43.5711 40.2317 42.0446 40.8685V45.6545C42.0446 47.6347 40.4393 49.24 38.4592 49.24C37.6876 49.24 36.973 48.9963 36.3881 48.5817C35.8032 48.9963 35.0886 49.24 34.3171 49.24C32.3369 49.24 30.7316 47.6347 30.7316 45.6545V40.868C29.2057 40.2309 28.281 38.5234 28.7599 36.8019L28.861 36.4383C28.3586 36.3866 27.8588 36.2306 27.3931 35.9617C25.6251 34.9409 25.0193 32.6801 26.0401 30.9121L28.8527 26.0405C29.0017 25.7824 29.1785 25.5474 29.3778 25.3381C30.1255 24.416 31.4949 23.263 33.4364 22.6323C32.1433 21.7093 31.3002 20.1964 31.3002 18.4866C31.3002 15.6756 33.579 13.3968 36.3901 13.3968C39.2011 13.3968 41.4799 15.6756 41.4799 18.4866C41.4799 20.187 40.6461 21.6926 39.3651 22.617C41.371 23.2666 42.7388 24.4965 43.4489 25.4784C43.6503 25.689 43.829 25.9259 43.9795 26.1864ZM43.4035 34.5949C43.7492 34.6151 44.1044 34.5379 44.4267 34.3518C45.3047 33.8449 45.6055 32.7223 45.0986 31.8444L42.3688 27.1163C42.2727 26.9499 42.1546 26.8042 42.0201 26.6809C41.3681 25.7012 39.5112 24.0264 36.4352 24.0264C33.47 24.0264 31.544 25.5827 30.7723 26.5725C30.6542 26.6875 30.5498 26.8206 30.4633 26.9704L27.6507 31.842C27.1435 32.7205 27.4445 33.8439 28.323 34.3511C28.6541 34.5422 29.02 34.6186 29.3745 34.5925C29.9607 34.5494 30.5161 34.2262 30.8321 33.6788L32.2352 31.2486L30.5516 37.3003C30.2763 38.2901 31.0206 39.2696 32.0479 39.2696H32.5914V45.6545C32.5914 46.6076 33.364 47.3802 34.3171 47.3802C34.6377 47.3802 34.9379 47.2927 35.1951 47.1404C35.7025 46.8399 36.0427 46.287 36.0427 45.6545V39.2696H36.7335V45.6545C36.7335 46.287 37.0737 46.8399 37.5811 47.1404C37.8383 47.2927 38.1385 47.3802 38.4592 47.3802C39.4122 47.3802 40.1848 46.6076 40.1848 45.6545V39.2696H40.7294C41.7568 39.2696 42.501 38.2901 42.2257 37.3003L40.5668 31.3373L41.9193 33.68C42.2401 34.2356 42.8075 34.56 43.4035 34.5949ZM39.6201 18.4866C39.6201 20.2705 38.174 21.7167 36.3901 21.7167C34.6062 21.7167 33.16 20.2705 33.16 18.4866C33.16 16.7027 34.6062 15.2566 36.3901 15.2566C38.174 15.2566 39.6201 16.7027 39.6201 18.4866Z" />
</svg>
