<svg id="clock" width="83" height="83" viewBox="0 0 83 83" fill="none" xmlns="http://www.w3.org/2000/svg">
<path fill-rule="evenodd" clip-rule="evenodd" d="M35.5 75.5C50.964 75.5 63.5 62.964 63.5 47.5C63.5 32.036 50.964 19.5 35.5 19.5C20.036 19.5 7.5 32.036 7.5 47.5C7.5 62.964 20.036 75.5 35.5 75.5ZM35.5 82.5C54.83 82.5 70.5 66.83 70.5 47.5C70.5 28.17 54.83 12.5 35.5 12.5C16.17 12.5 0.5 28.17 0.5 47.5C0.5 66.83 16.17 82.5 35.5 82.5Z" fill="#ECBE4C"/>
<path fill-rule="evenodd" clip-rule="evenodd" d="M32 3.5C32 1.567 33.567 0 35.5 0C61.7335 0 83 21.2665 83 47.5C83 49.433 81.433 51 79.5 51C77.567 51 76 49.433 76 47.5C76 25.1325 57.8675 7 35.5 7C33.567 7 32 5.433 32 3.5Z" fill="#ECBE4C"/>
<path fill-rule="evenodd" clip-rule="evenodd" d="M57.5 47.5C57.5 48.6046 56.5333 49.5 55.3409 49.5L40.6591 49.5C39.4667 49.5 38.5 48.6046 38.5 47.5C38.5 46.3954 39.4667 45.5 40.6591 45.5L55.3409 45.5C56.5333 45.5 57.5 46.3954 57.5 47.5Z" fill="#ECBE4C"/>
<path fill-rule="evenodd" clip-rule="evenodd" d="M35 23.5C35.8284 23.5 36.5 24.1716 36.5 25V30C36.5 30.8284 35.8284 31.5 35 31.5C34.1716 31.5 33.5 30.8284 33.5 30V25C33.5 24.1716 34.1716 23.5 35 23.5Z" fill="#ECBE4C"/>
<path fill-rule="evenodd" clip-rule="evenodd" d="M51.2167 30.5607C51.8025 31.1465 51.8025 32.0962 51.2167 32.682L47.6811 36.2175C47.0954 36.8033 46.1456 36.8033 45.5598 36.2175C44.974 35.6317 44.974 34.682 45.5598 34.0962L49.0954 30.5607C49.6811 29.9749 50.6309 29.9749 51.2167 30.5607Z" fill="#ECBE4C"/>
<path fill-rule="evenodd" clip-rule="evenodd" d="M35 70.5C34.1716 70.5 33.5 69.8284 33.5 69L33.5 64C33.5 63.1716 34.1716 62.5 35 62.5C35.8284 62.5 36.5 63.1716 36.5 64L36.5 69C36.5 69.8284 35.8284 70.5 35 70.5Z" fill="#ECBE4C"/>
<path fill-rule="evenodd" clip-rule="evenodd" d="M18.5607 63.2174C17.9749 62.6316 17.9749 61.6819 18.5607 61.0961L22.0962 57.5605C22.682 56.9748 23.6317 56.9748 24.2175 57.5605C24.8033 58.1463 24.8033 59.0961 24.2175 59.6819L20.682 63.2174C20.0962 63.8032 19.1464 63.8032 18.5607 63.2174Z" fill="#ECBE4C"/>
<path fill-rule="evenodd" clip-rule="evenodd" d="M12.5 48C12.5 47.1716 13.1716 46.5 14 46.5H19C19.8284 46.5 20.5 47.1716 20.5 48C20.5 48.8284 19.8284 49.5 19 49.5H14C13.1716 49.5 12.5 48.8284 12.5 48Z" fill="#ECBE4C"/>
<path fill-rule="evenodd" clip-rule="evenodd" d="M51.2169 63.2174C50.6311 63.8032 49.6814 63.8032 49.0956 63.2174L45.5601 59.6819C44.9743 59.0961 44.9743 58.1463 45.5601 57.5606C46.1458 56.9748 47.0956 56.9748 47.6814 57.5606L51.2169 61.0961C51.8027 61.6819 51.8027 62.6316 51.2169 63.2174Z" fill="#ECBE4C"/>
<path d="M41.5 47.5C41.5 50.8137 38.8137 53.5 35.5 53.5C32.1863 53.5 29.5 50.8137 29.5 47.5C29.5 44.1863 32.1863 41.5 35.5 41.5C38.8137 41.5 41.5 44.1863 41.5 47.5Z" fill="#ECBE4C"/>
</svg>
