<svg width="89" height="36" viewBox="0 0 89 36" fill="none" xmlns="http://www.w3.org/2000/svg">
<path d="M84.6608 32.27C84.7808 31.49 84.8608 30.7 84.8608 29.88C84.8608 21.06 77.7108 13.92 68.9008 13.92C66.3008 13.92 63.8508 14.55 61.6908 15.66C58.3008 8.50004 51.0108 3.54004 42.5608 3.54004C32.6308 3.54004 24.3008 10.39 22.0308 19.62C20.5108 19.03 18.8608 18.69 17.1308 18.69C9.63078 18.69 3.55078 24.77 3.55078 32.26H84.6708L84.6608 32.27Z" fill="#A0C966"/>
<path d="M87.72 35.82H0V32.27C0 22.83 7.68 15.15 17.12 15.15C17.98 15.15 18.84 15.22 19.69 15.35C23.43 6.16001 32.38 0 42.56 0C50.93 0 58.74 4.31 63.26 11.22C65.08 10.66 66.97 10.38 68.91 10.38C79.67 10.38 88.42 19.13 88.42 29.89C88.42 30.8 88.34 31.75 88.18 32.81L87.72 35.83V35.82ZM7.75 28.72H81.27C80.68 22.42 75.36 17.47 68.91 17.47C66.95 17.47 65.07 17.92 63.31 18.82L60.06 20.48L58.5 17.18C55.6 11.05 49.35 7.09 42.58 7.09C34.46 7.09 27.43 12.59 25.49 20.47L24.53 24.39L20.76 22.93C19.59 22.47 18.37 22.24 17.14 22.24C12.86 22.24 9.19999 24.93 7.75999 28.72H7.75Z" fill="#1D1D1B"/>
</svg>
