<svg width="60" height="31" viewBox="0 0 60 31" fill="none" xmlns="http://www.w3.org/2000/svg">
<path d="M0.199951 27.76C0.0599512 26.84 0 26.04 0 25.26C0 16.05 7.49996 8.55 16.71 8.55C18.21 8.55 19.67 8.75 21.09 9.14C24.96 3.5 31.45 0 38.4 0C48.82 0 57.09 8.33 58.79 16.04C60.4 23.34 59.19 27.76 59.04 28.24L58.28 30.78H0.659973L0.199951 27.75V27.76ZM51.83 17.58C50.74 12.64 44.96 7.13 38.4 7.13C33.07 7.13 28.15 10.25 25.87 15.07L24.3 18.38L21.03 16.72C19.66 16.03 18.21 15.67 16.7 15.67C11.96 15.67 8.01 19.13 7.25 23.66H52.48C52.51 22.19 52.4 20.13 51.83 17.57V17.58Z" fill="#163029"/>
</svg>
