<svg id="contacts-bg" width="1920" height="689" viewBox="0 0 1920 689" fill="none" xmlns="http://www.w3.org/2000/svg">
<g clip-path="url(#clip0_967_3314)">
<path d="M902.764 522.678C897.07 522.681 891.417 523.654 886.034 525.555C879.593 514.746 870.32 506.013 859.272 500.353C848.225 494.692 835.849 492.333 823.557 493.543C811.265 494.753 799.552 499.485 789.756 507.198C779.959 514.911 772.474 525.294 768.155 537.162C765.274 536.566 762.342 536.267 759.403 536.269C747.52 536.283 736.127 541.131 727.724 549.752C719.321 558.373 714.595 570.061 714.582 582.252V589.693H952.662L953.629 583.344C954.017 580.733 954.227 578.097 954.257 575.457C954.232 561.458 948.797 548.042 939.144 538.148C929.491 528.254 916.408 522.691 902.764 522.678ZM729.958 574.812C731.58 568.058 735.362 562.056 740.7 557.767C746.038 553.478 752.623 551.148 759.403 551.151C763.16 551.147 766.884 551.871 770.379 553.284L778.067 556.309L780.049 548.125C782.574 537.562 788.228 528.061 796.231 520.929C804.234 513.797 814.195 509.384 824.742 508.297C835.29 507.209 845.907 509.5 855.134 514.856C864.361 520.212 871.744 528.368 876.267 538.204L879.458 545.148L886.083 541.627C891.665 538.722 897.876 537.323 904.13 537.56C910.385 537.797 916.478 539.663 921.836 542.982C927.195 546.301 931.641 550.964 934.759 556.533C937.876 562.101 939.561 568.391 939.655 574.812H729.958Z" fill="#D9E2E7"/>
<path d="M1704.72 105.458C1712.05 105.458 1719.22 103.227 1725.32 99.0463C1731.42 94.8657 1736.17 88.9237 1738.98 81.9716C1741.79 75.0196 1742.52 67.3698 1741.09 59.9895C1739.66 52.6092 1736.13 45.8301 1730.94 40.5092C1725.75 35.1884 1719.15 31.5648 1711.95 30.0967C1704.76 28.6287 1697.3 29.3821 1690.53 32.2618C1683.75 35.1414 1677.96 40.018 1673.88 46.2747C1669.81 52.5313 1667.63 59.8871 1667.63 67.4119C1667.65 77.4984 1671.56 87.168 1678.51 94.3003C1685.46 101.432 1694.89 105.445 1704.72 105.458ZM1704.72 44.2469C1709.18 44.2469 1713.55 45.6054 1717.26 48.1509C1720.98 50.6963 1723.87 54.3143 1725.58 58.5472C1727.29 62.78 1727.74 67.4376 1726.86 71.9312C1725.99 76.4248 1723.84 80.5524 1720.68 83.7921C1717.53 87.0318 1713.5 89.2382 1709.12 90.132C1704.74 91.0259 1700.2 90.567 1696.08 88.8137C1691.95 87.0604 1688.42 84.0912 1685.94 80.2818C1683.46 76.4723 1682.14 71.9936 1682.14 67.4119C1682.15 61.2722 1684.53 55.3878 1688.77 51.0463C1693 46.7048 1698.73 44.26 1704.72 44.2469Z" fill="#D9E2E7"/>
<path d="M1264.63 271.929C1265.69 271.917 1266.73 271.689 1267.7 271.26C1268.68 270.831 1269.56 270.209 1270.29 269.43C1271.03 268.651 1271.61 267.73 1272 266.72C1272.39 265.711 1272.58 264.632 1272.56 263.546C1272.54 261.912 1272.05 260.321 1271.15 258.971C1270.25 257.622 1268.98 256.576 1267.51 255.964C1266.03 255.352 1264.41 255.202 1262.85 255.533C1261.29 255.864 1259.86 256.661 1258.74 257.823C1257.62 258.985 1256.86 260.461 1256.56 262.066C1256.25 263.67 1256.42 265.33 1257.03 266.838C1257.65 268.346 1258.68 269.634 1260.01 270.54C1261.33 271.446 1262.89 271.929 1264.48 271.929H1264.63Z" fill="#D9E2E7"/>
<path d="M1153.47 68.9992C1153.84 69.2613 1154.28 69.4 1154.72 69.3961C1155.15 69.3877 1155.57 69.2699 1155.94 69.0533C1156.31 68.8368 1156.63 68.5283 1156.85 68.156C1157.07 67.7607 1157.18 67.318 1157.19 66.8662C1157.17 66.47 1157.05 66.0849 1156.86 65.7407C1156.67 65.3966 1156.4 65.1027 1156.08 64.8821C1155.7 64.6332 1155.27 64.4957 1154.82 64.4852C1154.39 64.4886 1153.97 64.5988 1153.59 64.8061C1153.21 65.0134 1152.89 65.3118 1152.65 65.6758V65.9237C1152.48 66.2627 1152.38 66.6345 1152.36 67.015C1152.36 67.448 1152.47 67.8727 1152.67 68.2529C1152.88 68.633 1153.17 68.9571 1153.52 69.1976L1153.47 68.9992Z" fill="#D9E2E7"/>
<path d="M1222.75 240.282C1224.35 240.251 1225.9 239.737 1227.21 238.803C1228.52 237.869 1229.53 236.558 1230.11 235.034C1230.7 233.511 1230.83 231.845 1230.49 230.245C1230.15 228.645 1229.36 227.184 1228.21 226.046C1227.47 225.28 1226.58 224.679 1225.59 224.278C1224.61 223.877 1223.56 223.686 1222.51 223.714C1220.37 223.714 1218.31 224.587 1216.8 226.141C1215.28 227.694 1214.43 229.801 1214.43 231.998C1214.43 234.195 1215.28 236.302 1216.8 237.856C1218.31 239.409 1220.37 240.282 1222.51 240.282H1222.75Z" fill="#D9E2E7"/>
<path d="M1244.9 288.795H1245.34C1246.73 288.73 1248.04 288.131 1249.03 287.118C1250.01 286.104 1250.58 284.749 1250.64 283.32C1250.69 281.892 1250.22 280.494 1249.32 279.405C1248.42 278.315 1247.15 277.612 1245.77 277.435C1230.11 276.146 1220.87 268.953 1216.76 254.717C1216.33 253.269 1215.37 252.052 1214.08 251.328C1212.78 250.604 1211.26 250.431 1209.85 250.848C1208.44 251.284 1207.25 252.275 1206.56 253.605C1205.86 254.935 1205.7 256.494 1206.12 257.941C1211.49 276.493 1224.93 287.158 1244.9 288.795Z" fill="#D9E2E7"/>
<path d="M1855.67 389.639V370.392H1928.19V355.511H1794.5C1793.87 345.276 1789.46 335.673 1782.18 328.646C1774.9 321.618 1765.29 317.693 1755.29 317.663C1751.46 317.663 1747.64 318.248 1743.98 319.399C1739.02 311.615 1732.09 305.368 1723.92 301.332C1715.76 297.295 1706.67 295.624 1697.65 296.497C1688.63 297.37 1680.01 300.754 1672.72 306.286C1665.44 311.817 1659.77 319.284 1656.32 327.882C1647.67 326.673 1638.89 328.842 1631.73 333.959C1624.56 339.077 1619.53 346.769 1617.64 355.511H1593.8V313.248H1623.78C1630.43 313.235 1636.8 310.519 1641.51 305.694C1646.21 300.868 1648.86 294.328 1648.87 287.504V276.393C1648.87 270.415 1646.84 264.624 1643.14 260.01C1639.43 255.395 1634.28 252.244 1628.56 251.094C1628.74 249.83 1628.82 248.553 1628.8 247.275V236.164C1628.79 229.82 1626.51 223.702 1622.38 218.98C1618.25 214.258 1612.56 211.263 1606.42 210.568C1606.65 209.192 1606.76 207.798 1606.76 206.401C1606.33 198.629 1602.96 191.337 1597.35 186.089C1591.75 180.841 1584.36 178.054 1576.78 178.325H1566C1558.41 178.054 1551.03 180.841 1545.43 186.089C1539.82 191.337 1536.44 198.629 1536.02 206.401C1536.01 207.798 1536.13 209.192 1536.36 210.568C1530.21 211.263 1524.53 214.258 1520.4 218.98C1516.27 223.702 1513.98 229.82 1513.97 236.164V247.126C1513.98 248.403 1514.06 249.678 1514.21 250.946C1508.5 252.095 1503.34 255.246 1499.64 259.861C1495.94 264.475 1493.91 270.266 1493.91 276.244V287.355C1493.92 294.179 1496.57 300.72 1501.27 305.545C1505.97 310.37 1512.35 313.086 1519 313.099H1548.88V355.71C1472 358.19 1350.64 377.585 1329.03 530.018H1283.77C1294.07 523.222 1300.6 508.887 1293.1 490.335C1289.09 480.414 1284.06 469.997 1278.94 459.927L1276.52 454.967C1276.18 454.223 1275.8 453.529 1275.41 452.784C1272.99 448.072 1270.57 443.409 1268.4 438.846V389.688L1276.09 397.575L1290.59 412.456L1291.41 413.151C1296.59 417.465 1303.15 419.647 1309.81 419.271C1316.47 418.895 1322.75 415.988 1327.43 411.117C1332.16 406.272 1334.98 399.813 1335.36 392.972C1335.75 386.13 1333.66 379.382 1329.51 374.013L1314.43 358.586L1272.56 315.778C1283.09 310.82 1292.29 303.311 1299.37 293.898C1306.45 284.484 1311.2 273.447 1313.2 261.736C1315.2 250.025 1314.4 237.99 1310.87 226.666C1307.33 215.342 1301.17 205.069 1292.91 196.728L1306.11 191.768C1307.5 191.255 1308.64 190.196 1309.27 188.824C1309.9 187.452 1309.97 185.879 1309.47 184.451C1308.97 183.024 1307.94 181.859 1306.6 181.212C1305.26 180.566 1303.73 180.491 1302.34 181.004L1291.36 185.022L1293.15 169.794C1293.24 168.342 1292.77 166.912 1291.86 165.798C1290.95 164.683 1289.66 163.967 1288.26 163.796C1286.85 163.625 1285.43 164.012 1284.29 164.878C1283.15 165.743 1282.38 167.023 1282.13 168.454L1280.05 186.262C1269.7 179.654 1257.87 175.886 1245.7 175.321C1233.52 174.757 1221.41 177.414 1210.52 183.038C1209.28 183.146 1208.11 183.709 1207.23 184.625C1207.23 184.625 1207.23 184.625 1207.23 184.972C1197.93 190.406 1189.93 197.916 1183.83 206.947V202.483C1183.83 194.596 1183.83 187.105 1183.59 180.706C1183.09 174.946 1180.68 169.534 1176.77 165.373C1172.85 161.212 1167.67 158.553 1162.07 157.839V123.116C1168.76 129.062 1177.15 132.629 1185.98 133.281C1194.8 133.934 1203.6 131.638 1211.05 126.737L1218.74 121.777L1171.74 73.76C1173.81 74.0894 1175.89 74.2718 1177.98 74.3057C1185.4 74.2885 1192.68 72.2387 1199.06 68.3685C1205.45 64.4983 1210.71 58.9482 1214.3 52.2923C1217.9 45.6363 1219.69 38.1162 1219.5 30.5097C1219.31 22.9032 1217.15 15.4865 1213.23 9.02681L1208.39 1.13979L1161.64 49.1565C1162.83 41.0846 1161.75 32.8301 1158.5 25.3752C1155.26 17.9203 1149.99 11.5788 1143.33 7.1055C1136.68 2.63222 1128.91 0.215515 1120.95 0.142804C1112.99 0.070092 1105.18 2.34449 1098.44 6.69542L1090.76 11.6558L1137.51 59.6725C1129.65 58.4643 1121.62 59.5934 1114.37 62.9256C1107.12 66.2579 1100.96 71.6535 1096.61 78.4728C1092.25 85.292 1089.9 93.2487 1089.82 101.399C1089.75 109.549 1091.95 117.551 1096.17 124.455L1101.01 132.342L1147.47 84.7226V87.302C1147.28 89.6291 1147.28 91.969 1147.47 94.2962V158.781C1142.41 160.421 1138 163.7 1134.9 168.126C1131.81 172.553 1130.2 177.889 1130.31 183.335C1130.31 190.925 1130.07 202.582 1129.87 216.917V218.207C1129.39 262.355 1128.76 331.255 1128.32 385.968C1128.32 414.341 1127.89 438.945 1127.79 453.876C1127.79 454.57 1127.79 455.463 1127.79 456.406V457.051C1127.79 457.993 1127.79 459.084 1127.79 460.275V461.168C1127.79 462.358 1127.79 463.598 1127.79 464.987V465.384C1127.79 466.971 1127.79 468.707 1127.79 470.592V471.386C1127.79 473.023 1127.79 474.759 1127.79 476.644V481.307C1127.79 487.805 1127.79 495.246 1128.03 503.777C1128.32 521.238 1136.4 531.457 1146.36 535.474C1113.58 540.981 1078.96 552.191 1049.66 574.711H239.055V482.597H606.039C644.719 482.597 718.841 482.596 737.988 560.524C741.555 556.823 745.956 554.081 750.801 552.538C727.013 467.864 641.48 467.715 606.039 467.715H239.055V268.704C239.03 246.229 230.306 224.685 214.802 208.807C199.298 192.929 178.282 184.017 156.375 184.03H122.53C100.648 184.056 79.6698 192.985 64.197 208.859C48.7243 224.733 40.0204 246.255 39.9948 268.704V355.511H-10V370.392H39.9465V530.167H-10V545.048H40.3333C40.6757 551.402 41.3861 557.729 42.4607 563.997H-10V578.878H45.5069C45.5069 579.424 45.8453 580.019 45.9903 580.614C46.7156 583.144 47.4409 585.575 48.2145 588.055C48.9881 590.535 49.7134 592.569 50.5353 594.801C51.3573 597.033 52.421 599.761 53.4847 602.291C54.5485 604.821 55.6605 607.251 56.821 609.682C71.8098 640.69 95.6826 666.255 125.237 682.947H162.661C124.589 671.592 92.4361 645.257 73.2119 609.682C71.9064 607.251 70.601 604.722 69.4405 602.291C68.2801 599.861 67.168 597.331 66.1526 594.801C65.1373 592.271 64.3637 590.337 63.5417 588.055C62.7198 585.773 61.8494 583.094 61.0758 580.614C60.9435 580.027 60.7822 579.448 60.5923 578.878C60.0605 576.993 59.5286 575.108 59.0451 573.174C59.0451 572.578 58.8033 571.983 58.6582 571.437C58.078 568.957 57.5462 566.477 57.111 563.997C55.9455 557.738 55.1703 551.408 54.7902 545.048C54.7902 542.568 54.6935 540.088 54.5001 537.607C54.5001 536.863 54.5001 536.119 54.5001 535.375V268.704C54.5129 250.198 61.6844 232.453 74.4397 219.367C87.195 206.282 104.491 198.924 122.53 198.911H156.375C174.414 198.924 191.71 206.282 204.465 219.367C217.221 232.453 224.392 250.198 224.405 268.704V682.947H238.91V589.692H549.903C545.793 591.279 541.732 593.015 537.67 594.652C532.545 596.983 527.468 599.612 522.488 602.142C517.508 604.672 513.785 607.103 509.579 609.533C479.529 627.54 454.114 652.661 435.457 682.798H452.428C474.719 650.718 505.038 625.406 540.185 609.533C546.084 606.805 552.079 604.573 558.171 602.142C566.322 599.148 574.636 596.647 583.072 594.652C596.4 591.525 610.015 589.862 623.687 589.692C619.577 591.279 615.515 593.015 611.454 594.652C606.329 596.983 601.252 599.612 596.272 602.142C591.292 604.672 587.569 607.103 583.362 609.533C553.341 627.609 527.962 652.778 509.337 682.947H526.356C548.66 650.879 578.975 625.57 614.113 609.682C620.012 606.954 626.008 604.722 632.1 602.291C640.217 599.297 648.5 596.796 656.904 594.801C670.912 591.531 685.231 589.867 699.598 589.84H1032.49C1010.83 611.815 993.813 641.925 984.143 683.096H999.083C1009.48 639.941 1029.4 610.228 1054.01 589.84C1057.2 587.211 1060.44 584.88 1063.68 582.4C1066.92 579.92 1071.32 577.439 1075.28 574.959C1126.58 545.197 1189.78 545.197 1230.25 545.197H1547.96C1535.21 550.331 1522.96 556.675 1511.36 564.146H1333.19H1325.93C1266.56 565.088 1167.3 575.505 1137.08 683.195H1152.4C1181.41 589.493 1268.78 580.118 1325.79 579.027H1333.04H1491.39L1489.31 580.763C1486.46 583.194 1483.66 585.723 1480.95 588.204C1453.58 613.898 1433.85 646.588 1428.78 683.096H1443.28C1449.04 645.546 1472 612.51 1502.8 588.204C1506.04 585.624 1509.43 583.243 1512.86 580.763L1515.42 579.027C1518.37 577.043 1521.32 575.158 1524.32 573.322C1525.33 572.727 1526.35 572.132 1527.41 571.586C1532.01 568.908 1536.74 566.626 1541.53 564.146C1564.37 552.99 1589.13 546.584 1614.4 545.296C1601.81 550.439 1589.7 556.748 1578.23 564.146C1574.52 566.494 1570.9 568.974 1567.35 571.586C1566.53 572.132 1565.76 572.727 1564.98 573.322C1562.52 575.158 1560.15 577.043 1557.68 579.027L1555.6 580.763C1552.75 583.194 1549.94 585.723 1547.24 588.204C1519.87 613.898 1500.14 646.588 1495.11 683.096H1509.62C1515.37 645.546 1538.34 612.51 1569.14 588.204C1572.36 585.624 1575.7 583.144 1579.15 580.763L1581.76 579.027H1927.9V564.146H1607.82C1632.44 552.051 1659.33 545.586 1686.63 545.197H1927.9V530.316H1749.01C1806.88 505.514 1855.67 452.685 1855.67 389.639ZM1204.57 26.041C1205.46 30.539 1205.25 35.1932 1203.96 39.5873C1202.67 43.9814 1200.34 47.9786 1197.17 51.2216C1194 54.4645 1190.1 56.8522 1185.82 58.1711C1181.53 59.49 1177 59.6991 1172.61 58.7797L1204.57 26.041ZM1104.83 107.292C1103.91 102.79 1104.1 98.1255 1105.39 93.7191C1106.67 89.3127 1109 85.3036 1112.17 82.0543C1115.35 78.8049 1119.26 76.4176 1123.56 75.108C1127.85 73.7985 1132.4 73.6079 1136.79 74.5537L1104.83 107.292ZM1309.11 374.311L1318.01 383.339C1319.99 385.888 1320.96 389.108 1320.74 392.361C1320.52 395.614 1319.11 398.661 1316.8 400.899C1314.63 403.182 1311.7 404.542 1308.6 404.708C1305.5 404.873 1302.45 403.832 1300.07 401.792L1291.32 392.764C1299.04 388.756 1305.29 382.28 1309.11 374.311ZM1292.62 220.935C1297.26 229.562 1299.69 239.257 1299.68 249.11C1299.67 252.186 1299.41 255.255 1298.91 258.287C1294.56 253.288 1291.66 247.137 1290.55 240.534C1289.44 233.931 1290.16 227.141 1292.62 220.935ZM1242.53 190.478C1250.8 190.458 1258.98 192.284 1266.49 195.83C1274.01 199.376 1280.68 204.558 1286.05 211.014C1264.45 211.736 1243.16 205.566 1225.12 193.355C1230.68 191.492 1236.49 190.522 1242.34 190.478H1242.53ZM1185.43 247.87V247.573C1185.69 237.659 1188.4 227.976 1193.3 219.43C1198.21 210.884 1205.15 203.756 1213.47 198.713C1232.66 214.006 1256.23 222.375 1280.53 222.523C1277.83 233.386 1276.86 252.781 1295.47 271.184C1291.57 281.014 1285.14 289.575 1276.88 295.96C1268.61 302.344 1258.81 306.313 1248.53 307.445C1246.54 307.445 1244.56 307.792 1242.53 307.792C1240.57 307.801 1238.62 307.685 1236.68 307.445C1222.58 305.934 1209.53 299.112 1200.06 288.3C1190.58 277.487 1185.35 263.453 1185.38 248.912C1185.35 248.562 1185.31 248.213 1185.23 247.87H1185.43ZM1194.52 117.808C1190.78 118.601 1186.92 118.571 1183.19 117.72C1179.47 116.869 1175.96 115.217 1172.9 112.873C1169.85 110.529 1167.31 107.546 1165.46 104.122C1163.61 100.697 1162.49 96.9084 1162.17 93.0064C1161.99 91.3582 1161.99 89.6942 1162.17 88.046C1162.25 87.0641 1162.38 86.0872 1162.56 85.1194L1194.52 117.808ZM1115.08 15.4753C1119.46 14.566 1124 14.7841 1128.28 16.11C1132.57 17.4359 1136.47 19.8286 1139.63 23.0747C1142.79 26.3207 1145.13 30.3193 1146.42 34.7142C1147.71 39.1092 1147.92 43.764 1147.04 48.2636L1115.08 15.4753ZM1146.31 75.2482C1144.6 73.4777 1143.47 71.2076 1143.07 68.7501C1142.92 68.0668 1142.84 67.3681 1142.83 66.6667C1142.83 66.1706 1142.83 65.6747 1142.83 65.1786C1143 63.792 1143.41 62.4476 1144.04 61.2102C1144.58 60.0567 1145.3 59.0013 1146.17 58.0853C1147.89 56.317 1150.1 55.1386 1152.5 54.7121C1153.19 54.6611 1153.89 54.6611 1154.58 54.7121H1156.03C1157.38 54.8808 1158.68 55.2835 1159.9 55.9027C1161.54 56.7313 1162.97 57.9512 1164.07 59.4612C1165.16 60.9711 1165.89 62.7274 1166.18 64.5834C1166.34 65.2833 1166.42 65.9985 1166.43 66.7163C1166.43 67.2124 1166.43 67.7083 1166.43 68.2044C1166.25 69.5659 1165.85 70.889 1165.26 72.1231C1164.71 73.2937 1163.97 74.3654 1163.09 75.2977L1161.98 76.2899C1160.45 77.5071 1158.66 78.3244 1156.76 78.6709C1155.59 78.9025 1154.39 78.9025 1153.23 78.6709C1151.88 78.5022 1150.57 78.0995 1149.36 77.4803C1148.69 77.1256 1148.06 76.7105 1147.47 76.2402C1147.09 75.893 1146.65 75.5955 1146.31 75.2482ZM1144.81 183.534C1144.71 182.013 1144.93 180.489 1145.45 179.062C1145.97 177.635 1146.78 176.339 1147.83 175.259C1148.88 174.179 1150.14 173.341 1151.53 172.801C1152.92 172.26 1154.4 172.03 1155.88 172.125H1156.22C1159.16 171.809 1162.1 172.662 1164.44 174.509C1166.78 176.355 1168.34 179.053 1168.79 182.046C1169.13 187.998 1169.04 195.24 1168.79 202.879V204.715C1160.79 202.094 1152.14 202.41 1144.33 205.608C1144.62 196.381 1144.72 188.891 1144.81 183.534ZM1144.33 222.126C1147.89 219.563 1152.07 218.036 1156.41 217.704C1160.75 217.372 1165.09 218.249 1168.99 220.241C1168.99 220.737 1168.99 221.283 1168.99 221.779C1168.99 223.167 1168.99 224.556 1168.99 225.945C1168.99 228.822 1168.99 231.848 1169.37 234.924C1169.37 235.866 1169.37 236.759 1169.37 237.701C1169.62 241.075 1169.95 244.547 1170.39 248.019C1170.37 248.382 1170.37 248.747 1170.39 249.11C1170.4 268.608 1177.95 287.304 1191.39 301.095C1204.82 314.887 1223.04 322.647 1242.05 322.673C1244.17 322.673 1246.4 322.673 1248.62 322.326H1249.15C1252.1 322.326 1254.81 322.326 1257.42 322.326H1257.81L1289.82 355.015L1297.79 363.2C1296.51 367.475 1294.24 371.366 1291.16 374.537C1288.09 377.709 1284.31 380.066 1280.15 381.404L1253.55 354.122V380.809L1251.33 381.702L1247.41 383.24L1242.87 384.877L1239.44 386.017L1234.6 387.456L1231.12 388.498L1226.28 389.738L1223 390.531C1221.4 390.928 1219.76 391.275 1218.16 391.573L1215.21 392.168L1210.04 392.962L1207.57 393.359L1201.14 393.954H1200.13C1197.61 394.153 1195.15 394.252 1192.73 394.252H1191.23C1189.34 394.252 1187.46 394.252 1185.62 394.252H1183.15L1178.66 393.805L1176 393.408L1171.89 392.764L1169.13 392.168L1165.26 391.276L1162.51 390.482L1158.83 389.341L1156.08 388.349L1152.55 386.91C1151.68 386.563 1150.76 386.166 1149.89 385.72C1149.02 385.273 1147.62 384.678 1146.46 384.083L1143.89 382.744L1142.49 381.9C1143.31 329.271 1143.89 265.132 1144.33 222.324V222.126ZM1142.01 471.832V471.584C1142.01 470.444 1142.01 469.451 1142.01 468.459V462.755C1142.01 462.457 1142.01 462.16 1142.01 461.912V459.729C1142.03 459.382 1142.03 459.034 1142.01 458.687V457.993C1142.01 457.646 1142.01 457.249 1142.01 456.902V456.604C1142.01 456.158 1142.01 455.761 1142.01 455.413C1142.01 455.017 1142.01 454.719 1142.01 454.372C1142.01 441.326 1142.01 421.534 1142.44 398.418L1144.14 399.212L1146.75 400.353L1151 402.04L1153.52 402.982L1158.35 404.619L1160.19 405.165C1162.51 405.809 1165.02 406.405 1167.2 406.901L1169.13 407.248C1170.87 407.546 1172.66 407.893 1174.45 408.141L1177.11 408.438L1181.95 408.935H1184.75C1186.39 408.935 1188.09 408.935 1189.59 408.935H1192.29H1198.14H1200.08C1202.69 408.935 1205.3 408.538 1207.96 408.24L1209.89 407.943C1211.92 407.695 1214 407.397 1216.08 407L1218.98 406.504L1224.4 405.363L1227.49 404.619C1229.33 404.173 1231.17 403.726 1233 403.18L1236.05 402.387L1242.38 400.403L1244.66 399.659C1247.46 398.716 1250.27 397.724 1253.12 396.583V442.517L1253.89 444.104C1255.97 448.32 1258.2 452.735 1260.42 457.15C1260.55 457.371 1260.66 457.603 1260.76 457.844C1253.98 465.727 1244.85 471.096 1234.79 473.122C1234.64 472.834 1234.52 472.536 1234.41 472.229C1234.02 471.436 1233.68 470.642 1233.34 469.898L1232.67 468.41C1232.33 467.715 1232.04 466.971 1231.7 466.277L1231.41 465.632C1230.73 464.144 1230.15 462.755 1229.52 461.416C1229.52 460.92 1229.09 460.374 1228.85 459.878L1228.27 458.539L1225.61 452.437L1223.72 448.023H1174.26V455.314C1174.26 456.158 1174.26 457.15 1174.26 458.241V458.985C1174.26 462.556 1174.26 467.12 1174.26 472.031C1169.17 474.153 1163.72 475.223 1158.23 475.181C1152.74 475.138 1147.31 473.984 1142.25 471.783L1142.01 471.832ZM1156.51 522.677C1147.86 522.677 1142.59 515.534 1142.39 503.43C1142.39 497.478 1142.39 492.17 1142.39 487.507C1152.78 490.878 1163.92 490.878 1174.31 487.507C1174.31 494.601 1174.31 500.801 1174.31 503.827C1174.38 506.276 1173.97 508.715 1173.1 510.999C1172.24 513.283 1170.94 515.366 1169.27 517.124C1167.61 518.882 1165.62 520.279 1163.42 521.233C1161.22 522.187 1158.85 522.678 1156.47 522.677H1156.51ZM1230.64 530.167C1215.16 530.167 1195.48 530.167 1173.97 532.052C1178.42 529.017 1182.07 524.904 1184.6 520.076C1187.13 515.248 1188.46 509.854 1188.47 504.373C1188.47 500.355 1188.47 490.831 1188.47 480.96V474.759C1188.47 470.543 1188.47 466.426 1188.47 462.953H1215.26C1215.79 464.243 1216.42 465.632 1217.05 467.12C1217.77 468.707 1218.5 470.444 1219.32 472.081L1221.79 477.586V477.835L1224.59 483.985L1225.27 485.424L1226.38 487.805C1231.6 499.015 1237.02 510.077 1240.89 516.526C1244.02 522.002 1248.42 526.602 1253.7 529.919L1230.64 530.167ZM1274.88 518.262C1268.88 521.337 1259.55 519.8 1253.22 509.085C1250.31 504.125 1246.25 495.94 1241.95 486.912C1251.95 484.296 1261.11 479.027 1268.49 471.634C1272.56 479.819 1276.52 488.053 1279.66 495.99C1284.45 508.093 1280.05 515.534 1274.83 518.262H1274.88ZM1651.29 342.415C1653.77 342.41 1656.23 342.881 1658.54 343.804L1666.23 346.88L1668.21 338.646C1670.08 330.799 1674.47 323.825 1680.67 318.842C1686.87 313.859 1694.52 311.155 1702.39 311.165C1709.08 311.188 1715.62 313.147 1721.26 316.815C1726.91 320.483 1731.43 325.712 1734.31 331.899L1737.5 338.794L1744.12 335.322C1747.59 333.497 1751.44 332.545 1755.34 332.544C1761.5 332.55 1767.44 334.903 1772 339.146C1776.57 343.39 1779.44 349.222 1780.05 355.511H1632.58C1634.04 351.653 1636.6 348.338 1639.93 346.001C1643.26 343.664 1647.2 342.414 1651.24 342.415H1651.29ZM1518.9 298.367C1516.09 298.367 1513.4 297.223 1511.42 295.185C1509.43 293.148 1508.31 290.385 1508.31 287.504V276.393C1508.31 273.507 1509.43 270.739 1511.41 268.694C1513.4 266.648 1516.09 265.493 1518.9 265.48H1538.92L1530.46 253.674C1529.11 251.826 1528.38 249.582 1528.38 247.275V236.164C1528.38 233.283 1529.5 230.519 1531.48 228.482C1533.47 226.445 1536.16 225.3 1538.97 225.3H1561.65L1552.8 213.346C1551.29 211.359 1550.46 208.92 1550.43 206.401C1550.84 202.576 1552.69 199.065 1555.57 196.604C1558.46 194.144 1562.16 192.926 1565.9 193.207H1576.68C1580.42 192.926 1584.13 194.144 1587.01 196.604C1589.9 199.065 1591.74 202.576 1592.15 206.401C1592.13 208.92 1591.29 211.359 1589.79 213.346L1580.94 225.3H1603.61C1606.42 225.3 1609.12 226.445 1611.1 228.482C1613.09 230.519 1614.2 233.283 1614.2 236.164V247.126C1614.2 249.433 1613.47 251.677 1612.12 253.525L1603.71 265.331H1623.68C1626.49 265.344 1629.19 266.5 1631.17 268.545C1633.15 270.59 1634.27 273.358 1634.27 276.244V287.355C1634.27 290.236 1633.15 292.999 1631.17 295.037C1629.18 297.074 1626.49 298.218 1623.68 298.218H1579.2V355.362H1563.39V298.367H1518.9ZM1455.66 527.191C1450.12 525.973 1444.84 523.72 1440.09 520.544C1442.46 517.039 1445.71 514.263 1449.5 512.514C1453.28 510.766 1457.47 510.111 1461.59 510.622C1465.72 511.132 1469.63 512.788 1472.9 515.411C1476.18 518.033 1478.69 521.523 1480.17 525.504C1472.29 528.329 1463.8 528.911 1455.61 527.191H1455.66ZM1493.08 518.708C1490.5 512.587 1486.4 507.264 1481.2 503.267C1475.99 499.27 1469.86 496.738 1463.4 495.921C1456.95 495.104 1450.4 496.031 1444.4 498.61C1438.41 501.188 1433.17 505.329 1429.21 510.623C1428.16 509.287 1427.18 507.896 1426.26 506.456C1424.74 504.078 1423.44 501.553 1422.39 498.916C1426.83 496.289 1430.69 492.755 1433.73 488.532C1436.78 484.31 1438.94 479.49 1440.09 474.372C1441.25 469.255 1441.36 463.949 1440.43 458.784C1439.5 453.62 1437.54 448.707 1434.68 444.352C1436.32 442.855 1438.07 441.479 1439.9 440.235C1444.5 437.186 1449.59 435.002 1454.94 433.786C1452.7 438.764 1451.55 444.179 1451.55 449.659C1451.49 456.861 1453.41 463.934 1457.09 470.069C1460.77 476.203 1466.06 481.15 1472.35 484.344C1478.64 487.538 1485.68 488.85 1492.67 488.128C1499.65 487.407 1506.3 484.682 1511.84 480.265C1511.89 487.769 1510.21 495.178 1506.94 501.891C1503.67 508.605 1498.91 514.434 1493.04 518.907L1493.08 518.708ZM1418.82 483.241C1418.57 478.969 1418.88 474.682 1419.74 470.493C1420.64 465.7 1422.28 461.081 1424.57 456.802C1426.39 461.295 1426.8 466.26 1425.73 471.001C1424.67 475.742 1422.18 480.022 1418.62 483.241H1418.82ZM1508.36 462.16C1506.64 464.923 1504.38 467.287 1501.71 469.098C1499.05 470.908 1496.05 472.126 1492.9 472.672C1489.74 473.219 1486.52 473.082 1483.42 472.27C1480.32 471.458 1477.43 469.989 1474.92 467.958C1472.41 465.928 1470.34 463.38 1468.85 460.48C1467.36 457.58 1466.48 454.391 1466.27 451.12C1466.05 447.849 1466.51 444.568 1467.6 441.488C1468.7 438.409 1470.41 435.599 1472.63 433.24C1473.41 433.24 1474.18 433.241 1474.95 433.637C1480.95 434.909 1486.63 437.394 1491.68 440.945C1496.73 444.497 1501.03 449.044 1504.35 454.322C1505.89 456.813 1507.21 459.436 1508.31 462.16H1508.36ZM1620.63 530.167H1502.37C1511.81 522.755 1518.94 512.678 1522.89 501.17C1526.84 489.662 1527.42 477.223 1524.58 465.378C1521.74 453.532 1515.59 442.794 1506.89 434.481C1498.19 426.167 1487.31 420.638 1475.59 418.572C1463.87 416.505 1451.82 417.991 1440.91 422.847C1430 427.703 1420.71 435.719 1414.18 445.911C1407.64 456.103 1404.15 468.03 1404.12 480.229C1404.1 492.428 1407.54 504.37 1414.03 514.591C1417.88 520.57 1422.68 525.836 1428.25 530.167H1343.63C1364.62 390.928 1474.18 373.021 1548.83 370.74H1556.09C1564.35 370.74 1572.09 370.74 1579.2 370.74H1780.97V389.986C1780.97 468.757 1694.8 530.167 1620.59 530.167H1620.63ZM1690.07 529.82C1747.12 505.067 1795.47 452.388 1795.47 389.639V370.591H1841.02V389.639C1841.16 465.384 1761.96 524.909 1690.02 529.869L1690.07 529.82Z" fill="#D9E2E7"/>
</g>
<defs>
<clipPath id="clip0_967_3314">
<rect width="1938" height="689" fill="white" transform="translate(-10)"/>
</clipPath>
</defs>
</svg>
