<svg id="family" width="93" height="51" viewBox="0 0 93 51" fill="" xmlns="http://www.w3.org/2000/svg">
<path fill-rule="evenodd" clip-rule="evenodd" d="M40.7836 20.4758C40.5892 20.288 40.2677 20.1247 39.7571 19.9909V33.7453L41.6169 35.2319L39.7571 33.8052V45.6277C39.7571 47.0451 38.6081 48.1941 37.1908 48.1941C36.3689 48.1941 35.6373 47.8077 35.1676 47.2067C34.8273 46.7713 34.6245 46.2232 34.6245 45.6277V31.5129H33.5977V45.6277C33.5977 46.2232 33.3949 46.7713 33.0546 47.2067C32.5849 47.8077 31.8533 48.1941 31.0314 48.1941C29.614 48.1941 28.465 47.0451 28.465 45.6277V25.1425L27.4374 24.3541V31.5129C27.4374 32.1895 27.1101 32.7897 26.6052 33.1637C26.264 33.4165 25.8416 33.566 25.3843 33.566C24.2504 33.566 23.3312 32.6468 23.3312 31.5129V21.2041L21.5051 19.8032L21.4714 19.7774C21.4711 19.8034 21.4709 19.8295 21.4709 19.8556C21.4709 19.8816 21.4711 19.9076 21.4714 19.9335V31.5129C21.4714 33.674 23.2233 35.4258 25.3843 35.4258C25.8106 35.4258 26.2211 35.3576 26.6052 35.2316V45.6277C26.6052 48.0722 28.5869 50.0539 31.0314 50.0539C32.2284 50.0539 33.3144 49.5787 34.1111 48.8067C34.9078 49.5787 35.9938 50.0539 37.1908 50.0539C39.6353 50.0539 41.6169 48.0722 41.6169 45.6277V35.2319C42.0008 35.3578 42.4108 35.4258 42.8367 35.4258C44.9977 35.4258 46.7496 33.674 46.7496 31.5129V19.7078C46.7496 19.4987 46.733 19.2922 46.7008 19.0898C46.3901 16.5679 44.6176 14.5727 42.4096 13.2682C40.845 12.3438 38.9556 11.693 36.8976 11.3824C38.7882 10.3816 40.0764 8.3943 40.0764 6.10615C40.0764 2.81124 37.4054 0.140198 34.1104 0.140198C30.8155 0.140198 28.1445 2.81124 28.1445 6.10615C28.1445 8.39411 29.4324 10.3813 31.3229 11.3821C29.2525 11.6945 27.3526 12.351 25.7822 13.2841C23.5674 14.6002 21.7945 16.6153 21.5098 19.1591L23.3312 20.6151V19.9208C23.3309 19.8992 23.3308 19.8775 23.3308 19.8556C23.3308 19.8337 23.3309 19.8118 23.3312 19.79V19.7078C23.3312 19.6012 23.3394 19.4965 23.355 19.3943C23.7298 15.8427 28.4015 13.0353 34.1094 13.0353C39.7948 13.0353 44.452 15.8206 44.8591 19.3523C44.8793 19.4678 44.8898 19.5865 44.8898 19.7078V31.5129C44.8898 32.6468 43.9706 33.566 42.8367 33.566C42.3799 33.566 41.958 33.4168 41.6169 33.1645C41.1114 32.7906 40.7836 32.19 40.7836 31.5129V22.76H40.7819L40.7821 22.7295C40.7822 22.721 40.7824 22.7124 40.7826 22.7039C40.7829 22.6941 40.7832 22.6843 40.7836 22.6746V20.4758ZM27.4374 23.8974L28.465 24.7188V20.0053C27.9447 20.1475 27.6252 20.3218 27.4374 20.5226V23.8974ZM34.1104 10.2123C36.3782 10.2123 38.2166 8.37391 38.2166 6.10615C38.2166 3.83839 36.3782 2 34.1104 2C31.8427 2 30.0043 3.83839 30.0043 6.10615C30.0043 8.37391 31.8427 10.2123 34.1104 10.2123Z" />
<path d="M41.6169 35.2319L39.7571 33.7453V33.8052L41.6169 35.2319Z" />
<path d="M27.4374 24.3541L28.465 25.1425V24.7188L27.4374 23.8974V24.3541Z" />
<path d="M21.5051 19.8032L23.3312 21.2041V20.6151L21.5098 19.1591L21.5051 19.8032Z" />
<path fill-rule="evenodd" clip-rule="evenodd" d="M79.8671 27.9694C79.4983 27.9703 79.1968 28.2582 79.1744 28.6217V36.1447C79.1744 36.8356 78.6708 37.4089 78.0107 37.5177C77.9366 37.5299 77.8604 37.5362 77.7828 37.5362C77.0143 37.5362 76.3913 36.9132 76.3913 36.1447V28.2977C76.391 28.2798 76.3908 28.2617 76.3908 28.2434C76.3908 28.2252 76.391 28.2069 76.3913 28.1887V28.1434C76.3913 28.0726 76.3966 28.003 76.4068 27.935C76.6481 25.6172 79.5892 23.7661 83.2589 23.6289C83.4036 23.6235 83.5495 23.6208 83.6963 23.6208C83.6968 23.6208 83.6973 23.6208 83.6978 23.6208C83.8449 23.6208 83.9909 23.6236 84.1358 23.629C87.7795 23.7658 90.7045 25.5925 90.9805 27.8877C90.9959 27.9706 91.004 28.0561 91.004 28.1434V36.1447C91.004 36.9132 90.381 37.5362 89.6125 37.5362C89.5344 37.5362 89.4579 37.5298 89.3834 37.5175C88.7239 37.4082 88.2209 36.8352 88.2209 36.1447L88.2209 30.212H88.2188C88.2188 30.212 88.2188 30.2121 88.2188 30.212C88.2188 30.2006 88.2189 30.189 88.2192 30.1776C88.2196 30.1631 88.2201 30.1486 88.2209 30.1341V28.6647L88.218 28.6619C88.2175 28.5511 88.1911 28.4464 88.1445 28.3536C88.0305 28.1263 87.7955 27.9701 87.5239 27.9694V33.8835C87.5239 33.8962 87.5238 33.9089 87.5236 33.9215V45.7114C87.5236 46.672 86.7448 47.4508 85.7842 47.4508C85.4559 47.4508 85.1489 47.3598 84.887 47.2018C84.3823 46.8973 84.0448 46.3438 84.0448 45.7114V36.1447H83.3493V45.7114C83.3493 46.3438 83.0118 46.8973 82.5071 47.2018C82.2451 47.3598 81.9381 47.4508 81.6099 47.4508C80.6493 47.4508 79.8705 46.672 79.8705 45.7114V27.9694L79.8688 27.9694C79.8682 27.9694 79.8677 27.9694 79.8671 27.9694ZM78.0107 39.3882C77.9354 39.3934 77.8594 39.396 77.7828 39.396C75.9872 39.396 74.5315 37.9404 74.5315 36.1447V28.3129C74.5312 28.2897 74.531 28.2666 74.531 28.2434C74.531 28.2202 74.5312 28.1969 74.5315 28.1737V28.1434C74.5315 27.9955 74.5415 27.8489 74.5611 27.7045C74.7819 25.7306 76.148 24.2248 77.7434 23.276C78.4651 22.8468 79.2775 22.501 80.1514 22.2488C79.1363 21.3004 78.5018 19.9499 78.5018 18.4512C78.5018 15.5815 80.8281 13.2551 83.6978 13.2551C86.5675 13.2551 88.8939 15.5815 88.8939 18.4512C88.8939 19.9503 88.2591 21.3011 87.2436 22.2494C88.1036 22.4979 88.9039 22.8368 89.6168 23.2567C91.2026 24.1908 92.5654 25.6695 92.8203 27.6123C92.849 27.7862 92.8638 27.9638 92.8638 28.1434V36.1447C92.8638 37.9404 91.4081 39.396 89.6125 39.396C89.5354 39.396 89.4591 39.3933 89.3834 39.3881V45.7114C89.3834 47.6992 87.772 49.3106 85.7842 49.3106C85.0061 49.3106 84.2857 49.0637 83.697 48.644C83.1084 49.0637 82.388 49.3106 81.6099 49.3106C79.6221 49.3106 78.0107 47.6992 78.0107 45.7114V39.3882ZM84.0755 21.7663C85.7402 21.5787 87.0341 20.1661 87.0341 18.4512C87.0341 16.6086 85.5404 15.1149 83.6978 15.1149C81.8553 15.1149 80.3616 16.6086 80.3616 18.4512C80.3616 20.1659 81.6551 21.5784 83.3196 21.7662C83.4433 21.7802 83.569 21.7874 83.6963 21.7874C83.6968 21.7874 83.6973 21.7874 83.6978 21.7874C83.8255 21.7874 83.9515 21.7802 84.0755 21.7663Z" />
<path fill-rule="evenodd" clip-rule="evenodd" d="M58.5187 12.0261C57.9284 12.1874 57.3632 12.404 56.831 12.6702C53.5386 14.2699 51.4968 17.4251 50.6338 19.4036L47.1589 25.4224C46.0784 27.2939 46.7196 29.6869 48.5911 30.7675C49.3026 31.1782 50.0894 31.3401 50.8508 31.2803L50.4544 32.7051C49.8132 35.01 51.2316 37.2944 53.4191 37.8596V45.6277C53.4191 48.0722 55.4007 50.0539 57.8452 50.0539C59.0422 50.0539 60.1282 49.5787 60.9249 48.8068C61.7217 49.5787 62.8077 50.0539 64.0047 50.0539C66.4491 50.0539 68.4308 48.0722 68.4308 45.6277V37.8605C70.6204 37.297 72.0409 35.0114 71.3993 32.7051L71.0037 31.2832C71.7538 31.3351 72.5268 31.1718 73.2269 30.7676C75.0984 29.6871 75.7396 27.294 74.6591 25.4225L71.339 19.672C70.6544 17.8457 68.9826 14.9638 66.1953 13.2002C65.3661 12.6523 64.4287 12.2373 63.4223 11.9821C65.1786 11.0765 66.3795 9.2448 66.3795 7.13264C66.3795 4.12121 63.9382 1.67996 60.9268 1.67996C57.9154 1.67996 55.4741 4.12121 55.4741 7.13264C55.4741 9.27963 56.715 11.1368 58.5187 12.0261ZM65.1851 14.7619C64.0906 14.0345 62.7339 13.5892 61.2594 13.5512C61.192 13.5495 61.1241 13.5486 61.0559 13.5486H61.0541C59.8153 13.5486 58.6539 13.836 57.6536 14.3383C54.8512 15.6955 53.0387 18.4925 52.2991 20.2389L48.7695 26.3523C48.2026 27.3342 48.5391 28.5899 49.521 29.1568C50.1248 29.5054 50.832 29.5125 51.4189 29.238C51.7867 29.066 52.1072 28.7836 52.3256 28.4053L54.7485 24.2087L52.2462 33.2036C51.8367 34.6755 52.9435 36.1323 54.4714 36.1323H55.2789V45.6277C55.2789 47.0451 56.4279 48.1941 57.8452 48.1941C58.6671 48.1941 59.3988 47.8077 59.8685 47.2067C60.2088 46.7713 60.4116 46.2232 60.4116 45.6277V36.1323H61.4383V45.6277C61.4383 46.2232 61.6411 46.7713 61.9814 47.2067C62.4511 47.8077 63.1828 48.1941 64.0047 48.1941C65.422 48.1941 66.571 47.0451 66.571 45.6277V36.1323H67.3824C68.9102 36.1323 70.017 34.6755 69.6076 33.2036L67.1385 24.3284L69.4925 28.4055C69.7189 28.7977 70.0552 29.0869 70.44 29.2567C71.0187 29.5121 71.7072 29.4975 72.297 29.157C73.279 28.5901 73.6154 27.3344 73.0485 26.3524L69.6476 20.4619C69.0931 18.8968 67.6082 16.2878 65.1851 14.7619ZM64.5197 7.13264C64.5197 9.11694 62.9111 10.7255 60.9268 10.7255C58.9425 10.7255 57.3339 9.11694 57.3339 7.13264C57.3339 5.14835 58.9425 3.53977 60.9268 3.53977C62.9111 3.53977 64.5197 5.14835 64.5197 7.13264Z" />
<path fill-rule="evenodd" clip-rule="evenodd" d="M7.26592 25.1045C8.22945 24.5618 9.48987 24.1414 11.031 24.1414C14.2206 24.1414 16.0993 25.942 16.6832 26.9014C16.812 27.022 16.9255 27.1634 17.0183 27.3242L19.6944 31.9593C20.2013 32.8373 19.9005 33.9599 19.0226 34.4667C18.7003 34.6528 18.345 34.7301 17.9993 34.7098C17.4033 34.675 16.8359 34.3505 16.5152 33.7949L15.1626 31.4521L16.8215 37.4152C17.0968 38.405 16.3526 39.3846 15.3252 39.3846H14.7806V45.7695C14.7806 46.7225 14.008 47.4951 13.055 47.4951C12.7343 47.4951 12.4341 47.4077 12.1769 47.2553C11.6695 46.9548 11.3293 46.4019 11.3293 45.7695V39.3846H10.6385V45.7695C10.6385 46.4019 10.2983 46.9548 9.79092 47.2553C9.53369 47.4077 9.23349 47.4951 8.91287 47.4951C7.95982 47.4951 7.18722 46.7225 7.18722 45.7695V39.3846H6.64369C5.61636 39.3846 4.87209 38.405 5.14744 37.4152L6.83109 31.3632L5.42783 33.7937C5.11178 34.3411 4.55651 34.6643 3.9703 34.7075C3.61572 34.7336 3.24983 34.6572 2.91871 34.466C2.04018 33.9588 1.73918 32.8354 2.2464 31.9569L4.88625 27.3845C4.96699 27.2447 5.06335 27.1195 5.17184 27.0098C5.18111 27.0005 5.19047 26.9912 5.19991 26.9821C5.20607 26.9761 5.21227 26.9702 5.2185 26.9643H5.17184C5.17799 26.9546 5.18429 26.9448 5.19074 26.9348C5.1997 26.921 5.20896 26.907 5.2185 26.8929C5.55226 26.3974 6.2412 25.6818 7.26592 25.1045ZM3.56575 26.0245L3.59947 25.9711C4.23417 24.9663 5.74113 23.491 8.03192 22.747C6.73893 21.8241 5.89595 20.3113 5.89595 18.6015C5.89595 15.7905 8.17476 13.5117 10.9858 13.5117C13.7969 13.5117 16.0757 15.7905 16.0757 18.6015C16.0757 20.3019 15.2419 21.8075 13.9609 22.7318C16.0535 23.4094 17.4556 24.7197 18.1422 25.7329C18.3258 25.9317 18.4896 26.1528 18.629 26.3943L21.3051 31.0294C22.3255 32.7969 21.7199 35.0569 19.9525 36.0774C19.4951 36.3414 19.0048 36.4966 18.5115 36.551L18.6132 36.9168C19.0923 38.6387 18.1669 40.3466 16.6404 40.9834V45.7695C16.6404 47.7496 15.0351 49.3549 13.055 49.3549C12.2834 49.3549 11.5688 49.1112 10.9839 48.6966C10.399 49.1112 9.68439 49.3549 8.91287 49.3549C6.93268 49.3549 5.32742 47.7496 5.32742 45.7695V40.983C3.80153 40.3458 2.87676 38.6383 3.35567 36.9168L3.45682 36.5532C2.95441 36.5016 2.45452 36.3455 1.98881 36.0767C0.220756 35.0559 -0.385029 32.7951 0.63576 31.027L1.90759 28.8241H1.79725L3.08001 26.7934L3.27562 26.4546C3.36311 26.3031 3.46018 26.1595 3.56575 26.0245ZM14.2159 18.6015C14.2159 20.3854 12.7697 21.8316 10.9858 21.8316C9.2019 21.8316 7.75575 20.3854 7.75575 18.6015C7.75575 16.8176 9.2019 15.3715 10.9858 15.3715C12.7697 15.3715 14.2159 16.8176 14.2159 18.6015Z" />
</svg>
