<svg id="footer-bg" width="1920" height="398" viewBox="0 0 1920 398" fill="none" xmlns="http://www.w3.org/2000/svg">
<g clip-path="url(#clip0_967_1479)">
<rect width="1928" height="398" fill="white"/>
<g clip-path="url(#clip1_967_1479)">
<path d="M1034.19 408.479C1040.88 396.299 1044.28 382.588 1044.06 368.695C1043.83 354.802 1039.99 341.208 1032.91 329.25C1025.83 317.292 1015.76 307.384 1003.68 300.502C991.601 293.619 977.938 290 964.035 290C950.132 290 936.469 293.619 924.391 300.502C912.313 307.384 902.238 317.292 895.157 329.25C888.077 341.208 884.235 354.802 884.01 368.695C883.786 382.588 887.187 396.299 893.877 408.479H1034.19Z" fill="#F3BD48" stroke="#F3BD48" stroke-width="0.25" stroke-miterlimit="10"/>
<path d="M964.044 372.017C976.009 372.017 985.708 362.324 985.708 350.367C985.708 338.409 976.009 328.716 964.044 328.716C952.08 328.716 942.381 338.409 942.381 350.367C942.381 362.324 952.08 372.017 964.044 372.017Z" fill="#D8D6DF" stroke="#D8D6DF" stroke-width="0.25" stroke-miterlimit="10"/>
<path d="M931.56 370.657H908.76V383.846H931.56V370.657Z" fill="#8ACB78"/>
<path d="M921.246 375.629C917.197 375.602 913.323 373.973 910.472 371.098C907.622 368.223 906.028 364.336 906.039 360.289V342.027H911.622V360.289C911.628 362.858 912.653 365.32 914.472 367.134C916.292 368.949 918.757 369.968 921.327 369.968H938.828V375.548L921.246 375.629Z" fill="#333333"/>
<path d="M911.298 342.291V360.288C911.303 362.922 912.354 365.446 914.219 367.306C916.084 369.166 918.611 370.211 921.246 370.211H938.524V375.283H921.287C917.305 375.283 913.487 373.704 910.67 370.893C907.853 368.081 906.268 364.267 906.262 360.288V342.209H911.338M911.846 341.702H905.755V360.288C905.76 364.402 907.399 368.345 910.311 371.251C913.223 374.158 917.171 375.791 921.287 375.791H939.031V369.703H921.287C918.786 369.703 916.388 368.712 914.618 366.947C912.848 365.182 911.851 362.787 911.846 360.288V341.702Z" fill="#333333"/>
<path d="M931.316 381.066H909.023V386.646H931.316V381.066Z" fill="#333333"/>
<path d="M931.053 381.31V386.383H909.267V381.31H931.053ZM931.56 380.803H908.76V386.89H931.56V380.803Z" fill="#333333"/>
<path d="M934.362 373.092H928.778V399.572H934.362V373.092Z" fill="#333333"/>
<path d="M934.098 373.335V399.328H929.022V373.335H934.098ZM934.606 372.828H928.515V399.835H934.606V372.828Z" fill="#333333"/>
<path d="M911.562 356.494H905.979V399.592H911.562V356.494Z" fill="#333333"/>
<path d="M911.298 356.738V399.348H906.222V356.738H911.298ZM911.806 356.23H905.715V399.835H911.806V356.23Z" fill="#333333"/>
<path d="M1018.96 370.657H996.164V383.846H1018.96V370.657Z" fill="#8ACB78"/>
<path d="M988.957 375.629V370.049H1006.48C1009.05 370.043 1011.51 369.022 1013.32 367.208C1015.14 365.394 1016.16 362.935 1016.16 360.37V342.108H1021.77V360.37C1021.76 364.414 1020.14 368.289 1017.28 371.148C1014.42 374.007 1010.54 375.618 1006.5 375.629H988.957Z" fill="#333333"/>
<path d="M1021.48 342.291V360.288C1021.48 364.265 1019.9 368.079 1017.09 370.891C1014.27 373.704 1010.46 375.283 1006.48 375.283H989.281V370.211H1006.54C1009.17 370.211 1011.7 369.165 1013.56 367.305C1015.42 365.444 1016.47 362.92 1016.47 360.288V342.209H1021.54M1022.05 341.702H1015.96V360.288C1015.96 362.785 1014.97 365.18 1013.2 366.946C1011.43 368.711 1009.04 369.703 1006.54 369.703H988.773V375.791H1006.54C1010.65 375.785 1014.59 374.15 1017.5 371.244C1020.41 368.338 1022.04 364.398 1022.05 360.288V341.702Z" fill="#333333"/>
<path d="M1018.7 381.066H996.408V386.646H1018.7V381.066Z" fill="#333333"/>
<path d="M1018.44 381.31V386.383H996.652V381.31H1018.44ZM1018.95 380.803H996.145V386.89H1018.95V380.803Z" fill="#333333"/>
<path d="M998.947 373.092H993.363V399.572H998.947V373.092Z" fill="#333333"/>
<path d="M998.682 373.335V399.328H993.606V373.335H998.682ZM999.19 372.828H993.099V399.835H999.19V372.828Z" fill="#333333"/>
<path d="M1021.75 356.494H1016.16V399.592H1021.75V356.494Z" fill="#333333"/>
<path d="M1021.48 356.738V399.348H1016.41V356.738H1021.48ZM1021.99 356.23H1015.9V399.835H1021.99V356.23Z" fill="#333333"/>
<path d="M975.496 362.439H952.695V375.628H975.496V362.439Z" fill="#8ACB78"/>
<path d="M991.231 361.283H936.961V366.863H991.231V361.283Z" fill="#333333"/>
<path d="M990.967 361.527V366.599H937.204V361.527H990.967ZM991.475 361.02H936.656V367.107H991.475V361.02Z" fill="#333333"/>
<path d="M975.008 372.625H953.183V378.205H975.008V372.625Z" fill="#333333"/>
<path d="M974.745 372.869V377.942H953.427V372.869H974.745ZM975.252 372.362H952.919V378.449H975.252V372.362Z" fill="#333333"/>
<path d="M978.054 364.327H972.471V399.592H978.054V364.327Z" fill="#333333"/>
<path d="M977.81 364.57V399.328H972.734V364.57H977.81ZM978.317 364.062H972.227V399.835H978.317V364.062Z" fill="#333333"/>
<path d="M955.253 364.327H949.67V399.592H955.253V364.327Z" fill="#333333"/>
<path d="M954.99 364.57V399.328H949.914V364.57H954.99ZM955.497 364.062H949.406V399.835H955.497V364.062Z" fill="#333333"/>
<path d="M970.826 355.338H956.898V361.04H970.826V355.338Z" fill="#3DAE2B" stroke="#3DAE2B" stroke-width="0.25" stroke-miterlimit="10"/>
<path d="M966.725 351.686C966.725 350.103 963.862 346.045 963.862 346.045C963.862 346.045 960.979 350.103 960.979 351.686C961.04 352.406 961.369 353.076 961.901 353.565C962.433 354.054 963.13 354.325 963.852 354.325C964.575 354.325 965.271 354.054 965.803 353.565C966.336 353.076 966.664 352.406 966.725 351.686Z" fill="white"/>
<path d="M965.243 352.538C965.432 352.281 965.546 351.977 965.572 351.659C965.599 351.341 965.537 351.022 965.392 350.738C965.248 350.453 965.028 350.214 964.756 350.047C964.485 349.88 964.172 349.792 963.853 349.792C963.534 349.792 963.221 349.88 962.949 350.047C962.677 350.214 962.457 350.453 962.313 350.738C962.169 351.022 962.107 351.341 962.133 351.659C962.159 351.977 962.273 352.281 962.462 352.538C962.438 352.735 962.456 352.934 962.516 353.123C962.575 353.312 962.673 353.487 962.804 353.635C962.935 353.783 963.097 353.902 963.278 353.983C963.459 354.064 963.655 354.106 963.853 354.106C964.051 354.106 964.247 354.064 964.427 353.983C964.608 353.902 964.77 353.783 964.901 353.635C965.033 353.487 965.131 353.312 965.19 353.123C965.249 352.934 965.267 352.735 965.243 352.538Z" fill="#F3BD48"/>
</g>
<path d="M82.2638 269.984L81.6749 267.955C80.9719 264.855 81.0348 261.63 81.8578 258.56C82.7969 255.078 84.8355 251.993 87.6707 249.763C90.5058 247.533 93.9859 246.277 97.5927 246.183C100.189 246.189 102.746 246.816 105.049 248.013C107.352 249.21 109.334 250.941 110.83 253.061L110.932 253.203H111.095C112.998 252.714 114.988 252.666 116.912 253.065C118.837 253.463 120.645 254.296 122.197 255.501C123.749 256.706 125.005 258.25 125.868 260.014C126.731 261.779 127.178 263.718 127.174 265.682C127.184 266.362 127.129 267.041 127.012 267.711L126.667 270.085L82.2638 269.984ZM97.5927 251.722C95.2605 251.819 93.0169 252.642 91.1751 254.075C89.3334 255.509 87.9853 257.481 87.3192 259.717C86.9882 261.147 86.818 262.611 86.8117 264.079V264.363H121.49V264.059C121.115 262.441 120.207 260.996 118.91 259.958C117.613 258.92 116.004 258.349 114.343 258.337C113.192 258.334 112.058 258.605 111.034 259.128L108.475 260.427L107.257 257.83C106.38 256.028 105.015 254.509 103.318 253.444C101.62 252.378 99.6581 251.81 97.6537 251.803L97.5927 251.722Z" fill="#E8EDF0"/>
<path d="M743.264 269.984L742.675 267.955C741.972 264.855 742.035 261.63 742.858 258.56C743.797 255.078 745.836 251.993 748.671 249.763C751.506 247.533 754.986 246.277 758.593 246.183C761.189 246.189 763.746 246.816 766.049 248.013C768.352 249.21 770.334 250.941 771.83 253.061L771.932 253.203H772.095C773.998 252.714 775.988 252.666 777.912 253.065C779.837 253.463 781.645 254.296 783.197 255.501C784.749 256.706 786.005 258.25 786.868 260.014C787.731 261.779 788.178 263.718 788.174 265.682C788.184 266.362 788.129 267.041 788.012 267.711L787.667 270.085L743.264 269.984ZM758.593 251.722C756.261 251.819 754.017 252.642 752.175 254.075C750.333 255.509 748.985 257.481 748.319 259.717C747.988 261.147 747.818 262.611 747.812 264.079V264.363H782.49V264.059C782.115 262.441 781.207 260.996 779.91 259.958C778.613 258.92 777.004 258.349 775.343 258.337C774.192 258.334 773.058 258.605 772.034 259.128L769.475 260.427L768.257 257.83C767.38 256.028 766.015 254.509 764.318 253.444C762.62 252.378 760.658 251.81 758.654 251.803L758.593 251.722Z" fill="#E8EDF0"/>
<path d="M97.6536 246.487C100.208 246.491 102.724 247.107 104.992 248.283C107.26 249.458 109.213 251.159 110.688 253.244L110.891 253.528H111.216C112.237 253.261 113.288 253.125 114.343 253.122C116.168 253.104 117.975 253.485 119.638 254.239C121.3 254.992 122.778 256.1 123.967 257.484C125.157 258.867 126.029 260.494 126.524 262.25C127.018 264.007 127.122 265.85 126.829 267.65L126.504 269.821H82.5076L81.9797 268.015C81.2903 264.947 81.3597 261.757 82.1824 258.722C83.0985 255.295 85.1012 252.256 87.8902 250.061C90.6793 247.866 94.1048 246.634 97.6536 246.548M86.6292 264.809H121.875L121.733 264.18C121.485 263.053 120.981 261.997 120.26 261.095C119.539 260.192 118.62 259.468 117.575 258.976C116.53 258.484 115.385 258.238 114.23 258.257C113.075 258.277 111.94 258.561 110.912 259.088L108.597 260.264L107.481 257.911C106.596 256.055 105.203 254.487 103.464 253.388C101.725 252.289 99.7109 251.705 97.6536 251.702C95.2729 251.791 92.9794 252.62 91.0938 254.076C89.2082 255.531 87.8249 257.539 87.1368 259.818C86.8067 261.27 86.6365 262.753 86.6292 264.241V264.749M97.6536 246.061C93.9915 246.153 90.4573 247.426 87.5779 249.69C84.6985 251.953 82.6278 255.086 81.6749 258.621C80.8415 261.738 80.7791 265.011 81.4925 268.157L82.1423 270.329H126.951L127.337 267.731C127.44 267.06 127.494 266.382 127.499 265.702C127.499 263.699 127.042 261.722 126.161 259.923C125.28 258.123 123.999 256.549 122.416 255.319C120.834 254.09 118.991 253.239 117.029 252.83C115.067 252.421 113.037 252.465 111.095 252.96C109.571 250.813 107.556 249.062 105.218 247.851C102.88 246.641 100.287 246.006 97.6536 246V246.061ZM87.1368 264.322C87.1438 262.869 87.3071 261.42 87.624 260.001C88.2777 257.823 89.5956 255.903 91.3937 254.51C93.1918 253.117 95.3802 252.319 97.6536 252.229C99.6145 252.232 101.534 252.79 103.191 253.839C104.847 254.887 106.173 256.384 107.014 258.154L108.353 260.975L111.155 259.554C112.141 259.047 113.234 258.783 114.343 258.783C115.95 258.783 117.509 259.333 118.761 260.34C120.013 261.348 120.883 262.753 121.226 264.322H87.1368Z" fill="#E8EDF0"/>
<path d="M758.654 246.487C761.208 246.491 763.724 247.107 765.992 248.283C768.26 249.458 770.213 251.159 771.688 253.244L771.891 253.528H772.216C773.237 253.261 774.288 253.125 775.343 253.122C777.168 253.104 778.975 253.485 780.638 254.239C782.3 254.992 783.778 256.1 784.967 257.484C786.157 258.867 787.029 260.494 787.524 262.25C788.018 264.007 788.122 265.85 787.829 267.65L787.504 269.821H743.508L742.98 268.015C742.29 264.947 742.36 261.757 743.182 258.722C744.098 255.295 746.101 252.256 748.89 250.061C751.679 247.866 755.105 246.634 758.654 246.548M747.629 264.809H782.875L782.733 264.18C782.485 263.053 781.981 261.997 781.26 261.095C780.539 260.192 779.62 259.468 778.575 258.976C777.53 258.484 776.385 258.238 775.23 258.257C774.075 258.277 772.94 258.561 771.912 259.088L769.597 260.264L768.481 257.911C767.596 256.055 766.203 254.487 764.464 253.388C762.725 252.289 760.711 251.705 758.654 251.702C756.273 251.791 753.979 252.62 752.094 254.076C750.208 255.531 748.825 257.539 748.137 259.818C747.807 261.27 747.636 262.753 747.629 264.241V264.749M758.654 246.061C754.991 246.153 751.457 247.426 748.578 249.69C745.699 251.953 743.628 255.086 742.675 258.621C741.841 261.738 741.779 265.011 742.492 268.157L743.142 270.329H787.951L788.337 267.731C788.44 267.06 788.494 266.382 788.499 265.702C788.499 263.699 788.042 261.722 787.161 259.923C786.28 258.123 784.999 256.549 783.416 255.319C781.834 254.09 779.991 253.239 778.029 252.83C776.067 252.421 774.037 252.465 772.095 252.96C770.571 250.813 768.556 249.062 766.218 247.851C763.88 246.641 761.287 246.006 758.654 246V246.061ZM748.137 264.322C748.144 262.869 748.307 261.42 748.624 260.001C749.278 257.823 750.596 255.903 752.394 254.51C754.192 253.117 756.38 252.319 758.654 252.229C760.615 252.232 762.534 252.79 764.191 253.839C765.847 254.887 767.173 256.384 768.014 258.154L769.353 260.975L772.155 259.554C773.141 259.047 774.234 258.783 775.343 258.783C776.95 258.783 778.509 259.333 779.761 260.34C781.013 261.348 781.883 262.753 782.226 264.322H748.137Z" fill="#E8EDF0"/>
<path d="M798.305 295.2V292.4C798.31 288.36 799.918 284.487 802.776 281.631C805.635 278.774 809.51 277.167 813.552 277.161C814.368 277.168 815.183 277.236 815.989 277.364H816.191V277.161C817.826 273.038 820.667 269.504 824.344 267.02C828.02 264.537 832.362 263.22 836.799 263.242C840.511 263.249 844.163 264.18 847.424 265.951C850.685 267.722 853.453 270.278 855.478 273.387L855.6 273.55H855.782C857.464 273.02 859.217 272.754 860.98 272.758C863.489 272.753 865.969 273.29 868.25 274.333C870.532 275.376 872.56 276.901 874.196 278.802C875.832 280.703 877.036 282.935 877.727 285.345C878.418 287.756 878.578 290.287 878.197 292.765L877.832 295.159L798.305 295.2ZM813.552 282.741C811.539 282.746 809.577 283.378 807.939 284.549C806.302 285.72 805.07 287.372 804.416 289.275L804.294 289.62H872.898V289.336C872.664 286.361 871.319 283.582 869.13 281.553C866.941 279.523 864.068 278.39 861.082 278.379C859.219 278.375 857.382 278.813 855.722 279.657L853.164 280.956L851.925 278.359C850.453 275.268 848.063 272.707 845.08 271.026C842.097 269.344 838.668 268.624 835.26 268.963C831.852 269.303 828.633 270.686 826.041 272.923C823.449 275.161 821.612 278.143 820.78 281.463L820.029 284.547L817.065 283.411C815.947 282.968 814.755 282.741 813.552 282.741Z" fill="#E8EDF0"/>
<path d="M340.305 295.2V292.4C340.31 288.36 341.918 284.487 344.776 281.631C347.635 278.774 351.51 277.167 355.552 277.161C356.368 277.168 357.183 277.236 357.989 277.364H358.191V277.161C359.826 273.038 362.667 269.504 366.344 267.02C370.02 264.537 374.362 263.22 378.799 263.242C382.511 263.249 386.163 264.18 389.424 265.951C392.685 267.722 395.453 270.278 397.478 273.387L397.6 273.55H397.782C399.464 273.02 401.217 272.754 402.98 272.758C405.489 272.753 407.969 273.29 410.25 274.333C412.532 275.376 414.56 276.901 416.196 278.802C417.832 280.703 419.036 282.935 419.727 285.345C420.418 287.756 420.578 290.287 420.197 292.765L419.832 295.159L340.305 295.2ZM355.552 282.741C353.539 282.746 351.577 283.378 349.939 284.549C348.302 285.72 347.07 287.372 346.416 289.275L346.294 289.62H414.898V289.336C414.664 286.361 413.319 283.582 411.13 281.553C408.941 279.523 406.068 278.39 403.082 278.379C401.219 278.375 399.382 278.813 397.722 279.657L395.164 280.956L393.925 278.359C392.453 275.268 390.063 272.707 387.08 271.026C384.097 269.344 380.668 268.624 377.26 268.963C373.852 269.303 370.633 270.686 368.041 272.923C365.449 275.161 363.612 278.143 362.78 281.463L362.029 284.547L359.065 283.411C357.947 282.968 356.755 282.741 355.552 282.741Z" fill="#E8EDF0"/>
<path d="M836.881 263.587C840.558 263.627 844.169 264.574 847.392 266.344C850.615 268.114 853.35 270.652 855.356 273.732L855.559 274.057L855.925 273.956C857.586 273.429 859.319 273.163 861.062 273.164C865.614 273.175 869.976 274.987 873.195 278.204C876.414 281.421 878.227 285.781 878.238 290.33C878.227 291.194 878.153 292.055 878.015 292.907L877.71 295.058H798.528V292.4C798.539 288.428 800.123 284.623 802.935 281.816C805.748 279.009 809.558 277.431 813.532 277.425C814.334 277.424 815.135 277.485 815.928 277.608H816.334L816.496 277.222C818.106 273.155 820.903 269.665 824.524 267.208C828.145 264.751 832.423 263.44 836.799 263.445M819.745 284.142L817.045 283.086C815.796 282.606 814.464 282.383 813.127 282.431C811.791 282.479 810.478 282.797 809.267 283.366C808.057 283.935 806.974 284.743 806.085 285.741C805.195 286.739 804.517 287.907 804.091 289.174L803.848 289.843H873.081V289.295C872.913 287.319 872.264 285.413 871.191 283.744C870.118 282.075 868.654 280.693 866.924 279.719C865.195 278.745 863.254 278.208 861.27 278.155C859.285 278.102 857.318 278.534 855.539 279.414L853.224 280.591L852.108 278.237C850.619 275.09 848.192 272.481 845.16 270.768C842.128 269.054 838.64 268.321 835.175 268.667C831.709 269.014 828.435 270.424 825.804 272.705C823.172 274.985 821.311 278.023 820.476 281.402L819.785 284.202M836.84 262.999C832.352 262.985 827.964 264.324 824.248 266.839C820.533 269.355 817.661 272.93 816.009 277.101C815.184 276.963 814.349 276.895 813.512 276.898C809.401 276.898 805.459 278.528 802.55 281.431C799.642 284.334 798.005 288.272 798 292.38V295.423H878.096L878.482 292.826C878.621 291.953 878.695 291.072 878.705 290.188C878.699 285.503 876.835 281.011 873.519 277.697C870.204 274.384 865.709 272.52 861.021 272.515C859.23 272.509 857.448 272.783 855.742 273.327C853.702 270.167 850.904 267.568 847.603 265.764C844.302 263.96 840.602 263.01 836.84 262.999ZM820.131 284.872L820.963 281.504C821.777 278.228 823.585 275.285 826.139 273.077C828.693 270.869 831.868 269.505 835.228 269.172C838.588 268.838 841.97 269.552 844.908 271.215C847.847 272.878 850.199 275.409 851.641 278.46L852.981 281.281L855.783 279.86C857.484 278.995 859.373 278.564 861.282 278.605C863.19 278.647 865.059 279.159 866.721 280.097C868.383 281.035 869.787 282.37 870.809 283.982C871.83 285.594 872.436 287.433 872.573 289.336H804.599C805.24 287.483 806.443 285.876 808.04 284.738C809.637 283.6 811.55 282.987 813.512 282.985C814.671 282.982 815.821 283.195 816.902 283.614L820.131 284.872Z" fill="#E8EDF0"/>
<path d="M378.881 263.587C382.558 263.627 386.169 264.574 389.392 266.344C392.615 268.114 395.35 270.652 397.356 273.732L397.559 274.057L397.925 273.956C399.586 273.429 401.319 273.163 403.062 273.164C407.614 273.175 411.976 274.987 415.195 278.204C418.414 281.421 420.227 285.781 420.238 290.33C420.227 291.194 420.153 292.055 420.015 292.907L419.71 295.058H340.528V292.4C340.539 288.428 342.123 284.623 344.935 281.816C347.748 279.009 351.558 277.431 355.532 277.425C356.334 277.424 357.135 277.485 357.928 277.608H358.334L358.496 277.222C360.106 273.155 362.903 269.665 366.524 267.208C370.145 264.751 374.423 263.44 378.799 263.445M361.745 284.142L359.045 283.086C357.796 282.606 356.464 282.383 355.127 282.431C353.791 282.479 352.478 282.797 351.267 283.366C350.057 283.935 348.974 284.743 348.085 285.741C347.195 286.739 346.517 287.907 346.091 289.174L345.848 289.843H415.081V289.295C414.913 287.319 414.264 285.413 413.191 283.744C412.118 282.075 410.654 280.693 408.924 279.719C407.195 278.745 405.254 278.208 403.27 278.155C401.285 278.102 399.318 278.534 397.539 279.414L395.224 280.591L394.108 278.237C392.619 275.09 390.192 272.481 387.16 270.768C384.128 269.054 380.64 268.321 377.175 268.667C373.709 269.014 370.435 270.424 367.804 272.705C365.172 274.985 363.311 278.023 362.476 281.402L361.785 284.202M378.84 262.999C374.352 262.985 369.964 264.324 366.248 266.839C362.533 269.355 359.661 272.93 358.009 277.101C357.184 276.963 356.349 276.895 355.512 276.898C351.401 276.898 347.459 278.528 344.55 281.431C341.642 284.334 340.005 288.272 340 292.38V295.423H420.096L420.482 292.826C420.621 291.953 420.695 291.072 420.705 290.188C420.699 285.503 418.835 281.011 415.519 277.697C412.204 274.384 407.709 272.52 403.021 272.515C401.23 272.509 399.448 272.783 397.742 273.327C395.702 270.167 392.904 267.568 389.603 265.764C386.302 263.96 382.602 263.01 378.84 262.999ZM362.131 284.872L362.963 281.504C363.777 278.228 365.585 275.285 368.139 273.077C370.693 270.869 373.868 269.505 377.228 269.172C380.588 268.838 383.97 269.552 386.908 271.215C389.847 272.878 392.199 275.409 393.641 278.46L394.981 281.281L397.783 279.86C399.484 278.995 401.373 278.564 403.282 278.605C405.19 278.647 407.059 279.159 408.721 280.097C410.383 281.035 411.787 282.37 412.809 283.982C413.83 285.594 414.436 287.433 414.573 289.336H346.599C347.24 287.483 348.443 285.876 350.04 284.738C351.637 283.6 353.55 282.987 355.512 282.985C356.671 282.982 357.821 283.195 358.902 283.614L362.131 284.872Z" fill="#E8EDF0"/>
<path d="M1643.23 270.007L1643.6 267.633C1643.74 266.72 1643.81 265.798 1643.82 264.874C1643.82 259.978 1641.87 255.285 1638.4 251.823C1634.94 248.362 1630.24 246.415 1625.35 246.409C1623.43 246.409 1621.52 246.71 1619.7 247.302H1619.5V247.14C1617.36 243.791 1614.42 241.032 1610.94 239.114C1607.46 237.196 1603.55 236.181 1599.58 236.162C1594.84 236.136 1590.2 237.553 1586.28 240.224C1582.36 242.894 1579.34 246.694 1577.63 251.117V251.32H1577.43C1576.52 251.158 1575.59 251.077 1574.67 251.076C1570.4 251.108 1566.32 252.816 1563.3 255.83C1560.29 258.845 1558.58 262.924 1558.55 267.187V269.987L1643.23 270.007ZM1625.35 251.989C1628.64 251.989 1631.81 253.251 1634.21 255.516C1636.6 257.78 1638.04 260.875 1638.22 264.164V264.448H1564.31L1564.42 264.103C1565.08 261.939 1566.43 260.048 1568.26 258.713C1570.09 257.379 1572.3 256.671 1574.57 256.697C1575.87 256.695 1577.16 256.943 1578.36 257.427L1581.33 258.563L1582.1 255.479C1582.99 251.876 1584.97 248.635 1587.77 246.203C1590.58 243.77 1594.07 242.266 1597.76 241.897C1601.46 241.528 1605.17 242.312 1608.4 244.141C1611.64 245.97 1614.22 248.754 1615.8 252.111L1617.04 254.708L1619.6 253.41C1621.38 252.488 1623.34 252.001 1625.35 251.989Z" fill="#E8EDF0"/>
<path d="M1074.65 295.2L1074.28 292.826C1074.15 291.912 1074.07 290.99 1074.06 290.066C1074.07 285.171 1076.01 280.477 1079.48 277.016C1082.94 273.554 1087.64 271.607 1092.54 271.602C1094.45 271.602 1096.36 271.903 1098.18 272.494H1098.38V272.332C1100.52 268.983 1103.46 266.224 1106.94 264.306C1110.42 262.388 1114.33 261.374 1118.3 261.355C1123.05 261.329 1127.69 262.745 1131.61 265.416C1135.53 268.087 1138.54 271.886 1140.25 276.309V276.512H1140.45C1141.36 276.35 1142.29 276.269 1143.21 276.269C1147.48 276.3 1151.56 278.008 1154.58 281.022C1157.59 284.037 1159.3 288.116 1159.33 292.379V295.18L1074.65 295.2ZM1092.54 277.182C1089.24 277.182 1086.07 278.444 1083.68 280.708C1081.28 282.972 1079.85 286.067 1079.66 289.356V289.64H1153.57L1153.47 289.295C1152.8 287.131 1151.45 285.241 1149.62 283.906C1147.79 282.571 1145.58 281.864 1143.31 281.889C1142.01 281.887 1140.72 282.135 1139.52 282.62L1136.55 283.756L1135.78 280.672C1134.9 277.068 1132.91 273.827 1130.11 271.395C1127.31 268.963 1123.82 267.459 1120.12 267.089C1116.43 266.72 1112.71 267.504 1109.48 269.333C1106.25 271.162 1103.66 273.946 1102.08 277.303L1100.84 279.901L1098.28 278.602C1096.51 277.68 1094.54 277.193 1092.54 277.182Z" fill="#E8EDF0"/>
<path d="M1599.48 236.487C1594.79 236.461 1590.2 237.862 1586.32 240.504C1582.45 243.146 1579.46 246.904 1577.78 251.279L1577.63 251.665H1577.23C1576.33 251.519 1575.42 251.444 1574.51 251.441C1570.3 251.441 1566.26 253.11 1563.29 256.082C1560.31 259.053 1558.64 263.084 1558.63 267.288V269.825H1643.01L1643.33 267.674C1643.48 266.775 1643.56 265.866 1643.56 264.955C1643.56 260.112 1641.63 255.467 1638.21 252.042C1634.78 248.617 1630.13 246.693 1625.28 246.693C1623.4 246.686 1621.52 246.98 1619.72 247.566L1619.34 247.688L1619.13 247.363C1617.01 244.053 1614.1 241.325 1610.66 239.429C1607.21 237.533 1603.35 236.528 1599.42 236.507M1617.02 254.363L1619.36 253.186C1621.19 252.246 1623.22 251.759 1625.28 251.766C1628.64 251.761 1631.88 253.044 1634.32 255.351C1636.76 257.657 1638.22 260.812 1638.4 264.164V264.691H1563.89L1564.09 264.042C1564.53 262.63 1565.26 261.323 1566.22 260.203C1567.19 259.083 1568.38 258.173 1569.71 257.53C1571.04 256.887 1572.49 256.524 1573.97 256.464C1575.45 256.405 1576.92 256.65 1578.3 257.184L1580.98 258.219L1581.67 255.418C1582.6 251.781 1584.62 248.516 1587.46 246.067C1590.31 243.618 1593.84 242.105 1597.57 241.732C1601.31 241.36 1605.07 242.146 1608.34 243.985C1611.61 245.824 1614.24 248.626 1615.86 252.01L1616.98 254.363M1599.38 236C1603.4 236.011 1607.35 237.031 1610.87 238.967C1614.38 240.903 1617.36 243.693 1619.52 247.079C1622.32 246.193 1625.29 245.979 1628.2 246.455C1631.1 246.931 1633.84 248.083 1636.22 249.818C1638.59 251.553 1640.52 253.822 1641.85 256.441C1643.18 259.06 1643.88 261.956 1643.88 264.894C1643.88 265.825 1643.81 266.755 1643.66 267.674L1643.27 270.271H1558V267.228C1558 264.841 1558.52 262.483 1559.53 260.32C1560.54 258.157 1562.01 256.24 1563.84 254.705C1565.67 253.17 1567.81 252.053 1570.11 251.433C1572.42 250.813 1574.83 250.705 1577.19 251.117C1578.92 246.654 1581.97 242.821 1585.93 240.122C1589.88 237.424 1594.57 235.987 1599.36 236H1599.38ZM1616.76 255.053L1615.42 252.233C1613.86 248.925 1611.31 246.181 1608.12 244.379C1604.94 242.576 1601.27 241.803 1597.63 242.165C1593.99 242.528 1590.55 244.008 1587.78 246.403C1585.02 248.797 1583.06 251.989 1582.18 255.54L1581.35 258.908L1578.12 257.65C1576.81 257.145 1575.4 256.914 1573.99 256.972C1572.59 257.031 1571.2 257.376 1569.94 257.989C1568.67 258.601 1567.54 259.466 1566.62 260.532C1565.69 261.597 1565 262.84 1564.58 264.184H1637.85C1637.67 260.965 1636.26 257.937 1633.92 255.722C1631.57 253.507 1628.47 252.273 1625.24 252.273C1623.26 252.267 1621.31 252.733 1619.54 253.633L1616.76 255.053Z" fill="#E8EDF0"/>
<path d="M1118.4 261.679C1123.1 261.653 1127.68 263.054 1131.56 265.696C1135.44 268.338 1138.42 272.096 1140.11 276.471L1140.25 276.857H1140.66C1141.55 276.711 1142.46 276.637 1143.38 276.634C1147.58 276.634 1151.62 278.303 1154.6 281.274C1157.57 284.245 1159.25 288.276 1159.25 292.481V295.017H1074.87L1074.55 292.866C1074.4 291.968 1074.33 291.058 1074.33 290.147C1074.33 285.304 1076.25 280.659 1079.68 277.234C1083.1 273.81 1087.75 271.886 1092.6 271.886C1094.49 271.878 1096.37 272.173 1098.16 272.758L1098.55 272.88L1098.75 272.555C1100.87 269.245 1103.78 266.518 1107.23 264.621C1110.67 262.725 1114.53 261.721 1118.46 261.7M1100.86 279.556L1098.53 278.379C1096.69 277.438 1094.66 276.951 1092.6 276.958C1089.24 276.954 1086.01 278.237 1083.57 280.543C1081.13 282.85 1079.66 286.004 1079.48 289.356V289.884H1153.99L1153.79 289.234C1153.35 287.822 1152.63 286.516 1151.66 285.395C1150.69 284.275 1149.51 283.365 1148.17 282.722C1146.84 282.079 1145.39 281.716 1143.91 281.657C1142.43 281.597 1140.96 281.842 1139.58 282.376L1136.9 283.411L1136.21 280.611C1135.29 276.973 1133.27 273.708 1130.42 271.259C1127.58 268.811 1124.05 267.297 1120.31 266.925C1116.57 266.552 1112.81 267.339 1109.54 269.178C1106.27 271.017 1103.64 273.818 1102.02 277.202L1100.9 279.556M1118.5 261.192C1114.49 261.203 1110.54 262.224 1107.02 264.16C1103.5 266.096 1100.52 268.885 1098.36 272.271C1095.56 271.385 1092.59 271.172 1089.69 271.648C1086.79 272.123 1084.04 273.275 1081.67 275.01C1079.29 276.745 1077.36 279.014 1076.03 281.633C1074.7 284.253 1074 287.148 1074 290.087C1074 291.018 1074.07 291.947 1074.22 292.866L1074.61 295.464H1159.88V292.42C1159.88 290.033 1159.36 287.676 1158.35 285.512C1157.34 283.349 1155.87 281.432 1154.05 279.897C1152.22 278.362 1150.07 277.245 1147.77 276.625C1145.46 276.005 1143.05 275.898 1140.7 276.309C1138.96 271.846 1135.91 268.013 1131.96 265.315C1128 262.616 1123.32 261.179 1118.53 261.192H1118.5ZM1101.13 280.246L1102.46 277.425C1104.03 274.117 1106.57 271.374 1109.76 269.571C1112.94 267.768 1116.61 266.995 1120.25 267.357C1123.89 267.72 1127.33 269.2 1130.1 271.595C1132.87 273.99 1134.82 277.182 1135.7 280.732L1136.53 284.101L1139.76 282.843C1141.08 282.337 1142.48 282.107 1143.89 282.165C1145.3 282.223 1146.68 282.569 1147.95 283.181C1149.22 283.793 1150.35 284.659 1151.27 285.724C1152.19 286.79 1152.88 288.033 1153.3 289.376H1080.03C1080.21 286.157 1081.62 283.13 1083.96 280.915C1086.31 278.7 1089.41 277.466 1092.64 277.466C1094.62 277.46 1096.58 277.926 1098.34 278.825L1101.13 280.246Z" fill="#E8EDF0"/>
<path fill-rule="evenodd" clip-rule="evenodd" d="M673.414 397.999C673.395 398 673.376 398 673.358 397.999L645.691 397.936C645.83 397.936 645.964 397.881 646.062 397.783C646.16 397.685 646.215 397.551 646.215 397.412V373.59C646.215 373.451 646.16 373.318 646.062 373.22C645.964 373.121 645.83 373.066 645.691 373.066H625.245C621.189 373.05 617.305 371.424 614.447 368.546C611.588 365.668 609.989 361.773 610 357.716V350.356C609.981 346.592 611.354 342.953 613.855 340.139C616.355 337.326 619.807 335.535 623.547 335.111C623.622 335.1 623.694 335.073 623.759 335.034C623.824 334.994 623.88 334.942 623.924 334.88C623.976 334.745 623.976 334.596 623.924 334.461C623.648 333.321 623.507 332.152 623.505 330.98V323.598C623.531 319.591 625.114 315.751 627.92 312.891C630.726 310.03 634.535 308.373 638.541 308.269C638.619 308.269 638.696 308.25 638.766 308.214C638.835 308.177 638.895 308.124 638.939 308.06C638.974 307.992 638.992 307.916 638.992 307.84C638.992 307.763 638.974 307.687 638.939 307.619C638.627 306.364 638.472 305.075 638.478 303.782C638.631 299.202 640.589 294.869 643.924 291.726C647.259 288.584 651.7 286.887 656.281 287.006H662.698C667.281 286.887 671.725 288.583 675.063 291.725C678.402 294.867 680.364 299.2 680.523 303.782C680.517 305.074 680.362 306.362 680.061 307.619C680.026 307.687 680.008 307.763 680.008 307.84C680.008 307.916 680.026 307.992 680.061 308.06C680.109 308.121 680.169 308.171 680.238 308.207C680.307 308.244 680.382 308.265 680.46 308.269C684.465 308.373 688.274 310.03 691.08 312.891C693.886 315.751 695.469 319.591 695.495 323.598V330.98C695.493 332.152 695.352 333.321 695.076 334.461C695.024 334.596 695.024 334.745 695.076 334.88C695.12 334.942 695.176 334.994 695.241 335.034C695.306 335.073 695.378 335.1 695.453 335.111C699.194 335.535 702.645 337.326 705.146 340.139C707.646 342.953 709.019 346.592 709 350.356V357.716C709.011 361.773 707.412 365.668 704.553 368.546C701.695 371.424 697.811 373.05 693.755 373.066H673.309C673.17 373.066 673.036 373.121 672.938 373.22C672.84 373.318 672.785 373.451 672.785 373.59V397.475C672.805 397.625 672.881 397.762 672.998 397.859C673.1 397.944 673.226 397.993 673.358 397.999L673.414 397.999ZM666.298 397.783C666.396 397.685 666.452 397.551 666.452 397.412V366.754H693.713C696.101 366.738 698.384 365.774 700.063 364.076C701.742 362.378 702.678 360.083 702.667 357.695V350.335C702.678 347.947 701.742 345.652 700.063 343.954C698.384 342.256 696.101 341.292 693.713 341.276H683.626L687.296 336.264C688.45 334.736 689.075 332.874 689.078 330.959V323.577C689.073 321.178 688.116 318.88 686.418 317.185C684.719 315.491 682.418 314.539 680.019 314.539H668.528L672.114 309.548C673.345 307.869 674.013 305.843 674.022 303.761C673.864 300.848 672.566 298.114 670.407 296.151C668.248 294.189 665.403 293.156 662.488 293.276H656.071C653.159 293.156 650.316 294.19 648.161 296.153C646.005 298.116 644.711 300.85 644.559 303.761C644.56 305.841 645.221 307.867 646.446 309.548L650.032 314.539H638.541C636.142 314.539 633.84 315.491 632.142 317.185C630.444 318.88 629.487 321.178 629.481 323.577V330.959C629.495 332.872 630.119 334.731 631.264 336.264L634.934 341.276H624.847C622.459 341.292 620.175 342.256 618.497 343.954C616.818 345.652 615.882 347.947 615.893 350.335V357.695C615.882 360.083 616.818 362.378 618.497 364.076C620.175 365.774 622.459 366.738 624.847 366.754H652.108V397.412C652.108 397.551 652.163 397.685 652.262 397.783C652.36 397.881 652.493 397.936 652.632 397.936H665.927C666.066 397.936 666.2 397.881 666.298 397.783Z" fill="#E8EDF0"/>
<path fill-rule="evenodd" clip-rule="evenodd" d="M1447.7 398.879V365.859H1463L1430.08 313.414H1407.87V301.311H1389.93V313.414H1349.08L1336.38 333.787C1327.41 332.361 1319.23 327.636 1313.33 320.474H1334.73V313.414H1332.41C1314.11 313.414 1300.32 296.471 1300.32 274H1293.51C1293.51 296.471 1279.74 313.414 1261.44 313.414V320.474H1280.46C1276.82 324.902 1272.28 328.443 1267.17 330.845C1262.06 333.248 1256.5 334.452 1250.89 334.372V341.432H1273.92C1263.85 352.506 1251.77 358.718 1240 358.718V365.778H1286.68V398.798L1293.36 398.802V358.799H1263.85C1271.65 353.985 1278.46 347.64 1283.92 340.121L1288.16 334.453H1275.21C1281.2 330.485 1286.26 325.17 1290.01 318.901L1293.32 313.495H1282.58C1289.09 308.501 1294.05 301.644 1296.86 293.767C1299.68 301.642 1304.64 308.497 1311.15 313.495H1300.42L1303.72 318.901C1307.47 325.17 1312.53 330.485 1318.53 334.453H1305.59L1309.83 340.121C1313.79 345.502 1318.42 350.311 1323.6 354.422L1320.88 358.799H1300.38V398.805L1307.19 398.809V365.859H1333.5V398.822L1340.31 398.825V363.418L1340.97 362.369L1343.17 358.839L1344.05 357.427L1359.94 331.911L1376.72 358.839L1378.92 362.369L1379.56 363.418V398.845L1386.43 398.848V365.818H1440.89V398.875L1447.7 398.879ZM1352.95 320.555H1352.84L1342.88 336.429L1339.71 341.512L1332.9 352.445L1329.2 358.375L1328.93 358.799H1335.12L1337.53 354.926L1355.95 325.355L1352.95 320.555ZM1389.99 331.145V320.555H1389.97H1361.05L1362 322.108L1363.94 325.355L1384.82 358.799H1450.25L1426.42 320.474H1407.92V331.145H1389.99ZM1394.85 306.475V313.495V326.183H1403.06V306.475H1394.85ZM1327.28 348.471L1331.62 341.512H1319.87C1322.15 344.034 1324.63 346.361 1327.28 348.471Z" fill="#E8EDF0"/>
<path fill-rule="evenodd" clip-rule="evenodd" d="M1435.06 371.85H1417.13V393.11H1435.06V371.85ZM1421.99 387.987H1430.2V376.812H1421.99V387.987Z" fill="#E8EDF0"/>
<path fill-rule="evenodd" clip-rule="evenodd" d="M1392.21 393.029H1410.16V371.769H1392.21V393.029ZM1405.3 376.893H1397.07L1397.01 388.067H1405.3V376.893Z" fill="#E8EDF0"/>
<path fill-rule="evenodd" clip-rule="evenodd" d="M1355.83 398.833V398.879V399H1364.06V398.837L1368.92 398.839V398.879H1379.56V398.845L1368.92 398.839V371.729H1350.97V398.831L1340.31 398.825V398.879H1350.97V398.831L1355.83 398.833ZM1355.83 398.833V376.812H1364.06V398.837L1355.83 398.833ZM1333.5 398.879V398.822L1307.19 398.809V398.879H1333.5ZM1300.38 398.879V398.805L1293.36 398.802V398.879H1300.38ZM1440.89 398.879V398.875L1386.43 398.848V398.879H1440.89Z" fill="#E8EDF0"/>
<path fill-rule="evenodd" clip-rule="evenodd" d="M364.703 398.879V365.859H380L347.08 313.414H324.866V301.311H306.932V313.414H266.084L253.382 333.787C244.407 332.361 236.226 327.636 230.332 320.474H251.729V313.414H249.414C231.11 313.414 217.319 296.471 217.319 274H210.511C210.511 296.471 196.739 313.414 178.436 313.414V320.474H197.459C193.819 324.902 189.282 328.443 184.172 330.845C179.062 333.248 173.503 334.452 167.893 334.372V341.432H190.923C180.848 352.506 168.768 358.718 157 358.718V365.778H203.684V398.798L210.355 398.802V358.799H180.848C188.646 353.985 195.464 347.64 200.921 340.121L205.162 334.453H192.207C198.204 330.485 203.263 325.17 207.01 318.901L210.317 313.495H199.579C206.089 308.501 211.051 301.644 213.857 293.767C216.676 301.642 221.643 308.497 228.153 313.495H217.416L220.723 318.901C224.47 325.17 229.529 330.485 235.526 334.453H222.59L226.831 340.121C230.788 345.502 235.419 350.311 240.603 354.422L237.879 358.799H217.377V398.805L224.185 398.809V365.859H250.503V398.822L257.311 398.825V363.418L257.973 362.369L260.171 358.839L261.046 357.427L276.938 331.911L293.724 358.839L295.923 362.369L296.564 363.418V398.845L303.431 398.848V365.818H357.895V398.875L364.703 398.879ZM269.955 320.555H269.838L259.879 336.429L256.708 341.512L249.9 352.445L246.205 358.375L245.932 358.799H252.118L254.53 354.926L272.95 325.355L269.955 320.555ZM306.99 331.145V320.555H306.971H278.047L279 322.108L280.945 325.355L301.816 358.799H367.251L343.423 320.474H324.925V331.145H306.99ZM311.853 306.475V313.495V326.183H320.062V306.475H311.853ZM244.279 348.471L248.616 341.512H236.868C239.155 344.034 241.633 346.361 244.279 348.471Z" fill="#E8EDF0"/>
<path fill-rule="evenodd" clip-rule="evenodd" d="M352.059 371.85H334.125V393.11H352.059V371.85ZM338.988 387.987H347.197V376.812H338.988V387.987Z" fill="#E8EDF0"/>
<path fill-rule="evenodd" clip-rule="evenodd" d="M309.208 393.029H327.162V371.769H309.208V393.029ZM322.299 376.893H314.071L314.012 388.067H322.299V376.893Z" fill="#E8EDF0"/>
<path fill-rule="evenodd" clip-rule="evenodd" d="M272.834 398.833V398.879V399H281.062V398.837L285.924 398.839V398.879H296.564V398.845L285.924 398.839V371.729H267.971V398.831L257.311 398.825V398.879H267.971V398.831L272.834 398.833ZM272.834 398.833V376.812H281.062V398.837L272.834 398.833ZM250.503 398.879V398.822L224.185 398.809V398.879H250.503ZM217.377 398.879V398.805L210.355 398.802V398.879H217.377ZM357.895 398.879V398.875L303.431 398.848V398.879H357.895Z" fill="#E8EDF0"/>
<rect x="1662" y="392" width="93" height="6" fill="#E8EDF0"/>
<path fill-rule="evenodd" clip-rule="evenodd" d="M1723.41 440.999C1723.39 441 1723.38 441 1723.36 440.999L1695.69 440.936C1695.83 440.936 1695.96 440.881 1696.06 440.783C1696.16 440.685 1696.22 440.551 1696.22 440.412V416.59C1696.22 416.451 1696.16 416.318 1696.06 416.22C1695.96 416.121 1695.83 416.066 1695.69 416.066H1675.25C1671.19 416.05 1667.31 414.424 1664.45 411.546C1661.59 408.668 1659.99 404.773 1660 400.716V393.356C1659.98 389.592 1661.35 385.953 1663.85 383.139C1666.35 380.326 1669.81 378.535 1673.55 378.111C1673.62 378.1 1673.69 378.073 1673.76 378.034C1673.82 377.994 1673.88 377.942 1673.92 377.88C1673.98 377.745 1673.98 377.596 1673.92 377.461C1673.65 376.321 1673.51 375.152 1673.51 373.98V366.598C1673.53 362.591 1675.11 358.751 1677.92 355.891C1680.73 353.03 1684.53 351.373 1688.54 351.269C1688.62 351.269 1688.7 351.25 1688.77 351.214C1688.84 351.177 1688.89 351.124 1688.94 351.06C1688.97 350.992 1688.99 350.916 1688.99 350.84C1688.99 350.763 1688.97 350.687 1688.94 350.619C1688.63 349.364 1688.47 348.075 1688.48 346.782C1688.63 342.202 1690.59 337.869 1693.92 334.726C1697.26 331.584 1701.7 329.887 1706.28 330.006H1712.7C1717.28 329.887 1721.72 331.583 1725.06 334.725C1728.4 337.867 1730.36 342.2 1730.52 346.782C1730.52 348.074 1730.36 349.362 1730.06 350.619C1730.03 350.687 1730.01 350.763 1730.01 350.84C1730.01 350.916 1730.03 350.992 1730.06 351.06C1730.11 351.121 1730.17 351.171 1730.24 351.207C1730.31 351.244 1730.38 351.265 1730.46 351.269C1734.47 351.373 1738.27 353.03 1741.08 355.891C1743.89 358.751 1745.47 362.591 1745.5 366.598V373.98C1745.49 375.152 1745.35 376.321 1745.08 377.461C1745.02 377.596 1745.02 377.745 1745.08 377.88C1745.12 377.942 1745.18 377.994 1745.24 378.034C1745.31 378.073 1745.38 378.1 1745.45 378.111C1749.19 378.535 1752.65 380.326 1755.15 383.139C1757.65 385.953 1759.02 389.592 1759 393.356V400.716C1759.01 404.773 1757.41 408.668 1754.55 411.546C1751.69 414.424 1747.81 416.05 1743.75 416.066H1723.31C1723.17 416.066 1723.04 416.121 1722.94 416.22C1722.84 416.318 1722.78 416.451 1722.78 416.59V440.475C1722.81 440.625 1722.88 440.762 1723 440.859C1723.1 440.944 1723.23 440.993 1723.36 440.999L1723.41 440.999ZM1716.3 440.783C1716.4 440.685 1716.45 440.551 1716.45 440.412V409.754H1743.71C1746.1 409.738 1748.38 408.774 1750.06 407.076C1751.74 405.378 1752.68 403.083 1752.67 400.695V393.335C1752.68 390.947 1751.74 388.652 1750.06 386.954C1748.38 385.256 1746.1 384.292 1743.71 384.276H1733.63L1737.3 379.264C1738.45 377.736 1739.08 375.874 1739.08 373.959V366.577C1739.07 364.178 1738.12 361.88 1736.42 360.185C1734.72 358.491 1732.42 357.539 1730.02 357.539H1718.53L1722.11 352.548C1723.35 350.869 1724.01 348.843 1724.02 346.761C1723.86 343.848 1722.57 341.114 1720.41 339.151C1718.25 337.189 1715.4 336.156 1712.49 336.276H1706.07C1703.16 336.156 1700.32 337.19 1698.16 339.153C1696.01 341.116 1694.71 343.85 1694.56 346.761C1694.56 348.841 1695.22 350.867 1696.45 352.548L1700.03 357.539H1688.54C1686.14 357.539 1683.84 358.491 1682.14 360.185C1680.44 361.88 1679.49 364.178 1679.48 366.577V373.959C1679.49 375.872 1680.12 377.731 1681.26 379.264L1684.93 384.276H1674.85C1672.46 384.292 1670.18 385.256 1668.5 386.954C1666.82 388.652 1665.88 390.947 1665.89 393.335V400.695C1665.88 403.083 1666.82 405.378 1668.5 407.076C1670.18 408.774 1672.46 409.738 1674.85 409.754H1702.11V440.412C1702.11 440.551 1702.16 440.685 1702.26 440.783C1702.36 440.881 1702.49 440.936 1702.63 440.936H1715.93C1716.07 440.936 1716.2 440.881 1716.3 440.783Z" fill="#E8EDF0"/>
</g>
<defs>
<clipPath id="clip0_967_1479">
<rect width="1928" height="398" fill="white"/>
</clipPath>
<clipPath id="clip1_967_1479">
<rect width="161" height="117" fill="white" transform="translate(883 290)"/>
</clipPath>
</defs>
</svg>
