<svg id="gardex-line-family" width="221" height="443" viewBox="0 0 221 443" fill="none" xmlns="http://www.w3.org/2000/svg">
<rect width="221" height="442" rx="20" fill="#5BB134"/>
<g clip-path="url(#clip0_969_11045)">
<path d="M232.36 248.842C212.734 248.865 193.917 256.926 180.039 271.258C166.161 285.59 158.355 305.02 158.333 325.288V336.174H132.444V315.809H141.732L121.53 283.464H107.772V275.999H96.6654V283.464H71.3672L63.5007 296.028C57.9423 295.149 52.8755 292.235 49.2253 287.818H62.4767V283.464H61.0432C49.7072 283.464 41.166 273.014 41.166 259.155H36.9496C36.9496 273.014 28.4205 283.464 17.0845 283.464V287.818H28.8663C26.6119 290.549 23.8022 292.733 20.6372 294.214C17.4722 295.696 14.0299 296.438 10.5552 296.389V300.743H24.8186C18.5783 307.573 11.0973 311.405 3.80903 311.405V315.759H32.7212V336.124H25.0595C18.7935 336.11 12.7209 338.364 7.89679 342.493C3.07268 346.623 -0.197998 352.367 -1.34698 358.728C-6.0496 360.925 -10.0405 364.474 -12.8432 368.95C-15.6458 373.426 -17.1417 378.64 -17.1523 383.97V385.6H-66.6283C-71.3309 381.783 -77.1395 379.711 -83.1203 379.715H-175.266V317.662C-175.269 311.786 -177.53 306.151 -181.553 301.995C-185.575 297.838 -191.031 295.5 -196.721 295.493H-226.26V248.842H-240.246V253.196H-230.476V262.601H-240.246V266.955H-230.476V279.794H-240.246V284.148H-230.476V336.087H-240.246V340.441H-230.476V396.597C-230.473 400.065 -229.679 403.483 -228.16 406.576C-226.641 409.668 -224.438 412.348 -221.73 414.399H-240.246V418.754H-174.182C-163.966 418.754 -146.896 425.82 -144.137 435.474C-143.712 436.988 -143.434 438.543 -143.306 440.114C-143.306 440.748 -143.21 441.358 -143.21 442.03V443H-138.993V442.03C-138.993 441.383 -138.993 440.786 -139.077 440.101C-138.567 434.289 -135.973 428.883 -131.803 424.943C-127.634 421.003 -122.19 418.814 -116.538 418.803H-17.1523V443.05H-12.936V403.999C-9.13863 404.523 -5.27517 403.941 -1.78065 402.32L-1.51565 402.195C-0.889223 401.897 -0.310944 401.573 0.327534 401.212C0.956146 400.834 1.56345 400.418 2.14657 399.968L2.38752 399.794L2.58027 399.931C3.4015 400.544 4.26288 401.097 5.15826 401.586C5.71241 401.884 6.27861 402.158 6.85685 402.407C7.67883 402.751 8.5195 403.046 9.37462 403.29C10.3642 403.565 11.3703 403.773 12.3863 403.912C13.2652 404.03 14.1503 404.092 15.0366 404.099C15.7734 404.097 16.5095 404.051 17.2411 403.962C19.3132 403.736 21.3424 403.2 23.2645 402.37C23.915 402.083 24.5535 401.76 25.1679 401.412C25.7823 401.063 26.3726 400.678 26.9749 400.267C27.2038 400.105 27.4447 399.956 27.6736 399.782L28.2158 400.192C29.5348 401.121 30.9488 401.897 32.4321 402.506C34.9406 403.55 37.6185 404.09 40.3227 404.099H40.4071C44.9629 404.089 49.3974 402.581 53.0682 399.794C56.739 402.581 61.1734 404.089 65.7293 404.099H66.5365C70.8328 403.933 74.9809 402.433 78.4387 399.794C82.115 402.61 86.5708 404.13 91.148 404.13C95.7251 404.13 100.181 402.61 103.857 399.794C107.532 402.605 111.982 404.126 116.555 404.136C119.112 404.132 121.647 403.647 124.036 402.705V414.35H49.8156C42.8736 414.357 36.207 417.155 31.2274 422.15C30.8781 422.486 30.5408 422.847 30.2155 423.207L29.9144 423.543C29.2759 424.29 28.7097 425.061 28.1073 425.87C28.0764 425.909 28.0482 425.95 28.023 425.994C27.6616 426.504 27.3122 427.039 26.987 427.586C26.6617 428.134 26.3124 428.83 25.9992 429.428L25.8064 429.801C25.4089 430.659 25.0354 431.542 24.7101 432.438C23.6194 435.493 23.0606 438.724 23.0597 441.98V442.95H27.2761V441.98C27.2832 439.915 27.5587 437.861 28.0953 435.872V435.872C28.4081 434.712 28.811 433.58 29.3 432.488C29.577 431.841 29.8902 431.244 30.2275 430.584C32.1271 427.148 34.8373 424.264 38.1061 422.2C41.6289 419.952 45.6868 418.759 49.8276 418.754H242.274V414.399H218.53V363.804C218.531 359.135 217.386 354.542 215.201 350.454C213.016 346.366 209.864 342.917 206.038 340.428H242.274V336.074H194.015V331.372C194.015 318.834 198.838 306.81 207.423 297.944C216.008 289.079 227.652 284.098 239.793 284.098H242.311V279.744H239.793C226.547 279.757 213.848 285.197 204.481 294.869C195.115 304.541 189.848 317.656 189.835 331.334V336.037H177.367V329.045C177.367 312.559 183.704 296.747 194.987 285.084C206.27 273.42 221.576 266.86 237.54 266.843H242.274V262.489H237.54C220.469 262.509 204.102 269.521 192.031 281.987C179.959 294.452 173.169 311.354 173.15 328.983V335.975H162.549V325.176C162.594 306.081 169.967 287.782 183.052 274.29C196.138 260.798 213.869 253.212 232.36 253.196H242.274V248.842H232.36ZM158.501 340.528C164.476 340.534 170.204 342.989 174.428 347.353C178.652 351.717 181.026 357.634 181.029 363.804V366.292C178.851 366.382 176.792 367.339 175.283 368.963C173.774 370.586 172.932 372.75 172.933 375.001V378.981C172.925 379.823 173.039 380.662 173.271 381.469C171.891 382.081 170.697 383.065 169.813 384.318C160.597 382.975 153.273 374.366 151.948 363.58C151.945 362.432 151.869 361.285 151.719 360.147V360.072C151.193 356.101 149.837 352.296 147.744 348.922C145.651 345.547 142.872 342.682 139.6 340.528H158.501ZM-139.885 428.544C-140.331 429.383 -140.733 430.247 -141.089 431.132C-141.354 430.497 -141.643 429.888 -141.945 429.278C-142.546 428.092 -143.23 426.953 -143.993 425.87L-144.053 425.77C-148.932 418.89 -165.231 414.399 -174.097 414.399H-175.182V384.107H-83.036C-80.3138 384.115 -77.6157 384.633 -75.0731 385.637C-73.6008 386.206 -72.1913 386.936 -70.8688 387.814C-69.886 388.461 -68.9554 389.189 -68.086 389.991C-65.1163 392.693 -62.8821 396.15 -61.6048 400.018C-61.3715 400.733 -61.1745 401.46 -61.0145 402.195C-60.849 402.914 -60.7203 403.64 -60.629 404.372C-60.4851 405.407 -60.4087 406.45 -60.4001 407.495V414.399H-116.538C-121.294 414.411 -125.961 415.726 -130.063 418.212C-134.165 420.697 -137.555 424.263 -139.885 428.544V428.544ZM-196.577 414.399H-209.009C-213.581 414.396 -217.965 412.52 -221.199 409.182C-224.434 405.845 -226.253 401.319 -226.26 396.597V299.848H-196.721C-192.149 299.854 -187.766 301.734 -184.534 305.073C-181.302 308.413 -179.485 312.941 -179.482 317.662V414.399H-196.577ZM13.6271 343.75C17.0745 341.644 21.0058 340.531 25.0113 340.528H61.7539H125.602C130.942 340.627 136.074 342.683 140.081 346.33C144.089 349.976 146.711 354.974 147.479 360.433C147.322 373.159 138.925 383.535 128.348 384.43V383.97C128.339 376.619 125.507 369.571 120.473 364.373C115.439 359.175 108.615 356.25 101.496 356.24H9.6999C8.51528 356.242 7.33207 356.325 6.15816 356.489C5.23427 356.613 4.31742 356.787 3.4115 357.011C5.0828 351.434 8.71384 346.703 13.591 343.75H13.6271ZM73.6922 287.867H73.7645L75.6197 290.828L64.2115 309.066L62.7176 311.455H58.8868L59.0554 311.193L61.3443 307.536L65.5607 300.793L67.5243 297.658L73.6922 287.867ZM96.7015 287.867V294.399H107.809V287.818H119.265L134.022 311.455H93.4971L80.5709 290.828L79.3662 288.825L78.776 287.867H96.6895H96.7015ZM99.7132 283.513V279.184H104.797V291.338H99.7132V283.513ZM186.185 367.225C185.602 366.402 185.285 365.409 185.281 364.389C185.353 362.939 185.977 361.577 187.018 360.6C188.058 359.624 189.43 359.112 190.835 359.176H193.81C195.215 359.112 196.587 359.624 197.628 360.6C198.668 361.577 199.292 362.939 199.364 364.389C199.355 365.406 199.043 366.396 198.472 367.225L196.063 370.671H202.978C204.108 370.675 205.191 371.139 205.99 371.965C206.789 372.79 207.239 373.908 207.243 375.075V379.056C207.234 379.989 206.939 380.895 206.399 381.644L203.99 385.102H210.17C211.294 385.112 212.368 385.581 213.158 386.406C213.948 387.231 214.389 388.346 214.386 389.506V393.487C214.389 394.647 213.948 395.762 213.158 396.587C212.368 397.412 211.294 397.881 210.17 397.891H194.726V414.399H188.148V397.891H176.632C176.016 397.885 175.409 397.745 174.849 397.48C174.111 397.126 173.486 396.563 173.046 395.856C172.607 395.149 172.371 394.327 172.367 393.487V389.506C172.372 388.381 172.795 387.302 173.548 386.489C174.301 385.677 175.327 385.194 176.415 385.139L180.354 384.928L178.005 381.669C177.452 380.917 177.151 380 177.15 379.056V375.075C177.152 373.98 177.551 372.925 178.269 372.119C178.988 371.313 179.972 370.814 181.029 370.721C181.161 370.721 181.282 370.721 181.414 370.721H188.546L186.185 367.225ZM-1.74451 363.891C-1.04202 363.466 -0.318215 363.08 0.423892 362.734C1.12326 362.401 1.83901 362.106 2.56821 361.851C4.86566 361.045 7.27353 360.625 9.6999 360.607H101.532C107.525 360.623 113.268 363.091 117.504 367.469C121.739 371.848 124.122 377.781 124.132 383.97V384.169C121.08 385.678 117.668 386.231 114.315 385.76C110.963 385.29 107.817 383.815 105.267 381.519L103.954 380.275L102.629 381.519C99.4707 384.358 95.4251 385.922 91.2383 385.922C87.0515 385.922 83.006 384.358 79.8481 381.519L78.535 380.275L77.2219 381.519C74.0811 384.359 70.0485 385.925 65.8739 385.925C61.6993 385.925 57.6667 384.359 54.5259 381.519L53.2128 380.275L51.8997 381.519C48.7493 384.351 44.716 385.914 40.5396 385.923C37.7789 385.919 35.0599 385.228 32.6128 383.908C31.3856 383.253 30.2373 382.451 29.1915 381.519L28.3964 380.798L27.8784 380.337L26.5654 381.581L26.469 381.731C23.2945 384.473 19.281 385.962 15.1426 385.935C11.0042 385.908 7.00948 384.365 3.86925 381.581L2.60435 380.449L1.29126 381.693C1.05032 381.905 0.797349 382.104 0.544367 382.303C-1.6125 384.039 -4.13359 385.227 -6.81622 385.774C-7.90022 385.988 -9.0013 386.096 -10.105 386.097C-10.9803 386.095 -11.8542 386.025 -12.7191 385.886V383.97C-12.729 379.933 -11.7268 375.962 -9.81 372.443C-7.89318 368.925 -5.12699 365.978 -1.78065 363.891H-1.74451ZM151.96 376.506C153.818 379.665 156.277 382.403 159.188 384.555H151.803L151.924 384.741L154.068 387.963C156.69 391.98 160.111 395.373 164.103 397.916H151.647V414.449H147.467V397.916H135.082C139.071 395.373 142.488 391.98 145.105 387.963L147.382 384.555H139.998C143.175 382.222 145.819 379.198 147.744 375.697C148.464 374.422 149.089 373.091 149.611 371.716C149.683 371.903 149.767 372.089 149.852 372.288C150.443 373.751 151.148 375.161 151.96 376.506V376.506ZM168.332 395.266C165.26 393.691 162.501 391.535 160.2 388.909H168.199C168.199 389.108 168.199 389.307 168.199 389.506V393.487C168.182 394.083 168.226 394.679 168.332 395.266ZM-12.936 389.991V389.904L-12.3216 389.991C-11.659 390.053 -10.9964 390.091 -10.3218 390.091C-9.64721 390.091 -8.98462 390.091 -8.31 389.991C-6.05774 389.765 -3.85416 389.173 -1.78065 388.237L-0.901258 387.814C-0.479622 387.603 -0.0700322 387.366 0.303417 387.13C1.01309 386.712 1.70071 386.255 2.3634 385.761V385.761C3.23858 386.431 4.16527 387.026 5.13418 387.54L5.89313 387.914C8.23569 389.057 10.7566 389.76 13.338 389.991C13.8922 389.991 14.4583 390.053 15.0125 390.053C15.8785 390.052 16.7436 389.993 17.6026 389.879C21.2571 389.42 24.7346 387.993 27.6977 385.737L28.2398 386.147C29.5586 387.08 30.9725 387.86 32.4562 388.473C34.9671 389.507 37.6439 390.043 40.3468 390.053H40.4311C44.988 390.049 49.4242 388.541 53.0923 385.749C56.7611 388.54 61.1969 390.048 65.7534 390.053H66.5605C70.8559 389.882 75.0025 388.383 78.4627 385.749C82.1391 388.565 86.5949 390.085 91.172 390.085C95.7492 390.085 100.205 388.565 103.881 385.749C106.738 387.943 110.084 389.359 113.61 389.868C117.136 390.377 120.73 389.961 124.06 388.66V398.289C121.008 399.8 117.594 400.353 114.241 399.879C110.887 399.406 107.742 397.928 105.194 395.627L103.881 394.383L102.556 395.627C99.4018 398.473 95.355 400.041 91.1661 400.041C86.9771 400.041 82.9303 398.473 79.7758 395.627L78.4627 394.383L77.1497 395.627C74.0123 398.474 69.9784 400.044 65.8016 400.044C61.6248 400.044 57.591 398.474 54.4536 395.627L53.1405 394.383L51.8274 395.627C49.2258 397.992 45.9906 399.486 42.5492 399.913C39.1079 400.339 35.6222 399.678 32.5526 398.015C31.3228 397.365 30.174 396.563 29.1313 395.627L28.3362 394.918L27.8182 394.445L26.5051 395.689L26.4087 395.838C25.9737 396.223 25.5193 396.585 25.0475 396.921C24.4611 397.338 23.8495 397.716 23.2164 398.053C22.5798 398.407 21.9195 398.715 21.2407 398.973C19.3151 399.721 17.2747 400.105 15.2173 400.105C13.2896 400.1 11.376 399.764 9.55531 399.11C8.06086 398.569 6.64293 397.824 5.33895 396.896C4.81508 396.51 4.31236 396.095 3.83311 395.652L2.56821 394.52L1.25512 395.764C1.01419 395.987 0.76121 396.174 0.508228 396.373C-2.31835 398.658 -5.77096 399.964 -9.35806 400.105C-9.62309 400.105 -9.87607 400.105 -10.1411 400.105C-10.4061 400.105 -10.6591 400.105 -10.9242 400.105C-11.5376 400.081 -12.149 400.018 -12.7553 399.919L-12.936 389.991ZM128.348 388.909H139.022C136.105 392.257 132.441 394.819 128.348 396.373V388.909ZM155.911 402.22H176.234H176.632H183.932V414.374H155.911V402.22ZM75.5474 336.174V322.564H80.6432V336.248H75.5474V336.174ZM90.2445 336.174H83.6549V319.429H72.5357V336.174H65.9341V314.303L66.3437 313.657L67.705 311.479L68.2471 310.609L78.0893 294.871L88.4856 311.479L89.8469 313.657L90.2445 314.303V336.224V336.174ZM128.228 336.174H94.497V315.784H128.228V336.174ZM61.7178 315.809V336.174H45.4185V315.809H61.7178ZM-17.1523 400.018H-57.268C-58.2649 396.353 -59.9832 392.939 -62.3156 389.991H-17.1523V400.018ZM-56.4488 404.372H-17.1523V414.399H-56.2681V407.495C-56.2672 406.451 -56.3275 405.409 -56.4488 404.372V404.372ZM128.348 402.22H143.298V414.399H128.348V402.22ZM60.5492 300.793L57.8628 305.085C56.2242 303.783 54.6894 302.348 53.273 300.793H60.5492ZM18.5784 311.455C23.408 308.485 27.6308 304.572 31.0106 299.935L33.6368 296.439H25.6137C29.3274 293.992 32.4606 290.714 34.7812 286.847L36.8292 283.513H30.1794C34.211 280.433 37.2841 276.205 39.0217 271.347C40.7675 276.203 43.8439 280.431 47.876 283.513H41.2262L43.2742 286.847C45.5948 290.714 48.728 293.992 52.4418 296.439H44.4307L47.0569 299.935C49.5073 303.253 52.3757 306.22 55.586 308.755L53.8994 311.455H41.2022V336.174H36.8533V311.455H18.5784ZM205.002 414.399H198.978V402.245H210.134C211.622 402.232 213.079 401.802 214.35 401.001V414.35L205.002 414.399ZM214.314 363.804V381.942C213.376 381.365 212.336 380.989 211.254 380.835C211.374 380.25 211.435 379.654 211.435 379.056V375.075C211.422 372.831 210.577 370.678 209.073 369.058C207.569 367.438 205.522 366.475 203.351 366.367C203.492 365.73 203.561 365.079 203.556 364.426C203.484 361.821 202.415 359.352 200.584 357.56C198.753 355.767 196.309 354.796 193.786 354.859H190.799C188.49 354.852 186.248 355.665 184.45 357.161C182.786 350.308 178.649 344.371 172.885 340.565H191.787C197.751 340.578 203.467 343.031 207.685 347.386C211.902 351.742 214.277 357.645 214.29 363.804H214.314ZM98.0749 332.566H109.194V319.454H98.0749V332.566ZM101.087 322.614H106.182V329.506H101.05L101.087 322.614ZM124.614 319.504H113.507V332.616H124.614V319.504ZM121.602 329.456H116.518V322.564H121.602V329.456ZM67.6929 244.102C67.9993 241.815 67.7407 239.486 66.9412 237.331C66.1416 235.175 64.8271 233.264 63.1199 231.774C61.4127 230.284 59.3683 229.264 57.177 228.81C54.9856 228.355 52.7185 228.48 50.5865 229.173C48.9297 226.454 46.5739 224.264 43.782 222.846C40.9902 221.429 37.8719 220.84 34.775 221.146C31.6781 221.452 28.7243 222.64 26.243 224.578C23.7618 226.516 21.8506 229.128 20.7227 232.122C20.0588 231.997 19.3855 231.935 18.7109 231.935C15.6542 231.939 12.7237 233.194 10.5623 235.426C8.40098 237.658 7.18529 240.684 7.1821 243.841V246.018H67.4159L67.6929 244.102ZM11.6996 241.614C12.1565 240.06 13.0845 238.7 14.3467 237.732C15.609 236.765 17.1389 236.241 18.7109 236.24C19.613 236.243 20.507 236.415 21.3491 236.75L23.5898 237.645L24.156 235.244C24.7704 232.636 26.1525 230.288 28.112 228.524C30.0716 226.76 32.5123 225.666 35.0984 225.393C37.6846 225.121 40.289 225.682 42.5535 227.001C44.8179 228.319 46.6311 230.33 47.7435 232.756L48.6711 234.772L50.6107 233.764C51.8623 233.098 53.2505 232.753 54.6584 232.756C56.9584 232.759 59.1699 233.673 60.8372 235.309C62.5045 236.945 63.5009 239.18 63.6211 241.552L11.6996 241.614ZM192.064 244.401C194.153 244.401 196.196 243.761 197.933 242.562C199.671 241.363 201.025 239.659 201.824 237.665C202.624 235.672 202.833 233.478 202.426 231.362C202.018 229.245 201.012 227.301 199.534 225.775C198.057 224.25 196.174 223.211 194.125 222.79C192.075 222.369 189.951 222.585 188.021 223.41C186.09 224.236 184.44 225.635 183.279 227.429C182.118 229.223 181.499 231.332 181.499 233.49C181.505 236.381 182.62 239.151 184.601 241.193C186.581 243.236 189.265 244.385 192.064 244.388V244.401ZM198.412 233.49C198.412 234.787 198.04 236.055 197.342 237.133C196.645 238.211 195.653 239.051 194.493 239.547C193.333 240.043 192.057 240.173 190.825 239.92C189.594 239.667 188.462 239.043 187.574 238.126C186.687 237.209 186.082 236.041 185.837 234.769C185.592 233.497 185.718 232.179 186.198 230.981C186.679 229.783 187.492 228.759 188.536 228.039C189.58 227.319 190.808 226.934 192.064 226.934C193.738 226.937 195.344 227.622 196.532 228.84C197.721 230.058 198.396 231.711 198.412 233.44V233.49Z" fill="#1D1D1B"/>
<path d="M63.6211 241.602H11.6996C12.1565 240.048 13.0845 238.688 14.3467 237.72C15.609 236.752 17.1389 236.229 18.7109 236.227C19.613 236.23 20.507 236.403 21.3491 236.737L23.5898 237.633L24.156 235.232C24.7704 232.623 26.1525 230.276 28.112 228.512C30.0716 226.747 32.5123 225.654 35.0984 225.381C37.6846 225.108 40.289 225.67 42.5535 226.988C44.8179 228.307 46.6311 230.317 47.7435 232.744L48.6711 234.759L50.6107 233.752C51.8623 233.086 53.2505 232.74 54.6584 232.744C56.9684 232.748 59.1882 233.67 60.8571 235.319C62.526 236.969 63.5159 239.218 63.6211 241.602V241.602ZM103.954 385.761C100.277 388.577 95.8215 390.097 91.2443 390.097C86.6672 390.097 82.2114 388.577 78.535 385.761C75.0747 388.395 70.9282 389.895 66.6328 390.066V390.066H65.8257C61.2692 390.06 56.8334 388.552 53.1646 385.761C49.4965 388.553 45.0602 390.062 40.5034 390.066H40.4191C37.7162 390.055 35.0394 389.519 32.5285 388.486C31.0448 387.872 29.6309 387.092 28.3121 386.16L27.77 385.749C24.8069 388.005 21.3294 389.432 17.6748 389.892C16.8159 390.006 15.9508 390.064 15.0848 390.066C14.5307 390.066 13.9644 390.066 13.4103 390.004C10.8289 389.773 8.30797 389.07 5.9654 387.926L5.20645 387.553C4.23754 387.039 3.3109 386.444 2.43572 385.774C1.77303 386.267 1.08536 386.724 0.375695 387.142C-0.0218481 387.379 -0.431438 387.615 -0.82898 387.827L-1.70837 388.25C-3.78188 389.185 -5.98546 389.777 -8.23772 390.004C-8.91234 390.066 -9.57493 390.103 -10.2495 390.103C-10.9242 390.103 -11.5867 390.103 -12.2493 390.004L-12.8637 389.917V399.869C-12.2574 399.969 -11.646 400.031 -11.0326 400.056C-10.7676 400.056 -10.5146 400.056 -10.2495 400.056C-9.98452 400.056 -9.73151 400.056 -9.46648 400.056C-5.87937 399.915 -2.42676 398.609 0.399812 396.324C0.652793 396.124 0.905769 395.938 1.1467 395.714L2.4598 394.47L3.72469 395.602C4.20394 396.045 4.70667 396.46 5.23053 396.846C6.53451 397.774 7.95244 398.519 9.4469 399.06C11.2676 399.714 13.1811 400.051 15.1089 400.056C17.1662 400.055 19.2067 399.672 21.1323 398.924C21.8111 398.665 22.4713 398.358 23.1079 398.003C23.741 397.666 24.3526 397.288 24.939 396.871C25.4109 396.535 25.8652 396.174 26.3003 395.788L26.3967 395.639L27.7098 394.395L28.2278 394.868L29.0229 395.577C30.0656 396.513 31.2144 397.315 32.4441 397.966C35.5137 399.628 38.9995 400.29 42.4408 399.863C45.8822 399.437 49.1173 397.942 51.7189 395.577L53.0321 394.333L54.3452 395.577C57.4826 398.424 61.5164 399.995 65.6932 399.995C69.8699 399.995 73.9038 398.424 77.0412 395.577L78.3543 394.333L79.6674 395.577C82.8219 398.423 86.8687 399.992 91.0576 399.992C95.2465 399.992 99.2934 398.423 102.448 395.577L103.773 394.333L105.086 395.577C108.238 398.423 112.283 399.993 116.47 399.993C119.058 399.979 121.611 399.381 123.951 398.239V388.61C120.621 389.912 117.028 390.327 113.502 389.818C109.976 389.31 106.63 387.893 103.773 385.699L103.954 385.761ZM124.132 384.007C124.126 377.81 121.739 371.868 117.495 367.486C113.251 363.103 107.498 360.638 101.496 360.632H9.66377C6.46112 360.633 3.29672 361.351 0.387753 362.734C-0.354354 363.08 -1.07816 363.466 -1.78065 363.891C-5.17257 365.954 -7.98533 368.894 -9.9415 372.422C-11.8977 375.949 -12.9297 379.942 -12.936 384.007V385.749C-12.071 385.888 -11.1971 385.959 -10.3218 385.961C-7.32571 385.966 -4.38065 385.159 -1.78065 383.622C-1.0445 383.19 -0.33989 382.704 0.327534 382.166C0.580516 381.967 0.833492 381.768 1.07443 381.557L2.38752 380.313L3.65241 381.445C6.77841 384.259 10.7784 385.822 14.9255 385.849C19.0726 385.877 23.0915 384.367 26.2521 381.594L26.3485 381.445L27.6616 380.201L28.1796 380.661L28.9747 381.383C30.0205 382.314 31.1688 383.116 32.396 383.771C34.843 385.091 37.562 385.782 40.3227 385.786C44.4991 385.777 48.5324 384.214 51.6828 381.383L52.9959 380.138L54.309 381.383C57.4499 384.222 61.4824 385.788 65.657 385.788C69.8316 385.788 73.8642 384.222 77.0051 381.383L78.3182 380.138L79.6313 381.383C82.7891 384.221 86.8347 385.785 91.0215 385.785C95.2083 385.785 99.2538 384.221 102.412 381.383L103.737 380.138L105.05 381.383C107.6 383.678 110.746 385.153 114.098 385.624C117.451 386.095 120.864 385.541 123.915 384.032L124.132 384.007ZM-61.6892 400.018C-62.9665 396.15 -65.2007 392.693 -68.1703 389.991C-69.0397 389.189 -69.9704 388.461 -70.9531 387.814C-72.2757 386.936 -73.6851 386.206 -75.1574 385.637C-77.7 384.633 -80.3982 384.115 -83.1203 384.107H-175.266V414.399H-174.182C-165.315 414.399 -149.016 418.89 -144.137 425.77L-144.077 425.87C-143.314 426.953 -142.63 428.092 -142.029 429.278C-141.728 429.875 -141.439 430.522 -141.174 431.132C-140.818 430.247 -140.416 429.384 -139.969 428.544C-137.636 424.257 -134.241 420.688 -130.132 418.202C-126.023 415.717 -121.348 414.404 -116.586 414.399H-60.5327V407.495C-60.5412 406.45 -60.6177 405.407 -60.7616 404.372C-60.8529 403.64 -60.9816 402.914 -61.1471 402.195C-61.2912 401.46 -61.4721 400.734 -61.6892 400.018ZM242.274 266.905H237.54C221.576 266.922 206.27 273.483 194.987 285.146C183.704 296.809 177.367 312.621 177.367 329.108V336.099H189.799V331.397C189.812 317.718 195.079 304.603 204.445 294.931C213.811 285.259 226.511 279.819 239.757 279.806H242.274V266.905ZM-240.246 279.744H-230.476V266.905H-240.246V279.744ZM23.0597 441.98C23.0606 438.724 23.6194 435.493 24.7101 432.438C25.0354 431.542 25.4089 430.659 25.8064 429.801L25.9992 429.428C26.3124 428.793 26.6376 428.184 26.987 427.586C27.3363 426.989 27.6616 426.504 28.023 425.994C28.0482 425.95 28.0764 425.909 28.1073 425.87C28.6735 425.061 29.312 424.29 29.9144 423.543L30.2155 423.207C30.5408 422.847 30.8781 422.486 31.2274 422.15C36.207 417.155 42.8736 414.357 49.8156 414.35H124.132V402.705C121.743 403.647 119.208 404.132 116.651 404.136C112.078 404.126 107.628 402.605 103.954 399.794C100.277 402.61 95.8215 404.13 91.2443 404.13C86.6672 404.13 82.2114 402.61 78.535 399.794C75.0772 402.433 70.9292 403.933 66.6328 404.099V404.099H65.8257C61.2698 404.089 56.8354 402.581 53.1646 399.794C49.4938 402.581 45.0593 404.089 40.5034 404.099H40.4191C37.7149 404.09 35.0369 403.55 32.5285 402.506C31.0451 401.897 29.6312 401.121 28.3121 400.192L27.77 399.782C27.5411 399.956 27.3002 400.105 27.0713 400.267C26.481 400.678 25.8666 401.063 25.2643 401.412C24.6619 401.76 24.0596 402.083 23.3609 402.37C21.4388 403.2 19.4096 403.736 17.3375 403.962C16.6059 404.052 15.8698 404.097 15.133 404.099C14.2467 404.092 13.3616 404.03 12.4827 403.912C11.4667 403.773 10.4606 403.565 9.47101 403.29C8.61589 403.046 7.77522 402.751 6.95325 402.407C6.375 402.158 5.8088 401.884 5.25465 401.586C4.35928 401.097 3.49785 400.544 2.67663 399.931L2.48388 399.794L2.24296 399.968C1.65984 400.418 1.0525 400.834 0.423892 401.213C-0.178446 401.573 -0.780782 401.897 -1.41926 402.195L-1.68429 402.32C-5.17881 403.941 -9.04227 404.523 -12.8396 403.999V443H23.1561L23.0597 441.98Z" fill="#8C9091"/>
<path d="M-196.721 299.848C-192.149 299.854 -187.766 301.734 -184.534 305.074C-181.302 308.413 -179.485 312.941 -179.482 317.662V414.399H-209.009C-213.581 414.396 -217.965 412.52 -221.199 409.182C-224.434 405.845 -226.253 401.319 -226.26 396.597V299.848H-196.721ZM147.744 414.399H151.647V397.866H164.091C160.099 395.324 156.678 391.931 154.056 387.914L151.912 384.692L151.791 384.505H159.176C156.265 382.354 153.806 379.616 151.948 376.456C151.136 375.111 150.431 373.701 149.84 372.239C149.755 372.04 149.671 371.853 149.599 371.666C149.076 373.041 148.452 374.372 147.732 375.647C145.807 379.149 143.163 382.172 139.986 384.505H147.37L145.093 387.914C142.476 391.93 139.059 395.323 135.07 397.866H147.503V414.399H147.744ZM188.148 414.399H194.726V397.891H210.098C211.221 397.881 212.295 397.412 213.085 396.587C213.876 395.762 214.317 394.647 214.314 393.487V389.506C214.317 388.346 213.876 387.231 213.085 386.406C212.295 385.581 211.221 385.112 210.098 385.102H203.918L206.327 381.644C206.866 380.895 207.162 379.989 207.17 379.056V375.075C207.167 373.908 206.717 372.79 205.918 371.965C205.119 371.139 204.036 370.675 202.906 370.671H195.991L198.4 367.225C198.971 366.396 199.282 365.406 199.292 364.389C199.22 362.939 198.596 361.577 197.555 360.6C196.515 359.624 195.143 359.112 193.738 359.176H190.799C189.394 359.112 188.022 359.624 186.982 360.6C185.941 361.577 185.317 362.939 185.245 364.389C185.249 365.409 185.566 366.402 186.149 367.225L188.558 370.671H181.426C181.294 370.671 181.173 370.671 181.041 370.671C179.984 370.765 179 371.263 178.282 372.069C177.563 372.875 177.164 373.93 177.162 375.025V379.006C177.163 379.95 177.464 380.868 178.017 381.619L180.366 384.878L176.427 385.09C175.339 385.144 174.313 385.627 173.56 386.439C172.807 387.252 172.384 388.332 172.379 389.456V393.437C172.383 394.277 172.619 395.099 173.058 395.806C173.498 396.513 174.123 397.077 174.861 397.431C175.421 397.695 176.028 397.835 176.644 397.841H188.16V414.35L188.148 414.399ZM162.549 325.288V336.087H173.15V329.095C173.169 311.466 179.959 294.564 192.031 282.098C204.102 269.633 220.469 262.621 237.54 262.601H242.274V253.196H232.36C213.85 253.212 196.102 260.813 183.014 274.33C169.925 287.846 162.565 306.173 162.549 325.288V325.288ZM242.274 418.803H49.8156C45.6748 418.809 41.6169 420.002 38.0941 422.249C34.8252 424.314 32.1151 427.198 30.2155 430.634C29.8782 431.256 29.565 431.878 29.2879 432.538C28.7989 433.63 28.3961 434.762 28.0832 435.921V435.921C27.5466 437.91 27.2711 439.965 27.2641 442.03V443H242.274V418.803ZM-230.476 253.196H-240.246V262.601H-230.476V253.196ZM-143.21 442.03C-143.21 441.383 -143.21 440.786 -143.306 440.114C-143.434 438.543 -143.712 436.988 -144.137 435.474C-146.896 425.82 -163.966 418.754 -174.182 418.754H-240.246V443H-151.642L-143.21 442.03Z" fill="#A2D45E"/>
<path d="M73.7283 287.868L75.5835 290.828L64.1753 309.066L62.6814 311.455H58.8867L59.0554 311.193L61.3443 307.536L65.5606 300.793L67.5243 297.658L73.644 287.868H73.7283ZM101.05 329.456H106.146V322.564H101.05V329.456ZM116.482 329.456H121.566V322.564H116.482V329.456ZM192.027 226.922C190.772 226.922 189.544 227.306 188.5 228.027C187.456 228.747 186.643 229.771 186.162 230.969C185.682 232.167 185.556 233.485 185.801 234.757C186.046 236.029 186.65 237.197 187.538 238.114C188.426 239.031 189.557 239.655 190.789 239.908C192.02 240.161 193.297 240.031 194.457 239.535C195.617 239.039 196.609 238.198 197.306 237.12C198.004 236.042 198.376 234.775 198.376 233.478C198.373 231.747 197.708 230.086 196.526 228.859C195.344 227.631 193.74 226.935 192.064 226.922H192.027Z" fill="#F3BD48"/>
</g>
<g clip-path="url(#clip1_969_11045)">
<path d="M147.154 65.2495H141.035C139.129 62.8351 136.586 61.0046 133.694 59.9657C130.802 58.9269 127.678 58.7214 124.675 59.3724C121.672 60.0235 118.912 61.5051 116.707 63.6491C114.503 65.7931 112.942 68.5135 112.202 71.5016C111.252 68.0875 109.212 65.0795 106.394 62.9381C103.576 60.7967 100.135 59.64 96.5982 59.6451H80.4981V75.8254C80.4941 78.2444 81.0323 80.6334 82.0731 82.8159C83.1139 84.9985 84.6306 86.9189 86.5112 88.4352C86.6294 95.162 89.3688 101.576 94.1436 106.305C98.9184 111.034 105.35 113.704 112.063 113.743C118.776 113.782 125.238 111.188 130.068 106.515C134.898 101.842 137.712 95.4615 137.908 88.7365C140.638 86.7424 142.683 83.948 143.76 80.7393C144.837 77.5306 144.894 74.0659 143.922 70.8237L145.425 68.2927L147.154 65.2495Z" fill="#2D2A26"/>
<path d="M100.536 77.723L96.4023 73.58V64.2695H96.5978C97.9257 64.2741 99.2429 64.5086 100.491 64.9625L100.536 77.723ZM85.0977 66.2732V72.7363H91.5467L85.0977 66.2732ZM93.5912 64.2695H87.1121L93.5912 70.7326V64.2695ZM94.418 75.5837H85.0977V75.8247C85.1035 77.1604 85.3374 78.4852 85.7892 79.7418H98.537L94.418 75.5837ZM87.3225 82.5741C88.2231 83.8406 89.3708 84.9109 90.696 85.72C92.0213 86.5292 93.4967 87.0604 95.0327 87.2815C96.5688 87.5026 98.1337 87.4091 99.6327 87.0065C101.132 86.6039 102.534 85.9007 103.753 84.9394L101.393 82.5741H87.3225ZM103.408 66.454V80.5704L105.738 82.9357C106.691 81.7094 107.388 80.303 107.786 78.8005C108.185 77.2981 108.276 75.7305 108.056 74.1917C107.836 72.6529 107.308 71.1744 106.504 69.8449C105.7 68.5154 104.637 67.3621 103.378 66.454H103.408Z" fill="#A2D45E"/>
<path d="M128.168 87.3505C125.825 87.3505 123.535 86.6542 121.587 85.3498C119.639 84.0453 118.121 82.1912 117.224 80.022C116.327 77.8527 116.093 75.4657 116.55 73.1629C117.007 70.86 118.135 68.7447 119.792 67.0844C121.449 65.4241 123.559 64.2935 125.857 63.8354C128.155 63.3773 130.537 63.6124 132.701 64.511C134.866 65.4095 136.716 66.9311 138.018 68.8834C139.319 70.8357 140.014 73.1309 140.014 75.4789C140.01 78.6262 138.761 81.6435 136.54 83.869C134.319 86.0945 131.309 87.3465 128.168 87.3505V87.3505ZM112.248 109.045C107.212 109.038 102.343 107.23 98.5183 103.946C94.6934 100.662 92.1632 96.1184 91.3828 91.1319C93.4945 91.8567 95.733 92.1357 97.9575 91.9513C100.182 91.7668 102.344 91.123 104.308 90.0603C106.273 88.9975 107.996 87.5389 109.37 85.7762C110.744 84.0135 111.74 81.9848 112.293 79.8178C112.874 81.9579 113.879 83.9587 115.249 85.7002C116.619 87.4417 118.326 88.8882 120.267 89.9531C122.209 91.0179 124.344 91.6792 126.547 91.8973C128.749 92.1154 130.972 91.8858 133.084 91.2223C132.288 96.1885 129.754 100.709 125.937 103.974C122.12 107.239 117.267 109.037 112.248 109.045V109.045Z" fill="#F3BD48"/>
<path d="M133.7 68.2018C132.853 67.9694 131.956 67.9941 131.123 68.2729C130.291 68.5517 129.559 69.072 129.022 69.7679C128.484 70.4637 128.165 71.3038 128.104 72.1817C128.044 73.0595 128.245 73.9356 128.681 74.699C129.118 75.4624 129.771 76.0786 130.558 76.4697C131.344 76.8607 132.229 77.0089 133.1 76.8955C133.971 76.7822 134.788 76.4123 135.449 75.8328C136.11 75.2533 136.584 74.4903 136.812 73.6404C137.115 72.5058 136.959 71.2967 136.376 70.2775C135.792 69.2584 134.83 68.5121 133.7 68.2018Z" fill="#2D2A26"/>
<path d="M101.736 126.473C103.648 125.331 105.827 124.73 108.046 124.732V131.018C106.373 131.018 104.768 131.692 103.584 132.893C102.401 134.093 101.736 135.722 101.736 137.419V144.627V149.646H95.6025V144.627V137.407V125.193H100.55L101.812 126.473H101.736ZM174.631 137.202L183.213 149.633H175.931L170.997 142.464L166.05 149.633H158.78L167.349 137.202L159.07 125.193H166.34L170.997 131.927L175.641 125.193H182.91L174.631 137.202ZM87.2856 125.193H86.4527L85.1906 126.473C83.2781 125.332 81.0993 124.73 78.8804 124.732C75.5668 124.732 72.3888 126.067 70.0457 128.444C67.7026 130.821 66.3863 134.045 66.3863 137.407C66.3863 140.769 67.7022 143.995 70.0449 146.374C72.3877 148.753 75.5656 150.091 78.8804 150.094C81.0993 150.096 83.2781 149.494 85.1906 148.353V148.353L86.4527 149.633H91.3999V137.407V125.193H87.2856V125.193ZM78.8931 143.795C77.2195 143.795 75.6145 143.121 74.4311 141.92C73.2477 140.72 72.5829 139.092 72.5829 137.394C72.5829 135.696 73.2477 134.068 74.4311 132.867C75.6145 131.667 77.2195 130.992 78.8931 130.992C80.5666 130.992 82.1717 131.667 83.355 132.867C84.5384 134.068 85.2033 135.696 85.2033 137.394C85.2033 138.234 85.04 139.067 84.7229 139.843C84.4058 140.62 83.941 141.326 83.355 141.92C82.7691 142.515 82.0735 142.986 81.3079 143.308C80.5423 143.63 79.7217 143.795 78.8931 143.795V143.795ZM127.153 126.46C125.241 125.318 123.062 124.717 120.843 124.719C117.528 124.719 114.349 126.054 112.004 128.43C109.659 130.807 108.34 134.031 108.336 137.394C108.336 139.06 108.66 140.71 109.288 142.249C109.917 143.788 110.838 145.187 112 146.365C113.161 147.543 114.54 148.478 116.057 149.116C117.575 149.753 119.201 150.081 120.843 150.081C123.062 150.083 125.241 149.482 127.153 148.34L128.415 149.621H133.363V130.211V116H127.153V126.46ZM120.843 143.795C119.17 143.795 117.565 143.121 116.381 141.92C115.198 140.72 114.533 139.092 114.533 137.394C114.533 135.696 115.198 134.068 116.381 132.867C117.565 131.667 119.17 130.992 120.843 130.992C122.517 130.992 124.122 131.667 125.305 132.867C126.489 134.068 127.153 135.696 127.153 137.394C127.153 138.234 126.99 139.067 126.673 139.843C126.356 140.62 125.891 141.326 125.305 141.92C124.719 142.515 124.024 142.986 123.258 143.308C122.492 143.63 121.672 143.795 120.843 143.795V143.795ZM148.457 143.795C147.299 143.794 146.164 143.47 145.175 142.858C144.187 142.246 143.384 141.37 142.853 140.326H160.623C160.846 139.369 160.961 138.39 160.963 137.407C160.96 134.044 159.641 130.82 157.296 128.443C154.951 126.067 151.771 124.732 148.457 124.732C145.143 124.732 141.965 126.067 139.622 128.444C137.279 130.821 135.962 134.045 135.962 137.407V137.407C135.96 137.882 135.989 138.357 136.051 138.828C136.044 138.921 136.044 139.016 136.051 139.109C136.101 139.493 136.164 139.865 136.24 140.223C136.24 140.223 136.24 140.287 136.24 140.326C136.887 143.103 138.439 145.579 140.644 147.351C142.85 149.124 145.58 150.09 148.394 150.094C150.035 150.097 151.66 149.77 153.176 149.133C154.692 148.496 156.069 147.561 157.228 146.381L152.849 141.926C151.685 143.104 150.113 143.775 148.469 143.795H148.457ZM148.457 130.992C149.616 130.995 150.752 131.321 151.74 131.935C152.729 132.549 153.532 133.428 154.06 134.475H142.853C143.386 133.431 144.192 132.556 145.183 131.946C146.174 131.337 147.311 131.015 148.469 131.018L148.457 130.992ZM59.912 125.167H59.0664L57.8044 126.447C55.8926 125.304 53.7133 124.703 51.4942 124.706C48.1805 124.706 45.0026 126.041 42.6595 128.418C40.3164 130.795 39 134.019 39 137.381C39 140.744 40.316 143.969 42.6587 146.348C45.0015 148.727 48.1794 150.065 51.4942 150.069C53.7133 150.072 55.8926 149.471 57.8044 148.327V150.081C57.8044 151.779 57.1396 153.407 55.9562 154.608C54.7728 155.809 53.1677 156.483 51.4942 156.483C50.2281 156.479 48.9927 156.088 47.9484 155.362C46.904 154.636 46.0992 153.608 45.6383 152.412L41.0571 157.059C42.1928 158.815 43.7416 160.256 45.5637 161.253C47.3859 162.25 49.424 162.771 51.4942 162.769C54.7433 162.771 57.8652 161.488 60.1977 159.194C62.5302 156.899 63.8899 153.773 63.9884 150.478V125.193H59.8868L59.912 125.167ZM57.817 137.381C57.817 139.079 57.1522 140.707 55.9688 141.907C54.7854 143.108 53.1804 143.782 51.5068 143.782C49.8332 143.782 48.2282 143.108 47.0448 141.907C45.8615 140.707 45.1966 139.079 45.1966 137.381C45.1966 135.683 45.8615 134.055 47.0448 132.854C48.2282 131.654 49.8332 130.979 51.5068 130.979C53.1804 130.979 54.7854 131.654 55.9688 132.854C57.1522 134.055 57.817 135.683 57.817 137.381V137.381Z" fill="#1D1D1B"/>
<path d="M185.32 131.607C184.567 131.603 183.822 131.751 183.126 132.041C182.43 132.331 181.798 132.758 181.265 133.297C180.733 133.836 180.31 134.477 180.023 135.182C179.735 135.887 179.588 136.643 179.59 137.406C179.587 138.171 179.732 138.928 180.019 139.635C180.306 140.342 180.728 140.984 181.261 141.524C181.793 142.065 182.426 142.493 183.123 142.783C183.82 143.074 184.566 143.222 185.32 143.219C186.072 143.221 186.817 143.071 187.512 142.78C188.207 142.488 188.839 142.06 189.37 141.52C189.902 140.979 190.322 140.338 190.608 139.632C190.894 138.926 191.04 138.17 191.037 137.406C191.038 136.644 190.892 135.889 190.605 135.185C190.318 134.481 189.897 133.841 189.366 133.302C188.835 132.763 188.204 132.336 187.509 132.045C186.815 131.754 186.071 131.605 185.32 131.607ZM185.32 142.016C184.734 142.007 184.156 141.881 183.619 141.644C183.082 141.407 182.597 141.064 182.192 140.635C181.787 140.207 181.47 139.7 181.259 139.146C181.049 138.592 180.949 138 180.966 137.406C180.949 136.813 181.049 136.221 181.259 135.667C181.47 135.113 181.787 134.606 182.192 134.178C182.597 133.749 183.082 133.406 183.619 133.169C184.156 132.932 184.734 132.806 185.32 132.797C185.904 132.807 186.481 132.935 187.016 133.172C187.552 133.41 188.035 133.753 188.439 134.182C188.843 134.611 189.159 135.117 189.369 135.67C189.578 136.224 189.678 136.814 189.661 137.406C189.678 137.999 189.578 138.589 189.369 139.143C189.159 139.696 188.843 140.202 188.439 140.631C188.035 141.06 187.552 141.403 187.016 141.64C186.481 141.878 185.904 142.006 185.32 142.016V142.016ZM187.263 137.458C187.487 137.121 187.606 136.724 187.604 136.318C187.609 136.049 187.562 135.781 187.464 135.531C187.367 135.28 187.221 135.052 187.036 134.859C186.861 134.662 186.646 134.506 186.407 134.4C186.168 134.294 185.909 134.241 185.648 134.244H183.262V140.466H184.524V138.354H185.244L186.392 140.466H187.856L186.594 138.098C186.864 137.941 187.093 137.722 187.263 137.458V137.458ZM186.102 136.869C186.046 136.936 185.977 136.99 185.898 137.028C185.82 137.065 185.734 137.085 185.648 137.086H184.575V135.563H185.648C185.734 135.564 185.82 135.584 185.898 135.622C185.977 135.659 186.046 135.713 186.102 135.781C186.231 135.928 186.299 136.121 186.291 136.318C186.301 136.52 186.233 136.717 186.102 136.869V136.869Z" fill="#1D1D1B"/>
<path d="M128.506 151.501V154.219C126.957 154.117 126.182 154.738 126.182 156.083V156.192H128.506V158.911H126.182V167.154H123.354V158.911H121.776V156.192H123.354V156.083C123.354 154.519 123.786 153.342 124.648 152.553C125.525 151.749 126.811 151.398 128.506 151.501ZM137.726 157.486V156.192H140.555V167.154H137.726V165.86C136.879 166.927 135.688 167.461 134.153 167.461C132.691 167.461 131.435 166.905 130.382 165.795C129.345 164.669 128.826 163.295 128.826 161.673C128.826 160.065 129.345 158.699 130.382 157.573C131.435 156.448 132.691 155.885 134.153 155.885C135.688 155.885 136.879 156.419 137.726 157.486ZM132.509 163.909C133.079 164.479 133.802 164.764 134.679 164.764C135.556 164.764 136.28 164.479 136.85 163.909C137.434 163.325 137.726 162.579 137.726 161.673C137.726 160.767 137.434 160.029 136.85 159.459C136.28 158.874 135.556 158.582 134.679 158.582C133.802 158.582 133.079 158.874 132.509 159.459C131.939 160.029 131.654 160.767 131.654 161.673C131.654 162.579 131.939 163.325 132.509 163.909ZM155.242 155.885C156.499 155.885 157.501 156.295 158.246 157.113C159.006 157.932 159.386 159.028 159.386 160.402V167.154H156.558V160.599C156.558 159.941 156.397 159.43 156.076 159.064C155.754 158.699 155.301 158.516 154.716 158.516C154.073 158.516 153.569 158.728 153.204 159.152C152.853 159.576 152.677 160.19 152.677 160.993V167.154H149.849V160.599C149.849 159.941 149.689 159.43 149.367 159.064C149.046 158.699 148.592 158.516 148.008 158.516C147.379 158.516 146.875 158.735 146.495 159.174C146.13 159.598 145.947 160.204 145.947 160.993V167.154H143.119V156.192H145.947V157.354C146.605 156.375 147.621 155.885 148.994 155.885C150.354 155.885 151.347 156.412 151.976 157.464C152.692 156.412 153.781 155.885 155.242 155.885ZM163.191 154.877C162.723 154.877 162.314 154.709 161.963 154.373C161.627 154.022 161.459 153.613 161.459 153.145C161.459 152.677 161.627 152.268 161.963 151.917C162.314 151.567 162.723 151.391 163.191 151.391C163.673 151.391 164.083 151.567 164.419 151.917C164.769 152.268 164.945 152.677 164.945 153.145C164.945 153.613 164.769 154.022 164.419 154.373C164.083 154.709 163.673 154.877 163.191 154.877ZM164.616 167.154H161.788V156.192H164.616V167.154ZM170.033 167.154H167.204V151.15H170.033V167.154ZM177.334 163.558L179.768 156.192H182.793L178.803 167.154C178.233 168.732 177.473 169.872 176.523 170.574C175.588 171.29 174.419 171.612 173.016 171.538V168.908C173.761 168.922 174.36 168.762 174.813 168.425C175.266 168.089 175.624 167.548 175.888 166.803L171.393 156.192H174.484L177.334 163.558Z" fill="#F2F2F2"/>
</g>
<defs>
<clipPath id="clip0_969_11045">
<rect y="221" width="221" height="222" rx="20" fill="white"/>
</clipPath>
<clipPath id="clip1_969_11045">
<rect width="152" height="114" fill="white" transform="translate(39 59)"/>
</clipPath>
</defs>
</svg>
