<svg width="221" height="442" viewBox="0 0 221 442" fill="none" xmlns="http://www.w3.org/2000/svg">
<rect width="221" height="442" rx="20" fill="#FF5100"/>
<g clip-path="url(#clip0_969_11711)">
<path d="M147.156 65.2495H141.037C139.131 62.8351 136.588 61.0046 133.696 59.9657C130.804 58.9269 127.679 58.7214 124.677 59.3724C121.674 60.0235 118.914 61.5051 116.709 63.6491C114.505 65.7931 112.944 68.5135 112.204 71.5016C111.254 68.0875 109.214 65.0795 106.396 62.9381C103.578 60.7967 100.137 59.64 96.6002 59.6451H80.5V75.8254C80.496 78.2444 81.0343 80.6334 82.0751 82.8159C83.1158 84.9985 84.6325 86.9189 86.5132 88.4352C86.6314 95.162 89.3707 101.576 94.1456 106.305C98.9204 111.034 105.352 113.704 112.065 113.743C118.778 113.782 125.24 111.188 130.07 106.515C134.9 101.842 137.714 95.4615 137.91 88.7365C140.64 86.7424 142.685 83.948 143.762 80.7393C144.839 77.5306 144.896 74.0659 143.924 70.8237L145.427 68.2927L147.156 65.2495Z" fill="#2D2A26"/>
<path d="M100.54 77.7234L96.4063 73.5804V64.2699H96.6017C97.9296 64.2745 99.2468 64.5089 100.495 64.9629L100.54 77.7234ZM85.1016 66.2736V72.7367H91.5506L85.1016 66.2736ZM93.5951 64.2699H87.116L93.5951 70.733V64.2699ZM94.4219 75.5841H85.1016V75.8251C85.1074 77.1608 85.3413 78.4856 85.7931 79.7421H98.5409L94.4219 75.5841ZM87.3264 82.5744C88.227 83.841 89.3747 84.9112 90.6999 85.7204C92.0252 86.5295 93.5006 87.0607 95.0367 87.2819C96.5727 87.503 98.1376 87.4094 99.6366 87.0068C101.136 86.6043 102.537 85.901 103.757 84.9397L101.397 82.5744H87.3264ZM103.412 66.4544V80.5707L105.742 82.936C106.695 81.7098 107.392 80.3033 107.79 78.8009C108.189 77.2984 108.28 75.7309 108.06 74.1921C107.84 72.6532 107.312 71.1748 106.508 69.8453C105.704 68.5157 104.641 67.3624 103.381 66.4544H103.412Z" fill="#E0E0E0"/>
<path d="M128.17 87.3501C125.827 87.3501 123.537 86.6539 121.589 85.3494C119.641 84.0449 118.123 82.1908 117.226 80.0216C116.329 77.8523 116.095 75.4654 116.552 73.1625C117.009 70.8596 118.137 68.7443 119.794 67.084C121.45 65.4238 123.561 64.2931 125.859 63.835C128.157 63.377 130.539 63.6121 132.703 64.5106C134.868 65.4091 136.718 66.9308 138.02 68.883C139.321 70.8353 140.016 73.1306 140.016 75.4785C140.012 78.6259 138.763 81.6431 136.542 83.8686C134.321 86.0941 131.311 87.3461 128.17 87.3501ZM112.25 109.044C107.214 109.037 102.345 107.229 98.5203 103.945C94.6953 100.662 92.1651 96.118 91.3848 91.1316C93.4964 91.8564 95.735 92.1353 97.9595 91.9509C100.184 91.7665 102.346 91.1226 104.31 90.0599C106.275 88.9972 107.998 87.5386 109.372 85.7758C110.746 84.0131 111.742 81.9844 112.295 79.8174C112.876 81.9575 113.881 83.9583 115.251 85.6998C116.621 87.4414 118.328 88.8879 120.269 89.9527C122.211 91.0176 124.346 91.6788 126.548 91.8969C128.751 92.115 130.974 91.8854 133.086 91.222C132.29 96.1881 129.756 100.708 125.939 103.974C122.122 107.239 117.269 109.037 112.25 109.044Z" fill="#FF5100"/>
<path d="M133.7 68.202C132.853 67.9696 131.956 67.9944 131.123 68.2732C130.291 68.552 129.559 69.0723 129.022 69.7681C128.484 70.4639 128.165 71.304 128.104 72.1819C128.044 73.0598 128.245 73.9359 128.681 74.6993C129.118 75.4626 129.771 76.0789 130.558 76.4699C131.344 76.8609 132.229 77.0092 133.1 76.8958C133.971 76.7824 134.788 76.4125 135.449 75.833C136.11 75.2536 136.584 74.4905 136.812 73.6406C137.115 72.506 136.959 71.2969 136.376 70.2778C135.792 69.2586 134.83 68.5123 133.7 68.202Z" fill="#2D2A26"/>
<path d="M101.736 126.473C103.648 125.331 105.827 124.73 108.046 124.732V131.018C106.373 131.018 104.768 131.692 103.584 132.893C102.401 134.093 101.736 135.722 101.736 137.419V144.627V149.646H95.6025V144.627V137.407V125.193H100.55L101.812 126.473H101.736ZM174.631 137.202L183.213 149.633H175.931L170.997 142.464L166.049 149.633H158.78L167.349 137.202L159.07 125.193H166.34L170.997 131.927L175.641 125.193H182.91L174.631 137.202ZM87.2856 125.193H86.4527L85.1906 126.473C83.2781 125.332 81.0993 124.73 78.8804 124.732C75.5668 124.732 72.3888 126.067 70.0457 128.444C67.7026 130.821 66.3863 134.045 66.3863 137.407C66.3863 140.769 67.7022 143.995 70.0449 146.374C72.3877 148.753 75.5656 150.091 78.8804 150.094C81.0993 150.096 83.2781 149.494 85.1906 148.353L86.4527 149.633H91.3999V137.407V125.193H87.2856ZM78.8931 143.795C77.2195 143.795 75.6145 143.121 74.4311 141.92C73.2477 140.72 72.5829 139.092 72.5829 137.394C72.5829 135.696 73.2477 134.068 74.4311 132.867C75.6145 131.667 77.2195 130.992 78.8931 130.992C80.5666 130.992 82.1717 131.667 83.355 132.867C84.5384 134.068 85.2033 135.696 85.2033 137.394C85.2033 138.234 85.04 139.067 84.7229 139.843C84.4058 140.62 83.941 141.326 83.355 141.92C82.7691 142.515 82.0735 142.986 81.3079 143.308C80.5423 143.63 79.7217 143.795 78.8931 143.795ZM127.153 126.46C125.241 125.318 123.062 124.717 120.843 124.719C117.528 124.719 114.349 126.054 112.004 128.43C109.659 130.807 108.34 134.031 108.336 137.394C108.336 139.06 108.66 140.71 109.288 142.249C109.917 143.788 110.838 145.187 112 146.365C113.161 147.543 114.54 148.478 116.057 149.116C117.575 149.753 119.201 150.081 120.843 150.081C123.062 150.083 125.241 149.482 127.153 148.34L128.415 149.621H133.363V130.211V116H127.153V126.46ZM120.843 143.795C119.17 143.795 117.565 143.121 116.381 141.92C115.198 140.72 114.533 139.092 114.533 137.394C114.533 135.696 115.198 134.068 116.381 132.867C117.565 131.667 119.17 130.992 120.843 130.992C122.517 130.992 124.122 131.667 125.305 132.867C126.489 134.068 127.153 135.696 127.153 137.394C127.153 138.234 126.99 139.067 126.673 139.843C126.356 140.62 125.891 141.326 125.305 141.92C124.719 142.515 124.024 142.986 123.258 143.308C122.492 143.63 121.672 143.795 120.843 143.795ZM148.457 143.795C147.299 143.794 146.164 143.47 145.175 142.858C144.187 142.246 143.384 141.37 142.853 140.326H160.623C160.846 139.369 160.961 138.39 160.963 137.407C160.96 134.044 159.641 130.82 157.296 128.443C154.951 126.067 151.771 124.732 148.457 124.732C145.143 124.732 141.965 126.067 139.622 128.444C137.279 130.821 135.962 134.045 135.962 137.407C135.96 137.882 135.989 138.357 136.051 138.828C136.044 138.921 136.044 139.016 136.051 139.109C136.101 139.493 136.164 139.865 136.24 140.223C136.24 140.223 136.24 140.287 136.24 140.326C136.887 143.103 138.439 145.579 140.644 147.351C142.85 149.124 145.58 150.09 148.394 150.094C150.035 150.097 151.66 149.77 153.176 149.133C154.692 148.496 156.069 147.561 157.228 146.381L152.849 141.926C151.685 143.104 150.113 143.775 148.469 143.795H148.457ZM148.457 130.992C149.616 130.995 150.752 131.321 151.74 131.935C152.729 132.549 153.532 133.428 154.06 134.475H142.853C143.386 133.431 144.192 132.556 145.183 131.946C146.174 131.337 147.311 131.015 148.469 131.018L148.457 130.992ZM59.912 125.167H59.0664L57.8044 126.447C55.8926 125.304 53.7133 124.703 51.4942 124.706C48.1805 124.706 45.0026 126.041 42.6595 128.418C40.3164 130.795 39 134.019 39 137.381C39 140.744 40.316 143.969 42.6587 146.348C45.0015 148.727 48.1794 150.065 51.4942 150.069C53.7133 150.072 55.8926 149.471 57.8044 148.327V150.081C57.8044 151.779 57.1396 153.407 55.9562 154.608C54.7728 155.809 53.1677 156.483 51.4942 156.483C50.2281 156.479 48.9927 156.088 47.9484 155.362C46.904 154.636 46.0992 153.608 45.6383 152.412L41.0571 157.059C42.1928 158.815 43.7416 160.256 45.5637 161.253C47.3859 162.25 49.424 162.771 51.4942 162.769C54.7433 162.771 57.8652 161.488 60.1977 159.194C62.5302 156.899 63.8899 153.773 63.9884 150.478V125.193H59.8868L59.912 125.167ZM57.817 137.381C57.817 139.079 57.1522 140.707 55.9688 141.907C54.7854 143.108 53.1804 143.782 51.5068 143.782C49.8332 143.782 48.2282 143.108 47.0448 141.907C45.8615 140.707 45.1966 139.079 45.1966 137.381C45.1966 135.683 45.8615 134.055 47.0448 132.854C48.2282 131.654 49.8332 130.979 51.5068 130.979C53.1804 130.979 54.7854 131.654 55.9688 132.854C57.1522 134.055 57.817 135.683 57.817 137.381Z" fill="#1D1D1B"/>
<path d="M185.32 131.607C184.567 131.603 183.822 131.751 183.126 132.041C182.43 132.331 181.798 132.758 181.265 133.297C180.733 133.836 180.31 134.477 180.023 135.182C179.735 135.887 179.588 136.643 179.59 137.407C179.587 138.171 179.732 138.928 180.019 139.635C180.306 140.342 180.728 140.984 181.261 141.524C181.793 142.065 182.426 142.493 183.123 142.784C183.82 143.075 184.566 143.223 185.32 143.219C186.072 143.221 186.817 143.072 187.512 142.78C188.207 142.488 188.839 142.06 189.37 141.52C189.902 140.979 190.322 140.338 190.608 139.632C190.894 138.926 191.04 138.17 191.037 137.407C191.038 136.644 190.892 135.89 190.605 135.185C190.318 134.481 189.897 133.841 189.366 133.302C188.835 132.763 188.204 132.336 187.509 132.045C186.815 131.754 186.071 131.605 185.32 131.607ZM185.32 142.016C184.734 142.007 184.156 141.881 183.619 141.644C183.082 141.407 182.597 141.064 182.192 140.636C181.787 140.207 181.47 139.7 181.259 139.146C181.049 138.592 180.949 138 180.966 137.407C180.949 136.813 181.049 136.222 181.259 135.667C181.47 135.113 181.787 134.607 182.192 134.178C182.597 133.749 183.082 133.406 183.619 133.169C184.156 132.932 184.734 132.806 185.32 132.798C185.904 132.807 186.481 132.935 187.016 133.173C187.552 133.41 188.035 133.753 188.439 134.182C188.843 134.611 189.159 135.117 189.369 135.67C189.578 136.224 189.678 136.814 189.661 137.407C189.678 137.999 189.578 138.59 189.369 139.143C189.159 139.697 188.843 140.202 188.439 140.631C188.035 141.06 187.552 141.403 187.016 141.641C186.481 141.878 185.904 142.006 185.32 142.016ZM187.263 137.458C187.487 137.121 187.606 136.724 187.604 136.318C187.609 136.049 187.562 135.781 187.464 135.531C187.367 135.28 187.221 135.052 187.036 134.859C186.861 134.662 186.646 134.506 186.407 134.4C186.168 134.294 185.909 134.241 185.648 134.244H183.262V140.466H184.524V138.354H185.244L186.392 140.466H187.856L186.594 138.098C186.864 137.942 187.093 137.722 187.263 137.458ZM186.102 136.869C186.046 136.936 185.977 136.99 185.898 137.028C185.82 137.065 185.734 137.085 185.648 137.086H184.575V135.563H185.648C185.734 135.564 185.82 135.584 185.898 135.622C185.977 135.659 186.046 135.714 186.102 135.781C186.231 135.929 186.299 136.121 186.291 136.318C186.301 136.52 186.233 136.717 186.102 136.869Z" fill="#1D1D1B"/>
<path d="M122.368 161.607L126.906 167.154H123.618L119.628 162.177V167.154H116.8V156.192H119.628V161.015L123.398 156.192H126.775L122.368 161.607ZM129.041 156.192H137.723V167.154H134.895V158.911H131.869V162.572C131.869 165.948 130.327 167.475 127.243 167.154V164.501C127.828 164.647 128.274 164.545 128.581 164.194C128.888 163.843 129.041 163.252 129.041 162.418V156.192ZM150.94 162.835H142.675C143.041 164.209 144.071 164.896 145.766 164.896C146.848 164.896 147.666 164.53 148.222 163.8L150.502 165.115C149.42 166.679 147.827 167.461 145.722 167.461C143.91 167.461 142.456 166.913 141.36 165.817C140.264 164.72 139.716 163.339 139.716 161.673C139.716 160.036 140.256 158.662 141.338 157.552C142.405 156.441 143.793 155.885 145.503 155.885C147.126 155.885 148.448 156.441 149.471 157.552C150.524 158.662 151.05 160.036 151.05 161.673C151.05 161.98 151.013 162.367 150.94 162.835ZM142.631 160.643H148.222C148.061 159.927 147.732 159.378 147.235 158.998C146.753 158.618 146.176 158.428 145.503 158.428C144.743 158.428 144.115 158.626 143.618 159.02C143.121 159.4 142.792 159.941 142.631 160.643ZM168.37 156.192V164.501H169.817V170.092H167.055V167.154H153.024V156.192H155.852V164.501H159.272V156.192H162.1V164.501H165.542V156.192H168.37ZM174.37 162.418L179.521 156.192H181.626V167.154H178.864V160.928L173.712 167.154H171.607V156.192H174.37V162.418Z" fill="#F2F2F2"/>
</g>
<g clip-path="url(#clip1_969_11711)">
<path d="M138.663 327.159C121.945 327.159 110.279 338.364 110.279 354.41V357.851H109.523C102.418 357.851 96.4969 352.519 92.8812 348.246H103.388V343.835C93.5867 343.835 84.9821 333.095 84.9821 320.869H80.5728C80.5728 333.095 71.9808 343.822 62.1795 343.835H60.1385C59.9874 343.759 59.8614 343.671 59.7102 343.595C59.874 342.952 59.9622 342.297 59.9622 341.629V338.125C59.9622 334.217 57.1276 330.953 53.4111 330.272C53.5119 329.768 53.5623 329.251 53.5623 328.734C53.5623 323.944 49.2789 320.037 44.0129 320.037H41.1531C35.8871 320.037 31.6037 323.944 31.6037 328.734C31.6037 329.226 31.6415 329.705 31.7297 330.171C27.6605 330.537 24.4732 333.965 24.4732 338.125V341.629C24.4732 342.07 24.4984 342.511 24.5739 342.94C20.8323 343.595 17.9851 346.872 17.9851 350.805V354.296C17.9851 358.708 21.563 362.288 25.9597 362.288H35.7863V372.51C21.0591 374.035 11.0687 384.712 11.0687 399.547V405.081H1.97284C-3.73413 405.081 -9.12613 406.48 -13.8504 408.963C-18.9149 411.61 -23.2487 415.48 -26.436 420.194H-66.221C-68.4635 389.854 -95.3983 389.854 -105.741 389.854H-190.729C-193.236 389.854 -196.889 389.854 -201.009 390.296V335.478C-201.009 323.44 -212.75 313.646 -224.781 313.646H-233.651C-242.419 313.646 -249.99 318.852 -253.455 326.327C-253.593 326.604 -253.707 326.881 -253.82 327.159H-266.217V442H238.743V327.159H138.663ZM216.834 302.718C216.935 302.113 216.973 301.571 216.973 301.042C216.973 294.878 211.946 289.849 205.786 289.849C204.728 289.849 203.682 290 202.687 290.29C200.092 286.407 195.682 284 190.945 284C185.188 284 180.111 287.454 177.944 292.622C177.503 292.571 177.062 292.533 176.621 292.533C171.191 292.533 166.769 296.958 166.769 302.39V304.596H216.557L216.834 302.718ZM29.2479 304.243C34.6777 304.243 39.0996 299.781 39.0996 294.298C39.0996 288.815 34.6777 284.353 29.2479 284.353C23.8181 284.353 19.3961 288.815 19.3961 294.298C19.3961 299.781 23.8181 304.243 29.2479 304.243Z" fill="#E1251B"/>
<path d="M205.786 289.849C204.728 289.849 203.682 290 202.687 290.29C200.092 286.407 195.682 284 190.945 284C185.188 284 180.111 287.454 177.944 292.622C177.503 292.571 177.062 292.533 176.621 292.533C171.191 292.533 166.769 296.958 166.769 302.39V304.596H216.557L216.834 302.718C216.935 302.113 216.973 301.571 216.973 301.042C216.973 294.878 211.946 289.849 205.786 289.849ZM171.645 300.184C172.502 298.281 174.404 296.945 176.621 296.945C177.289 296.945 177.944 297.071 178.586 297.323L180.93 298.231L181.522 295.798C182.593 291.449 186.473 288.412 190.945 288.412C194.674 288.412 198.126 290.592 199.726 293.97L200.696 296.025L202.712 295.004C203.682 294.512 204.715 294.26 205.786 294.26C209.225 294.26 212.085 296.844 212.513 300.184H171.645ZM210.069 343.053V331.57H238.743V327.159H138.663C121.945 327.159 110.279 338.364 110.279 354.41V357.851H109.523C102.418 357.851 96.4969 352.519 92.8812 348.246H103.388V343.835C93.5867 343.835 84.9821 333.095 84.9821 320.869H80.5728C80.5728 333.095 71.9808 343.822 62.1795 343.835H60.1385C59.9874 343.759 59.8614 343.671 59.7102 343.595C59.874 342.952 59.9622 342.297 59.9622 341.629V338.125C59.9622 334.217 57.1276 330.953 53.4111 330.272C53.5119 329.768 53.5623 329.251 53.5623 328.734C53.5623 323.944 49.2789 320.037 44.0129 320.037H41.1531C35.8871 320.037 31.6037 323.944 31.6037 328.734C31.6037 329.226 31.6415 329.705 31.7297 330.171C27.6605 330.537 24.4732 333.965 24.4732 338.125V341.629C24.4732 342.07 24.4984 342.511 24.5739 342.94C20.8323 343.595 17.9851 346.872 17.9851 350.805V354.296C17.9851 358.708 21.563 362.288 25.9597 362.288H35.7863V372.51C21.0591 374.035 11.0687 384.712 11.0687 399.547V405.081H1.97284C-3.73413 405.081 -9.12613 406.48 -13.8504 408.963C-18.9149 411.61 -23.2487 415.48 -26.436 420.194H-66.221C-68.4635 389.854 -95.3983 389.854 -105.741 389.854H-190.729C-193.236 389.854 -196.889 389.854 -201.009 390.296C-201.727 390.371 -202.47 390.459 -203.213 390.56C-203.944 390.661 -204.675 390.787 -205.418 390.926C-214.363 392.539 -224.227 396.636 -229.002 406.959V327.159H-266.217V331.57H-233.411V372.296H-266.217V376.708H-233.537V442H-227.956V431.286C-227.956 426.95 -227.956 423.547 -227.944 423.332C-227.603 404.047 -216.29 397.556 -205.418 395.375C-204.675 395.224 -203.944 395.098 -203.213 394.984C-202.47 394.871 -201.739 394.77 -201.009 394.695C-197.116 394.266 -193.488 394.266 -190.729 394.266H-105.741C-94.8944 394.266 -72.772 394.266 -70.6556 420.194H-171.806C-182.011 420.194 -190.338 424.366 -195.277 431.286C-197.469 434.349 -198.993 437.967 -199.711 442H-195.201C-194.269 437.777 -192.253 434.135 -189.393 431.286C-185.148 427.076 -179.038 424.606 -171.806 424.606H-28.9682C-29.9761 426.723 -30.7824 428.954 -31.3367 431.286C-31.9792 433.87 -32.3067 436.58 -32.3067 439.378V442H-27.8974V439.378C-27.8974 436.58 -27.5069 433.87 -26.7888 431.286C-26.1966 429.181 -25.3778 427.164 -24.3573 425.274C-21.2078 427.353 -17.5795 428.601 -13.8504 428.866C-13.3465 428.916 -12.8426 428.929 -12.3261 428.929C-7.67734 428.929 -3.10422 427.391 0.662628 424.606C0.788605 424.505 0.914612 424.429 1.04059 424.341C1.15396 424.429 1.29254 424.505 1.40591 424.606C4.27829 426.723 7.60422 428.11 11.0687 428.664C11.7994 428.778 12.5301 428.841 13.2734 428.879C13.412 428.891 13.5631 428.891 13.7017 428.904V428.929H14.4072C14.76 428.929 15.1253 428.904 15.4781 428.879C19.7489 428.664 23.9062 427.177 27.3959 424.606C27.5219 424.505 27.6479 424.429 27.7739 424.341C27.8873 424.429 28.0132 424.505 28.1392 424.606C31.9187 427.391 36.4918 428.929 41.1279 428.929C42.7405 428.929 44.3279 428.727 45.89 428.374C46.6333 428.21 47.364 428.009 48.0947 427.769C48.838 427.517 49.5687 427.215 50.2994 426.874C51.7734 426.181 53.1844 425.349 54.4946 424.341C58.337 427.303 63.0613 428.929 67.8612 428.929H68.5667V428.904C73.1147 428.752 77.5618 427.152 81.2279 424.341C85.0703 427.303 89.7946 428.929 94.5945 428.929C99.3944 428.929 104.106 427.303 107.961 424.341C108.692 424.908 109.473 425.412 110.279 425.879C110.279 425.891 110.292 425.891 110.292 425.891C111.01 426.307 111.728 426.698 112.484 427.026C112.484 427.038 112.496 427.038 112.496 427.038C113.215 427.353 113.945 427.631 114.689 427.87H114.701C116.843 428.563 119.073 428.929 121.315 428.929C124.54 428.929 127.715 428.185 130.613 426.811C130.625 426.811 130.65 426.811 130.663 426.786V442H135.072V426.118H148.061V442H152.47V421.706H142.165C147.154 417.862 151.135 412.177 151.778 407.577L152.118 405.068H147.129C150.228 402.409 152.773 398.841 154.461 395.211C156.124 398.854 158.644 402.409 161.73 405.068H156.703L157.258 407.715C158.228 412.354 162.259 417.925 167.122 421.706H156.552L156.502 433.845L156.477 438.256L156.451 442H160.861L160.886 438.256L160.911 433.845L160.949 426.118H184.671V442H189.081V421.706H178.788C183.777 417.862 187.758 412.177 188.388 407.577L188.741 405.068H183.752C186.838 402.409 189.396 398.841 191.084 395.211C192.747 398.854 195.266 402.409 198.353 405.068H193.326L193.881 407.715C194.851 412.354 198.87 417.925 203.745 421.706H193.175L193.112 433.845L193.087 438.256V442H197.484V438.256L197.521 433.845L197.559 426.118H238.743V421.706H214.378C209.175 421.706 201.893 415.076 199.159 409.48H209.049V405.068C200.444 405.068 193.326 392.69 193.326 386.375H188.917C188.917 392.69 181.799 405.068 173.207 405.068L172.426 405.081C163.821 405.068 156.716 392.69 156.716 386.375H152.307C152.307 392.69 145.189 405.068 136.584 405.068L135.022 405.081V401.211C135.022 387.422 150.354 376.708 163.544 376.708H238.743V372.296H193.364C193.377 372.17 193.377 372.031 193.377 371.893C193.377 371.262 193.364 370.657 193.326 370.027C202.876 363.952 210.069 354.259 210.069 343.053ZM169.982 409.48L178.511 409.492L183.26 409.48C181.522 413.4 177.226 417.95 172.917 420.232C168.747 417.963 164.489 413.463 162.536 409.48H169.982ZM135.072 409.492H139.255L146.638 409.48C144.735 413.778 139.784 418.82 135.072 420.824V409.492ZM110.279 362.263V372.296H88.7868V362.263H110.279ZM78.935 347.288L81.316 343.835H74.2233C77.8768 340.973 80.8751 336.915 82.7774 332.2C84.6797 336.915 87.6781 340.973 91.3316 343.835H84.2388L86.6199 347.288C88.3962 349.885 91.9363 354.448 96.7992 357.851H84.3774V372.296H81.1775V357.851H68.7557C73.6186 354.448 77.1587 349.885 78.935 347.288ZM72.6737 348.246C70.5572 350.742 67.6471 353.603 64.1826 355.544C64.2456 355.141 64.296 354.725 64.296 354.296V350.805C64.296 349.91 64.1322 349.053 63.855 348.246H72.6737ZM76.7681 362.263V372.296H49.9844V362.288H56.3087C56.4221 362.288 56.5355 362.275 56.6489 362.263H76.7681ZM25.9597 357.876C23.9944 357.876 22.3945 356.275 22.3945 354.296V350.805C22.3945 348.839 23.9944 347.238 25.9597 347.238H32.1454L29.5754 343.721C29.1219 343.091 28.8825 342.372 28.8825 341.629V338.125C28.8825 336.158 30.4825 334.557 32.4478 334.557H39.4902L36.8068 331.016C36.2902 330.335 36.0131 329.541 36.0131 328.734C36.0131 326.377 38.3185 324.449 41.1531 324.449H44.0129C46.8475 324.449 49.153 326.377 49.153 328.734C49.153 329.541 48.8758 330.335 48.3593 331.016L45.6633 334.557H51.9749C53.9529 334.557 55.5528 336.158 55.5528 338.125V341.629C55.5528 342.574 55.1623 343.305 54.8347 343.734L52.3781 347.049L56.4851 347.263C58.3874 347.351 59.8866 348.914 59.8866 350.805V354.296C59.8866 356.086 58.5638 357.548 56.863 357.813C56.6867 357.851 56.4977 357.876 56.3087 357.876H45.5751V372.296H40.1957V357.876H25.9597ZM15.4781 399.547C15.4781 386.754 24.4228 377.64 37.4619 376.796C38.117 376.758 38.7847 376.708 39.465 376.708H126.795C121.996 379.317 117.7 382.985 114.689 387.434C113.845 388.682 113.101 389.98 112.484 391.354C111.426 393.661 110.708 396.119 110.418 398.728C110.393 398.942 110.367 401.35 110.355 404.967H15.4781V399.547ZM130.663 422.072C130.663 422.072 130.625 422.072 130.613 422.097C127.816 423.811 124.616 424.732 121.315 424.732C119.035 424.732 116.805 424.29 114.714 423.446C114.701 423.446 114.689 423.433 114.689 423.433C113.933 423.131 113.215 422.765 112.509 422.362C112.496 422.362 112.484 422.349 112.484 422.349C111.728 421.921 110.997 421.429 110.304 420.887L110.279 420.862C109.952 420.597 109.624 420.345 109.309 420.068L107.961 418.833L106.601 420.068C103.275 423.08 99.0039 424.732 94.5945 424.732C90.1852 424.732 85.9144 423.08 82.5759 420.068L81.2279 418.833L79.8672 420.068C76.5414 423.08 72.2706 424.732 67.8612 424.732C63.4518 424.732 59.1811 423.08 55.8552 420.068L54.4946 418.833L53.1466 420.068C52.2521 420.862 51.2946 421.568 50.2994 422.173C49.5813 422.601 48.8506 422.967 48.0947 423.295C46.5325 423.95 44.8948 424.404 43.2066 424.606C42.5263 424.681 41.8334 424.732 41.1279 424.732C40.4224 424.732 39.7421 424.681 39.0618 424.606C36.706 424.316 34.4383 423.572 32.3722 422.4C31.2762 421.769 30.2305 421.038 29.2731 420.194C29.2227 420.143 29.1723 420.106 29.1219 420.068L27.7739 418.833L26.4133 420.068C26.4133 420.068 26.3125 420.143 26.2621 420.194C25.3047 421.038 24.259 421.769 23.1629 422.4C21.0969 423.572 18.8292 424.316 16.4733 424.606C16.1458 424.643 15.8182 424.669 15.4781 424.681C15.1253 424.706 14.76 424.732 14.4072 424.732C14.0293 424.732 13.6513 424.706 13.2734 424.681C12.9584 424.669 12.6435 424.631 12.3286 424.606C11.9002 424.555 11.4845 424.492 11.0687 424.416C9.16641 424.051 7.33966 423.358 5.65152 422.4C4.55548 421.769 3.50983 421.038 2.53976 420.194C2.50198 420.143 2.439 420.106 2.38858 420.068L1.04059 418.833L-0.320038 420.068C-0.320038 420.068 -0.420807 420.143 -0.471191 420.194C-1.42865 421.038 -2.4743 421.769 -3.57034 422.4C-5.63644 423.572 -7.90411 424.316 -10.2474 424.606C-10.9403 424.681 -11.6332 424.732 -12.3261 424.732C-12.83 424.732 -13.3465 424.706 -13.8504 424.656C-14.0394 424.643 -14.2158 424.631 -14.4048 424.606C-16.748 424.316 -19.0157 423.572 -21.0818 422.4C-21.4345 422.185 -21.7873 421.984 -22.14 421.744C-21.7495 421.215 -21.3338 420.698 -20.9054 420.194C-18.9023 417.786 -16.5087 415.707 -13.8504 414.043C-9.26471 411.156 -3.8349 409.492 1.97284 409.492H130.663V422.072ZM134.115 388.985C133.233 390.485 132.477 392.035 131.91 393.674C131.079 396.068 130.613 398.589 130.613 401.211V405.081H114.752V404.967C114.764 401.715 114.777 399.535 114.789 399.22C115.709 390.989 122.059 384.094 129.706 380.187C130.436 379.821 131.167 379.468 131.91 379.153C132.641 378.85 133.372 378.573 134.115 378.308C137.138 377.275 140.25 376.708 143.198 376.708H147.23C141.85 379.645 137.138 383.892 134.115 388.985ZM144.13 371.893C144.13 372.031 144.143 372.17 144.143 372.296H140.704C140.704 372.17 140.691 372.031 140.691 371.893C140.691 367.166 142.342 362.817 145.101 359.389L147.545 361.834C145.415 364.632 144.13 368.111 144.13 371.893ZM172.892 372.296H148.552C148.552 372.17 148.54 372.031 148.54 371.893C148.54 365.174 153.995 359.704 160.722 359.704C167.45 359.704 172.905 365.174 172.905 371.893C172.905 372.031 172.892 372.17 172.892 372.296ZM148.212 356.263C151.11 353.944 154.65 352.406 158.518 351.977V355.456C155.595 355.847 152.911 357.006 150.669 358.721L148.212 356.263ZM172.741 356.754L170.776 358.721C168.533 357.006 165.85 355.847 162.927 355.456V351.977C166.795 352.406 170.335 353.944 173.232 356.263L172.741 356.754ZM180.741 372.296H177.301C177.301 372.17 177.314 372.031 177.314 371.893C177.314 368.111 176.029 364.632 173.887 361.834L175.853 359.868L176.344 359.389C179.09 362.817 180.753 367.166 180.753 371.893C180.753 372.031 180.741 372.17 180.741 372.296ZM188.955 372.296H185.137C185.137 372.17 185.163 372.031 185.163 371.893C185.163 358.418 174.202 347.439 160.722 347.439C147.242 347.439 136.282 358.418 136.282 371.893C136.282 372.031 136.294 372.17 136.294 372.296H132.477V371.893C132.477 356.313 145.138 343.633 160.722 343.633C176.306 343.633 188.967 356.313 188.967 371.893C188.967 372.031 188.967 372.17 188.955 372.296ZM187.896 353.817C187.304 352.935 186.674 352.078 186.019 351.271C185.805 350.994 185.578 350.729 185.339 350.465C184.886 349.935 184.394 349.406 183.903 348.927C177.982 342.927 169.78 339.221 160.722 339.221C142.707 339.221 128.068 353.881 128.068 371.893V372.296H114.689V354.41C114.689 340.961 124.553 331.57 138.663 331.57H192.722V343.053C192.722 347.578 191.336 351.813 189.005 355.595C188.665 354.99 188.287 354.397 187.896 353.817ZM192.709 365.25C192.608 364.809 192.507 364.368 192.394 363.939C192.066 362.628 191.651 361.355 191.172 360.12C194.851 355.154 197.131 349.343 197.131 343.053V331.747H205.66V343.053C205.66 352.053 200.205 359.943 192.709 365.25ZM-266.217 421.706V426.118H-235.427V421.706H-266.217ZM29.2479 284.353C23.8181 284.353 19.3961 288.815 19.3961 294.298C19.3961 299.781 23.8181 304.243 29.2479 304.243C34.6777 304.243 39.0996 299.781 39.0996 294.298C39.0996 288.815 34.6777 284.353 29.2479 284.353ZM29.2479 299.832C26.2495 299.832 23.8055 297.348 23.8055 294.298C23.8055 291.248 26.2495 288.765 29.2479 288.765C32.2462 288.765 34.6903 291.248 34.6903 294.298C34.6903 297.348 32.2462 299.832 29.2479 299.832Z" fill="black"/>
<path d="M1.97376 409.492C-3.83399 409.492 -9.26379 411.156 -13.8495 414.042C-16.5077 415.706 -18.9014 417.786 -20.9045 420.194C-21.3328 420.698 -21.7486 421.215 -22.1391 421.744C-21.7864 421.983 -21.4336 422.185 -21.0809 422.399C-19.0148 423.572 -16.7471 424.315 -14.4038 424.605C-14.2149 424.63 -14.0385 424.643 -13.8495 424.656C-13.3456 424.706 -12.8291 424.731 -12.3252 424.731C-11.6323 424.731 -10.9394 424.681 -10.2465 424.605C-7.90321 424.315 -5.63554 423.572 -3.56944 422.399C-2.4734 421.769 -1.42774 421.038 -0.470284 420.194C-0.419891 420.143 -0.369505 420.105 -0.319111 420.068L1.04149 418.832L2.3895 420.068C2.3895 420.068 2.50288 420.143 2.54068 420.194C3.51073 421.038 4.55639 421.769 5.65242 422.399C7.34058 423.357 9.16731 424.051 11.0696 424.416C11.4854 424.492 11.9011 424.555 12.3295 424.605C12.6444 424.63 12.9594 424.668 13.2743 424.681C13.6523 424.706 14.0302 424.731 14.4081 424.731C14.7609 424.731 15.1262 424.706 15.479 424.681C15.8191 424.668 16.1467 424.643 16.4742 424.605C18.8301 424.315 21.0978 423.572 23.1639 422.399C24.2599 421.769 25.3056 421.038 26.263 420.194C26.3134 420.143 26.3638 420.105 26.4142 420.068L27.7748 418.832L29.1228 420.068C29.1228 420.068 29.2236 420.143 29.274 420.194C30.2314 421.038 31.2771 421.769 32.3731 422.399C34.4392 423.572 36.7069 424.315 39.0628 424.605C39.743 424.681 40.436 424.731 41.1288 424.731C41.8217 424.731 42.5272 424.681 43.2075 424.605C44.8957 424.404 46.5335 423.95 48.0956 423.294C48.8515 422.967 49.5822 422.601 50.3003 422.173C51.2956 421.568 52.253 420.862 53.1475 420.068L54.4955 418.832L55.8561 420.068C59.182 423.08 63.4528 424.731 67.8621 424.731C72.2715 424.731 76.5423 423.08 79.8682 420.068L81.2288 418.832L82.5768 420.068C85.9153 423.08 90.1735 424.731 94.5954 424.731C99.0174 424.731 103.276 423.08 106.601 420.068L107.962 418.832L109.31 420.068C109.625 420.345 109.953 420.597 110.28 420.862L110.305 420.887C110.998 421.429 111.729 421.92 112.485 422.349C112.485 422.349 112.497 422.362 112.51 422.362C113.216 422.765 113.934 423.13 114.689 423.433C114.689 423.433 114.702 423.446 114.715 423.446C116.806 424.29 119.036 424.731 121.316 424.731C124.617 424.731 127.817 423.811 130.614 422.097C130.626 422.084 130.651 422.072 130.664 422.072V409.492H1.97376ZM130.614 426.811C127.716 428.185 124.541 428.929 121.316 428.929C119.074 428.929 116.844 428.563 114.702 427.87H114.689C113.946 427.63 113.215 427.353 112.497 427.038C112.497 427.038 112.485 427.038 112.485 427.025C111.729 426.698 111.011 426.307 110.293 425.891C110.293 425.891 110.28 425.891 110.28 425.878C109.474 425.412 108.693 424.908 107.962 424.341C104.107 427.303 99.3827 428.929 94.5954 428.929C89.8081 428.929 85.0712 427.303 81.2288 424.341C77.5627 427.151 73.1156 428.752 68.5676 428.903V428.929H67.8621C63.0622 428.929 58.3379 427.303 54.4955 424.341C53.1853 425.349 51.7743 426.181 50.3003 426.874C49.5696 427.214 48.8389 427.517 48.0956 427.769C47.3649 428.009 46.6342 428.21 45.891 428.374C44.3288 428.727 42.7414 428.929 41.1288 428.929C36.4927 428.929 31.9196 427.391 28.1401 424.605C28.0141 424.504 27.8882 424.429 27.7748 424.341C27.6488 424.429 27.5228 424.504 27.3968 424.605C23.9072 427.177 19.7498 428.664 15.479 428.878C15.1262 428.903 14.7609 428.929 14.4081 428.929H13.7026V428.903C13.5641 428.891 13.4129 428.891 13.2743 428.878C12.531 428.84 11.8003 428.777 11.0696 428.664C7.60514 428.109 4.27921 426.723 1.40683 424.605C1.29345 424.504 1.15487 424.429 1.04149 424.341C0.91551 424.429 0.789524 424.504 0.663544 424.605C-3.10331 427.391 -7.67644 428.929 -12.3252 428.929C-12.8417 428.929 -13.3456 428.916 -13.8495 428.866C-17.5786 428.601 -21.2069 427.353 -24.3564 425.273C-25.3769 427.164 -26.1957 429.181 -26.7878 431.286C-27.5059 433.87 -27.8965 436.58 -27.8965 439.378V442H130.664V426.786C130.664 426.786 130.626 426.798 130.614 426.811Z" fill="#8C9091"/>
<path d="M29.2471 288.764C26.2487 288.764 23.8047 291.247 23.8047 294.298C23.8047 297.348 26.2487 299.831 29.2471 299.831C32.2454 299.831 34.6895 297.348 34.6895 294.298C34.6895 291.247 32.2454 288.764 29.2471 288.764ZM143.197 376.707C140.249 376.707 137.138 377.275 134.114 378.308C133.371 378.573 132.64 378.85 131.909 379.153C131.166 379.468 130.435 379.821 129.705 380.186C122.058 384.094 115.708 390.988 114.789 399.219C114.776 399.534 114.763 401.715 114.751 404.967V405.081H130.612V401.211C130.612 398.589 131.078 396.068 131.909 393.673C132.476 392.035 133.232 390.484 134.114 388.984C137.138 383.892 141.849 379.644 147.229 376.707H143.197ZM197.13 331.746V343.053C197.13 349.343 194.85 355.153 191.171 360.12C191.65 361.355 192.066 362.628 192.393 363.939C192.507 364.38 192.607 364.821 192.696 365.262C192.696 365.262 192.708 365.262 192.708 365.25C200.204 359.943 205.659 352.053 205.659 343.053V331.746H197.13Z" fill="#F3BD48"/>
<path d="M39.465 376.707C38.7847 376.707 38.117 376.758 37.4619 376.796C24.4228 377.64 15.4781 386.753 15.4781 399.547V404.967H110.355C110.367 401.35 110.393 398.942 110.418 398.728C110.708 396.119 111.426 393.661 112.484 391.354C113.101 389.98 113.845 388.682 114.689 387.434C117.7 382.985 121.996 379.317 126.795 376.707H39.465ZM-266.217 331.57V372.296H-233.411V331.57H-266.217ZM205.786 294.26C204.715 294.26 203.682 294.512 202.712 295.004L200.696 296.025L199.726 293.97C198.126 290.592 194.674 288.411 190.945 288.411C186.473 288.411 182.593 291.449 181.522 295.798L180.93 298.231L178.586 297.323C177.944 297.071 177.289 296.945 176.621 296.945C174.404 296.945 172.502 298.281 171.645 300.184H212.513C212.085 296.844 209.225 294.26 205.786 294.26ZM86.6199 347.288L84.2388 343.834H91.3316C87.6781 340.973 84.6797 336.914 82.7774 332.2C80.8751 336.914 77.8768 340.973 74.2233 343.834H81.316L78.935 347.288C77.1587 349.885 73.6186 354.448 68.7557 357.851H81.1775V372.296H84.3774V357.851H96.7992C91.9363 354.448 88.3962 349.885 86.6199 347.288ZM-266.217 376.707V421.706H-235.427V426.118H-266.217V442H-233.537V376.707H-266.217ZM56.4851 347.263L52.3781 347.049L54.8347 343.734C55.1623 343.305 55.5528 342.574 55.5528 341.629V338.124C55.5528 336.158 53.9529 334.557 51.9749 334.557H45.6633L48.3593 331.015C48.8758 330.335 49.153 329.541 49.153 328.734C49.153 326.377 46.8475 324.448 44.0129 324.448H41.1531C38.3185 324.448 36.0131 326.377 36.0131 328.734C36.0131 329.541 36.2902 330.335 36.8068 331.015L39.4902 334.557H32.4478C30.4825 334.557 28.8825 336.158 28.8825 338.124V341.629C28.8825 342.372 29.1219 343.091 29.5754 343.721L32.1454 347.238H25.9597C23.9944 347.238 22.3945 348.838 22.3945 350.805V354.296C22.3945 356.275 23.9944 357.876 25.9597 357.876H40.1957V372.296H45.5751V357.876H56.3087C56.4977 357.876 56.6867 357.851 56.863 357.813C58.5638 357.548 59.8866 356.086 59.8866 354.296V350.805C59.8866 348.914 58.3874 347.351 56.4851 347.263ZM139.255 409.48L135.072 409.492V420.824C139.784 418.82 144.735 413.778 146.638 409.48H139.255ZM197.559 426.118L197.521 433.845L197.496 438.256V442H238.743V426.118H197.559ZM163.544 376.707C150.354 376.707 135.022 387.421 135.022 401.211V405.081H136.584C145.189 405.068 152.307 392.69 152.307 386.375H156.716C156.716 392.69 163.821 405.068 172.426 405.068L173.207 405.081C181.799 405.068 188.917 392.69 188.917 386.375H193.326C193.326 392.69 200.444 405.068 209.049 405.068V409.48H199.159C201.893 415.076 209.175 421.706 214.378 421.706H238.743V376.707H163.544ZM135.072 426.118V442H148.061V426.118H135.072ZM193.881 407.715L193.326 405.068H198.353C195.266 402.408 192.747 398.854 191.084 395.211C189.396 398.841 186.838 402.408 183.752 405.068H188.741L188.388 407.576C187.758 412.177 183.777 417.862 178.788 421.706H189.081V442H193.074V438.256L193.112 433.845L193.175 421.706H203.745C198.87 417.925 194.851 412.354 193.881 407.715ZM157.258 407.715L156.703 405.068H161.73C158.644 402.408 156.124 398.854 154.461 395.211C152.773 398.841 150.228 402.408 147.129 405.068H152.118L151.778 407.576C151.135 412.177 147.154 417.862 142.165 421.706H152.47V442H156.451L156.477 438.256L156.502 433.845L156.552 421.706H167.122C162.259 417.925 158.228 412.354 157.258 407.715ZM178.511 409.48L169.982 409.492L162.536 409.48C164.489 413.463 168.747 417.963 172.917 420.232C177.226 417.95 181.522 413.4 183.26 409.48H178.511ZM160.949 426.118L160.911 433.845L160.886 438.256L160.861 442H184.671V426.118H160.949ZM148.212 356.263L150.669 358.721C152.911 357.006 155.595 355.847 158.518 355.456V351.977C154.65 352.406 151.11 353.943 148.212 356.263ZM147.545 361.834L145.101 359.389C142.342 362.817 140.691 367.166 140.691 371.892C140.691 372.031 140.704 372.17 140.704 372.296H144.143C144.143 372.17 144.13 372.031 144.13 371.892C144.13 368.111 145.415 364.632 147.545 361.834ZM160.722 359.704C153.995 359.704 148.54 365.174 148.54 371.892C148.54 372.031 148.552 372.17 148.552 372.296H172.892C172.892 372.17 172.905 372.031 172.905 371.892C172.905 365.174 167.437 359.704 160.722 359.704ZM162.927 351.977V355.456C165.85 355.847 168.533 357.006 170.776 358.721L172.741 356.754L173.232 356.263C170.335 353.943 166.795 352.406 162.927 351.977ZM138.663 331.57C124.553 331.57 114.689 340.961 114.689 354.41V372.296H128.068V371.892C128.068 353.88 142.707 339.221 160.722 339.221C169.78 339.221 177.982 342.927 183.903 348.927C184.394 349.406 184.886 349.935 185.339 350.464C185.578 350.729 185.805 350.994 186.019 351.271C186.687 352.078 187.317 352.935 187.896 353.817C188.287 354.397 188.665 354.99 189.005 355.595C191.336 351.813 192.722 347.578 192.722 343.053V331.57H138.663ZM176.344 359.389L175.853 359.868L173.887 361.834C176.029 364.632 177.314 368.111 177.314 371.892C177.314 372.031 177.301 372.17 177.301 372.296H180.741C180.741 372.17 180.753 372.031 180.753 371.892C180.753 367.166 179.09 362.817 176.344 359.389ZM160.722 343.633C145.138 343.633 132.477 356.313 132.477 371.892V372.296H136.294C136.294 372.17 136.282 372.031 136.282 371.892C136.282 358.418 147.242 347.439 160.722 347.439C174.202 347.439 185.163 358.418 185.163 371.892C185.163 372.031 185.137 372.17 185.137 372.296H188.955C188.967 372.17 188.967 372.031 188.967 371.892C188.967 356.313 176.294 343.633 160.722 343.633ZM210.069 331.57V343.053C210.069 354.258 202.876 363.951 193.326 370.027C193.364 370.657 193.377 371.262 193.377 371.892C193.377 372.031 193.377 372.17 193.364 372.296H238.743V331.57H210.069Z" fill="#E1251B"/>
</g>
<defs>
<clipPath id="clip0_969_11711">
<rect width="152" height="114" fill="white" transform="translate(39 59)"/>
</clipPath>
<clipPath id="clip1_969_11711">
<rect y="284" width="221" height="158" rx="21.3514" fill="white"/>
</clipPath>
</defs>
</svg>
