<svg width="221" height="442" viewBox="0 0 221 442" fill="none" xmlns="http://www.w3.org/2000/svg">
<rect width="221" height="442" rx="20" fill="#DF1125"/>
<g clip-path="url(#clip0_969_11019)">
<path d="M147.154 65.2495H141.035C139.129 62.8351 136.586 61.0046 133.694 59.9657C130.802 58.9269 127.678 58.7214 124.675 59.3724C121.672 60.0235 118.912 61.5051 116.707 63.6491C114.503 65.7931 112.942 68.5135 112.202 71.5016C111.252 68.0875 109.212 65.0795 106.394 62.9381C103.576 60.7967 100.135 59.64 96.5982 59.6451H80.4981V75.8254C80.4941 78.2444 81.0323 80.6334 82.0731 82.8159C83.1139 84.9985 84.6306 86.9189 86.5112 88.4352C86.6294 95.162 89.3688 101.576 94.1436 106.305C98.9184 111.034 105.35 113.704 112.063 113.743C118.776 113.782 125.238 111.188 130.068 106.515C134.898 101.842 137.712 95.4615 137.908 88.7365C140.638 86.7424 142.683 83.948 143.76 80.7393C144.837 77.5306 144.894 74.0659 143.922 70.8237L145.425 68.2927L147.154 65.2495Z" fill="#2D2A26"/>
<path d="M100.536 77.723L96.4023 73.58V64.2695H96.5978C97.9257 64.2741 99.2429 64.5086 100.491 64.9625L100.536 77.723ZM85.0977 66.2732V72.7363H91.5467L85.0977 66.2732ZM93.5912 64.2695H87.1121L93.5912 70.7326V64.2695ZM94.418 75.5837H85.0977V75.8247C85.1035 77.1604 85.3374 78.4852 85.7892 79.7418H98.537L94.418 75.5837ZM87.3225 82.5741C88.2231 83.8406 89.3708 84.9109 90.696 85.72C92.0213 86.5292 93.4967 87.0604 95.0327 87.2815C96.5688 87.5026 98.1337 87.4091 99.6327 87.0065C101.132 86.6039 102.534 85.9007 103.753 84.9394L101.393 82.5741H87.3225ZM103.408 66.454V80.5704L105.738 82.9357C106.691 81.7094 107.388 80.303 107.786 78.8005C108.185 77.2981 108.276 75.7305 108.056 74.1917C107.836 72.6529 107.308 71.1744 106.504 69.8449C105.7 68.5154 104.637 67.3621 103.378 66.454H103.408Z" fill="#E0E0E0"/>
<path d="M128.168 87.3505C125.825 87.3505 123.535 86.6542 121.587 85.3498C119.639 84.0453 118.121 82.1912 117.224 80.022C116.327 77.8527 116.093 75.4657 116.55 73.1629C117.007 70.86 118.135 68.7447 119.792 67.0844C121.449 65.4241 123.559 64.2935 125.857 63.8354C128.155 63.3773 130.537 63.6124 132.701 64.511C134.866 65.4095 136.716 66.9311 138.018 68.8834C139.319 70.8357 140.014 73.1309 140.014 75.4789C140.01 78.6262 138.761 81.6435 136.54 83.869C134.319 86.0945 131.309 87.3465 128.168 87.3505ZM112.248 109.045C107.212 109.038 102.343 107.23 98.5183 103.946C94.6934 100.662 92.1632 96.1184 91.3828 91.1319C93.4945 91.8567 95.733 92.1357 97.9575 91.9513C100.182 91.7668 102.344 91.123 104.308 90.0603C106.273 88.9975 107.996 87.5389 109.37 85.7762C110.744 84.0135 111.74 81.9848 112.293 79.8178C112.874 81.9579 113.879 83.9587 115.249 85.7002C116.619 87.4417 118.326 88.8882 120.267 89.9531C122.209 91.0179 124.344 91.6792 126.547 91.8973C128.749 92.1154 130.972 91.8858 133.084 91.2223C132.288 96.1885 129.754 100.709 125.937 103.974C122.12 107.239 117.267 109.037 112.248 109.045Z" fill="#F3BD48"/>
<path d="M133.7 68.2018C132.853 67.9694 131.956 67.9941 131.123 68.2729C130.291 68.5517 129.559 69.072 129.022 69.7679C128.484 70.4637 128.165 71.3038 128.104 72.1817C128.044 73.0595 128.245 73.9356 128.681 74.699C129.118 75.4624 129.771 76.0786 130.558 76.4697C131.344 76.8607 132.229 77.0089 133.1 76.8955C133.971 76.7822 134.788 76.4123 135.449 75.8328C136.11 75.2533 136.584 74.4903 136.812 73.6404C137.115 72.5058 136.959 71.2967 136.376 70.2775C135.792 69.2584 134.83 68.5121 133.7 68.2018Z" fill="#2D2A26"/>
<path d="M101.736 126.473C103.648 125.331 105.827 124.73 108.046 124.732V131.018C106.373 131.018 104.768 131.692 103.584 132.893C102.401 134.093 101.736 135.722 101.736 137.419V144.627V149.646H95.6025V144.627V137.407V125.193H100.55L101.812 126.473H101.736ZM174.631 137.202L183.213 149.633H175.931L170.997 142.464L166.049 149.633H158.78L167.349 137.202L159.07 125.193H166.34L170.997 131.927L175.641 125.193H182.91L174.631 137.202ZM87.2856 125.193H86.4527L85.1906 126.473C83.2781 125.332 81.0993 124.73 78.8804 124.732C75.5668 124.732 72.3888 126.067 70.0457 128.444C67.7026 130.821 66.3863 134.045 66.3863 137.407C66.3863 140.769 67.7022 143.995 70.0449 146.374C72.3877 148.753 75.5656 150.091 78.8804 150.094C81.0993 150.096 83.2781 149.494 85.1906 148.353L86.4527 149.633H91.3999V137.407V125.193H87.2856ZM78.8931 143.795C77.2195 143.795 75.6145 143.121 74.4311 141.92C73.2477 140.72 72.5829 139.092 72.5829 137.394C72.5829 135.696 73.2477 134.068 74.4311 132.867C75.6145 131.667 77.2195 130.992 78.8931 130.992C80.5666 130.992 82.1717 131.667 83.355 132.867C84.5384 134.068 85.2033 135.696 85.2033 137.394C85.2033 138.234 85.04 139.067 84.7229 139.843C84.4058 140.62 83.941 141.326 83.355 141.92C82.7691 142.515 82.0735 142.986 81.3079 143.308C80.5423 143.63 79.7217 143.795 78.8931 143.795ZM127.153 126.46C125.241 125.318 123.062 124.717 120.843 124.719C117.528 124.719 114.349 126.054 112.004 128.43C109.659 130.807 108.34 134.031 108.336 137.394C108.336 139.06 108.66 140.71 109.288 142.249C109.917 143.788 110.838 145.187 112 146.365C113.161 147.543 114.54 148.478 116.057 149.116C117.575 149.753 119.201 150.081 120.843 150.081C123.062 150.083 125.241 149.482 127.153 148.34L128.415 149.621H133.363V130.211V116H127.153V126.46ZM120.843 143.795C119.17 143.795 117.565 143.121 116.381 141.92C115.198 140.72 114.533 139.092 114.533 137.394C114.533 135.696 115.198 134.068 116.381 132.867C117.565 131.667 119.17 130.992 120.843 130.992C122.517 130.992 124.122 131.667 125.305 132.867C126.489 134.068 127.153 135.696 127.153 137.394C127.153 138.234 126.99 139.067 126.673 139.843C126.356 140.62 125.891 141.326 125.305 141.92C124.719 142.515 124.024 142.986 123.258 143.308C122.492 143.63 121.672 143.795 120.843 143.795ZM148.457 143.795C147.299 143.794 146.164 143.47 145.175 142.858C144.187 142.246 143.384 141.37 142.853 140.326H160.623C160.846 139.369 160.961 138.39 160.963 137.407C160.96 134.044 159.641 130.82 157.296 128.443C154.951 126.067 151.771 124.732 148.457 124.732C145.143 124.732 141.965 126.067 139.622 128.444C137.279 130.821 135.962 134.045 135.962 137.407C135.96 137.882 135.989 138.357 136.051 138.828C136.044 138.921 136.044 139.016 136.051 139.109C136.101 139.493 136.164 139.865 136.24 140.223C136.24 140.223 136.24 140.287 136.24 140.326C136.887 143.103 138.439 145.579 140.644 147.351C142.85 149.124 145.58 150.09 148.394 150.094C150.035 150.097 151.66 149.77 153.176 149.133C154.692 148.496 156.069 147.561 157.228 146.381L152.849 141.926C151.685 143.104 150.113 143.775 148.469 143.795H148.457ZM148.457 130.992C149.616 130.995 150.752 131.321 151.74 131.935C152.729 132.549 153.532 133.428 154.06 134.475H142.853C143.386 133.431 144.192 132.556 145.183 131.946C146.174 131.337 147.311 131.015 148.469 131.018L148.457 130.992ZM59.912 125.167H59.0664L57.8044 126.447C55.8926 125.304 53.7133 124.703 51.4942 124.706C48.1805 124.706 45.0026 126.041 42.6595 128.418C40.3164 130.795 39 134.019 39 137.381C39 140.744 40.316 143.969 42.6587 146.348C45.0015 148.727 48.1794 150.065 51.4942 150.069C53.7133 150.072 55.8926 149.471 57.8044 148.327V150.081C57.8044 151.779 57.1396 153.407 55.9562 154.608C54.7728 155.809 53.1677 156.483 51.4942 156.483C50.2281 156.479 48.9927 156.088 47.9484 155.362C46.904 154.636 46.0992 153.608 45.6383 152.412L41.0571 157.059C42.1928 158.815 43.7416 160.256 45.5637 161.253C47.3859 162.25 49.424 162.771 51.4942 162.769C54.7433 162.771 57.8652 161.488 60.1977 159.194C62.5302 156.899 63.8899 153.773 63.9884 150.478V125.193H59.8868L59.912 125.167ZM57.817 137.381C57.817 139.079 57.1522 140.707 55.9688 141.907C54.7854 143.108 53.1804 143.782 51.5068 143.782C49.8332 143.782 48.2282 143.108 47.0448 141.907C45.8615 140.707 45.1966 139.079 45.1966 137.381C45.1966 135.683 45.8615 134.055 47.0448 132.854C48.2282 131.654 49.8332 130.979 51.5068 130.979C53.1804 130.979 54.7854 131.654 55.9688 132.854C57.1522 134.055 57.817 135.683 57.817 137.381Z" fill="#1D1D1B"/>
<path d="M185.32 131.607C184.567 131.603 183.822 131.751 183.126 132.041C182.43 132.331 181.798 132.758 181.265 133.297C180.733 133.836 180.31 134.477 180.023 135.182C179.735 135.887 179.588 136.643 179.59 137.406C179.587 138.171 179.732 138.928 180.019 139.635C180.306 140.342 180.728 140.984 181.261 141.524C181.793 142.065 182.426 142.493 183.123 142.783C183.82 143.074 184.566 143.222 185.32 143.219C186.072 143.221 186.817 143.071 187.512 142.78C188.207 142.488 188.839 142.06 189.37 141.52C189.902 140.979 190.322 140.338 190.608 139.632C190.894 138.926 191.04 138.17 191.037 137.406C191.038 136.644 190.892 135.889 190.605 135.185C190.318 134.481 189.897 133.841 189.366 133.302C188.835 132.763 188.204 132.336 187.509 132.045C186.815 131.754 186.071 131.605 185.32 131.607ZM185.32 142.016C184.734 142.007 184.156 141.881 183.619 141.644C183.082 141.407 182.597 141.064 182.192 140.635C181.787 140.207 181.47 139.7 181.259 139.146C181.049 138.592 180.949 138 180.966 137.406C180.949 136.813 181.049 136.221 181.259 135.667C181.47 135.113 181.787 134.606 182.192 134.178C182.597 133.749 183.082 133.406 183.619 133.169C184.156 132.932 184.734 132.806 185.32 132.797C185.904 132.807 186.481 132.935 187.016 133.172C187.552 133.41 188.035 133.753 188.439 134.182C188.843 134.611 189.159 135.117 189.369 135.67C189.578 136.224 189.678 136.814 189.661 137.406C189.678 137.999 189.578 138.589 189.369 139.143C189.159 139.696 188.843 140.202 188.439 140.631C188.035 141.06 187.552 141.403 187.016 141.64C186.481 141.878 185.904 142.006 185.32 142.016ZM187.263 137.458C187.487 137.121 187.606 136.724 187.604 136.318C187.609 136.049 187.562 135.781 187.464 135.531C187.367 135.28 187.221 135.052 187.036 134.859C186.861 134.662 186.646 134.506 186.407 134.4C186.168 134.294 185.909 134.241 185.648 134.244H183.262V140.466H184.524V138.354H185.244L186.392 140.466H187.856L186.594 138.098C186.864 137.941 187.093 137.722 187.263 137.458ZM186.102 136.869C186.046 136.936 185.977 136.99 185.898 137.028C185.82 137.065 185.734 137.085 185.648 137.086H184.575V135.563H185.648C185.734 135.564 185.82 135.584 185.898 135.622C185.977 135.659 186.046 135.713 186.102 135.781C186.231 135.928 186.299 136.121 186.291 136.318C186.301 136.52 186.233 136.717 186.102 136.869Z" fill="#1D1D1B"/>
<path d="M111.247 162.835H102.982C103.348 164.209 104.378 164.896 106.074 164.896C107.155 164.896 107.974 164.53 108.529 163.8L110.809 165.115C109.727 166.679 108.134 167.461 106.03 167.461C104.217 167.461 102.763 166.913 101.667 165.817C100.571 164.72 100.023 163.339 100.023 161.673C100.023 160.036 100.564 158.662 101.645 157.552C102.712 156.441 104.1 155.885 105.81 155.885C107.433 155.885 108.755 156.441 109.779 157.552C110.831 158.662 111.357 160.036 111.357 161.673C111.357 161.98 111.32 162.367 111.247 162.835ZM102.939 160.643H108.529C108.368 159.927 108.039 159.378 107.542 158.998C107.06 158.618 106.483 158.428 105.81 158.428C105.05 158.428 104.422 158.626 103.925 159.02C103.428 159.4 103.099 159.941 102.939 160.643ZM118.805 161.542L122.817 167.154H119.55L117.183 163.822L114.793 167.154H111.527L115.538 161.563L111.702 156.192H114.968L117.183 159.283L119.397 156.192H122.642L118.805 161.542ZM130.499 156.192V158.911H128.021V163.471C128.021 163.851 128.116 164.128 128.306 164.304C128.496 164.479 128.774 164.582 129.139 164.611C129.505 164.625 129.958 164.618 130.499 164.589V167.154C128.584 167.373 127.217 167.198 126.399 166.628C125.595 166.043 125.193 164.991 125.193 163.471V158.911H123.286V156.192H125.193V153.978L128.021 153.123V156.192H130.499ZM135.492 156.192V158.078C135.74 157.391 136.164 156.872 136.763 156.521C137.363 156.156 138.05 155.973 138.824 155.973V159.13C137.962 159.013 137.187 159.188 136.5 159.656C135.828 160.109 135.492 160.862 135.492 161.914V167.154H132.664V156.192H135.492ZM150.726 162.835H142.461C142.826 164.209 143.857 164.896 145.552 164.896C146.634 164.896 147.452 164.53 148.008 163.8L150.288 165.115C149.206 166.679 147.613 167.461 145.508 167.461C143.696 167.461 142.242 166.913 141.146 165.817C140.049 164.72 139.501 163.339 139.501 161.673C139.501 160.036 140.042 158.662 141.124 157.552C142.191 156.441 143.579 155.885 145.289 155.885C146.911 155.885 148.234 156.441 149.257 157.552C150.309 158.662 150.836 160.036 150.836 161.673C150.836 161.98 150.799 162.367 150.726 162.835ZM142.417 160.643H148.008C147.847 159.927 147.518 159.378 147.021 158.998C146.539 158.618 145.961 158.428 145.289 158.428C144.529 158.428 143.901 158.626 143.404 159.02C142.907 159.4 142.578 159.941 142.417 160.643ZM164.933 155.885C166.19 155.885 167.191 156.295 167.937 157.113C168.697 157.932 169.077 159.028 169.077 160.402V167.154H166.249V160.599C166.249 159.941 166.088 159.43 165.766 159.064C165.445 158.699 164.992 158.516 164.407 158.516C163.764 158.516 163.26 158.728 162.895 159.152C162.544 159.576 162.368 160.19 162.368 160.993V167.154H159.54V160.599C159.54 159.941 159.38 159.43 159.058 159.064C158.736 158.699 158.283 158.516 157.699 158.516C157.07 158.516 156.566 158.735 156.186 159.174C155.821 159.598 155.638 160.204 155.638 160.993V167.154H152.81V156.192H155.638V157.354C156.296 156.375 157.311 155.885 158.685 155.885C160.045 155.885 161.038 156.412 161.667 157.464C162.383 156.412 163.472 155.885 164.933 155.885ZM182.133 162.835H173.868C174.234 164.209 175.264 164.896 176.96 164.896C178.041 164.896 178.86 164.53 179.415 163.8L181.695 165.115C180.613 166.679 179.02 167.461 176.916 167.461C175.103 167.461 173.649 166.913 172.553 165.817C171.457 164.72 170.909 163.339 170.909 161.673C170.909 160.036 171.45 158.662 172.531 157.552C173.598 156.441 174.986 155.885 176.696 155.885C178.319 155.885 179.641 156.441 180.665 157.552C181.717 158.662 182.243 160.036 182.243 161.673C182.243 161.98 182.206 162.367 182.133 162.835ZM173.825 160.643H179.415C179.254 159.927 178.925 159.378 178.428 158.998C177.946 158.618 177.369 158.428 176.696 158.428C175.936 158.428 175.308 158.626 174.811 159.02C174.314 159.4 173.985 159.941 173.825 160.643Z" fill="#F2F2F2"/>
</g>
<g clip-path="url(#clip1_969_11019)">
<path d="M125.139 293.643V353.137H119.2C118.311 353.137 117.434 353.199 116.557 353.286L92.5771 323.835L73.2276 300.07L64.2134 288.947L62.5711 291.283L36.3683 327.778L22.7854 311.217L-10.9868 358.674V366.089L-10.9127 366.002V393.377L-10.9868 393.475V400.891L-10.9127 400.792V401.62L-10.9868 401.533L-11.2214 401.212C-13.2184 398.355 -15.7859 395.945 -18.7616 394.132C-21.7372 392.32 -25.0563 391.145 -28.5088 390.683C-29.6382 390.525 -30.7766 390.443 -31.9169 390.435H-171.698C-175.839 390.428 -179.919 391.439 -183.579 393.378C-187.239 395.317 -190.367 398.126 -192.69 401.558V330.83C-192.693 324.992 -195.011 319.395 -199.134 315.266C-203.257 311.136 -208.849 308.814 -214.682 308.807H-248.664V266.937H-263V271.262H-252.986V284.856H-263V289.182H-252.986V302.776H-263V307.102H-252.986V320.98C-252.986 321.339 -252.986 321.648 -252.986 321.944H-262.938V326.27H-253.06V338.628H-262.938V342.954H-253.06V353.113H-262.938V357.438H-253.06V398.79C-253.06 417.426 -243.564 433.653 -229.598 442.045H-219.238C-236.242 436.718 -248.75 419.367 -248.75 398.79V337.899C-248.75 337.281 -248.75 336.663 -248.676 336.058V313.133H-214.694C-210.005 313.136 -205.51 315.002 -202.194 318.32C-198.879 321.638 -197.015 326.137 -197.012 330.83V442.057H-192.69V430.094H-10.9127V442.057H-6.59085V430.094H24.9834L25.0821 442.057H29.404L29.3052 430.094H32.6639V442.057H36.9857V430.094H62.9168L63.0527 442.057H67.3745L67.2511 430.094H72.6472V442.057H76.9691V430.094H94.4046V442.057H98.7265V430.094H188.349C194.927 430.087 201.233 427.469 205.884 422.815C210.534 418.16 213.15 411.848 213.157 405.266V357.438H231.592V353.113H188.078V321.71C188.035 317.904 189.502 314.237 192.157 311.512C194.812 308.787 198.439 307.228 202.241 307.176H231.592V302.85H202.241C199.787 302.871 197.362 303.376 195.103 304.335C192.845 305.294 190.797 306.689 189.077 308.44C187.357 310.192 185.999 312.265 185.079 314.542C184.16 316.818 183.698 319.254 183.719 321.71V353.137H154.392V312.577C154.392 297.079 161.887 289.219 176.68 289.219H231.592V284.893H176.68C159.516 284.893 150.07 294.78 150.07 312.577V353.137H129.461V293.643C129.461 280.469 139.13 271.262 152.922 271.262H231.592V266.937H152.96C136.574 266.937 125.139 277.923 125.139 293.643ZM-10.9127 425.744H-192.69V415.857C-192.69 410.285 -190.478 404.941 -186.541 401.001C-182.605 397.061 -177.265 394.847 -171.698 394.847H-31.9045H-31.4106C-28.6374 394.911 -25.9044 395.526 -23.3711 396.656C-20.8377 397.787 -18.5545 399.412 -16.6546 401.434C-15.6252 402.542 -14.7108 403.751 -13.9256 405.043C-12.2049 407.91 -11.197 411.148 -10.9868 414.485C-10.9868 414.93 -10.9127 415.375 -10.9127 415.832V425.744ZM64.411 296.115L87.0698 323.946C86.2983 324.883 85.3464 325.654 84.2709 326.215C83.1954 326.775 82.0181 327.113 80.8093 327.209C79.613 327.221 78.4306 326.951 77.358 326.421C76.2854 325.89 75.3526 325.115 74.6352 324.157L66.8436 314.579L64.0035 318.62C60.299 324.045 56.113 327.11 52.3222 327.271C51.0245 327.265 49.7464 326.954 48.5905 326.364C47.4346 325.774 46.4331 324.92 45.6665 323.872L45.1602 323.353L64.411 296.115ZM-6.61554 359.996L23.02 318.348L33.6517 331.411L-6.6402 387.432L-6.61554 359.996ZM32.6639 425.707H29.2435H20.3775C23.4837 423.015 26.1611 419.864 28.3174 416.364L30.4042 413.039H24.7487C27.3913 410.803 29.5007 408.003 30.9228 404.845C32.346 408.002 34.4553 410.802 37.0969 413.039H31.5526L33.6394 416.364C35.7957 419.864 38.4731 423.015 41.5793 425.707H32.6639ZM39.5789 417.365H60.0027C57.0337 420.993 53.0468 423.649 48.556 424.99C45.0121 423.531 41.8139 420.219 39.6035 417.365H39.5789ZM72.6101 425.719H67.2387H57.1996C60.8011 423.252 63.8499 420.062 66.1521 416.351L68.2513 413.027H59.7928C64.3301 409.893 67.8742 405.522 70.0047 400.433C72.2082 405.539 75.8134 409.914 80.4018 413.051H71.647L73.7462 416.376C76.0446 420.089 79.0941 423.28 82.6986 425.744L72.6101 425.719ZM94.3799 425.595C88.6397 424.83 83.4159 421.877 79.7968 417.352H94.4046L94.3799 425.595ZM94.3799 377.966V413.051H93.1451C83.2666 412.854 72.1533 402.88 72.1533 389.83H67.8314C67.8314 402.794 57.3355 412.532 47.6669 413.002C39.8752 412.384 33.2196 404.264 33.2196 395.02H28.8977C28.8977 404.635 21.7111 413.064 13.4996 413.064V417.389H22.4396C19.5378 421.097 14.969 425.731 9.88156 425.731H-6.59085V394.835L42.4313 326.678C43.5644 328.174 45.0198 329.395 46.6895 330.251C48.3591 331.107 50.1999 331.575 52.0752 331.621H52.5321C56.1007 331.485 61.4968 329.631 67.1276 321.734L71.3259 326.888C72.4581 328.36 73.9187 329.547 75.5911 330.354C77.2634 331.161 79.1012 331.565 80.9575 331.535C84.3435 331.324 87.5165 329.809 89.8111 327.308L111.766 354.274C106.733 355.865 102.337 359.019 99.2154 363.279C96.0938 367.539 94.4087 372.683 94.4046 377.966H94.3799ZM150.07 357.438H208.835V405.216C208.828 410.652 206.668 415.863 202.828 419.707C198.987 423.55 193.78 425.712 188.349 425.719H98.7265V377.966C98.7362 372.531 100.895 367.321 104.731 363.474C108.568 359.628 113.769 357.458 119.2 357.438H150.07Z" fill="#1D1D1B"/>
<path d="M231.592 338.653H212.896V342.979H231.592V338.653Z" fill="#1D1D1B"/>
<path d="M231.592 321.957H212.896V326.282H231.592V321.957Z" fill="#1D1D1B"/>
<path d="M15.0562 264.625C14.4004 264.506 13.7348 264.448 13.0682 264.452C9.99289 264.456 7.04431 265.679 4.86858 267.854C2.69286 270.029 1.46747 272.979 1.46094 276.057V278.22H61.9051L62.1891 276.391C62.2934 275.733 62.347 275.067 62.3496 274.401C62.3464 270.882 60.948 267.508 58.4617 265.019C55.9753 262.531 52.604 261.131 49.0877 261.128C47.7079 261.123 46.3363 261.34 45.0252 261.771C43.36 259.131 40.9959 257.005 38.1958 255.629C35.3957 254.253 32.2691 253.681 29.1638 253.977C26.0584 254.272 23.0958 255.424 20.6053 257.304C18.1148 259.184 16.1939 261.718 15.0562 264.625ZM30.7631 258.224C33.141 258.231 35.4682 258.912 37.4762 260.187C39.4841 261.462 41.0909 263.279 42.111 265.429L43.0618 267.431L45.0499 266.43C46.2977 265.784 47.6829 265.449 49.0877 265.453C51.3706 265.456 53.5663 266.331 55.2258 267.9C56.8853 269.469 57.8832 271.613 58.0154 273.894H6.15322C6.61626 272.412 7.54039 271.116 8.79091 270.195C10.0414 269.275 11.553 268.778 13.1052 268.778C14.0051 268.777 14.8972 268.944 15.7354 269.272L18.0321 270.162L18.6125 267.777C19.2782 265.054 20.8371 262.633 23.0399 260.901C25.2426 259.169 27.9619 258.226 30.7631 258.224Z" fill="#1D1D1B"/>
<path d="M-6.33247 248.399H21.4138L21.6854 246.557C21.7563 246.149 21.7935 245.736 21.7966 245.322C21.7984 244.072 21.5186 242.839 20.978 241.713C20.4375 240.587 19.6502 239.598 18.6746 238.818C17.6991 238.039 16.5605 237.49 15.3437 237.213C14.1268 236.935 12.863 236.935 11.6464 237.214C10.6829 235.916 9.43003 234.86 7.98746 234.13C6.5449 233.401 4.95231 233.018 3.33611 233.012C1.03881 233.07 -1.17806 233.871 -2.98312 235.294C-4.78817 236.718 -6.08444 238.688 -6.67822 240.91C-7.19174 242.858 -7.22989 244.901 -6.78938 246.866L-6.33247 248.399ZM-2.45517 241.824C-2.07012 240.569 -1.30723 239.463 -0.270695 238.658C0.765839 237.853 2.02547 237.387 3.33611 237.326C4.46995 237.328 5.58011 237.65 6.53902 238.256C7.49794 238.862 8.26672 239.726 8.75696 240.749L9.70776 242.763L11.6835 241.762C12.2392 241.469 12.8581 241.316 13.4863 241.317C14.327 241.321 15.1451 241.59 15.8253 242.084C16.5055 242.579 17.0133 243.274 17.2772 244.073H-2.75152C-2.72015 243.316 -2.62098 242.563 -2.45517 241.824Z" fill="#1D1D1B"/>
<path d="M143.538 338.801L145.081 334.847C141.804 331.971 138.821 328.775 136.178 325.306L133.486 321.821H142.451C138.348 319.162 134.885 315.625 132.313 311.464L130.214 308.152H136.672C132.732 305.274 129.709 301.317 127.966 296.758C126.246 301.312 123.244 305.27 119.323 308.152H125.769L123.669 311.464C121.093 315.626 117.626 319.163 113.519 321.821H122.484L119.743 325.306C115.814 330.592 111.001 335.157 105.518 338.801H125.694V353.137H130.214V338.801H143.538Z" fill="#E1251B"/>
<path d="M157.874 340.964L157.417 339.803L156.911 338.48L156.515 339.494L155.947 340.964L155.108 343.127L151.23 353.15H162.591L158.713 343.127L157.874 340.964Z" fill="#E1251B"/>
<path d="M190.906 340.803L190.091 338.69L189.276 336.601L185.782 327.506L185.164 325.936H156.764L156.838 326.146L156.986 326.517L158.147 329.508L159.307 332.498L161.666 338.604L162.555 340.877V340.964L163.395 343.127L167.272 353.137H195.673L191.734 342.966L190.906 340.803ZM179.793 344.288H171.865L167.013 331.732H179.225L179.447 332.288L180.682 335.39L181.917 338.492L184.152 344.288H179.793Z" fill="#E1251B"/>
<path d="M231.606 342.966L231.68 339.259V338.69H229.643C224.222 338.542 217.986 332.177 215.751 326.332H231.927L232.001 322.006H227.976C219.332 321.771 208.96 310.488 208.96 303.579H204.638C204.638 309.759 195.698 319.769 187.832 321.672H154.134C147.92 320.724 142.292 317.462 138.378 312.539H151.961V308.214H150.479C138.686 308.214 130.117 298.414 130.117 284.906H126.647C126.152 286.246 125.776 287.627 125.523 289.034C123.967 300.354 115.991 308.214 105.433 308.214V312.539H117.546C115.303 315.398 112.451 317.72 109.198 319.337C105.944 320.953 102.372 321.823 98.7402 321.882V326.208H113.459C110.047 330.288 105.921 333.714 101.284 336.317L106.643 343.189H121.461V353.199H125.783V338.863H105.519C111.008 335.201 115.821 330.614 119.744 325.306L122.424 321.821H113.459C117.566 319.163 121.033 315.625 123.609 311.464L125.709 308.152H119.263C123.184 305.27 126.186 301.312 127.907 296.758C129.649 301.317 132.673 305.274 136.612 308.152H130.216L132.327 311.464C134.899 315.625 138.362 319.162 142.465 321.821H133.5L136.192 325.306C138.836 328.774 141.818 331.97 145.095 334.847L143.552 338.801H130.216V353.137H134.537V343.127H141.946L138.069 353.137H142.7L146.577 343.127L147.417 340.964L148.256 338.801L148.701 337.64L149.516 335.563L150.318 333.487L152.677 327.308L154.665 332.437L153.43 335.526L152.652 337.553L151.356 340.902L150.516 343.065L146.639 353.075H151.207L155.085 343.065L155.924 340.902L156.492 339.432L156.888 338.418L157.394 339.741L157.851 340.902L158.69 343.065L162.568 353.075H167.26L163.383 343.065L162.543 340.902V340.816L161.654 338.542L159.295 332.437L158.135 329.446L156.974 326.455L156.826 326.084L156.752 325.874H185.152L185.77 327.444L189.289 336.54L190.104 338.628L190.919 340.742L191.759 342.904L195.698 353.075H200.341L196.389 342.904H200.464L200.551 353.075H204.873L204.749 338.579H194.722L194.463 337.936C198.37 334.306 201.246 329.705 202.798 324.601L203.514 321.882H196.896C200.938 319.004 204.287 315.259 206.7 310.92C209.038 315.27 212.347 319.021 216.369 321.882H210.293L210.726 324.416C211.578 329.298 215.01 334.847 219.468 338.579H208.799V353.075H213.121V342.904L231.606 342.966ZM146.737 330.608C145.232 329.215 143.801 327.742 142.453 326.196H148.454L146.737 330.608ZM197.636 326.319C196.402 329.013 194.734 331.485 192.697 333.635L189.869 326.319H197.636Z" fill="#1D1D1B"/>
<path d="M180.695 335.39L179.46 332.289L179.238 331.732H167.025L171.878 344.289H184.091L181.856 338.493L180.695 335.39ZM178.645 341.199H174.039L171.569 334.822H177.139L177.892 336.762L179.127 339.864L179.645 341.199H178.645Z" fill="#1D1D1B"/>
<path d="M151.316 340.964L152.613 337.615L153.391 335.6L154.588 332.499L152.6 327.382L150.242 333.487L149.427 335.563L148.624 337.64L148.18 338.801L147.34 340.964L146.5 343.127L142.623 353.15H146.599L150.476 343.127L151.316 340.964Z" fill="#8C9091"/>
<path d="M177.915 336.774L177.162 334.822H171.568L174.038 341.199H176.347H178.644H179.619L179.113 339.864L177.915 336.774Z" fill="#8C9091"/>
<path d="M219.505 338.641C215.047 334.933 211.614 329.359 210.762 324.478L210.33 321.944H216.405C212.384 319.082 209.075 315.331 206.737 310.982C204.324 315.321 200.975 319.066 196.932 321.944H203.502L202.785 324.663C201.226 329.77 198.342 334.371 194.426 337.998L194.685 338.641H204.712L204.835 353.137H208.811V338.641H219.505Z" fill="#E1251B"/>
<path d="M110.988 393.191L112.347 394.427C115.649 397.304 119.879 398.888 124.256 398.888C128.634 398.888 132.864 397.304 136.166 394.427L137.524 393.191L138.895 394.427C142.195 397.303 146.423 398.887 150.799 398.887C155.174 398.887 159.402 397.303 162.702 394.427L164.073 393.191L165.431 394.427C168.733 397.304 172.963 398.888 177.341 398.888C181.719 398.888 185.949 397.304 189.251 394.427L190.609 393.191L191.98 394.427C194.251 396.413 196.987 397.794 199.933 398.442C202.879 399.09 205.941 398.984 208.835 398.135V388.149C205.702 388.869 202.45 388.901 199.303 388.242C196.157 387.582 193.19 386.248 190.609 384.33C186.774 387.186 182.121 388.728 177.341 388.728C172.561 388.728 167.908 387.186 164.073 384.33C160.233 387.18 155.579 388.718 150.799 388.718C146.018 388.718 141.365 387.18 137.524 384.33C133.689 387.186 129.037 388.728 124.256 388.728C119.476 388.728 114.823 387.186 110.988 384.33C107.423 386.966 103.155 388.48 98.7266 388.68V398.814C102.751 398.594 106.588 397.037 109.63 394.39L110.988 393.191Z" fill="#8C9091"/>
<path d="M110.99 407.465L112.348 408.701C115.65 411.578 119.88 413.162 124.258 413.162C128.635 413.162 132.865 411.578 136.167 408.701L137.526 407.465L138.896 408.701C142.196 411.577 146.424 413.161 150.8 413.161C155.176 413.161 159.404 411.577 162.704 408.701L164.074 407.465L165.433 408.701C168.735 411.578 172.965 413.162 177.342 413.162C181.72 413.162 185.95 411.578 189.252 408.701L190.61 407.465L191.981 408.701C195.28 411.578 199.509 413.163 203.885 413.163C205.059 413.162 206.229 413.042 207.379 412.804C208.337 410.41 208.831 407.856 208.836 405.278V402.448C207.218 402.832 205.56 403.027 203.897 403.029C199.118 403.019 194.467 401.482 190.623 398.641C186.788 401.497 182.135 403.04 177.355 403.04C172.574 403.04 167.922 401.497 164.087 398.641C160.246 401.491 155.593 403.029 150.812 403.029C146.032 403.029 141.378 401.491 137.538 398.641C133.703 401.497 129.05 403.04 124.27 403.04C119.49 403.04 114.837 401.497 111.002 398.641C107.436 401.277 103.168 402.791 98.7402 402.992V413.051C102.764 412.825 106.599 411.269 109.644 408.627L110.99 407.465Z" fill="#8C9091"/>
<path d="M124.263 417.278C129.038 417.269 133.684 415.731 137.524 412.891C141.365 415.74 146.018 417.279 150.799 417.279C155.579 417.279 160.233 415.74 164.073 412.891C167.908 415.747 172.561 417.289 177.341 417.289C182.121 417.289 186.774 415.747 190.609 412.891C194.454 415.73 199.105 417.267 203.883 417.278C204.229 417.278 204.575 417.278 204.933 417.278C205.938 415.899 206.768 414.401 207.403 412.817C206.253 413.055 205.082 413.175 203.908 413.175C199.532 413.176 195.304 411.591 192.004 408.714L190.634 407.478L189.276 408.714C185.974 411.59 181.743 413.175 177.366 413.175C172.988 413.175 168.758 411.59 165.456 408.714L164.098 407.478L162.727 408.714C159.427 411.589 155.199 413.174 150.823 413.174C146.448 413.174 142.22 411.589 138.92 408.714L137.549 407.478L136.191 408.714C132.889 411.59 128.659 413.175 124.281 413.175C119.903 413.175 115.673 411.59 112.371 408.714L111.013 407.478L109.655 408.714C106.592 411.33 102.748 412.855 98.7266 413.051V417.204C103.154 417.001 107.422 415.487 110.988 412.854C114.828 415.709 119.479 417.26 124.263 417.278Z" fill="#1D1D1B"/>
<path d="M124.263 402.992C129.038 402.982 133.685 401.445 137.525 398.604C141.365 401.454 146.019 402.992 150.799 402.992C155.58 402.992 160.233 401.454 164.074 398.604C167.909 401.46 172.561 403.003 177.342 403.003C182.122 403.003 186.775 401.46 190.61 398.604C194.454 401.445 199.105 402.982 203.884 402.992C205.547 402.99 207.205 402.795 208.823 402.411V398.122C205.929 398.972 202.867 399.078 199.921 398.43C196.975 397.782 194.24 396.401 191.968 394.415L190.597 393.179L189.239 394.415C185.937 397.292 181.707 398.876 177.329 398.876C172.952 398.876 168.722 397.292 165.42 394.415L164.061 393.179L162.691 394.415C159.391 397.291 155.163 398.875 150.787 398.875C146.411 398.875 142.183 397.291 138.883 394.415L137.513 393.179L136.154 394.415C132.852 397.292 128.622 398.876 124.245 398.876C119.867 398.876 115.637 397.292 112.335 394.415L110.977 393.179L109.618 394.415C106.576 397.062 102.74 398.619 98.7148 398.839V402.992C103.143 402.791 107.411 401.277 110.977 398.641C114.828 401.473 119.484 402.997 124.263 402.992Z" fill="#1D1D1B"/>
<path d="M124.263 388.705C129.039 388.702 133.687 387.164 137.524 384.318C141.365 387.167 146.018 388.706 150.799 388.706C155.579 388.706 160.233 387.167 164.073 384.318C167.908 387.174 172.561 388.716 177.341 388.716C182.121 388.716 186.774 387.174 190.609 384.318C193.19 386.236 196.157 387.57 199.303 388.23C202.45 388.889 205.702 388.857 208.835 388.137V383.836C205.942 384.696 202.877 384.808 199.929 384.159C196.981 383.511 194.246 382.124 191.98 380.128L190.609 378.893L189.251 380.128C185.952 383.012 181.721 384.602 177.341 384.602C172.961 384.602 168.73 383.012 165.431 380.128L164.073 378.893L162.702 380.128C159.406 383.012 155.177 384.6 150.799 384.6C146.421 384.6 142.192 383.012 138.895 380.128L137.524 378.893L136.166 380.128C132.868 383.012 128.636 384.602 124.256 384.602C119.876 384.602 115.645 383.012 112.347 380.128L110.988 378.893L109.63 380.128C106.588 382.776 102.751 384.332 98.7266 384.553V388.705C103.155 388.505 107.423 386.991 110.988 384.355C114.834 387.19 119.487 388.714 124.263 388.705Z" fill="#1D1D1B"/>
<path d="M64.4364 296.115L45.2227 323.304L45.7289 323.823C46.4955 324.871 47.497 325.724 48.6529 326.314C49.8088 326.905 51.0869 327.215 52.3846 327.221C56.1754 327.061 60.3244 323.996 64.0659 318.57L66.906 314.529L74.6977 324.107C75.415 325.065 76.3478 325.841 77.4205 326.371C78.4931 326.902 79.6754 327.172 80.8717 327.16C82.0806 327.064 83.2578 326.726 84.3333 326.165C85.4089 325.605 86.3607 324.833 87.1322 323.897L64.4364 296.115Z" fill="#8C9091"/>
<path d="M49.0868 265.453C47.6819 265.449 46.2968 265.784 45.0489 266.43L43.0609 267.431L42.1101 265.429C41.0062 263.08 39.2022 261.132 36.9464 259.851C34.6906 258.571 32.0938 258.022 29.5132 258.279C26.9327 258.537 24.4953 259.588 22.5364 261.289C20.5775 262.99 19.1934 265.256 18.5745 267.777L17.9941 270.162L15.6974 269.272C14.8593 268.944 13.9671 268.777 13.0672 268.778C11.515 268.778 10.0035 269.275 8.75293 270.195C7.5024 271.116 6.57827 272.412 6.11523 273.894H57.9774C57.8456 271.62 56.8529 269.481 55.2013 267.913C53.5497 266.345 51.3632 265.465 49.0868 265.453Z" fill="#8C9091"/>
</g>
<defs>
<clipPath id="clip0_969_11019">
<rect width="152" height="114" fill="white" transform="translate(39 59)"/>
</clipPath>
<clipPath id="clip1_969_11019">
<path d="M0 233H200C211.046 233 220 241.954 220 253V422C220 433.046 211.046 442 200 442H20C8.9543 442 0 433.046 0 422V233Z" fill="white"/>
</clipPath>
</defs>
</svg>
