<svg id="gardex-video-bg" width="1920" height="570" viewBox="0 0 1920 570" fill="none" xmlns="http://www.w3.org/2000/svg">
<g clip-path="url(#clip0_969_11145)">
<path d="M1125.2 1.27323C1104.52 1.27323 1087.68 17.3706 1087.68 37.1512C1087.68 56.9318 1104.52 73.0291 1125.2 73.0291C1145.87 73.0291 1162.71 56.9318 1162.71 37.1512C1162.71 17.3706 1145.87 1.27323 1125.2 1.27323ZM1125.2 57.1137C1113.78 57.1137 1104.47 48.1556 1104.47 37.1512C1104.47 26.1468 1113.78 17.1887 1125.2 17.1887C1136.61 17.1887 1145.92 26.1468 1145.92 37.1512C1145.92 48.1556 1136.61 57.1137 1125.2 57.1137ZM73.1164 496.789H0V512.704H82.9036C79.2574 507.657 75.995 502.337 73.1164 496.789ZM0 318.536V334.452H57.7159V318.536H0ZM0 155.698V171.614H59.4431C60.7864 165.975 62.9454 160.61 65.776 155.698H0ZM124.451 551.584V570H145.705V562.588C138.269 559.45 131.168 555.767 124.451 551.584ZM1813.81 213.039V171.614H1923V155.698H1541.87C1478.21 155.698 1433.78 196.124 1433.78 254.01V266.424H1430.9C1403.84 266.424 1381.3 247.189 1367.53 231.774H1407.54V215.859C1370.21 215.859 1337.44 177.116 1337.44 133.008H1320.65C1320.65 177.116 1287.93 215.813 1250.61 215.859H1242.83C1242.26 215.586 1241.78 215.268 1241.2 214.995C1241.83 212.676 1242.16 210.311 1242.16 207.901V195.26C1242.16 181.163 1231.37 169.386 1217.22 166.93C1217.6 165.111 1217.79 163.247 1217.79 161.383C1217.79 144.103 1201.48 130.006 1181.42 130.006H1170.53C1150.48 130.006 1134.17 144.103 1134.17 161.383C1134.17 163.156 1134.31 164.884 1134.65 166.566C1119.15 167.885 1107.01 180.254 1107.01 195.26V207.901C1107.01 209.493 1107.11 211.084 1107.4 212.63C1093.15 214.995 1082.31 226.818 1082.31 241.005V253.601C1082.31 269.517 1095.93 282.431 1112.67 282.431H1150.1V319.309C1094.01 324.811 1055.97 363.327 1055.97 416.848V436.811H1021.33C999.593 436.811 979.059 441.858 961.068 450.816C941.782 460.365 925.278 474.326 913.14 491.332H761.629C753.089 381.88 650.515 381.88 611.127 381.88H287.476C277.929 381.88 264.015 381.88 248.327 383.471C245.592 383.744 242.762 384.062 239.931 384.426C237.149 384.79 234.366 385.245 231.535 385.745V401.797C234.366 401.251 237.149 400.796 239.931 400.387C242.762 399.978 245.544 399.614 248.327 399.341C263.152 397.795 276.969 397.795 287.476 397.795H611.127C652.434 397.795 736.681 397.795 744.741 491.332H359.537C320.676 491.332 288.963 506.384 270.156 531.348C261.809 542.398 256.003 555.449 253.269 570H270.444C273.995 554.767 281.671 541.625 292.562 531.348C308.73 516.16 331.998 507.248 359.537 507.248H903.496C899.658 514.887 896.588 522.936 894.477 531.348C892.03 540.67 890.782 550.447 890.782 560.542V570H907.574V560.542C907.574 550.447 909.062 540.67 911.796 531.348C914.051 523.754 917.17 516.479 921.056 509.658C933.05 517.161 946.867 521.663 961.068 522.617C962.987 522.799 964.906 522.845 966.873 522.845C984.577 522.845 1001.99 517.297 1016.34 507.248C1016.82 506.884 1017.3 506.611 1017.78 506.293C1018.21 506.611 1018.74 506.884 1019.17 507.248C1030.11 514.887 1042.77 519.889 1055.97 521.89C1058.75 522.299 1061.53 522.527 1064.36 522.663C1064.89 522.708 1065.47 522.708 1065.99 522.754V522.845H1068.68C1070.02 522.845 1071.41 522.754 1072.76 522.663C1089.02 521.89 1104.85 516.524 1118.14 507.248C1118.62 506.884 1119.1 506.611 1119.58 506.293C1120.01 506.611 1120.49 506.884 1120.97 507.248C1135.37 517.297 1152.78 522.845 1170.44 522.845C1176.58 522.845 1182.62 522.117 1188.57 520.844C1191.4 520.253 1194.19 519.525 1196.97 518.661C1199.8 517.752 1202.58 516.661 1205.37 515.433C1210.98 512.932 1216.35 509.931 1221.34 506.293C1235.97 516.979 1253.97 522.845 1272.24 522.845H1274.93V522.754C1292.25 522.208 1309.19 516.433 1323.15 506.293C1337.78 516.979 1355.77 522.845 1374.05 522.845C1392.33 522.845 1410.27 516.979 1424.95 506.293C1427.74 508.339 1430.71 510.158 1433.78 511.84C1433.78 511.886 1433.83 511.886 1433.83 511.886C1436.56 513.387 1439.3 514.796 1442.18 515.979C1442.18 516.024 1442.23 516.024 1442.23 516.024C1444.96 517.161 1447.74 518.161 1450.57 519.025H1450.62C1458.78 521.526 1467.27 522.845 1475.81 522.845C1488.09 522.845 1500.18 520.162 1511.22 515.205C1511.26 515.205 1511.36 515.205 1511.41 515.115V570H1528.2V512.704H1577.66V570H1594.46V496.789H1555.21C1574.21 482.92 1589.37 462.412 1591.82 445.814L1593.11 436.765H1574.11C1585.92 427.17 1595.61 414.302 1602.04 401.205C1608.37 414.347 1617.96 427.17 1629.72 436.765H1610.58L1612.69 446.314C1616.38 463.048 1631.73 483.147 1650.25 496.789H1610L1609.81 540.579L1609.71 556.495L1609.62 570H1626.41L1626.5 556.495L1626.6 540.579L1626.74 512.704H1717.08V570H1733.88V496.789H1694.68C1713.68 482.92 1728.84 462.412 1731.24 445.814L1732.58 436.765H1713.58C1725.34 427.17 1735.08 414.302 1741.5 401.205C1747.84 414.347 1757.43 427.17 1769.19 436.765H1750.04L1752.16 446.314C1755.85 463.048 1771.15 483.147 1789.72 496.789H1749.47L1749.23 540.579L1749.13 556.495V570H1765.88V556.495L1766.02 540.579L1766.16 512.704H1923V496.789H1830.21C1810.4 496.789 1782.67 472.87 1772.26 452.681H1809.92V436.765C1777.15 436.765 1750.04 392.111 1750.04 369.329H1733.25C1733.25 392.111 1706.15 436.765 1673.43 436.765L1670.45 436.811C1637.68 436.765 1610.62 392.111 1610.62 369.329H1593.83C1593.83 392.111 1566.73 436.765 1533.96 436.765L1528.01 436.811V422.85C1528.01 373.103 1586.4 334.452 1636.63 334.452H1923V318.536H1750.19C1750.24 318.081 1750.24 317.581 1750.24 317.081C1750.24 314.807 1750.19 312.625 1750.04 310.351C1786.41 288.433 1813.81 253.465 1813.81 213.039ZM1661.14 452.681L1693.62 452.726L1711.71 452.681C1705.09 466.823 1688.73 483.238 1672.32 491.469C1656.44 483.284 1640.23 467.05 1632.79 452.681H1661.14ZM1528.2 452.726H1544.13L1572.24 452.681C1565 468.187 1546.14 486.376 1528.2 493.606V452.726ZM1433.78 282.34V318.536H1351.93V282.34H1433.78ZM1314.42 228.318L1323.48 215.859H1296.47C1310.39 205.537 1321.8 190.894 1329.05 173.888C1336.29 190.894 1347.71 205.537 1361.63 215.859H1334.61L1343.68 228.318C1350.45 237.686 1363.93 254.147 1382.45 266.424H1335.14V318.536H1322.96V266.424H1275.65C1294.17 254.147 1307.65 237.686 1314.42 228.318ZM1290.57 231.774C1282.51 240.778 1271.43 251.1 1258.24 258.103C1258.48 256.648 1258.67 255.147 1258.67 253.601V241.005C1258.67 237.777 1258.04 234.685 1256.99 231.774H1290.57ZM1306.16 282.34V318.536H1204.17V282.431H1228.25C1228.68 282.431 1229.11 282.431 1229.55 282.34H1306.16ZM1112.67 266.515C1105.19 266.515 1099.1 260.74 1099.1 253.601V241.005C1099.1 233.911 1105.19 228.136 1112.67 228.136H1136.23L1126.44 215.45C1124.72 213.176 1123.8 210.584 1123.8 207.901V195.26C1123.8 188.166 1129.9 182.391 1137.38 182.391H1164.2L1153.98 169.613C1152.02 167.158 1150.96 164.293 1150.96 161.383C1150.96 152.879 1159.74 145.922 1170.53 145.922H1181.42C1192.22 145.922 1201 152.879 1201 161.383C1201 164.293 1199.94 167.158 1197.98 169.613L1187.71 182.391H1211.75C1219.28 182.391 1225.37 188.166 1225.37 195.26V207.901C1225.37 211.312 1223.88 213.949 1222.64 215.495L1213.28 227.454L1228.92 228.227C1236.17 228.546 1241.88 234.184 1241.88 241.005V253.601C1241.88 260.058 1236.84 265.333 1230.36 266.288C1229.69 266.424 1228.97 266.515 1228.25 266.515H1187.37V318.536H1166.89V266.515H1112.67ZM1072.76 416.848C1072.76 370.693 1106.82 337.817 1156.48 334.77C1158.97 334.633 1161.51 334.452 1164.11 334.452H1496.68C1478.4 343.864 1462.04 357.097 1450.57 373.149C1447.36 377.651 1444.53 382.334 1442.18 387.291C1438.15 395.612 1435.41 404.479 1434.31 413.892C1434.21 414.665 1434.12 423.351 1434.07 436.401H1072.76V416.848ZM1511.41 498.108C1511.41 498.108 1511.26 498.108 1511.22 498.199C1500.57 504.383 1488.38 507.702 1475.81 507.702C1467.13 507.702 1458.63 506.111 1450.67 503.064C1450.62 503.064 1450.57 503.019 1450.57 503.019C1447.7 501.927 1444.96 500.609 1442.27 499.154C1442.23 499.154 1442.18 499.108 1442.18 499.108C1439.3 497.562 1436.52 495.789 1433.88 493.833L1433.78 493.742C1432.53 492.787 1431.29 491.878 1430.09 490.878L1424.95 486.421L1419.77 490.878C1407.11 501.746 1390.84 507.702 1374.05 507.702C1357.26 507.702 1341 501.746 1328.28 490.878L1323.15 486.421L1317.97 490.878C1305.3 501.746 1289.04 507.702 1272.24 507.702C1255.45 507.702 1239.19 501.746 1226.52 490.878L1221.34 486.421L1216.21 490.878C1212.8 493.742 1209.16 496.289 1205.37 498.472C1202.63 500.018 1199.85 501.336 1196.97 502.519C1191.02 504.883 1184.78 506.52 1178.35 507.248C1175.76 507.521 1173.12 507.702 1170.44 507.702C1167.75 507.702 1165.16 507.521 1162.57 507.248C1153.6 506.202 1144.96 503.519 1137.09 499.29C1132.92 497.016 1128.94 494.379 1125.29 491.332C1125.1 491.15 1124.91 491.014 1124.72 490.878L1119.58 486.421L1114.4 490.878C1114.4 490.878 1114.02 491.15 1113.83 491.332C1110.18 494.379 1106.2 497.016 1102.02 499.29C1094.16 503.519 1085.52 506.202 1076.55 507.248C1075.3 507.384 1074.05 507.475 1072.76 507.521C1071.41 507.612 1070.02 507.702 1068.68 507.702C1067.24 507.702 1065.8 507.612 1064.36 507.521C1063.16 507.521 1061.96 507.339 1060.76 507.248C1059.13 507.066 1057.55 506.839 1055.97 506.566C1048.72 505.247 1041.76 502.746 1035.34 499.29C1031.16 497.016 1027.18 494.379 1023.49 491.332C1023.34 491.15 1023.1 491.014 1022.91 490.878L1017.78 486.421L1012.6 490.878C1012.6 490.878 1012.21 491.15 1012.02 491.332C1008.37 494.379 1004.39 497.016 1000.22 499.29C992.349 503.519 983.713 506.202 974.789 507.248C972.151 507.521 969.512 507.702 966.873 507.702C964.954 507.702 962.987 507.612 961.068 507.43C960.349 507.384 959.677 507.339 958.957 507.248C950.034 506.202 941.398 503.519 933.53 499.29C932.186 498.517 930.843 497.789 929.5 496.925C930.987 495.016 932.57 493.151 934.201 491.332C941.83 482.647 950.945 475.144 961.068 469.142C978.532 458.728 999.21 452.726 1021.33 452.726H1511.41V498.108ZM1524.55 378.742C1521.2 384.153 1518.32 389.746 1516.16 395.658C1512.99 404.298 1511.22 413.392 1511.22 422.85V436.811H1450.81V436.401C1450.86 424.669 1450.91 416.803 1450.96 415.666C1454.46 385.972 1478.64 361.099 1507.76 347.002C1510.54 345.683 1513.33 344.41 1516.16 343.273C1518.94 342.182 1521.72 341.182 1524.55 340.227C1536.07 336.498 1547.92 334.452 1559.15 334.452H1574.5C1554.01 345.047 1536.07 360.371 1524.55 378.742ZM1562.7 317.081C1562.7 317.581 1562.74 318.081 1562.74 318.536H1549.65C1549.65 318.081 1549.6 317.581 1549.6 317.081C1549.6 300.029 1555.88 284.341 1566.39 271.972L1575.7 280.794C1567.59 290.889 1562.7 303.439 1562.7 317.081ZM1672.23 318.536H1579.54C1579.54 318.081 1579.49 317.581 1579.49 317.081C1579.49 292.844 1600.26 273.109 1625.88 273.109C1651.5 273.109 1672.27 292.844 1672.27 317.081C1672.27 317.581 1672.23 318.081 1672.23 318.536ZM1578.24 260.695C1589.27 252.328 1602.76 246.78 1617.48 245.234V257.785C1606.35 259.194 1596.14 263.378 1587.6 269.562L1578.24 260.695ZM1671.65 262.468L1664.17 269.562C1655.63 263.378 1645.41 259.194 1634.28 257.785V245.234C1649.01 246.78 1662.49 252.328 1673.52 260.695L1671.65 262.468ZM1702.12 318.536H1689.02C1689.02 318.081 1689.07 317.581 1689.07 317.081C1689.07 303.439 1684.17 290.889 1676.02 280.794L1683.5 273.7L1685.37 271.972C1695.83 284.341 1702.16 300.029 1702.16 317.081C1702.16 317.581 1702.12 318.081 1702.12 318.536ZM1733.4 318.536H1718.86C1718.86 318.081 1718.96 317.581 1718.96 317.081C1718.96 268.471 1677.22 228.864 1625.88 228.864C1574.55 228.864 1532.81 268.471 1532.81 317.081C1532.81 317.581 1532.85 318.081 1532.85 318.536H1518.32V317.081C1518.32 260.877 1566.53 215.131 1625.88 215.131C1685.23 215.131 1733.44 260.877 1733.44 317.081C1733.44 317.581 1733.44 318.081 1733.4 318.536ZM1729.37 251.873C1727.11 248.69 1724.71 245.598 1722.22 242.688C1721.4 241.687 1720.54 240.732 1719.63 239.777C1717.9 237.868 1716.03 235.958 1714.16 234.23C1691.61 212.585 1660.38 199.216 1625.88 199.216C1557.27 199.216 1501.53 252.101 1501.53 317.081V318.536H1450.57V254.01C1450.57 205.491 1488.14 171.614 1541.87 171.614H1747.74V213.039C1747.74 229.364 1742.46 244.643 1733.59 258.285C1732.29 256.102 1730.85 253.965 1729.37 251.873ZM1747.69 293.117C1747.31 291.525 1746.93 289.934 1746.49 288.388C1745.25 283.659 1743.66 279.066 1741.84 274.609C1755.85 256.693 1764.53 235.73 1764.53 213.039V172.251H1797.01V213.039C1797.01 245.507 1776.24 273.973 1747.69 293.117ZM1797.49 21.0993C1793.46 21.0993 1789.48 21.645 1785.69 22.6909C1775.81 8.68528 1759.02 0 1740.98 0C1719.05 0 1699.72 12.4595 1691.46 31.1033C1689.79 30.9214 1688.11 30.785 1686.43 30.785C1665.75 30.785 1648.91 46.7459 1648.91 66.3446V74.3024H1838.51L1839.57 67.5269C1839.95 65.3442 1840.1 63.3889 1840.1 61.4791C1840.1 39.2429 1820.95 21.0993 1797.49 21.0993ZM1667.48 58.3869C1670.74 51.5205 1677.98 46.7004 1686.43 46.7004C1688.97 46.7004 1691.46 47.1552 1693.91 48.0646L1702.84 51.3387L1705.09 42.5624C1709.17 26.8744 1723.94 15.9154 1740.98 15.9154C1755.18 15.9154 1768.32 23.7822 1774.42 35.9689L1778.11 43.3809L1785.79 39.6976C1789.48 37.9242 1793.42 37.0148 1797.49 37.0148C1810.59 37.0148 1821.48 46.3367 1823.11 58.3869H1667.48Z" fill="#E8EDF0"/>
<path d="M1746.49 288.388C1746.93 289.979 1747.31 291.571 1747.65 293.162C1747.65 293.162 1747.69 293.162 1747.69 293.117C1747.31 291.525 1746.93 289.934 1746.49 288.388Z" fill="#F3BD48"/>
<path d="M239.931 400.387C237.149 400.796 234.366 401.251 231.535 401.797V570H248.327V399.341C245.544 399.614 242.762 399.978 239.931 400.387ZM145.705 562.588V570H168.254C160.482 568.09 152.95 565.589 145.705 562.588Z" fill="#F3BD48"/>
<path d="M248.327 185.71V570H239.931V185.71C239.931 146.604 199.007 114.91 157.795 114.91H124.019C121.716 114.91 119.462 115 117.255 115.228C116.583 115.273 115.911 115.319 115.288 115.41C113.129 115.637 111.018 115.955 108.955 116.365C108.715 116.41 108.427 116.456 108.139 116.501C108.091 116.547 108.043 116.547 107.995 116.547C107.851 116.592 107.707 116.592 107.563 116.637C107.276 116.683 107.036 116.774 106.748 116.819C106.364 116.91 106.028 117.001 105.644 117.092C104.589 117.32 103.581 117.638 102.526 117.911C101.662 118.138 100.799 118.411 99.9831 118.684C99.0235 118.957 98.112 119.275 97.2004 119.639C96.7207 119.775 96.2409 119.957 95.8091 120.139C94.7536 120.548 93.6981 121.003 92.6427 121.458H92.5947C91.875 121.776 91.2034 122.094 90.4837 122.458C89.3323 122.958 88.2288 123.549 87.1253 124.186C86.3097 124.595 85.5421 125.05 84.7265 125.505C83.8629 125.959 83.0473 126.46 82.2797 127.005C81.2242 127.687 80.1687 128.369 79.1612 129.097C77.578 130.188 76.0427 131.371 74.6034 132.644C74.1237 133.053 73.5959 133.462 73.1162 133.917C72.4445 134.463 71.8208 135.054 71.1971 135.645C70.0457 136.736 68.9422 137.873 67.8867 139.01C66.8792 140.101 65.8717 141.238 64.9122 142.42C64.4324 143.012 64.0006 143.557 63.5688 144.148C62.5613 145.422 61.6497 146.74 60.7862 148.059C60.4983 148.468 60.2104 148.923 59.9226 149.378C58.6272 151.424 57.4278 153.516 56.3243 155.699C55.5567 157.336 54.7891 158.973 54.1174 160.7C53.7816 161.61 53.4457 162.519 53.1099 163.474C52.87 164.111 52.6301 164.793 52.4382 165.475C51.7666 167.476 51.2388 169.522 50.807 171.614C49.8475 176.161 49.3197 180.89 49.3197 185.71V434.719C49.3197 435.492 49.3197 436.219 49.3677 436.947C49.3677 437.72 49.3677 438.493 49.4157 439.221C49.4637 440.357 49.5116 441.449 49.5596 442.54C49.7036 445.541 49.9434 448.543 50.3273 451.498C50.5192 453.317 50.807 455.136 51.0949 456.955C51.4307 459.047 51.8145 461.138 52.2463 463.185C52.6301 465.231 53.1099 467.323 53.6376 469.324C54.7411 473.643 55.9885 477.872 57.5237 482.01C58.0035 483.42 58.4833 484.784 59.059 486.148C59.4908 487.331 59.9706 488.468 60.4503 489.604C61.4578 492.06 62.5613 494.424 63.7127 496.789C63.7607 496.925 63.8087 497.016 63.9046 497.107C64.8162 499.017 65.8237 500.927 66.8792 502.837C66.8792 502.928 66.9751 503.064 67.0711 503.155C68.1266 505.065 69.2301 506.975 70.3815 508.839C71.1491 510.158 71.9647 511.431 72.8283 512.704C73.9318 514.341 75.0352 515.979 76.1867 517.57C77.8658 519.98 79.689 522.345 81.56 524.618C82.1837 525.437 82.8554 526.255 83.5751 527.028C84.7745 528.484 86.0219 529.939 87.3652 531.348C88.7086 532.803 90.0519 534.213 91.4432 535.623C92.8346 537.032 94.2259 538.397 95.6652 539.761C97.1045 541.125 98.5918 542.444 100.079 543.717C101.182 544.717 102.334 545.672 103.485 546.582C105.356 548.128 107.228 549.628 109.195 551.038C110.394 551.947 111.593 552.811 112.793 553.63C113.273 553.994 113.752 554.312 114.232 554.63C115.911 555.722 117.591 556.813 119.27 557.904C120.997 558.95 122.724 559.996 124.451 560.997C130.256 564.361 136.349 567.363 142.634 570H124.115C105.74 560.087 89.5721 546.945 76.4745 531.348C71.5809 525.437 67.0711 519.253 63.137 512.704C59.9226 507.566 57.092 502.291 54.5972 496.789C52.2943 491.878 50.3273 486.876 48.6001 481.738C43.6105 466.914 40.9238 451.134 40.9238 434.719V185.71C40.9238 180.89 41.4036 176.207 42.2672 171.614C43.3227 166.112 45.0018 160.746 47.2088 155.699C47.6406 154.698 48.0724 153.698 48.6001 152.697C61.7937 125.732 90.6276 106.952 124.019 106.952H157.795C203.613 106.952 248.327 142.284 248.327 185.71Z" fill="#E8EDF0"/>
<path d="M239.932 185.711V570H231.536V185.711C231.536 151.06 194.354 122.867 157.796 122.867H124.02C98.9282 122.867 77.0508 136.145 65.7763 155.699C62.9457 160.61 60.7867 165.975 59.4434 171.614C58.2919 176.116 57.7162 180.845 57.7162 185.711V434.719C57.7162 457.001 63.2335 478.1 73.1167 496.789C75.9953 502.337 79.2577 507.657 82.904 512.705C87.6057 519.344 92.9311 525.573 98.8322 531.348C106.461 538.988 115.096 545.763 124.452 551.584C131.168 555.767 138.269 559.45 145.705 562.588C152.95 565.589 160.482 568.09 168.254 570H142.635C136.35 567.363 130.257 564.362 124.452 560.997C122.725 559.996 120.997 558.95 119.27 557.904C117.591 556.813 115.912 555.722 114.233 554.63C113.753 554.312 113.273 553.994 112.793 553.63C111.594 552.811 110.395 551.947 109.195 551.038C107.228 549.628 105.357 548.128 103.486 546.582C102.335 545.672 101.183 544.717 100.08 543.717C98.5923 542.444 97.1051 541.125 95.6658 539.761C94.2265 538.397 92.8351 537.032 91.4438 535.623C90.0525 534.213 88.7091 532.803 87.3658 531.348C86.0224 529.939 84.7751 528.484 83.5756 527.028C82.856 526.255 82.1843 525.437 81.5606 524.618C79.6895 522.345 77.8664 519.98 76.1872 517.57C75.0358 515.979 73.9323 514.342 72.8289 512.705C71.9653 511.431 71.1497 510.158 70.3821 508.839C69.2306 506.975 68.1272 505.065 67.0717 503.155C66.9757 503.064 66.9277 502.928 66.8798 502.837C65.8243 500.927 64.8168 499.017 63.9052 497.107C63.8093 497.016 63.7613 496.926 63.7133 496.789C62.5619 494.424 61.4584 492.06 60.4509 489.604C59.9711 488.468 59.4914 487.331 59.0596 486.148C58.5318 484.784 58.0041 483.42 57.5243 482.01C55.9891 477.872 54.7417 473.644 53.6382 469.324C53.1105 467.323 52.6307 465.231 52.2469 463.185C51.8151 461.139 51.4313 459.047 51.0954 456.955C50.8076 455.136 50.5197 453.317 50.3278 451.498C49.944 448.543 49.7041 445.541 49.5602 442.54C49.5122 441.449 49.4642 440.357 49.4163 439.221C49.3683 438.493 49.3683 437.72 49.3683 436.947C49.3203 436.219 49.3203 435.492 49.3203 434.719V185.711C49.3203 180.89 49.8481 176.161 50.8076 171.614C51.2394 169.522 51.7671 167.476 52.4388 165.475C52.6307 164.793 52.8706 164.111 53.1105 163.474C53.4463 162.519 53.7821 161.61 54.118 160.701C54.7896 158.973 55.5573 157.336 56.3249 155.699C57.4284 153.516 58.6278 151.424 59.9232 149.378C60.211 148.923 60.4989 148.468 60.7867 148.059C61.6503 146.74 62.5619 145.422 63.5694 144.148C64.0012 143.557 64.433 143.012 64.9127 142.421C65.8723 141.238 66.8798 140.101 67.8873 139.01C68.9428 137.873 70.0462 136.736 71.1977 135.645C71.8214 135.054 72.4451 134.463 73.1167 133.917C73.5965 133.462 74.1242 133.053 74.604 132.644C76.0433 131.371 77.5786 130.188 79.1618 129.097C80.1693 128.369 81.2248 127.687 82.2803 127.005C83.0479 126.46 83.8635 125.959 84.7271 125.505C85.5427 125.05 86.3103 124.595 87.1259 124.186C88.2294 123.549 89.3328 122.958 90.4843 122.458C91.2039 122.094 91.8756 121.776 92.5952 121.458H92.6432C93.6987 121.003 94.7542 120.548 95.8097 120.139C96.2415 119.957 96.7212 119.775 97.201 119.639C98.1126 119.275 99.0241 118.957 99.9837 118.684C100.799 118.411 101.663 118.138 102.526 117.911C103.582 117.638 104.589 117.32 105.645 117.092C106.029 117.001 106.365 116.91 106.748 116.819C107.036 116.774 107.276 116.683 107.564 116.638C107.708 116.592 107.852 116.592 107.996 116.547C108.044 116.547 108.092 116.547 108.14 116.501C108.428 116.456 108.715 116.41 108.955 116.365C111.018 115.955 113.129 115.637 115.288 115.41C115.912 115.319 116.584 115.273 117.255 115.228C119.462 115 121.717 114.91 124.02 114.91H157.796C199.007 114.91 239.932 146.604 239.932 185.711Z" fill="#E8EDF0"/>
</g>
<defs>
<clipPath id="clip0_969_11145">
<rect width="1923" height="570" fill="white"/>
</clipPath>
</defs>
</svg>
