<svg id="google" width="35" height="35" viewBox="0 0 35 35" fill="none" xmlns="http://www.w3.org/2000/svg">
<rect width="35" height="35" rx="3.6" fill="#F3BD48"/>
<path d="M21.1918 18.2C21.1918 22.4458 17.6945 25.9 13.3957 25.9C9.09687 25.9 5.59961 22.4458 5.59961 18.2C5.59961 13.9542 9.09687 10.5 13.3957 10.5C15.1301 10.5 16.7732 11.0514 18.1474 12.0947L16.3373 14.4202C15.4869 13.7745 14.4696 13.4332 13.3957 13.4332C10.7345 13.4332 8.56957 15.5715 8.56957 18.1998C8.56957 20.8282 10.7345 22.9665 13.3957 22.9665C15.539 22.9665 17.3605 21.5794 17.9882 19.6664H13.3957V16.7332H21.1918V18.2ZM29.3996 19.1589H27.1664V21.3648H25.2244V19.1589H22.9922V17.241H25.2244V15.0352H27.1664V17.2411H29.3996V19.1589Z" fill="#163029"/>
</svg>
