<svg id="guard" width="73" height="84" viewBox="0 0 73 84" fill="none" xmlns="http://www.w3.org/2000/svg">
<path fill-rule="evenodd" clip-rule="evenodd" d="M65.8262 9.52014C56.3167 8.99616 47.386 6.32615 39.5032 1.98765L39.6439 1.74385L36.6693 0.0264285L36.6541 8.14361e-05L36.6389 0.00886379L36.6236 7.30517e-05L36.6084 0.0264453L33.4639 1.84192L33.5952 2.06925C25.7488 6.35965 16.8705 8.99949 7.4206 9.52016V9.51584H0.5V47.5006C0.5 67.451 16.673 83.624 36.6234 83.624C56.5738 83.624 72.7468 67.451 72.7468 47.5006V9.51584H65.8262V9.52014ZM7.4206 16.4502C17.9475 15.9282 27.858 13.038 36.6235 8.30005C45.389 13.038 55.2995 15.9281 65.8262 16.4502V47.5006C65.8262 63.6289 52.7517 76.7034 36.6234 76.7034C20.4952 76.7034 7.4206 63.6289 7.4206 47.5006V16.4502ZM56.6969 33.478L34.514 59.0559L20.1641 46.6976L24.6802 41.4536L33.8043 49.3114L51.4687 28.9437L56.6969 33.478Z" fill="#56CCF2"/>
</svg>
