<svg id="home" width="225" height="37" viewBox="0 0 225 37" fill="none" xmlns="http://www.w3.org/2000/svg">
<path d="M36.6406 2.99988H53.4406V9.91188H43.8406V26.9999H36.6406V2.99988Z" fill="#A0C966"/>
<path d="M56.4054 2.99988H75.9894V26.9999H68.7894V9.91188H63.6054V17.0639C63.6054 20.7119 62.6934 23.3839 60.8694 25.0799C59.0774 26.7759 56.4374 27.4159 52.9494 26.9999V20.2799C54.0694 20.5999 54.9174 20.4399 55.4934 19.7999C56.1014 19.1599 56.4054 18.0879 56.4054 16.5839V2.99988Z" fill="#A0C966"/>
<path d="M98.6896 5.25588V2.99988H105.89V26.9999H98.6896V24.7439C97.0256 26.6959 94.6416 27.6719 91.5376 27.6719C88.3696 27.6719 85.6656 26.4559 83.4256 24.0239C81.1856 21.5919 80.0656 18.5839 80.0656 14.9999C80.0656 11.4479 81.1856 8.45588 83.4256 6.02388C85.6976 3.55988 88.4016 2.32788 91.5376 2.32788C94.6416 2.32788 97.0256 3.30388 98.6896 5.25588ZM87.2656 14.9999C87.2656 16.7919 87.7936 18.2159 88.8496 19.2719C89.9056 20.3279 91.2816 20.8559 92.9776 20.8559C94.6736 20.8559 96.0496 20.3279 97.1056 19.2719C98.1616 18.2159 98.6896 16.7919 98.6896 14.9999C98.6896 13.2079 98.1616 11.7839 97.1056 10.7279C96.0496 9.67188 94.6736 9.14388 92.9776 9.14388C91.2816 9.14388 89.9056 9.67188 88.8496 10.7279C87.7936 11.7839 87.2656 13.2079 87.2656 14.9999Z" fill="#A0C966"/>
<path d="M129.076 14.7119C131.22 15.8639 132.292 17.6719 132.292 20.1359C132.292 22.2159 131.572 23.8799 130.132 25.1279C128.692 26.3759 126.692 26.9999 124.132 26.9999H111.172V2.99988H123.172C125.732 2.99988 127.732 3.62388 129.172 4.87188C130.612 6.11988 131.332 7.78388 131.332 9.86388C131.332 11.9759 130.58 13.5919 129.076 14.7119ZM122.404 8.75988H117.892V12.1199H122.404C123.812 12.1199 124.516 11.5759 124.516 10.4879C124.516 9.33588 123.812 8.75988 122.404 8.75988ZM117.892 21.0479H123.172C124.58 21.0479 125.284 20.4559 125.284 19.2719C125.284 18.1519 124.58 17.5919 123.172 17.5919H117.892V21.0479Z" fill="#A0C966"/>
<path d="M151.235 11.6399V2.99988H158.435V26.9999H151.235V18.3599H143.075V26.9999H135.875V2.99988H143.075V11.6399H151.235Z" fill="#A0C966"/>
<path d="M174.327 17.7359L178.839 2.99988H186.519L178.311 26.2799C175.783 33.5119 171.223 36.9519 164.631 36.5999V29.8799C166.263 29.8799 167.511 29.6399 168.375 29.1599C169.239 28.6799 169.943 27.8159 170.487 26.5679L161.079 2.99988H168.759L174.327 17.7359Z" fill="#A0C966"/>
<path d="M211.492 2.32788C215.044 2.32788 218.052 3.55988 220.516 6.02388C222.98 8.48788 224.212 11.4799 224.212 14.9999C224.212 18.5519 222.98 21.5599 220.516 24.0239C218.084 26.4559 215.076 27.6719 211.492 27.6719C208.548 27.6719 205.972 26.8079 203.764 25.0799C201.588 23.3839 200.132 21.1439 199.396 18.3599H196.372V26.9999H189.172V2.99988H196.372V11.6399H199.396C200.132 8.85588 201.588 6.61588 203.764 4.91988C205.972 3.19188 208.548 2.32788 211.492 2.32788ZM207.508 19.0799C208.564 20.1359 209.892 20.6639 211.492 20.6639C213.092 20.6639 214.404 20.1359 215.428 19.0799C216.484 18.0239 217.012 16.6639 217.012 14.9999C217.012 13.3359 216.484 11.9759 215.428 10.9199C214.404 9.86388 213.092 9.33588 211.492 9.33588C209.892 9.33588 208.564 9.86388 207.508 10.9199C206.484 12.0079 205.972 13.3679 205.972 14.9999C205.972 16.6319 206.484 17.9919 207.508 19.0799Z" fill="#A0C966"/>
<path fill-rule="evenodd" clip-rule="evenodd" d="M9.95028 15L19.4754 5.47489L14.5257 0.525146L0.0507812 15L14.5257 29.4749L19.4754 24.5251L9.95028 15Z" fill="#A0C966"/>
</svg>
