<svg id="insect-6" width="60" height="49" viewBox="0 0 60 49" fill="" xmlns="http://www.w3.org/2000/svg">
<path d="M42.4898 31.6656C42.3936 27.8088 40.6212 23.658 37.8333 20.7371C38.0095 21.2319 38.1978 21.7306 38.388 22.2353C39.3494 24.7707 40.4349 27.634 40.487 31.6775C40.487 31.7828 40.487 31.8881 40.487 31.9954C40.487 38.2544 35.2897 43.9551 29.5857 43.9551C23.8817 43.9551 18.6844 38.2544 18.6844 31.9954C18.6844 31.8881 18.6844 31.7828 18.6844 31.6775C18.7365 27.634 19.82 24.7707 20.7814 22.2353C20.9817 21.7306 21.1619 21.2418 21.3382 20.7371C18.5503 23.66 16.7778 27.8108 16.6816 31.6656C16.6816 31.7748 16.6816 31.8841 16.6816 31.9934C16.6816 35.409 18.0435 38.9022 20.4169 41.5727C22.2434 43.6272 24.4725 45.0082 26.8679 45.6043C27.5243 45.7697 28.1948 45.8741 28.8707 45.9162C29.107 45.9321 29.3454 45.9401 29.5857 45.9401C29.8461 45.9401 30.1045 45.9301 30.3608 45.9123C31.0369 45.8658 31.7073 45.7581 32.3636 45.5904C34.7349 44.9943 36.94 43.6034 38.7526 41.5727C41.1279 38.9022 42.4898 35.413 42.4898 31.9934C42.4938 31.8841 42.4938 31.7748 42.4898 31.6656Z" />
<path d="M32.7678 5.74141C32.1341 5.43371 31.4599 5.2163 30.765 5.09564C30.3766 5.02944 29.9833 4.99621 29.5893 4.99629C29.2155 4.99554 28.8423 5.02611 28.4737 5.08769C27.7795 5.20058 27.105 5.41135 26.4709 5.71359C22.8659 7.41247 20.3604 11.8375 20.3604 15.7598C20.3646 17.3565 20.7482 18.9297 21.4799 20.3517C21.512 20.2603 21.542 20.1669 21.5721 20.0755C21.6021 19.9841 21.6341 19.8908 21.6622 19.7994C21.7236 19.6073 21.7817 19.4145 21.8364 19.2211C21.8625 19.1337 21.8865 19.0463 21.9085 18.9608L21.9806 18.6807C22.0287 18.4919 22.0727 18.3032 22.1108 18.1124C22.1288 18.0289 22.1449 17.9435 22.1609 17.8581C22.1618 17.8462 22.1618 17.8342 22.1609 17.8223C22.1796 17.7309 22.1956 17.6395 22.2089 17.5481C22.243 17.3375 22.2731 17.1269 22.2951 16.9123L22.3191 16.6619C22.3191 16.5625 22.3351 16.4632 22.3392 16.3639C22.3432 16.2645 22.3492 16.181 22.3512 16.0877C22.3532 15.9943 22.3512 15.8691 22.3512 15.7598C22.3512 11.7858 25.5757 6.98328 29.5773 6.98328C33.5789 6.98328 36.8014 11.7858 36.8014 15.7598C36.8014 17.3911 37.1799 18.8734 37.6866 20.3517C38.4167 18.9291 38.7995 17.3562 38.8042 15.7598C38.8162 11.8613 36.3408 7.46214 32.7678 5.74141Z" />
<path d="M42.4933 31.9935H40.4904C40.4904 31.8862 40.4904 31.7809 40.4904 31.6756C40.4384 27.632 39.3529 24.7688 38.3915 22.2334C38.2012 21.7287 38.013 21.2399 37.8367 20.7352C37.7927 20.608 37.7466 20.4809 37.7046 20.3537C37.1979 18.8754 36.8193 17.3931 36.8193 15.7618H38.8221C38.8221 17.719 39.4931 19.4894 40.2682 21.538C41.2876 24.2303 42.4432 27.2724 42.4953 31.6716C42.4933 31.7749 42.4933 31.8842 42.4933 31.9935Z" />
<path d="M22.364 15.7597C22.364 15.8696 22.364 15.9789 22.364 16.0875C22.364 16.1809 22.3641 16.2723 22.3521 16.3637C22.34 16.4551 22.34 16.5624 22.332 16.6618L22.308 16.9121C22.286 17.1267 22.2559 17.3373 22.2218 17.5479C22.2085 17.6393 22.1925 17.7308 22.1738 17.8222C22.1747 17.8341 22.1747 17.846 22.1738 17.8579C22.1578 17.9434 22.1417 18.0288 22.1237 18.1123C22.0857 18.311 22.0416 18.4918 21.9935 18.6805L21.9214 18.9607C21.8994 19.0461 21.8754 19.1336 21.8493 19.221C21.7946 19.4144 21.7365 19.6071 21.6751 19.7992C21.647 19.8906 21.617 19.984 21.585 20.0754C21.5529 20.1668 21.5249 20.2602 21.4928 20.3516L21.3606 20.7311C21.1844 21.2259 20.9962 21.7246 20.8039 22.2293C19.8425 24.7647 18.759 27.6279 18.7069 31.6715C18.7069 31.7768 18.7069 31.8821 18.7069 31.9894H16.7041C16.7041 31.8801 16.7041 31.7708 16.7041 31.6615C16.7562 27.2663 17.9058 24.2242 18.9292 21.5279C19.7063 19.4793 20.3753 17.7089 20.3753 15.7517L22.364 15.7597Z" />
<path d="M27.4721 7.13621C27.2065 7.13621 26.9518 7.03154 26.764 6.84522C26.5762 6.6589 26.4707 6.40621 26.4707 6.14272V1.92633C26.4707 1.66283 26.5762 1.41014 26.764 1.22382C26.9518 1.0375 27.2065 0.932831 27.4721 0.932831C27.7377 0.932831 27.9924 1.0375 28.1802 1.22382C28.368 1.41014 28.4735 1.66283 28.4735 1.92633V6.14669C28.4725 6.40949 28.3665 6.66117 28.1788 6.84663C27.9911 7.03208 27.737 7.13621 27.4721 7.13621Z" />
<path d="M31.768 7.13621C31.5024 7.13621 31.2477 7.03154 31.0599 6.84522C30.8721 6.6589 30.7666 6.40621 30.7666 6.14272V1.92633C30.7666 1.66283 30.8721 1.41014 31.0599 1.22382C31.2477 1.0375 31.5024 0.932831 31.768 0.932831C32.0336 0.932831 32.2883 1.0375 32.4761 1.22382C32.6639 1.41014 32.7694 1.66283 32.7694 1.92633V6.14669C32.7683 6.40949 32.6623 6.66117 32.4747 6.84663C32.287 7.03208 32.0329 7.13621 31.768 7.13621Z" />
<path d="M27.8735 48.7814C27.6079 48.7814 27.3532 48.6768 27.1654 48.4905C26.9776 48.3041 26.8721 48.0514 26.8721 47.788V44.9466C26.8721 44.6831 26.9776 44.4304 27.1654 44.2441C27.3532 44.0577 27.6079 43.9531 27.8735 43.9531C28.1391 43.9531 28.3938 44.0577 28.5816 44.2441C28.7694 44.4304 28.8749 44.6831 28.8749 44.9466V47.788C28.8749 48.0514 28.7694 48.3041 28.5816 48.4905C28.3938 48.6768 28.1391 48.7814 27.8735 48.7814Z" />
<path d="M31.3666 48.7814C31.101 48.7814 30.8463 48.6768 30.6585 48.4905C30.4707 48.3041 30.3652 48.0514 30.3652 47.788V44.9466C30.3652 44.6831 30.4707 44.4304 30.6585 44.2441C30.8463 44.0577 31.101 43.9531 31.3666 43.9531C31.6322 43.9531 31.8869 44.0577 32.0747 44.2441C32.2625 44.4304 32.368 44.6831 32.368 44.9466V47.788C32.368 48.0514 32.2625 48.3041 32.0747 48.4905C31.8869 48.6768 31.6322 48.7814 31.3666 48.7814Z" />
<path d="M29.5883 44.9466C29.3227 44.9466 29.068 44.8419 28.8802 44.6556C28.6924 44.4693 28.5869 44.2166 28.5869 43.9531V12.1732C28.5869 11.9097 28.6924 11.657 28.8802 11.4707C29.068 11.2844 29.3227 11.1797 29.5883 11.1797C29.8539 11.1797 30.1086 11.2844 30.2964 11.4707C30.4842 11.657 30.5897 11.9097 30.5897 12.1732V43.9531C30.5897 44.0835 30.5638 44.2127 30.5135 44.3333C30.4632 44.4538 30.3894 44.5633 30.2964 44.6556C30.2034 44.7478 30.093 44.821 29.9715 44.8709C29.85 44.9209 29.7198 44.9466 29.5883 44.9466Z" />
<path d="M39.6559 38.9677H19.5297C19.2641 38.9677 19.0094 38.863 18.8216 38.6767C18.6338 38.4904 18.5283 38.2377 18.5283 37.9742C18.5283 37.7107 18.6338 37.458 18.8216 37.2717C19.0094 37.0854 19.2641 36.9807 19.5297 36.9807H39.6619C39.9275 36.9807 40.1822 37.0854 40.37 37.2717C40.5578 37.458 40.6633 37.7107 40.6633 37.9742C40.6633 38.1052 40.6372 38.2349 40.5865 38.3558C40.5358 38.4767 40.4615 38.5865 40.3679 38.6788C40.2743 38.7712 40.1632 38.8442 40.041 38.8938C39.9188 38.9434 39.7879 38.9685 39.6559 38.9677Z" />
<path d="M41.4109 32.9869H17.7778C17.5122 32.9869 17.2574 32.8823 17.0696 32.6959C16.8818 32.5096 16.7764 32.2569 16.7764 31.9934C16.7764 31.7299 16.8818 31.4772 17.0696 31.2909C17.2574 31.1046 17.5122 30.9999 17.7778 30.9999H41.4109C41.6765 30.9999 41.9312 31.1046 42.119 31.2909C42.3068 31.4772 42.4123 31.7299 42.4123 31.9934C42.4123 32.2569 42.3068 32.5096 42.119 32.6959C41.9312 32.8823 41.6765 32.9869 41.4109 32.9869Z" />
<path d="M40.0835 27.1611H19.0981C18.8325 27.1611 18.5778 27.0564 18.39 26.8701C18.2022 26.6838 18.0967 26.4311 18.0967 26.1676C18.0967 25.9041 18.2022 25.6514 18.39 25.4651C18.5778 25.2787 18.8325 25.1741 19.0981 25.1741H40.0835C40.3491 25.1741 40.6038 25.2787 40.7916 25.4651C40.9794 25.6514 41.0849 25.9041 41.0849 26.1676C41.0849 26.4311 40.9794 26.6838 40.7916 26.8701C40.6038 27.0564 40.3491 27.1611 40.0835 27.1611Z" />
<path d="M38.0603 20.5583H21.1205C20.855 20.5583 20.6003 20.4537 20.4125 20.2673C20.2247 20.081 20.1191 19.8283 20.1191 19.5648C20.1191 19.3014 20.2247 19.0487 20.4125 18.8623C20.6003 18.676 20.855 18.5714 21.1205 18.5714H38.0603C38.3259 18.5714 38.5806 18.676 38.7684 18.8623C38.9562 19.0487 39.0617 19.3014 39.0617 19.5648C39.0617 19.8283 38.9562 20.081 38.7684 20.2673C38.5806 20.4537 38.3259 20.5583 38.0603 20.5583Z" />
<path d="M20.9841 15.7852C20.8504 15.7865 20.7178 15.7612 20.5939 15.7109C20.4701 15.6606 20.3576 15.5862 20.2627 15.4921L16.6317 11.8646C16.5373 11.7699 16.4626 11.6574 16.4118 11.5337C16.361 11.41 16.3353 11.2775 16.336 11.1439V3.55248C16.336 3.28552 16.4421 3.02949 16.6311 2.84072C16.82 2.65195 17.0763 2.5459 17.3435 2.5459C17.6107 2.5459 17.867 2.65195 18.0559 2.84072C18.2449 3.02949 18.351 3.28552 18.351 3.55248V10.7355L21.6862 14.0675C21.8275 14.2089 21.9234 14.389 21.9619 14.585C22.0003 14.7809 21.9796 14.9839 21.9022 15.1681C21.8249 15.3522 21.6945 15.5093 21.5275 15.6191C21.3606 15.729 21.1647 15.7868 20.9648 15.7852H20.9841Z" />
<path d="M38.0237 15.7852C37.8238 15.7868 37.6279 15.729 37.4609 15.6191C37.294 15.5093 37.1636 15.3522 37.0863 15.1681C37.0089 14.9839 36.9882 14.7809 37.0266 14.585C37.0651 14.389 37.161 14.2089 37.3023 14.0675L40.6374 10.7355V3.55248C40.6374 3.28552 40.7436 3.02949 40.9326 2.84072C41.1215 2.65195 41.3778 2.5459 41.645 2.5459C41.9122 2.5459 42.1685 2.65195 42.3574 2.84072C42.5464 3.02949 42.6525 3.28552 42.6525 3.55248V11.1535C42.6538 11.2872 42.6282 11.4199 42.5775 11.5436C42.5267 11.6674 42.4516 11.7798 42.3568 11.8742L38.7282 15.5017C38.5391 15.684 38.2864 15.7856 38.0237 15.7852Z" />
<path d="M8.83426 46.9819C8.63436 46.9835 8.43848 46.9257 8.27155 46.8158C8.10463 46.7059 7.97417 46.5489 7.89683 46.3648C7.81949 46.1806 7.79872 45.9776 7.83718 45.7816C7.87565 45.5856 7.97164 45.4055 8.11287 45.2642L11.5611 41.8192V34.1317C11.5596 33.9982 11.5849 33.8657 11.6353 33.7419C11.6856 33.6182 11.7601 33.5057 11.8544 33.411L16.9763 28.2941C17.0699 28.2005 17.181 28.1263 17.3034 28.0757C17.4257 28.0251 17.5568 27.999 17.6893 27.999C17.8217 27.999 17.9527 28.0251 18.0751 28.0757C18.1974 28.1263 18.3086 28.2005 18.4022 28.2941C18.4958 28.3876 18.5701 28.4987 18.6208 28.6209C18.6715 28.7431 18.6975 28.8741 18.6975 29.0064C18.6975 29.1386 18.6715 29.2696 18.6208 29.3918C18.5701 29.5141 18.4958 29.6251 18.4022 29.7187L13.5737 34.5377V42.2372C13.5748 42.3707 13.5494 42.5031 13.499 42.6268C13.4487 42.7505 13.3744 42.863 13.2804 42.9579L9.53639 46.696C9.34925 46.8801 9.09689 46.9828 8.83426 46.9819Z" />
<path d="M50.1756 46.9818C50.0417 46.9831 49.9088 46.9577 49.7849 46.907C49.661 46.8562 49.5486 46.7812 49.4542 46.6863L45.7126 42.9483C45.6177 42.8539 45.5427 42.7415 45.4919 42.6177C45.4411 42.494 45.4156 42.3613 45.4168 42.2276V34.5353L40.5907 29.7162C40.4059 29.5267 40.3031 29.2721 40.3047 29.0076C40.3063 28.743 40.4121 28.4897 40.5992 28.3024C40.7863 28.1152 41.0397 28.0091 41.3045 28.007C41.5694 28.005 41.8243 28.1072 42.0143 28.2916L47.1361 33.4086C47.2312 33.5028 47.3064 33.6151 47.3572 33.7389C47.408 33.8627 47.4334 33.9955 47.4319 34.1293V41.8168L50.8777 45.2617C51.0189 45.4031 51.1149 45.5832 51.1533 45.7792C51.1918 45.9751 51.171 46.1781 51.0937 46.3623C51.0163 46.5464 50.8859 46.7035 50.719 46.8133C50.5521 46.9232 50.3562 46.981 50.1563 46.9794L50.1756 46.9818Z" />
<path d="M58.361 37.22C58.2457 37.2881 58.118 37.3325 57.9853 37.3505C57.8526 37.3685 57.7177 37.3597 57.5885 37.3248L52.4792 35.9583C52.3498 35.924 52.2287 35.8642 52.1228 35.7824C52.0169 35.7006 51.9285 35.5985 51.8627 35.4821L48.0165 28.8204L41.4275 27.0599C41.1727 26.9883 40.9564 26.8192 40.8255 26.5893C40.6946 26.3594 40.6595 26.0871 40.7279 25.8314C40.7964 25.5757 40.9628 25.357 41.1911 25.2229C41.4194 25.0887 41.6914 25.0497 41.948 25.1144L48.9421 26.985C49.0716 27.019 49.1929 27.0787 49.2988 27.1605C49.4047 27.2423 49.493 27.3446 49.5586 27.4612L53.4024 34.1188L58.109 35.3793C58.302 35.4311 58.4751 35.5391 58.6065 35.6896C58.7378 35.8401 58.8213 36.0263 58.8464 36.2244C58.8715 36.4226 58.837 36.6237 58.7474 36.8024C58.6578 36.981 58.5171 37.129 58.3431 37.2275L58.361 37.22Z" />
<path d="M0.877279 37.22C0.992558 37.2881 1.12032 37.3325 1.25299 37.3505C1.38567 37.3685 1.52057 37.3597 1.64976 37.3248L6.7591 35.9583C6.88845 35.924 7.00961 35.8642 7.11548 35.7824C7.22135 35.7006 7.30978 35.5985 7.37559 35.4821L11.2217 28.8204L17.8108 27.0599C18.0656 26.9883 18.2819 26.8192 18.4128 26.5893C18.5437 26.3594 18.5788 26.0871 18.5103 25.8314C18.4419 25.5757 18.2755 25.357 18.0472 25.2229C17.8188 25.0887 17.5469 25.0497 17.2902 25.1144L10.2961 26.985C10.1667 27.019 10.0454 27.0787 9.93949 27.1605C9.83359 27.2423 9.74525 27.3446 9.67965 27.4612L5.83591 34.1188L1.12925 35.3793C0.936275 35.4311 0.763132 35.5391 0.63183 35.6896C0.500529 35.8401 0.41702 36.0263 0.391921 36.2244C0.366823 36.4226 0.401244 36.6237 0.49086 36.8024C0.580475 36.981 0.721216 37.129 0.895157 37.2275L0.877279 37.22Z" />
</svg>
