<svg id="insect-5" width="48" height="50" viewBox="0 0 48 50" fill="" xmlns="http://www.w3.org/2000/svg">
<path d="M27.522 13.6596C27.2796 13.6628 27.0444 13.5774 26.8607 13.4194C26.7607 13.3328 26.6787 13.2273 26.6196 13.109C26.5605 12.9907 26.5253 12.8618 26.5162 12.7299C26.507 12.598 26.524 12.4656 26.5662 12.3402C26.6084 12.2149 26.675 12.0991 26.7621 11.9996C28.0798 10.4933 28.6401 9.22007 28.3395 8.41768C27.9596 7.4063 26.1633 6.82013 24.6076 6.60632C24.2143 6.55107 23.8153 6.55107 23.4221 6.60632C21.8687 6.82013 20.0724 7.4063 19.6925 8.41768C19.3919 9.22007 19.9546 10.4933 21.2699 11.9996C21.4456 12.2009 21.5341 12.4637 21.5158 12.7302C21.4976 12.9967 21.3741 13.245 21.1726 13.4206C20.971 13.5961 20.708 13.6844 20.4412 13.6662C20.1745 13.648 19.9259 13.5246 19.7502 13.3233C17.8722 11.1612 17.2182 9.28493 17.8073 7.7114C18.6225 5.54929 21.5032 4.82859 23.148 4.61238C23.7224 4.53432 24.3048 4.53432 24.8793 4.61238C26.5264 4.8382 29.4096 5.53968 30.2248 7.7114C30.8139 9.28493 30.1622 11.1732 28.2818 13.3233C28.1864 13.4301 28.0692 13.5153 27.9382 13.5733C27.8072 13.6313 27.6653 13.6607 27.522 13.6596Z" />
<path d="M24.1015 28.8735C21.1847 28.6333 15.9932 26.4591 15.9932 19.8984C15.9932 17.0564 16.9406 14.7862 18.8066 13.1526C20.2599 11.9174 22.1057 11.2391 24.0138 11.2391C25.9218 11.2391 27.7677 11.9174 29.221 13.1526C31.0894 14.7838 32.0344 17.054 32.0344 19.8984C32.0344 26.4591 26.8476 28.6381 24.1015 28.8735ZM24.015 13.2415C22.5919 13.2329 21.2139 13.7399 20.1363 14.6685C18.7248 15.9009 18.0106 17.6618 18.0106 19.8984C18.0106 26.2309 23.8587 26.8459 24.1088 26.8651C24.1761 26.8411 30.0217 26.2261 30.0217 19.8984C30.0217 17.6594 29.3003 15.8985 27.8984 14.6685C26.8191 13.7395 25.4395 13.2326 24.015 13.2415Z" />
<path d="M5.22735 45.625C5.03257 45.625 4.84261 45.625 4.65505 45.601C2.68326 45.4232 1.27416 44.2965 0.685024 42.4299C-2.28228 33.0175 15.685 20.2323 16.4497 19.6942C16.6681 19.5527 16.9329 19.5011 17.1885 19.5503C17.4441 19.5996 17.6707 19.7457 17.8209 19.9581C17.971 20.1706 18.0331 20.4328 17.994 20.6899C17.9549 20.9471 17.8177 21.1791 17.6111 21.3374C12.7249 24.7799 0.507084 35.17 2.60632 41.8245C2.95499 42.9272 3.66194 43.4893 4.8378 43.5974C8.98577 43.9818 16.7359 38.5333 19.5589 33.1953C20.4582 31.4945 21.2181 29.0897 19.732 27.2904C19.6424 27.1892 19.5741 27.071 19.5311 26.9429C19.4882 26.8148 19.4715 26.6793 19.4821 26.5446C19.4927 26.4099 19.5303 26.2787 19.5927 26.1588C19.6551 26.039 19.741 25.9329 19.8453 25.8469C19.9496 25.7609 20.0702 25.6968 20.1999 25.6583C20.3295 25.6199 20.4656 25.6079 20.6 25.6231C20.7344 25.6383 20.8643 25.6804 20.9821 25.7469C21.0998 25.8133 21.203 25.9028 21.2854 26.0099C23.0191 28.112 23.0384 30.9203 21.3383 34.1346C18.2123 40.0396 10.2939 45.625 5.22735 45.625Z" />
<path d="M42.8029 45.625C37.7388 45.625 29.8179 40.0396 26.6919 34.1346C24.9919 30.9203 25.0087 28.112 26.7448 26.0099C26.8273 25.9028 26.9304 25.8133 27.0482 25.7469C27.1659 25.6804 27.2959 25.6384 27.4303 25.6231C27.5646 25.6079 27.7007 25.6199 27.8304 25.6583C27.96 25.6968 28.0806 25.7609 28.1849 25.8469C28.2892 25.9329 28.3752 26.039 28.4376 26.1589C28.5 26.2787 28.5376 26.4099 28.5481 26.5446C28.5587 26.6793 28.542 26.8148 28.4991 26.9429C28.4562 27.071 28.3879 27.1892 28.2982 27.2904C26.8146 29.0897 27.5768 31.4945 28.4714 33.1953C31.292 38.5309 38.9819 43.9554 43.1924 43.5975C44.3659 43.4893 45.0777 42.9272 45.4239 41.8245C47.5232 35.17 35.3029 24.7799 30.4215 21.3374C30.2034 21.1838 30.0553 20.95 30.0097 20.6874C29.9642 20.4247 30.0249 20.1547 30.1786 19.9368C30.3323 19.7189 30.5664 19.5709 30.8293 19.5254C31.0922 19.4799 31.3624 19.5406 31.5805 19.6942C32.3476 20.2323 50.3125 33.0176 47.3452 42.4299C46.7561 44.2965 45.347 45.4232 43.3752 45.601C43.19 45.6178 42.9977 45.625 42.8029 45.625Z" />
<path d="M29.2189 42.5537L29.8303 39.9344C30.0801 38.8638 30.1227 37.7944 29.9922 36.7815L32.0654 38.6386C32.0248 39.2921 31.9296 39.9532 31.7752 40.6146L31.1639 43.234C30.2593 47.1095 27.3656 49.7815 24.073 49.7815C20.7804 49.7815 17.8867 47.1095 16.9822 43.234L16.3708 40.6146C16.192 39.8486 16.0926 39.083 16.0654 38.3291L18.1538 36.7815C18.0233 37.7944 18.0659 38.8638 18.3158 39.9344L18.9271 42.5537C19.5836 45.3662 21.6835 47.3053 24.073 47.3053C26.4625 47.3053 28.5625 45.3662 29.2189 42.5537Z" />
<path d="M19.9652 6.82918C19.7755 6.71557 19.6282 6.54286 19.5461 6.33759C19.464 6.13232 19.4515 5.90583 19.5106 5.69291L20.6494 1.55142C20.7211 1.29408 20.8921 1.0758 21.1248 0.944601C21.3575 0.813402 21.633 0.780034 21.8905 0.851835C22.148 0.923637 22.3666 1.09472 22.498 1.32746C22.6295 1.5602 22.6631 1.83553 22.5914 2.09288L21.4431 6.23163C21.3717 6.48836 21.2014 6.70626 20.9694 6.83754C20.7375 6.96882 20.4629 7.00279 20.2057 6.93199C20.1216 6.90796 20.0408 6.87342 19.9652 6.82918Z" />
<path d="M28.241 6.83185C28.1076 6.90794 27.9587 6.95271 27.8054 6.96277C27.6522 6.97283 27.4987 6.94791 27.3566 6.88991C27.2145 6.8319 27.0875 6.74232 26.9852 6.62796C26.8829 6.51359 26.808 6.37744 26.7661 6.22981L25.6178 2.09105C25.5823 1.96363 25.5723 1.83045 25.5883 1.69912C25.6044 1.56779 25.6461 1.44089 25.7112 1.32564C25.7763 1.2104 25.8635 1.10908 25.9677 1.02747C26.0719 0.945864 26.1912 0.885561 26.3187 0.850008C26.4462 0.814456 26.5795 0.80435 26.7109 0.820267C26.8422 0.836184 26.9692 0.877814 27.0844 0.942777C27.1997 1.00774 27.301 1.09477 27.3825 1.19889C27.4641 1.30301 27.5243 1.42218 27.5598 1.5496L28.7081 5.68836C28.767 5.90367 28.7532 6.13244 28.6687 6.3392C28.5843 6.54595 28.4339 6.71912 28.241 6.83185Z" />
<path d="M18.6013 15.8264C18.4918 15.8265 18.3829 15.8086 18.2791 15.7736L11.866 13.6115C11.6653 13.5437 11.4913 13.4142 11.3686 13.2416C11.246 13.0691 11.181 12.8622 11.1831 12.6506V9.37136C9.57201 6.77203 7.70602 4.85737 7.08082 4.85737H7.04716C6.91676 4.90866 6.77706 4.93213 6.63704 4.92629C6.49702 4.92046 6.35977 4.88543 6.2341 4.82346C6.10844 4.7615 5.99713 4.67396 5.90732 4.56648C5.81752 4.459 5.75121 4.33394 5.71264 4.19934C5.67407 4.06473 5.66411 3.92356 5.68338 3.78489C5.70265 3.64621 5.75074 3.51309 5.82455 3.39408C5.89837 3.27507 5.99628 3.17279 6.11199 3.09381C6.22771 3.01484 6.35868 2.96091 6.4965 2.9355C8.87947 2.24122 11.8876 6.64951 13.0539 8.58099C13.148 8.73775 13.1979 8.91708 13.1982 9.09989V11.9419L18.9332 13.8685C19.1608 13.9434 19.3541 14.0971 19.4783 14.3019C19.6025 14.5066 19.6494 14.749 19.6105 14.9852C19.5716 15.2214 19.4495 15.436 19.2663 15.5903C19.083 15.7445 18.8506 15.8283 18.611 15.8264H18.6013Z" />
<path d="M29.425 15.8265C29.1853 15.8283 28.9529 15.7446 28.7697 15.5903C28.5864 15.4361 28.4643 15.2215 28.4254 14.9852C28.3865 14.749 28.4334 14.5067 28.5576 14.3019C28.6818 14.0972 28.8751 13.9435 29.1028 13.8686L34.833 11.9299V9.08792C34.8321 8.90495 34.8821 8.72533 34.9772 8.56901C36.1411 6.64714 39.1012 2.22203 41.5346 2.92352C41.7633 3.01843 41.9489 3.19413 42.0562 3.41709C42.1634 3.64004 42.1847 3.89464 42.116 4.13229C42.0473 4.36994 41.8935 4.574 41.6838 4.70553C41.4741 4.83706 41.2233 4.88685 40.9792 4.84539C40.3467 4.81416 38.488 6.7096 36.848 9.35938V12.641C36.8499 12.8529 36.7846 13.06 36.6615 13.2326C36.5384 13.4052 36.3638 13.5345 36.1627 13.6019L29.7496 15.764C29.6455 15.8022 29.5358 15.8233 29.425 15.8265Z" />
<path d="M12.6819 24.941C12.5343 24.9412 12.3885 24.9091 12.2547 24.8468C12.1209 24.7845 12.0024 24.6937 11.9076 24.5806L9.35873 21.5224H1.35616C1.22385 21.5224 1.09284 21.4964 0.970599 21.4458C0.848359 21.3952 0.73729 21.3211 0.643732 21.2276C0.550174 21.1341 0.475959 21.0232 0.425326 20.9011C0.374692 20.7789 0.348633 20.648 0.348633 20.5159C0.348633 20.3837 0.374692 20.2528 0.425326 20.1307C0.475959 20.0085 0.550174 19.8976 0.643732 19.8041C0.73729 19.7106 0.848359 19.6365 0.970599 19.5859C1.09284 19.5353 1.22385 19.5093 1.35616 19.5093H9.83004C9.97726 19.5092 10.1227 19.5414 10.2561 19.6037C10.3895 19.666 10.5075 19.7568 10.6019 19.8696L13.461 23.2882C13.583 23.4353 13.6608 23.614 13.6851 23.8035C13.7095 23.993 13.6795 24.1855 13.5986 24.3586C13.5178 24.5317 13.3894 24.6784 13.2284 24.7815C13.0674 24.8846 12.8804 24.9399 12.6891 24.941H12.6819Z" />
<path d="M35.3413 24.9409C35.1046 24.9405 34.876 24.8552 34.6969 24.7007C34.4916 24.5299 34.3625 24.2846 34.3382 24.0188C34.3138 23.753 34.3961 23.4884 34.567 23.2833L37.4285 19.8647C37.5232 19.7516 37.6416 19.6606 37.7754 19.5983C37.9093 19.536 38.0552 19.504 38.2028 19.5044H46.6743C46.9415 19.5044 47.1978 19.6104 47.3867 19.7992C47.5757 19.988 47.6818 20.244 47.6818 20.511C47.6818 20.7779 47.5757 21.034 47.3867 21.2227C47.1978 21.4115 46.9415 21.5176 46.6743 21.5176H38.6717L36.1132 24.5757C36.0194 24.6896 35.9015 24.7814 35.7681 24.8445C35.6347 24.9076 35.4889 24.9405 35.3413 24.9409Z" />
</svg>
