<svg id="insect-1" width="42" height="51" viewBox="0 0 42 51" fill="" xmlns="http://www.w3.org/2000/svg">
<path d="M23.9865 22.6304H23.9697C23.8373 22.6282 23.7068 22.6 23.5854 22.5474C23.464 22.4948 23.3541 22.4188 23.2621 22.3238C23.1701 22.2287 23.0977 22.1165 23.0492 21.9935C23.0006 21.8706 22.9767 21.7392 22.979 21.607L23.0463 17.1819C23.0087 16.6647 22.7759 16.181 22.3951 15.8286C22.0142 15.4762 21.5136 15.2813 20.9945 15.2835C20.4754 15.2856 19.9764 15.4845 19.5985 15.8401C19.2205 16.1956 18.9918 16.6812 18.9584 17.1987L19.0282 21.607C19.0307 21.7393 19.0071 21.8708 18.9586 21.9939C18.9101 22.117 18.8378 22.2294 18.7457 22.3245C18.6537 22.4196 18.5437 22.4955 18.4222 22.5481C18.3006 22.6006 18.1699 22.6286 18.0375 22.6304H18.0206C17.7567 22.6298 17.5036 22.5258 17.3156 22.3407C17.1277 22.1557 17.0199 21.9043 17.0155 21.6407L16.9434 17.2132C16.9424 16.68 17.0466 16.1519 17.2499 15.6589C17.4533 15.166 17.7518 14.7179 18.1285 14.3402C18.5052 13.9626 18.9527 13.6627 19.4453 13.4578C19.938 13.2529 20.4663 13.1469 21 13.146C21.5336 13.1451 22.0622 13.2491 22.5556 13.4523C23.0491 13.6554 23.4976 13.9537 23.8756 14.33C24.6391 15.0901 25.0691 16.122 25.071 17.1987L25.0037 21.6407C24.9992 21.9064 24.8898 22.1596 24.6992 22.345C24.5087 22.5304 24.2525 22.633 23.9865 22.6304Z" />
<path d="M21.0599 28.2903C19.5522 28.2062 16.9336 26.921 16.9336 22.6568C16.9336 20.759 17.441 19.3608 18.4413 18.5032C19.183 17.9609 20.0783 17.6686 20.9974 17.6686C21.9165 17.6686 22.8118 17.9609 23.5535 18.5032C24.5538 19.3632 25.0612 20.7614 25.0612 22.6592C25.0612 26.921 22.4426 28.2062 21.0599 28.2903ZM20.7521 19.6707C20.3796 19.6688 20.0191 19.802 19.7374 20.0455C19.2228 20.5019 18.9487 21.4076 18.9487 22.6568C18.9487 25.984 20.858 26.2603 21.0744 26.2819C21.1393 26.2603 23.0461 25.984 23.0461 22.6568C23.0461 21.4052 22.7744 20.4947 22.2598 20.0431C21.9477 19.7774 21.5434 19.6453 21.1345 19.6755C21.0443 19.6875 20.9529 19.6875 20.8628 19.6755C20.8628 19.6755 20.8146 19.6707 20.7521 19.6707Z" />
<path d="M20.6258 41.4649C20.4624 41.4649 20.3014 41.4251 20.1568 41.3489C20.0123 41.2727 19.8885 41.1625 19.7962 41.0277C15.379 34.5846 18.3992 26.6137 18.5314 26.2725C18.5785 26.1491 18.6496 26.0362 18.7407 25.9404C18.8318 25.8447 18.9411 25.768 19.0621 25.7148C19.1832 25.6616 19.3136 25.6329 19.4458 25.6305C19.578 25.6281 19.7094 25.652 19.8323 25.7008C20.0811 25.7969 20.2816 25.9877 20.3898 26.2314C20.498 26.475 20.5051 26.7516 20.4094 27.0004C20.3806 27.0725 17.6489 34.3372 21.4554 39.889C21.5592 40.0401 21.6197 40.2166 21.6304 40.3995C21.6411 40.5824 21.6016 40.7647 21.5163 40.9269C21.4309 41.089 21.3029 41.2248 21.146 41.3196C20.989 41.4144 20.8092 41.4647 20.6258 41.4649Z" />
<path d="M21.3666 41.4648C21.1832 41.4645 21.0034 41.4143 20.8465 41.3195C20.6895 41.2247 20.5615 41.0889 20.4761 40.9267C20.3908 40.7646 20.3514 40.5822 20.3621 40.3993C20.3728 40.2164 20.4333 40.0399 20.537 39.8888C24.3459 34.337 21.6167 27.0724 21.5854 27.0003C21.4996 26.7534 21.5132 26.4828 21.6235 26.2458C21.7338 26.0087 21.932 25.8239 22.1763 25.7302C22.4206 25.6366 22.6917 25.6416 22.9324 25.7441C23.173 25.8466 23.3643 26.0387 23.4658 26.2796C23.5981 26.6159 26.6159 34.5917 22.1986 41.0347C22.1051 41.1684 21.9806 41.2773 21.8357 41.3522C21.6907 41.4271 21.5298 41.4658 21.3666 41.4648Z" />
<path d="M17.9411 18.2054C17.7735 18.2064 17.6083 18.1659 17.4602 18.0876L13.2905 15.8655C13.1618 15.7964 13.0497 15.7003 12.9617 15.5837C12.8737 15.4672 12.8119 15.333 12.7807 15.1904L11.5616 9.55213L3.63842 2.19857C3.53429 2.11066 3.44911 2.00254 3.38803 1.88078C3.32695 1.75901 3.29124 1.62613 3.28306 1.49018C3.27489 1.35422 3.29441 1.21802 3.34045 1.08983C3.3865 0.961632 3.45811 0.844103 3.55094 0.74436C3.64378 0.644618 3.75588 0.564735 3.88052 0.509548C4.00516 0.454361 4.13971 0.42502 4.27603 0.423298C4.41234 0.421576 4.54759 0.447509 4.67359 0.49953C4.79958 0.55155 4.91371 0.628575 5.00904 0.72594L13.1607 8.2909C13.3115 8.42983 13.4156 8.6119 13.4589 8.81221L14.6612 14.3064L18.4196 16.3075C18.6188 16.4132 18.7767 16.5826 18.868 16.7886C18.9594 16.9947 18.9789 17.2253 18.9235 17.4437C18.8681 17.6621 18.7409 17.8557 18.5624 17.9933C18.3838 18.131 18.1642 18.2048 17.9387 18.2029L17.9411 18.2054Z" />
<path d="M24.0645 18.2054C23.839 18.2072 23.6194 18.1334 23.4409 17.9958C23.2623 17.8581 23.1351 17.6646 23.0797 17.4462C23.0243 17.2278 23.0438 16.9971 23.1352 16.7911C23.2266 16.5851 23.3845 16.4157 23.5836 16.31L27.342 14.3088L28.5444 8.81466C28.5886 8.61418 28.6935 8.43216 28.8449 8.29336L36.9966 0.728399C37.1921 0.547133 37.4516 0.450868 37.7181 0.460779C37.9846 0.470691 38.2363 0.585968 38.4177 0.781251C38.5991 0.976534 38.6955 1.23583 38.6856 1.50209C38.6757 1.76835 38.5603 2.01976 38.3648 2.20103L30.4464 9.55219L29.2153 15.1905C29.1841 15.3331 29.1223 15.4673 29.0343 15.5838C28.9464 15.7003 28.8342 15.7964 28.7055 15.8655L24.5383 18.0877C24.3921 18.1645 24.2296 18.2049 24.0645 18.2054Z" />
<path d="M6.75097 26.3973C6.275 26.4031 5.80061 26.3416 5.34186 26.2147C2.69678 25.4411 1.08087 24.115 0.914954 22.5751C0.840411 21.8833 1.01113 20.5596 3.01418 19.4521C6.10412 17.7561 17.1101 19.6034 18.3532 19.8197C18.5533 19.8547 18.7381 19.9492 18.8834 20.091C19.0287 20.2327 19.1277 20.415 19.1674 20.614C19.2072 20.8129 19.1859 21.0193 19.1062 21.2059C19.0266 21.3925 18.8924 21.5508 18.7212 21.6598C17.8747 22.2004 11.1033 26.3973 6.75097 26.3973ZM7.44109 20.7542C5.86366 20.7542 4.60123 20.8887 3.98084 21.2346C3.29072 21.6118 2.88195 22.0466 2.91802 22.3661C2.9589 22.7409 3.63939 23.6274 5.90935 24.288C7.83305 24.8453 11.957 23.1373 15.2128 21.386C12.6354 21.015 10.0374 20.804 7.43387 20.7542H7.44109Z" />
<path d="M35.2512 26.3974C30.8916 26.3974 24.1178 22.2005 23.281 21.6696C23.1087 21.5614 22.9732 21.4035 22.8926 21.2168C22.8121 21.03 22.7902 20.8232 22.8298 20.6238C22.8694 20.4243 22.9687 20.2416 23.1145 20.0997C23.2604 19.9579 23.4459 19.8636 23.6465 19.8294C24.8897 19.6132 35.8932 17.7658 38.9904 19.4618C40.991 20.5597 41.1546 21.8834 41.0872 22.5848C40.9189 24.1247 39.303 25.4508 36.6579 26.2244C36.1995 26.3481 35.7259 26.4063 35.2512 26.3974ZM26.7894 21.3813C30.0476 23.135 34.1884 24.8575 36.0904 24.2833C38.3652 23.6203 39.0433 22.7338 39.0842 22.3614C39.1202 22.0395 38.7211 21.6167 38.0213 21.2323C36.504 20.3963 31.1297 20.7927 26.7894 21.3813Z" />
<path d="M4.06151 40.6936C3.85495 40.6939 3.65332 40.6307 3.4839 40.5127C3.31448 40.3946 3.18546 40.2274 3.11434 40.0336C3.04322 39.8399 3.03342 39.629 3.08628 39.4295C3.13914 39.23 3.25211 39.0515 3.40987 38.9183L9.06072 34.1353L10.0226 28.7036C10.0654 28.4585 10.1983 28.2383 10.3953 28.0862L16.8348 23.0677C16.9383 22.9793 17.0586 22.9128 17.1885 22.8721C17.3184 22.8314 17.4552 22.8175 17.5906 22.8311C17.7261 22.8447 17.8574 22.8856 17.9765 22.9513C18.0957 23.017 18.2003 23.1062 18.2841 23.2134C18.3678 23.3206 18.429 23.4437 18.4638 23.5751C18.4986 23.7066 18.5064 23.8438 18.4867 23.9783C18.467 24.1129 18.4202 24.2421 18.3491 24.3581C18.2781 24.4741 18.1842 24.5745 18.0732 24.6532L11.939 29.4339L10.9772 34.8416C10.938 35.0738 10.8169 35.2843 10.6358 35.4349L4.70837 40.4534C4.528 40.6074 4.29879 40.6925 4.06151 40.6936Z" />
<path d="M37.8901 40.6937C37.6512 40.6938 37.4201 40.6086 37.2385 40.4535L31.3111 35.435C31.1308 35.2837 31.0098 35.0735 30.9696 34.8416L30.0078 29.434L23.8712 24.6557C23.7668 24.5743 23.6795 24.4732 23.6143 24.3581C23.5491 24.243 23.5072 24.1162 23.491 23.9849C23.4748 23.8536 23.4846 23.7204 23.52 23.593C23.5553 23.4655 23.6154 23.3462 23.6969 23.2419C23.7783 23.1377 23.8796 23.0505 23.9948 22.9853C24.11 22.9201 24.2369 22.8782 24.3683 22.862C24.4997 22.8459 24.633 22.8557 24.7606 22.891C24.8882 22.9263 25.0076 22.9864 25.112 23.0678L31.554 28.0838C31.7492 28.2382 31.8809 28.4587 31.9243 28.7036L32.8861 34.1353L38.537 38.9184C38.6947 39.0516 38.8077 39.2301 38.8606 39.4296C38.9134 39.629 38.9036 39.84 38.8325 40.0337C38.7614 40.2274 38.6324 40.3947 38.463 40.5127C38.2935 40.6308 38.0919 40.694 37.8853 40.6937H37.8901Z" />
<path d="M10.0368 50.7811C9.85503 50.7805 9.67677 50.7309 9.52087 50.6375C9.36496 50.5441 9.2372 50.4104 9.15102 50.2505C9.06484 50.0906 9.02342 49.9104 9.0312 49.729C9.03897 49.5475 9.09565 49.3715 9.19519 49.2196L13.7399 42.3177L12.7781 35.3821C12.7595 35.2447 12.7693 35.1049 12.807 34.9715C12.8446 34.838 12.9092 34.7137 12.9969 34.6061L18.0201 28.4874C18.1916 28.288 18.4344 28.1635 18.6965 28.1406C18.9587 28.1176 19.2194 28.1981 19.423 28.3647C19.6265 28.5314 19.7568 28.771 19.7858 29.0323C19.8148 29.2936 19.7403 29.5559 19.5783 29.763L14.834 35.5431L15.7959 42.4162C15.8297 42.6581 15.7742 42.9041 15.6396 43.108L10.8856 50.315C10.7946 50.4576 10.6691 50.5749 10.5208 50.6564C10.3725 50.7378 10.2061 50.7807 10.0368 50.7811Z" />
<path d="M31.9564 50.7811C31.7895 50.7808 31.6253 50.7392 31.4784 50.6599C31.3316 50.5807 31.2066 50.4663 31.1148 50.3271L26.3609 43.12C26.2285 42.9152 26.1731 42.67 26.2046 42.4282L27.1665 35.5551L22.4246 29.7751C22.2625 29.5679 22.1881 29.3056 22.2171 29.0443C22.2461 28.783 22.3763 28.5434 22.5799 28.3768C22.7834 28.2101 23.0442 28.1297 23.3063 28.1526C23.5685 28.1755 23.8113 28.3 23.9827 28.4994L29.0036 34.6182C29.0923 34.7251 29.1575 34.8494 29.1952 34.983C29.2329 35.1166 29.2421 35.2567 29.2224 35.3941L28.2605 42.3297L32.8053 49.2316C32.8782 49.3419 32.9285 49.4656 32.9535 49.5954C32.9784 49.7252 32.9774 49.8587 32.9506 49.9881C32.9238 50.1176 32.8717 50.2405 32.7972 50.3498C32.7228 50.459 32.6275 50.5526 32.5167 50.6249C32.3499 50.732 32.1546 50.7864 31.9564 50.7811Z" />
<path d="M20.9978 15.1496C20.8654 15.1499 20.7342 15.1241 20.6118 15.0736C20.4894 15.0231 20.3782 14.949 20.2846 14.8555C20.191 14.7619 20.1168 14.6508 20.0663 14.5286C20.0157 14.4063 19.9899 14.2753 19.9902 14.143V3.68563C19.9902 3.41867 20.0964 3.16264 20.2853 2.97387C20.4743 2.7851 20.7305 2.67905 20.9978 2.67905C21.265 2.67905 21.5212 2.7851 21.7102 2.97387C21.8991 3.16264 22.0053 3.41867 22.0053 3.68563V14.143C22.0053 14.41 21.8991 14.666 21.7102 14.8548C21.5212 15.0435 21.265 15.1496 20.9978 15.1496Z" />
</svg>
