<svg id="insect-8" width="59" height="45" viewBox="0 0 59 45" fill="" xmlns="http://www.w3.org/2000/svg">
<path d="M33.5795 10.7547C33.4791 10.7546 33.3794 10.7393 33.2837 10.7091C33.0288 10.6304 32.8155 10.454 32.6907 10.2184C32.5658 9.98289 32.5395 9.70749 32.6176 9.45263C32.7505 8.98785 32.7736 8.49859 32.6851 8.02338C32.5965 7.54817 32.3988 7.09997 32.1074 6.71408C31.816 6.32819 31.439 6.01513 31.006 5.79956C30.5729 5.58399 30.0957 5.47179 29.6118 5.47179C29.128 5.47179 28.6507 5.58399 28.2177 5.79956C27.7846 6.01513 27.4076 6.32819 27.1162 6.71408C26.8249 7.09997 26.6272 7.54817 26.5386 8.02338C26.4501 8.49859 26.4732 8.98785 26.6061 9.45263C26.6449 9.57882 26.6585 9.71142 26.646 9.84286C26.6335 9.97429 26.5953 10.102 26.5335 10.2187C26.4716 10.3353 26.3874 10.4387 26.2855 10.5228C26.1837 10.607 26.0663 10.6702 25.94 10.7091C25.8137 10.7479 25.6809 10.7614 25.5494 10.749C25.4178 10.7365 25.29 10.6983 25.1732 10.6365C25.0564 10.5748 24.953 10.4906 24.8688 10.3888C24.7846 10.2871 24.7212 10.1698 24.6824 10.0436C24.4463 9.28223 24.3973 8.47526 24.5394 7.69095C24.6816 6.90664 25.0107 6.16807 25.4989 5.5377C25.9872 4.90734 26.6202 4.40372 27.3445 4.06946C28.0688 3.7352 28.863 3.58013 29.6599 3.61736C30.4495 3.5948 31.2331 3.76066 31.9457 4.10119C32.6582 4.44172 33.2793 4.94709 33.7572 5.57539C34.2352 6.20368 34.5563 6.93678 34.6939 7.71387C34.8315 8.49095 34.7817 9.28962 34.5485 10.0436C34.485 10.2504 34.3564 10.4313 34.1818 10.5594C34.0072 10.6875 33.796 10.756 33.5795 10.7547Z" />
<path d="M28.0053 5.47342C27.7397 5.47342 27.485 5.36875 27.2972 5.18244C27.1094 4.99612 27.0039 4.74342 27.0039 4.47993V1.87655C27.0039 1.61306 27.1094 1.36036 27.2972 1.17405C27.485 0.98773 27.7397 0.883057 28.0053 0.883057C28.2709 0.883057 28.5256 0.98773 28.7134 1.17405C28.9012 1.36036 29.0067 1.61306 29.0067 1.87655V4.4839C29.0057 4.7467 28.8997 4.99838 28.712 5.18384C28.5243 5.3693 28.2702 5.47343 28.0053 5.47342Z" />
<path d="M31.2309 5.47342C30.9653 5.47342 30.7106 5.36875 30.5228 5.18244C30.335 4.99612 30.2295 4.74342 30.2295 4.47993V1.87655C30.2295 1.61306 30.335 1.36036 30.5228 1.17405C30.7106 0.98773 30.9653 0.883057 31.2309 0.883057C31.4965 0.883057 31.7512 0.98773 31.939 1.17405C32.1268 1.36036 32.2323 1.61306 32.2323 1.87655V4.4839C32.2312 4.7467 32.1252 4.99838 31.9375 5.18384C31.7499 5.3693 31.4958 5.47343 31.2309 5.47342Z" />
<path d="M37.8858 17.8751C37.619 17.8751 37.3631 17.7694 37.1742 17.5812C36.9854 17.3929 36.8789 17.1375 36.8783 16.871V15.5569C36.8783 14.2826 36.3716 13.0605 35.4697 12.1595C34.5678 11.2584 33.3445 10.7522 32.0691 10.7522H27.1612C25.8857 10.7522 24.6625 11.2584 23.7606 12.1595C22.8587 13.0605 22.352 14.2826 22.352 15.5569V16.871C22.352 17.1379 22.2458 17.394 22.0569 17.5827C21.8679 17.7715 21.6117 17.8775 21.3444 17.8775C21.0772 17.8775 20.821 17.7715 20.632 17.5827C20.4431 17.394 20.3369 17.1379 20.3369 16.871V15.5569C20.3395 13.7497 21.0594 12.0173 22.3387 10.7396C23.618 9.46195 25.3523 8.74336 27.1612 8.74146H32.0691C33.8776 8.744 35.6112 9.46287 36.89 10.7405C38.1688 12.018 38.8884 13.7501 38.8909 15.5569V16.871C38.8909 17.1373 38.7851 17.3927 38.5966 17.581C38.4081 17.7694 38.1524 17.8751 37.8858 17.8751Z" />
<path d="M31.7621 37.7424H27.4578C24.7735 37.7399 22.1998 36.6736 20.3015 34.7775C18.4031 32.8814 17.3352 30.3104 17.332 27.6286V19.7177C17.3365 18.6976 17.7449 17.7207 18.4681 17.0004C19.1912 16.2802 20.1703 15.8752 21.1915 15.874H38.0238C39.043 15.8778 40.0194 16.2839 40.7401 17.004C41.4608 17.724 41.8674 18.6994 41.8712 19.7177V27.6286C41.868 30.3075 40.8024 32.876 38.9077 34.7716C37.013 36.6672 34.4436 37.7355 31.7621 37.7424ZM21.1818 17.8751C20.6929 17.8757 20.2241 18.0701 19.8784 18.4155C19.5326 18.7609 19.3381 19.2292 19.3375 19.7177V27.6286C19.3413 29.7775 20.1986 31.8371 21.7211 33.355C23.2436 34.8729 25.3069 35.7251 27.4578 35.7245H31.7621C33.9123 35.7226 35.9738 34.8686 37.4944 33.3499C39.015 31.8312 39.8704 29.7719 39.8729 27.6238V19.7177C39.8723 19.2296 39.6781 18.7617 39.3329 18.4163C38.9877 18.071 38.5195 17.8764 38.031 17.8751H21.1818Z" />
<path d="M22.1638 13.5846C22.0301 13.5859 21.8975 13.5606 21.7736 13.5103C21.6498 13.46 21.5372 13.3857 21.4424 13.2915L17.8114 9.66401C17.717 9.56929 17.6422 9.45685 17.5915 9.33317C17.5407 9.20948 17.5149 9.07698 17.5156 8.94331V1.35192C17.5156 1.08496 17.6218 0.82893 17.8108 0.64016C17.9997 0.45139 18.2559 0.345337 18.5232 0.345337C18.7904 0.345337 19.0467 0.45139 19.2356 0.64016C19.4246 0.82893 19.5307 1.08496 19.5307 1.35192V8.53491L22.8659 11.867C23.0071 12.0083 23.1031 12.1884 23.1415 12.3844C23.18 12.5804 23.1592 12.7834 23.0819 12.9675C23.0046 13.1517 22.8742 13.3087 22.7072 13.4186C22.5403 13.5285 22.3444 13.5863 22.1445 13.5846H22.1638Z" />
<path d="M37.0539 13.5846C36.854 13.5863 36.6581 13.5285 36.4912 13.4186C36.3243 13.3087 36.1939 13.1517 36.1166 12.9675C36.0392 12.7834 36.0184 12.5804 36.0569 12.3844C36.0954 12.1884 36.1913 12.0083 36.3325 11.867L39.6677 8.53491V1.35192C39.6677 1.08496 39.7739 0.82893 39.9628 0.64016C40.1518 0.45139 40.4081 0.345337 40.6753 0.345337C40.9425 0.345337 41.1987 0.45139 41.3877 0.64016C41.5766 0.82893 41.6828 1.08496 41.6828 1.35192V8.95291C41.684 9.08667 41.6585 9.21932 41.6077 9.34308C41.5569 9.46684 41.4819 9.57922 41.3871 9.67361L37.7585 13.3011C37.5693 13.4834 37.3167 13.5851 37.0539 13.5846Z" />
<path d="M18.3386 22.2235C18.2049 22.2247 18.0723 22.1995 17.9485 22.1492C17.8247 22.0989 17.7121 22.0245 17.6172 21.9304L10.6438 14.9636H6.42129V19.2686C6.42129 19.5355 6.31518 19.7916 6.12623 19.9803C5.93728 20.1691 5.68099 20.2752 5.41377 20.2752C5.14656 20.2752 4.89032 20.1691 4.70137 19.9803C4.51242 19.7916 4.40625 19.5355 4.40625 19.2686V13.9642C4.40625 13.6973 4.51242 13.4412 4.70137 13.2525C4.89032 13.0637 5.14656 12.9576 5.41377 12.9576H11.0598C11.1937 12.9561 11.3266 12.9815 11.4505 13.0323C11.5744 13.083 11.6869 13.1581 11.7812 13.2531L19.0431 20.5058C19.1844 20.6471 19.2804 20.8273 19.3188 21.0232C19.3573 21.2192 19.3365 21.4222 19.2592 21.6064C19.1818 21.7905 19.0514 21.9475 18.8844 22.0574C18.7175 22.1673 18.5216 22.2251 18.3217 22.2235H18.3386Z" />
<path d="M40.8811 22.2234C40.6812 22.2251 40.4853 22.1673 40.3184 22.0574C40.1514 21.9475 40.021 21.7905 39.9437 21.6063C39.8664 21.4222 39.8456 21.2192 39.8841 21.0232C39.9225 20.8272 40.0185 20.6471 40.1597 20.5058L47.4192 13.2531C47.5137 13.1583 47.6262 13.0834 47.7501 13.0326C47.874 12.9819 48.0067 12.9564 48.1406 12.9576H53.789C54.0561 12.9583 54.312 13.0645 54.5008 13.2531C54.6896 13.4418 54.7959 13.6974 54.7966 13.9642V19.2686C54.7966 19.5355 54.6905 19.7916 54.5015 19.9803C54.3126 20.1691 54.0563 20.2751 53.789 20.2751C53.5218 20.2751 53.2655 20.1691 53.0766 19.9803C52.8876 19.7916 52.7815 19.5355 52.7815 19.2686V14.9708H48.559L41.5856 21.9376C41.3972 22.1211 41.1443 22.2237 40.8811 22.2234Z" />
<path d="M9.47683 44.7814C9.27694 44.7831 9.08106 44.7253 8.91413 44.6154C8.74721 44.5055 8.61675 44.3485 8.53941 44.1643C8.46207 43.9802 8.4413 43.7772 8.47976 43.5812C8.51823 43.3852 8.61422 43.2051 8.75545 43.0637L12.2036 39.6188V31.9313C12.2022 31.7977 12.2275 31.6652 12.2778 31.5415C12.3282 31.4178 12.4027 31.3053 12.497 31.2106L17.6188 26.0936C17.7125 26.0001 17.8236 25.9259 17.946 25.8753C18.0683 25.8246 18.1994 25.7986 18.3318 25.7986C18.4642 25.7986 18.5953 25.8246 18.7176 25.8753C18.84 25.9259 18.9511 26.0001 19.0448 26.0936C19.1384 26.1872 19.2127 26.2982 19.2634 26.4204C19.3141 26.5426 19.3401 26.6736 19.3401 26.8059C19.3401 26.9382 19.3141 27.0692 19.2634 27.1914C19.2127 27.3136 19.1384 27.4247 19.0448 27.5182L14.2163 32.3373V40.0368C14.2173 40.1703 14.1919 40.3027 14.1416 40.4264C14.0913 40.5501 14.017 40.6626 13.923 40.7575L10.179 44.4955C9.99182 44.6796 9.73947 44.7824 9.47683 44.7814Z" />
<path d="M49.7439 44.7813C49.61 44.7827 49.4772 44.7573 49.3533 44.7065C49.2294 44.6558 49.1169 44.5807 49.0225 44.4859L45.2809 40.7478C45.1861 40.6534 45.111 40.541 45.0603 40.4173C45.0095 40.2935 44.9839 40.1609 44.9852 40.0271V32.3348L40.1591 27.5157C39.9742 27.3263 39.8715 27.0717 39.8731 26.8071C39.8747 26.5426 39.9804 26.2892 40.1675 26.102C40.3546 25.9148 40.6081 25.8086 40.8729 25.8066C41.1377 25.8046 41.3927 25.9068 41.5827 26.0912L46.7044 31.2081C46.7995 31.3024 46.8747 31.4147 46.9255 31.5385C46.9763 31.6623 47.0017 31.795 47.0002 31.9288V39.6163L50.446 43.0613C50.5873 43.2026 50.6832 43.3827 50.7217 43.5787C50.7601 43.7747 50.7394 43.9777 50.662 44.1618C50.5847 44.346 50.4543 44.503 50.2874 44.6129C50.1204 44.7228 49.9246 44.7806 49.7247 44.7789L49.7439 44.7813Z" />
<path d="M57.9294 35.0194C57.8141 35.0875 57.6863 35.1319 57.5536 35.1499C57.421 35.1679 57.2861 35.1592 57.1569 35.1242L52.0475 33.7578C51.9182 33.7234 51.797 33.6636 51.6912 33.5819C51.5853 33.5001 51.4969 33.398 51.431 33.2815L47.5849 26.6198L40.9958 24.8594C40.741 24.7877 40.5248 24.6186 40.3938 24.3887C40.2629 24.1588 40.2279 23.8865 40.2963 23.6308C40.3647 23.3751 40.5311 23.1565 40.7595 23.0223C40.9878 22.8881 41.2597 22.8492 41.5164 22.9139L48.5105 24.7844C48.64 24.8185 48.7613 24.8782 48.8672 24.96C48.9731 25.0418 49.0614 25.144 49.127 25.2607L52.9707 31.9182L57.6774 33.1787C57.8704 33.2305 58.0435 33.3385 58.1748 33.489C58.3061 33.6395 58.3896 33.8257 58.4147 34.0239C58.4398 34.222 58.4054 34.4232 58.3158 34.6018C58.2262 34.7804 58.0854 34.9284 57.9115 35.027L57.9294 35.0194Z" />
<path d="M1.51986 35.0194C1.63514 35.0875 1.7629 35.1319 1.89557 35.1499C2.02824 35.1679 2.16315 35.1592 2.29234 35.1242L7.40168 33.7578C7.53103 33.7234 7.65219 33.6636 7.75806 33.5819C7.86393 33.5001 7.95236 33.398 8.01817 33.2815L11.8643 26.6198L18.4534 24.8594C18.7082 24.7877 18.9245 24.6186 19.0554 24.3887C19.1863 24.1588 19.2213 23.8865 19.1529 23.6308C19.0845 23.3751 18.9181 23.1565 18.6898 23.0223C18.4614 22.8881 18.1895 22.8492 17.9328 22.9139L10.9387 24.7844C10.8093 24.8185 10.688 24.8782 10.5821 24.96C10.4762 25.0418 10.3878 25.144 10.3222 25.2607L6.47849 31.9182L1.77183 33.1787C1.57885 33.2305 1.40571 33.3385 1.27441 33.489C1.14311 33.6395 1.0596 33.8257 1.0345 34.0239C1.0094 34.222 1.04382 34.4232 1.13344 34.6018C1.22305 34.7804 1.36379 34.9284 1.53774 35.027L1.51986 35.0194Z" />
<path d="M29.6091 37.7425C29.3419 37.7425 29.0856 37.6365 28.8967 37.4477C28.7077 37.2589 28.6016 37.0029 28.6016 36.7359V26.8047C28.6016 26.5377 28.7077 26.2817 28.8967 26.0929C29.0856 25.9041 29.3419 25.7981 29.6091 25.7981C29.8764 25.7981 30.1326 25.9041 30.3215 26.0929C30.5105 26.2817 30.6167 26.5377 30.6167 26.8047V36.7359C30.617 36.8682 30.5912 36.9992 30.5406 37.1215C30.4901 37.2438 30.4159 37.3549 30.3223 37.4484C30.2286 37.5419 30.1175 37.6161 29.9951 37.6665C29.8727 37.717 29.7415 37.7428 29.6091 37.7425Z" />
</svg>
