<svg id="insect-4" width="73" height="51" viewBox="0 0 73 51" fill="" xmlns="http://www.w3.org/2000/svg">
<path d="M39.4347 22.6304H39.4179C39.2856 22.6282 39.155 22.6 39.0336 22.5474C38.9122 22.4948 38.8024 22.4188 38.7104 22.3238C38.6184 22.2287 38.546 22.1165 38.4974 21.9935C38.4488 21.8706 38.425 21.7392 38.4272 21.607L38.4945 17.1819C38.4569 16.6647 38.2242 16.181 37.8433 15.8286C37.4624 15.4762 36.9619 15.2813 36.4427 15.2835C35.9236 15.2856 35.4247 15.4845 35.0467 15.8401C34.6688 16.1956 34.44 16.6812 34.4067 17.1987L34.4764 21.607C34.479 21.7393 34.4553 21.8708 34.4069 21.9939C34.3584 22.117 34.286 22.2294 34.194 22.3245C34.1019 22.4196 33.9919 22.4955 33.8704 22.5481C33.7488 22.6006 33.6181 22.6286 33.4857 22.6304H33.4689C33.205 22.6298 32.9518 22.5258 32.7639 22.3407C32.5759 22.1557 32.4682 21.9043 32.4638 21.6407L32.3916 17.2132C32.3907 16.68 32.4948 16.1519 32.6982 15.6589C32.9015 15.166 33.2001 14.7179 33.5768 14.3402C33.9535 13.9626 34.4009 13.6627 34.8936 13.4578C35.3863 13.2529 35.9145 13.1469 36.4482 13.146C36.9819 13.1451 37.5105 13.2491 38.0039 13.4523C38.4973 13.6554 38.9458 13.9537 39.3238 14.33C40.0873 15.0901 40.5173 16.122 40.5192 17.1987L40.4519 21.6407C40.4475 21.9064 40.338 22.1596 40.1475 22.345C39.9569 22.5304 39.7007 22.633 39.4347 22.6304Z" />
<path d="M36.5082 28.2903C35.0005 28.2062 32.3818 26.921 32.3818 22.6568C32.3818 20.759 32.8892 19.3608 33.8895 18.5032C34.6313 17.9609 35.5265 17.6686 36.4456 17.6686C37.3648 17.6686 38.26 17.9609 39.0018 18.5032C40.0021 19.3632 40.5095 20.7614 40.5095 22.6592C40.5095 26.921 37.8908 28.2062 36.5082 28.2903ZM36.2004 19.6707C35.8279 19.6688 35.4673 19.802 35.1856 20.0455C34.671 20.5019 34.3969 21.4076 34.3969 22.6568C34.3969 25.984 36.3062 26.2603 36.5226 26.2819C36.5875 26.2603 38.4944 25.984 38.4944 22.6568C38.4944 21.4052 38.2227 20.4947 37.7081 20.0431C37.396 19.7774 36.9916 19.6453 36.5827 19.6755C36.4926 19.6875 36.4012 19.6875 36.311 19.6755C36.311 19.6755 36.2629 19.6707 36.2004 19.6707Z" />
<path d="M36.0741 41.4648C35.9106 41.4648 35.7496 41.425 35.6051 41.3488C35.4605 41.2726 35.3368 41.1623 35.2445 41.0276C30.8272 34.5845 33.8474 26.6135 33.9796 26.2724C34.0267 26.1489 34.0979 26.0361 34.189 25.9403C34.2801 25.8446 34.3893 25.7679 34.5104 25.7147C34.6314 25.6615 34.7618 25.6328 34.8941 25.6304C35.0263 25.628 35.1577 25.6519 35.2806 25.7006C35.5294 25.7968 35.7299 25.9876 35.8381 26.2313C35.9463 26.4749 35.9533 26.7515 35.8577 27.0003C35.8288 27.0724 33.0972 34.3371 36.9037 39.8889C37.0074 40.0399 37.0679 40.2164 37.0786 40.3993C37.0893 40.5822 37.0499 40.7646 36.9645 40.9267C36.8792 41.0889 36.7511 41.2247 36.5942 41.3195C36.4373 41.4143 36.2574 41.4646 36.0741 41.4648Z" />
<path d="M36.8168 41.4647C36.6334 41.4645 36.4536 41.4142 36.2967 41.3194C36.1397 41.2246 36.0117 41.0888 35.9263 40.9267C35.841 40.7645 35.8015 40.5822 35.8123 40.3993C35.823 40.2164 35.8835 40.0399 35.9872 39.8888C39.7961 34.337 37.0669 27.0723 37.0356 27.0002C36.9498 26.7533 36.9634 26.4827 37.0737 26.2457C37.184 26.0087 37.3822 25.8238 37.6265 25.7302C37.8708 25.6366 38.1419 25.6415 38.3826 25.7441C38.6232 25.8466 38.8145 26.0386 38.916 26.2795C39.0483 26.6159 42.0661 34.5916 37.6488 41.0347C37.5553 41.1683 37.4308 41.2773 37.2859 41.3522C37.1409 41.4271 36.98 41.4657 36.8168 41.4647Z" />
<path d="M33.3874 18.2054C33.2198 18.2064 33.0546 18.1659 32.9064 18.0876L28.7368 15.8655C28.6081 15.7964 28.4959 15.7003 28.4079 15.5837C28.3199 15.4672 28.2582 15.333 28.227 15.1904L27.0079 9.55213L19.0847 2.19857C18.9806 2.11066 18.8954 2.00254 18.8343 1.88078C18.7732 1.75901 18.7375 1.62613 18.7294 1.49018C18.7212 1.35422 18.7407 1.21802 18.7867 1.08983C18.8328 0.961632 18.9044 0.844103 18.9972 0.74436C19.0901 0.644618 19.2022 0.564735 19.3268 0.509548C19.4514 0.454361 19.586 0.42502 19.7223 0.423298C19.8586 0.421576 19.9939 0.447509 20.1199 0.49953C20.2459 0.55155 20.36 0.628575 20.4553 0.72594L28.607 8.2909C28.7578 8.42983 28.8619 8.6119 28.9052 8.81221L30.1075 14.3064L33.8659 16.3075C34.065 16.4132 34.223 16.5826 34.3143 16.7886C34.4057 16.9947 34.4252 17.2253 34.3698 17.4437C34.3144 17.6621 34.1872 17.8557 34.0087 17.9933C33.8301 18.131 33.6105 18.2048 33.385 18.2029L33.3874 18.2054Z" />
<path d="M39.5128 18.2053C39.2873 18.2071 39.0676 18.1333 38.8891 17.9957C38.7105 17.858 38.5834 17.6645 38.528 17.4461C38.4725 17.2277 38.4921 16.997 38.5834 16.791C38.6748 16.585 38.8327 16.4156 39.0319 16.3099L42.7903 14.3087L43.9926 8.81457C44.0368 8.61409 44.1418 8.43207 44.2932 8.29327L52.4448 0.728308C52.6403 0.547041 52.8998 0.450776 53.1663 0.460688C53.4329 0.470599 53.6845 0.585876 53.8659 0.781159C54.0474 0.976443 54.1437 1.23574 54.1338 1.502C54.1239 1.76826 54.0085 2.01967 53.813 2.20094L45.8947 9.55209L44.6635 15.1904C44.6323 15.333 44.5706 15.4672 44.4826 15.5837C44.3946 15.7002 44.2824 15.7963 44.1537 15.8654L39.9865 18.0876C39.8404 18.1644 39.6779 18.2048 39.5128 18.2053Z" />
<path d="M61.6101 13.3284C53.6636 13.3284 41.3165 18.6405 39.7912 19.3125C39.477 19.4494 39.2301 19.6492 39.0832 19.8856C38.9364 20.1219 38.8964 20.3837 38.9686 20.6361C39.0409 20.8886 39.2218 21.1199 39.4877 21.2994C39.7535 21.479 40.0917 21.5983 40.4574 21.6416C42.7234 21.9153 62.7803 24.2535 68.4257 22.1068C72.0724 20.7172 72.3705 19.0418 72.2478 18.154C71.941 16.2049 68.9955 14.5265 64.1742 13.5474C63.3387 13.3908 62.4754 13.3171 61.6101 13.3284ZM43.5038 19.8856C49.4428 17.6659 58.2787 14.5469 63.1288 15.2092C67.1503 15.7583 70.3873 17.3583 70.3873 18.4352C70.3873 19.5121 68.2366 20.1769 65.8171 20.6361C62.3222 21.2994 53.7195 21.2994 43.5038 19.8856Z" />
<path d="M11.4192 13.3284C19.3657 13.3284 31.7128 18.6405 33.2381 19.3125C33.5523 19.4494 33.7992 19.6492 33.946 19.8856C34.0929 20.1219 34.1329 20.3837 34.0607 20.6361C33.9884 20.8886 33.8075 21.1199 33.5416 21.2994C33.2758 21.479 32.9376 21.5983 32.5719 21.6416C30.3059 21.9153 10.249 24.2535 4.60358 22.1068C0.956871 20.7172 0.658779 19.0418 0.781506 18.154C1.08832 16.2049 4.03376 14.5265 8.85513 13.5474C9.69064 13.3908 10.5539 13.3171 11.4192 13.3284ZM29.5255 19.8856C23.5865 17.6659 14.7506 14.5469 9.90055 15.2092C5.87903 15.7583 2.642 17.3583 2.642 18.4352C2.642 19.5121 4.79268 20.1769 7.21219 20.6361C10.7071 21.2994 19.3098 21.2994 29.5255 19.8856Z" />
<path d="M19.5098 40.873C19.3032 40.8732 19.1016 40.81 18.9321 40.692C18.7627 40.5739 18.6337 40.4067 18.5626 40.2129C18.4915 40.0192 18.4817 39.8083 18.5345 39.6088C18.5874 39.4093 18.7004 39.2309 18.8581 39.0976L24.509 34.3146L25.4708 28.8829C25.5136 28.6378 25.6466 28.4176 25.8435 28.2655L32.2831 23.247C32.3865 23.1586 32.5068 23.0921 32.6367 23.0514C32.7666 23.0108 32.9034 22.9968 33.0389 23.0104C33.1743 23.024 33.3056 23.0649 33.4248 23.1306C33.544 23.1964 33.6486 23.2855 33.7323 23.3927C33.8161 23.4999 33.8772 23.623 33.912 23.7545C33.9468 23.8859 33.9546 24.0231 33.9349 24.1577C33.9152 24.2922 33.8684 24.4214 33.7974 24.5374C33.7263 24.6534 33.6324 24.7538 33.5215 24.8326L27.3873 29.6132L26.4254 35.0209C26.3863 35.2531 26.2652 35.4636 26.084 35.6143L20.1566 40.6327C19.9762 40.7867 19.747 40.8719 19.5098 40.873Z" />
<path d="M53.3394 40.8446C53.1004 40.8446 52.8693 40.7594 52.6877 40.6044L46.7603 35.5859C46.58 35.4345 46.459 35.2244 46.4189 34.9925L45.457 29.5848L39.3204 24.8066C39.2161 24.7252 39.1288 24.6241 39.0635 24.509C38.9983 24.3939 38.9564 24.2671 38.9402 24.1358C38.924 24.0045 38.9339 23.8713 38.9692 23.7438C39.0045 23.6164 39.0646 23.4971 39.1461 23.3928C39.2276 23.2886 39.3288 23.2013 39.444 23.1362C39.5592 23.071 39.6861 23.0291 39.8175 23.0129C39.949 22.9968 40.0823 23.0066 40.2099 23.0419C40.3375 23.0772 40.4568 23.1373 40.5612 23.2186L47.0032 28.2347C47.1984 28.3891 47.3301 28.6096 47.3735 28.8545L48.3353 34.2862L53.9862 39.0693C54.1439 39.2025 54.2569 39.3809 54.3098 39.5804C54.3626 39.7799 54.3528 39.9908 54.2817 40.1846C54.2106 40.3783 54.0816 40.5456 53.9122 40.6636C53.7428 40.7817 53.5411 40.8449 53.3345 40.8446H53.3394Z" />
<path d="M25.4851 50.781C25.3033 50.7804 25.125 50.7308 24.9691 50.6374C24.8132 50.544 24.6854 50.4103 24.5993 50.2504C24.5131 50.0905 24.4717 49.9103 24.4794 49.7289C24.4872 49.5475 24.5439 49.3715 24.6434 49.2195L29.1882 42.3176L28.2263 35.382C28.2077 35.2446 28.2176 35.1049 28.2552 34.9714C28.2928 34.8379 28.3575 34.7136 28.4451 34.6061L33.4684 28.4873C33.6399 28.2879 33.8826 28.1634 34.1448 28.1405C34.4069 28.1176 34.6677 28.198 34.8712 28.3647C35.0748 28.5313 35.205 28.7709 35.234 29.0322C35.2631 29.2935 35.1886 29.5558 35.0266 29.763L30.2823 35.543L31.2441 42.4161C31.278 42.658 31.2224 42.904 31.0878 43.108L26.3339 50.315C26.2428 50.4575 26.1173 50.5749 25.969 50.6563C25.8207 50.7377 25.6543 50.7806 25.4851 50.781Z" />
<path d="M47.4057 50.7811C47.2387 50.7808 47.0745 50.7392 46.9276 50.6599C46.7808 50.5807 46.6558 50.4663 46.564 50.3271L41.8101 43.12C41.6777 42.9152 41.6224 42.67 41.6538 42.4282L42.6157 35.5551L37.8738 29.7751C37.7118 29.5679 37.6373 29.3056 37.6663 29.0443C37.6953 28.783 37.8255 28.5434 38.0291 28.3768C38.2326 28.2101 38.4934 28.1297 38.7555 28.1526C39.0177 28.1755 39.2605 28.3 39.432 28.4994L44.4528 34.6182C44.5415 34.7251 44.6067 34.8494 44.6444 34.983C44.6821 35.1166 44.6914 35.2567 44.6716 35.3941L43.7098 42.3297L48.2545 49.2316C48.3274 49.3419 48.3778 49.4656 48.4027 49.5954C48.4276 49.7252 48.4267 49.8587 48.3999 49.9881C48.373 50.1176 48.3209 50.2405 48.2465 50.3498C48.172 50.459 48.0767 50.5526 47.966 50.6249C47.7991 50.732 47.6039 50.7864 47.4057 50.7811Z" />
<path d="M36.447 15.1496C36.3146 15.1499 36.1834 15.1241 36.061 15.0736C35.9387 15.0231 35.8275 14.949 35.7338 14.8555C35.6402 14.7619 35.566 14.6508 35.5155 14.5286C35.465 14.4063 35.4391 14.2753 35.4395 14.143V3.68563C35.4395 3.41867 35.5456 3.16264 35.7345 2.97387C35.9235 2.7851 36.1798 2.67905 36.447 2.67905C36.7142 2.67905 36.9705 2.7851 37.1594 2.97387C37.3484 3.16264 37.4545 3.41867 37.4545 3.68563V14.143C37.4545 14.41 37.3484 14.666 37.1594 14.8548C36.9705 15.0435 36.7142 15.1496 36.447 15.1496Z" />
</svg>
