<svg id="insect-3" width="58" height="50" viewBox="0 0 58 50" fill="" xmlns="http://www.w3.org/2000/svg">
<path d="M30.2155 16.8303C29.9898 16.8304 29.7705 16.7547 29.593 16.6155C29.4154 16.4762 29.2898 16.2814 29.2363 16.0623C29.1827 15.8432 29.2045 15.6125 29.2979 15.4072C29.3913 15.2019 29.551 15.0338 29.7515 14.9301C32.0671 13.7289 32.2379 12.9241 32.233 12.7055C32.233 12.2755 31.6343 11.538 29.9943 10.7524C29.4964 10.5151 28.9517 10.392 28.4 10.392C27.8484 10.392 27.3037 10.5151 26.8058 10.7524C25.1659 11.538 24.5743 12.2755 24.5671 12.7055C24.5671 12.9241 24.733 13.7361 27.0487 14.9301C27.1697 14.9887 27.2778 15.0709 27.3666 15.1719C27.4553 15.273 27.5228 15.3907 27.5653 15.5183C27.6077 15.6458 27.6242 15.7806 27.6137 15.9146C27.6031 16.0485 27.5659 16.1791 27.5041 16.2985C27.4422 16.4178 27.3571 16.5236 27.2537 16.6096C27.1503 16.6956 27.0307 16.76 26.902 16.799C26.7732 16.8381 26.638 16.851 26.5042 16.8369C26.3704 16.8229 26.2407 16.7823 26.1229 16.7174C23.699 15.4682 22.5304 14.1445 22.5521 12.6743C22.5737 11.2569 23.7134 10.0005 25.9377 8.93622C26.7084 8.57556 27.549 8.38861 28.4 8.38861C29.2511 8.38861 30.0917 8.57556 30.8624 8.93622C33.0866 10.0005 34.2289 11.2569 34.2481 12.6743C34.2697 14.1445 33.1011 15.4682 30.6772 16.7174C30.5346 16.7914 30.3763 16.8301 30.2155 16.8303Z"/>
<path d="M28.3987 28.3086C26.4581 28.3086 24.9697 27.6191 23.967 26.2594C21.1704 22.4541 23.5895 14.6009 23.6929 14.2693C23.7726 14.0145 23.9504 13.8017 24.1871 13.6778C24.4239 13.5539 24.7002 13.5291 24.9553 13.6087C25.2104 13.6883 25.4233 13.866 25.5474 14.1025C25.6714 14.339 25.6963 14.6151 25.6166 14.8699C24.9914 16.8663 23.7722 22.591 25.5925 25.0678C26.2009 25.8942 27.117 26.2954 28.3987 26.2954C29.6803 26.2954 30.5965 25.8942 31.2049 25.0678C33.0276 22.591 31.806 16.8663 31.1808 14.8699C31.1414 14.7437 31.1272 14.611 31.139 14.4793C31.1509 14.3476 31.1886 14.2196 31.25 14.1025C31.3114 13.9854 31.3953 13.8815 31.4969 13.7967C31.5985 13.712 31.7158 13.6481 31.8421 13.6087C31.9684 13.5693 32.1013 13.5551 32.2331 13.5669C32.3649 13.5788 32.493 13.6165 32.6103 13.6778C32.7275 13.7391 32.8315 13.823 32.9163 13.9245C33.0011 14.026 33.0651 14.1431 33.1045 14.2693C33.2103 14.6009 35.627 22.4541 32.8304 26.2594C31.8277 27.6191 30.344 28.3086 28.3987 28.3086Z"/>
<path d="M28.3997 49.2594C28.2687 49.2598 28.1388 49.2345 28.0175 49.185C27.7962 49.0937 22.5518 46.8523 22.5518 38.2471C22.5518 29.947 25.1295 26.7856 25.2401 26.6558C25.4126 26.4559 25.6568 26.3317 25.9201 26.31C26.1834 26.2882 26.4447 26.3706 26.6477 26.5394C26.8508 26.7083 26.9793 26.95 27.0057 27.2127C27.0321 27.4753 26.9541 27.7377 26.7887 27.9435C26.755 27.9867 24.5668 30.8071 24.5668 38.2471C24.5668 44.2025 27.3513 46.4727 28.3997 47.1166C29.4434 46.4751 32.2328 44.2073 32.2328 38.2471C32.2328 30.7855 30.0325 27.9699 30.0109 27.9411C29.8536 27.7346 29.7822 27.4753 29.8116 27.2175C29.8411 26.9596 29.9691 26.7231 30.1689 26.5573C30.3687 26.3915 30.6249 26.3091 30.884 26.3275C31.1431 26.3459 31.3851 26.4635 31.5594 26.6558C31.6701 26.7856 34.2478 29.947 34.2478 38.2471C34.2478 46.8523 29.0033 49.0937 28.7821 49.185C28.6608 49.2345 28.5308 49.2598 28.3997 49.2594Z" />
<path d="M16.062 49.7815C15.9237 49.7819 15.7869 49.7532 15.6604 49.6974C15.5388 49.6451 15.4287 49.5694 15.3365 49.4744C15.2444 49.3795 15.172 49.2672 15.1235 49.1441C15.075 49.0211 15.0513 48.8896 15.0539 48.7574C15.0565 48.6252 15.0853 48.4948 15.1386 48.3737L17.9809 41.849L16.2038 36.7612C16.9356 35.9547 17.2044 35.6859 17.9303 36.0377L20.0007 41.5222C20.0931 41.7674 20.0862 42.0388 19.9815 42.279L16.9733 49.1785C16.8958 49.3561 16.7686 49.5076 16.6069 49.6146C16.4452 49.7216 16.2559 49.7795 16.062 49.7815Z"/>
<path d="M40.564 49.7815C40.7023 49.7819 40.8391 49.7532 40.9656 49.6974C41.0872 49.6451 41.1973 49.5694 41.2894 49.4744C41.3816 49.3795 41.454 49.2672 41.5025 49.1441C41.551 49.0211 41.5747 48.8896 41.5721 48.7574C41.5695 48.6252 41.5407 48.4948 41.4874 48.3737L38.6451 41.849L40.4221 36.7612C39.6904 35.9547 39.4216 35.6859 38.6956 36.0377L36.6253 41.5222C36.5329 41.7674 36.5398 42.0388 36.6445 42.279L39.6527 49.1785C39.7301 49.3561 39.8574 49.5076 40.0191 49.6146C40.1808 49.7216 40.37 49.7795 40.564 49.7815Z"/>
<path d="M49.6939 47.413C49.4537 47.441 49.2117 47.4483 48.9703 47.4348C41.3326 47.0305 33.3225 25.3655 32.4346 22.8963C32.3847 22.7708 32.3605 22.6367 32.3635 22.5017C32.3665 22.3667 32.3967 22.2338 32.4522 22.1107C32.5077 21.9876 32.5874 21.8769 32.6866 21.7852C32.7858 21.6935 32.9024 21.6227 33.0295 21.5769C33.1567 21.5312 33.2917 21.5115 33.4266 21.5189C33.5615 21.5264 33.6936 21.5609 33.8148 21.6203C33.9361 21.6798 34.0442 21.763 34.1326 21.8651C34.221 21.9671 34.288 22.0859 34.3295 22.2144C37.5118 31.055 44.3284 45.1743 49.0665 45.4267C50.3883 45.4942 51.6091 44.3739 52.7105 42.097C54.1518 39.1262 54.2734 36.2981 53.0763 33.4505C49.2071 24.2503 32.9359 18.7025 32.7606 18.6499C32.6352 18.6076 32.5193 18.5411 32.4197 18.4541C32.32 18.367 32.2385 18.2613 32.1797 18.1428C32.121 18.0243 32.0862 17.8954 32.0773 17.7635C32.0684 17.6315 32.0857 17.4991 32.128 17.3738C32.1703 17.2485 32.2369 17.1328 32.3241 17.0332C32.4112 16.9336 32.517 16.8521 32.6357 16.7934C32.7543 16.7347 32.8833 16.6999 33.0154 16.691C33.1475 16.6821 33.28 16.6993 33.4054 16.7415C34.1075 16.9785 50.7063 22.6414 54.9216 32.6727C56.3396 36.0368 56.1984 39.503 54.514 42.9753C53.2126 45.7077 51.5862 47.1981 49.6939 47.413Z"/>
<path d="M7.32078 47.413C7.5609 47.441 7.80298 47.4483 8.04434 47.4348C15.682 47.0305 23.6921 25.3655 24.58 22.8963C24.63 22.7708 24.6541 22.6367 24.6511 22.5017C24.6481 22.3667 24.618 22.2338 24.5625 22.1107C24.507 21.9876 24.4273 21.8769 24.3281 21.7852C24.2289 21.6935 24.1123 21.6227 23.9851 21.5769C23.858 21.5312 23.723 21.5115 23.588 21.5189C23.4531 21.5264 23.3211 21.5609 23.1998 21.6203C23.0785 21.6798 22.9704 21.763 22.882 21.8651C22.7936 21.9671 22.7267 22.0859 22.6851 22.2144C19.5029 31.055 12.6863 45.1743 7.94811 45.4267C6.62634 45.4942 5.40558 44.3739 4.30412 42.097C2.8628 39.1262 2.74121 36.2981 3.9383 33.4505C7.80756 24.2503 24.0787 18.7025 24.2541 18.6499C24.3795 18.6076 24.4953 18.5411 24.595 18.4541C24.6946 18.367 24.7762 18.2613 24.8349 18.1428C24.8937 18.0243 24.9285 17.8954 24.9373 17.7635C24.9462 17.6315 24.929 17.4991 24.8866 17.3738C24.8443 17.2485 24.7777 17.1328 24.6906 17.0332C24.6035 16.9336 24.4976 16.8521 24.379 16.7934C24.2604 16.7347 24.1313 16.6999 23.9992 16.691C23.8672 16.6821 23.7347 16.6993 23.6093 16.7415C22.9072 16.9785 6.30835 22.6414 2.09301 32.6727C0.675097 36.0368 0.816225 39.503 2.50067 42.9753C3.80208 45.7077 5.42849 47.1981 7.32078 47.413Z"/>
<path d="M23.6243 17.6855C23.5027 17.685 23.3823 17.663 23.2684 17.6206L17.6656 15.5113C17.4435 15.4274 17.2582 15.2679 17.1421 15.061C17.026 14.8541 16.9866 14.6129 17.0308 14.3798C17.0308 14.3654 17.3626 12.4988 16.3551 11.0406C15.7299 10.1373 14.6911 9.54874 13.2676 9.28929C13.1347 9.26848 13.0073 9.22131 12.893 9.15055C12.7787 9.07979 12.6796 8.98689 12.6018 8.8773C12.524 8.7677 12.4689 8.64365 12.4399 8.51246C12.4108 8.38126 12.4083 8.24558 12.4325 8.11341C12.4568 7.98124 12.5072 7.85525 12.581 7.74289C12.6547 7.63052 12.7503 7.53405 12.8619 7.45915C12.9736 7.38425 13.0991 7.33244 13.2312 7.30679C13.3632 7.28113 13.499 7.28214 13.6307 7.30976C15.6072 7.67011 17.0861 8.54696 18.0263 9.9187C18.7911 11.101 19.1654 12.4933 19.0963 13.8994L23.9801 15.7372C24.2008 15.8204 24.3852 15.9783 24.5013 16.1834C24.6174 16.3885 24.6578 16.6278 24.6155 16.8596C24.5731 17.0914 24.4507 17.301 24.2696 17.4519C24.0885 17.6028 23.8601 17.6855 23.6243 17.6855Z"/>
<path d="M33.1785 17.6854C32.9426 17.6854 32.7142 17.6027 32.5331 17.4518C32.352 17.3009 32.2296 17.0913 32.1873 16.8595C32.1449 16.6277 32.1853 16.3884 32.3014 16.1833C32.4175 15.9782 32.6019 15.8203 32.8226 15.7371L37.7064 13.8993C37.6343 12.4932 38.0079 11.1003 38.774 9.91862C39.7142 8.54689 41.1931 7.67004 43.1721 7.30969C43.4307 7.27143 43.6941 7.3351 43.9066 7.48727C44.1191 7.63943 44.264 7.86816 44.3109 8.12514C44.3577 8.38211 44.3027 8.6472 44.1575 8.86442C44.0123 9.08163 43.7883 9.23396 43.5328 9.28921C42.1116 9.54866 41.0728 10.1372 40.4452 11.0405C39.4377 12.4987 39.7647 14.3654 39.7695 14.3846C39.8125 14.6169 39.7725 14.857 39.6565 15.0629C39.5405 15.2688 39.3558 15.4274 39.1347 15.5113L33.5344 17.6253C33.4202 17.6661 33.2997 17.6864 33.1785 17.6854Z"/>
<path d="M25.5703 11.2784C25.5016 11.2784 25.4331 11.2711 25.3659 11.2568C20.3162 10.2286 15.9254 2.25045 15.7474 1.91172C15.6798 1.79534 15.6363 1.6666 15.6193 1.53312C15.6024 1.39963 15.6124 1.2641 15.6488 1.13456C15.6852 1.00501 15.7472 0.884072 15.8312 0.778882C15.9152 0.673693 16.0194 0.586389 16.1378 0.522138C16.2561 0.457888 16.3861 0.417991 16.5202 0.404807C16.6542 0.391624 16.7895 0.405417 16.9181 0.445379C17.0467 0.485341 17.166 0.550653 17.2689 0.63746C17.3718 0.724268 17.4562 0.830818 17.5172 0.950788C18.6522 3.03121 22.3505 8.58782 25.7747 9.2845C26.0202 9.33313 26.2388 9.4713 26.3879 9.67211C26.537 9.87292 26.606 10.122 26.5814 10.3708C26.5568 10.6196 26.4403 10.8504 26.2548 11.0182C26.0692 11.186 25.8278 11.2787 25.5775 11.2784H25.5703Z"/>
<path d="M31.2324 11.2784C30.9821 11.2787 30.7407 11.186 30.5551 11.0182C30.3695 10.8504 30.2531 10.6196 30.2285 10.3708C30.2039 10.122 30.2729 9.87292 30.422 9.67211C30.5711 9.4713 30.7898 9.33313 31.0353 9.2845C34.4594 8.58782 38.1553 3.03842 39.2903 0.950788C39.3513 0.830818 39.4357 0.724268 39.5386 0.63746C39.6415 0.550653 39.7608 0.485341 39.8894 0.445379C40.018 0.405417 40.1533 0.391624 40.2873 0.404807C40.4214 0.417991 40.5514 0.457888 40.6698 0.522138C40.7881 0.586389 40.8923 0.673693 40.9763 0.778882C41.0602 0.884072 41.1223 1.00501 41.1587 1.13456C41.1951 1.2641 41.2051 1.39963 41.1881 1.53312C41.1712 1.6666 41.1277 1.79534 41.0601 1.91172C40.8773 2.25045 36.4913 10.2286 31.4416 11.2568C31.3729 11.2715 31.3027 11.2787 31.2324 11.2784Z"/>
</svg>
