<svg id="insect-2" width="52" height="49" viewBox="0 0 52 49" fill="" xmlns="http://www.w3.org/2000/svg">
<path d="M23.2205 9.0183C22.2897 9.04519 21.3814 8.68279 20.6595 7.9965C20.1305 7.46034 19.5029 6.44135 19.5029 4.62794C19.5029 2.81453 20.1305 1.82081 20.6571 1.25938C21.8787 0.0186253 23.5427 0.243198 23.7254 0.274076C23.9662 0.313355 24.1866 0.452902 24.3461 0.666992C24.5057 0.881082 24.5935 1.15528 24.5935 1.43904V7.82246C24.594 8.10638 24.5064 8.3809 24.3467 8.59511C24.1871 8.80932 23.9664 8.94871 23.7254 8.98742C23.558 9.0122 23.3892 9.02252 23.2205 9.0183ZM22.5808 2.70786C22.3588 2.77148 22.1517 2.89234 21.9749 3.06156C21.6719 3.37596 21.518 3.9037 21.518 4.63917C21.518 5.37464 21.6719 5.9108 21.9821 6.2224C22.1565 6.38979 22.3613 6.5088 22.5808 6.57048V2.70786Z" />
<path d="M28.7822 9.01836C28.6141 9.02065 28.4462 9.00845 28.2797 8.98188C28.0385 8.94322 27.8175 8.80393 27.6574 8.58978C27.4974 8.37563 27.4092 8.10109 27.4092 7.81691V1.46156C27.4097 1.17755 27.4981 0.903316 27.658 0.689287C27.818 0.475258 28.0387 0.335818 28.2797 0.296598C28.4672 0.26572 30.1264 0.0411473 31.3479 1.2819C31.8746 1.81806 32.5021 2.83705 32.5021 4.65046C32.5021 6.46387 31.8746 7.47163 31.3455 8.01903C30.6202 8.69767 29.7113 9.05201 28.7822 9.01836ZM29.4243 2.70793V6.57054C29.6461 6.50866 29.8527 6.3876 30.0278 6.21685C30.3332 5.90245 30.4871 5.37471 30.4871 4.63924C30.4871 3.90377 30.3308 3.37041 30.023 3.05601C29.8458 2.88864 29.6387 2.7697 29.417 2.70793H29.4243Z" />
<path d="M28.4171 2.6376H23.5886C23.3214 2.6376 23.0651 2.51368 22.8762 2.2931C22.6872 2.07252 22.5811 1.77335 22.5811 1.46141C22.5811 1.14946 22.6872 0.850297 22.8762 0.629718C23.0651 0.40914 23.3214 0.285217 23.5886 0.285217H28.4171C28.6843 0.285217 28.9406 0.40914 29.1295 0.629718C29.3184 0.850297 29.4246 1.14946 29.4246 1.46141C29.4246 1.77335 29.3184 2.07252 29.1295 2.2931C28.9406 2.51368 28.6843 2.6376 28.4171 2.6376Z" />
<path d="M28.4174 8.99306H23.589C23.4527 9.00084 23.3165 8.97622 23.1886 8.9207C23.0607 8.86517 22.9438 8.77989 22.845 8.67004C22.7461 8.56018 22.6675 8.42804 22.6137 8.28163C22.56 8.13521 22.5322 7.97758 22.5322 7.81828C22.5322 7.65898 22.56 7.50135 22.6137 7.35493C22.6675 7.20852 22.7461 7.07637 22.845 6.96652C22.9438 6.85666 23.0607 6.77139 23.1886 6.71586C23.3165 6.66033 23.4527 6.63571 23.589 6.64349H28.4174C28.5537 6.63571 28.6899 6.66033 28.8178 6.71586C28.9457 6.77139 29.0627 6.85666 29.1615 6.96652C29.2603 7.07637 29.339 7.20852 29.3927 7.35493C29.4465 7.50135 29.4742 7.65898 29.4742 7.81828C29.4742 7.97758 29.4465 8.13521 29.3927 8.28163C29.339 8.42804 29.2603 8.56018 29.1615 8.67004C29.0627 8.77989 28.9457 8.86517 28.8178 8.9207C28.6899 8.97622 28.5537 9.00084 28.4174 8.99306Z" />
<path d="M25.5705 24.7607C25.3732 24.7599 25.1803 24.6927 25.015 24.567C22.0405 22.2736 20.314 19.4861 19.8812 16.2832C19.2127 11.3145 21.9564 7.25261 22.0718 7.08418C22.2413 6.85167 22.4817 6.70524 22.7421 6.67587C23.0024 6.64649 23.2623 6.73648 23.4669 6.92679C23.6715 7.1171 23.8046 7.39281 23.8382 7.69564C23.8718 7.99847 23.8031 8.30468 23.6468 8.54951C23.6252 8.586 21.3384 12.0051 21.8746 15.9379C22.2185 18.4503 23.6492 20.6932 26.126 22.602C26.3072 22.7412 26.445 22.9449 26.5191 23.1829C26.5931 23.4209 26.5994 23.6804 26.537 23.9229C26.4746 24.1654 26.3468 24.3779 26.1727 24.5288C25.9986 24.6798 25.7874 24.7611 25.5705 24.7607Z" />
<path d="M26.4437 24.7608C26.2268 24.7612 26.0156 24.6799 25.8415 24.529C25.6673 24.378 25.5396 24.1655 25.4772 23.923C25.4148 23.6805 25.4211 23.421 25.4951 23.183C25.5692 22.9451 25.707 22.7413 25.8882 22.6021C28.3698 20.6905 29.8005 18.442 30.1396 15.9183C30.671 11.9659 28.389 8.58892 28.365 8.55243C28.1982 8.3086 28.1212 7.99743 28.151 7.68735C28.1807 7.37728 28.3148 7.09371 28.5237 6.89902C28.7325 6.70434 28.9991 6.61448 29.2647 6.64923C29.5303 6.68397 29.7732 6.84047 29.94 7.08429C30.0554 7.25272 32.7991 11.3175 32.1282 16.2833C31.6978 19.4862 29.964 22.2737 26.9991 24.5671C26.8336 24.6923 26.6409 24.7596 26.4437 24.7608Z" />
<path d="M25.5706 37.1992C25.3838 37.1996 25.2007 37.1393 25.0416 37.0252C18.7319 32.4664 19.9919 23.7783 21.5453 19.8175C21.6607 19.5421 21.8636 19.3302 22.1108 19.2269C22.358 19.1236 22.63 19.1371 22.8689 19.2644C23.1077 19.3918 23.2945 19.6229 23.3896 19.9087C23.4846 20.1945 23.4803 20.5122 23.3776 20.7943C23.2261 21.1873 19.7346 30.4256 26.0996 35.0237C26.2855 35.1584 26.4289 35.3602 26.5079 35.5984C26.5869 35.8367 26.5973 36.0985 26.5375 36.3442C26.4778 36.59 26.3511 36.8064 26.1766 36.9606C26.0022 37.1149 25.7894 37.1986 25.5706 37.1992Z" />
<path d="M26.4442 37.1992C26.2251 37.1993 26.012 37.1159 25.8372 36.9619C25.6623 36.8079 25.5352 36.5915 25.4751 36.3456C25.4151 36.0997 25.4253 35.8376 25.5043 35.5991C25.5832 35.3605 25.7266 35.1586 25.9127 35.0237C32.2778 30.4256 28.7838 21.1873 28.6323 20.7943C28.5214 20.5103 28.5116 20.1865 28.6052 19.894C28.6988 19.6016 28.888 19.3645 29.1313 19.235C29.3746 19.1054 29.652 19.094 29.9025 19.2033C30.153 19.3125 30.3561 19.5334 30.4671 19.8175C32.0156 23.7783 33.2781 32.4664 26.9756 37.0252C26.8155 37.139 26.6316 37.1992 26.4442 37.1992Z" />
<path d="M4.40997 35.0348C3.75007 35.0588 3.09619 34.8818 2.51272 34.5211C1.0964 33.5807 0.567399 31.5989 0.93771 28.6261C2.83255 13.5687 20.2564 10.8906 20.9946 10.784C21.1291 10.7572 21.2669 10.7627 21.3996 10.7999C21.5323 10.8372 21.6571 10.9056 21.7665 11.0009C21.8758 11.0961 21.9674 11.2164 22.0358 11.3542C22.1042 11.4921 22.1478 11.6448 22.1641 11.8029C22.1804 11.9611 22.1691 12.1215 22.1307 12.2744C22.0923 12.4272 22.0277 12.5694 21.9408 12.6923C21.8539 12.8151 21.7466 12.9161 21.6253 12.989C21.504 13.062 21.3712 13.1054 21.2351 13.1167C21.0692 13.142 4.59751 15.6852 2.9263 28.9686C2.76039 30.2823 2.72432 31.9582 3.50101 32.4747C6.0451 34.159 15.3558 27.172 21.1581 21.67C21.26 21.5659 21.3789 21.4868 21.5076 21.4374C21.6362 21.3881 21.7722 21.3696 21.9071 21.383C22.0421 21.3963 22.1733 21.4414 22.2931 21.5153C22.4128 21.5893 22.5185 21.6906 22.6039 21.8134C22.6893 21.9361 22.7526 22.0777 22.7901 22.2296C22.8276 22.3816 22.8384 22.5408 22.8219 22.6977C22.8055 22.8547 22.7621 23.0061 22.6944 23.1431C22.6267 23.28 22.536 23.3996 22.4278 23.4947C20.2107 25.6056 9.95982 35.0348 4.40997 35.0348Z" />
<path d="M47.5986 35.0349C42.0464 35.0349 31.7955 25.6058 29.564 23.4976C29.3567 23.3007 29.2249 23.0157 29.1977 22.7054C29.1704 22.395 29.2498 22.0848 29.4185 21.8428C29.5872 21.6008 29.8313 21.447 30.0971 21.4152C30.363 21.3833 30.6288 21.476 30.836 21.673C36.6384 27.1749 45.9418 34.1647 48.4907 32.4776C49.265 31.9611 49.2313 30.2853 49.0654 28.9715C47.3822 15.6657 30.925 13.1449 30.7567 13.1196C30.6256 13.1009 30.499 13.0521 30.3841 12.9762C30.2692 12.9003 30.1681 12.7987 30.0868 12.6773C30.0056 12.5558 29.9456 12.4168 29.9103 12.2683C29.8751 12.1197 29.8653 11.9645 29.8814 11.8115C29.8946 11.6568 29.9346 11.5068 29.9988 11.3706C30.0631 11.2344 30.1503 11.1148 30.2553 11.019C30.3602 10.9233 30.4807 10.8533 30.6095 10.8134C30.7382 10.7735 30.8725 10.7645 31.0043 10.7869C31.745 10.8936 49.1664 13.5716 51.0613 28.629C51.434 31.599 50.905 33.5808 49.4862 34.524C48.9054 34.8818 48.2551 35.0578 47.5986 35.0349Z" />
<path d="M6.83225 29.3419C6.65156 29.3409 6.47444 29.2833 6.3193 29.1752C6.16417 29.067 6.03673 28.9123 5.95027 28.7271C5.86382 28.5418 5.8215 28.3329 5.82775 28.1221C5.83401 27.9113 5.88862 27.7063 5.98585 27.5285C6.22631 27.0934 6.56294 26.925 8.42892 25.9958C10.129 25.1537 15.2989 22.5655 15.727 21.3668C15.7434 21.2151 15.7858 21.0688 15.8515 20.9365C15.9173 20.8043 16.0052 20.6888 16.1099 20.5969C16.2146 20.505 16.3341 20.4386 16.4612 20.4016C16.5883 20.3646 16.7205 20.3578 16.8499 20.3815C17.1165 20.4288 17.3566 20.5966 17.5181 20.8487C17.6796 21.1008 17.7497 21.417 17.7132 21.729C17.4943 23.694 14.6809 25.4344 9.22246 28.1573C8.52031 28.5054 7.73158 28.9012 7.49352 29.0528C7.31019 29.2391 7.07534 29.3418 6.83225 29.3419Z" />
<path d="M45.1736 29.342C44.9316 29.3437 44.6969 29.2441 44.5124 29.0612C44.2719 28.9097 43.4856 28.5138 42.7858 28.1658C37.3225 25.4428 34.5116 23.6996 34.2927 21.7374C34.2755 21.5844 34.2843 21.4289 34.3187 21.2799C34.353 21.1309 34.4122 20.9912 34.4928 20.8689C34.5734 20.7466 34.674 20.6441 34.7886 20.5672C34.9032 20.4903 35.0297 20.4406 35.1608 20.4209C35.4253 20.3833 35.692 20.4684 35.9033 20.6579C36.1147 20.8474 36.2539 21.1262 36.291 21.4342C36.707 22.5739 41.8793 25.1537 43.577 26.0015C45.443 26.9334 45.7796 27.1019 46.0225 27.537C46.1198 27.715 46.1744 27.9202 46.1805 28.1313C46.1867 28.3423 46.1442 28.5514 46.0575 28.7367C45.9707 28.922 45.8429 29.0768 45.6875 29.1847C45.532 29.2926 45.3545 29.3499 45.1736 29.3504V29.342Z" />
<path d="M16.0874 48.7816C15.9491 48.7821 15.8123 48.7486 15.6858 48.6833C15.5642 48.6223 15.4541 48.5337 15.3619 48.4228C15.2698 48.3118 15.1974 48.1807 15.1489 48.0369C15.1004 47.8931 15.0767 47.7395 15.0793 47.585C15.0819 47.4304 15.1107 47.278 15.164 47.1366L18.0063 39.5124L15.7724 32.5984C15.6862 32.3337 15.6851 32.0415 15.769 31.7758C15.853 31.5101 16.0165 31.2888 16.2292 31.1528L20.9832 28.0986C21.0996 28.0115 21.2302 27.9534 21.3667 27.9278C21.5033 27.9022 21.6429 27.9097 21.7769 27.9499C21.9108 27.99 22.0362 28.0619 22.1454 28.1611C22.2545 28.2602 22.3449 28.3846 22.4111 28.5263C22.4773 28.6681 22.5178 28.8242 22.53 28.985C22.5423 29.1458 22.526 29.3079 22.4823 29.461C22.4385 29.6142 22.3683 29.7552 22.2759 29.8753C22.1834 29.9954 22.0708 30.092 21.945 30.159L17.9557 32.722L20.0261 39.1306C20.1185 39.4171 20.1116 39.7343 20.0069 40.0149L16.9987 48.077C16.9212 48.2845 16.794 48.4615 16.6323 48.5865C16.4705 48.7116 16.2813 48.7793 16.0874 48.7816Z" />
<path d="M35.921 48.7816C35.7251 48.7817 35.5334 48.715 35.3694 48.5899C35.2054 48.4648 35.0762 48.2865 34.9976 48.077L31.9918 40.0149C31.8858 39.7346 31.8789 39.4168 31.9726 39.1306L34.0406 32.722L30.0489 30.159C29.9231 30.092 29.8105 29.9954 29.7181 29.8753C29.6257 29.7552 29.5554 29.6142 29.5116 29.461C29.4679 29.3079 29.4517 29.1458 29.4639 28.985C29.4762 28.8242 29.5166 28.6681 29.5828 28.5263C29.649 28.3846 29.7394 28.2602 29.8486 28.1611C29.9577 28.0619 30.0831 27.99 30.2171 27.9499C30.351 27.9097 30.4906 27.9022 30.6272 27.9278C30.7637 27.9534 30.8943 28.0115 31.0108 28.0986L35.7647 31.1528C35.9775 31.2888 36.1409 31.5101 36.2249 31.7758C36.3089 32.0415 36.3077 32.3337 36.2216 32.5984L33.9877 39.5124L36.8323 47.1366C36.8853 47.2781 36.9139 47.4304 36.9163 47.5849C36.9187 47.7393 36.895 47.8927 36.8466 48.0364C36.7981 48.1801 36.7258 48.3112 36.6338 48.4222C36.5418 48.5333 36.432 48.622 36.3106 48.6833C36.1878 48.7467 36.0552 48.7801 35.921 48.7816Z" />
<path d="M17.7991 13.9112C17.6032 13.9112 17.4116 13.8442 17.2479 13.7185C17.0842 13.5928 16.9557 13.4139 16.8781 13.2038L12.6605 1.9079C12.5588 1.62306 12.5571 1.30302 12.6558 1.01676C12.7544 0.730496 12.9455 0.500944 13.1877 0.37758C13.43 0.254217 13.7041 0.246925 13.9509 0.357277C14.1977 0.46763 14.3975 0.686788 14.5072 0.967509L18.7225 12.2662C18.7891 12.4451 18.8165 12.6406 18.8023 12.8349C18.7881 13.0293 18.7328 13.2165 18.6412 13.3797C18.5496 13.5428 18.4247 13.6769 18.2777 13.7696C18.1307 13.8624 17.9662 13.9111 17.7991 13.9112Z" />
<path d="M34.2076 13.9112C34.0694 13.9117 33.9325 13.8782 33.8061 13.813C33.6848 13.7514 33.5752 13.6624 33.4835 13.5513C33.3918 13.4402 33.3197 13.309 33.2715 13.1654C33.2233 13.0217 33.1997 12.8683 33.2023 12.714C33.2049 12.5597 33.2336 12.4076 33.2866 12.2662L37.5019 0.967509C37.6116 0.686788 37.8115 0.46763 38.0583 0.357277C38.3051 0.246925 38.5792 0.254217 38.8214 0.37758C39.0637 0.500944 39.2547 0.730496 39.3534 1.01676C39.452 1.30302 39.4503 1.62306 39.3487 1.9079L35.131 13.2038C35.0531 13.4141 34.9241 13.5931 34.76 13.7188C34.5959 13.8445 34.4039 13.9114 34.2076 13.9112Z" />
</svg>
