<svg id="insect-7" width="43" height="52" viewBox="0 0 43 52" fill="" xmlns="http://www.w3.org/2000/svg">
<path d="M17.5766 18.2793C17.3244 18.2794 17.0809 18.1873 16.892 18.0204C16.7031 17.8535 16.5818 17.6233 16.551 17.3732C16.5238 17.151 15.9134 11.9413 18.2389 9.32171C18.6843 8.84423 19.2234 8.46347 19.8224 8.20312C20.4215 7.94277 21.0678 7.80841 21.7211 7.80841C22.3744 7.80841 23.0207 7.94277 23.6198 8.20312C24.2188 8.46347 24.7579 8.84423 25.2033 9.32171C27.5289 11.9488 26.9159 17.151 26.8887 17.3732C26.8735 17.5083 26.8314 17.639 26.765 17.7577C26.6985 17.8763 26.6091 17.9806 26.5018 18.0642C26.3946 18.1479 26.2718 18.2094 26.1404 18.2451C26.0091 18.2807 25.872 18.2899 25.7371 18.2719C25.6022 18.2557 25.4717 18.2131 25.3533 18.1465C25.2349 18.0798 25.1309 17.9905 25.0471 17.8836C24.9633 17.7768 24.9014 17.6544 24.865 17.5236C24.8287 17.3928 24.8184 17.2561 24.835 17.1214C24.9858 15.8745 25.0674 12.2895 23.6488 10.6896C23.3992 10.4295 23.0995 10.2226 22.7678 10.0812C22.4361 9.93985 22.0793 9.86698 21.7186 9.86698C21.358 9.86698 21.0011 9.93985 20.6694 10.0812C20.3377 10.2226 20.0381 10.4295 19.7885 10.6896C18.3674 12.2969 18.4515 15.8745 18.6047 17.109C18.622 17.2438 18.6124 17.3807 18.5764 17.5118C18.5405 17.6429 18.4789 17.7655 18.3953 17.8727C18.3117 17.9799 18.2076 18.0695 18.0892 18.1363C17.9707 18.2032 17.8402 18.2459 17.7051 18.2621C17.6629 18.2715 17.6199 18.2772 17.5766 18.2793Z" />
<path d="M21.7152 51.7815C21.5687 51.781 21.4238 51.7498 21.2901 51.6898C21.1565 51.6298 21.0369 51.5425 20.9392 51.4333L11.0537 40.303C8.66806 37.6228 7.34909 34.1616 7.34668 30.575C7.39622 26.8014 8.93145 23.1992 11.62 20.5482C14.3085 17.8972 17.934 16.4108 21.7115 16.4108C25.489 16.4108 29.1145 17.8972 31.803 20.5482C34.4915 23.1992 36.0268 26.8014 36.0764 30.575C36.074 34.1616 34.755 37.6228 32.3693 40.303L22.4838 51.4333C22.3872 51.5418 22.2688 51.6288 22.1364 51.6887C22.004 51.7487 21.8606 51.7803 21.7152 51.7815ZM21.7152 18.2916C18.4554 18.2948 15.3299 19.59 13.0249 21.8929C10.7198 24.1958 9.42341 27.3182 9.42013 30.575C9.4186 33.6539 10.5487 36.6262 12.5959 38.9277L21.7152 49.189L30.8321 38.9277C32.8792 36.6262 34.0093 33.6539 34.0078 30.575C34.0078 27.3165 32.7132 24.1913 30.4083 21.8858C28.1034 19.5803 24.9768 18.2831 21.7152 18.2792V18.2916Z" />
<path d="M1.91611 22.2841C1.71066 22.2858 1.5094 22.2264 1.33785 22.1135C1.16629 22.0005 1.03221 21.8392 0.95272 21.6499C0.873229 21.4606 0.851887 21.252 0.891418 21.0506C0.93095 20.8491 1.02955 20.664 1.1747 20.5188L7.64974 14.0524C7.74651 13.9545 7.86204 13.8772 7.98943 13.825C8.11683 13.7728 8.25347 13.7469 8.39115 13.7487H17.513C17.7876 13.7487 18.051 13.8577 18.2452 14.0517C18.4394 14.2457 18.5485 14.5088 18.5485 14.7832C18.5485 15.0576 18.4394 15.3207 18.2452 15.5147C18.051 15.7087 17.7876 15.8177 17.513 15.8177H8.81622L2.63779 21.9903C2.44457 22.1782 2.18572 22.2835 1.91611 22.2841Z" />
<path d="M41.5236 22.2842C41.3862 22.2855 41.2499 22.2595 41.1226 22.2078C40.9954 22.1561 40.8796 22.0797 40.7821 21.9829L34.6037 15.8104H25.9144C25.6398 15.8104 25.3764 15.7014 25.1822 15.5074C24.988 15.3133 24.8789 15.0502 24.8789 14.7758C24.8789 14.5015 24.988 14.2383 25.1822 14.0443C25.3764 13.8503 25.6398 13.7413 25.9144 13.7413H35.0585C35.1961 13.7401 35.3325 13.7663 35.4598 13.8184C35.5871 13.8706 35.7028 13.9476 35.7999 14.045L42.2749 20.5114C42.42 20.6567 42.5186 20.8418 42.5581 21.0432C42.5977 21.2446 42.5764 21.4532 42.4969 21.6425C42.4174 21.8318 42.2833 21.9932 42.1118 22.1061C41.9402 22.219 41.7389 22.2784 41.5335 22.2767L41.5236 22.2842Z" />
<path d="M18.1006 12.6376C17.9629 12.639 17.8265 12.6129 17.6991 12.5607C17.5718 12.5086 17.4562 12.4315 17.3592 12.3339L12.5449 7.52427C12.448 7.42697 12.3715 7.31137 12.3197 7.1842C12.2679 7.05703 12.242 6.92084 12.2434 6.78357V1.08505C12.2366 0.945106 12.2583 0.805234 12.3071 0.673912C12.356 0.54259 12.4311 0.422554 12.5278 0.321091C12.6246 0.219628 12.7409 0.138851 12.8698 0.0836559C12.9987 0.0284612 13.1375 0 13.2777 0C13.4179 0 13.5567 0.0284612 13.6856 0.0836559C13.8145 0.138851 13.9309 0.219628 14.0276 0.321091C14.1243 0.422554 14.1994 0.54259 14.2483 0.673912C14.2972 0.805234 14.3188 0.945106 14.312 1.08505V6.3663L18.8222 10.8723C18.9674 11.0175 19.066 11.2027 19.1055 11.4041C19.1451 11.6055 19.1237 11.8141 19.0442 12.0034C18.9647 12.1927 18.8307 12.354 18.6592 12.467C18.4876 12.5799 18.2863 12.6393 18.0808 12.6376H18.1006Z" />
<path d="M25.339 12.6376C25.1335 12.6393 24.9323 12.5799 24.7607 12.467C24.5891 12.3541 24.4551 12.1927 24.3756 12.0034C24.2961 11.8141 24.2747 11.6055 24.3143 11.4041C24.3538 11.2027 24.4524 11.0176 24.5975 10.8723L29.1276 6.36631V1.08506C29.1276 0.810688 29.2367 0.547555 29.4309 0.353545C29.6251 0.159534 29.8884 0.0505371 30.1631 0.0505371C30.4377 0.0505371 30.7011 0.159534 30.8953 0.353545C31.0895 0.547555 31.1986 0.810688 31.1986 1.08506V6.79345C31.1996 6.93088 31.1732 7.06714 31.121 7.19429C31.0689 7.32145 30.9919 7.43698 30.8946 7.53416L26.0804 12.3438C25.9826 12.4397 25.8667 12.515 25.7394 12.5655C25.612 12.6159 25.4759 12.6405 25.339 12.6376Z" />
<path d="M20.4991 10.0549C20.3224 10.0548 20.1486 10.0094 19.9945 9.92292C19.8404 9.83644 19.7112 9.71184 19.6193 9.56107L16.6166 4.73165C16.5376 4.61638 16.4828 4.48632 16.4555 4.34932C16.4282 4.21232 16.4289 4.07122 16.4577 3.93452C16.4865 3.79782 16.5426 3.66836 16.6228 3.55394C16.703 3.43951 16.8056 3.34251 16.9243 3.26876C17.0431 3.19501 17.1756 3.14605 17.3138 3.12483C17.4519 3.10361 17.593 3.11057 17.7284 3.14529C17.8639 3.18002 17.9909 3.24178 18.1017 3.32686C18.2126 3.41194 18.3052 3.51858 18.3737 3.64034L21.3764 8.46976C21.4481 8.58519 21.4964 8.7136 21.5185 8.84766C21.5405 8.98173 21.5359 9.11882 21.5049 9.25111C21.474 9.3834 21.4172 9.5083 21.3379 9.61867C21.2586 9.72905 21.1583 9.82274 21.0428 9.89439C20.8806 9.99861 20.6919 10.0543 20.4991 10.0549Z" />
<path d="M22.9506 10.0551C22.7574 10.0563 22.5679 10.0023 22.4044 9.89952C22.2889 9.82786 22.1886 9.73418 22.1093 9.6238C22.03 9.51343 21.9732 9.38853 21.9423 9.25624C21.9113 9.12395 21.9067 8.98686 21.9287 8.85279C21.9508 8.71873 21.999 8.59032 22.0708 8.47489L25.0735 3.64547C25.1453 3.53004 25.239 3.42985 25.3495 3.35063C25.46 3.27141 25.585 3.21471 25.7174 3.18376C25.8498 3.15281 25.987 3.14822 26.1212 3.17025C26.2554 3.19228 26.384 3.24049 26.4995 3.31215C26.6151 3.38381 26.7153 3.4775 26.7946 3.58787C26.8739 3.69824 26.9307 3.82314 26.9616 3.95543C26.9926 4.08772 26.9972 4.22481 26.9751 4.35888C26.9531 4.49294 26.9048 4.62135 26.8331 4.73678L23.828 9.5662C23.7358 9.71585 23.6067 9.83938 23.4531 9.92498C23.2995 10.0106 23.1265 10.0554 22.9506 10.0551Z" />
</svg>
