<svg id="lavka" width="29" height="28" viewBox="0 0 29 28" fill="none" xmlns="http://www.w3.org/2000/svg">
<path d="M0.929688 6.37289C0.929688 4.33899 6.39579 6.37289 6.52291 6.37289L20.1246 10.0594C21.2263 15.7797 23.1246 27.2712 21.9043 27.4746C20.6839 27.678 18.3449 27.6441 17.328 27.6017L11.7348 25.4407L1.31104 11.9661C1.18392 10.7797 0.929688 8.00001 0.929688 6.37289Z" fill="white"/>
<path fill-rule="evenodd" clip-rule="evenodd" d="M0.977539 6.68487C0.977539 8.13484 1.69812 10.1503 4.98396 10.3098C8.2698 10.4693 13.4003 10.6433 15.663 13.5433C19.9864 17.8932 15.3027 27.5355 21.7735 27.5355C27.6822 27.5355 28.2875 21.3296 28.3019 17.4582C28.3163 13.5867 28.8928 4.21993 26.4572 2.21896C24.0217 0.217994 22.9552 0.0294835 14.9279 0.0294835C8.34185 0.0294835 0.977539 -0.65201 0.977539 6.68487Z" fill="url(#paint0_linear_969_12626)"/>
<path fill-rule="evenodd" clip-rule="evenodd" d="M20.967 27.5935C20.967 27.5935 16.0959 28.014 8.57305 19.9086C1.0502 11.8033 1.15108 9.07732 0.920494 7.64185C0.459323 19.2417 0.661077 23.3596 2.93811 25.9985C5.70513 29.1885 20.967 27.5935 20.967 27.5935Z" fill="url(#paint1_linear_969_12626)"/>
<defs>
<linearGradient id="paint0_linear_969_12626" x1="27.0337" y1="0.884969" x2="7.03592" y2="21.2512" gradientUnits="userSpaceOnUse">
<stop stop-color="#77FAEB"/>
<stop offset="1" stop-color="#2DD6F8"/>
</linearGradient>
<linearGradient id="paint1_linear_969_12626" x1="14.0206" y1="14.5582" x2="2.17534" y2="26.2018" gradientUnits="userSpaceOnUse">
<stop stop-color="#0061B6"/>
<stop offset="1" stop-color="#00C9DB"/>
</linearGradient>
</defs>
</svg>
