<svg width="81" height="83" viewBox="0 0 81 83" fill="none" xmlns="http://www.w3.org/2000/svg">
<path fill-rule="evenodd" clip-rule="evenodd" d="M59.4625 14.35L42.4655 31.3471H69.047C71.3464 31.3471 73.2105 33.2112 73.2105 35.5106C73.2105 36.4257 72.9233 37.2533 72.4329 37.935L69.5257 41.9764L72.4329 46.0178C72.9233 46.6995 73.2105 47.527 73.2105 48.4421C73.2105 49.3572 72.9233 50.1847 72.4329 50.8664L69.5257 54.9078L72.4329 58.9493C72.9233 59.631 73.2105 60.4585 73.2105 61.3736C73.2105 62.9769 72.306 64.3806 70.9472 65.0808L67.0232 67.1031L67.2026 71.5139C67.2049 71.5722 67.2062 71.6311 67.2062 71.6908C67.2062 73.9903 65.3421 75.8544 63.0426 75.8544H32.0076C29.7081 75.8544 27.8441 73.9903 27.8441 71.6908C27.8441 65.6051 27.8668 59.7239 27.8897 53.8091C27.9129 47.8262 27.9362 41.8089 27.9362 35.5106C27.9362 34.538 28.2612 33.6606 28.813 32.9539L28.991 32.726L29.1494 32.484C29.3089 32.2402 29.4986 32.0045 29.722 31.7811L53.3078 8.19529C55.0074 6.49571 57.7629 6.49571 59.4625 8.19529C61.1621 9.89487 61.1621 12.6504 59.4625 14.35ZM64.3561 3.30168C68.2171 7.16264 68.6918 13.1275 65.7803 17.5059C65.3722 18.1197 64.8974 18.7023 64.3561 19.2436L59.1733 24.4265H69.047C75.1686 24.4265 80.1311 29.389 80.1311 35.5106C80.1311 37.9236 79.3601 40.1565 78.0509 41.9764C79.3601 43.7962 80.1311 46.0291 80.1311 48.4421C80.1311 50.8551 79.3601 53.088 78.0509 54.9078C79.3601 56.7277 80.1311 58.9606 80.1311 61.3736C80.1311 65.6681 77.6889 69.3921 74.1175 71.2326C74.1236 71.3846 74.1268 71.5374 74.1268 71.6908C74.1268 77.8125 69.1642 82.775 63.0426 82.775H33.4848C29.4579 82.775 25.9325 80.6275 23.9914 77.4153C21.5417 80.5805 17.7055 82.6183 13.3934 82.6183C5.99641 82.6183 0 76.6219 0 69.225V40.129C0 32.7321 5.99641 26.7357 13.3934 26.7357C16.8481 26.7357 19.9974 28.0437 22.3729 30.1916C22.6614 29.6652 22.9913 29.1648 23.3583 28.6947C23.7767 28.0554 24.2667 27.4492 24.8283 26.8875L48.4142 3.30169C52.8164 -1.10056 59.9539 -1.10056 64.3561 3.30168ZM19.8661 40.129V69.225C19.8661 72.7998 16.9682 75.6977 13.3934 75.6977C9.81855 75.6977 6.9206 72.7998 6.9206 69.225V40.129C6.9206 36.5542 9.81854 33.6563 13.3934 33.6563C16.9682 33.6563 19.8661 36.5542 19.8661 40.129Z" fill="#FCE200"/>
</svg>
