<svg id="line-bg-family" width="1920" height="884" viewBox="0 0 1920 884" fill="none" xmlns="http://www.w3.org/2000/svg">
<path d="M1880.57 110.786C1802.47 110.878 1727.6 142.956 1672.37 199.984C1617.15 257.011 1586.09 334.329 1586 414.978V458.292H1482.99V377.257H1519.94L1439.56 248.551H1384.81V218.85H1340.62V248.551H1239.95L1208.65 298.549C1186.53 295.05 1166.37 283.454 1151.85 265.877H1204.58V248.551H1198.87C1153.76 248.551 1119.78 206.97 1119.78 151.824H1103C1103 206.97 1069.06 248.551 1023.95 248.551V265.877H1070.84C1061.86 276.744 1050.68 285.434 1038.09 291.33C1025.5 297.225 1011.8 300.18 997.973 299.984V317.31H1054.73C1029.9 344.487 1000.13 359.734 971.129 359.734V377.059H1086.17V458.095H1055.69C1030.75 458.04 1006.59 467.007 987.395 483.439C968.199 499.871 955.185 522.729 950.613 548.04C931.9 556.782 916.02 570.902 904.868 588.712C893.716 606.522 887.763 627.271 887.721 648.48V654.966H690.849C672.137 639.78 649.024 631.533 625.225 631.55H258.565V384.633C258.552 361.25 249.555 338.828 233.549 322.289C217.542 305.75 195.835 296.446 173.192 296.42H55.6533V110.786H0V128.112H38.8758V165.536H0V182.861H38.8758V233.948H0V251.274H38.8758V457.946H0V475.272H38.8758V698.725C38.8899 712.524 42.0474 726.126 48.0929 738.432C54.1385 750.738 62.9026 761.402 73.6771 769.563H0V786.889H262.879C303.529 786.889 371.454 815.006 382.431 853.42C384.121 859.447 385.229 865.632 385.738 871.884C385.738 874.409 386.122 876.835 386.122 879.508V883.369H402.9V879.508C402.9 876.934 402.899 874.557 402.564 871.835C404.595 848.706 414.918 827.195 431.509 811.518C448.1 795.841 469.763 787.128 492.252 787.087H887.721V883.567H904.499V728.179C919.609 730.262 934.982 727.948 948.887 721.496L949.941 721.001C952.434 719.813 954.735 718.526 957.276 717.091C959.777 715.583 962.194 713.93 964.514 712.14L965.473 711.447L966.24 711.992C969.508 714.429 972.935 716.629 976.498 718.576C978.703 719.764 980.956 720.853 983.257 721.843C986.528 723.214 989.873 724.388 993.275 725.358C997.213 726.453 1001.22 727.28 1005.26 727.833C1008.76 728.302 1012.28 728.55 1015.81 728.576C1018.74 728.57 1021.67 728.387 1024.58 728.03C1032.82 727.133 1040.9 724.999 1048.55 721.695C1051.13 720.556 1053.67 719.269 1056.12 717.883C1058.56 716.497 1060.91 714.962 1063.31 713.328C1064.22 712.685 1065.18 712.091 1066.09 711.398L1068.25 713.032C1073.5 716.727 1079.12 719.814 1085.02 722.239C1095.01 726.39 1105.66 728.541 1116.42 728.576H1116.76C1134.89 728.535 1152.53 722.536 1167.14 711.447C1181.74 722.536 1199.39 728.535 1217.52 728.576H1220.73C1237.83 727.916 1254.33 721.946 1268.09 711.447C1282.72 722.652 1300.45 728.701 1318.66 728.701C1336.88 728.701 1354.61 722.652 1369.23 711.447C1383.86 722.631 1401.56 728.685 1419.76 728.724C1429.93 728.707 1440.02 726.779 1449.53 723.031V769.365H1154.2C1126.57 769.396 1100.05 780.527 1080.23 800.403C1078.84 801.739 1077.5 803.175 1076.2 804.611L1075.01 805.948C1072.47 808.918 1070.21 811.987 1067.82 815.204C1067.69 815.361 1067.58 815.526 1067.48 815.699C1066.04 817.729 1064.65 819.858 1063.36 822.036C1062.06 824.214 1060.67 826.986 1059.43 829.362L1058.66 830.847C1057.08 834.262 1055.59 837.777 1054.3 841.341C1049.96 853.498 1047.73 866.353 1047.73 879.31V883.171H1064.51V879.31C1064.54 871.094 1065.63 862.919 1067.77 855.004C1069.01 850.39 1070.62 845.887 1072.56 841.539C1073.66 838.965 1074.91 836.589 1076.25 833.965C1083.81 820.292 1094.59 808.815 1107.6 800.601C1121.62 791.658 1137.77 786.911 1154.24 786.889H1920.02V769.563H1825.54V568.237C1825.54 549.658 1820.98 531.381 1812.29 515.114C1803.59 498.848 1791.05 485.123 1775.83 475.222H1920.02V457.897H1727.99V439.185C1727.99 389.295 1747.18 341.449 1781.34 306.172C1815.5 270.895 1861.83 251.076 1910.14 251.076H1920.16V233.75H1910.14C1857.43 233.802 1806.9 255.447 1769.63 293.935C1732.36 332.422 1711.4 384.607 1711.35 439.036V457.748H1661.74V429.928C1661.74 364.326 1686.96 301.408 1731.85 254.998C1776.75 208.588 1837.65 182.482 1901.18 182.416H1920.02V165.09H1901.18C1833.25 165.169 1768.12 193.071 1720.09 242.674C1672.06 292.277 1645.04 359.531 1644.96 429.68V457.501H1602.78V414.532C1602.96 338.548 1632.29 265.735 1684.36 212.048C1736.43 158.361 1806.99 128.177 1880.57 128.112H1920.02V110.786H1880.57ZM1586.67 475.618C1610.45 475.644 1633.24 485.413 1650.05 502.778C1666.85 520.143 1676.3 543.686 1676.31 568.237V578.138C1667.65 578.496 1659.45 582.304 1653.45 588.764C1647.44 595.224 1644.09 603.834 1644.1 612.789V628.63C1644.06 631.981 1644.52 635.318 1645.44 638.53C1639.95 640.965 1635.2 644.881 1631.68 649.867C1595.01 644.52 1565.87 610.265 1560.59 567.346C1560.58 562.776 1560.28 558.212 1559.68 553.683V553.387C1557.59 537.587 1552.19 522.447 1543.87 509.018C1535.54 495.588 1524.48 484.191 1511.46 475.618H1586.67ZM399.352 825.847C397.575 829.187 395.975 832.625 394.559 836.144C393.504 833.619 392.354 831.194 391.155 828.768C388.764 824.047 386.04 819.514 383.006 815.204L382.766 814.808C363.352 787.433 298.496 769.563 263.215 769.563H258.901V649.025H625.561C636.393 649.056 647.129 651.118 657.246 655.114C663.105 657.379 668.713 660.283 673.976 663.777C677.886 666.352 681.589 669.249 685.049 672.439C696.865 683.191 705.756 696.945 710.838 712.339C711.767 715.182 712.551 718.074 713.187 721.001C713.846 723.859 714.358 726.751 714.721 729.664C715.294 733.78 715.598 737.931 715.632 742.09V769.563H492.252C473.327 769.608 454.754 774.844 438.432 784.733C422.11 794.622 408.623 808.81 399.352 825.847ZM173.767 769.563H124.297C106.104 769.55 88.6587 762.084 75.7896 748.804C62.9205 735.523 55.6787 717.513 55.6533 698.725V313.746H173.192C191.385 313.772 208.825 321.251 221.685 334.54C234.545 347.83 241.775 365.845 241.788 384.633V769.563H173.767ZM1010.2 488.44C1023.91 480.059 1039.56 475.632 1055.5 475.618H1201.7H1455.76C1477.01 476.013 1497.43 484.195 1513.38 498.704C1529.32 513.213 1539.75 533.103 1542.81 554.822C1542.19 605.463 1508.78 646.748 1466.69 650.312V648.48C1466.65 619.228 1455.38 591.185 1435.35 570.501C1415.32 549.817 1388.17 538.179 1359.84 538.14H994.57C989.856 538.146 985.148 538.477 980.477 539.13C976.8 539.622 973.152 540.316 969.547 541.209C976.198 519.014 990.646 500.192 1010.05 488.44H1010.2ZM1249.2 266.075H1249.49L1256.87 277.857L1211.48 350.427L1205.53 359.931H1190.29L1190.96 358.892L1200.07 344.339L1216.85 317.508L1224.66 305.033L1249.2 266.075ZM1340.76 266.075V292.064H1384.96V265.877H1430.54L1489.27 359.931H1328.01L1276.58 277.857L1271.78 269.887L1269.43 266.075H1340.71H1340.76ZM1352.75 248.749V231.523H1372.97V279.886H1352.75V248.749ZM1696.83 581.851C1694.51 578.574 1693.25 574.623 1693.23 570.564C1693.52 564.794 1696 559.375 1700.14 555.49C1704.28 551.604 1709.74 549.566 1715.33 549.822H1727.17C1732.76 549.566 1738.22 551.604 1742.36 555.49C1746.5 559.375 1748.98 564.794 1749.27 570.564C1749.23 574.612 1747.99 578.551 1745.72 581.851L1736.13 595.563H1763.65C1768.15 595.576 1772.46 597.426 1775.63 600.709C1778.81 603.993 1780.61 608.443 1780.62 613.086V628.927C1780.59 632.64 1779.41 636.245 1777.26 639.224L1767.68 652.985H1792.27C1796.74 653.025 1801.01 654.89 1804.16 658.173C1807.3 661.457 1809.06 665.891 1809.05 670.509V686.35C1809.06 690.967 1807.3 695.402 1804.16 698.686C1801.01 701.969 1796.74 703.834 1792.27 703.873H1730.81V769.563H1704.64V703.873H1658.81C1656.36 703.849 1653.95 703.293 1651.72 702.24C1648.78 700.831 1646.3 698.59 1644.55 695.776C1642.8 692.962 1641.86 689.693 1641.85 686.35V670.509C1641.86 666.034 1643.55 661.737 1646.54 658.504C1649.54 655.271 1653.62 653.349 1657.95 653.133L1673.63 652.292L1664.28 639.323C1662.08 636.333 1660.88 632.683 1660.88 628.927V613.086C1660.88 608.728 1662.47 604.532 1665.33 601.325C1668.19 598.117 1672.11 596.132 1676.31 595.76C1676.84 595.76 1677.32 595.76 1677.84 595.76H1706.22L1696.83 581.851ZM949.031 568.584C951.826 566.893 954.706 565.356 957.659 563.98C960.442 562.656 963.29 561.482 966.192 560.465C975.334 557.258 984.915 555.586 994.57 555.515H1359.98C1383.83 555.58 1406.68 565.399 1423.54 582.822C1440.39 600.245 1449.87 623.854 1449.91 648.48V649.273C1437.77 655.277 1424.19 657.479 1410.85 655.605C1397.51 653.731 1384.99 647.864 1374.84 638.729L1369.62 633.778L1364.35 638.729C1351.78 650.025 1335.68 656.247 1319.02 656.247C1302.36 656.247 1286.26 650.025 1273.7 638.729L1268.47 633.778L1263.25 638.729C1250.75 650.029 1234.71 656.258 1218.09 656.258C1201.48 656.258 1185.44 650.029 1172.94 638.729L1167.71 633.778L1162.49 638.729C1149.95 649.995 1133.9 656.216 1117.29 656.252C1106.3 656.235 1095.48 653.484 1085.74 648.233C1080.86 645.627 1076.29 642.437 1072.13 638.729L1068.97 635.857L1066.9 634.026L1061.68 638.976L1061.3 639.57C1048.66 650.48 1032.69 656.409 1016.23 656.3C999.76 656.191 983.864 650.052 971.369 638.976L966.336 634.472L961.111 639.422C960.152 640.263 959.145 641.055 958.139 641.847C949.556 648.753 939.524 653.483 928.85 655.658C924.536 656.51 920.155 656.941 915.763 656.945C912.28 656.938 908.803 656.657 905.361 656.104V648.48C905.322 632.416 909.31 616.615 916.937 602.614C924.564 588.613 935.571 576.889 948.887 568.584H949.031ZM1560.64 618.779C1568.04 631.351 1577.82 642.246 1589.4 650.807H1560.02L1560.5 651.55L1569.03 664.371C1579.46 680.354 1593.07 693.855 1608.96 703.972H1559.4V769.761H1542.76V703.972H1493.48C1509.36 693.853 1522.95 680.352 1533.37 664.371L1542.43 650.807H1513.04C1525.69 641.524 1536.21 629.493 1543.86 615.561C1546.73 610.486 1549.22 605.191 1551.29 599.721C1551.58 600.463 1551.92 601.206 1552.25 601.998C1554.61 607.816 1557.41 613.428 1560.64 618.779ZM1625.79 693.428C1613.56 687.161 1602.59 678.581 1593.43 668.133H1625.26C1625.26 668.925 1625.26 669.717 1625.26 670.509V686.35C1625.19 688.722 1625.37 691.095 1625.79 693.428ZM904.499 672.439V672.093L906.943 672.439C909.58 672.687 912.216 672.836 914.901 672.836C917.585 672.836 920.221 672.835 922.906 672.439C931.868 671.539 940.636 669.184 948.887 665.46L952.386 663.777C954.064 662.935 955.694 661.995 957.18 661.054C960.004 659.391 962.74 657.572 965.377 655.609C968.859 658.274 972.547 660.642 976.402 662.688L979.422 664.173C988.743 668.722 998.775 671.521 1009.05 672.439C1011.25 672.439 1013.5 672.687 1015.71 672.687C1019.16 672.68 1022.6 672.448 1026.02 671.994C1040.56 670.166 1054.4 664.488 1066.19 655.51L1068.34 657.143C1073.59 660.854 1079.22 663.958 1085.12 666.4C1095.11 670.512 1105.76 672.645 1116.52 672.687H1116.85C1134.99 672.671 1152.64 666.67 1167.23 655.56C1181.83 666.663 1199.48 672.664 1217.61 672.687H1220.83C1237.92 672.006 1254.42 666.039 1268.19 655.56C1282.82 666.764 1300.55 672.812 1318.76 672.812C1336.97 672.812 1354.7 666.764 1369.33 655.56C1380.7 664.289 1394.01 669.926 1408.04 671.95C1422.07 673.974 1436.37 672.321 1449.62 667.143V705.458C1437.48 711.469 1423.89 713.669 1410.55 711.786C1397.21 709.903 1384.69 704.019 1374.56 694.864L1369.33 689.914L1364.06 694.864C1351.51 706.19 1335.4 712.431 1318.73 712.431C1302.07 712.431 1285.96 706.19 1273.41 694.864L1268.19 689.914L1262.96 694.864C1250.48 706.194 1234.43 712.443 1217.81 712.443C1201.19 712.443 1185.13 706.194 1172.65 694.864L1167.43 689.914L1162.2 694.864C1151.85 704.275 1138.98 710.222 1125.28 711.919C1111.59 713.616 1097.72 710.983 1085.5 704.369C1080.61 701.781 1076.04 698.589 1071.89 694.864L1068.73 692.043L1066.66 690.162L1061.44 695.112L1061.06 695.706C1059.33 697.238 1057.52 698.676 1055.64 700.013C1053.31 701.673 1050.87 703.177 1048.35 704.517C1045.82 705.929 1043.19 707.153 1040.49 708.181C1032.83 711.157 1024.71 712.683 1016.52 712.685C1008.85 712.666 1001.24 711.328 993.994 708.725C988.048 706.57 982.406 703.607 977.217 699.913C975.132 698.379 973.132 696.727 971.225 694.963L966.192 690.458L960.967 695.409C960.008 696.3 959.001 697.042 957.995 697.834C946.747 706.927 933.009 712.124 918.735 712.685C917.681 712.685 916.674 712.685 915.62 712.685C914.565 712.685 913.558 712.685 912.504 712.685C910.063 712.587 907.63 712.339 905.218 711.942L904.499 672.439ZM1466.69 668.133H1509.16C1497.55 681.454 1482.97 691.649 1466.69 697.834V668.133ZM1576.37 721.101H1657.23H1658.81H1687.86V769.464H1576.37V721.101ZM1256.59 458.292V404.137H1276.86V458.59H1256.59V458.292ZM1315.07 458.292H1288.85V391.662H1244.6V458.292H1218.33V371.268L1219.96 368.693L1225.38 360.03L1227.54 356.565L1266.7 293.945L1308.07 360.03L1313.49 368.693L1315.07 371.268V458.491V458.292ZM1466.21 458.292H1331.99V377.158H1466.21V458.292ZM1201.56 377.257V458.292H1136.7V377.257H1201.56ZM887.721 712.339H728.095C724.128 697.754 717.291 684.171 708.01 672.439H887.721V712.339ZM731.355 729.664H887.721V769.563H732.074V742.09C732.078 737.937 731.837 733.787 731.355 729.664ZM1466.69 721.101H1526.18V769.563H1466.69V721.101ZM1196.91 317.508L1186.22 334.586C1179.7 329.407 1173.59 323.696 1167.95 317.508H1196.91ZM1029.9 359.931C1049.12 348.116 1065.92 332.546 1079.37 314.092L1089.82 300.182H1057.89C1072.67 290.446 1085.14 277.402 1094.37 262.016L1102.52 248.749H1076.06C1092.1 236.493 1104.33 219.667 1111.25 200.336C1118.19 219.662 1130.43 236.484 1146.48 248.749H1120.02L1128.17 262.016C1137.4 277.402 1149.87 290.446 1164.65 300.182H1132.77L1143.22 314.092C1152.97 327.298 1164.38 339.102 1177.16 349.19L1170.45 359.931H1119.92V458.292H1102.62V359.931H1029.9ZM1771.7 769.563H1747.74V721.199H1792.12C1798.05 721.147 1803.85 719.436 1808.9 716.249V769.365L1771.7 769.563ZM1808.76 568.237V640.412C1805.03 638.115 1800.89 636.617 1796.58 636.006C1797.06 633.679 1797.3 631.306 1797.3 628.927V613.086C1797.25 604.158 1793.89 595.589 1787.9 589.143C1781.92 582.697 1773.77 578.865 1765.14 578.435C1765.7 575.902 1765.97 573.311 1765.95 570.713C1765.66 560.348 1761.41 550.524 1754.12 543.39C1746.84 536.255 1737.11 532.392 1727.07 532.645H1715.19C1706 532.617 1697.08 535.85 1689.92 541.803C1683.3 514.535 1666.84 490.911 1643.91 475.767H1719.12C1742.85 475.819 1765.6 485.578 1782.38 502.908C1799.16 520.239 1808.61 543.729 1808.66 568.237H1808.76ZM1346.23 443.937H1390.47V391.762H1346.23V443.937ZM1358.21 404.335H1378.49V431.759H1358.07L1358.21 404.335ZM1451.83 391.96H1407.63V444.135H1451.83V391.96ZM1439.84 431.562H1419.62V404.137H1439.84V431.562ZM1225.33 91.9257C1226.55 82.8278 1225.52 73.5597 1222.34 64.9829C1219.16 56.406 1213.93 48.7995 1207.14 42.8712C1200.34 36.9429 1192.21 32.8856 1183.49 31.0763C1174.77 29.2671 1165.75 29.7644 1157.26 32.523C1150.67 21.7031 1141.3 12.9876 1130.19 7.3476C1119.08 1.70761 1106.67 -0.635098 1094.35 0.581522C1082.02 1.79814 1070.27 6.52601 1060.4 14.2376C1050.52 21.9491 1042.92 32.3411 1038.43 44.255C1035.79 43.7601 1033.11 43.5121 1030.43 43.5129C1018.26 43.526 1006.6 48.5214 998.002 57.4028C989.401 66.2843 984.564 78.3261 984.551 90.8864V99.5493H1224.23L1225.33 91.9257ZM1002.53 82.0253C1004.34 75.8445 1008.04 70.4306 1013.06 66.5806C1018.08 62.7305 1024.17 60.6481 1030.43 60.6405C1034.02 60.6525 1037.57 61.3404 1040.92 62.6703L1049.84 66.2343L1052.09 56.6801C1054.54 46.3006 1060.04 36.9585 1067.83 29.9391C1075.63 22.9196 1085.34 18.568 1095.63 17.4825C1105.92 16.397 1116.29 18.6311 1125.3 23.8776C1134.31 29.1241 1141.52 37.1249 1145.95 46.7796L1149.64 54.799L1157.36 50.7896C1162.34 48.1409 1167.86 46.7655 1173.47 46.7796C1182.62 46.7921 1191.42 50.4281 1198.05 56.9387C1204.69 63.4494 1208.65 72.3395 1209.13 81.7781L1002.53 82.0253ZM1720.22 93.1143C1728.53 93.1143 1736.66 90.5681 1743.58 85.7978C1750.49 81.0274 1755.88 74.2469 1759.06 66.3141C1762.24 58.3813 1763.07 49.6526 1761.45 41.2312C1759.83 32.8098 1755.83 25.0738 1749.95 19.0023C1744.07 12.9308 1736.58 8.79612 1728.42 7.121C1720.27 5.44588 1711.81 6.30602 1704.13 9.59188C1696.45 12.8778 1689.88 18.4417 1685.27 25.581C1680.65 32.7204 1678.18 41.1143 1678.18 49.7007C1678.21 61.2021 1682.64 72.2239 1690.52 80.352C1698.4 88.4801 1709.08 93.0517 1720.22 93.0648V93.1143ZM1745.48 49.7007C1745.48 54.8604 1744 59.9042 1741.22 64.1943C1738.45 68.4844 1734.5 71.8278 1729.89 73.8023C1725.27 75.7768 1720.19 76.2936 1715.29 75.287C1710.39 74.2804 1705.89 71.7959 1702.36 68.1475C1698.82 64.499 1696.42 59.8505 1695.44 54.7899C1694.47 49.7294 1694.97 44.4844 1696.88 39.7175C1698.79 34.9506 1702.03 30.8762 1706.19 28.0096C1710.34 25.1431 1715.22 23.6129 1720.22 23.6129C1726.88 23.6256 1733.27 26.3509 1738 31.1978C1742.73 36.0447 1745.42 42.622 1745.48 49.5025V49.7007Z" fill="#F2F2F2"/>
</svg>
