<svg id="logo-extreme" width="151" height="106" viewBox="0 0 151 106" fill="none" xmlns="http://www.w3.org/2000/svg">
<g clip-path="url(#clip0_967_4072)">
<path d="M62.2979 63.1257C64.1972 62.0064 66.3621 61.4174 68.5666 61.4205V67.5764C66.9041 67.5764 65.3096 68.2369 64.134 69.4125C62.9584 70.5881 62.2979 72.1825 62.2979 73.8451V80.9036V85.8058H56.1296V80.9036V73.8451V61.8844H61.0442L62.2979 63.1381V63.1257ZM134.714 73.6321L143.227 85.7932H136.005L131.09 78.7849L126.188 85.7932H118.954L127.48 73.6321L119.255 61.872H126.477L131.09 68.4665L135.717 61.872H142.938L134.714 73.6321ZM47.9427 61.872H47.1027L45.8489 63.1257C43.9631 62.0225 41.8195 61.4364 39.6347 61.427C37.4499 61.4175 35.3014 61.9849 33.4061 63.0719C31.5109 64.1588 29.9361 65.7269 28.841 67.6174C27.7458 69.508 27.1691 71.654 27.1691 73.8388C27.1691 76.0236 27.7458 78.1698 28.841 80.0604C29.9361 81.9509 31.5109 83.5188 33.4061 84.6058C35.3014 85.6927 37.4499 86.2601 39.6347 86.2507C41.8195 86.2413 43.9631 85.6553 45.8489 84.5521L47.1027 85.8058H52.0173V73.8451V61.8844H47.9427V61.872ZM39.6053 80.0887C38.3655 80.0887 37.1535 79.721 36.1226 79.0322C35.0917 78.3434 34.2883 77.3644 33.8138 76.219C33.3393 75.0735 33.2152 73.813 33.4571 72.597C33.699 71.381 34.296 70.2641 35.1727 69.3874C36.0494 68.5107 37.1664 67.9136 38.3824 67.6718C39.5984 67.4299 40.8588 67.554 42.0042 68.0285C43.1497 68.503 44.1287 69.3065 44.8175 70.3373C45.5063 71.3682 45.874 72.5802 45.874 73.82C45.874 75.4826 45.2135 77.077 44.0379 78.2526C42.8623 79.4282 41.2679 80.0887 39.6053 80.0887ZM87.5357 63.1132C85.6372 61.9921 83.4717 61.4032 81.267 61.4081C79.3611 61.4099 77.4813 61.8505 75.7732 62.6958C74.0651 63.5412 72.5746 64.7685 71.4172 66.2827C70.2599 67.7969 69.4668 69.5574 69.0994 71.4275C68.732 73.2976 68.8002 75.2272 69.2987 77.0667C69.7972 78.9062 70.7126 80.6061 71.974 82.0348C73.2354 83.4635 74.8088 84.5826 76.5724 85.3052C78.3359 86.0278 80.2421 86.3347 82.1434 86.2019C84.0446 86.0691 85.8897 85.5003 87.5357 84.5395L88.7894 85.7932H93.704V66.774V52.8701H87.5357V63.1132ZM81.267 80.0887C80.0271 80.0887 78.8152 79.721 77.7843 79.0322C76.7534 78.3434 75.9499 77.3644 75.4755 76.219C75.001 75.0735 74.8769 73.813 75.1187 72.597C75.3606 71.381 75.9576 70.2641 76.8343 69.3874C77.711 68.5107 78.828 67.9136 80.044 67.6718C81.26 67.4299 82.5204 67.554 83.6659 68.0285C84.8113 68.503 85.7904 69.3065 86.4792 70.3373C87.168 71.3682 87.5357 72.5802 87.5357 73.82C87.5357 75.4804 86.8769 77.0729 85.704 78.2482C84.5311 79.4234 82.9399 80.0854 81.2795 80.0887H81.267ZM108.711 80.0887C107.56 80.0864 106.431 79.7669 105.449 79.1654C104.467 78.5638 103.67 77.7034 103.145 76.6786H120.797C121.014 75.7455 121.124 74.7906 121.123 73.8326C121.123 72.2026 120.802 70.5886 120.178 69.0827C119.555 67.5768 118.64 66.2085 117.488 65.0559C116.335 63.9034 114.967 62.9892 113.461 62.3654C111.955 61.7417 110.341 61.4205 108.711 61.4205C107.081 61.4205 105.467 61.7417 103.961 62.3654C102.455 62.9892 101.087 63.9034 99.9347 65.0559C98.7821 66.2085 97.8678 67.5768 97.2441 69.0827C96.6203 70.5886 96.2993 72.2026 96.2993 73.8326C96.2985 74.2975 96.3236 74.7621 96.3745 75.2242C96.3745 75.3245 96.3745 75.4124 96.3745 75.5001C96.4117 75.8676 96.4746 76.2321 96.5625 76.5909C96.5677 76.6199 96.5677 76.6495 96.5625 76.6786C97.0633 78.8337 98.1322 80.8155 99.6581 82.4177C101.184 84.02 103.111 85.1843 105.239 85.7896C107.367 86.3949 109.619 86.419 111.76 85.8597C113.9 85.3003 115.852 84.1777 117.412 82.6087L113.049 78.2583C111.899 79.4059 110.348 80.0621 108.724 80.0887H108.711ZM108.711 67.5513C109.863 67.5536 110.992 67.8731 111.973 68.4746C112.955 69.0762 113.753 69.9367 114.278 70.9616H103.157C103.686 69.9414 104.484 69.086 105.466 68.489C106.448 67.892 107.575 67.5763 108.724 67.5764L108.711 67.5513ZM20.7491 61.8469H19.9091L18.6554 63.1006C17.0094 62.1399 15.1643 61.5711 13.2631 61.4383C11.3619 61.3055 9.45562 61.6123 7.69209 62.335C5.92856 63.0576 4.35512 64.1765 3.09375 65.6052C1.83238 67.0339 0.916959 68.734 0.41845 70.5735C-0.0800582 72.413 -0.148264 74.3426 0.219119 76.2127C0.586502 78.0828 1.37961 79.8432 2.53695 81.3574C3.6943 82.8716 5.18479 84.099 6.8929 84.9443C8.60101 85.7897 10.4809 86.2302 12.3867 86.232C14.5903 86.2279 16.7533 85.6395 18.6554 84.527V86.232C18.6402 87.6826 18.1225 89.083 17.1904 90.1945C16.2583 91.306 14.9695 92.0599 13.5438 92.3276C12.1181 92.5953 10.6437 92.3602 9.3719 91.6625C8.1001 90.9648 7.10964 89.8476 6.56936 88.5014L2.03084 93.0524C3.48199 95.2531 5.59608 96.9345 8.06683 97.8533C10.5376 98.772 13.2367 98.8803 15.7731 98.1624C18.3095 97.4445 20.5515 95.9377 22.1742 93.8603C23.7969 91.783 24.7162 89.243 24.7987 86.6082C24.7987 86.4954 24.7987 86.2194 24.7987 86.1944V61.8469H20.7617H20.7491ZM18.6679 73.8075C18.6679 75.0473 18.3003 76.2594 17.6115 77.2903C16.9226 78.3212 15.9436 79.1246 14.7982 79.5991C13.6527 80.0736 12.3923 80.1976 11.1763 79.9557C9.96027 79.7138 8.8433 79.1168 7.96661 78.2401C7.08992 77.3634 6.49289 76.2464 6.25101 75.0304C6.00913 73.8144 6.13327 72.5541 6.60773 71.4086C7.08219 70.2632 7.88567 69.284 8.91654 68.5952C9.94742 67.9064 11.1594 67.5388 12.3992 67.5388C14.0618 67.5388 15.6563 68.1992 16.8319 69.3748C18.0075 70.5504 18.6679 72.1449 18.6679 73.8075Z" fill="#1D1D1B"/>
<path d="M104.349 6.0555H98.4066C96.5573 3.71675 94.0889 1.9437 91.2821 0.938013C88.4753 -0.0676743 85.4426 -0.265732 82.5288 0.366394C79.615 0.998519 76.937 2.4355 74.7993 4.51389C72.6615 6.59227 71.1497 9.22871 70.4358 12.1235C69.5187 8.83432 67.5532 5.93422 64.8378 3.86375C62.1225 1.79329 58.8056 0.665567 55.391 0.651821H39.6816V16.311C39.6821 18.6542 40.2097 20.9674 41.2254 23.079C42.2411 25.1907 43.7188 27.0467 45.5491 28.5098C45.7117 34.987 48.389 41.1467 53.0139 45.6844C57.6389 50.2221 63.8484 52.7814 70.3276 52.8205C76.8067 52.8596 83.0467 50.3754 87.7261 45.8939C92.4055 41.4124 95.1569 35.2856 95.3977 28.8108C97.4088 27.3288 99.0434 25.3946 100.169 23.1644C101.295 20.9343 101.881 18.4707 101.879 15.9724C101.876 14.4448 101.656 12.9253 101.228 11.459L102.644 8.95155L104.349 6.0555Z" fill="#1D1D1B"/>
<path d="M59.1259 18.1291L55.1014 14.1171V5.10278H55.3396C56.623 5.10998 57.8954 5.33892 59.1008 5.7797L59.1259 18.1291ZM44.1562 7.10873V13.3774H50.4249L44.1562 7.10873ZM52.3557 5.15283H46.087L52.3557 11.4215V5.15283ZM53.1581 16.1106H44.1562V16.3488C44.1579 17.6315 44.3828 18.9043 44.8207 20.11H57.1826L53.1581 16.1106ZM46.2751 22.8807C47.1487 24.1062 48.262 25.1416 49.5476 25.9243C50.8331 26.7069 52.2641 27.2204 53.754 27.4337C55.2438 27.6471 56.7614 27.5558 58.2149 27.1654C59.6684 26.7751 61.0276 26.0936 62.21 25.1626L59.9282 22.8807H46.2751ZM61.8715 7.28427V20.8998L64.1659 23.1816C65.0929 21.9969 65.7705 20.6371 66.158 19.1836C66.5454 17.7301 66.6346 16.2132 66.4203 14.7244C66.2059 13.2355 65.6924 11.8055 64.9106 10.5204C64.1289 9.23526 63.0951 8.12159 61.8715 7.24662V7.28427Z" fill="#8C9091"/>
<path d="M85.9177 27.4569C83.6438 27.4569 81.421 26.7827 79.5304 25.5194C77.6398 24.2561 76.1662 22.4606 75.296 20.3598C74.4259 18.2591 74.1982 15.9474 74.6418 13.7172C75.0854 11.4871 76.1804 9.43857 77.7882 7.83071C79.3961 6.22286 81.4446 5.12789 83.6748 4.68428C85.9049 4.24068 88.2165 4.46838 90.3173 5.33855C92.418 6.20871 94.2136 7.68233 95.4769 9.57297C96.7402 11.4636 97.4144 13.6864 97.4144 15.9603C97.4144 19.0094 96.2032 21.9336 94.0471 24.0896C91.891 26.2457 88.9668 27.4569 85.9177 27.4569ZM70.4716 48.4821C65.5802 48.4763 60.8521 46.7216 57.1412 43.535C53.4303 40.3483 50.9813 35.9397 50.2363 31.1053C52.2834 31.8101 54.4545 32.0827 56.6122 31.9059C58.77 31.7291 60.8677 31.1068 62.7728 30.0783C64.6779 29.0497 66.3491 27.6373 67.6807 25.9302C69.0123 24.2231 69.9754 22.2584 70.5092 20.1602C71.4343 23.5355 73.4414 26.5139 76.2226 28.6383C79.0038 30.7627 82.4054 31.9157 85.9051 31.9203C87.5252 31.9243 89.1363 31.6789 90.6819 31.193C89.9163 36.006 87.462 40.3891 83.7587 43.5571C80.0554 46.7252 75.3451 48.4711 70.4716 48.4821Z" fill="#F3BD48"/>
<path d="M91.2851 8.91389C90.4637 8.6924 89.595 8.7196 88.789 8.99194C87.983 9.26429 87.2758 9.76954 86.7571 10.4439C86.2383 11.1182 85.9313 11.9313 85.8747 12.7802C85.8182 13.6291 86.0148 14.4757 86.4395 15.2129C86.8643 15.95 87.4981 16.5446 88.2609 16.9215C89.0237 17.2983 89.8811 17.4404 90.7247 17.3298C91.5682 17.2192 92.36 16.8608 92.9999 16.3001C93.6397 15.7394 94.0988 15.0014 94.3192 14.1797C94.6143 13.0791 94.4605 11.9064 93.8916 10.9191C93.3227 9.93178 92.3853 9.21054 91.2851 8.91389Z" fill="#1D1D1B"/>
<path d="M145.334 68.1531C144.21 68.1531 143.111 68.4866 142.177 69.1112C141.243 69.7358 140.515 70.6236 140.085 71.6621C139.656 72.7006 139.544 73.8432 139.764 74.9452C139.985 76.0473 140.527 77.0593 141.322 77.8531C142.118 78.6468 143.131 79.1867 144.233 79.4045C145.336 79.6222 146.478 79.508 147.516 79.0762C148.553 78.6444 149.44 77.9145 150.062 76.9789C150.685 76.0432 151.016 74.9439 151.013 73.82C151.015 73.0743 150.869 72.3358 150.584 71.6467C150.299 70.9576 149.88 70.3315 149.353 69.8048C148.825 69.2781 148.198 68.861 147.508 68.5775C146.818 68.2941 146.079 68.1498 145.334 68.1531ZM145.334 78.346C144.434 78.386 143.543 78.1561 142.775 77.6856C142.007 77.2152 141.398 76.5258 141.025 75.7062C140.652 74.8865 140.533 73.9741 140.683 73.0862C140.832 72.1983 141.244 71.3754 141.866 70.7235C142.487 70.0716 143.289 69.6204 144.169 69.428C145.048 69.2355 145.965 69.3105 146.802 69.6435C147.639 69.9765 148.357 70.5522 148.864 71.2965C149.37 72.0408 149.643 72.9196 149.647 73.82C149.665 74.4015 149.567 74.9809 149.36 75.5243C149.152 76.0678 148.839 76.5646 148.437 76.9858C148.036 77.4069 147.555 77.7441 147.022 77.9776C146.489 78.2112 145.915 78.3363 145.334 78.346ZM147.264 73.8828C147.487 73.5532 147.605 73.1644 147.603 72.7669C147.607 72.2355 147.404 71.7233 147.039 71.3377C146.863 71.1438 146.648 70.9897 146.408 70.8859C146.168 70.7821 145.909 70.731 145.647 70.7359H143.29V76.829H144.544V74.8105H145.271L146.412 76.8792H147.854L146.6 74.5599C146.873 74.3913 147.101 74.159 147.264 73.8828ZM146.098 73.3061C146.044 73.3732 145.975 73.427 145.897 73.4639C145.819 73.5008 145.734 73.5197 145.647 73.5192H144.581V72.0273H145.647C145.734 72.0238 145.82 72.0413 145.899 72.0784C145.978 72.1155 146.046 72.171 146.098 72.2403C146.166 72.3099 146.218 72.3925 146.253 72.4831C146.287 72.5736 146.303 72.6702 146.299 72.7669C146.306 72.9661 146.234 73.1601 146.098 73.3061Z" fill="#1D1D1B"/>
<path d="M80.1137 99.8099L84.0379 105.189H81.0038L78.6092 101.879L76.1895 105.189H73.1429L77.0796 99.7975L73.3184 94.6822H76.3399L78.559 97.7288L80.7782 94.6822H83.8247L80.1137 99.8099ZM89.3036 91.7861L86.7209 92.5509V94.6822H84.8653V97.1897H86.7209V101.829C86.6612 102.371 86.7377 102.92 86.9434 103.426C87.1492 103.931 87.4778 104.378 87.8994 104.725C88.615 105.133 89.4339 105.325 90.2564 105.276C90.7175 105.276 91.1781 105.247 91.6355 105.189H91.811V102.831H91.6104C91.1596 102.862 90.7072 102.862 90.2564 102.831C89.9976 102.838 89.7447 102.754 89.5418 102.593C89.3692 102.378 89.2882 102.103 89.3161 101.829V97.1897H91.8236V94.6822H89.3161L89.3036 91.7861ZM96.9388 95.8231V94.6822H94.3561V105.189H96.9388V99.8852C96.9018 99.4971 96.9601 99.1057 97.1086 98.7452C97.2572 98.3847 97.4916 98.0659 97.7914 97.8165C98.384 97.3919 99.1084 97.192 99.835 97.2524H100.048V94.4691H99.8475C99.2882 94.4344 98.7291 94.54 98.2211 94.7765C97.7131 95.0129 97.2723 95.3728 96.9388 95.8231ZM110.893 96.0487C111.872 97.1129 112.402 98.5146 112.372 99.9605C112.361 100.271 112.332 100.581 112.285 100.888V101.064H104.311C104.459 101.63 104.8 102.127 105.276 102.468C105.867 102.868 106.569 103.07 107.282 103.045C107.754 103.079 108.226 102.989 108.653 102.784C109.079 102.58 109.445 102.268 109.714 101.879L109.827 101.728L111.971 102.982L111.846 103.157C111.344 103.904 110.658 104.507 109.854 104.91C109.05 105.312 108.155 105.498 107.257 105.452C106.499 105.482 105.744 105.358 105.035 105.089C104.326 104.82 103.679 104.41 103.132 103.885C102.346 103.11 101.81 102.117 101.593 101.035C101.376 99.9532 101.488 98.8308 101.914 97.8127C102.34 96.7946 103.061 95.9272 103.984 95.3224C104.907 94.7175 105.99 94.4029 107.094 94.4189C107.807 94.4001 108.516 94.536 109.172 94.8173C109.828 95.0987 110.415 95.5188 110.893 96.0487ZM109.714 98.8822C109.592 98.2995 109.279 97.7745 108.824 97.3903C108.328 97.0002 107.713 96.7923 107.082 96.8011C106.396 96.7771 105.724 96.9995 105.188 97.4279C104.738 97.8024 104.421 98.3125 104.286 98.8822H109.714ZM126.013 94.4189C125.421 94.389 124.832 94.5034 124.294 94.7524C123.757 95.0014 123.288 95.3776 122.929 95.8482C122.611 95.3853 122.181 95.0111 121.679 94.761C121.176 94.5109 120.618 94.3932 120.058 94.4189C119.558 94.397 119.06 94.4831 118.597 94.6713C118.134 94.8596 117.717 95.1455 117.375 95.5097V94.6822H114.792V105.189H117.375V99.3336C117.324 98.6663 117.525 98.0039 117.939 97.478C118.125 97.276 118.352 97.1166 118.605 97.0106C118.858 96.9046 119.131 96.8544 119.406 96.8637C119.64 96.8463 119.876 96.8837 120.093 96.9729C120.311 97.0622 120.505 97.2008 120.66 97.3777C120.987 97.8031 121.148 98.3338 121.111 98.8696V105.138H123.694V99.2835C123.644 98.6163 123.835 97.9535 124.233 97.4154C124.416 97.2146 124.642 97.0566 124.893 96.9526C125.144 96.8486 125.415 96.8012 125.687 96.8136C125.92 96.8068 126.152 96.8489 126.368 96.9374C126.584 97.026 126.779 97.1589 126.941 97.3275C127.279 97.7482 127.444 98.2815 127.405 98.8196V105.088H130V98.6189C130.051 97.4746 129.656 96.3551 128.897 95.4971C128.51 95.1258 128.051 94.8382 127.549 94.6526C127.046 94.4671 126.51 94.3876 125.975 94.4189H126.013ZM143.076 99.9605C143.07 100.271 143.045 100.581 143.001 100.888V101.064H135.04C135.193 101.628 135.533 102.123 136.005 102.468C136.596 102.867 137.299 103.069 138.011 103.045C138.495 103.09 138.982 103.005 139.422 102.8C139.863 102.596 140.241 102.277 140.519 101.879L140.619 101.728L142.763 102.982L142.65 103.157C142.146 103.901 141.459 104.503 140.656 104.905C139.852 105.306 138.959 105.495 138.061 105.452C137.304 105.483 136.547 105.361 135.838 105.091C135.129 104.822 134.482 104.411 133.937 103.885C133.144 103.112 132.602 102.119 132.381 101.035C132.161 99.9509 132.271 98.8252 132.698 97.8044C133.126 96.7837 133.85 95.9149 134.777 95.3112C135.705 94.7075 136.792 94.3966 137.898 94.4189C138.606 94.4039 139.308 94.5417 139.957 94.823C140.606 95.1043 141.187 95.5223 141.66 96.0487C142.598 97.1294 143.083 98.5309 143.014 99.9605H143.076ZM140.431 98.8822C140.31 98.296 139.991 97.7693 139.528 97.3903C139.033 96.9984 138.417 96.7902 137.786 96.8011C137.1 96.7793 136.429 97.0015 135.892 97.4279C135.446 97.8059 135.13 98.3146 134.99 98.8822H140.431ZM72.4408 99.9605C72.436 100.272 72.4067 100.582 72.3531 100.888V101.064H64.3417C64.4944 101.628 64.835 102.123 65.3071 102.468C65.8983 102.867 66.6003 103.069 67.313 103.045C67.7866 103.078 68.2607 102.988 68.6892 102.784C69.1177 102.58 69.4859 102.268 69.7578 101.879L69.8581 101.728L72.002 102.982L71.8892 103.157C71.384 103.903 70.6952 104.506 69.8893 104.908C69.0833 105.31 68.1874 105.497 67.288 105.452C66.5322 105.482 65.778 105.359 65.0712 105.09C64.3643 104.82 63.7195 104.41 63.1757 103.885C62.6559 103.37 62.2475 102.753 61.9757 102.074C61.704 101.395 61.5748 100.667 61.596 99.9354C61.5793 99.2106 61.7083 98.4897 61.9753 97.8156C62.2424 97.1415 62.642 96.528 63.1506 96.0112C63.6693 95.4851 64.2913 95.0719 64.9775 94.7979C65.6636 94.5239 66.3991 94.3949 67.1375 94.4189C67.8448 94.4039 68.547 94.5417 69.1962 94.823C69.8453 95.1043 70.426 95.5223 70.8987 96.0487C71.8872 97.109 72.4265 98.5111 72.4032 99.9605H72.4408ZM69.7829 98.8822C69.6734 98.2947 69.3578 97.7656 68.8927 97.3903C68.3974 96.9984 67.7816 96.7902 67.1501 96.8011C66.4647 96.7793 65.7938 97.0015 65.2569 97.4279C64.8107 97.8059 64.4949 98.3146 64.3542 98.8822H69.7829Z" fill="#E8EDF0"/>
</g>
<defs>
<clipPath id="clip0_967_4072">
<rect width="151" height="105.439" fill="white"/>
</clipPath>
</defs>
</svg>
