<svg width="107" height="80" viewBox="0 0 107 80" fill="none" xmlns="http://www.w3.org/2000/svg">
<g clip-path="url(#clip0_967_1962)">
<path d="M9.07796 72.0206C7.64409 72.0205 6.23171 71.6714 4.9625 71.0033C3.69329 70.3352 2.60531 69.368 1.79223 68.1852L4.74386 65.2385C5.21618 66.2208 6.00722 67.0136 6.9877 67.4874C7.96818 67.9611 9.08012 68.0878 10.1418 67.8467C11.2035 67.6056 12.1521 67.0109 12.8326 66.16C13.5131 65.309 13.8854 64.2521 13.8884 63.1619V61.9177C13.8886 61.8756 13.8773 61.8343 13.8559 61.7981C13.8346 61.7618 13.8039 61.7321 13.767 61.7119C13.7302 61.7024 13.6917 61.7024 13.6549 61.7119C13.6149 61.7033 13.5735 61.7033 13.5335 61.7119C12.1897 62.5007 10.6616 62.9202 9.10401 62.9279C7.54637 62.9356 6.01431 62.5312 4.66279 61.7556C3.31127 60.9801 2.18822 59.8609 1.40717 58.5112C0.626132 57.1615 0.214844 55.6292 0.214844 54.0692C0.214844 52.5092 0.626132 50.977 1.40717 49.6273C2.18822 48.2776 3.31127 47.1584 4.66279 46.3828C6.01431 45.6073 7.54637 45.2029 9.10401 45.2106C10.6616 45.2183 12.1897 45.6377 13.5335 46.4266C13.5735 46.4352 13.6149 46.4352 13.6549 46.4266C13.6934 46.4262 13.7312 46.4167 13.7654 46.3988C13.7995 46.3809 13.8288 46.3552 13.851 46.3237L14.6637 45.5098H17.9236V63.4051C17.8722 65.7161 16.9161 67.9143 15.2614 69.5259C13.6068 71.1375 11.3861 72.0334 9.07796 72.0206ZM9.07796 49.2517C8.12654 49.2517 7.19647 49.5342 6.40539 50.0636C5.61432 50.5929 4.99775 51.3453 4.63366 52.2256C4.26957 53.1059 4.17434 54.0746 4.35995 55.0091C4.54556 55.9436 5.00369 56.802 5.67645 57.4758C6.3492 58.1495 7.20636 58.6084 8.1395 58.7943C9.07264 58.9802 10.0398 58.8847 10.9188 58.5201C11.7978 58.1555 12.5491 57.538 13.0777 56.7457C13.6063 55.9535 13.8884 55.022 13.8884 54.0692C13.886 52.7923 13.3783 51.5683 12.4767 50.6654C11.5751 49.7625 10.353 49.2541 9.07796 49.2517ZM79.5068 62.928C77.5128 62.933 75.576 62.2603 74.0133 61.0198C72.4506 59.7793 71.3544 58.0446 70.904 56.0992C70.8386 55.7998 70.792 55.5472 70.7546 55.2947V55.0982C70.717 54.7691 70.6983 54.438 70.6986 54.1067C70.7008 52.8653 70.9634 51.6382 71.4696 50.5051C71.9757 49.3719 72.714 48.3579 73.6366 47.5289C74.5591 46.6998 75.6454 46.0742 76.8249 45.6926C78.0044 45.311 79.2508 45.1819 80.4834 45.3137C81.7159 45.4455 82.907 45.8353 83.9795 46.4577C85.0519 47.0801 85.9818 47.9213 86.7087 48.9268C87.4357 49.9322 87.9436 51.0795 88.1994 52.2941C88.4552 53.5088 88.4532 54.7637 88.1937 55.9776H75.4342C75.3949 55.979 75.3566 55.9899 75.3224 56.0094C75.2882 56.029 75.2593 56.0566 75.2381 56.0898C75.2175 56.1236 75.2065 56.1625 75.2065 56.2021C75.2065 56.2417 75.2175 56.2805 75.2381 56.3143C75.5744 56.9673 76.0557 57.5344 76.6449 57.972C77.2342 58.4097 77.9157 58.7063 78.6373 58.8391C79.3588 58.9719 80.1012 58.9373 80.8073 58.738C81.5134 58.5387 82.1645 58.18 82.7107 57.6894L85.5689 60.5519C83.9258 62.0909 81.7565 62.9412 79.5068 62.928ZM79.5068 49.2517C78.6218 49.25 77.7535 49.4938 76.9984 49.9562C76.2433 50.4185 75.6308 51.0812 75.2288 51.8709C75.2083 51.9065 75.1975 51.9468 75.1975 51.9878C75.1975 52.0289 75.2083 52.0692 75.2288 52.1048C75.2499 52.138 75.2789 52.1656 75.313 52.1851C75.3472 52.2047 75.3856 52.2156 75.4249 52.217H83.57C83.6093 52.2156 83.6478 52.2047 83.6819 52.1851C83.7161 52.1656 83.745 52.138 83.7662 52.1048C83.7867 52.0692 83.7974 52.0289 83.7974 51.9878C83.7974 51.9468 83.7867 51.9065 83.7662 51.8709C83.3656 51.0841 82.756 50.4232 82.0045 49.9611C81.253 49.4989 80.3887 49.2534 79.5068 49.2517ZM59.443 62.928C58.083 62.9307 56.7407 62.6192 55.5204 62.0179C54.3001 61.4166 53.2347 60.5417 52.407 59.461C51.5792 58.3803 51.0114 57.123 50.7478 55.7869C50.4841 54.4507 50.5316 53.0716 50.8866 51.7568C51.2416 50.442 51.8945 49.2269 52.7946 48.2059C53.6948 47.1849 54.8179 46.3855 56.0766 45.8699C57.3354 45.3542 58.696 45.1362 60.0525 45.2328C61.4091 45.3293 62.7252 45.7378 63.8985 46.4266H64.0106C64.0505 46.4361 64.0921 46.4361 64.132 46.4266C64.1689 46.4064 64.1996 46.3766 64.221 46.3404C64.2423 46.3041 64.2536 46.2629 64.2535 46.2208V38.9429H68.2886V62.5631H65.0194L64.1974 61.7306L64.132 61.6745C64.0921 61.6649 64.0505 61.6649 64.0106 61.6745H63.8985C62.5511 62.4817 61.013 62.9144 59.443 62.928ZM59.443 49.2517C58.4916 49.2517 57.5615 49.5342 56.7705 50.0636C55.9794 50.5929 55.3628 51.3453 54.9987 52.2256C54.6346 53.1059 54.5394 54.0746 54.725 55.0091C54.9106 55.9436 55.3687 56.802 56.0415 57.4758C56.7142 58.1495 57.5714 58.6084 58.5045 58.7943C59.4377 58.9802 60.4049 58.8847 61.2839 58.5201C62.1629 58.1555 62.9142 57.538 63.4428 56.7457C63.9713 55.9535 64.2535 55.022 64.2535 54.0692C64.251 52.7923 63.7433 51.5683 62.8417 50.6654C61.9401 49.7625 60.718 49.2541 59.443 49.2517ZM28.9643 62.928C27.6043 62.9307 26.262 62.6192 25.0417 62.0179C23.8214 61.4166 22.756 60.5417 21.9283 59.461C21.1005 58.3803 20.5327 57.123 20.2691 55.7869C20.0054 54.4507 20.0529 53.0716 20.4079 51.7568C20.7629 50.442 21.4158 49.2269 22.3159 48.2059C23.2161 47.1849 24.3392 46.3855 25.5979 45.8699C26.8567 45.3542 28.2173 45.1362 29.5738 45.2328C30.9304 45.3293 32.2465 45.7378 33.4198 46.4266C33.4597 46.4361 33.5013 46.4361 33.5412 46.4266H33.6533L33.7281 46.3517L34.5407 45.5379H37.8099V62.5631H34.5407L33.7187 61.7306L33.6533 61.6745C33.6134 61.6649 33.5718 61.6649 33.5319 61.6745H33.4198C32.0724 62.4817 30.5343 62.9144 28.9643 62.928ZM28.9643 49.2517C28.0129 49.2517 27.0828 49.5342 26.2918 50.0636C25.5007 50.5929 24.8841 51.3453 24.52 52.2256C24.1559 53.1059 24.0607 54.0746 24.2463 55.0091C24.4319 55.9436 24.89 56.802 25.5628 57.4758C26.2355 58.1495 27.0927 58.6084 28.0258 58.7943C28.959 58.9802 29.9262 58.8847 30.8052 58.5201C31.6842 58.1555 32.4355 57.538 32.9641 56.7457C33.4926 55.9535 33.7748 55.022 33.7748 54.0692C33.7723 52.7923 33.2647 51.5683 32.3631 50.6654C31.4615 49.7625 30.2393 49.2541 28.9643 49.2517ZM99.58 62.5631L96.0585 57.521C96.0363 57.4925 96.008 57.4693 95.9757 57.4532C95.9434 57.437 95.9078 57.4282 95.8717 57.4275C95.8341 57.4275 95.797 57.4359 95.7631 57.4521C95.7291 57.4683 95.6992 57.4918 95.6756 57.521L92.1541 62.5631H87.4838L93.4618 54.0131C93.4887 53.973 93.5031 53.9258 93.5031 53.8775C93.5031 53.8292 93.4887 53.7819 93.4618 53.7418L87.6986 45.5005H92.4157L95.7223 50.2339C95.7424 50.2652 95.77 50.291 95.8026 50.309C95.8353 50.3269 95.8719 50.3365 95.9091 50.3368C95.9477 50.3372 95.9858 50.3281 96.0201 50.3101C96.0543 50.2921 96.0836 50.2659 96.1052 50.2339L99.3932 45.5379H104.063L98.3003 53.7792C98.2734 53.8193 98.259 53.8666 98.259 53.9149C98.259 53.9632 98.2734 54.0104 98.3003 54.0505L104.278 62.6005L99.58 62.5631ZM41.2847 62.5631V45.5379H44.5446L45.3665 46.3611C45.3869 46.3877 45.4123 46.4099 45.4413 46.4266H45.5534C45.5933 46.4361 45.6349 46.4361 45.6748 46.4266C46.9563 45.6691 48.4093 45.2506 49.8968 45.2105V49.261C48.6635 49.321 47.5005 49.8537 46.6485 50.7488C45.7965 51.6438 45.3208 52.8326 45.3198 54.0692V62.5631H41.2847Z" fill="#1D1D1B"/>
<path d="M68.0558 39.1768V62.3667H65.1228L64.3849 61.6277C64.3448 61.5801 64.2975 61.5391 64.2447 61.5061C64.1759 61.4689 64.0988 61.4496 64.0206 61.45C63.9364 61.4495 63.8532 61.4687 63.7777 61.5061C62.4693 62.2738 60.9817 62.682 59.4653 62.6893C57.9489 62.6966 56.4575 62.3028 55.1418 61.5477C53.8261 60.7926 52.7328 59.7029 51.9725 58.389C51.2121 57.075 50.8117 55.5832 50.8117 54.0645C50.8117 52.5459 51.2121 51.0541 51.9725 49.7401C52.7328 48.4261 53.8261 47.3365 55.1418 46.5814C56.4575 45.8262 57.9489 45.4325 59.4653 45.4398C60.9817 45.4471 62.4693 45.8553 63.7777 46.623C63.8479 46.6664 63.9288 46.6891 64.0112 46.6885C64.0939 46.6913 64.1755 46.6684 64.2447 46.623C64.3177 46.5842 64.3788 46.5263 64.4216 46.4555C64.4643 46.3846 64.4872 46.3036 64.4876 46.2208V39.1768H68.0558ZM59.4436 59.1207C60.4412 59.1207 61.4164 58.8244 62.2459 58.2693C63.0754 57.7143 63.7219 56.9254 64.1036 56.0024C64.4854 55.0793 64.5853 54.0636 64.3907 53.0837C64.1961 52.1039 63.7157 51.2038 63.0103 50.4973C62.3049 49.7909 61.4061 49.3098 60.4277 49.1149C59.4492 48.9199 58.435 49.0199 57.5134 49.4023C56.5917 49.7846 55.8039 50.4321 55.2497 51.2628C54.6955 52.0935 54.3997 53.0701 54.3997 54.0692C54.4021 55.4082 54.9343 56.6916 55.8797 57.6384C56.8251 58.5852 58.1066 59.1182 59.4436 59.1207ZM79.5075 45.4444C80.7725 45.4471 82.0213 45.7299 83.1645 46.2724C84.3078 46.8149 85.3171 47.6037 86.1204 48.5824C86.9237 49.5612 87.501 50.7057 87.8111 51.934C88.1212 53.1623 88.1564 54.4441 87.9141 55.6876H75.4349C75.3557 55.6878 75.2779 55.7086 75.2092 55.7479C75.1404 55.7873 75.083 55.8439 75.0426 55.9121C75.0015 55.9814 74.9798 56.0606 74.9798 56.1413C74.9798 56.2219 75.0015 56.3011 75.0426 56.3705C75.4635 57.1988 76.1052 57.8942 76.8966 58.3796C77.688 58.8651 78.5981 59.1216 79.5261 59.1207C80.7017 59.1246 81.8404 58.7102 82.7393 57.9514L85.2706 60.4865C84.1574 61.4907 82.8017 62.1863 81.3375 62.5045C79.8734 62.8227 78.3516 62.7525 76.9229 62.3008C75.4942 61.8491 74.2081 61.0315 73.1918 59.929C72.1756 58.8265 71.4644 57.4773 71.1288 56.015C71.069 55.7619 71.0222 55.5058 70.9887 55.2479V55.1544V55.0795C70.9535 54.7689 70.9348 54.4567 70.9327 54.1441C70.9352 51.8574 71.8433 49.665 73.4578 48.0481C75.0724 46.4311 77.2615 45.5217 79.5448 45.5192M75.4723 52.5257H83.6173C83.6965 52.5255 83.7743 52.5047 83.8431 52.4653C83.9119 52.426 83.9693 52.3695 84.0097 52.3012C84.049 52.2313 84.0695 52.1523 84.0695 52.072C84.0695 51.9917 84.049 51.9128 84.0097 51.8428C83.5877 51.0155 82.9457 50.3211 82.1545 49.8361C81.3633 49.3511 80.4537 49.0944 79.5261 49.0944C78.5985 49.0944 77.6889 49.3511 76.8977 49.8361C76.1065 50.3211 75.4646 51.0155 75.0426 51.8428C75.0015 51.9122 74.9798 51.9914 74.9798 52.072C74.9798 52.1527 75.0015 52.2319 75.0426 52.3012C75.083 52.3695 75.1404 52.426 75.2092 52.4653C75.2779 52.5047 75.3557 52.5255 75.4349 52.5257M28.9649 45.4444C30.488 45.4482 31.9831 45.8548 33.299 46.623C33.3692 46.6664 33.4501 46.6891 33.5325 46.6885C33.6152 46.6913 33.6968 46.6684 33.766 46.623C33.8155 46.597 33.8599 46.5621 33.8968 46.5201L34.6441 45.7717H37.5771V62.3667H34.6441L33.9062 61.6277C33.8661 61.5801 33.8188 61.5391 33.766 61.5061C33.6972 61.4689 33.6201 61.4496 33.5419 61.45C33.4577 61.4495 33.3745 61.4687 33.299 61.5061C32.1577 62.1713 30.8788 62.5645 29.5614 62.6551C28.2439 62.7458 26.9233 62.5315 25.7019 62.0288C24.4804 61.5261 23.391 60.7486 22.5178 59.7565C21.6447 58.7644 21.0113 57.5842 20.6668 56.3075C20.3223 55.0308 20.2759 53.6918 20.5312 52.3943C20.7865 51.0967 21.3367 49.8754 22.139 48.825C22.9414 47.7747 23.9744 46.9234 25.1581 46.3371C26.3418 45.7508 27.6444 45.4454 28.9649 45.4444ZM28.9649 59.1207C29.9625 59.1207 30.9378 58.8244 31.7672 58.2693C32.5967 57.7143 33.2432 56.9254 33.6249 56.0024C34.0067 55.0793 34.1066 54.0636 33.912 53.0837C33.7174 52.1039 33.237 51.2038 32.5316 50.4973C31.8262 49.7909 30.9274 49.3098 29.949 49.1149C28.9705 48.9199 27.9563 49.0199 27.0347 49.4023C26.113 49.7846 25.3252 50.4321 24.771 51.2628C24.2168 52.0935 23.921 53.0701 23.921 54.0692C23.9234 55.4082 24.4556 56.6916 25.401 57.6384C26.3464 58.5852 27.6279 59.1182 28.9649 59.1207ZM9.07859 45.4444C10.6207 45.4531 12.1328 45.8728 13.4594 46.6604C13.5286 46.7058 13.6102 46.7287 13.6929 46.7259C13.7753 46.7265 13.8563 46.7038 13.9264 46.6604C13.9731 46.6342 14.0143 46.5993 14.0478 46.5575L14.7951 45.8092H17.7281V63.4612C17.6691 65.2652 17.0465 67.0051 15.948 68.436C14.8494 69.8669 13.3304 70.9166 11.6047 71.4372C9.8791 71.9579 8.03382 71.9232 6.32888 71.3381C4.62395 70.753 3.14527 69.647 2.10111 68.1759L4.6791 65.594C5.22478 66.5686 6.07775 67.3344 7.10441 67.7717C8.13107 68.2091 9.27348 68.2932 10.353 68.0109C11.4324 67.7286 12.388 67.0958 13.0701 66.2116C13.7522 65.3274 14.1223 64.2417 14.1226 63.1244V61.8803C14.1219 61.7974 14.1001 61.7161 14.0592 61.6441C14.0183 61.5721 13.9598 61.5117 13.8891 61.4687C13.8168 61.4317 13.7367 61.4124 13.6556 61.4124C13.5744 61.4124 13.4943 61.4317 13.422 61.4687C12.28 62.1405 10.9986 62.5394 9.67749 62.6345C8.3564 62.7296 7.03124 62.5182 5.80501 62.0168C4.57878 61.5154 3.48453 60.7376 2.60737 59.7437C1.73022 58.7498 1.09378 57.5667 0.747557 56.2863C0.401329 55.006 0.354651 53.663 0.611129 52.3617C0.867607 51.0603 1.42036 49.8358 2.22637 48.7832C3.03238 47.7306 4.06995 46.8784 5.25839 46.2929C6.44683 45.7073 7.7541 45.4041 9.07859 45.4069M9.07859 59.0833C10.0762 59.0833 11.0514 58.787 11.8809 58.2319C12.7103 57.6769 13.3568 56.8879 13.7386 55.9649C14.1204 55.0419 14.2203 54.0262 14.0257 53.0463C13.831 52.0665 13.3506 51.1664 12.6452 50.4599C11.9398 49.7535 11.041 49.2723 10.0626 49.0774C9.08416 48.8825 8.07003 48.9825 7.14836 49.3649C6.2267 49.7472 5.43892 50.3947 4.88468 51.2254C4.33044 52.0561 4.03459 53.0327 4.03459 54.0318C4.03459 55.3715 4.56604 56.6564 5.51197 57.6037C6.4579 58.551 7.74084 59.0833 9.07859 59.0833ZM49.6639 45.4163V48.9991C48.4127 49.1177 47.2505 49.6991 46.4043 50.6296C45.558 51.5602 45.0883 52.7732 45.087 54.0318V62.3293H41.4815V45.7717H44.4145L45.143 46.5108C45.1831 46.5584 45.2304 46.5994 45.2831 46.6323C45.3553 46.6696 45.4354 46.6889 45.5166 46.6885C45.5992 46.6901 45.6804 46.6674 45.7502 46.623C46.9316 45.9313 48.2602 45.5305 49.6265 45.4537M103.597 45.7717L98.0861 53.6482C98.0318 53.7265 98.0028 53.8196 98.0028 53.9149C98.0028 54.0102 98.0318 54.1032 98.0861 54.1815L103.812 62.3667H99.6646L96.2086 57.4275C96.1653 57.3676 96.1084 57.3189 96.0427 57.2852C95.9769 57.2516 95.9041 57.2341 95.8303 57.2341C95.7565 57.2341 95.6837 57.2516 95.6179 57.2852C95.5522 57.3189 95.4953 57.3676 95.452 57.4275L91.996 62.3667H87.8487L93.5745 54.1815C93.6288 54.1032 93.6578 54.0102 93.6578 53.9149C93.6578 53.8196 93.6288 53.7265 93.5745 53.6482L88.0635 45.7717H92.2108L95.452 50.449C95.4925 50.5128 95.5484 50.5653 95.6145 50.6016C95.6806 50.638 95.7549 50.657 95.8303 50.657C95.9057 50.657 95.98 50.638 96.0461 50.6016C96.1122 50.5653 96.1681 50.5128 96.2086 50.449L99.4498 45.7717H103.597ZM68.4854 38.7372H63.9832V46.2208C62.6038 45.4127 61.0358 44.9835 59.4377 44.9767C57.8396 44.9699 56.2681 45.3856 54.8818 46.1819C53.4955 46.9782 52.3437 48.1268 51.5427 49.5117C50.7416 50.8966 50.3198 52.4687 50.3198 54.0692C50.3198 55.6697 50.7416 57.2418 51.5427 58.6267C52.3437 60.0116 53.4955 61.1603 54.8818 61.9566C56.2681 62.7529 57.8396 63.1686 59.4377 63.1617C61.0358 63.1549 62.6038 62.7258 63.9832 61.9177L64.9173 62.8531H68.5695V38.7091L68.4854 38.7372ZM59.4063 58.681C58.501 58.681 57.6161 58.4122 56.8634 57.9085C56.1108 57.4049 55.5241 56.689 55.1777 55.8514C54.8313 55.0138 54.7407 54.0922 54.9173 53.2031C55.0939 52.3139 55.5298 51.4971 56.1699 50.8561C56.81 50.2151 57.6255 49.7785 58.5134 49.6017C59.4012 49.4248 60.3214 49.5155 61.1578 49.8625C61.9941 50.2094 62.7089 50.7969 63.2119 51.5507C63.7148 52.3045 63.9832 53.1907 63.9832 54.0973C63.9832 55.313 63.501 56.4788 62.6427 57.3384C61.7843 58.1981 60.6201 58.681 59.4063 58.681ZM79.4701 45.0047C77.0621 45.0047 74.7528 45.9626 73.0501 47.6678C71.3475 49.373 70.3909 51.6858 70.3909 54.0973C70.3907 54.438 70.4094 54.7783 70.447 55.1169C70.447 55.1824 70.447 55.2479 70.447 55.3134C70.4747 55.5845 70.5215 55.8533 70.587 56.1179C70.5825 56.1395 70.5825 56.1618 70.587 56.1833C70.9571 57.7587 71.7408 59.2064 72.8569 60.3767C73.9731 61.547 75.3811 62.3974 76.9354 62.84C78.4897 63.2826 80.134 63.3012 81.6979 62.894C83.2619 62.4868 84.6888 61.6686 85.8311 60.5239L82.6459 57.3339C82.1367 57.8457 81.5138 58.2294 80.8281 58.4536C80.1423 58.6778 79.4133 58.7361 78.7007 58.6239C77.9882 58.5117 77.3123 58.232 76.7284 57.8078C76.1445 57.3836 75.6692 56.8269 75.3415 56.1833H88.2503C88.5645 54.8486 88.5731 53.4599 88.2755 52.1213C87.978 50.7827 87.3819 49.5289 86.532 48.4536C85.682 47.3784 84.6002 46.5096 83.3676 45.9124C82.1349 45.3151 80.7833 45.0048 79.414 45.0047H79.4701ZM75.3975 52.0112C75.7794 51.2581 76.3621 50.6256 77.0809 50.1838C77.7997 49.742 78.6266 49.5081 79.4701 49.5081C80.3135 49.5081 81.1404 49.742 81.8593 50.1838C82.5781 50.6256 83.1608 51.2581 83.5426 52.0112H75.3975ZM50.0936 45.0047C48.4846 45.0046 46.9048 45.4341 45.5166 46.2488L44.5826 45.3134H40.9957V54.0786V62.8438H45.4979V54.0786C45.4979 52.8629 45.9802 51.697 46.8385 50.8374C47.6968 49.9778 48.861 49.4949 50.0749 49.4949V44.9766L50.0936 45.0047ZM28.9276 45.0047C27.5324 45.0035 26.1559 45.3244 24.9046 45.9424C23.6534 46.5604 22.5612 47.4588 21.7128 48.568C20.8644 49.6772 20.2827 50.9672 20.0127 52.338C19.7428 53.7087 19.7919 55.1234 20.1563 56.4721C20.5207 57.8208 21.1905 59.0672 22.1138 60.1147C23.037 61.1621 24.1889 61.9824 25.48 62.5118C26.7711 63.0413 28.1666 63.2656 29.5583 63.1674C30.9499 63.0693 32.3003 62.6512 33.5045 61.9458L34.4386 62.8812H38.0347V54.116V45.3508H34.4386L33.5045 46.2862C32.1164 45.4715 30.5365 45.0421 28.9276 45.0421V45.0047ZM28.9276 58.681C28.0223 58.681 27.1374 58.4122 26.3848 57.9085C25.6321 57.4049 25.0455 56.689 24.6991 55.8514C24.3526 55.0138 24.262 54.0922 24.4386 53.2031C24.6152 52.3139 25.0511 51.4971 25.6912 50.8561C26.3313 50.2151 27.1468 49.7785 28.0347 49.6017C28.9225 49.4248 29.8427 49.5155 30.6791 49.8625C31.5154 50.2094 32.2302 50.7969 32.7332 51.5507C33.2361 52.3045 33.5045 53.1907 33.5045 54.0973C33.5045 55.313 33.0223 56.4788 32.164 57.3384C31.3056 58.1981 30.1414 58.681 28.9276 58.681ZM9.07859 44.9766C7.68347 44.9755 6.30689 45.2964 5.05566 45.9144C3.80442 46.5323 2.71222 47.4307 1.86383 48.5399C1.01545 49.6491 0.433704 50.9391 0.163763 52.3099C-0.106177 53.6807 -0.0570559 55.0953 0.307317 56.444C0.67169 57.7927 1.34152 59.0392 2.26479 60.0866C3.18806 61.1341 4.33993 61.9544 5.63101 62.4838C6.92209 63.0132 8.31763 63.2375 9.7093 63.1394C11.101 63.0412 12.4513 62.6231 13.6556 61.9177V63.1619C13.6526 64.2283 13.2785 65.2604 12.5975 66.0804C11.9166 66.9003 10.9715 67.4568 9.92497 67.654C8.87844 67.8512 7.79599 67.6768 6.86405 67.1608C5.9321 66.6448 5.20898 65.8194 4.81923 64.8269L1.49395 68.1759C2.55947 69.7813 4.1069 71.0061 5.91282 71.6733C7.71874 72.3405 9.68967 72.4156 11.541 71.8878C13.3923 71.36 15.0283 70.2566 16.2126 68.7369C17.3968 67.2172 18.0682 65.3599 18.1297 63.4331V45.304H14.5429L13.6088 46.2395C12.2207 45.4247 10.6408 44.9952 9.03189 44.9953L9.07859 44.9766ZM9.07859 58.653C8.17335 58.653 7.28845 58.3841 6.53578 57.8805C5.7831 57.3768 5.19649 56.6609 4.85007 55.8234C4.50366 54.9858 4.41299 54.0641 4.58959 53.175C4.76619 52.2858 5.20208 51.4691 5.84218 50.8281C6.48228 50.187 7.29784 49.7504 8.18568 49.5736C9.07352 49.3967 9.99375 49.4875 10.8301 49.8344C11.6664 50.1814 12.3813 50.7688 12.8842 51.5226C13.3871 52.2764 13.6556 53.1626 13.6556 54.0692C13.6556 55.2849 13.1733 56.4508 12.315 57.3104C11.4566 58.17 10.2925 58.653 9.07859 58.653ZM104.531 45.304H99.2443L95.863 50.1403L92.491 45.304H87.2509L93.2756 53.9196L87.036 62.8344H92.3229L95.9191 57.6988L99.5059 62.8344H104.793L98.5531 53.9196L104.578 45.304H104.531Z" fill="#1D1D1B"/>
<path d="M59.6871 76.8007V71.188C59.6871 71.126 59.6625 71.0665 59.6187 71.0226C59.5749 70.9788 59.5155 70.9541 59.4536 70.9541H58.5195V69.579H59.4536C59.5155 69.579 59.5749 69.5544 59.6187 69.5105C59.6625 69.4667 59.6871 69.4072 59.6871 69.3452C59.6593 68.9341 59.7181 68.5219 59.8597 68.1351C60.0013 67.7483 60.2225 67.3956 60.5091 67.1001C61.0911 66.6148 61.8362 66.3706 62.5921 66.4172H62.8536V67.783H62.6481C62.249 67.7574 61.8551 67.8844 61.5459 68.1385C61.3922 68.2971 61.2743 68.4868 61.2002 68.695C61.1261 68.9032 61.0974 69.1249 61.1163 69.3452C61.1163 69.4072 61.1408 69.4667 61.1846 69.5105C61.2284 69.5544 61.2879 69.579 61.3498 69.579H62.8536V70.9822H61.3498C61.2879 70.9822 61.2284 71.0069 61.1846 71.0507C61.1408 71.0946 61.1163 71.1541 61.1163 71.2161V76.8288L59.6871 76.8007Z" fill="#1D1D1B"/>
<path d="M62.5916 66.6417V67.5772C62.1439 67.557 61.7047 67.7036 61.3587 67.9888C61.1816 68.1707 61.0451 68.3882 60.9581 68.6268C60.8712 68.8655 60.8358 69.1199 60.8543 69.3733C60.8543 69.4973 60.9035 69.6163 60.9911 69.704C61.0787 69.7917 61.1974 69.841 61.3213 69.841H62.5916V70.7765H61.3213C61.1974 70.7765 61.0787 70.8257 60.9911 70.9134C60.9035 71.0011 60.8543 71.1201 60.8543 71.2442V76.5949H59.9202V71.2067C59.9202 71.0827 59.871 70.9637 59.7834 70.876C59.6958 70.7883 59.577 70.739 59.4532 70.739H58.7993V69.8035H59.4532C59.577 69.8035 59.6958 69.7543 59.7834 69.6666C59.871 69.5789 59.9202 69.4599 59.9202 69.3358C59.8715 68.9722 59.9069 68.6022 60.0236 68.2544C60.1403 67.9066 60.3353 67.5903 60.5934 67.3299C60.8516 67.0696 61.1661 66.8721 61.5125 66.7528C61.859 66.6335 62.2282 66.5954 62.5916 66.6417ZM62.5916 66.174C62.1646 66.1183 61.7306 66.1619 61.3232 66.3014C60.9158 66.4409 60.5459 66.6725 60.2424 66.9783C59.9388 67.2842 59.7097 67.6559 59.5728 68.0648C59.436 68.4736 59.395 68.9086 59.4532 69.3358H58.2949V71.2067H59.4158V77.0627H61.284V71.2067H63.0213V69.3358H61.284C61.2676 69.1475 61.2907 68.9579 61.3519 68.7791C61.413 68.6003 61.5108 68.4362 61.6389 68.2975C61.9042 68.0893 62.2366 67.9861 62.573 68.0075H62.8532H63.012V66.1366H62.9653H62.601L62.5916 66.174Z" fill="#1D1D1B"/>
<path d="M68.0187 76.9879C67.5431 76.9914 67.0721 76.895 66.6361 76.7048C66.2001 76.5147 65.8088 76.2351 65.4874 75.884C64.8086 75.1478 64.4316 74.1826 64.4316 73.1805C64.4316 72.1785 64.8086 71.2133 65.4874 70.4771C65.8092 70.1273 66.2009 69.8491 66.6369 69.6606C67.073 69.472 67.5437 69.3773 68.0187 69.3826C68.4416 69.3682 68.8628 69.4442 69.2542 69.6055C69.6456 69.7668 69.9982 70.0096 70.2885 70.3181C70.3092 70.3422 70.3351 70.3615 70.3642 70.3744C70.3932 70.3874 70.4248 70.3937 70.4566 70.3929H70.5407C70.5857 70.3755 70.6242 70.3446 70.651 70.3044C70.6777 70.2642 70.6914 70.2167 70.6901 70.1684V69.6165H72.1192V76.8476H70.6901V76.2769C70.6895 76.2302 70.6749 76.1848 70.6483 76.1464C70.6217 76.1081 70.5842 76.0786 70.5407 76.0618H70.4566C70.425 76.0622 70.3938 76.0691 70.3649 76.0819C70.336 76.0948 70.31 76.1134 70.2885 76.1366C69.9919 76.4313 69.6361 76.6596 69.2449 76.8063C68.8536 76.9531 68.4356 77.0149 68.0187 76.9879ZM68.2709 70.7297C67.9501 70.7209 67.631 70.7787 67.3336 70.8995C67.0362 71.0202 66.767 71.2013 66.5429 71.4313C66.3139 71.6597 66.1344 71.9329 66.0155 72.2338C65.8965 72.5348 65.8408 72.8571 65.8517 73.1805C65.8423 73.5052 65.8987 73.8285 66.0175 74.1308C66.1363 74.4331 66.315 74.708 66.5429 74.9392C67.0063 75.3884 67.6259 75.6396 68.2709 75.6396C68.9158 75.6396 69.5355 75.3884 69.9989 74.9392C70.2259 74.7074 70.4041 74.4323 70.5228 74.1302C70.6416 73.8281 70.6985 73.5051 70.6901 73.1805C70.699 72.8587 70.6427 72.5383 70.5246 72.2388C70.4065 71.9393 70.2291 71.6668 70.003 71.4378C69.777 71.2088 69.507 71.028 69.2093 70.9063C68.9116 70.7846 68.5924 70.7245 68.2709 70.7297Z" fill="#1D1D1B"/>
<path d="M68.0214 69.6164C68.4102 69.6014 68.798 69.6678 69.1598 69.8111C69.5216 69.9544 69.8497 70.1717 70.1231 70.449C70.1665 70.4942 70.2189 70.53 70.2767 70.5541C70.3345 70.5782 70.3967 70.5902 70.4594 70.5893C70.5182 70.5983 70.578 70.5983 70.6368 70.5893C70.7236 70.5536 70.7976 70.4926 70.8493 70.4142C70.9009 70.3357 70.9278 70.2436 70.9264 70.1496V69.8316H71.8605V76.5949H70.9264V76.2582C70.9279 76.1641 70.8998 76.072 70.8461 75.9948C70.7925 75.9176 70.716 75.8592 70.6275 75.8278C70.5719 75.8182 70.515 75.8182 70.4594 75.8278C70.3961 75.8287 70.3336 75.8424 70.2758 75.8681C70.218 75.8938 70.1661 75.9311 70.1231 75.9775C69.853 76.2599 69.5257 76.4811 69.1632 76.6263C68.8007 76.7715 68.4114 76.8373 68.0214 76.8194C67.5775 76.8234 67.1377 76.7338 66.7306 76.5566C66.3234 76.3793 65.9581 76.1183 65.6582 75.7904C65.0049 75.107 64.6488 74.192 64.6681 73.246C64.6565 72.7773 64.738 72.311 64.908 71.8742C65.078 71.4374 65.333 71.0388 65.6582 70.7016C65.96 70.3768 66.3259 70.1184 66.7328 69.9429C67.1396 69.7674 67.5784 69.6785 68.0214 69.6819M68.2736 75.9401C68.6213 75.9446 68.9663 75.878 69.2875 75.7445C69.6087 75.611 69.8994 75.4134 70.1418 75.1636C70.3856 74.9177 70.5781 74.6256 70.708 74.3044C70.8379 73.9832 70.9026 73.6393 70.8983 73.2927C70.9073 72.9386 70.8449 72.5863 70.7149 72.2569C70.5849 71.9274 70.39 71.6275 70.1418 71.3751C69.6331 70.8824 68.9532 70.607 68.2456 70.607C67.538 70.607 66.8581 70.8824 66.3494 71.3751C66.1029 71.6287 65.9091 71.9288 65.7793 72.258C65.6494 72.5872 65.586 72.9389 65.5928 73.2927C65.5884 73.992 65.8604 74.6646 66.3494 75.1636C66.5918 75.4134 66.8825 75.611 67.2037 75.7445C67.5249 75.878 67.8698 75.9446 68.2176 75.9401M67.9654 69.2142C67.4587 69.2087 66.9566 69.31 66.4915 69.5115C66.0265 69.7129 65.6089 70.01 65.2659 70.3835C64.5451 71.1619 64.1445 72.1843 64.1445 73.246C64.1445 74.3076 64.5451 75.3301 65.2659 76.1085C65.607 76.4851 66.0239 76.7849 66.4893 76.9881C66.9546 77.1913 67.4577 77.2932 67.9654 77.2871C68.4192 77.3084 68.8722 77.2308 69.2931 77.0596C69.714 76.8884 70.0928 76.6277 70.4033 76.2956V77.1H72.2715V69.4013H70.4033V70.1871C70.0856 69.868 69.7043 69.6198 69.2841 69.4585C68.864 69.2973 68.4146 69.2268 67.9654 69.2516V69.2142ZM68.2176 75.4724C67.9275 75.4821 67.6387 75.4305 67.3699 75.3209C67.1011 75.2113 66.8584 75.0461 66.6577 74.8363C66.4509 74.6277 66.2887 74.3792 66.1811 74.1057C66.0735 73.8323 66.0227 73.5397 66.0319 73.246C66.0224 72.9536 66.073 72.6623 66.1806 72.3903C66.2883 72.1184 66.4507 71.8715 66.6577 71.6651C66.8584 71.4552 67.1011 71.29 67.3699 71.1804C67.6387 71.0708 67.9275 71.0192 68.2176 71.029C68.5087 71.0219 68.7981 71.0747 69.068 71.1841C69.3379 71.2936 69.5826 71.4572 69.7868 71.6651C70.1826 72.098 70.4021 72.6637 70.4021 73.2507C70.4021 73.8376 70.1826 74.4033 69.7868 74.8363C69.5843 75.0464 69.34 75.2116 69.0697 75.3212C68.7993 75.4308 68.509 75.4823 68.2176 75.4724Z" fill="#1D1D1B"/>
<path d="M84.2899 76.8007V72.4041C84.3183 71.9506 84.1749 71.5029 83.8882 71.1506C83.7465 70.9996 83.5736 70.8813 83.3817 70.8037C83.1898 70.7262 82.9834 70.6914 82.7767 70.7016C82.5446 70.6905 82.3128 70.7308 82.0981 70.8198C81.8833 70.9087 81.6908 71.044 81.5343 71.2161C81.2025 71.6521 81.0398 72.1939 81.0767 72.7409V76.8007H79.6569V72.4041C79.6843 71.9537 79.5483 71.5085 79.2739 71.1506C79.1366 70.999 78.9672 70.88 78.7781 70.8024C78.5891 70.7247 78.3851 70.6903 78.181 70.7016C77.9486 70.6948 77.7174 70.7381 77.5031 70.8285C77.2888 70.9188 77.0963 71.0542 76.9387 71.2254C76.5911 71.6508 76.4174 72.1924 76.453 72.7409V76.8007H75.0332V69.5697H76.453V69.9439C76.4548 69.9903 76.4699 70.0352 76.4963 70.0733C76.5228 70.1114 76.5596 70.1412 76.6024 70.159H76.6865C76.7532 70.1586 76.8171 70.1316 76.864 70.0842C77.0943 69.8429 77.3735 69.6538 77.6828 69.5295C77.9921 69.4053 78.3245 69.3488 78.6574 69.3639C79.0221 69.3504 79.3844 69.429 79.7108 69.5925C80.0373 69.756 80.3174 69.9991 80.5255 70.2994C80.5457 70.3307 80.5734 70.3565 80.606 70.3744C80.6386 70.3924 80.6751 70.402 80.7124 70.4022C80.7485 70.4015 80.784 70.3928 80.8163 70.3766C80.8487 70.3604 80.877 70.3372 80.8992 70.3087C81.1409 69.9959 81.4553 69.7471 81.8152 69.584C82.175 69.4209 82.5693 69.3486 82.9634 69.3733C83.3273 69.3581 83.6902 69.4202 84.0283 69.5557C84.3664 69.6911 84.672 69.8967 84.925 70.159C85.4446 70.7438 85.7131 71.5102 85.6723 72.2919V76.7914L84.2899 76.8007Z" fill="#1D1D1B"/>
<path d="M83.0121 69.6164C83.3443 69.6008 83.676 69.6561 83.9852 69.7787C84.2944 69.9013 84.574 70.0883 84.8055 70.3274C85.2779 70.8729 85.5221 71.5799 85.4874 72.3012V76.5949H84.5533V72.4321C84.5808 71.9192 84.414 71.4147 84.0863 71.0196C83.923 70.8455 83.7242 70.7085 83.5034 70.6182C83.2826 70.5278 83.0449 70.486 82.8066 70.4957C82.542 70.4857 82.2785 70.5342 82.0347 70.6376C81.791 70.7411 81.5729 70.897 81.3961 71.0944C81.019 71.5676 80.8324 72.1649 80.8731 72.7689V76.5949H79.939V72.4321C79.9659 71.9268 79.81 71.4286 79.5 71.029C79.3418 70.8503 79.1455 70.7095 78.9256 70.6172C78.7056 70.5249 78.4678 70.4834 78.2297 70.4957C77.9657 70.49 77.7034 70.5405 77.4603 70.6437C77.2172 70.7469 76.9987 70.9005 76.8192 71.0944C76.4279 71.5612 76.2306 72.1606 76.2681 72.7689V76.5949H75.334V69.8316H76.2681V69.9719C76.2693 70.0653 76.2985 70.1562 76.3517 70.2329C76.405 70.3096 76.48 70.3686 76.567 70.4022C76.6223 70.4153 76.6799 70.4153 76.7351 70.4022C76.7999 70.4021 76.8639 70.3888 76.9233 70.3631C76.9828 70.3373 77.0363 70.2997 77.0807 70.2525C77.2884 70.0329 77.5414 69.8614 77.8222 69.7499C78.1029 69.6384 78.4045 69.5897 78.706 69.6071C79.0407 69.587 79.3749 69.6539 79.6761 69.8015C79.9772 69.949 80.2351 70.1721 80.4247 70.449C80.4644 70.5123 80.5196 70.5643 80.5849 70.6003C80.6503 70.6363 80.7238 70.6551 80.7984 70.6548C80.8704 70.6522 80.941 70.6341 81.0054 70.6018C81.0699 70.5696 81.1267 70.5238 81.172 70.4677C81.3884 70.1812 81.6722 69.9526 81.9982 69.8025C82.3241 69.6523 82.682 69.5852 83.0401 69.6071M83.0401 69.1394C82.6077 69.1144 82.1759 69.1971 81.7831 69.3799C81.3903 69.5627 81.0488 69.84 80.789 70.1871C80.5584 69.8375 80.2406 69.5542 79.867 69.3655C79.4935 69.1768 79.0771 69.0892 78.6593 69.1113C78.2931 69.0947 77.9277 69.1572 77.5876 69.2943C77.2476 69.4315 76.9409 69.6402 76.6885 69.9064V69.2984H74.8203V76.9972H76.6885V72.7035C76.6557 72.2148 76.8055 71.7313 77.1088 71.347C77.2452 71.1995 77.4118 71.083 77.5971 71.0055C77.7824 70.928 77.9822 70.8914 78.1829 70.898C78.357 70.8831 78.5321 70.9093 78.6943 70.9743C78.8564 71.0392 79.0012 71.1412 79.117 71.2722C79.3529 71.5862 79.4689 71.9744 79.444 72.3666V77.0439H81.3121V72.7502C81.277 72.2613 81.4196 71.7762 81.7137 71.3844C81.8481 71.2373 82.0131 71.1216 82.1971 71.0456C82.3812 70.9696 82.5798 70.9352 82.7786 70.9448C82.9522 70.9342 83.126 70.9622 83.2875 71.0269C83.4491 71.0916 83.5943 71.1913 83.7127 71.3189C83.9632 71.6262 84.0869 72.0178 84.0583 72.4135V77.0907H85.9264V72.3573C85.9694 71.5157 85.6771 70.6914 85.1138 70.0655C84.8396 69.7795 84.5081 69.555 84.141 69.4066C83.7739 69.2583 83.3796 69.1895 82.9841 69.2048L83.0401 69.1394Z" fill="#1D1D1B"/>
<path d="M89.1944 68.2881C89.0116 68.2855 88.8335 68.2293 88.6823 68.1263C88.5311 68.0234 88.4134 67.8782 88.3438 67.7089C88.2742 67.5396 88.2557 67.3535 88.2907 67.1738C88.3257 66.9941 88.4126 66.8286 88.5406 66.6978C88.6232 66.607 88.7243 66.535 88.8371 66.4866C88.9499 66.4381 89.0717 66.4145 89.1944 66.4172C89.3196 66.4165 89.4436 66.4409 89.5591 66.4891C89.6746 66.5373 89.7793 66.6083 89.8669 66.6978C90.0383 66.8759 90.1324 67.1147 90.1285 67.362C90.1285 67.6101 90.0301 67.848 89.8549 68.0235C89.6797 68.1989 89.4421 68.2975 89.1944 68.2975V68.2881Z" fill="#1D1D1B"/>
<path d="M89.2029 66.6605C89.2939 66.6573 89.3845 66.6741 89.4684 66.7096C89.5523 66.7452 89.6274 66.7986 89.6886 66.8662C89.7672 66.9471 89.825 67.046 89.8567 67.1544C89.8884 67.2627 89.8932 67.3773 89.8706 67.4879C89.848 67.5985 89.7988 67.7019 89.7272 67.7891C89.6555 67.8763 89.5636 67.9446 89.4596 67.988C89.3556 68.0315 89.2425 68.0489 89.1302 68.0386C89.0179 68.0282 88.9099 67.9906 88.8155 67.9288C88.7211 67.8671 88.6432 67.7832 88.5886 67.6844C88.534 67.5856 88.5044 67.4749 88.5023 67.362C88.4985 67.2702 88.5139 67.1787 88.5477 67.0932C88.5815 67.0078 88.6328 66.9305 88.6984 66.8662C88.7635 66.7986 88.8421 66.7453 88.9289 66.7099C89.0158 66.6745 89.1091 66.6576 89.2029 66.6605ZM89.2029 66.1927C89.0479 66.1892 88.8938 66.2181 88.7506 66.2777C88.6074 66.3374 88.4783 66.4263 88.3715 66.5388C88.2629 66.6462 88.1771 66.7745 88.1193 66.916C88.0615 67.0574 88.0329 67.2092 88.0353 67.362C88.0613 67.6529 88.1951 67.9235 88.4103 68.1206C88.6255 68.3176 88.9066 68.4269 89.1982 68.4269C89.4898 68.4269 89.7708 68.3176 89.986 68.1206C90.2012 67.9235 90.3351 67.6529 90.3611 67.362C90.3635 67.2092 90.3349 67.0574 90.2771 66.916C90.2193 66.7745 90.1335 66.6462 90.0248 66.5388C89.9194 66.427 89.7919 66.3384 89.6504 66.2788C89.5088 66.2192 89.3564 66.1899 89.2029 66.1927Z" fill="#1D1D1B"/>
<path d="M89.9135 69.579H88.4844V76.8007H89.9135V69.579Z" fill="#1D1D1B"/>
<path d="M89.6804 69.8036V76.595H88.7463V69.8316H89.6804M90.1474 69.3639H88.2793V77.0627H90.1474V69.3639Z" fill="#1D1D1B"/>
<path d="M94.2284 66.174H92.8086V76.8008H94.2284V66.174Z" fill="#1D1D1B"/>
<path d="M94.0046 66.4078V76.5949H93.0706V66.4078H94.0046ZM94.4717 65.9401H92.6035V77.0346H94.4717V65.9401Z" fill="#1D1D1B"/>
<path d="M97.3765 79.7568V78.4659H97.4606C97.8541 78.4822 98.2408 78.3597 98.5534 78.1197C98.9146 77.811 99.1857 77.4102 99.338 76.9598V76.8756C99.3517 76.8446 99.3587 76.8112 99.3587 76.7774C99.3587 76.7435 99.3517 76.7101 99.338 76.6792L96.293 69.5978H97.8436L99.8798 74.5557C99.8976 74.5986 99.9273 74.6355 99.9654 74.662C100.003 74.6885 100.048 74.7035 100.095 74.7053C100.142 74.704 100.189 74.6881 100.227 74.6596C100.265 74.6312 100.294 74.5916 100.309 74.5463L102.056 69.5978H103.569L100.767 77.0814C100.113 78.8494 99.0018 79.7474 97.4886 79.7474L97.3765 79.7568Z" fill="#1D1D1B"/>
<path d="M103.269 69.8036L100.597 77.0066C99.9715 78.6717 99.0002 79.4949 97.6084 79.5229V78.6623C98.0041 78.6536 98.3867 78.5193 98.7012 78.2788C99.083 77.9522 99.3701 77.529 99.5326 77.0533L99.5793 76.9504C99.609 76.8892 99.6244 76.822 99.6244 76.754C99.6244 76.6859 99.609 76.6188 99.5793 76.5576L96.6743 69.8036H97.7111L99.6914 74.6212C99.7264 74.7066 99.7859 74.7797 99.8623 74.8313C99.9388 74.8829 100.029 74.9107 100.121 74.9111C100.216 74.9072 100.308 74.8748 100.385 74.8181C100.461 74.7614 100.519 74.683 100.551 74.5931L102.232 69.8036H103.25M103.923 69.3358H101.905L100.112 74.4434L98.0194 69.3358H95.9551L99.1402 76.7446V76.8475C99.0017 77.2572 98.7605 77.6244 98.4397 77.9139C98.168 78.1096 97.8401 78.2114 97.5056 78.2039H97.1881V80H97.5243C99.1496 80 100.327 79.0646 101.018 77.1937L103.932 69.3639L103.923 69.3358Z" fill="#1D1D1B"/>
<path d="M51.5428 38.5126C46.8419 38.4874 42.3353 36.6309 38.9774 33.3361C35.6195 30.0413 33.6739 25.567 33.5526 20.8606C33.5519 20.8271 33.5431 20.7941 33.5268 20.7648C33.5105 20.7354 33.4873 20.7105 33.4592 20.6922C32.1472 19.6403 31.0883 18.3063 30.3607 16.7891C29.6332 15.2718 29.2555 13.6102 29.2559 11.927V0.701582H40.4647C42.9234 0.703467 45.3132 1.51489 47.2661 3.01087C49.219 4.50685 50.6265 6.60439 51.2719 8.98035C51.2864 9.0305 51.3174 9.07433 51.3597 9.10485C51.402 9.13537 51.4533 9.1508 51.5054 9.14873C51.5567 9.14666 51.6061 9.12834 51.6464 9.0964C51.6867 9.06446 51.7158 9.02055 51.7296 8.97099C52.237 6.89122 53.317 4.99578 54.8467 3.50021C56.3764 2.00463 58.2945 0.968951 60.3828 0.510912C62.4711 0.0528725 64.6458 0.190871 66.6597 0.90921C68.6735 1.62755 70.4457 2.8974 71.7747 4.57437C71.795 4.6027 71.8216 4.62588 71.8524 4.64212C71.8832 4.65835 71.9174 4.66717 71.9522 4.6679H75.894L73.8203 8.30682C73.8064 8.33437 73.7991 8.36481 73.7991 8.39569C73.7991 8.42658 73.8064 8.45702 73.8203 8.48456C74.1275 9.53923 74.2847 10.632 74.2874 11.7306C74.2787 13.5232 73.8519 15.289 73.041 16.8871C72.2302 18.4853 71.0577 19.8716 69.617 20.9354C69.5884 20.9562 69.5645 20.9828 69.5468 21.0134C69.5291 21.044 69.518 21.078 69.5143 21.1132C69.3731 25.7868 67.4158 30.2205 64.0591 33.4704C60.7024 36.7202 56.2116 38.5294 51.5428 38.5126Z" fill="black"/>
<path d="M62.8348 0.467723C64.5209 0.465673 66.1854 0.846837 67.7031 1.58249C69.2208 2.31813 70.552 3.38909 71.5964 4.71469C71.6403 4.76931 71.6958 4.81355 71.7588 4.84427C71.8217 4.87499 71.8907 4.89145 71.9607 4.89243H75.4914L74.6508 6.35174L73.614 8.13845C73.5885 8.19588 73.5753 8.25803 73.5753 8.32088C73.5753 8.38372 73.5885 8.44584 73.614 8.50327C74.2538 10.707 74.2036 13.0542 73.4705 15.2286C72.7373 17.4029 71.3563 19.3 69.5134 20.6642C69.4544 20.7046 69.4065 20.7592 69.3739 20.8229C69.3413 20.8866 69.325 20.9574 69.3266 21.029C69.2994 25.7429 67.4034 30.2528 64.0559 33.5667C60.7083 36.8806 56.1834 38.727 51.4766 38.6997C46.7697 38.6724 42.2664 36.7737 38.9574 33.4212C35.6484 30.0687 33.8047 25.5371 33.832 20.8232C33.8303 20.7545 33.8135 20.6871 33.7828 20.6257C33.7521 20.5642 33.7083 20.5103 33.6545 20.4677C32.3678 19.4403 31.3291 18.1354 30.6159 16.6502C29.9027 15.1649 29.5333 13.5377 29.5353 11.8896V0.926086H40.5199C42.9256 0.932084 45.2631 1.72754 47.1745 3.19064C49.0859 4.65374 50.4657 6.70385 51.1029 9.02712C51.1295 9.12601 51.1878 9.21344 51.2687 9.27597C51.3497 9.3385 51.449 9.37269 51.5513 9.37326C51.6552 9.37379 51.7562 9.33886 51.8377 9.27426C51.9192 9.20965 51.9763 9.11921 51.9996 9.01778C52.5968 6.5806 53.9923 4.4141 55.9631 2.86428C57.9339 1.31446 60.3664 0.470693 62.8722 0.467723M62.8722 -3.8147e-06C60.2613 0.00200202 57.7264 0.880345 55.6726 2.49467C53.6187 4.109 52.1644 6.36617 51.5419 8.90553C50.8758 6.48701 49.4362 4.35395 47.4436 2.83328C45.4511 1.3126 43.0157 0.488216 40.5106 0.48645H29.0215V11.9551C29.0212 13.6732 29.4073 15.3693 30.1512 16.9175C30.895 18.4657 31.9775 19.8262 33.3182 20.898C33.4407 25.6372 35.3998 30.1427 38.7808 33.4609C42.1617 36.7791 46.6993 38.6495 51.4331 38.6762C56.1668 38.703 60.7251 36.884 64.1432 33.6042C67.5614 30.3245 69.5711 25.8414 69.747 21.1038C71.6779 19.6839 73.1247 17.7023 73.8902 15.4291C74.6558 13.1558 74.7029 10.7014 74.025 8.40038L75.0618 6.61366L76.3041 4.46213H71.9607C70.8718 3.08244 69.4851 1.9676 67.9046 1.20129C66.3241 0.434972 64.5908 0.0370695 62.8348 0.0374223L62.8722 -3.8147e-06Z" fill="black"/>
<path d="M62.8351 23.377C64.0136 23.377 65.1853 23.1973 66.3098 22.8438C65.766 26.3838 63.9726 29.6112 61.2553 31.9399C58.5381 34.2686 55.077 35.5442 51.5007 35.5352C47.9243 35.5261 44.4698 34.2329 41.7643 31.8905C39.0588 29.5481 37.2818 26.3117 36.7559 22.769C38.2552 23.287 39.8459 23.4868 41.4266 23.3554C43.0073 23.224 44.5434 22.7644 45.937 22.0059C47.3306 21.2473 48.5512 20.2065 49.521 18.9495C50.4909 17.6926 51.1887 16.2472 51.5702 14.7053C52.2353 17.1896 53.6992 19.3853 55.7355 20.9528C57.7717 22.5202 60.2668 23.3722 62.8351 23.377ZM71.2417 11.6838C71.2392 13.5752 70.6009 15.4106 69.4296 16.8943C69.0114 17.4176 68.5351 17.8915 68.0098 18.3068C67.5322 18.6747 67.0153 18.9885 66.4686 19.2423C65.3397 19.7938 64.1005 20.0817 62.8444 20.0842C60.8684 20.0808 58.9567 19.3804 57.445 18.1059C55.9333 16.8315 54.9182 15.0645 54.5779 13.1151C54.4888 12.6368 54.4419 12.1516 54.4378 11.6651C54.4378 11.5996 54.4378 11.5435 54.4378 11.478C54.4549 10.9276 54.5206 10.3798 54.634 9.841C55.0963 7.83114 56.2792 6.06115 57.9583 4.86689C59.6374 3.67264 61.6958 3.13722 63.743 3.3622C65.7902 3.58718 67.6837 4.5569 69.0642 6.0874C70.4447 7.6179 71.2162 9.60267 71.2323 11.6651L71.2417 11.6838ZM67.7576 12.1141C68.166 11.8224 68.4983 11.4365 68.7265 10.9892C68.9548 10.5419 69.0723 10.0461 69.0692 9.54373C69.0661 9.04138 68.9425 8.54715 68.7087 8.10267C68.4749 7.6582 68.1378 7.27652 67.7259 6.98982C67.314 6.70312 66.8393 6.51981 66.3418 6.45532C65.8443 6.39083 65.3387 6.44705 64.8674 6.61927C64.3962 6.79149 63.9733 7.07463 63.6342 7.44484C63.2951 7.81506 63.0499 8.2615 62.9192 8.74651C62.8221 9.10909 62.7936 9.48663 62.8351 9.8597C62.8899 10.4557 63.1135 11.0237 63.4796 11.4967C63.8995 12.0313 64.4786 12.418 65.1329 12.6006C65.4869 12.6885 65.853 12.7169 66.2164 12.6848C66.7685 12.6338 67.2971 12.4369 67.7483 12.1141H67.7576Z" fill="#F3BD48" stroke="#F3BD48" stroke-width="0.526316" stroke-linecap="round" stroke-linejoin="round"/>
<path d="M38.2878 8.30683L33.7109 3.72311H38.2878V8.30683ZM32.291 5.14499V9.72871H36.8587L32.291 5.14499ZM37.0455 16.7259H33.8416C34.2092 17.233 34.6321 17.6973 35.1026 18.1104C35.5742 18.5163 36.0878 18.8706 36.6345 19.1674C38.0277 19.9141 39.6079 20.2383 41.182 20.1004C42.7562 19.9625 44.2562 19.3686 45.4988 18.391L43.8268 16.7259H37.0455ZM35.9713 14.7053H41.8092L40.2493 13.1431L38.8763 11.768H32.291V11.9364C32.2883 12.8931 32.4527 13.8428 32.7768 14.7428H35.9713V14.7053ZM43.0982 13.1431L43.2384 13.2834V4.2376C42.3413 3.90625 41.3923 3.73835 40.4362 3.74181H40.2587V10.3368L41.4263 11.5061L43.0982 13.1431ZM48.628 11.5061C48.6048 10.9534 48.5234 10.4046 48.3851 9.86905C47.9014 8.0254 46.7917 6.40799 45.2466 5.29467V15.2947L46.9186 16.9691C47.7865 15.8569 48.3528 14.539 48.5626 13.1431C48.6223 12.7436 48.6535 12.3403 48.656 11.9364C48.656 11.7774 48.6373 11.637 48.628 11.4967V11.5061Z" fill="#A2D45E" stroke="#A2D45E" stroke-width="0.526316" stroke-linecap="round" stroke-linejoin="round"/>
</g>
<defs>
<clipPath id="clip0_967_1962">
<rect width="106.316" height="80" fill="white"/>
</clipPath>
</defs>
</svg>
