<svg id="logo-family" width="152" height="109" viewBox="0 0 152 109" fill="none" xmlns="http://www.w3.org/2000/svg">
<path d="M63.2991 63.0937C65.1976 61.9726 67.363 61.3837 69.5678 61.3886V67.5445C67.9053 67.5445 66.3108 68.205 65.1352 69.3806C63.9596 70.5562 63.2991 72.1507 63.2991 73.8132V80.8718V85.7863H57.1307V80.8718V73.8132V61.8525H62.0454L63.2991 63.1063V63.0937ZM135.702 73.6L144.228 85.7738H137.006L132.092 78.7529L127.177 85.7738H119.955L128.481 73.6L120.244 61.84H127.478L132.092 68.4346L136.705 61.84H143.939L135.702 73.6ZM48.9439 61.84H48.0662L46.8125 63.0937C44.9252 61.9851 42.7784 61.3948 40.5896 61.3825C38.4008 61.3702 36.2476 61.9364 34.3479 63.0238C32.4483 64.1111 30.8696 65.681 29.7716 67.5745C28.6736 69.4681 28.0954 71.6181 28.0954 73.8069C28.0954 75.9958 28.6736 78.1458 29.7716 80.0394C30.8696 81.9329 32.4483 83.5026 34.3479 84.59C36.2476 85.6773 38.4008 86.2435 40.5896 86.2312C42.7784 86.2189 44.9252 85.6286 46.8125 84.52L48.0662 85.7738H53.0812V73.8132V61.8525H48.9439V61.84ZM40.6065 80.0693C39.3667 80.0693 38.1547 79.7017 37.1238 79.0129C36.0929 78.3241 35.2895 77.3451 34.815 76.1996C34.3405 75.0542 34.2164 73.7937 34.4583 72.5777C34.7002 71.3617 35.2972 70.2447 36.1739 69.3681C37.0506 68.4914 38.1675 67.8943 39.3835 67.6524C40.5996 67.4106 41.86 67.5347 43.0054 68.0092C44.1509 68.4836 45.1299 69.2871 45.8187 70.318C46.5075 71.3489 46.8752 72.5608 46.8752 73.8007C46.8752 75.4632 46.2147 77.0577 45.0391 78.2333C43.8635 79.4089 42.2691 80.0693 40.6065 80.0693ZM88.5368 63.0812C86.6495 61.9726 84.5028 61.3823 82.314 61.37C80.1252 61.3577 77.972 61.9239 76.0723 63.0112C74.1726 64.0985 72.5939 65.6684 71.4959 67.562C70.398 69.4555 69.8197 71.6056 69.8197 73.7944C69.8197 75.9832 70.398 78.1333 71.4959 80.0268C72.5939 81.9203 74.1726 83.4902 76.0723 84.5776C77.972 85.6649 80.1252 86.2309 82.314 86.2187C84.5028 86.2064 86.6495 85.6162 88.5368 84.5076L89.7906 85.7614H94.6927V66.7421V52.8257H88.5368V63.0812ZM82.2682 80.0693C81.0283 80.0693 79.8164 79.7017 78.7855 79.0129C77.7546 78.3241 76.9511 77.3451 76.4767 76.1996C76.0022 75.0542 75.8781 73.7937 76.1199 72.5777C76.3618 71.3617 76.9588 70.2447 77.8355 69.3681C78.7122 68.4914 79.8292 67.8943 81.0452 67.6524C82.2612 67.4106 83.5216 67.5347 84.6671 68.0092C85.8125 68.4836 86.7916 69.2871 87.4804 70.318C88.1692 71.3489 88.5368 72.5608 88.5368 73.8007C88.5368 75.4611 87.8781 77.0536 86.7052 78.2288C85.5323 79.4041 83.9411 80.066 82.2807 80.0693H82.2682ZM109.712 80.0693C108.561 80.0671 107.432 79.7476 106.45 79.146C105.468 78.5445 104.671 77.6841 104.146 76.6592H121.798C122.026 75.7277 122.139 74.7721 122.137 73.8132C122.19 72.1492 121.908 70.4916 121.308 68.9388C120.707 67.3859 119.801 65.9694 118.643 64.7737C117.484 63.5779 116.097 62.6272 114.564 61.9779C113.031 61.3286 111.384 60.9941 109.719 60.9941C108.054 60.9941 106.406 61.3286 104.873 61.9779C103.34 62.6272 101.953 63.5779 100.795 64.7737C99.6365 65.9694 98.7302 67.3859 98.1299 68.9388C97.5297 70.4916 97.2476 72.1492 97.3005 73.8132C97.3047 74.2783 97.334 74.7429 97.3882 75.2048V75.4681C97.4357 75.8391 97.5027 76.2074 97.5888 76.5714C97.5888 76.5714 97.5888 76.5715 97.5888 76.6592C98.0931 78.8119 99.1639 80.7906 100.69 82.3903C102.216 83.99 104.143 85.1525 106.269 85.7574C108.396 86.3623 110.646 86.3874 112.785 85.8304C114.925 85.2734 116.877 84.1544 118.438 82.5894L114.075 78.2264C113.507 78.8044 112.83 79.2646 112.084 79.5808C111.337 79.8971 110.536 80.0631 109.725 80.0693H109.712ZM109.712 67.532C110.864 67.5343 111.993 67.8537 112.975 68.4553C113.957 69.0569 114.754 69.9172 115.279 70.9421H104.158C104.685 69.9196 105.483 69.0618 106.465 68.4625C107.447 67.8632 108.575 67.5456 109.725 67.5445L109.712 67.532ZM21.7378 61.84H20.9103L19.6566 63.0937C17.7692 61.9851 15.6225 61.3948 13.4337 61.3825C11.2449 61.3702 9.09168 61.9364 7.19201 63.0238C5.29234 64.1111 3.71363 65.681 2.61566 67.5745C1.5177 69.4681 0.939453 71.6181 0.939453 73.8069C0.939453 75.9958 1.5177 78.1458 2.61566 80.0394C3.71363 81.9329 5.29234 83.5026 7.19201 84.59C9.09168 85.6773 11.2449 86.2435 13.4337 86.2312C15.6225 86.2189 17.7692 85.6286 19.6566 84.52V86.2252C19.6414 87.6758 19.1237 89.0762 18.1916 90.1877C17.2595 91.2992 15.9707 92.053 14.545 92.3207C13.1193 92.5884 11.6449 92.3534 10.3731 91.6557C9.10129 90.958 8.11083 89.8407 7.57055 88.4944L3.01949 93.0455C4.46332 95.2609 6.57697 96.9574 9.05239 97.8875C11.5278 98.8176 14.2356 98.9329 16.7811 98.2164C19.3266 97.4999 21.5767 95.9892 23.2035 93.9044C24.8303 91.8196 25.7487 89.2697 25.825 86.6264C25.825 86.5135 25.825 86.2378 25.825 86.2127V61.8651H21.7378V61.84ZM19.6691 73.8132C19.6691 75.053 19.3015 76.265 18.6126 77.2959C17.9238 78.3268 16.9448 79.1302 15.7993 79.6047C14.6539 80.0792 13.3935 80.2033 12.1775 79.9615C10.9615 79.7196 9.84449 79.1225 8.9678 78.2458C8.09111 77.3691 7.49408 76.2522 7.2522 75.0362C7.01032 73.8202 7.13446 72.5597 7.60892 71.4143C8.08338 70.2688 8.88686 69.2898 9.91774 68.601C10.9486 67.9122 12.1606 67.5445 13.4004 67.5445C15.063 67.5445 16.6575 68.205 17.8331 69.3806C19.0087 70.5562 19.6691 72.1507 19.6691 73.8132Z" fill="#1D1D1B"/>
<path d="M105.337 6.03601H99.4693C97.6175 3.7018 95.1488 1.93308 92.343 0.930312C89.5373 -0.072454 86.5067 -0.269183 83.5949 0.362518C80.683 0.99422 78.0064 2.42907 75.8684 4.50435C73.7304 6.57963 72.2166 9.21247 71.4985 12.1042C70.5837 8.81266 68.6192 5.90981 65.9036 3.83692C63.188 1.76404 59.8699 0.634452 56.4536 0.619938H40.6816V16.2791C40.6812 18.6243 41.2083 20.9394 42.2239 23.0533C43.2396 25.1671 44.7179 27.0254 46.5491 28.4905C46.7136 34.9674 49.3926 41.1261 54.0187 45.6623C58.6447 50.1985 64.8547 52.7562 71.3337 52.7937C77.8126 52.8312 84.0518 50.3455 88.73 45.8631C93.4082 41.3807 96.1582 35.2534 96.3977 28.7788C99.0433 26.8379 101.023 24.1253 102.065 21.0138C103.106 17.9023 103.159 14.5446 102.215 11.402L103.644 8.89457L105.337 6.03601Z" fill="#1D1D1B"/>
<path d="M60.1259 18.1096L56.1014 14.0851V5.13345H56.3396C57.6221 5.13763 58.8944 5.36243 60.1008 5.79797L60.1259 18.1096ZM45.1562 7.0266V13.2953H51.4249L45.1562 7.0266ZM53.3557 5.08325H47.087L53.3557 11.3519V5.08325ZM54.1581 16.0283H45.1562V16.2666C45.1604 17.5492 45.3852 18.8215 45.8207 20.0278H58.1826L54.1581 16.0283ZM47.2751 22.7986C48.1487 24.0241 49.262 25.0595 50.5476 25.8421C51.8331 26.6248 53.2641 27.1383 54.754 27.3516C56.2438 27.5649 57.7614 27.4737 59.2149 27.0833C60.6685 26.6929 62.0276 26.0115 63.2101 25.0804L60.9282 22.7986H47.2751ZM62.8715 7.20215V20.8554L65.1533 23.1371C66.0844 21.9546 66.7658 20.5955 67.1562 19.142C67.5466 17.6885 67.6379 16.1708 67.4246 14.6809C67.2112 13.1911 66.6977 11.7602 65.9151 10.4747C65.1325 9.18914 64.097 8.07579 62.8715 7.20215Z" fill="#A2D45E"/>
<path d="M86.9313 27.4247C84.657 27.4247 82.4337 26.7501 80.5428 25.4863C78.6519 24.2224 77.1783 22.4262 76.3085 20.3247C75.4387 18.2232 75.2118 15.9109 75.6564 13.6805C76.101 11.45 77.1972 9.40142 78.8063 7.79407C80.4154 6.18672 82.4651 5.09274 84.6961 4.65055C86.9271 4.20836 89.2391 4.43778 91.3396 5.30986C93.4402 6.18195 95.2349 7.65751 96.4966 9.54979C97.7584 11.4421 98.4306 13.6661 98.4281 15.9405C98.4248 18.9874 97.212 21.9084 95.0563 24.0617C92.9006 26.2151 89.9783 27.4247 86.9313 27.4247ZM71.4853 48.4123C66.6002 48.4053 61.8779 46.6551 58.1683 43.4764C54.4587 40.2978 52.0055 35.8994 51.25 31.073C53.2936 31.7823 55.4621 32.0599 57.6185 31.8881C59.7748 31.7163 61.8721 31.0988 63.7775 30.0748C65.683 29.0508 67.3552 27.6425 68.6884 25.939C70.0216 24.2355 70.9868 22.2738 71.5229 20.1781C72.4554 23.5484 74.4675 26.5199 77.2506 28.6373C80.0337 30.7546 83.4343 31.901 86.9313 31.9005C88.5521 31.9004 90.1632 31.651 91.7081 31.1608C90.9337 35.9712 88.4723 40.3488 84.7646 43.5098C81.0569 46.6708 76.345 48.4087 71.4728 48.4123H71.4853Z" fill="#F3BD48"/>
<path d="M92.2845 8.89462C91.4659 8.67644 90.6009 8.70567 89.7989 8.97864C88.9968 9.25161 88.2936 9.75615 87.778 10.4284C87.2624 11.1007 86.9575 11.9105 86.9018 12.7559C86.8462 13.6013 87.0422 14.4444 87.4652 15.1785C87.8881 15.9125 88.5191 16.5048 89.2784 16.8806C90.0378 17.2564 90.8914 17.3989 91.7316 17.29C92.5718 17.1811 93.3609 16.8256 93.9993 16.2686C94.6377 15.7116 95.0968 14.9779 95.3186 14.1602C95.4664 13.6153 95.5052 13.0466 95.4326 12.4866C95.36 11.9266 95.1775 11.3865 94.8956 10.8972C94.6136 10.4079 94.2379 9.97915 93.7898 9.6355C93.3417 9.29186 92.8302 9.04003 92.2845 8.89462Z" fill="#1D1D1B"/>
<path d="M146.332 68.1211C145.205 68.1162 144.101 68.4461 143.162 69.0691C142.222 69.6921 141.489 70.58 141.055 71.6203C140.62 72.6607 140.505 73.8067 140.722 74.9128C140.94 76.0189 141.482 77.0354 142.278 77.8335C143.074 78.6315 144.09 79.175 145.195 79.3953C146.301 79.6155 147.447 79.5025 148.488 79.0705C149.53 78.6385 150.419 77.9072 151.044 76.9689C151.669 76.0307 152.002 74.928 151.999 73.8006C152.001 73.0554 151.855 72.3171 151.571 71.6282C151.287 70.9392 150.87 70.3129 150.344 69.7853C149.817 69.2578 149.192 68.8392 148.504 68.5537C147.815 68.2681 147.077 68.1211 146.332 68.1211ZM146.332 78.3266C145.429 78.3692 144.534 78.1403 143.762 77.6696C142.991 77.1988 142.377 76.5077 142.002 75.6853C141.627 74.863 141.506 73.9471 141.656 73.0556C141.806 72.1641 142.219 71.3377 142.843 70.6833C143.466 70.0288 144.272 69.5762 145.155 69.3836C146.038 69.191 146.959 69.2672 147.798 69.6026C148.638 69.938 149.358 70.5171 149.865 71.2653C150.372 72.0135 150.644 72.8966 150.645 73.8006C150.663 74.3821 150.566 74.9614 150.358 75.5049C150.151 76.0484 149.837 76.545 149.436 76.9662C149.035 77.3873 148.554 77.7245 148.021 77.9581C147.488 78.1916 146.914 78.3169 146.332 78.3266ZM148.263 73.8508C148.476 73.5221 148.589 73.139 148.589 72.7475C148.595 72.4818 148.548 72.2174 148.452 71.9699C148.355 71.7224 148.21 71.4967 148.025 71.3057C147.851 71.1134 147.638 70.9603 147.4 70.8565C147.162 70.7528 146.905 70.7008 146.646 70.7039H144.276V76.8096H145.53V74.7284H146.257L147.398 76.8096H148.84L147.586 74.4777C147.858 74.3249 148.09 74.1101 148.263 73.8508ZM147.097 73.274C147.041 73.3397 146.972 73.3929 146.895 73.4296C146.817 73.4664 146.732 73.486 146.646 73.4872H145.58V71.9952H146.646C146.732 71.9963 146.817 72.0161 146.895 72.0528C146.972 72.0896 147.041 72.1426 147.097 72.2083C147.232 72.3551 147.303 72.5486 147.298 72.7475C147.304 72.9405 147.236 73.1285 147.11 73.274H147.097Z" fill="#1D1D1B"/>
<path d="M87.157 90.0491H87.3451V92.5565H87.132C86.841 92.5035 86.5424 92.5094 86.2538 92.574C85.9652 92.6386 85.6925 92.7607 85.452 92.9327C85.2806 93.1242 85.1499 93.3485 85.068 93.592C84.9861 93.8356 84.9546 94.0933 84.9755 94.3495H87.3451V96.8569H84.9755V104.831H82.3928V96.8569H80.8633V94.3495H82.3928C82.356 93.7424 82.4487 93.1344 82.6649 92.5659C82.8811 91.9974 83.2157 91.4814 83.6466 91.0521C84.1323 90.6543 84.6943 90.3601 85.2981 90.1876C85.9018 90.0151 86.5344 89.9679 87.157 90.0491ZM97.3875 94.3369H99.9702V104.806H97.3875V103.727C96.9612 104.175 96.4443 104.526 95.8713 104.757C95.2983 104.989 94.6825 105.095 94.0651 105.069C93.3724 105.075 92.6861 104.936 92.051 104.66C91.4159 104.383 90.8462 103.976 90.3791 103.464C89.3948 102.404 88.8478 101.011 88.8478 99.5649C88.8478 98.1185 89.3948 96.7256 90.3791 95.6658C90.8507 95.1608 91.4215 94.7587 92.0558 94.4848C92.6901 94.2108 93.3742 94.0707 94.0651 94.0735C94.6825 94.0476 95.2983 94.1539 95.8713 94.3853C96.4443 94.6166 96.9612 94.9678 97.3875 95.4151V94.3369ZM97.3875 99.5774C97.4013 99.1779 97.334 98.7797 97.1896 98.407C97.0452 98.0342 96.8268 97.6945 96.5475 97.4085C96.2682 97.1298 95.9354 96.9107 95.5691 96.7642C95.2028 96.6177 94.8106 96.5469 94.4162 96.556C94.0211 96.5416 93.6274 96.6099 93.2603 96.7567C92.8932 96.9035 92.5609 97.1256 92.2848 97.4085C91.7375 97.9957 91.4332 98.7685 91.4332 99.5712C91.4332 100.374 91.7375 101.147 92.2848 101.734C92.8587 102.283 93.6222 102.589 94.4162 102.589C95.2102 102.589 95.9736 102.283 96.5475 101.734C96.8241 101.449 97.0409 101.111 97.1851 100.74C97.3293 100.37 97.3982 99.9747 97.3875 99.5774ZM114.514 94.0735C113.924 94.0423 113.335 94.1564 112.8 94.4056C112.264 94.6548 111.798 95.0315 111.442 95.5028C111.124 95.0408 110.693 94.6673 110.191 94.4173C109.689 94.1672 109.131 94.0489 108.571 94.0735C108.073 94.05 107.576 94.1355 107.115 94.3239C106.654 94.5123 106.239 94.7992 105.9 95.1644V94.3369H103.305V104.806H105.888V98.9631C105.839 98.2998 106.04 97.6423 106.452 97.1202C106.639 96.9204 106.867 96.7633 107.12 96.6595C107.373 96.5557 107.646 96.5075 107.919 96.5184C108.152 96.5014 108.386 96.5377 108.604 96.6246C108.821 96.7115 109.015 96.8467 109.173 97.0199C109.497 97.4464 109.653 97.9775 109.611 98.5118V104.78H112.194V98.938C112.147 98.275 112.338 97.6168 112.733 97.0825C112.917 96.8833 113.143 96.7272 113.395 96.6254C113.646 96.5235 113.917 96.4784 114.188 96.4933C114.42 96.4824 114.653 96.5216 114.869 96.6081C115.085 96.6946 115.28 96.8265 115.441 96.9948C115.778 97.4161 115.944 97.9487 115.905 98.4867V104.755H118.488V98.3112C118.541 97.1703 118.145 96.054 117.385 95.2019C117.013 94.8216 116.565 94.5244 116.07 94.3299C115.575 94.1354 115.045 94.048 114.514 94.0735ZM122.939 90.0491C122.728 90.0465 122.519 90.0874 122.325 90.1694C122.131 90.2514 121.955 90.3726 121.81 90.5255C121.514 90.8213 121.347 91.2226 121.346 91.6413C121.345 91.8501 121.386 92.0569 121.468 92.2489C121.55 92.4409 121.671 92.614 121.823 92.7572C121.967 92.9082 122.14 93.0283 122.332 93.1104C122.524 93.1925 122.73 93.2348 122.939 93.2348C123.147 93.2348 123.354 93.1925 123.546 93.1104C123.737 93.0283 123.91 92.9082 124.054 92.7572C124.279 92.537 124.433 92.2546 124.496 91.9464C124.56 91.6381 124.529 91.318 124.41 91.027C124.29 90.7361 124.086 90.4875 123.824 90.3132C123.561 90.139 123.253 90.047 122.939 90.0491ZM121.685 104.806H124.268V94.3369H121.635L121.685 104.806ZM127.59 104.806H130.098V89.7607H127.59V104.806ZM140.328 94.3369L137.821 101.283L134.975 94.3369H132.154L136.517 104.367L136.441 104.505C136.255 105.067 135.922 105.569 135.476 105.959C135.039 106.269 134.504 106.407 133.972 106.348H133.758V108.78H134.285C136.504 108.78 138.046 107.526 139.062 104.931L143.024 94.2742L140.328 94.3369Z" fill="#E8EDF0"/>
</svg>
