<svg id="logo" width="104" height="97" viewBox="0 0 104 97" fill="none" xmlns="http://www.w3.org/2000/svg">
<g clip-path="url(#clip0_1916_1737)">
<path d="M88.1708 6.8603H81.4544C79.3619 4.20992 76.57 2.20049 73.3955 1.06012C70.221 -0.0802469 66.791 -0.305883 63.495 0.408832C60.1989 1.12355 57.1689 2.74998 54.7487 5.10352C52.3285 7.45705 50.6152 10.4434 49.8032 13.7236C48.7604 9.97578 46.5207 6.67374 43.4271 4.32305C40.3334 1.97237 36.5562 0.7026 32.6739 0.708157H15V18.47C14.9956 21.1254 15.5865 23.7479 16.729 26.1438C17.8715 28.5397 19.5365 30.6478 21.6009 32.3124C21.7307 39.6966 24.7378 46.737 29.9793 51.9285C35.2209 57.12 42.2809 60.0506 49.6502 60.0938C57.0195 60.137 64.1133 57.2894 69.4151 52.1597C74.7168 47.03 77.8059 40.0254 78.0219 32.6431C81.0186 30.454 83.2631 27.3865 84.4455 23.8642C85.6279 20.3419 85.6898 16.5385 84.6228 12.9794L86.273 10.201L88.1708 6.8603Z" fill="#2D2A26"/>
<path d="M36.9976 20.5534L32.4595 16.0054V5.78491H32.674C34.1318 5.78994 35.5777 6.0473 36.948 6.54566L36.9976 20.5534ZM20.0498 7.98447V15.0793H27.1292L20.0498 7.98447ZM29.3735 5.78491H22.2611L29.3735 12.8797V5.78491ZM30.2812 18.205H20.0498V18.4696C20.0562 19.9358 20.3129 21.3901 20.8089 22.7695H34.8028L30.2812 18.205ZM22.4921 25.8786C23.4807 27.269 24.7406 28.4438 26.1954 29.3321C27.6502 30.2203 29.2698 30.8034 30.956 31.0462C32.6422 31.2889 34.3601 31.1862 36.0055 30.7443C37.651 30.3023 39.1899 29.5304 40.529 28.4751L37.9382 25.8786H22.4921ZM40.1495 8.18293V23.6791L42.7073 26.2755C43.754 24.9294 44.5188 23.3855 44.9561 21.7362C45.3934 20.0869 45.4941 18.3661 45.2522 16.6769C45.0103 14.9877 44.4308 13.3647 43.5483 11.9052C42.6659 10.4458 41.4986 9.17972 40.1165 8.18293H40.1495Z" fill="#A2D45E"/>
<path d="M67.3281 31.1212C64.7562 31.1212 62.2421 30.3569 60.1037 28.9249C57.9652 27.493 56.2985 25.4576 55.3143 23.0764C54.33 20.6951 54.0725 18.0748 54.5743 15.5468C55.076 13.0189 56.3145 10.6968 58.1331 8.87423C59.9517 7.05168 62.2687 5.8105 64.7912 5.30766C67.3137 4.80482 69.9283 5.0629 72.3045 6.04926C74.6806 7.03562 76.7115 8.70596 78.1403 10.8491C79.5692 12.9922 80.3319 15.5118 80.3319 18.0892C80.3275 21.5442 78.9561 24.8564 76.5183 27.2994C74.0806 29.7424 70.7756 31.1168 67.3281 31.1212ZM49.8523 54.936C44.3236 54.9281 38.9791 52.9433 34.7802 49.3386C30.5814 45.734 27.8039 40.7461 26.9473 35.2723C29.2653 36.0679 31.7227 36.3741 34.1646 36.1717C36.6065 35.9692 38.9802 35.2624 41.1363 34.0958C43.2924 32.9292 45.1842 31.3281 46.6928 29.393C48.2013 27.458 49.2939 25.231 49.9018 22.8522C50.5389 25.2015 51.6425 27.3978 53.1466 29.3096C54.6507 31.2214 56.5243 32.8093 58.6552 33.9782C60.7861 35.1471 63.1306 35.873 65.548 36.1124C67.9655 36.3518 70.4063 36.0998 72.7243 35.3715C71.8505 40.823 69.0695 45.7851 64.8789 49.3696C60.6884 52.9542 55.3618 54.9273 49.8523 54.936Z" fill="#F3BD48"/>
<path d="M73.401 10.1013C72.4713 9.84621 71.487 9.87339 70.5728 10.1794C69.6586 10.4855 68.8556 11.0566 68.2656 11.8205C67.6756 12.5844 67.3252 13.5066 67.2587 14.4702C67.1922 15.4339 67.4126 16.3957 67.8921 17.2337C68.3716 18.0716 69.0884 18.7481 69.9519 19.1774C70.8154 19.6066 71.7866 19.7693 72.7424 19.6449C73.6983 19.5204 74.5957 19.1144 75.3211 18.4783C76.0465 17.8421 76.5671 17.0045 76.8169 16.0716C77.1505 14.826 76.9785 13.4988 76.3384 12.38C75.6982 11.2612 74.6421 10.442 73.401 10.1013Z" fill="#2D2A26"/>
<path d="M42.9246 72.1656C44.233 71.3843 45.7239 70.9729 47.2421 70.9743V75.2754C46.097 75.2754 44.9989 75.7368 44.1892 76.5582C43.3795 77.3796 42.9246 78.4937 42.9246 79.6553V84.5872V88.0211H38.728V84.5872V79.6466V71.2896H42.1129L42.9764 72.1656H42.9246ZM92.8004 79.5064L98.6722 88.0123H93.6898L90.3135 83.1067L86.9286 88.0123H81.9548L87.818 79.5064L82.1535 71.2896H87.1272L90.3135 75.8973L93.4912 71.2896H98.465L92.8004 79.5064ZM33.0375 71.2896H32.4676L31.6041 72.1656C30.2956 71.3847 28.8048 70.9734 27.2866 70.9743C25.0194 70.9743 22.845 71.888 21.2418 73.5144C19.6386 75.1407 18.738 77.3465 18.738 79.6466C18.738 81.9474 19.6383 84.1542 21.2413 85.7819C22.8442 87.4097 25.0186 88.3254 27.2866 88.3277C28.8048 88.3286 30.2956 87.9172 31.6041 87.1363L32.4676 88.0123H35.8526V79.6466V71.2896H33.0375ZM27.2953 84.0178C26.1502 84.0178 25.052 83.5563 24.2423 82.7349C23.4326 81.9135 22.9778 80.7995 22.9778 79.6379C22.9778 78.4762 23.4326 77.3621 24.2423 76.5407C25.052 75.7193 26.1502 75.2579 27.2953 75.2579C28.4403 75.2579 29.5385 75.7193 30.3482 76.5407C31.1579 77.3621 31.6128 78.4762 31.6128 79.6379C31.6128 80.213 31.5011 80.7826 31.2841 81.314C31.0671 81.8454 30.7491 82.3282 30.3482 82.7349C29.9473 83.1417 29.4713 83.4643 28.9475 83.6844C28.4237 83.9045 27.8622 84.0178 27.2953 84.0178ZM60.3155 72.1568C59.0071 71.3755 57.5163 70.9642 55.998 70.9655C53.73 70.9655 51.5547 71.8789 49.9501 73.505C48.3456 75.1312 47.443 77.337 47.4407 79.6379C47.4407 80.7779 47.6621 81.9067 48.0921 82.9599C48.5222 84.0132 49.1525 84.9702 49.9471 85.7763C50.7417 86.5824 51.6851 87.2219 52.7233 87.6581C53.7615 88.0944 54.8743 88.3189 55.998 88.3189C57.5163 88.3202 59.0071 87.9089 60.3155 87.1276L61.179 88.0036H64.5639V74.7235V65H60.3155V72.1568ZM55.998 84.0178C54.8529 84.0178 53.7548 83.5563 52.9451 82.7349C52.1354 81.9135 51.6805 80.7995 51.6805 79.6379C51.6805 78.4762 52.1354 77.3621 52.9451 76.5407C53.7548 75.7193 54.8529 75.2579 55.998 75.2579C57.1431 75.2579 58.2412 75.7193 59.0509 76.5407C59.8606 77.3621 60.3155 78.4762 60.3155 79.6379C60.3155 80.213 60.2038 80.7826 59.9869 81.314C59.7699 81.8454 59.4519 82.3282 59.0509 82.7349C58.65 83.1417 58.1741 83.4643 57.6503 83.6844C57.1264 83.9045 56.565 84.0178 55.998 84.0178ZM74.8914 84.0178C74.0992 84.017 73.3224 83.7951 72.6462 83.3764C71.9699 82.9577 71.4203 82.3583 71.0575 81.6439H83.2155C83.3686 80.9894 83.4468 80.3192 83.4487 79.6466C83.4464 77.3457 82.5438 75.1399 80.9393 73.5138C79.3347 71.8877 77.1594 70.9743 74.8914 70.9743C72.6242 70.9743 70.4498 71.888 68.8466 73.5144C67.2434 75.1407 66.3428 77.3465 66.3428 79.6466C66.3408 79.9717 66.361 80.2966 66.4032 80.619C66.3984 80.6831 66.3984 80.7475 66.4032 80.8117C66.4377 81.0744 66.4809 81.3285 66.5327 81.5738C66.5327 81.5738 66.5327 81.6176 66.5327 81.6439C66.9756 83.5444 68.0373 85.238 69.5462 86.4508C71.0551 87.6636 72.9231 88.3249 74.8482 88.3277C75.9711 88.3295 77.0833 88.106 78.1206 87.67C79.158 87.234 80.1001 86.5942 80.8927 85.7873L77.8964 82.7388C77.1 83.5449 76.0249 84.0038 74.9 84.0178H74.8914ZM74.8914 75.2579C75.6845 75.2595 76.4619 75.4826 77.1382 75.903C77.8145 76.3233 78.3637 76.9245 78.7253 77.6406H71.0575C71.4222 76.9264 71.9736 76.3279 72.6514 75.9107C73.3292 75.4935 74.1072 75.2737 74.9 75.2754L74.8914 75.2579ZM14.3082 71.2721H13.7297L12.8662 72.1481C11.5581 71.366 10.067 70.9546 8.54865 70.9567C6.28141 70.9567 4.10704 71.8704 2.50386 73.4968C0.900672 75.1232 0 77.329 0 79.6291C-1.15471e-06 81.9299 0.900393 84.1367 2.50333 85.7645C4.10627 87.3922 6.28061 88.3078 8.54865 88.3101C10.067 88.3123 11.5581 87.9009 12.8662 87.1188V88.3189C12.8662 89.4806 12.4113 90.5946 11.6016 91.416C10.7919 92.2374 9.69372 92.6989 8.54865 92.6989C7.68241 92.6959 6.83709 92.4286 6.12256 91.9318C5.40802 91.4351 4.85733 90.7317 4.54202 89.9132L1.40751 93.0931C2.18456 94.2945 3.24426 95.2808 4.49098 95.9628C5.7377 96.6449 7.13219 97.0013 8.54865 97C10.7717 97.001 12.9077 96.1235 14.5037 94.5535C16.0996 92.9835 17.03 90.8447 17.0973 88.5905V71.2896H14.2909L14.3082 71.2721ZM12.8748 79.6291C12.8748 80.7907 12.4199 81.9048 11.6102 82.7262C10.8005 83.5476 9.70237 84.009 8.55729 84.009C7.41222 84.009 6.31406 83.5476 5.50437 82.7262C4.69468 81.9048 4.23979 80.7907 4.23979 79.6291C4.23979 78.4674 4.69468 77.3534 5.50437 76.532C6.31406 75.7106 7.41222 75.2491 8.55729 75.2491C9.70237 75.2491 10.8005 75.7106 11.6102 76.532C12.4199 77.3534 12.8748 78.4674 12.8748 79.6291Z" fill="#F2F2F2"/>
<path d="M100.114 75.6784C99.599 75.6761 99.0889 75.7771 98.6128 75.9755C98.1367 76.174 97.704 76.4661 97.3396 76.835C96.9752 77.2038 96.6864 77.6421 96.4897 78.1246C96.293 78.6072 96.1923 79.1244 96.1934 79.6466C96.1911 80.1695 96.291 80.6877 96.4872 81.1713C96.6834 81.6549 96.9721 82.0942 97.3365 82.464C97.701 82.8337 98.1341 83.1266 98.6108 83.3256C99.0874 83.5247 99.5982 83.626 100.114 83.6236C100.628 83.6248 101.138 83.5227 101.614 83.3231C102.09 83.1235 102.522 82.8305 102.885 82.4609C103.249 82.0912 103.537 81.6523 103.732 81.1693C103.928 80.6863 104.028 80.1688 104.025 79.6466C104.026 79.1252 103.926 78.6086 103.73 78.1267C103.534 77.6447 103.246 77.2068 102.882 76.8381C102.519 76.4694 102.087 76.1771 101.612 75.9781C101.137 75.7791 100.628 75.6772 100.114 75.6784ZM100.114 82.8002C99.7131 82.7946 99.3176 82.7081 98.9502 82.546C98.5828 82.3839 98.2508 82.1493 97.9736 81.8559C97.6964 81.5624 97.4795 81.216 97.3354 80.8367C97.1914 80.4574 97.1232 80.0529 97.1346 79.6466C97.1232 79.2403 97.1914 78.8358 97.3354 78.4565C97.4795 78.0773 97.6964 77.7308 97.9736 77.4374C98.2508 77.1439 98.5828 76.9093 98.9502 76.7472C99.3176 76.5851 99.7131 76.4987 100.114 76.493C100.514 76.4998 100.908 76.5871 101.275 76.7497C101.641 76.9123 101.972 77.1471 102.248 77.4404C102.525 77.7338 102.741 78.0798 102.884 78.4585C103.028 78.8372 103.096 79.241 103.084 79.6466C103.096 80.0522 103.028 80.456 102.884 80.8347C102.741 81.2134 102.525 81.5594 102.248 81.8528C101.972 82.1461 101.641 82.3809 101.275 82.5436C100.908 82.7062 100.514 82.7934 100.114 82.8002ZM101.443 79.6817C101.597 79.4514 101.678 79.1798 101.677 78.902C101.68 78.7178 101.648 78.5346 101.581 78.3632C101.514 78.1918 101.415 78.0355 101.288 77.9034C101.168 77.769 101.021 77.6621 100.858 77.5896C100.694 77.5171 100.517 77.4807 100.338 77.4829H98.7062V81.7402H99.5697V80.2949H100.062L100.848 81.7402H101.849L100.986 80.1197C101.171 80.0126 101.327 79.8625 101.443 79.6817ZM100.649 79.2787C100.611 79.3246 100.563 79.3617 100.51 79.3874C100.456 79.4131 100.398 79.4268 100.338 79.4276H99.6042V78.3852H100.338C100.398 78.386 100.456 78.3997 100.51 78.4254C100.563 78.4511 100.611 78.4882 100.649 78.5341C100.737 78.6353 100.784 78.7671 100.779 78.902C100.785 79.0398 100.739 79.1748 100.649 79.2787Z" fill="#F2F2F2"/>
</g>
<defs>
<clipPath id="clip0_1916_1737">
<rect width="104" height="97" fill="white"/>
</clipPath>
</defs>
</svg>
