<svg id="logo-baby" width="151" height="112" viewBox="0 0 151 112" fill="none" xmlns="http://www.w3.org/2000/svg">
<g clip-path="url(#clip0_967_4049)">
<path d="M99.0027 96.3129C98.3704 96.2854 97.7396 96.3941 97.153 96.6314C96.5663 96.8687 96.0374 97.2293 95.6021 97.6886V92.4641H92.959V107.303H95.6021V106.19C96.0374 106.649 96.5663 107.01 97.153 107.247C97.7396 107.485 98.3704 107.593 99.0027 107.566C99.7113 107.574 100.414 107.432 101.064 107.15C101.714 106.868 102.297 106.451 102.774 105.927C103.778 104.842 104.335 103.418 104.335 101.939C104.335 100.461 103.778 99.0368 102.774 97.9513C102.294 97.4307 101.711 97.0161 101.061 96.734C100.412 96.4518 99.7107 96.3084 99.0027 96.3129ZM100.827 104.165C100.541 104.449 100.2 104.672 99.8255 104.821C99.4509 104.97 99.0501 105.041 98.6472 105.031C98.2438 105.045 97.8419 104.975 97.4668 104.826C97.0916 104.677 96.7514 104.452 96.4677 104.165C96.1786 103.873 95.9527 103.525 95.8038 103.142C95.6549 102.759 95.5862 102.35 95.6021 101.939C95.5865 101.531 95.6553 101.124 95.8043 100.744C95.9532 100.363 96.179 100.018 96.4677 99.7289C96.7507 99.4399 97.0904 99.2124 97.4654 99.0608C97.8405 98.9092 98.2428 98.8367 98.6472 98.8479C99.2663 98.841 99.8733 99.0202 100.389 99.3623C100.906 99.7044 101.307 100.194 101.542 100.767C101.777 101.34 101.834 101.97 101.707 102.576C101.579 103.182 101.272 103.735 100.827 104.165ZM115.325 97.6886C114.89 97.2293 114.361 96.8687 113.774 96.6314C113.188 96.3941 112.557 96.2854 111.925 96.3129C111.217 96.3084 110.515 96.4518 109.866 96.734C109.217 97.0161 108.633 97.4307 108.153 97.9513C107.149 99.0368 106.592 100.461 106.592 101.939C106.592 103.418 107.149 104.842 108.153 105.927C108.633 106.448 109.217 106.862 109.866 107.145C110.515 107.427 111.217 107.57 111.925 107.566C112.557 107.593 113.188 107.485 113.774 107.247C114.361 107.01 114.89 106.649 115.325 106.19V107.303H117.968V96.5911H115.325V97.6886ZM114.46 104.165C114.175 104.451 113.834 104.675 113.46 104.824C113.085 104.972 112.683 105.043 112.28 105.031C111.877 105.045 111.475 104.975 111.1 104.826C110.725 104.677 110.385 104.452 110.101 104.165C109.816 103.87 109.593 103.521 109.444 103.139C109.296 102.757 109.225 102.349 109.235 101.939C109.22 101.531 109.288 101.124 109.437 100.744C109.586 100.363 109.812 100.018 110.101 99.7289C110.384 99.4399 110.724 99.2124 111.099 99.0608C111.474 98.9092 111.876 98.8367 112.28 98.8479C112.69 98.8327 113.099 98.9023 113.481 99.0523C113.863 99.2023 114.21 99.4295 114.5 99.7196C114.79 100.01 115.017 100.357 115.167 100.739C115.317 101.12 115.387 101.529 115.372 101.939C115.376 102.352 115.298 102.762 115.141 103.145C114.984 103.527 114.753 103.874 114.46 104.165ZM127.428 96.3129C126.796 96.2854 126.165 96.3941 125.579 96.6314C124.992 96.8687 124.463 97.2293 124.028 97.6886V92.4641H121.384V107.303H124.028V106.19C124.463 106.649 124.992 107.01 125.579 107.247C126.165 107.485 126.796 107.593 127.428 107.566C128.137 107.574 128.839 107.432 129.489 107.15C130.139 106.868 130.722 106.451 131.2 105.927C132.204 104.842 132.761 103.418 132.761 101.939C132.761 100.461 132.204 99.0368 131.2 97.9513C130.72 97.4307 130.136 97.0161 129.487 96.734C128.837 96.4518 128.136 96.3084 127.428 96.3129ZM129.252 104.165C128.966 104.449 128.626 104.672 128.251 104.821C127.876 104.97 127.476 105.041 127.073 105.031C126.669 105.045 126.267 104.975 125.892 104.826C125.517 104.677 125.177 104.452 124.893 104.165C124.604 103.873 124.378 103.525 124.229 103.142C124.08 102.759 124.012 102.35 124.028 101.939C124.012 101.531 124.081 101.124 124.23 100.744C124.379 100.363 124.605 100.018 124.893 99.7289C125.176 99.4399 125.516 99.2124 125.891 99.0608C126.266 98.9092 126.668 98.8367 127.073 98.8479C127.692 98.841 128.299 99.0202 128.815 99.3623C129.331 99.7044 129.733 100.194 129.967 100.767C130.202 101.34 130.26 101.97 130.132 102.576C130.005 103.182 129.698 103.735 129.252 104.165ZM145.003 96.5911L140.938 107.504C139.979 110.116 138.325 111.43 136.069 111.43H135.512V108.926H135.729C136.276 108.985 136.825 108.842 137.274 108.524C137.738 108.11 138.075 107.575 138.248 106.978L138.325 106.839L133.874 96.5293H136.749L139.67 103.624L142.174 96.5293L145.003 96.5911Z" fill="white"/>
<path d="M63.5447 64.3942C65.4786 63.2527 67.6828 62.6496 69.9284 62.6475V68.9386C68.2353 68.9386 66.6116 69.6112 65.4144 70.8083C64.2172 72.0055 63.5447 73.6293 63.5447 75.3223V82.5099V87.5179H57.2691V82.5099V75.3223V63.1885H62.2772L63.5447 64.456V64.3942ZM137.414 75.1059L146.116 87.4716H138.743L133.735 80.3304L128.712 87.4716H121.354L130.041 75.1059L121.648 63.1885H129.021L133.735 69.9124L138.372 63.1885H145.745L137.414 75.1059ZM48.9069 63.1885H47.9949L46.7274 64.456C44.804 63.3313 42.6178 62.7342 40.3897 62.7249C38.1616 62.7157 35.9705 63.2947 34.0378 64.4034C32.1052 65.5121 30.4993 67.1113 29.3826 69.0393C28.2659 70.9674 27.6778 73.1561 27.6778 75.3842C27.6778 77.6123 28.2659 79.8009 29.3826 81.729C30.4993 83.6571 32.1052 85.2562 34.0378 86.3649C35.9705 87.4736 38.1616 88.0526 40.3897 88.0434C42.6178 88.0341 44.804 87.437 46.7274 86.3123L47.9949 87.5798H53.0029V75.3842V63.1885H48.845H48.9069ZM40.4055 81.737C39.1429 81.737 37.9086 81.3626 36.8588 80.6611C35.809 79.9597 34.9907 78.9627 34.5076 77.7962C34.0244 76.6297 33.898 75.3462 34.1444 74.1078C34.3907 72.8695 34.9987 71.732 35.8915 70.8392C36.7843 69.9465 37.9217 69.3385 39.1601 69.0922C40.3984 68.8458 41.6819 68.9723 42.8484 69.4554C44.0149 69.9386 45.0119 70.7568 45.7134 71.8066C46.4148 72.8564 46.7892 74.0906 46.7892 75.3532C46.7892 77.0463 46.1167 78.6701 44.9195 79.8672C43.7223 81.0644 42.0986 81.737 40.4055 81.737ZM89.2961 64.4097C87.3727 63.285 85.1865 62.6878 82.9584 62.6786C80.7303 62.6693 78.5393 63.2483 76.6066 64.357C74.674 65.4657 73.0681 67.0649 71.9514 68.993C70.8347 70.921 70.2466 73.1097 70.2466 75.3378C70.2466 77.5659 70.8347 79.7546 71.9514 81.6826C73.0681 83.6107 74.674 85.2098 76.6066 86.3186C78.5393 87.4273 80.7303 88.0062 82.9584 87.997C85.1865 87.9878 87.3727 87.3906 89.2961 86.2659L90.5636 87.5334H95.5871V68.1193V53.9143H89.2961V64.4097ZM82.9124 81.737C81.6498 81.737 80.4155 81.3626 79.3657 80.6611C78.3159 79.9597 77.4977 78.9627 77.0145 77.7962C76.5313 76.6297 76.4049 75.3462 76.6513 74.1078C76.8976 72.8695 77.5056 71.732 78.3984 70.8392C79.2912 69.9465 80.4286 69.3385 81.667 69.0922C82.9053 68.8458 84.1888 68.9723 85.3553 69.4554C86.5218 69.9386 87.5188 70.7568 88.2203 71.8066C88.9217 72.8564 89.2961 74.0906 89.2961 75.3532C89.2961 77.0463 88.6236 78.6701 87.4264 79.8672C86.2292 81.0644 84.6055 81.737 82.9124 81.737ZM110.905 81.737C109.731 81.7349 108.581 81.4092 107.58 80.7956C106.579 80.182 105.767 79.3044 105.232 78.2592H123.224C123.46 77.3085 123.58 76.3327 123.58 75.3532C123.639 73.6525 123.356 71.9573 122.746 70.3686C122.136 68.7799 121.212 67.3303 120.03 66.1061C118.848 64.882 117.432 63.9084 115.865 63.2435C114.299 62.5786 112.615 62.2359 110.913 62.2359C109.211 62.2359 107.527 62.5786 105.96 63.2435C104.394 63.9084 102.977 64.882 101.795 66.1061C100.613 67.3303 99.6897 68.7799 99.0798 70.3686C98.47 71.9573 98.1863 73.6525 98.2458 75.3532C98.2458 75.8324 98.2458 76.3116 98.2458 76.7753V77.0535C98.29 77.4282 98.3572 77.7999 98.4467 78.1664C98.4395 78.1969 98.4395 78.2287 98.4467 78.2592C98.9649 80.4526 100.059 82.468 101.617 84.097C103.174 85.7261 105.139 86.9098 107.307 87.5259C109.475 88.1419 111.768 88.168 113.949 87.6014C116.131 87.0348 118.121 85.8961 119.716 84.3029L115.279 79.8667C114.115 81.0278 112.549 81.6973 110.905 81.737ZM110.905 68.9695C112.08 68.968 113.232 69.2923 114.233 69.9063C115.235 70.5202 116.046 71.3998 116.578 72.4473H105.186C105.717 71.387 106.534 70.4964 107.545 69.8763C108.555 69.2562 109.719 68.9314 110.905 68.9386V68.9695ZM21.1769 63.1885H20.3267L19.0593 64.456C17.1359 63.3313 14.9496 62.7342 12.7216 62.7249C10.4935 62.7157 8.30244 63.2947 6.36976 64.4034C4.43709 65.5121 2.83125 67.1113 1.71453 69.0393C0.597812 70.9674 0.00976562 73.1561 0.00976562 75.3842C0.00976562 77.6123 0.597812 79.8009 1.71453 81.729C2.83125 83.6571 4.43709 85.2562 6.36976 86.3649C8.30244 87.4736 10.4935 88.0526 12.7216 88.0434C14.9496 88.0341 17.1359 87.437 19.0593 86.3123V87.9198C19.0807 89.4243 18.5701 90.888 17.6175 92.0526C16.6648 93.2173 15.3315 94.008 13.8526 94.2853C12.3738 94.5626 10.8445 94.3086 9.53467 93.5682C8.22484 92.8277 7.21865 91.6484 6.69364 90.2384L2.05652 94.8755C3.542 97.1045 5.69611 98.8048 8.20916 99.7319C10.7222 100.659 13.4646 100.765 16.0417 100.035C18.6189 99.3047 20.8981 97.7759 22.5513 95.6683C24.2045 93.5608 25.1466 90.9832 25.2421 88.3063V63.1885H21.0842H21.1769ZM19.0593 75.3996C19.0593 76.6622 18.6849 77.8965 17.9834 78.9463C17.2819 79.9961 16.2849 80.8143 15.1184 81.2975C13.9519 81.7806 12.6684 81.9071 11.4301 81.6607C10.1918 81.4144 9.0543 80.8064 8.16151 79.9136C7.26873 79.0208 6.66071 77.8834 6.41439 76.645C6.16807 75.4067 6.29443 74.1231 6.77761 72.9567C7.26078 71.7902 8.079 70.7932 9.12881 70.0917C10.1786 69.3903 11.4129 69.0158 12.6755 69.0158C14.3686 69.0158 15.9923 69.6884 17.1895 70.8856C18.3867 72.0828 19.0593 73.7065 19.0593 75.3996Z" fill="#1D1D1B"/>
<path d="M106.438 6.18289H100.379C98.4915 3.79893 95.9738 1.99179 93.1114 0.966624C90.249 -0.0585428 87.1565 -0.260663 84.185 0.383211C81.2136 1.02708 78.4821 2.49115 76.3008 4.60921C74.1195 6.72727 72.5758 9.41446 71.8448 12.3657C70.9128 9.00098 68.9047 6.03397 66.1274 3.9182C63.3501 1.80242 59.9564 0.654268 56.465 0.649257H40.4824V16.6319C40.4816 19.0219 41.0188 21.3814 42.0544 23.5355C43.0899 25.6895 44.5972 27.5828 46.4643 29.0748C46.6529 35.6684 49.395 41.931 54.1123 46.5418C58.8295 51.1525 65.1531 53.751 71.7493 53.7891C78.3455 53.8271 84.6986 51.3019 89.4688 46.746C94.2389 42.19 97.0532 35.9595 97.318 29.3685C100.014 27.3925 102.032 24.6304 103.095 21.4614C104.157 18.2923 104.213 14.872 103.254 11.6702L104.706 9.18156L106.438 6.18289Z" fill="#1D1D1B"/>
<path d="M60.3595 18.5021L56.2633 14.406V5.20898H56.5107C57.8232 5.21227 59.1253 5.44236 60.3595 5.8891V18.5021ZM45.0879 7.20296V13.5713H51.4717L45.0879 7.20296ZM53.4502 5.20898H47.0664L53.4502 11.5928V5.20898ZM54.2694 16.3845H45.0879V16.6318C45.0912 17.9443 45.3213 19.2464 45.768 20.4806H58.3655L54.2694 16.3845ZM47.2519 23.2938C48.1468 24.5403 49.2845 25.5929 50.5967 26.3883C51.909 27.1837 53.3686 27.7053 54.8877 27.9219C56.4068 28.1385 57.954 28.0456 59.4362 27.6487C60.9185 27.2517 62.3051 26.5591 63.5127 25.6123L61.1787 23.2938H47.2519ZM63.1572 7.37301V21.2844L65.4912 23.6183C66.4393 22.4107 67.1328 21.0233 67.5297 19.5402C67.9266 18.057 68.0188 16.5087 67.8006 14.9889C67.5825 13.4691 67.0585 12.0094 66.2604 10.6977C65.4623 9.38608 64.4067 8.2498 63.1572 7.35754V7.37301Z" fill="#A2D45E"/>
<path d="M87.6418 28.0082C85.3208 28.0082 83.0519 27.3198 81.1223 26.03C79.1927 24.7402 77.6889 22.907 76.8014 20.7624C75.9139 18.6177 75.6826 16.2581 76.1365 13.9819C76.5904 11.7057 77.7093 9.61527 79.3516 7.97515C80.9939 6.33503 83.0857 5.21891 85.3625 4.76798C87.6393 4.31705 89.9987 4.55159 92.1422 5.44192C94.2856 6.33225 96.1167 7.83835 97.404 9.76969C98.6913 11.701 99.3767 13.9708 99.3737 16.2918C99.3696 19.4006 98.1318 22.3807 95.9321 24.5775C93.7324 26.7743 90.7507 28.0082 87.6418 28.0082ZM71.8911 49.4163C66.9091 49.4098 62.093 47.625 58.3099 44.3832C54.5269 41.1414 52.0254 36.6556 51.2559 31.7334C53.3449 32.451 55.5601 32.7278 57.7615 32.5463C59.9629 32.3647 62.1028 31.7289 64.0461 30.6788C65.9895 29.6287 67.694 28.1872 69.0522 26.4452C70.4104 24.7033 71.3928 22.6987 71.9374 20.558C72.5131 22.6705 73.5087 24.6453 74.8648 26.3644C76.2208 28.0835 77.9094 29.5116 79.8298 30.5635C81.7502 31.6153 83.8629 32.2692 86.0417 32.4861C88.2205 32.7031 90.4207 32.4786 92.5107 31.8261C91.7246 36.7301 89.2176 41.1938 85.4391 44.4172C81.6606 47.6405 76.8577 49.4128 71.8911 49.4163Z" fill="#F3BD48"/>
<path d="M93.114 9.08877C92.2786 8.86491 91.3955 8.89371 90.5765 9.17156C89.7574 9.44941 89.0391 9.96384 88.5124 10.6498C87.9856 11.3358 87.674 12.1625 87.6169 13.0255C87.5599 13.8886 87.76 14.7491 88.1919 15.4984C88.6238 16.2478 89.2681 16.8523 90.0434 17.2355C90.8188 17.6188 91.6903 17.7636 92.5479 17.6516C93.4056 17.5397 94.2108 17.176 94.8618 16.6065C95.5128 16.0371 95.9803 15.2875 96.2054 14.4524C96.3572 13.8972 96.3975 13.3174 96.324 12.7466C96.2505 12.1757 96.0647 11.6251 95.7773 11.1264C95.4899 10.6278 95.1065 10.191 94.6494 9.84125C94.1923 9.49151 93.6705 9.23577 93.114 9.08877Z" fill="#1D1D1B"/>
<path d="M146.735 71.0406C145.886 71.0375 145.056 71.2864 144.35 71.7557C143.644 72.225 143.092 72.8935 142.766 73.6765C142.44 74.4595 142.354 75.3217 142.519 76.1537C142.684 76.9857 143.092 77.75 143.692 78.3497C144.291 78.9494 145.056 79.3575 145.888 79.5222C146.72 79.6869 147.582 79.6009 148.365 79.2749C149.148 78.9489 149.816 78.3977 150.286 77.6913C150.755 76.9848 151.004 76.1548 151.001 75.3067C151.001 74.1753 150.551 73.0902 149.751 72.2901C148.951 71.4901 147.866 71.0406 146.735 71.0406ZM146.735 78.7691C146.057 78.7999 145.386 78.6274 144.807 78.2736C144.228 77.9199 143.768 77.4011 143.486 76.784C143.205 76.1669 143.114 75.4797 143.226 74.8107C143.338 74.1416 143.648 73.5214 144.115 73.0296C144.582 72.5379 145.186 72.1972 145.848 72.0512C146.511 71.9052 147.202 71.9607 147.832 72.2105C148.463 72.4603 149.005 72.8931 149.387 73.4531C149.77 74.0131 149.977 74.6748 149.98 75.3531C149.993 76.2292 149.659 77.0749 149.051 77.7059C148.443 78.337 147.611 78.7024 146.735 78.7227V78.7691ZM148.187 75.3995C148.348 75.1507 148.434 74.8609 148.435 74.5648C148.441 74.1636 148.292 73.7756 148.017 73.4828C147.883 73.3395 147.72 73.2256 147.539 73.1484C147.358 73.0713 147.163 73.0325 146.966 73.0345H145.189V77.6716H146.163V76.1259H146.704L147.569 77.6716H148.667L147.693 75.9096C147.901 75.7672 148.07 75.5761 148.187 75.3531V75.3995ZM147.306 74.9667C147.266 75.0171 147.214 75.0573 147.155 75.0841C147.096 75.1109 147.031 75.1237 146.966 75.1212H146.163V74.0083H146.92C146.985 74.0059 147.049 74.0186 147.108 74.0455C147.167 74.0723 147.219 74.1125 147.26 74.1629C147.361 74.2725 147.416 74.4161 147.415 74.5648C147.416 74.6916 147.378 74.8157 147.306 74.9203V74.9667Z" fill="#1D1D1B"/>
</g>
<defs>
<clipPath id="clip0_967_4049">
<rect width="151" height="111.43" fill="white"/>
</clipPath>
</defs>
</svg>
