<svg id="logo-font" width="104" height="32" viewBox="0 0 104 32" fill="none" xmlns="http://www.w3.org/2000/svg">
<g clip-path="url(#clip0_939_2015)">
<path d="M42.8987 7.16561C44.2071 6.38432 45.698 5.97295 47.2162 5.97427V10.2754C46.0712 10.2754 44.973 10.7368 44.1633 11.5582C43.3536 12.3796 42.8987 13.4937 42.8987 14.6553V19.5872V23.0211H38.7021V19.5872V14.6466V6.28962H42.0871L42.9506 7.16561H42.8987ZM92.7745 14.5064L98.6463 23.0123H93.6639L90.2876 18.1067L86.9027 23.0123H81.929L87.7921 14.5064L82.1276 6.28962H87.1013L90.2876 10.8973L93.4653 6.28962H98.4391L92.7745 14.5064ZM33.0117 6.28962H32.4417L31.5782 7.16561C30.2697 6.38471 28.7789 5.97337 27.2607 5.97427C24.9935 5.97427 22.8191 6.88798 21.2159 8.51435C19.6127 10.1407 18.7121 12.3465 18.7121 14.6466C18.7121 16.9474 19.6125 19.1542 21.2154 20.7819C22.8183 22.4097 24.9927 23.3254 27.2607 23.3277C28.7789 23.3286 30.2697 22.9172 31.5782 22.1363L32.4417 23.0123H35.8267V14.6466V6.28962H33.0117ZM27.2694 19.0178C26.1243 19.0178 25.0261 18.5563 24.2164 17.7349C23.4067 16.9135 22.9519 15.7995 22.9519 14.6379C22.9519 13.4762 23.4067 12.3621 24.2164 11.5407C25.0261 10.7193 26.1243 10.2579 27.2694 10.2579C28.4145 10.2579 29.5126 10.7193 30.3223 11.5407C31.132 12.3621 31.5869 13.4762 31.5869 14.6379C31.5869 15.213 31.4752 15.7826 31.2582 16.314C31.0413 16.8454 30.7232 17.3282 30.3223 17.7349C29.9214 18.1417 29.4454 18.4643 28.9216 18.6844C28.3978 18.9045 27.8364 19.0178 27.2694 19.0178ZM60.2896 7.15684C58.9812 6.37555 57.4904 5.96418 55.9721 5.96551C53.7041 5.96551 51.5288 6.87892 49.9243 8.50505C48.3197 10.1312 47.4171 12.337 47.4148 14.6379C47.4148 15.7779 47.6362 16.9067 48.0662 17.9599C48.4963 19.0132 49.1266 19.9702 49.9212 20.7763C50.7158 21.5824 51.6592 22.2219 52.6974 22.6581C53.7356 23.0944 54.8484 23.3189 55.9721 23.3189C57.4904 23.3202 58.9812 22.9089 60.2896 22.1276L61.1531 23.0036H64.5381V9.72349V0H60.2896V7.15684ZM55.9721 19.0178C54.8271 19.0178 53.7289 18.5563 52.9192 17.7349C52.1095 16.9135 51.6546 15.7995 51.6546 14.6379C51.6546 13.4762 52.1095 12.3621 52.9192 11.5407C53.7289 10.7193 54.8271 10.2579 55.9721 10.2579C57.1172 10.2579 58.2154 10.7193 59.0251 11.5407C59.8347 12.3621 60.2896 13.4762 60.2896 14.6379C60.2896 15.213 60.1779 15.7826 59.961 16.314C59.744 16.8454 59.426 17.3282 59.0251 17.7349C58.6241 18.1417 58.1482 18.4643 57.6244 18.6844C57.1005 18.9045 56.5391 19.0178 55.9721 19.0178ZM74.8655 19.0178C74.0733 19.017 73.2965 18.7951 72.6203 18.3764C71.9441 17.9577 71.3944 17.3583 71.0316 16.6439H83.1897C83.3427 15.9894 83.421 15.3192 83.4228 14.6466C83.4205 12.3457 82.5179 10.1399 80.9134 8.51382C79.3088 6.88769 77.1336 5.97427 74.8655 5.97427C72.5983 5.97427 70.4239 6.88798 68.8207 8.51435C67.2175 10.1407 66.3169 12.3465 66.3169 14.6466C66.315 14.9717 66.3351 15.2966 66.3773 15.619C66.3725 15.6831 66.3725 15.7475 66.3773 15.8117C66.4118 16.0744 66.455 16.3285 66.5069 16.5738C66.5069 16.5738 66.5069 16.6176 66.5069 16.6439C66.9498 18.5444 68.0114 20.238 69.5203 21.4508C71.0293 22.6636 72.8972 23.3249 74.8223 23.3277C75.9452 23.3295 77.0574 23.106 78.0947 22.67C79.1321 22.234 80.0742 21.5942 80.8668 20.7873L77.8705 17.7388C77.0741 18.5449 75.9991 19.0038 74.8742 19.0178H74.8655ZM74.8655 10.2579C75.6587 10.2595 76.436 10.4826 77.1123 10.903C77.7887 11.3233 78.3378 11.9245 78.6995 12.6406H71.0316C71.3963 11.9264 71.9477 11.3279 72.6256 10.9107C73.3034 10.4935 74.0814 10.2737 74.8742 10.2754L74.8655 10.2579ZM14.2823 6.27208H13.7038L12.8403 7.14807C11.5322 6.36598 10.0411 5.95455 8.52277 5.95674C6.25553 5.95674 4.08116 6.87044 2.47798 8.49682C0.874794 10.1232 -0.0258789 12.329 -0.0258789 14.6291C-0.0258801 16.9299 0.874514 19.1367 2.47745 20.7645C4.08039 22.3922 6.25473 23.3078 8.52277 23.3101C10.0411 23.3123 11.5322 22.9009 12.8403 22.1188V23.3189C12.8403 24.4806 12.3854 25.5946 11.5757 26.416C10.766 27.2374 9.66784 27.6989 8.52277 27.6989C7.65654 27.6959 6.81121 27.4286 6.09668 26.9318C5.38214 26.4351 4.83145 25.7317 4.51614 24.9132L1.38163 28.0931C2.15868 29.2945 3.21838 30.2808 4.4651 30.9628C5.71182 31.6449 7.10631 32.0013 8.52277 32C10.7458 32.001 12.8819 31.1235 14.4778 29.5535C16.0737 27.9835 17.0041 25.8447 17.0714 23.5905V6.28962H14.2651L14.2823 6.27208ZM12.8489 14.6291C12.8489 15.7907 12.394 16.9048 11.5843 17.7262C10.7747 18.5476 9.67649 19.009 8.53141 19.009C7.38634 19.009 6.28818 18.5476 5.47849 17.7262C4.6688 16.9048 4.21391 15.7907 4.21391 14.6291C4.21391 13.4674 4.6688 12.3534 5.47849 11.532C6.28818 10.7106 7.38634 10.2491 8.53141 10.2491C9.67649 10.2491 10.7747 10.7106 11.5843 11.532C12.394 12.3534 12.8489 13.4674 12.8489 14.6291Z" fill="#1D1D1B"/>
<path d="M100.088 10.6783C99.5736 10.6759 99.0635 10.7769 98.5874 10.9754C98.1113 11.1739 97.6786 11.466 97.3142 11.8348C96.9498 12.2037 96.661 12.642 96.4643 13.1245C96.2676 13.6071 96.1669 14.1243 96.168 14.6465C96.1657 15.1694 96.2656 15.6876 96.4618 16.1712C96.658 16.6547 96.9467 17.0941 97.3112 17.4638C97.6756 17.8336 98.1087 18.1265 98.5854 18.3255C99.062 18.5245 99.5728 18.6258 100.088 18.6235C100.603 18.6247 101.113 18.5225 101.589 18.323C102.064 18.1234 102.496 17.8304 102.86 17.4607C103.223 17.0911 103.511 16.6521 103.707 16.1691C103.903 15.6862 104.002 15.1687 104 14.6465C104.001 14.125 103.901 13.6085 103.705 13.1265C103.508 12.6446 103.22 12.2067 102.857 11.8379C102.493 11.4692 102.062 11.177 101.587 10.978C101.111 10.779 100.602 10.6771 100.088 10.6783ZM100.088 17.8001C99.6877 17.7944 99.2922 17.708 98.9248 17.5459C98.5574 17.3838 98.2254 17.1492 97.9482 16.8558C97.671 16.5623 97.4541 16.2159 97.31 15.8366C97.166 15.4573 97.0978 15.0528 97.1092 14.6465C97.0978 14.2402 97.166 13.8357 97.31 13.4564C97.4541 13.0772 97.671 12.7307 97.9482 12.4373C98.2254 12.1438 98.5574 11.9092 98.9248 11.7471C99.2922 11.5849 99.6877 11.4986 100.088 11.4929C100.488 11.4997 100.883 11.5869 101.249 11.7496C101.616 11.9122 101.947 12.147 102.223 12.4403C102.499 12.7336 102.715 13.0797 102.859 13.4584C103.002 13.8371 103.07 14.2409 103.059 14.6465C103.07 15.052 103.002 15.4559 102.859 15.8346C102.715 16.2133 102.499 16.5593 102.223 16.8527C101.947 17.146 101.616 17.3808 101.249 17.5434C100.883 17.7061 100.488 17.7933 100.088 17.8001ZM101.418 14.6816C101.571 14.4513 101.652 14.1796 101.651 13.9019C101.655 13.7176 101.622 13.5345 101.556 13.3631C101.489 13.1917 101.389 13.0354 101.263 12.9033C101.143 12.7689 100.996 12.662 100.832 12.5895C100.669 12.517 100.491 12.4806 100.313 12.4828H98.6808V16.7401H99.5443V15.2948H100.036L100.822 16.7401H101.824L100.96 15.1195C101.145 15.0125 101.302 14.8624 101.418 14.6816ZM100.624 14.2786C100.585 14.3245 100.538 14.3616 100.484 14.3873C100.431 14.413 100.372 14.4267 100.313 14.4275H99.5788V13.385H100.313C100.372 13.3859 100.431 13.3996 100.484 13.4253C100.538 13.451 100.585 13.4881 100.624 13.534C100.712 13.6352 100.758 13.7669 100.753 13.9019C100.76 14.0397 100.713 14.1747 100.624 14.2786Z" fill="#1D1D1B"/>
</g>
<defs>
<clipPath id="clip0_939_2015">
<rect width="104" height="32" fill="white"/>
</clipPath>
</defs>
</svg>
