<svg id="market" width="89" height="25" viewBox="0 0 89 25" fill="none" xmlns="http://www.w3.org/2000/svg">
<path fill-rule="evenodd" clip-rule="evenodd" d="M7.37281 20.7083H10.4244L14.6867 5.12162V20.7083H18.1213V0.100342H13.3895L9.11481 15.2371L4.85246 0.100342H0.0341797V20.7083H2.99927V5.12162L7.36044 20.7083H7.37281ZM32.4774 10.4955C32.4774 6.84808 30.6242 5.48639 26.8313 5.48639C24.9522 5.47134 23.1024 5.94527 21.4694 6.86022V9.76601C22.9381 8.81842 24.6551 8.31151 26.4112 8.30703C28.1779 8.30703 28.8822 8.95143 28.8822 10.4955V11.3222H28.3262C22.8531 11.3222 20.3575 13.1459 20.3575 16.1855C20.3868 17.1231 20.691 18.0324 21.2335 18.8037C21.776 19.575 22.5336 20.1755 23.415 20.5328C24.2965 20.89 25.2641 20.9888 26.2012 20.8171C27.1383 20.6455 28.005 20.2108 28.6968 19.5654H28.8822C28.9195 19.9805 29.0108 20.3891 29.154 20.7812H32.675C32.5885 19.5654 32.4897 18.3496 32.4897 17.1338V10.5684L32.4774 10.4955ZM28.8822 17.1581C28.5837 17.554 28.191 17.8719 27.7387 18.0839C27.2864 18.2959 26.7882 18.3954 26.2877 18.3739C25.989 18.3999 25.6882 18.3612 25.4063 18.2604C25.1245 18.1597 24.8686 17.9993 24.6566 17.7907C24.4445 17.582 24.2816 17.3301 24.1792 17.0528C24.0768 16.7755 24.0374 16.4794 24.0639 16.1855C24.0639 14.459 25.2993 13.8146 28.4127 13.8146H28.9687V17.1946L28.8822 17.1581ZM38.7041 5.766H35.3683V25H38.9759V18.921C39.3778 19.5524 39.9403 20.0696 40.6077 20.4215C41.2751 20.7733 42.0242 20.9476 42.7811 20.9271C46.3021 20.9271 48.7113 18.1915 48.7113 13.1702C48.7113 8.14897 46.3886 5.42558 42.9664 5.42558C42.1534 5.41705 41.3518 5.61373 40.638 5.99686C39.9243 6.37998 39.3223 6.93678 38.8894 7.61405L38.7041 5.69305V5.766ZM41.7557 18.2523C39.9025 18.2523 38.8894 16.6961 38.8894 13.3283C38.8894 9.96053 39.9025 8.30703 41.941 8.30703C43.9795 8.30703 44.9061 9.86328 44.9061 13.2311C44.9061 16.5988 43.893 18.2523 41.7557 18.2523ZM59.9169 20.684H63.9939L58.249 12.6596L63.3515 5.7417H59.7686L54.6786 12.6718V5.7417H51.0587V20.6961H54.6786V13.4013L59.954 20.6961L59.9169 20.684ZM76.0397 19.687C74.4879 20.6353 72.6734 21.0816 70.8507 20.9636C66.3166 20.9636 63.7221 18.4104 63.7221 13.2067C63.7221 8.64745 65.8471 5.3648 70.2083 5.3648C73.8158 5.3648 76.1385 7.28578 76.1385 12.4773V14.3982H67.4903C67.6756 16.9514 68.7257 18.1308 71.2955 18.1308C72.9653 18.1084 74.5972 17.6375 76.0149 16.7691V19.687H76.0397ZM70.1959 8.3192C68.528 8.3192 67.6015 9.535 67.5026 11.8815H72.5062V11.6019C72.5062 9.77818 71.9503 8.3192 70.1959 8.3192ZM88.9996 8.59885V5.766H76.9539V8.59885H81.2162V20.7569H84.8361V8.59885H88.9996Z" fill="black"/>
</svg>
