<svg width="35" height="35" viewBox="0 0 35 35" fill="none" xmlns="http://www.w3.org/2000/svg">
<rect width="35" height="35" rx="3.6" fill="#F3BD48"/>
<path d="M16.2957 21.2984C14.722 21.1343 13.3031 20.7467 12.0883 19.7966C11.9375 19.6784 11.7819 19.5644 11.6443 19.4324C11.1126 18.9217 11.059 18.3368 11.4798 17.7341C11.8397 17.2183 12.4439 17.0803 13.072 17.3765C13.1936 17.4339 13.3095 17.5055 13.4204 17.5825C15.6845 19.1381 18.7946 19.1811 21.0672 17.6525C21.2923 17.4798 21.533 17.3391 21.8119 17.2672C22.3543 17.128 22.8601 17.3272 23.1511 17.8017C23.4836 18.3436 23.4794 18.8726 23.0697 19.2933C22.4412 19.9384 21.6854 20.405 20.8456 20.7308C20.0516 21.0386 19.1818 21.1936 18.321 21.2965C18.4509 21.4379 18.5121 21.5074 18.5933 21.589C19.7622 22.7635 20.9362 23.933 22.1013 25.111C22.4982 25.5124 22.5811 26.0101 22.3626 26.477C22.1236 26.9873 21.5887 27.323 21.0642 27.2871C20.7319 27.2641 20.4727 27.0987 20.2425 26.8667C19.3604 25.9791 18.4617 25.1079 17.5975 24.2034C17.346 23.9404 17.225 23.9902 17.003 24.2185C16.1156 25.1321 15.2137 26.0316 14.3066 26.926C13.8992 27.3277 13.4145 27.3999 12.9421 27.1705C12.4399 26.9271 12.1204 26.4145 12.145 25.8994C12.162 25.5509 12.3334 25.2847 12.5726 25.046C13.7293 23.8909 14.8829 22.7329 16.037 21.5759C16.1133 21.4989 16.1845 21.4173 16.2957 21.2984Z" fill="#163029"/>
<path d="M17.2544 17.275C14.4469 17.2654 12.1448 14.938 12.1612 12.1261C12.1774 9.28318 14.4809 6.99215 17.316 7.00002C20.1569 7.00767 22.437 9.33165 22.4228 12.2042C22.4083 15.0103 20.0903 17.2848 17.2544 17.275ZM19.8058 12.1329C19.801 10.7368 18.689 9.62526 17.2956 9.62398C15.8905 9.6225 14.7686 10.7542 14.7794 12.1631C14.7899 13.554 15.9114 14.6576 17.3086 14.6525C18.7016 14.6476 19.8105 13.5289 19.8058 12.1329Z" fill="#163029"/>
</svg>
