<svg id="ot-full" width="203" height="60" viewBox="0 0 203 60" fill="none" xmlns="http://www.w3.org/2000/svg">
<g clip-path="url(#clip0_967_2827)">
<path d="M202.968 53.0787C202.968 54.4816 201.846 55.6039 200.444 55.6039H155.246C153.844 55.6039 152.723 54.4816 152.723 53.0787V7.52922C152.723 6.12628 153.844 5.00391 155.246 5.00391H200.42C201.822 5.00391 202.944 6.12628 202.944 7.52922L202.968 53.0787Z" fill="#F47524"/>
<path d="M128.625 50.8808V35.191H112.079V39.7271C112.079 43.8661 111.518 47.5837 110.373 50.8573H108.34V60H113.248V55.5573H125.844V60H130.752V50.8573H128.625V50.8808ZM122.526 50.8808H116.239C117.174 46.7653 117.618 43.2813 117.618 40.4755V40.2181H122.526V50.8808Z" fill="#0F87C9"/>
<path d="M101.47 30.187C101.306 31.3094 100.722 32.315 99.8344 33.0163C97.9182 34.4425 95.3002 34.4425 93.384 33.0163C92.4961 32.3381 91.9113 31.3329 91.748 30.2105H94.0615C94.4359 31.3794 95.2767 31.9408 96.5389 31.9408C97.8946 31.9408 98.7589 31.3563 99.1334 30.2105L101.47 30.187Z" fill="#0F87C9"/>
<path d="M105.934 35.3079V55.6976H100.208V44.4974L92.8699 55.6976H87.0742V35.3079H92.8464V46.5784L100.232 35.3079H105.934Z" fill="#0F87C9"/>
<path d="M67.1152 35.191H83.4512V39.54H73.2383V42.7902H82.7031V46.9523H73.2383V50.9508H83.755V55.5805H67.1152V35.191Z" fill="#0F87C9"/>
<path d="M62.3021 36.8276C61.2038 35.7521 59.5444 35.191 57.3243 35.191H47.1816V55.5805H53.3046V48.0282H56.6465C59.1005 48.0282 60.9466 47.4434 62.1385 46.2976C63.3305 45.1518 63.9381 43.5386 63.9381 41.4576C63.9381 39.4466 63.4005 37.9034 62.3021 36.8276ZM57.3009 43.2579C56.8335 43.6789 55.9921 43.8892 54.8004 43.8892H53.3046V39.3297H55.0574C56.2025 39.3297 56.9971 39.5634 57.3946 40.0079C57.8151 40.4521 58.0486 41.0366 58.0255 41.6445C58.0255 42.2526 57.7683 42.8605 57.3009 43.2579Z" fill="#0F87C9"/>
<path d="M25.8906 35.191H44.4698V40.2181H38.23V55.5805H32.1304V40.2181H25.8906V35.191Z" fill="#0F87C9"/>
<path d="M113.273 4.98047H119.373V12.0888H126.01V4.98047H132.133V25.3001H126.01V17.0693H119.373V25.3001H113.273V4.98047Z" fill="#0F87C9"/>
<path d="M104.72 0C104.58 1.12236 103.972 2.12783 103.084 2.80592C102.173 3.53079 101.028 3.92829 99.8595 3.88153C98.6906 3.90492 97.5453 3.53079 96.6339 2.80592C95.746 2.12783 95.162 1.12236 95.0215 0H97.3357C97.7093 1.14575 98.5273 1.73032 99.8124 1.73032C101.168 1.73032 102.032 1.14575 102.407 0H104.72Z" fill="#0F87C9"/>
<path d="M109.184 4.98047V25.3001H103.458V14.1465L96.1432 25.3001H90.3711V4.98047H96.1197V16.2275L103.505 4.98047H109.184Z" fill="#0F87C9"/>
<path d="M81.045 4.98047H74.3849L66.9766 25.3001H73.1929L74.1745 21.9563H81.0686L82.0499 25.3001H88.4304L81.045 4.98047ZM75.4599 17.5604L77.6099 10.265L79.76 17.5604H75.4599Z" fill="#0F87C9"/>
<path d="M64.9206 25.3001H58.8444V9.98433H54.0767V16.2275C54.0767 18.7996 53.9365 20.6936 53.6796 21.8861C53.4691 23.0085 52.8148 23.9672 51.8332 24.5518C50.8519 25.113 49.2859 25.3935 47.136 25.3935C46.3648 25.3935 45.5934 25.3234 44.8457 25.1831V21.0444H45.757C46.575 21.0444 47.1594 20.8573 47.4866 20.4832C47.8138 20.1091 48.0006 19.431 48.0006 18.4255V4.98047H64.9206V25.3001Z" fill="#0F87C9"/>
<path d="M23.9531 4.98047H30.0292V12.0888H36.6898V4.98047H42.7894V25.3001H36.6898V17.0693H30.0292V25.3001H23.9531V4.98047Z" fill="#0F87C9"/>
<path d="M17.9933 7.36559C16.2172 5.56512 13.6932 4.6532 10.4214 4.6532C7.21973 4.6532 4.71913 5.56512 2.94302 7.43575C1.12014 9.25957 0.115234 12.4864 0.115234 15.7834C0.115234 18.1684 0.699486 19.5012 1.61091 21.0679C2.4055 22.541 3.64411 23.7569 5.1398 24.5285C6.58873 25.2534 8.43496 25.6275 10.6551 25.6275C12.8753 25.6275 14.6747 25.2066 16.1237 24.3648C17.5727 23.5464 18.7411 22.3071 19.489 20.8106C20.2602 19.2908 20.6575 17.35 20.6575 14.965C20.6341 11.7382 19.7694 9.18946 17.9933 7.36559ZM13.4829 19.6181C12.7584 20.4833 11.7535 20.9276 10.4448 20.9276C9.13605 20.9276 8.15455 20.4833 7.43006 19.5948C6.70558 18.7062 6.33165 17.2331 6.33165 15.1754C6.33165 13.1177 6.70558 11.6213 7.45342 10.7327C8.17787 9.84415 9.27632 9.35314 10.4214 9.39984C11.7068 9.39984 12.7117 9.84415 13.4595 10.7327C14.2073 11.6213 14.5813 13.0008 14.5813 14.9182C14.5579 17.1629 14.2073 18.7529 13.4829 19.6181Z" fill="#0F87C9"/>
<path fill-rule="evenodd" clip-rule="evenodd" d="M142.437 26.9135C144.261 26.9135 145.756 28.41 145.756 30.234C145.756 32.0577 144.261 33.5542 142.437 33.5542C140.615 33.5542 139.119 32.0577 139.119 30.234C139.119 28.41 140.592 26.9135 142.437 26.9135Z" fill="#0F87C9"/>
<path fill-rule="evenodd" clip-rule="evenodd" d="M142.438 23.3593C143.092 23.3593 143.747 23.4996 144.331 23.7802V6.03275C144.331 5.07404 143.559 5.00391 142.602 5.00391H142.252C141.293 5.00391 140.521 5.07404 140.521 6.03275V23.7802C141.13 23.4996 141.784 23.3593 142.438 23.3593Z" fill="#0F87C9"/>
<path fill-rule="evenodd" clip-rule="evenodd" d="M142.438 37.2253C141.784 37.2253 141.13 37.085 140.545 36.8044V54.505C140.545 55.4637 141.316 55.5808 142.274 55.5808H142.625C143.583 55.5808 144.355 55.4403 144.355 54.505V36.8044C143.747 37.085 143.092 37.2253 142.438 37.2253Z" fill="#0F87C9"/>
<path d="M175.97 29.4403V33.8177H159.367V29.4403C159.367 28.1661 159.458 27.1568 159.641 26.4124C159.828 25.6681 160.175 25.0561 160.682 24.5765C161.188 24.0971 161.908 23.6883 162.839 23.3503C163.77 23.0124 165.08 22.647 166.768 22.2543C168.229 21.9118 169.162 21.672 169.569 21.535C169.975 21.3934 170.249 21.1765 170.39 20.8842C170.536 20.5919 170.609 20.0667 170.609 19.3086C170.609 18.6053 170.52 18.0915 170.343 17.7673C170.169 17.443 169.882 17.2306 169.48 17.1302C169.078 17.0297 168.474 16.9795 167.665 16.9795C166.753 16.9795 166.102 17.0297 165.714 17.1302C165.326 17.2261 165.061 17.443 164.92 17.781C164.779 18.1144 164.703 18.6624 164.694 19.425V20.4595H159.367V19.425C159.367 18.0139 159.543 16.8607 159.894 15.9656C160.25 15.0705 160.775 14.3809 161.469 13.8968C162.167 13.4082 163.014 13.0702 164.009 12.8829C165.009 12.6957 166.228 12.6021 167.665 12.6021C169.541 12.6021 171.06 12.7551 172.219 13.061C173.378 13.3625 174.288 13.9972 174.95 14.9654C175.612 15.9291 175.943 17.3494 175.943 19.2264C175.943 20.4275 175.847 21.3957 175.656 22.131C175.468 22.8662 175.158 23.4668 174.724 23.9326C174.295 24.3939 173.731 24.7775 173.034 25.0835C172.335 25.3895 171.379 25.7092 170.164 26.0426C169.539 26.2116 168.734 26.4011 167.747 26.6111C166.766 26.8166 166.098 26.9948 165.742 27.1455C165.385 27.2916 165.121 27.5361 164.947 27.8784C164.779 28.2163 164.694 28.7371 164.694 29.4403H175.97Z" fill="white"/>
<path d="M195.143 12.7733V25.5972H196.937V29.6663H195.143V33.8176H189.816V29.6663H178.82V23.6586L186.872 12.7733H195.143ZM189.816 25.5972V17.0959H189.618L183.23 25.5972H189.816Z" fill="white"/>
<path d="M162.755 48.0814V40.8092H166.705V38.6113H160.232V48.0814H162.755Z" fill="white"/>
<path d="M171.675 48.1581C170.974 48.1581 170.365 48.11 169.847 48.0134C169.33 47.9168 168.88 47.7442 168.498 47.4955C168.116 47.2447 167.82 46.8902 167.611 46.4318C167.401 45.9715 167.297 45.3889 167.297 44.6839V42.0084C167.297 41.3034 167.401 40.7208 167.611 40.2605C167.822 39.7981 168.118 39.4434 168.498 39.1968C168.88 38.9481 169.33 38.7755 169.847 38.6789C170.365 38.5823 170.974 38.5342 171.675 38.5342C172.377 38.5342 172.987 38.5823 173.505 38.6789C174.024 38.7755 174.474 38.9481 174.854 39.1968C175.236 39.4434 175.532 39.7981 175.742 40.2605C175.951 40.7208 176.056 41.3034 176.056 42.0084V44.6839C176.056 45.3889 175.951 45.9715 175.742 46.4318C175.534 46.8902 175.24 47.2447 174.857 47.4955C174.476 47.7442 174.024 47.9168 173.505 48.0134C172.987 48.11 172.377 48.1581 171.675 48.1581ZM171.675 45.9602C172.158 45.9602 172.518 45.9273 172.759 45.8615C173.001 45.794 173.178 45.65 173.289 45.43C173.4 45.2102 173.456 44.8689 173.456 44.4065V42.2734C173.456 41.9179 173.424 41.6394 173.36 41.4379C173.298 41.2344 173.2 41.0824 173.064 40.9818C172.929 40.8789 172.753 40.8121 172.537 40.7813C172.324 40.7484 172.036 40.7321 171.675 40.7321C171.196 40.7321 170.838 40.765 170.602 40.8307C170.366 40.8965 170.193 41.0373 170.082 41.2531C169.97 41.4689 169.909 41.8089 169.897 42.2734V44.4065C169.909 44.8731 169.97 45.2152 170.078 45.4331C170.19 45.651 170.363 45.794 170.599 45.8615C170.838 45.9273 171.196 45.9602 171.675 45.9602Z" fill="white"/>
<path d="M177.492 45.9079C177.714 45.6058 177.892 45.279 178.028 44.9277C178.166 44.5743 178.267 44.1568 178.33 43.6761C178.393 43.1953 178.425 42.6135 178.425 41.9314V38.6113H185.718V45.9079H186.501V50.2669H184.103V48.0814H179.131V50.2669H176.746V45.9079H177.492ZM180.81 40.7845L180.822 42.0824C180.822 42.6947 180.795 43.2279 180.74 43.6822C180.684 44.1363 180.599 44.5403 180.484 44.8937C180.37 45.2471 180.222 45.5853 180.04 45.9079H183.183V40.7845H180.81Z" fill="white"/>
<path d="M193.082 46.4535H189.686L189.221 48.0814H186.596L189.434 38.6113H193.272L196.15 48.0814H193.575L193.082 46.4535ZM192.576 44.61L191.403 40.504H191.377L190.228 44.61H192.576Z" fill="white"/>
</g>
<defs>
<clipPath id="clip0_967_2827">
<rect width="202.785" height="60" fill="white" transform="translate(0.115234)"/>
</clipPath>
</defs>
</svg>
