<svg id="ozon" width="41" height="41" viewBox="0 0 41 41" fill="none" xmlns="http://www.w3.org/2000/svg">
<g clip-path="url(#clip0_964_3432)">
<rect x="0.870117" y="0.685913" width="39.369" height="39.369" rx="19.6845" fill="#005CFE"/>
<path d="M20.2271 20.3704L19.5709 21.0266V18.0739L24.164 16.1055L28.429 16.7616V18.0739C31.9284 22.4483 38.9274 31.2625 38.9274 31.525C38.9274 31.8531 37.287 38.0865 36.9589 38.7426C36.6965 39.2676 23.7266 41.8047 17.2744 43.0076L20.2271 20.3704Z" fill="#F91156"/>
<path fill-rule="evenodd" clip-rule="evenodd" d="M3.34156 20.4374C2.40177 20.5878 1.52949 21.02 0.844613 21.6746C0.15974 22.3292 -0.304094 23.1741 -0.483124 24.0931C-0.662154 25.0121 -0.547591 25.9602 -0.155184 26.8069C0.237224 27.6536 0.888209 28.3575 1.70828 28.8216C2.52835 29.2858 3.47724 29.4876 4.42451 29.3992C5.37178 29.3108 6.27092 28.9365 6.99832 28.3279C7.72571 27.7193 8.24566 26.9061 8.48668 26.0003C8.72769 25.0944 8.67795 24.1403 8.34427 23.2692C7.97364 22.3015 7.27418 21.4919 6.36327 20.9763C5.45236 20.4607 4.38544 20.2704 3.34156 20.4374ZM4.97721 27.1199C4.5027 27.3164 3.97895 27.3625 3.47957 27.2518C2.9802 27.141 2.53032 26.8789 2.19315 26.5024C1.85598 26.1258 1.64848 25.6537 1.59981 25.1524C1.55114 24.6511 1.66375 24.1458 1.92181 23.7075C2.17988 23.2693 2.57042 22.9201 3.03854 22.709C3.50667 22.498 4.02885 22.4357 4.53169 22.5309C5.03453 22.6261 5.49274 22.8741 5.84194 23.2399C6.19113 23.6057 6.41374 24.071 6.47848 24.5704C6.54697 25.0955 6.43697 25.63 6.16555 26.091C5.89413 26.5519 5.47644 26.9136 4.97721 27.1199ZM9.72835 18.9108C9.57408 18.9527 9.43089 19.0277 9.30918 19.1304C9.18747 19.2331 9.09029 19.361 9.02471 19.5046C8.95913 19.6483 8.92679 19.8041 8.93004 19.9609C8.93329 20.1177 8.97205 20.2714 9.0435 20.4109C9.16024 20.6287 9.3501 20.7996 9.5812 20.8949C9.8123 20.9902 10.0706 21.0042 10.3126 20.9345L13.2011 20.1605L10.267 27.1956C10.2455 27.2476 10.2392 27.3043 10.2485 27.3594C10.2579 27.4144 10.2828 27.4656 10.3202 27.5074C10.3577 27.5491 10.4063 27.5796 10.4607 27.5956C10.5151 27.6115 10.573 27.6123 10.6281 27.5977L17.6802 25.7081C17.9245 25.647 18.1408 25.5055 18.293 25.3073C18.4452 25.1091 18.524 24.8662 18.5161 24.6194C18.5085 24.4632 18.4656 24.3111 18.3905 24.174C18.3155 24.0368 18.2101 23.9182 18.0821 23.8265C17.9541 23.7349 17.8066 23.6726 17.6504 23.6442C17.4941 23.6158 17.3331 23.6219 17.1789 23.6622L13.654 24.6067L16.5845 17.5761C16.6067 17.5236 16.6136 17.4663 16.6044 17.4105C16.5952 17.3547 16.5703 17.3026 16.5324 17.2603C16.4946 17.2179 16.4454 17.1869 16.3903 17.1708C16.3352 17.1546 16.2765 17.1539 16.2208 17.1688L9.72835 18.9108ZM37.9141 11.3844C37.6952 11.5014 37.5228 11.6878 37.4252 11.9129C37.3277 12.138 37.3108 12.3883 37.3776 12.6224L38.285 16.009L31.5126 13.1432C31.4596 13.1209 31.401 13.1138 31.3437 13.1228C31.2864 13.1317 31.2327 13.1564 31.1887 13.1938C31.1447 13.2313 31.1122 13.2801 31.095 13.3346C31.0777 13.3891 31.0764 13.4471 31.0912 13.502L32.9649 20.4948C33.024 20.731 33.1637 20.9395 33.3607 21.0857C33.5578 21.2319 33.8005 21.307 34.0486 21.2987C34.2089 21.2908 34.3658 21.2477 34.5075 21.1724C34.6493 21.0972 34.7724 20.9918 34.8677 20.8641C34.9631 20.7363 35.0282 20.5895 35.0583 20.4343C35.0884 20.2792 35.0828 20.1198 35.0418 19.9678L34.1264 16.5515L40.8987 19.4173C40.9517 19.4396 41.0102 19.4467 41.0674 19.4378C41.1246 19.4289 41.1782 19.4044 41.2222 19.367C41.2662 19.3297 41.2988 19.2811 41.3161 19.2267C41.3335 19.1724 41.335 19.1144 41.3205 19.0596L39.4397 12.0404C39.3981 11.8892 39.3226 11.7494 39.2187 11.6311C39.1148 11.5128 38.9851 11.4191 38.8391 11.3568C38.693 11.2944 38.5344 11.2651 38.3746 11.2708C38.2148 11.2765 38.058 11.3172 37.9155 11.3898L37.9141 11.3844ZM23.8157 17.1081C26.1855 16.4731 28.2847 17.2261 28.5785 18.3228C28.8724 19.4194 27.4312 21.1222 25.0615 21.7572C22.6917 22.3922 20.5925 21.6392 20.2984 20.5414C20.0042 19.4436 21.446 17.7431 23.8157 17.1081ZM23.2707 15.0739C19.841 15.9929 17.5842 18.6896 18.2289 21.0959C18.8737 23.5023 22.1765 24.7093 25.6062 23.7903C29.0359 22.8713 31.293 20.1757 30.648 17.7683C30.0029 15.3608 26.7015 14.1593 23.2719 15.0783L23.2707 15.0739Z" fill="#FFFFFE"/>
</g>
<defs>
<clipPath id="clip0_964_3432">
<rect x="0.870117" y="0.685913" width="39.369" height="39.369" rx="19.6845" fill="white"/>
</clipPath>
</defs>
</svg>
