<svg id="ozon-full" width="275" height="60" viewBox="0 0 275 60" fill="none" xmlns="http://www.w3.org/2000/svg">
<g clip-path="url(#clip0_967_2819)">
<path fill-rule="evenodd" clip-rule="evenodd" d="M33.2913 0.166133C27.1272 -0.485225 20.9128 0.788692 15.5022 3.81278C10.0916 6.83686 5.75049 11.4626 3.07572 17.0542C0.40095 22.6457 -0.476191 28.9285 0.564876 35.0388C1.60594 41.1491 4.5141 46.7869 8.88957 51.1772C13.265 55.5676 18.893 58.4948 24.9997 59.5566C31.1065 60.6184 37.3922 59.7625 42.9927 57.1067C48.5933 54.4509 53.2338 50.1256 56.2762 44.7253C59.3186 39.3249 60.6136 33.1148 59.9831 26.9486C59.2828 20.0994 56.248 13.6994 51.3878 8.8228C46.5277 3.94617 40.1381 0.889641 33.2913 0.166133ZM32.3169 45.8761C29.0014 46.3214 25.6296 45.7165 22.6755 44.1465C19.7215 42.5765 17.3336 40.1203 15.8476 37.1231C14.3616 34.1259 13.8522 30.7384 14.3909 27.4367C14.9296 24.135 16.4894 21.0851 18.851 18.7157C21.2127 16.3463 24.2574 14.7765 27.5573 14.2269C30.8572 13.6773 34.2464 14.1756 37.2485 15.6517C40.2505 17.1278 42.7146 19.5076 44.2943 22.4564C45.874 25.4053 46.49 28.7751 46.0556 32.0921C45.6013 35.5812 44.0088 38.823 41.5249 41.315C39.041 43.8071 35.8045 45.4103 32.3169 45.8761ZM76.033 1.35194C74.9921 1.35545 73.9651 1.59072 73.0265 2.0407C72.0879 2.49069 71.2613 3.14406 70.6068 3.95338C69.9523 4.76269 69.4862 5.70765 69.2424 6.71958C68.9987 7.7315 68.9834 8.78502 69.1976 9.8036C69.5649 11.4022 70.471 12.8257 71.7638 13.8352C73.0566 14.8447 74.6574 15.3787 76.2973 15.3474H95.7686L65.4589 55.4607C65.2363 55.7575 65.1006 56.1105 65.0669 56.48C65.0332 56.8495 65.1029 57.2211 65.2682 57.5533C65.4336 57.8855 65.688 58.1652 66.0031 58.3612C66.3182 58.5572 66.6815 58.6617 67.0526 58.6631H114.59C116.23 58.6908 117.829 58.1545 119.12 57.1439C120.411 56.1333 121.316 54.7098 121.683 53.1118C121.898 52.0965 121.884 51.0461 121.643 50.0367C121.402 49.0273 120.939 48.0842 120.289 47.2758C119.638 46.4673 118.815 45.8139 117.881 45.3628C116.946 44.9117 115.923 44.6742 114.885 44.6676H91.1236L121.403 4.57701C121.631 4.27828 121.771 3.92179 121.807 3.54773C121.843 3.17367 121.774 2.79693 121.608 2.46002C121.441 2.12311 121.184 1.83942 120.865 1.64096C120.546 1.4425 120.178 1.33715 119.802 1.33682L76.033 1.35194ZM265.988 1.5181C264.414 1.89267 263.015 2.79287 262.022 4.07001C261.029 5.34714 260.502 6.92478 260.527 8.54226V31.8429L222.763 1.79756C222.466 1.56326 222.11 1.41723 221.735 1.37621C221.359 1.33519 220.98 1.40085 220.64 1.56565C220.3 1.73046 220.013 1.98774 219.813 2.30796C219.613 2.62819 219.507 2.99839 219.507 3.3761V51.4879C219.481 53.1057 220.008 54.684 221.001 55.9614C221.994 57.2389 223.394 58.1387 224.968 58.5121C225.99 58.7371 227.049 58.7299 228.067 58.4908C229.086 58.2518 230.038 57.7871 230.853 57.131C231.667 56.4749 232.324 55.6442 232.775 54.7001C233.226 53.7561 233.459 52.7229 233.457 51.6767V28.1722L271.222 58.2175C271.518 58.4514 271.873 58.5973 272.248 58.6386C272.623 58.6799 273.002 58.6149 273.341 58.451C273.681 58.2872 273.967 58.031 274.168 57.7119C274.369 57.3928 274.476 57.0236 274.477 56.6465V8.35344C274.471 7.31138 274.231 6.28392 273.777 5.34601C273.323 4.4081 272.665 3.58339 271.852 2.93205C271.038 2.28071 270.09 1.81916 269.075 1.58107C268.061 1.34299 267.006 1.33438 265.988 1.55586V1.5181ZM167.672 14.0105C183.646 14.0105 195.58 22.4547 195.58 30C195.58 37.5453 183.646 45.9969 167.672 45.9969C151.698 45.9969 139.764 37.5528 139.764 30C139.764 22.4471 151.698 14.0105 167.672 14.0105ZM167.672 0.0150663C144.553 0.0150663 125.814 13.4441 125.814 30C125.814 46.5559 144.553 59.9849 167.672 59.9849C190.791 59.9849 209.53 46.5634 209.53 30C209.53 13.4365 190.791 0.0452843 167.672 0.0452843V0.0150663Z" fill="#0069FF"/>
</g>
<defs>
<clipPath id="clip0_967_2819">
<rect width="274.335" height="60" fill="white" transform="translate(0.148438)"/>
</clipPath>
</defs>
</svg>
