<svg id="shield" width="73" height="84" viewBox="0 0 73 84" fill="none" xmlns="http://www.w3.org/2000/svg">
<path fill-rule="evenodd" clip-rule="evenodd" d="M65.3262 9.52007C55.8167 8.99608 46.886 6.32607 39.0032 1.98758L39.1439 1.74378L36.1693 0.0263554L36.1541 8.5161e-06L36.1389 0.0087908L36.1236 0L36.1084 0.0263724L32.9639 1.84185L33.0952 2.06918C25.2488 6.35958 16.3705 8.99942 6.9206 9.52008V9.51577H0V47.5005C0 67.4509 16.173 83.6239 36.1234 83.6239C56.0738 83.6239 72.2468 67.4509 72.2468 47.5005V9.51577H65.3262V9.52007ZM6.9206 16.4502C17.4475 15.9281 27.358 13.0379 36.1235 8.29997C44.889 13.0379 54.7995 15.9281 65.3262 16.4501V47.5005C65.3262 63.6288 52.2517 76.7033 36.1234 76.7033C19.9952 76.7033 6.9206 63.6288 6.9206 47.5005V16.4502ZM56.1969 33.4779L34.014 59.0558L19.6641 46.6975L24.1802 41.4536L33.3043 49.3113L50.9687 28.9436L56.1969 33.4779Z" fill="#56CCF2"/>
</svg>
