<svg id="skin-guard" width="78" height="71" viewBox="0 0 78 71" fill="none" xmlns="http://www.w3.org/2000/svg">
<path fill-rule="evenodd" clip-rule="evenodd" d="M27.2148 37.8457C27.2148 39.567 25.8194 40.9624 24.0981 40.9624H3.6169C1.89559 40.9624 0.500196 39.567 0.500196 37.8457C0.500196 36.1244 1.89559 34.729 3.6169 34.729H24.0981C25.8194 34.729 27.2148 36.1244 27.2148 37.8457Z" fill="#FD820B"/>
<path fill-rule="evenodd" clip-rule="evenodd" d="M77.082 37.8457C77.082 39.567 75.6866 40.9624 73.9653 40.9624H53.4841C51.7628 40.9624 50.3674 39.567 50.3674 37.8457C50.3674 36.1244 51.7628 34.729 53.4841 34.729H73.9653C75.6866 34.729 77.082 36.1244 77.082 37.8457Z" fill="#FD820B"/>
<path fill-rule="evenodd" clip-rule="evenodd" d="M0.5 60.9984C0.5 59.7689 1.49671 58.7722 2.72622 58.7722H8.95964C10.1891 58.7722 11.1859 59.7689 11.1859 60.9984C11.1859 62.2279 10.1891 63.2247 8.95964 63.2247H2.72622C1.49671 63.2247 0.5 62.2279 0.5 60.9984Z" fill="#FD820B"/>
<path fill-rule="evenodd" clip-rule="evenodd" d="M10.2949 69.0126C10.2949 68.2749 10.8929 67.6769 11.6307 67.6769H16.9736C17.7113 67.6769 18.3093 68.2749 18.3093 69.0126C18.3093 69.7503 17.7113 70.3483 16.9736 70.3483H11.6307C10.8929 70.3483 10.2949 69.7503 10.2949 69.0126Z" fill="#FD820B"/>
<path fill-rule="evenodd" clip-rule="evenodd" d="M27.2148 69.0126C27.2148 68.2749 27.8129 67.6769 28.5506 67.6769H33.8935C34.6312 67.6769 35.2292 68.2749 35.2292 69.0126C35.2292 69.7503 34.6312 70.3483 33.8935 70.3483H28.5506C27.8129 70.3483 27.2148 69.7503 27.2148 69.0126Z" fill="#FD820B"/>
<path fill-rule="evenodd" clip-rule="evenodd" d="M43.2422 69.0126C43.2422 68.2749 43.8402 67.6769 44.5779 67.6769H49.9208C50.6586 67.6769 51.2566 68.2749 51.2566 69.0126C51.2566 69.7503 50.6586 70.3483 49.9208 70.3483H44.5779C43.8402 70.3483 43.2422 69.7503 43.2422 69.0126Z" fill="#FD820B"/>
<path fill-rule="evenodd" clip-rule="evenodd" d="M60.1641 69.0126C60.1641 68.2749 60.7621 67.6769 61.4998 67.6769H66.8427C67.5804 67.6769 68.1785 68.2749 68.1785 69.0126C68.1785 69.7503 67.5804 70.3483 66.8427 70.3483H61.4998C60.7621 70.3483 60.1641 69.7503 60.1641 69.0126Z" fill="#FD820B"/>
<path fill-rule="evenodd" clip-rule="evenodd" d="M21.6425 51.8032C20.0151 53.0863 17.886 54.765 14.3917 54.765C10.8634 54.765 8.88055 53.3663 7.32758 52.2443L7.32022 52.2389C5.90157 51.214 5.00605 50.567 3.17153 50.567C1.94203 50.567 0.945312 49.5702 0.945312 48.3407C0.945312 47.1112 1.94203 46.1145 3.17153 46.1145C6.45223 46.1145 8.34869 47.4871 9.81417 48.5478C9.8548 48.5772 9.8951 48.6063 9.93509 48.6352C11.2873 49.6122 12.3098 50.3125 14.3917 50.3125C16.3277 50.3125 17.3697 49.4953 19.1026 48.1361L19.1288 48.1156C20.9181 46.7122 23.2268 44.9696 27.2147 44.9696C28.4442 44.9696 29.4409 45.9663 29.4409 47.1958C29.4409 48.4253 28.4442 49.422 27.2147 49.422C24.7911 49.422 23.4934 50.3509 21.8766 51.619C21.7997 51.6793 21.7217 51.7408 21.6425 51.8032Z" fill="#FD820B"/>
<path fill-rule="evenodd" clip-rule="evenodd" d="M55.9395 51.8032C57.5669 53.0863 59.696 54.765 63.1903 54.765C66.7186 54.765 68.7015 53.3663 70.2544 52.2443L70.2618 52.2389C71.6805 51.214 72.576 50.567 74.4105 50.567C75.64 50.567 76.6367 49.5702 76.6367 48.3407C76.6367 47.1112 75.64 46.1145 74.4105 46.1145C71.1298 46.1145 69.2333 47.4871 67.7679 48.5478C67.7272 48.5772 67.6869 48.6063 67.6469 48.6352C66.2947 49.6122 65.2722 50.3125 63.1903 50.3125C61.2543 50.3125 60.2123 49.4953 58.4794 48.1361L58.4533 48.1156C56.664 46.7122 54.3552 44.9696 50.3673 44.9696C49.1378 44.9696 48.1411 45.9663 48.1411 47.1958C48.1411 48.4253 49.1378 49.422 50.3673 49.422C52.7909 49.422 54.0886 50.3509 55.7055 51.619C55.7824 51.6793 55.8604 51.7408 55.9395 51.8032Z" fill="#FD820B"/>
<path fill-rule="evenodd" clip-rule="evenodd" d="M17.4199 60.9984C17.4199 59.7689 18.4166 58.7722 19.6461 58.7722H25.8796C27.1091 58.7722 28.1058 59.7689 28.1058 60.9984C28.1058 62.2279 27.1091 63.2247 25.8796 63.2247H19.6461C18.4166 63.2247 17.4199 62.2279 17.4199 60.9984Z" fill="#FD820B"/>
<path fill-rule="evenodd" clip-rule="evenodd" d="M34.3379 60.9984C34.3379 59.7689 35.3346 58.7722 36.5641 58.7722H42.7975C44.027 58.7722 45.0237 59.7689 45.0237 60.9984C45.0237 62.2279 44.027 63.2247 42.7975 63.2247H36.5641C35.3346 63.2247 34.3379 62.2279 34.3379 60.9984Z" fill="#FD820B"/>
<path fill-rule="evenodd" clip-rule="evenodd" d="M51.2578 60.9984C51.2578 59.7689 52.2545 58.7722 53.484 58.7722H59.7175C60.947 58.7722 61.9437 59.7689 61.9437 60.9984C61.9437 62.2279 60.947 63.2247 59.7175 63.2247H53.484C52.2545 63.2247 51.2578 62.2279 51.2578 60.9984Z" fill="#FD820B"/>
<path fill-rule="evenodd" clip-rule="evenodd" d="M66.3965 60.9984C66.3965 59.7689 67.3932 58.7722 68.6227 58.7722H74.8561C76.0856 58.7722 77.0823 59.7689 77.0823 60.9984C77.0823 62.2279 76.0856 63.2247 74.8561 63.2247H68.6227C67.3932 63.2247 66.3965 62.2279 66.3965 60.9984Z" fill="#FD820B"/>
<path fill-rule="evenodd" clip-rule="evenodd" d="M48.5878 22.2622H28.9971V38.291C28.9971 43.7008 33.3826 48.0864 38.7925 48.0864C44.2023 48.0864 48.5878 43.7008 48.5878 38.291V22.2622ZM22.7637 16.0288V38.291C22.7637 47.1435 29.94 54.3198 38.7925 54.3198C47.6449 54.3198 54.8212 47.1435 54.8212 38.291V16.0288H22.7637Z" fill="#FD820B"/>
<path d="M13.8586 26.7148C13.8586 28.1902 12.6625 29.3863 11.1871 29.3863C9.71168 29.3863 8.51562 28.1902 8.51562 26.7148C8.51562 25.2394 9.71168 24.0433 11.1871 24.0433C12.6625 24.0433 13.8586 25.2394 13.8586 26.7148Z" fill="#FD820B"/>
<path d="M58.382 2.67146C58.382 4.14687 57.1859 5.34293 55.7105 5.34293C54.2351 5.34293 53.0391 4.14687 53.0391 2.67146C53.0391 1.19606 54.2351 0 55.7105 0C57.1859 0 58.382 1.19606 58.382 2.67146Z" fill="#FD820B"/>
<path fill-rule="evenodd" clip-rule="evenodd" d="M20.9812 2.95783C20.9812 1.81614 19.9845 0.890625 18.755 0.890625C17.5255 0.890625 16.5288 1.81614 16.5288 2.95783V4.45258H15.034C13.8923 4.45258 12.9668 5.44929 12.9668 6.6788C12.9668 7.90831 13.8923 8.90502 15.034 8.90502H16.5287V10.3998C16.5287 11.5415 17.5255 12.467 18.755 12.467C19.9845 12.467 20.9812 11.5415 20.9812 10.3998V8.90502H22.4759C23.6176 8.90502 24.5431 7.90831 24.5431 6.6788C24.5431 5.44929 23.6176 4.45258 22.4759 4.45258H20.9812V2.95783Z" fill="#FD820B"/>
<path fill-rule="evenodd" clip-rule="evenodd" d="M68.1764 20.1951C68.1764 18.8777 67.1797 17.8098 65.9501 17.8098C64.7206 17.8098 63.7239 18.8777 63.7239 20.1951V22.2623H61.6567C60.3394 22.2623 59.2715 23.259 59.2715 24.4885C59.2715 25.718 60.3394 26.7147 61.6567 26.7147H63.7239V28.7819C63.7239 30.0992 64.7206 31.1671 65.9501 31.1671C67.1797 31.1671 68.1764 30.0992 68.1764 28.7819V26.7147H70.2436C71.5609 26.7147 72.6288 25.718 72.6288 24.4885C72.6288 23.259 71.5609 22.2623 70.2436 22.2623H68.1764V20.1951Z" fill="#FD820B"/>
</svg>
