<svg id="skin-care" width="78" height="72" viewBox="0 0 78 72" fill="none" xmlns="http://www.w3.org/2000/svg">
<path fill-rule="evenodd" clip-rule="evenodd" d="M27.2148 38.8457C27.2148 40.567 25.8194 41.9624 24.0981 41.9624H3.6169C1.89559 41.9624 0.500196 40.567 0.500196 38.8457C0.500196 37.1244 1.89559 35.729 3.6169 35.729H24.0981C25.8194 35.729 27.2148 37.1244 27.2148 38.8457Z" fill="#27AE60"/>
<path fill-rule="evenodd" clip-rule="evenodd" d="M77.082 38.8457C77.082 40.567 75.6866 41.9624 73.9653 41.9624H53.4841C51.7628 41.9624 50.3674 40.567 50.3674 38.8457C50.3674 37.1244 51.7628 35.729 53.4841 35.729H73.9653C75.6866 35.729 77.082 37.1244 77.082 38.8457Z" fill="#27AE60"/>
<path fill-rule="evenodd" clip-rule="evenodd" d="M0.5 61.9984C0.5 60.7689 1.49671 59.7722 2.72622 59.7722H8.95964C10.1891 59.7722 11.1859 60.7689 11.1859 61.9984C11.1859 63.2279 10.1891 64.2247 8.95964 64.2247H2.72622C1.49671 64.2247 0.5 63.2279 0.5 61.9984Z" fill="#27AE60"/>
<path fill-rule="evenodd" clip-rule="evenodd" d="M10.2949 70.0126C10.2949 69.2749 10.8929 68.6769 11.6307 68.6769H16.9736C17.7113 68.6769 18.3093 69.2749 18.3093 70.0126C18.3093 70.7503 17.7113 71.3483 16.9736 71.3483H11.6307C10.8929 71.3483 10.2949 70.7503 10.2949 70.0126Z" fill="#27AE60"/>
<path fill-rule="evenodd" clip-rule="evenodd" d="M27.2148 70.0126C27.2148 69.2749 27.8129 68.6769 28.5506 68.6769H33.8935C34.6312 68.6769 35.2292 69.2749 35.2292 70.0126C35.2292 70.7503 34.6312 71.3483 33.8935 71.3483H28.5506C27.8129 71.3483 27.2148 70.7503 27.2148 70.0126Z" fill="#27AE60"/>
<path fill-rule="evenodd" clip-rule="evenodd" d="M43.2422 70.0126C43.2422 69.2749 43.8402 68.6769 44.5779 68.6769H49.9208C50.6586 68.6769 51.2566 69.2749 51.2566 70.0126C51.2566 70.7503 50.6586 71.3483 49.9208 71.3483H44.5779C43.8402 71.3483 43.2422 70.7503 43.2422 70.0126Z" fill="#27AE60"/>
<path fill-rule="evenodd" clip-rule="evenodd" d="M60.1641 70.0126C60.1641 69.2749 60.7621 68.6769 61.4998 68.6769H66.8427C67.5804 68.6769 68.1785 69.2749 68.1785 70.0126C68.1785 70.7503 67.5804 71.3483 66.8427 71.3483H61.4998C60.7621 71.3483 60.1641 70.7503 60.1641 70.0126Z" fill="#27AE60"/>
<path fill-rule="evenodd" clip-rule="evenodd" d="M21.6425 52.8032C20.0151 54.0863 17.886 55.765 14.3917 55.765C10.8634 55.765 8.88055 54.3663 7.32758 53.2443L7.32022 53.2389C5.90157 52.214 5.00605 51.567 3.17153 51.567C1.94203 51.567 0.945312 50.5702 0.945312 49.3407C0.945312 48.1112 1.94203 47.1145 3.17153 47.1145C6.45223 47.1145 8.34869 48.4871 9.81417 49.5478C9.8548 49.5772 9.8951 49.6063 9.93509 49.6352C11.2873 50.6122 12.3098 51.3125 14.3917 51.3125C16.3277 51.3125 17.3697 50.4953 19.1026 49.1361L19.1288 49.1156C20.9181 47.7122 23.2268 45.9696 27.2147 45.9696C28.4442 45.9696 29.4409 46.9663 29.4409 48.1958C29.4409 49.4253 28.4442 50.422 27.2147 50.422C24.7911 50.422 23.4934 51.3509 21.8766 52.619C21.7997 52.6793 21.7217 52.7408 21.6425 52.8032Z" fill="#27AE60"/>
<path fill-rule="evenodd" clip-rule="evenodd" d="M55.9395 52.8032C57.5669 54.0863 59.696 55.765 63.1903 55.765C66.7186 55.765 68.7015 54.3663 70.2544 53.2443L70.2618 53.2389C71.6805 52.214 72.576 51.567 74.4105 51.567C75.64 51.567 76.6367 50.5702 76.6367 49.3407C76.6367 48.1112 75.64 47.1145 74.4105 47.1145C71.1298 47.1145 69.2333 48.4871 67.7679 49.5478C67.7272 49.5772 67.6869 49.6063 67.6469 49.6352C66.2947 50.6122 65.2722 51.3125 63.1903 51.3125C61.2543 51.3125 60.2123 50.4953 58.4794 49.1361L58.4533 49.1156C56.664 47.7122 54.3552 45.9696 50.3673 45.9696C49.1378 45.9696 48.1411 46.9663 48.1411 48.1958C48.1411 49.4253 49.1378 50.422 50.3673 50.422C52.7909 50.422 54.0886 51.3509 55.7055 52.619C55.7824 52.6793 55.8604 52.7408 55.9395 52.8032Z" fill="#27AE60"/>
<path fill-rule="evenodd" clip-rule="evenodd" d="M17.4199 61.9984C17.4199 60.7689 18.4166 59.7722 19.6461 59.7722H25.8796C27.1091 59.7722 28.1058 60.7689 28.1058 61.9984C28.1058 63.2279 27.1091 64.2247 25.8796 64.2247H19.6461C18.4166 64.2247 17.4199 63.2279 17.4199 61.9984Z" fill="#27AE60"/>
<path fill-rule="evenodd" clip-rule="evenodd" d="M34.3379 61.9984C34.3379 60.7689 35.3346 59.7722 36.5641 59.7722H42.7975C44.027 59.7722 45.0237 60.7689 45.0237 61.9984C45.0237 63.2279 44.027 64.2247 42.7975 64.2247H36.5641C35.3346 64.2247 34.3379 63.2279 34.3379 61.9984Z" fill="#27AE60"/>
<path fill-rule="evenodd" clip-rule="evenodd" d="M51.2578 61.9984C51.2578 60.7689 52.2545 59.7722 53.484 59.7722H59.7175C60.947 59.7722 61.9437 60.7689 61.9437 61.9984C61.9437 63.2279 60.947 64.2247 59.7175 64.2247H53.484C52.2545 64.2247 51.2578 63.2279 51.2578 61.9984Z" fill="#27AE60"/>
<path fill-rule="evenodd" clip-rule="evenodd" d="M66.3965 61.9984C66.3965 60.7689 67.3932 59.7722 68.6227 59.7722H74.8561C76.0856 59.7722 77.0823 60.7689 77.0823 61.9984C77.0823 63.2279 76.0856 64.2247 74.8561 64.2247H68.6227C67.3932 64.2247 66.3965 63.2279 66.3965 61.9984Z" fill="#27AE60"/>
<path d="M13.8586 27.7148C13.8586 29.1902 12.6625 30.3863 11.1871 30.3863C9.71168 30.3863 8.51562 29.1902 8.51562 27.7148C8.51562 26.2394 9.71168 25.0433 11.1871 25.0433C12.6625 25.0433 13.8586 26.2394 13.8586 27.7148Z" fill="#27AE60"/>
<path d="M25.5 5.5C25.5 8.53757 23.0376 11 20 11C16.9624 11 14.5 8.53757 14.5 5.5C14.5 2.46243 16.9624 0 20 0C23.0376 0 25.5 2.46243 25.5 5.5Z" fill="#27AE60"/>
<path d="M68.5 25.5C68.5 27.9853 66.4853 30 64 30C61.5147 30 59.5 27.9853 59.5 25.5C59.5 23.0147 61.5147 21 64 21C66.4853 21 68.5 23.0147 68.5 25.5Z" fill="#27AE60"/>
<path d="M60.5 8.5C60.5 9.88071 59.3807 11 58 11C56.6193 11 55.5 9.88071 55.5 8.5C55.5 7.11929 56.6193 6 58 6C59.3807 6 60.5 7.11929 60.5 8.5Z" fill="#27AE60"/>
<path d="M51.5 37C51.5 40.4368 49.8418 43.9037 46.9839 47.4223C44.6461 50.3004 41.6763 53.0057 38.6252 55.5323C38.3793 55.307 38.1345 55.0829 37.8909 54.8601C34.9678 52.1853 32.2234 49.6741 29.9845 47.009C27.1206 43.5999 25.5 40.3971 25.5 37C25.5 29.8203 31.3203 24 38.5 24C45.6797 24 51.5 29.8203 51.5 37Z" stroke="#27AE60" stroke-width="6"/>
</svg>
