<svg id="three" width="200" height="286" viewBox="0 0 200 286" fill="#fff" xmlns="http://www.w3.org/2000/svg">
<path d="M188.8 52L140.4 113.6C158.533 120 172.933 130.133 183.6 144C194.533 157.6 200 173.6 200 192C200 221.333 190.133 244.267 170.4 260.8C150.667 277.333 126.533 285.6 98 285.6C75.3333 285.6 55.3333 280.533 38 270.4C20.6667 260 8 245.067 0 225.6L55.2 193.6C62.1333 213.333 76.4 223.2 98 223.2C113.733 224.267 124.933 219.333 131.6 208.4C138.267 197.467 138.267 186.533 131.6 175.6C124.933 164.667 113.733 159.733 98 160.8H84.8L60.4 124.4L111.2 60H8.8V0H188.8V52Z"/>
</svg>
