<svg id="tips-3" width="73" height="104" viewBox="0 0 73 104" fill="none" xmlns="http://www.w3.org/2000/svg">
<path d="M68.912 18.9356L51.246 41.3669C57.8647 43.6975 63.1207 47.3875 67.014 52.437C71.0047 57.3894 73 63.2157 73 69.916C73 80.5976 69.3987 88.9486 62.196 94.9692C54.9933 100.99 46.1847 104 35.77 104C27.4967 104 20.1967 102.155 13.87 98.465C7.54333 94.6779 2.92 89.24 0 82.1513L20.148 70.4986C22.6787 77.6844 27.886 81.2773 35.77 81.2773C41.5127 81.6657 45.6007 79.8693 48.034 75.8879C50.4673 71.9066 50.4673 67.9253 48.034 63.944C45.6007 59.9627 41.5127 58.1662 35.77 58.5546H30.952L22.046 45.2997L40.588 21.8487H3.212V0H68.912V18.9356Z" fill="#E8EDF0"/>
</svg>
