<svg id="tips-2" width="70" height="104" viewBox="0 0 70 104" fill="none" xmlns="http://www.w3.org/2000/svg">
<path d="M70 104H1.01449V87.1036L35.0725 51.563C41.9324 44.3772 45.3623 38.3567 45.3623 33.5014C45.3623 30.2969 44.3961 27.7236 42.4638 25.7815C40.5314 23.7423 37.8744 22.7227 34.4928 22.7227C27.7295 22.7227 22.7536 26.4127 19.5652 33.7927L0 22.2857C3.09179 15.197 7.68116 9.71056 13.7681 5.82634C19.8551 1.94211 26.6667 0 34.2029 0C43.7681 0 51.8358 2.96172 58.4058 8.88515C65.1691 14.7115 68.5507 22.577 68.5507 32.4818C68.5507 43.2605 63.285 53.9421 52.7536 64.5266L35.942 81.5686H70V104Z" fill="#E8EDF0"/>
</svg>
