<svg id="two" width="194" height="286" viewBox="0 0 194 286" fill="#fff" xmlns="http://www.w3.org/2000/svg">
<path d="M193.2 285.6H2.8V239.2L96.8 141.6C115.733 121.867 125.2 105.333 125.2 92C125.2 83.2 122.533 76.1333 117.2 70.8C111.867 65.2 104.533 62.4 95.2 62.4C76.5333 62.4 62.8 72.5333 54 92.8L0 61.2C8.53333 41.7333 21.2 26.6667 38 16C54.8 5.33334 73.6 0 94.4 0C120.8 0 143.067 8.13333 161.2 24.4C179.867 40.4 189.2 62 189.2 89.2C189.2 118.8 174.667 148.133 145.6 177.2L99.2 224H193.2V285.6Z"/>
</svg>
