<svg id="twodots" width="40" height="41" viewBox="0 0 40 41" fill="none" xmlns="http://www.w3.org/2000/svg">
<path fill-rule="evenodd" clip-rule="evenodd" d="M19.7716 40.0344C23.6613 40.0344 27.4638 38.8805 30.698 36.7187C33.9322 34.5569 36.453 31.4841 37.9415 27.8891C39.4301 24.2941 39.8196 20.3383 39.0607 16.5219C38.3018 12.7055 36.4287 9.19986 33.6783 6.44837C30.9278 3.69688 27.4234 1.82309 23.6084 1.06395C19.7934 0.304819 15.839 0.694448 12.2453 2.18354C8.65165 3.67264 5.58005 6.19436 3.41901 9.42977C1.25797 12.6652 0.104523 16.469 0.104523 20.3602C0.0999173 22.9451 0.605465 25.5055 1.59219 27.8946C2.57892 30.2837 4.02744 32.4544 5.85461 34.2822C7.68178 36.11 9.85169 37.5591 12.2399 38.5462C14.6281 39.5333 17.1875 40.039 19.7716 40.0344Z" fill="#FED42B"/>
<path fill-rule="evenodd" clip-rule="evenodd" d="M24.9402 26.8506C24.943 26.4561 24.8302 26.0697 24.6163 25.7408C24.4025 25.4118 24.0972 25.1551 23.7394 25.0035C23.3817 24.8519 22.9877 24.8123 22.6077 24.8896C22.2277 24.9669 21.879 25.1577 21.606 25.4377C21.333 25.7177 21.1481 26.0741 21.0748 26.4615C21.0016 26.8489 21.0434 27.2497 21.1949 27.6128C21.3464 27.9759 21.6007 28.2848 21.9254 28.5002C22.25 28.7155 22.6303 28.8276 23.0178 28.8219C23.5289 28.8182 24.0179 28.6088 24.378 28.2395C24.7382 27.8703 24.9402 27.371 24.9402 26.8506ZM18.1003 26.8506C18.0985 26.5936 18.047 26.3394 17.9487 26.1027C17.8504 25.8659 17.7072 25.6512 17.5274 25.4708C17.3476 25.2904 17.1346 25.1478 16.9007 25.0511C16.6668 24.9545 16.4164 24.9057 16.164 24.9076C15.7759 24.9049 15.3958 25.02 15.0724 25.2384C14.749 25.4568 14.497 25.7685 14.3485 26.1335C14.2001 26.4986 14.162 26.9005 14.2391 27.2877C14.3162 27.6749 14.5051 28.0299 14.7814 28.3072C15.0578 28.5845 15.4092 28.7716 15.7907 28.8445C16.1721 28.9174 16.5662 28.8728 16.9226 28.7164C17.2789 28.56 17.5814 28.2989 17.7912 27.9665C18.001 27.6341 18.1086 27.2456 18.1003 26.8506Z" fill="#1D1D1B"/>
</svg>
