<svg id="upeco" width="119" height="32" viewBox="0 0 119 32" fill="none" xmlns="http://www.w3.org/2000/svg">
<g clip-path="url(#clip0_1931_2616)">
<path d="M22.4688 32.0073C22.4688 31.9549 22.4688 31.9024 22.4688 31.85C22.4688 24.8266 22.4688 17.8028 22.4688 10.7784C22.4688 10.6152 22.4969 10.5628 22.6776 10.5671C25.4807 10.6284 28.1519 11.7507 30.1353 13.7003C32.1188 15.6499 33.2617 18.2768 33.3264 21.0344C33.3911 23.7921 32.3725 26.468 30.4826 28.5056C28.5927 30.5431 25.977 31.7854 23.1797 31.9738C23.1427 31.9738 23.0953 31.9563 23.0716 32.0073H22.4688Z" fill="#015AC2"/>
<path d="M10.8972 10.7697C14.4628 10.7697 18.0275 10.7697 21.5911 10.7697C21.7674 10.7697 21.8059 10.8149 21.7985 10.981C21.6815 14.022 20.4951 16.5837 18.2185 18.6426C16.646 20.0858 14.6574 21.0138 12.5265 21.2989C9.22797 21.7521 6.28048 20.923 3.75216 18.781C1.75557 17.0878 0.567686 14.9298 0.136672 12.3697C0.058869 11.8983 0.0158041 11.4221 0.0078125 10.9446C0.0078125 10.7989 0.0433598 10.7625 0.191475 10.7625C3.75808 10.7702 7.32667 10.7726 10.8972 10.7697Z" fill="#015AC2"/>
<path d="M42.0825 10.7157C42.0825 14.2206 42.0825 17.7245 42.0825 21.2274C42.0825 21.3921 42.0351 21.4256 41.8781 21.4198C38.8032 21.312 36.2083 20.1594 34.1154 17.9489C32.6213 16.3851 31.6576 14.4035 31.3575 12.2778C31.1325 10.7749 31.2348 9.24224 31.6575 7.78125C32.0803 6.32026 32.8138 4.96435 33.8096 3.8034C34.8054 2.64246 36.0406 1.70299 37.4334 1.04728C38.8262 0.391568 40.3448 0.0345856 41.8885 0C42.0455 0 42.0825 0.0335152 42.0825 0.187971C42.0815 3.69868 42.0815 7.20793 42.0825 10.7157Z" fill="#FE7300"/>
<path d="M110.09 21.516C108.096 21.4985 106.226 20.9973 104.601 19.7675C102.908 18.4867 101.88 16.7906 101.44 14.7462C101.108 13.1312 101.261 11.456 101.879 9.92483C102.498 8.39367 103.556 7.07269 104.925 6.12292C106.113 5.3163 107.488 4.81899 108.924 4.67745C110.574 4.49822 112.192 4.63228 113.731 5.26905C116.487 6.40852 118.161 8.46598 118.799 11.3103C119.192 13.0905 118.985 14.948 118.21 16.6025C117.435 18.2569 116.134 19.6184 114.504 20.4815C113.14 21.2057 111.666 21.516 110.09 21.516ZM110.199 18.0481C110.528 18.0437 110.856 18.0134 111.18 17.9577C112.695 17.6736 113.858 16.8998 114.504 15.5068C114.873 14.7386 115.065 13.8993 115.065 13.0494C115.065 12.1995 114.873 11.3602 114.504 10.5919C113.975 9.42623 113.054 8.67436 111.826 8.27947C111.041 8.03168 110.21 7.96194 109.394 8.07548C107.637 8.30279 106.341 9.17415 105.655 10.8003C105.354 11.5053 105.198 12.2618 105.195 13.0264C105.191 13.791 105.341 14.5487 105.636 15.2562C105.839 15.7863 106.15 16.2701 106.55 16.6782C106.949 17.0863 107.429 17.4101 107.96 17.6299C108.668 17.9223 109.431 18.0652 110.199 18.0495V18.0481Z" fill="#015AC2"/>
<path d="M60.6638 10.0644C60.6638 11.4909 60.6712 12.9174 60.6638 14.3425C60.6735 15.4094 60.4895 16.4693 60.1202 17.4724C59.43 19.2778 58.1384 20.4843 56.2692 21.0628C54.2715 21.7033 52.1182 21.7002 50.1224 21.0541C47.8163 20.3138 46.4536 18.7052 45.9145 16.4C45.7494 15.6549 45.6708 14.8938 45.6805 14.1312C45.6805 11.0994 45.6805 8.06716 45.6805 5.03439C45.6805 4.88868 45.7101 4.83622 45.873 4.83768C46.9928 4.84448 48.112 4.84448 49.2308 4.83768C49.3908 4.83768 49.4263 4.87993 49.4263 5.03147C49.4204 8.08659 49.4204 11.1422 49.4263 14.1983C49.4081 14.7985 49.515 15.396 49.7403 15.9541C50.2498 17.13 51.1755 17.7857 52.4404 17.9941C53.1435 18.1167 53.8665 18.0667 54.5452 17.8484C55.7982 17.4345 56.5062 16.5457 56.798 15.3057C56.8961 14.862 56.9428 14.4089 56.9372 13.9549C56.9372 10.9931 56.9372 8.03024 56.9372 5.06644C56.9372 4.87556 56.995 4.8435 57.1712 4.84496C58.2791 4.85176 59.3865 4.85176 60.4935 4.84496C60.6416 4.84496 60.6786 4.87993 60.6786 5.0271C60.6786 6.70863 60.6786 8.39015 60.6786 10.0717L60.6638 10.0644Z" fill="#015AC2"/>
<path d="M75.876 13.0646C75.876 10.3874 75.876 7.71017 75.876 5.03294C75.876 4.88723 75.9056 4.83769 76.067 4.83914C79.6969 4.83914 83.3271 4.83914 86.9579 4.83914C87.1061 4.83914 87.1549 4.87266 87.1535 5.02857C87.1446 5.90868 87.1446 6.78781 87.1535 7.66598C87.1535 7.8044 87.1149 7.83646 86.9772 7.83646C84.6385 7.83646 82.2997 7.83646 79.961 7.82917C79.7907 7.82917 79.7314 7.85686 79.7344 8.04191C79.7447 9.0721 79.7344 10.1023 79.7344 11.1325C79.7344 11.2782 79.7744 11.3161 79.9225 11.3161C81.805 11.3161 83.689 11.3161 85.5716 11.3088C85.736 11.3088 85.776 11.3525 85.7745 11.5099C85.7656 12.3783 85.7656 13.2458 85.7745 14.1123C85.7745 14.258 85.739 14.2959 85.5894 14.2945C83.7068 14.2945 81.8228 14.2945 79.9403 14.2945C79.7847 14.2945 79.7314 14.3236 79.7329 14.4897C79.7418 15.6826 79.7418 16.8755 79.7329 18.0684C79.7329 18.2272 79.7714 18.2724 79.9373 18.2724C82.3293 18.2724 84.7214 18.2724 87.1149 18.2651C87.2779 18.2651 87.3342 18.2914 87.3327 18.4677C87.3208 19.358 87.3253 20.2497 87.3327 21.14C87.3327 21.2654 87.3164 21.3193 87.1638 21.3193C83.457 21.3193 79.7502 21.3193 76.0433 21.3193C75.8863 21.3193 75.8775 21.2595 75.8775 21.1386C75.8775 18.4439 75.877 15.7526 75.876 13.0646Z" fill="#015AC2"/>
<path d="M62.5547 13.0646C62.5547 10.3883 62.5547 7.71111 62.5547 5.03291C62.5547 4.87408 62.5947 4.83329 62.7576 4.83329C64.9719 4.83329 67.1877 4.83329 69.402 4.83329C70.2751 4.80874 71.1418 4.98695 71.9318 5.35348C73.3597 6.05581 74.2084 7.20549 74.5031 8.72819C74.8231 10.3777 74.4394 11.8727 73.3004 13.1447C72.5421 13.9913 71.5527 14.4314 70.4285 14.6019C69.8341 14.6684 69.2356 14.6913 68.6378 14.6704C67.9638 14.6704 67.2884 14.6704 66.613 14.6704C66.4486 14.6704 66.4249 14.717 66.4249 14.8642C66.4249 16.9464 66.4249 19.0301 66.4323 21.1138C66.4323 21.2784 66.3835 21.312 66.2265 21.3105C65.0726 21.3105 63.9173 21.3032 62.7635 21.3105C62.5843 21.3105 62.5547 21.2595 62.5547 21.0978C62.5576 18.4234 62.5576 15.7457 62.5547 13.0646ZM66.4235 9.73069C66.4235 10.3135 66.4235 10.9066 66.4235 11.4938C66.4235 11.6075 66.4546 11.6395 66.5716 11.6395C66.8959 11.6322 67.2218 11.6395 67.5476 11.6395C68.0675 11.6395 68.5844 11.6687 69.1058 11.5667C69.7857 11.4326 70.3278 11.1295 70.5262 10.4199C70.6221 10.0524 70.6393 9.66936 70.5766 9.29501C70.5533 9.04114 70.4607 8.79817 70.3088 8.59172C70.1568 8.38528 69.951 8.223 69.7131 8.12202C69.4523 8.01122 69.1771 7.93668 68.8955 7.90054C68.112 7.7898 67.324 7.84663 66.5375 7.82914C66.4131 7.82914 66.4264 7.89471 66.4264 7.97485L66.4235 9.73069Z" fill="#015AC2"/>
<path d="M101.054 7.18937C101.054 7.73725 101.054 8.28368 101.054 8.83156C101.054 8.97727 101.033 9.00058 100.894 8.93501C100.009 8.50715 99.0581 8.22368 98.08 8.09571C96.4789 7.90482 94.9385 8.08113 93.5714 8.98893C91.9421 10.073 91.2845 11.6307 91.4371 13.5323C91.6178 15.7893 93.2989 17.5525 95.8183 17.9575C97.3913 18.2111 98.8902 17.9386 100.336 17.3135C100.536 17.2275 100.736 17.1401 100.928 17.0483C101.008 17.0119 101.057 16.9944 101.056 17.1139C101.056 18.2373 101.056 19.3608 101.056 20.4842C101.056 20.5964 100.985 20.6154 100.908 20.6489C100.042 21.0264 99.1264 21.281 98.1881 21.4051C96.7203 21.5916 95.254 21.5829 93.8158 21.2069C90.3677 20.305 88.2615 18.1149 87.6098 14.679C87.0632 11.7924 87.8379 9.23226 89.9603 7.12526C91.2356 5.86047 92.8145 5.12899 94.583 4.80988C96.5927 4.42798 98.6688 4.56554 100.608 5.20913C101.053 5.35485 101.053 5.36359 101.053 5.82841L101.054 7.18937Z" fill="#015AC2"/>
</g>
<defs>
<clipPath id="clip0_1931_2616">
<rect width="119" height="32" fill="white"/>
</clipPath>
</defs>
</svg>
