<svg id="utkonos-full" width="261" height="60" viewBox="0 0 261 60" fill="none" xmlns="http://www.w3.org/2000/svg">
<g clip-path="url(#clip0_967_2852)">
<path fill-rule="evenodd" clip-rule="evenodd" d="M56.69 6.67746C56.69 5.79388 56.5158 4.91899 56.1773 4.10291C55.8387 3.28683 55.3425 2.54561 54.7172 1.92172C54.0918 1.29783 53.3496 0.803501 52.5329 0.467128C51.7163 0.130756 50.8414 -0.0410855 49.9582 -0.0385465H6.71252C4.93225 -0.0385465 3.22491 0.669065 1.96606 1.92856C0.707218 3.18805 0 4.89627 0 6.67746V28.3307C0.192784 35.7241 3.26371 42.7498 8.55841 47.9108C13.8531 53.0718 20.953 55.9601 28.345 55.9601C35.7371 55.9601 42.8369 53.0718 48.1316 47.9108C53.4263 42.7498 56.4972 35.7241 56.69 28.3307V6.67746Z" fill="#FFCE00"/>
<path fill-rule="evenodd" clip-rule="evenodd" d="M35.7422 35.8572C35.746 35.3204 35.5899 34.7947 35.2937 34.347C34.9976 33.8994 34.5749 33.5501 34.0795 33.3438C33.5842 33.1375 33.0386 33.0835 32.5125 33.1888C31.9864 33.294 31.5035 33.5537 31.1255 33.9346C30.7474 34.3156 30.4914 34.8006 30.39 35.3277C30.2887 35.8549 30.3465 36.4003 30.5563 36.8944C30.766 37.3885 31.1181 37.8089 31.5677 38.1019C32.0172 38.395 32.5438 38.5474 33.0803 38.5398C33.7881 38.5347 34.4651 38.2498 34.9638 37.7473C35.4624 37.2447 35.7422 36.5653 35.7422 35.8572ZM26.2714 35.8572C26.2688 35.5075 26.1975 35.1616 26.0614 34.8395C25.9253 34.5173 25.7271 34.2252 25.4781 33.9797C25.2291 33.7342 24.9343 33.5401 24.6103 33.4086C24.2864 33.2771 23.9398 33.2107 23.5902 33.2133C23.0529 33.2096 22.5266 33.3663 22.0789 33.6635C21.6311 33.9607 21.2821 34.3847 21.0765 34.8815C20.8709 35.3782 20.8182 35.9251 20.9249 36.452C21.0317 36.9789 21.2932 37.4619 21.6759 37.8393C22.0586 38.2167 22.5452 38.4713 23.0733 38.5705C23.6014 38.6697 24.1471 38.609 24.6406 38.3961C25.1341 38.1833 25.5528 37.828 25.8433 37.3757C26.1338 36.9234 26.2829 36.3947 26.2714 35.8572Z" fill="#1D1D1B"/>
<path fill-rule="evenodd" clip-rule="evenodd" d="M174.893 37.9607C174.893 40.566 178.384 42.3609 180.872 39.273V31.264H190.69V39.2344C193.178 42.3608 196.67 40.566 196.67 37.9607V17.4075C194.181 14.2811 190.69 16.0565 190.69 18.6619V25.3586H180.872V17.3689C178.403 14.2811 174.931 16.0758 174.931 18.6619V37.9607H174.893ZM103.697 21.8848V39.4853C106.359 42.3222 109.735 40.6239 109.735 38.0186V21.9427H115.521C118.685 19.4917 116.852 16.0565 114.229 16.0565H99.1644C96.5218 16.0565 94.6894 19.4917 97.872 21.9427L103.697 21.8848ZM82.6724 29.1604L88.9991 17.311C89.3573 16.6446 89.9531 16.1377 90.668 15.8909C91.3828 15.6442 92.1643 15.6757 92.8569 15.9794C93.2087 16.154 93.5213 16.3985 93.7756 16.6979C94.0299 16.9974 94.2206 17.3455 94.3361 17.7211C94.4516 18.0966 94.4895 18.4918 94.4474 18.8825C94.4053 19.2732 94.2842 19.6512 94.0914 19.9935L89.1921 29.2183C87.8936 31.9037 86.2883 34.4294 84.4084 36.7448C83.37 37.9927 82.0776 39.0048 80.6175 39.7136C79.1573 40.4225 77.5629 40.8117 75.9406 40.8555C75.1886 40.8913 74.4531 40.6268 73.896 40.1201C73.339 39.6134 73.0059 38.9061 72.9701 38.1537C72.9343 37.4013 73.1986 36.6655 73.7051 36.1081C74.2115 35.5508 74.9185 35.2175 75.6705 35.1816C76.8393 35.1447 77.9774 34.7984 78.9689 34.1781L70.7133 20.1865C70.5085 19.852 70.3737 19.4793 70.3173 19.0912C70.2608 18.703 70.2838 18.3074 70.3848 17.9284C70.4858 17.5494 70.6628 17.1949 70.9049 16.8864C71.1471 16.5779 71.4494 16.3218 71.7934 16.1337C72.4701 15.8302 73.2337 15.7822 73.9429 15.9986C74.6522 16.2151 75.2591 16.6813 75.6512 17.311L82.6338 29.257L82.6724 29.1604ZM201.318 28.3499C201.276 30.0138 201.573 31.6689 202.191 33.214C202.81 34.7591 203.737 36.1617 204.916 37.336C206.095 38.5102 207.501 39.4314 209.048 40.0432C210.596 40.655 212.251 40.9446 213.914 40.8941C223.134 40.8941 229.345 32.2096 225.256 22.155C224.177 19.8328 222.292 17.9813 219.951 16.9443C209.844 13.0845 201.318 19.2409 201.318 28.3499ZM220.492 28.3499C220.454 29.6426 220.036 30.8954 219.29 31.9519C218.545 33.0085 217.505 33.8219 216.3 34.2905C215.096 34.7591 213.78 34.8623 212.517 34.587C211.254 34.3117 210.1 33.6701 209.199 32.7426C208.298 31.815 207.691 30.6425 207.452 29.3714C207.214 28.1004 207.355 26.7873 207.858 25.596C208.361 24.4047 209.203 23.3881 210.281 22.6731C211.358 21.9582 212.621 21.5766 213.914 21.576C214.801 21.5505 215.684 21.7097 216.506 22.0436C217.329 22.3776 218.073 22.879 218.691 23.5159C219.31 24.1528 219.789 24.9115 220.099 25.7437C220.409 26.5758 220.543 27.4633 220.492 28.3499ZM247.033 21.9041C247.418 21.9118 247.8 21.8426 248.158 21.7006C248.516 21.5585 248.842 21.3465 249.116 21.0769C249.391 20.8074 249.61 20.4856 249.759 20.1306C249.908 19.7756 249.984 19.3944 249.984 19.0093C249.974 18.2329 249.659 17.4917 249.106 16.9463C248.554 16.4009 247.809 16.0951 247.033 16.0952H242.577C239.319 16.0952 236.193 17.3903 233.889 19.6958C231.585 22.0012 230.29 25.1281 230.29 28.3885C230.29 31.6489 231.585 34.7757 233.889 37.0812C236.193 39.3866 239.319 40.6818 242.577 40.6818H247.072C247.48 40.729 247.893 40.6894 248.285 40.5654C248.676 40.4415 249.037 40.2361 249.344 39.9628C249.651 39.6894 249.896 39.3542 250.064 38.9792C250.232 38.6042 250.319 38.1979 250.319 37.787C250.319 37.3761 250.232 36.9698 250.064 36.5948C249.896 36.2198 249.651 35.8846 249.344 35.6112C249.037 35.3379 248.676 35.1325 248.285 35.0086C247.893 34.8846 247.48 34.845 247.072 34.8922H242.404C240.685 34.8922 239.036 34.209 237.821 32.9929C236.605 31.7769 235.923 30.1276 235.923 28.4078C235.923 26.688 236.605 25.0387 237.821 23.8226C239.036 22.6066 240.685 21.9234 242.404 21.9234L247.033 21.9041ZM137.53 40.0257C137.799 40.297 138.119 40.5124 138.472 40.6593C138.824 40.8063 139.202 40.8819 139.584 40.8819C139.966 40.8819 140.344 40.8063 140.697 40.6593C141.05 40.5124 141.37 40.297 141.639 40.0257C142.193 39.4925 142.515 38.7629 142.537 37.994C142.559 37.2252 142.277 36.4786 141.754 35.915L134.193 28.1955L141.465 20.669C141.981 20.1096 142.258 19.3703 142.236 18.6093C142.215 17.8483 141.896 17.1261 141.349 16.5969C141.084 16.3268 140.767 16.1122 140.417 15.9657C140.068 15.8192 139.693 15.7438 139.314 15.7438C138.935 15.7438 138.56 15.8192 138.211 15.9657C137.862 16.1122 137.545 16.3268 137.279 16.5969L129.776 24.3165C129.59 24.5641 129.348 24.7635 129.07 24.8979C128.791 25.0322 128.484 25.0976 128.175 25.0884C128 25.0989 127.826 25.0738 127.661 25.0147C127.497 24.9557 127.346 24.8638 127.218 24.7448C127.09 24.6257 126.987 24.4819 126.916 24.322C126.845 24.1621 126.808 23.9895 126.805 23.8147V17.3302C124.317 14.2424 120.845 16.0373 120.845 18.6233V39.2344C123.333 42.3222 126.805 40.5274 126.805 37.9221V31.1096C128.021 31.4184 128.58 30.7237 129.776 31.9588L137.491 39.9871L137.53 40.0257ZM144.937 28.4464C144.892 30.1094 145.186 31.7641 145.802 33.3091C146.419 34.8542 147.344 36.257 148.522 37.4315C149.699 38.606 151.104 39.5276 152.65 40.1396C154.197 40.7516 155.851 41.0412 157.513 40.9906C166.753 40.9906 172.944 32.3062 168.855 22.2515C167.778 19.9347 165.901 18.0846 163.57 17.0408C153.443 13.181 144.937 19.3373 144.937 28.4464ZM164.091 28.4464C164.053 29.7391 163.635 30.9919 162.89 32.0485C162.144 33.105 161.104 33.9184 159.9 34.387C158.695 34.8557 157.379 34.9588 156.116 34.6835C154.853 34.4081 153.699 33.7667 152.798 32.8391C151.898 31.9115 151.29 30.7389 151.052 29.4679C150.813 28.1969 150.954 26.8837 151.457 25.6924C151.96 24.5011 152.803 23.4845 153.88 22.7696C154.957 22.0546 156.221 21.673 157.513 21.6725C158.4 21.6469 159.283 21.8062 160.106 22.1402C160.928 22.4741 161.672 22.9755 162.291 23.6124C162.909 24.2494 163.389 25.008 163.699 25.8401C164.008 26.6723 164.142 27.5598 164.091 28.4464ZM257.391 25.9761C257.985 25.9761 258.566 25.8 259.061 25.47C259.555 25.1401 259.941 24.671 260.169 24.1221C260.398 23.5731 260.458 22.9687 260.344 22.3852C260.229 21.8018 259.945 21.2653 259.526 20.8435C259.107 20.4217 258.572 20.1334 257.99 20.0151C257.407 19.8968 256.803 19.9537 256.253 20.1786C255.703 20.4035 255.231 20.7863 254.899 21.2789C254.566 21.7714 254.386 22.3516 254.382 22.9462C254.382 23.7465 254.698 24.5143 255.262 25.0819C255.826 25.6496 256.591 25.971 257.391 25.9761ZM257.391 36.687C258.189 36.6769 258.952 36.3538 259.514 35.7872C260.077 35.2206 260.395 34.4558 260.4 33.6571C260.396 33.0625 260.217 32.4823 259.884 31.9898C259.551 31.4972 259.079 31.1143 258.529 30.8894C257.979 30.6645 257.375 30.6076 256.792 30.726C256.21 30.8443 255.676 31.1325 255.257 31.5543C254.838 31.9761 254.553 32.5126 254.439 33.0961C254.324 33.6796 254.385 34.2839 254.613 34.8329C254.841 35.3819 255.227 35.851 255.721 36.1809C256.216 36.5109 256.797 36.6869 257.391 36.687Z" fill="#2FA736"/>
<path fill-rule="evenodd" clip-rule="evenodd" d="M77.6571 55.7736C77.1202 56.3485 76.4205 56.7455 75.6518 56.9114C74.8831 57.0773 74.082 57.0043 73.3559 56.7019C72.6299 56.3996 72.0135 55.8825 71.5895 55.2199C71.1654 54.5573 70.9538 53.7808 70.9832 52.9945C70.9689 52.4867 71.0591 51.9814 71.2482 51.51C71.4374 51.0386 71.7214 50.6111 72.0826 50.2541C72.8329 49.5357 73.8313 49.1348 74.8698 49.1348C75.9083 49.1348 76.9068 49.5357 77.6571 50.2541C78.0288 50.6061 78.3236 51.0313 78.5228 51.503C78.722 51.9747 78.8213 52.4825 78.8144 52.9945C78.825 53.5076 78.7333 54.0177 78.5445 54.4948C78.3557 54.972 78.0737 55.4067 77.715 55.7736H77.6571ZM72.8735 55.0016C73.4201 55.498 74.1317 55.7729 74.8698 55.7729C75.608 55.7729 76.3197 55.498 76.8662 55.0016C77.372 54.4866 77.656 53.7938 77.6571 53.0717C77.6623 52.7054 77.594 52.3417 77.4562 52.0021C77.3185 51.6626 77.1141 51.3542 76.8551 51.0951C76.5961 50.836 76.2879 50.6315 75.9485 50.4937C75.6092 50.3558 75.2457 50.2875 74.8795 50.2927C74.5201 50.2916 74.1642 50.3627 73.8328 50.502C73.5014 50.6412 73.2014 50.8457 72.9506 51.1032C72.694 51.3537 72.4914 51.6543 72.3554 51.9862C72.2193 52.3181 72.1527 52.6744 72.1597 53.0331C72.142 53.7325 72.3982 54.4112 72.8735 54.9244V55.0016Z" fill="#1D1D1B"/>
<path fill-rule="evenodd" clip-rule="evenodd" d="M87.2818 49.7524V56.2754C87.2768 56.4205 87.2156 56.5579 87.1112 56.6587C87.0069 56.7595 86.8674 56.8159 86.7224 56.8158C86.5791 56.8158 86.4417 56.7588 86.3404 56.6575C86.2392 56.5561 86.1823 56.4187 86.1823 56.2754V53.4192H82.0159V56.2754C82.0109 56.4205 81.9497 56.5579 81.8453 56.6587C81.741 56.7595 81.6015 56.8159 81.4565 56.8158C81.3132 56.8158 81.1758 56.7588 81.0746 56.6575C80.9733 56.5561 80.9164 56.4187 80.9164 56.2754V49.7524C80.9137 49.6807 80.9258 49.6092 80.952 49.5424C80.9782 49.4757 81.0179 49.415 81.0686 49.3643C81.1193 49.3136 81.1799 49.2738 81.2466 49.2476C81.3134 49.2214 81.3848 49.2093 81.4565 49.212C81.529 49.2094 81.6013 49.2215 81.6691 49.2475C81.7369 49.2735 81.7987 49.3128 81.8509 49.3633C81.9031 49.4137 81.9446 49.4742 81.973 49.541C82.0013 49.6079 82.0159 49.6798 82.0159 49.7524V52.3578H86.1823V49.7524C86.1796 49.6807 86.1916 49.6092 86.2178 49.5424C86.244 49.4757 86.2837 49.415 86.3344 49.3643C86.3851 49.3136 86.4458 49.2738 86.5125 49.2476C86.5793 49.2214 86.6507 49.2093 86.7224 49.212C86.7949 49.2094 86.8672 49.2215 86.935 49.2475C87.0027 49.2735 87.0645 49.3128 87.1168 49.3633C87.169 49.4137 87.2105 49.4742 87.2388 49.541C87.2672 49.6079 87.2818 49.6798 87.2818 49.7524Z" fill="#1D1D1B"/>
<path fill-rule="evenodd" clip-rule="evenodd" d="M94.8636 56.2754V50.37H92.0088L91.7774 53.6507C91.6424 55.8508 90.9672 56.7192 89.5206 56.7192C89.3773 56.7192 89.24 56.6623 89.1387 56.561C89.0374 56.4596 88.9805 56.3222 88.9805 56.1789C88.9805 56.0356 89.0374 55.8981 89.1387 55.7968C89.24 55.6954 89.3773 55.6385 89.5206 55.6385C90.35 55.6385 90.6586 55.0596 90.7744 53.4192L91.0058 49.8489C91.0154 49.7003 91.08 49.5605 91.187 49.457C91.294 49.3535 91.4357 49.2937 91.5845 49.2892H95.4423C95.5148 49.2891 95.5867 49.3038 95.6535 49.3321C95.7203 49.3605 95.7808 49.402 95.8312 49.4543C95.8816 49.5065 95.9209 49.5683 95.9469 49.6361C95.9729 49.7039 95.9849 49.7763 95.9823 49.8489V56.2754C95.9823 56.4187 95.9255 56.5561 95.8242 56.6575C95.7229 56.7588 95.5855 56.8158 95.4423 56.8158C95.3675 56.8242 95.2918 56.8163 95.2204 56.7927C95.149 56.7691 95.0835 56.7302 95.0286 56.6789C94.9736 56.6275 94.9304 56.5649 94.9019 56.4952C94.8734 56.4255 94.8604 56.3506 94.8636 56.2754Z" fill="#1D1D1B"/>
<path fill-rule="evenodd" clip-rule="evenodd" d="M105.376 56.2753C105.376 56.4186 105.319 56.556 105.218 56.6573C105.116 56.7587 104.979 56.8157 104.836 56.8157C104.693 56.8157 104.555 56.7587 104.454 56.6573C104.353 56.556 104.296 56.4186 104.296 56.2753V55.9665C103.565 56.5753 102.634 56.8923 101.684 56.8566C100.733 56.821 99.8293 56.4353 99.1457 55.7735C98.7973 55.402 98.526 54.9651 98.3472 54.4882C98.1684 54.0112 98.0858 53.5035 98.104 52.9945C98.0827 51.9768 98.4639 50.9918 99.1649 50.254C99.5105 49.8873 99.9299 49.598 100.395 49.405C100.861 49.2121 101.362 49.12 101.865 49.1347C102.768 49.1125 103.644 49.4371 104.315 50.0417V49.7136C104.315 49.5703 104.372 49.4329 104.473 49.3316C104.575 49.2303 104.712 49.1733 104.855 49.1733C104.998 49.1733 105.136 49.2303 105.237 49.3316C105.338 49.4329 105.395 49.5703 105.395 49.7136V56.2753H105.376ZM104.296 54.6156V51.3927C104.037 51.0161 103.687 50.7109 103.279 50.5051C102.871 50.2994 102.418 50.1998 101.962 50.2154C101.24 50.2166 100.548 50.5006 100.033 51.0067C99.5368 51.5535 99.262 52.2656 99.262 53.0041C99.262 53.7426 99.5368 54.4547 100.033 55.0016C100.299 55.2648 100.615 55.4707 100.964 55.6068C101.312 55.7429 101.685 55.8062 102.058 55.7928C102.499 55.7958 102.934 55.69 103.324 55.4846C103.715 55.2793 104.048 54.9807 104.296 54.6156Z" fill="#1D1D1B"/>
<path fill-rule="evenodd" clip-rule="evenodd" d="M113.148 51.0647L108.905 56.5841C108.839 56.6811 108.742 56.7531 108.63 56.7881C108.518 56.8231 108.397 56.8192 108.288 56.7771C108.17 56.7494 108.067 56.6785 107.999 56.5784C107.931 56.4783 107.904 56.3564 107.921 56.2367V49.7524C107.921 49.609 107.978 49.4716 108.079 49.3702C108.181 49.2689 108.318 49.212 108.461 49.212C108.605 49.212 108.742 49.2689 108.843 49.3702C108.945 49.4716 109.001 49.609 109.001 49.7524V54.9244L113.226 49.4436C113.29 49.3388 113.389 49.26 113.505 49.2212C113.622 49.1823 113.748 49.1859 113.862 49.2312C113.981 49.2588 114.086 49.329 114.157 49.4285C114.228 49.528 114.261 49.65 114.248 49.7716V56.256C114.248 56.3994 114.191 56.5368 114.09 56.6382C113.989 56.7395 113.851 56.7964 113.708 56.7964C113.563 56.7965 113.423 56.7402 113.319 56.6394C113.215 56.5386 113.154 56.4011 113.148 56.256V51.0647ZM110.024 45.7382C110.024 46.4329 110.429 46.7803 111.046 46.7996C111.663 46.8189 111.991 46.4329 112.068 45.7382C112.089 45.5795 112.171 45.4355 112.298 45.3377C112.425 45.24 112.585 45.1966 112.743 45.2171C112.902 45.2376 113.046 45.3203 113.144 45.4469C113.241 45.5736 113.285 45.7339 113.264 45.8926C113.167 46.4103 112.893 46.8778 112.487 47.2143C112.082 47.5507 111.572 47.7348 111.046 47.7348C110.52 47.7348 110.01 47.5507 109.605 47.2143C109.2 46.8778 108.925 46.4103 108.828 45.8926C108.818 45.814 108.823 45.7342 108.844 45.6578C108.865 45.5813 108.9 45.5097 108.948 45.4469C108.997 45.3842 109.057 45.3316 109.126 45.2922C109.194 45.2528 109.27 45.2273 109.349 45.2171C109.427 45.207 109.507 45.2124 109.583 45.2331C109.66 45.2538 109.731 45.2894 109.794 45.3377C109.857 45.3861 109.909 45.4464 109.949 45.5151C109.988 45.5838 110.014 45.6596 110.024 45.7382Z" fill="#1D1D1B"/>
<path fill-rule="evenodd" clip-rule="evenodd" d="M123.18 49.7523V56.2754C123.175 56.4204 123.114 56.5578 123.009 56.6586C122.905 56.7595 122.765 56.8158 122.62 56.8157C122.477 56.8157 122.34 56.7587 122.239 56.6574C122.137 56.5561 122.08 56.4187 122.08 56.2754V53.4191H117.895V56.2754C117.895 56.4187 117.838 56.5561 117.736 56.6574C117.635 56.7587 117.498 56.8157 117.355 56.8157C117.283 56.8184 117.211 56.8063 117.145 56.7801C117.078 56.7539 117.017 56.7142 116.967 56.6635C116.916 56.6127 116.876 56.552 116.85 56.4853C116.824 56.4185 116.812 56.347 116.815 56.2754V49.7523C116.794 49.6706 116.794 49.5848 116.815 49.5031C116.836 49.4214 116.877 49.3462 116.934 49.2847C116.992 49.2231 117.064 49.1771 117.145 49.1509C117.225 49.1247 117.31 49.1191 117.393 49.1348C117.465 49.1321 117.536 49.1442 117.603 49.1704C117.67 49.1966 117.73 49.2363 117.781 49.287C117.832 49.3377 117.871 49.3984 117.898 49.4652C117.924 49.532 117.936 49.6034 117.933 49.6751V52.2805H122.119V49.6751C122.116 49.6034 122.128 49.532 122.155 49.4652C122.181 49.3984 122.22 49.3377 122.271 49.287C122.322 49.2363 122.382 49.1966 122.449 49.1704C122.516 49.1442 122.587 49.1321 122.659 49.1348C122.735 49.1367 122.81 49.1548 122.879 49.1878C122.948 49.2209 123.009 49.2681 123.058 49.3265C123.107 49.3848 123.144 49.453 123.165 49.5264C123.186 49.5998 123.191 49.6768 123.18 49.7523Z" fill="#1D1D1B"/>
<path fill-rule="evenodd" clip-rule="evenodd" d="M128.85 51.5664C129.563 51.5664 129.563 52.7051 128.85 52.6472H125.783C125.069 52.6472 125.05 51.4892 125.783 51.5664H128.85Z" fill="#1D1D1B"/>
<path fill-rule="evenodd" clip-rule="evenodd" d="M131.453 49.8489C131.453 49.7037 131.509 49.5642 131.61 49.4598C131.711 49.3554 131.848 49.2942 131.993 49.2892H135.851C135.994 49.2892 136.132 49.3462 136.233 49.4475C136.334 49.5488 136.391 49.6862 136.391 49.8295C136.391 49.9729 136.334 50.1103 136.233 50.2117C136.132 50.313 135.994 50.37 135.851 50.37H132.63V56.2754C132.606 56.4036 132.537 56.5194 132.437 56.6027C132.337 56.686 132.21 56.7315 132.08 56.7315C131.95 56.7315 131.823 56.686 131.723 56.6027C131.623 56.5194 131.554 56.4036 131.53 56.2754L131.453 49.8489Z" fill="#1D1D1B"/>
<path fill-rule="evenodd" clip-rule="evenodd" d="M143.161 51.0646L138.918 56.5841C138.852 56.6811 138.755 56.753 138.643 56.7881C138.531 56.8231 138.41 56.8192 138.301 56.7771C138.181 56.7495 138.077 56.6794 138.005 56.5799C137.934 56.4804 137.902 56.3583 137.915 56.2367V49.7523C137.939 49.6241 138.007 49.5083 138.107 49.425C138.208 49.3417 138.334 49.2961 138.464 49.2961C138.595 49.2961 138.721 49.3417 138.822 49.425C138.922 49.5083 138.99 49.6241 139.014 49.7523V54.9244L143.238 49.4435C143.306 49.3434 143.405 49.2679 143.519 49.2284C143.633 49.1889 143.757 49.1876 143.872 49.2245C143.988 49.2615 144.088 49.3347 144.158 49.4333C144.228 49.532 144.264 49.6506 144.261 49.7716V56.256C144.237 56.3842 144.169 56.5 144.068 56.5833C143.968 56.6666 143.841 56.7122 143.711 56.7122C143.581 56.7122 143.454 56.6666 143.354 56.5833C143.254 56.5 143.185 56.3842 143.161 56.256V51.0646Z" fill="#1D1D1B"/>
<path fill-rule="evenodd" clip-rule="evenodd" d="M152.69 49.2892C152.833 49.2892 152.971 49.3461 153.072 49.4475C153.173 49.5488 153.23 49.6862 153.23 49.8295V56.2754C153.206 56.4036 153.138 56.5194 153.038 56.6027C152.937 56.686 152.811 56.7315 152.681 56.7315C152.55 56.7315 152.424 56.686 152.324 56.6027C152.223 56.5194 152.155 56.4036 152.131 56.2754V50.3699H147.945V56.2754C147.921 56.4036 147.853 56.5194 147.753 56.6027C147.652 56.686 147.526 56.7315 147.395 56.7315C147.265 56.7315 147.139 56.686 147.038 56.6027C146.938 56.5194 146.87 56.4036 146.846 56.2754V49.8295C146.846 49.7569 146.86 49.6851 146.889 49.6182C146.917 49.5514 146.958 49.4909 147.011 49.4405C147.063 49.39 147.125 49.3507 147.192 49.3247C147.26 49.2987 147.333 49.2866 147.405 49.2892H152.69Z" fill="#1D1D1B"/>
<path fill-rule="evenodd" clip-rule="evenodd" d="M161.853 50.2734C162.173 50.629 162.412 51.049 162.555 51.5052C162.698 51.9613 162.742 52.4429 162.683 52.9173C162.683 53.3033 162.451 53.4963 162.123 53.4963H156.491C156.591 54.1732 156.943 54.7873 157.475 55.2165C158.008 55.6457 158.683 55.8584 159.365 55.8121C160.133 55.8321 160.879 55.5557 161.448 55.0402C162.104 54.4805 162.76 55.3104 162.22 55.7929C161.43 56.5124 160.394 56.8995 159.326 56.8736C158.797 56.8974 158.269 56.812 157.775 56.6227C157.28 56.4335 156.83 56.1444 156.452 55.7736C155.758 55.0184 155.373 54.03 155.373 53.0042C155.373 51.9783 155.758 50.9899 156.452 50.2348C156.809 49.8734 157.236 49.5892 157.708 49.4C158.179 49.2107 158.684 49.1205 159.191 49.1348C159.691 49.1178 160.189 49.211 160.649 49.4078C161.109 49.6046 161.52 49.9001 161.853 50.2734ZM161.602 52.4927C161.606 52.1803 161.545 51.8707 161.423 51.5829C161.301 51.2952 161.122 51.0355 160.896 50.8201C160.67 50.6046 160.402 50.4381 160.108 50.3308C159.815 50.2235 159.503 50.1776 159.191 50.1962C158.538 50.1805 157.902 50.4059 157.404 50.8294C156.906 51.2529 156.581 51.845 156.491 52.4927H161.602Z" fill="#1D1D1B"/>
<path fill-rule="evenodd" clip-rule="evenodd" d="M171.055 50.2541C171.763 50.9888 172.151 51.9741 172.135 52.9946C172.148 53.5063 172.059 54.0155 171.874 54.4926C171.688 54.9697 171.41 55.4052 171.055 55.7736C170.71 56.1344 170.293 56.4187 169.831 56.6081C169.369 56.7976 168.873 56.8881 168.374 56.8736C167.477 56.8928 166.608 56.5683 165.943 55.9666V59.4597C165.919 59.5879 165.851 59.7037 165.751 59.787C165.65 59.8703 165.524 59.9159 165.393 59.9159C165.263 59.9159 165.137 59.8703 165.036 59.787C164.936 59.7037 164.868 59.5879 164.844 59.4597V49.7137C164.844 49.6403 164.858 49.5675 164.886 49.4996C164.914 49.4317 164.956 49.37 165.008 49.318C165.06 49.2661 165.121 49.2248 165.189 49.1967C165.257 49.1686 165.33 49.1541 165.403 49.1541C165.476 49.1541 165.548 49.1686 165.614 49.197C165.681 49.2254 165.742 49.2669 165.792 49.3191C165.842 49.3714 165.882 49.4333 165.908 49.5011C165.934 49.5689 165.946 49.6412 165.943 49.7137V50.0612C166.659 49.4339 167.587 49.1043 168.537 49.1402C169.488 49.1761 170.389 49.5746 171.055 50.2541ZM170.264 55.0017C170.655 54.6137 170.924 54.1188 171.035 53.5789C171.146 53.0391 171.096 52.4783 170.89 51.9671C170.684 51.4559 170.331 51.0169 169.877 50.7053C169.422 50.3937 168.886 50.2233 168.335 50.2155C167.878 50.1962 167.424 50.2943 167.015 50.5004C166.606 50.7064 166.257 51.0136 166.001 51.3928V54.6157C166.244 54.9463 166.555 55.2214 166.912 55.4228C167.27 55.6241 167.666 55.7472 168.074 55.7837C168.483 55.8202 168.895 55.7693 169.282 55.6345C169.67 55.4997 170.024 55.284 170.322 55.0017H170.264Z" fill="#1D1D1B"/>
<path fill-rule="evenodd" clip-rule="evenodd" d="M181.74 49.7524V56.2754C181.736 56.4172 181.677 56.5519 181.577 56.6522C181.477 56.7525 181.342 56.811 181.2 56.8158C181.128 56.8184 181.056 56.8063 180.988 56.7803C180.92 56.7543 180.858 56.7149 180.806 56.6645C180.754 56.614 180.712 56.5536 180.684 56.4867C180.655 56.4199 180.641 56.348 180.641 56.2754V50.8138L178.423 52.7437C178.372 52.8021 178.31 52.8494 178.24 52.8826C178.171 52.9158 178.095 52.9342 178.018 52.9367C177.937 52.9357 177.858 52.9181 177.785 52.8849C177.712 52.8516 177.647 52.8035 177.593 52.7437L175.394 50.8138V56.2754C175.389 56.4205 175.328 56.5579 175.224 56.6587C175.12 56.7595 174.98 56.8159 174.835 56.8158C174.692 56.8158 174.554 56.7588 174.453 56.6575C174.352 56.5561 174.295 56.4187 174.295 56.2754V49.7524C174.295 49.6798 174.309 49.6079 174.338 49.541C174.366 49.4742 174.408 49.4137 174.46 49.3633C174.512 49.3128 174.574 49.2735 174.642 49.2475C174.709 49.2215 174.782 49.2094 174.854 49.212C174.988 49.2162 175.116 49.2636 175.221 49.3471L178.018 51.6244L180.795 49.3471C180.912 49.2594 181.054 49.212 181.2 49.212C181.272 49.2093 181.343 49.2214 181.41 49.2476C181.477 49.2738 181.538 49.3136 181.588 49.3643C181.639 49.415 181.679 49.4757 181.705 49.5424C181.731 49.6092 181.743 49.6807 181.74 49.7524Z" fill="#1D1D1B"/>
<path fill-rule="evenodd" clip-rule="evenodd" d="M191.154 56.2754C191.154 56.4187 191.097 56.5561 190.995 56.6575C190.894 56.7588 190.757 56.8158 190.614 56.8158C190.468 56.8159 190.329 56.7595 190.225 56.6587C190.12 56.5579 190.059 56.4205 190.054 56.2754V55.9666C189.389 56.5683 188.52 56.8928 187.624 56.8737C187.122 56.8873 186.623 56.7965 186.158 56.6072C185.693 56.4178 185.273 56.134 184.923 55.7736C184.572 55.4036 184.297 54.9675 184.115 54.4905C183.932 54.0134 183.847 53.505 183.862 52.9946C183.842 52.4894 183.926 51.9855 184.108 51.514C184.291 51.0426 184.568 50.6137 184.923 50.2541C185.267 49.8854 185.686 49.5948 186.152 49.4017C186.618 49.2086 187.12 49.1176 187.624 49.1348C188.521 49.1096 189.393 49.435 190.054 50.0419V49.7138C190.051 49.6317 190.065 49.5498 190.097 49.474C190.128 49.3982 190.176 49.3302 190.237 49.2749C190.297 49.2197 190.37 49.1785 190.448 49.1543C190.527 49.13 190.609 49.1234 190.691 49.1348C190.834 49.1348 190.971 49.1917 191.073 49.2931C191.174 49.3944 191.231 49.5319 191.231 49.6752V56.2368L191.154 56.2754ZM190.054 54.6157V51.3928C189.801 51.0152 189.455 50.7087 189.05 50.5027C188.645 50.2966 188.194 50.1977 187.739 50.2156C187.018 50.2167 186.325 50.5008 185.811 51.0068C185.315 51.5537 185.04 52.2657 185.04 53.0042C185.04 53.7428 185.315 54.4548 185.811 55.0017C186.076 55.2649 186.393 55.4709 186.741 55.6069C187.09 55.743 187.462 55.8064 187.836 55.7929C188.275 55.7979 188.707 55.6928 189.095 55.4871C189.482 55.2814 189.812 54.9818 190.054 54.6157Z" fill="#1D1D1B"/>
<path fill-rule="evenodd" clip-rule="evenodd" d="M199.911 50.2541C200.612 50.9918 200.993 51.9768 200.971 52.9945C200.987 53.5049 200.902 54.0134 200.719 54.4904C200.537 54.9674 200.262 55.4036 199.911 55.7736C199.561 56.1339 199.141 56.4178 198.676 56.6071C198.211 56.7965 197.712 56.8872 197.21 56.8736C196.314 56.8928 195.444 56.5683 194.78 55.9666V59.4596C194.782 59.5313 194.77 59.6028 194.744 59.6696C194.718 59.7364 194.678 59.797 194.628 59.8478C194.577 59.8985 194.516 59.9382 194.45 59.9644C194.383 59.9906 194.311 60.0027 194.24 60C194.168 60.0027 194.097 59.9906 194.03 59.9644C193.963 59.9382 193.902 59.8985 193.852 59.8478C193.801 59.797 193.761 59.7364 193.735 59.6696C193.709 59.6028 193.697 59.5313 193.7 59.4596V49.7137C193.7 49.5704 193.756 49.433 193.858 49.3317C193.959 49.2303 194.096 49.1733 194.24 49.1733C194.383 49.1733 194.52 49.2303 194.622 49.3317C194.723 49.433 194.78 49.5704 194.78 49.7137V50.0611C195.443 49.4425 196.323 49.1097 197.229 49.1348C197.73 49.1203 198.228 49.2127 198.69 49.4057C199.153 49.5987 199.569 49.8878 199.911 50.2541ZM199.1 55.0016C199.492 54.6137 199.76 54.1187 199.871 53.5789C199.983 53.039 199.932 52.4783 199.726 51.967C199.52 51.4558 199.168 51.0169 198.713 50.7053C198.259 50.3937 197.722 50.2233 197.172 50.2155C196.714 50.1962 196.26 50.2943 195.852 50.5003C195.443 50.7064 195.094 51.0136 194.838 51.3928V54.6156C195.097 54.9869 195.444 55.2885 195.848 55.4938C196.252 55.6991 196.7 55.8018 197.152 55.7929C197.519 55.7892 197.881 55.7102 198.216 55.5608C198.552 55.4114 198.852 55.1948 199.1 54.9244V55.0016Z" fill="#1D1D1B"/>
<path fill-rule="evenodd" clip-rule="evenodd" d="M208.589 55.8508C208.646 55.8997 208.692 55.9604 208.723 56.0287C208.755 56.097 208.771 56.1712 208.771 56.2464C208.771 56.3216 208.755 56.3958 208.723 56.4641C208.692 56.5324 208.646 56.5931 208.589 56.6421C208.539 56.6964 208.477 56.7397 208.409 56.7694C208.341 56.799 208.268 56.8143 208.194 56.8143C208.12 56.8143 208.046 56.799 207.978 56.7694C207.91 56.7397 207.849 56.6964 207.798 56.6421L204.191 53.284V56.2754C204.167 56.4036 204.099 56.5194 203.999 56.6027C203.898 56.686 203.772 56.7315 203.642 56.7315C203.511 56.7315 203.385 56.686 203.284 56.6027C203.184 56.5194 203.116 56.4036 203.092 56.2754V49.7331C203.092 49.6613 203.106 49.5902 203.135 49.5243C203.163 49.4585 203.205 49.3992 203.258 49.3502C203.31 49.3013 203.372 49.2638 203.44 49.24C203.508 49.2162 203.58 49.2067 203.651 49.212C203.723 49.2093 203.794 49.2214 203.861 49.2476C203.928 49.2738 203.988 49.3135 204.039 49.3643C204.09 49.415 204.129 49.4756 204.156 49.5424C204.182 49.6092 204.194 49.6807 204.191 49.7524V52.7051L207.702 49.405C207.813 49.3124 207.953 49.2616 208.097 49.2616C208.242 49.2616 208.382 49.3124 208.493 49.405C208.55 49.4557 208.596 49.5181 208.628 49.5879C208.659 49.6578 208.676 49.7336 208.676 49.8103C208.676 49.8869 208.659 49.9627 208.628 50.0326C208.596 50.1025 208.55 50.1648 208.493 50.2155L205.31 52.9946L208.589 55.8508Z" fill="#1D1D1B"/>
<path fill-rule="evenodd" clip-rule="evenodd" d="M216.653 50.2734C216.98 50.6239 217.224 51.0435 217.368 51.5011C217.511 51.9587 217.55 52.4427 217.482 52.9174C217.482 53.3034 217.27 53.4964 216.923 53.4964H211.29C211.395 54.1748 211.75 54.7892 212.286 55.2181C212.822 55.6469 213.499 55.8589 214.184 55.8122C214.951 55.8282 215.695 55.5523 216.267 55.0403C216.903 54.4806 217.559 55.3105 217.019 55.7929C216.232 56.5159 215.194 56.9036 214.126 56.8737C213.341 56.9107 212.565 56.7075 211.899 56.2911C211.233 55.8748 210.71 55.2651 210.4 54.5436C210.09 53.822 210.007 53.0229 210.163 52.253C210.318 51.4831 210.705 50.7791 211.271 50.2349C211.624 49.874 212.048 49.59 212.516 49.4007C212.984 49.2114 213.486 49.1209 213.991 49.1348C214.491 49.1166 214.989 49.2092 215.449 49.406C215.909 49.6029 216.32 49.8991 216.653 50.2734ZM216.402 52.4928C216.408 52.1796 216.349 51.8686 216.228 51.5795C216.108 51.2903 215.928 51.0295 215.702 50.8135C215.475 50.5975 215.206 50.4311 214.911 50.3249C214.616 50.2186 214.303 50.1748 213.991 50.1962C213.338 50.1848 212.704 50.4117 212.207 50.8344C211.71 51.2572 211.384 51.8468 211.29 52.4928H216.402Z" fill="#1D1D1B"/>
<path fill-rule="evenodd" clip-rule="evenodd" d="M221.051 56.2754V50.37H219.122C219.052 50.3726 218.983 50.361 218.917 50.3359C218.852 50.3109 218.792 50.273 218.742 50.2243C218.691 50.1757 218.651 50.1173 218.624 50.0528C218.596 49.9883 218.582 49.9189 218.582 49.8489C218.58 49.7763 218.592 49.7039 218.618 49.6361C218.644 49.5683 218.683 49.5065 218.734 49.4543C218.784 49.402 218.844 49.3605 218.911 49.3321C218.978 49.3038 219.05 49.2891 219.122 49.2892H224.176C224.249 49.2891 224.321 49.3038 224.387 49.3321C224.454 49.3605 224.515 49.402 224.565 49.4543C224.615 49.5065 224.655 49.5683 224.681 49.6361C224.707 49.7039 224.719 49.7763 224.716 49.8489C224.716 49.9189 224.702 49.9883 224.675 50.0528C224.647 50.1173 224.607 50.1757 224.557 50.2243C224.507 50.273 224.447 50.3109 224.381 50.3359C224.316 50.361 224.246 50.3726 224.176 50.37H222.247V56.2754C222.247 56.3455 222.233 56.4148 222.206 56.4794C222.178 56.5439 222.138 56.6022 222.088 56.6508C222.038 56.6994 221.978 56.7374 221.912 56.7625C221.847 56.7875 221.777 56.799 221.707 56.7965C221.629 56.8176 221.546 56.82 221.466 56.8035C221.387 56.787 221.312 56.752 221.248 56.7013C221.184 56.6507 221.133 56.5857 221.099 56.5118C221.065 56.4378 221.049 56.3568 221.051 56.2754Z" fill="#1D1D1B"/>
</g>
<defs>
<clipPath id="clip0_967_2852">
<rect width="260.4" height="60" fill="white"/>
</clipPath>
</defs>
</svg>
