<svg id="vk" width="35" height="35" viewBox="0 0 35 35" fill="none" xmlns="http://www.w3.org/2000/svg">
<rect width="35" height="35" rx="3.6" fill="#F3BD48"/>
<path d="M18.6942 25.1297C19.0273 25.0616 19.6271 24.9254 19.6271 24.1085C19.6271 24.1085 19.5605 22.066 20.4934 21.7937C21.4264 21.5214 22.6259 23.768 23.892 24.6531C24.825 25.2658 25.558 25.1978 25.558 25.1978L28.9566 25.1297C28.9566 25.1297 30.6892 24.9935 29.8895 23.5638C29.8229 23.4276 29.2898 22.5426 27.2906 20.7044C25.2248 18.662 25.558 19.0024 28.0236 15.5302C29.5563 13.4197 30.2227 12.1262 30.0228 11.6496C29.7563 11.173 28.69 11.2411 28.69 11.2411H24.8916C24.4918 11.2411 24.2918 11.3092 24.0919 11.6496C24.0919 11.6496 23.4922 13.3516 22.6925 14.7132C21.0265 17.6407 20.3601 17.7769 20.0269 17.5727C19.4272 17.2323 19.5605 15.9387 19.5605 15.0537C19.5605 11.99 20.0269 10.9007 18.6942 10.6284C17.8278 10.4922 14.7624 10.3561 13.8295 10.8326C13.363 11.1049 13.0965 11.5815 13.2964 11.6496C13.4963 11.6496 14.096 11.7177 14.4292 12.1262C14.9624 13.0112 15.029 17.2323 14.296 17.6407C13.2964 18.3896 10.7641 13.4197 10.1643 11.7858C10.0311 11.3773 9.83114 11.3092 9.36466 11.173H5.6995C5.29967 11.173 4.69992 11.2411 4.96647 12.0581C6.76573 15.8706 10.4975 25.1978 17.2281 25.1297H18.6942Z" fill="#163029"/>
</svg>
