<svg id="wave" width="499" height="20" viewBox="0 0 499 20" fill="none" xmlns="http://www.w3.org/2000/svg">
<path d="M459.628 18.8149C455.764 18.8225 451.937 18.0671 448.365 16.5921C444.794 15.1171 441.549 12.9515 438.816 10.2195C437.036 8.51951 434.669 7.57095 432.208 7.57095C429.746 7.57095 427.38 8.51951 425.599 10.2195C420.078 15.7262 412.598 18.8185 404.8 18.8185C397.003 18.8185 389.523 15.7262 384.002 10.2195C382.221 8.51951 379.855 7.57095 377.393 7.57095C374.932 7.57095 372.565 8.51951 370.785 10.2195C365.263 15.7262 357.784 18.8185 349.986 18.8185C342.188 18.8185 334.709 15.7262 329.187 10.2195C327.407 8.51951 325.04 7.57095 322.579 7.57095C320.118 7.57095 317.751 8.51951 315.971 10.2195C310.449 15.7262 302.97 18.8185 295.172 18.8185C287.374 18.8185 279.895 15.7262 274.373 10.2195C272.593 8.51951 270.226 7.57095 267.765 7.57095C265.303 7.57095 262.936 8.51951 261.156 10.2195C255.635 15.7262 248.155 18.8185 240.357 18.8185C232.56 18.8185 225.08 15.7262 219.558 10.2195C217.778 8.51951 215.411 7.57095 212.95 7.57095C210.488 7.57095 208.122 8.51951 206.342 10.2195C200.82 15.7262 193.34 18.8185 185.542 18.8185C177.745 18.8185 170.265 15.7262 164.744 10.2195C162.963 8.51951 160.597 7.57095 158.135 7.57095C155.674 7.57095 153.307 8.51951 151.527 10.2195C146.005 15.7262 138.526 18.8185 130.728 18.8185C122.93 18.8185 115.451 15.7262 109.929 10.2195C108.15 8.50983 105.775 7.5599 103.308 7.57095C100.848 7.55581 98.4796 8.5068 96.7127 10.2195C91.1836 15.7216 83.7008 18.8104 75.901 18.8104C68.1011 18.8104 60.619 15.7216 55.0899 10.2195C53.3139 8.52115 50.951 7.57331 48.4938 7.57331C46.0366 7.57331 43.6743 8.52115 41.8984 10.2195C36.4084 15.6836 28.9903 18.7696 21.2452 18.8117C13.5001 18.8538 6.04895 15.8485 0.5 10.4444L5.49676 5.44707C9.69118 9.52083 15.3186 11.7829 21.1653 11.7455C27.012 11.7081 32.6096 9.37429 36.7515 5.24721C39.8478 2.15591 44.0438 0.419678 48.4188 0.419678C52.7938 0.419678 56.9904 2.15591 60.0866 5.24721C64.2677 9.40965 69.9265 11.7465 75.826 11.7465C81.7254 11.7465 87.3848 9.40965 91.5659 5.24721C94.6621 2.15591 98.8587 0.419678 103.234 0.419678C107.609 0.419678 111.805 2.15591 114.901 5.24721C119.082 9.40965 124.741 11.7465 130.641 11.7465C136.54 11.7465 142.2 9.40965 146.381 5.24721C149.477 2.15591 153.673 0.419678 158.048 0.419678C162.423 0.419678 166.619 2.15591 169.715 5.24721C173.896 9.40965 179.556 11.7465 185.455 11.7465C191.355 11.7465 197.014 9.40965 201.195 5.24721C204.291 2.15591 208.487 0.419678 212.862 0.419678C217.237 0.419678 221.433 2.15591 224.53 5.24721C228.715 9.41118 234.379 11.7487 240.282 11.7487C246.186 11.7487 251.849 9.41118 256.035 5.24721C259.126 2.15744 263.319 0.421813 267.69 0.421813C272.06 0.421813 276.253 2.15744 279.345 5.24721C283.53 9.41118 289.193 11.7487 295.097 11.7487C301 11.7487 306.664 9.41118 310.849 5.24721C313.945 2.15591 318.142 0.419678 322.517 0.419678C326.892 0.419678 331.088 2.15591 334.184 5.24721C338.365 9.40965 344.024 11.7465 349.924 11.7465C355.823 11.7465 361.482 9.40965 365.663 5.24721C368.759 2.15591 372.956 0.419678 377.331 0.419678C381.706 0.419678 385.902 2.15591 388.998 5.24721C393.179 9.40965 398.839 11.7465 404.738 11.7465C410.638 11.7465 416.297 9.40965 420.478 5.24721C423.574 2.15591 427.77 0.419678 432.145 0.419678C436.52 0.419678 440.716 2.15591 443.813 5.24721C447.994 9.40965 453.653 11.7465 459.553 11.7465C465.452 11.7465 471.111 9.40965 475.293 5.24721C478.353 2.19968 482.483 0.470087 486.802 0.428066C491.12 0.386044 495.284 2.0349 498.403 5.02231L493.406 10.0196C491.607 8.42045 489.272 7.55598 486.866 7.59764C484.459 7.63929 482.157 8.58406 480.414 10.2445C477.684 12.9712 474.442 15.1319 470.875 16.6027C467.308 18.0734 463.486 18.8252 459.628 18.8149Z" fill="#1D1D1B"/>
<path d="M486.959 0.624664C491.034 0.620254 494.961 2.15524 497.953 4.92236L493.33 9.56986C491.455 8.0252 489.082 7.21633 486.654 7.29451C484.227 7.37269 481.91 8.33255 480.139 9.99463C474.677 15.4509 467.272 18.5157 459.552 18.5157C451.832 18.5157 444.428 15.4509 438.965 9.99463C437.113 8.25904 434.671 7.29325 432.133 7.29325C429.595 7.29325 427.151 8.25904 425.299 9.99463C419.842 15.4494 412.441 18.5136 404.725 18.5136C397.009 18.5136 389.609 15.4494 384.151 9.99463C382.299 8.25904 379.856 7.29325 377.318 7.29325C374.78 7.29325 372.337 8.25904 370.485 9.99463C365.027 15.4494 357.627 18.5136 349.911 18.5136C342.195 18.5136 334.795 15.4494 329.337 9.99463C327.485 8.25904 325.042 7.29325 322.503 7.29325C319.965 7.29325 317.522 8.25904 315.67 9.99463C310.212 15.4494 302.812 18.5136 295.096 18.5136C287.38 18.5136 279.98 15.4494 274.522 9.99463C272.67 8.25904 270.227 7.29325 267.689 7.29325C265.151 7.29325 262.708 8.25904 260.856 9.99463C255.398 15.4494 247.998 18.5136 240.282 18.5136C232.566 18.5136 225.165 15.4494 219.708 9.99463C217.855 8.25904 215.413 7.29325 212.875 7.29325C210.337 7.29325 207.893 8.25904 206.041 9.99463C200.584 15.4494 193.183 18.5136 185.467 18.5136C177.751 18.5136 170.351 15.4494 164.893 9.99463C163.05 8.2348 160.596 7.25852 158.048 7.2711C155.506 7.25448 153.058 8.23182 151.227 9.99463C145.765 15.4509 138.361 18.5157 130.64 18.5157C122.92 18.5157 115.516 15.4509 110.054 9.99463C108.203 8.26625 105.765 7.30492 103.233 7.30492C100.701 7.30492 98.2635 8.26625 96.4128 9.99463C90.9506 15.4509 83.5456 18.5157 75.8255 18.5157C68.1054 18.5157 60.701 15.4509 55.2389 9.99463C53.3882 8.26625 50.9505 7.30492 48.4183 7.30492C45.8862 7.30492 43.4485 8.26625 41.5978 9.99463C36.2109 15.3695 28.9366 18.4251 21.3277 18.5092C13.7189 18.5932 6.37835 15.6989 0.874067 10.4444L5.49632 5.79686C9.75807 9.85775 15.4419 12.0854 21.3277 12.0013C27.2135 11.9172 32.8321 9.52811 36.9762 5.34712C40.0151 2.3199 44.1291 0.620241 48.4183 0.620241C52.7075 0.620241 56.8222 2.3199 59.8611 5.34712C61.9514 7.45488 64.4381 9.12784 67.1782 10.2695C69.9182 11.4112 72.8572 11.999 75.8255 11.999C78.7939 11.999 81.7334 11.4112 84.4735 10.2695C87.2135 9.12784 89.7002 7.45488 91.7905 5.34712C94.8294 2.3199 98.9441 0.620241 103.233 0.620241C107.522 0.620241 111.637 2.3199 114.675 5.34712C116.766 7.45488 119.253 9.12784 121.993 10.2695C124.733 11.4112 127.672 11.999 130.64 11.999C133.609 11.999 136.548 11.4112 139.288 10.2695C142.028 9.12784 144.515 7.45488 146.605 5.34712C149.644 2.3199 153.758 0.620241 158.048 0.620241C162.337 0.620241 166.451 2.3199 169.49 5.34712C171.581 7.45488 174.067 9.12784 176.807 10.2695C179.548 11.4112 182.486 11.999 185.455 11.999C188.423 11.999 191.362 11.4112 194.102 10.2695C196.842 9.12784 199.329 7.45488 201.419 5.34712C204.458 2.3199 208.573 0.620241 212.862 0.620241C217.151 0.620241 221.266 2.3199 224.305 5.34712C226.395 7.45488 228.882 9.12784 231.622 10.2695C234.362 11.4112 237.301 11.999 240.269 11.999C243.237 11.999 246.176 11.4112 248.916 10.2695C251.657 9.12784 254.144 7.45488 256.234 5.34712C259.273 2.3199 263.387 0.620241 267.676 0.620241C271.966 0.620241 276.08 2.3199 279.119 5.34712C281.209 7.45488 283.696 9.12784 286.436 10.2695C289.176 11.4112 292.115 11.999 295.083 11.999C298.052 11.999 300.991 11.4112 303.731 10.2695C306.471 9.12784 308.958 7.45488 311.048 5.34712C314.095 2.32443 318.212 0.628324 322.503 0.628324C326.795 0.628324 330.912 2.32443 333.958 5.34712C336.049 7.45488 338.536 9.12784 341.276 10.2695C344.016 11.4112 346.955 11.999 349.923 11.999C352.892 11.999 355.831 11.4112 358.571 10.2695C361.311 9.12784 363.798 7.45488 365.888 5.34712C368.927 2.3199 373.041 0.620241 377.331 0.620241C381.62 0.620241 385.734 2.3199 388.773 5.34712C390.863 7.45488 393.35 9.12784 396.09 10.2695C398.83 11.4112 401.769 11.999 404.738 11.999C407.706 11.999 410.645 11.4112 413.385 10.2695C416.125 9.12784 418.612 7.45488 420.702 5.34712C423.741 2.3199 427.856 0.620241 432.145 0.620241C436.434 0.620241 440.549 2.3199 443.588 5.34712C445.678 7.45488 448.165 9.12784 450.905 10.2695C453.645 11.4112 456.584 11.999 459.552 11.999C462.52 11.999 465.459 11.4112 468.199 10.2695C470.94 9.12784 473.427 7.45488 475.517 5.34712C477.019 3.84449 478.803 2.65369 480.766 1.84322C482.73 1.03276 484.835 0.618637 486.959 0.624664ZM486.959 0C484.746 0.0076913 482.555 0.453182 480.514 1.31083C478.474 2.16847 476.622 3.42133 475.067 4.99731C470.945 9.10938 465.362 11.4187 459.54 11.4187C453.718 11.4187 448.134 9.10938 444.012 4.99731C442.453 3.4357 440.601 2.19684 438.563 1.35158C436.524 0.506324 434.339 0.0712584 432.133 0.0712584C429.926 0.0712584 427.74 0.506324 425.702 1.35158C423.664 2.19684 421.812 3.4357 420.253 4.99731C416.131 9.10938 410.547 11.4187 404.725 11.4187C398.903 11.4187 393.32 9.10938 389.198 4.99731C387.639 3.4357 385.786 2.19684 383.748 1.35158C381.71 0.506324 379.525 0.0712584 377.318 0.0712584C375.111 0.0712584 372.926 0.506324 370.888 1.35158C368.849 2.19684 366.998 3.4357 365.438 4.99731C361.317 9.10938 355.732 11.4187 349.911 11.4187C344.089 11.4187 338.505 9.10938 334.384 4.99731C332.824 3.4357 330.972 2.19684 328.934 1.35158C326.895 0.506324 324.71 0.0712584 322.503 0.0712584C320.297 0.0712584 318.112 0.506324 316.073 1.35158C314.035 2.19684 312.183 3.4357 310.624 4.99731C306.502 9.10938 300.918 11.4187 295.096 11.4187C289.275 11.4187 283.69 9.10938 279.569 4.99731C278.009 3.4357 276.158 2.19684 274.119 1.35158C272.081 0.506324 269.896 0.0712584 267.689 0.0712584C265.482 0.0712584 263.297 0.506324 261.259 1.35158C259.221 2.19684 257.368 3.4357 255.809 4.99731C251.687 9.10938 246.104 11.4187 240.282 11.4187C234.46 11.4187 228.876 9.10938 224.754 4.99731C223.195 3.4357 221.343 2.19684 219.305 1.35158C217.266 0.506324 215.081 0.0712584 212.875 0.0712584C210.668 0.0712584 208.482 0.506324 206.444 1.35158C204.406 2.19684 202.554 3.4357 200.995 4.99731C196.873 9.10938 191.289 11.4187 185.467 11.4187C179.645 11.4187 174.062 9.10938 169.94 4.99731C166.783 1.84803 162.506 0.0794174 158.048 0.0794174C153.589 0.0794174 149.312 1.84803 146.155 4.99731C142.038 9.10786 136.458 11.4165 130.64 11.4165C124.823 11.4165 119.243 9.10786 115.126 4.99731C111.969 1.84803 107.692 0.0794174 103.233 0.0794174C98.7745 0.0794174 94.4977 1.84803 91.341 4.99731C87.2236 9.10786 81.6432 11.4165 75.8255 11.4165C70.0078 11.4165 64.428 9.10786 60.3107 4.99731C57.1539 1.84803 52.8771 0.0794174 48.4183 0.0794174C43.9596 0.0794174 39.6828 1.84803 36.526 4.99731C32.4087 9.10786 26.8288 11.4165 21.0112 11.4165C15.1935 11.4165 9.61364 9.10786 5.49632 4.99731L0 10.5194C5.57466 16.0886 13.1317 19.2168 21.0112 19.2168C28.8907 19.2168 36.4483 16.0886 42.0229 10.5194C43.7497 8.8814 46.0384 7.96832 48.4183 7.96832C50.7982 7.96832 53.0876 8.8814 54.8143 10.5194C60.389 16.0886 67.946 19.2168 75.8255 19.2168C83.705 19.2168 91.2626 16.0886 96.8373 10.5194C98.564 8.8814 100.853 7.96832 103.233 7.96832C105.613 7.96832 107.902 8.8814 109.629 10.5194C115.203 16.0886 122.761 19.2168 130.64 19.2168C138.52 19.2168 146.077 16.0886 151.652 10.5194C153.378 8.8814 155.668 7.96832 158.048 7.96832C160.428 7.96832 162.717 8.8814 164.444 10.5194C170.023 16.0901 177.583 19.219 185.467 19.219C193.351 19.219 200.912 16.0901 206.491 10.5194C208.214 8.88305 210.499 7.97068 212.875 7.97068C215.251 7.97068 217.535 8.88305 219.258 10.5194C224.837 16.0901 232.398 19.219 240.282 19.219C248.166 19.219 255.727 16.0901 261.306 10.5194C263.029 8.88305 265.313 7.97068 267.689 7.97068C270.065 7.97068 272.35 8.88305 274.072 10.5194C279.651 16.0901 287.213 19.219 295.096 19.219C302.98 19.219 310.541 16.0901 316.12 10.5194C317.843 8.88305 320.128 7.97068 322.503 7.97068C324.879 7.97068 327.164 8.88305 328.887 10.5194C334.466 16.0901 342.027 19.219 349.911 19.219C357.794 19.219 365.356 16.0901 370.935 10.5194C372.657 8.88305 374.942 7.97068 377.318 7.97068C379.694 7.97068 381.979 8.88305 383.702 10.5194C389.281 16.0901 396.841 19.219 404.725 19.219C412.609 19.219 420.17 16.0901 425.749 10.5194C427.472 8.88305 429.757 7.97068 432.133 7.97068C434.509 7.97068 436.793 8.88305 438.516 10.5194C444.095 16.0901 451.656 19.219 459.54 19.219C467.423 19.219 474.984 16.0901 480.563 10.5194C482.286 8.88305 484.571 7.97068 486.947 7.97068C489.323 7.97068 491.608 8.88305 493.33 10.5194L498.852 4.99731C497.297 3.42133 495.446 2.16847 493.405 1.31083C491.364 0.453182 489.173 0.0076913 486.959 0Z" fill="#1D1D1B"/>
</svg>
