<svg id="wb-full" width="210" height="60" viewBox="0 0 210 60" fill="none" xmlns="http://www.w3.org/2000/svg">
<g clip-path="url(#clip0_967_2812)">
<path fill-rule="evenodd" clip-rule="evenodd" d="M17.4947 0.0196828H18.5328C20.6262 0.162244 22.5816 1.11524 23.9837 2.67629C24.9549 3.76515 25.6104 5.09848 25.8795 6.53248C26.1486 7.96648 26.0211 9.44673 25.5108 10.8136C25.0005 12.1805 24.1268 13.3821 22.9838 14.2889C21.8407 15.1957 20.4719 15.7733 19.0247 15.9593C17.3954 16.1681 15.7413 15.8708 14.2867 15.1079C12.832 14.3449 11.6471 13.1531 10.8926 11.694C10.145 10.2388 9.85798 8.59057 10.0698 6.96835C10.2816 5.34614 10.9821 3.8268 12.0782 2.61233C13.4793 1.07847 15.4173 0.142978 17.4898 0L17.4947 0.0196828ZM200.604 0.0196828H201.672C203.655 0.14883 205.521 1.0099 206.906 2.43603C208.291 3.86215 209.098 5.75176 209.169 7.73861V8.34373C209.144 8.69794 209.11 9.05707 209.051 9.41128C208.823 10.7129 208.278 11.9381 207.462 12.9779C206.647 14.0177 205.587 14.8399 204.377 15.3714C203.168 15.9029 201.845 16.1272 200.528 16.0244C199.21 15.9216 197.939 15.4948 196.826 14.782C195.714 14.0693 194.794 13.0926 194.15 11.9389C193.506 10.7852 193.157 9.49012 193.134 8.16894C193.111 6.84777 193.415 5.54141 194.019 4.36601C194.622 3.1906 195.507 2.18259 196.594 1.43162C197.787 0.609664 199.179 0.122136 200.624 0.0196828H200.604ZM168.267 4.19646C168.83 3.63314 169.548 3.25024 170.329 3.09656C171.111 2.94289 171.92 3.02541 172.655 3.33361C173.389 3.64181 174.015 4.16172 174.453 4.82706C174.891 5.49239 175.12 6.27301 175.112 7.06938C175.105 7.86575 174.86 8.64179 174.41 9.29856C173.959 9.95534 173.323 10.4631 172.583 10.7571C171.843 11.051 171.032 11.1179 170.254 10.9492C169.475 10.7805 168.765 10.3838 168.213 9.80978C167.768 9.34028 167.441 8.77213 167.259 8.15186C167.063 7.46531 167.053 6.7391 167.23 6.04757C167.408 5.35604 167.765 4.724 168.267 4.21614V4.19646ZM34.9447 6.99083C38.0841 5.23488 41.735 4.62118 45.276 5.25419C47.836 5.7082 50.2394 6.80324 52.2619 8.43719C54.5155 10.2505 56.2191 12.656 57.1815 15.3837C58.1473 18.1579 58.3177 21.1469 57.6735 24.0128C56.8961 27.3869 55.0119 30.4039 52.3209 32.5828V22.7878H48.3065C48.3065 29.8393 48.3065 36.8908 48.3065 43.9423H58.8345C58.4068 45.6848 57.407 47.2334 55.9952 48.3406C54.5833 49.4478 52.8409 50.0495 51.0467 50.0495C49.2525 50.0495 47.5101 49.4478 46.0983 48.3406C44.6864 47.2334 43.6867 45.6848 43.2589 43.9423H43.6722C43.6722 42.2499 43.6722 40.5625 43.6722 38.8701C44.0813 37.8966 44.6838 37.0162 45.4432 36.2824C45.6745 36.061 45.9352 35.8691 46.1517 35.6379C45.3394 35.8055 44.5181 35.9254 43.6918 35.9971V22.7878C42.4177 22.7878 41.1385 22.7878 39.8594 22.7878C39.8594 27.1269 39.8594 31.4628 39.8594 35.7953C37.9014 35.4487 36.0268 34.7342 34.3347 33.6897C35.3186 30.0558 36.2894 26.4201 37.2471 22.7829C36.1205 22.7829 34.9939 22.7829 33.8673 22.7829C33.113 25.6953 32.3553 28.6061 31.5944 31.5152C30.7142 30.621 29.9369 29.6309 29.2773 28.5635C28.1962 26.7814 27.4849 24.8 27.1857 22.7373C26.8866 20.6746 27.0056 18.5727 27.5358 16.557C28.0661 14.5413 28.9966 12.6529 30.272 11.0043C31.5473 9.35576 33.1415 7.98078 34.9595 6.9613L34.9447 6.99083ZM150.015 5.20499C152.712 4.75134 155.481 5.01836 158.042 5.97903C160.603 6.93971 162.864 8.55993 164.597 10.6756C163.045 12.5646 161.964 14.7955 161.444 17.1843C161.075 18.8789 160.99 20.6228 161.193 22.345C161.288 23.2629 161.486 24.1673 161.783 25.041C161.783 27.7025 161.783 30.3641 161.783 33.0256C161.581 33.1535 161.389 33.2912 161.198 33.429C159.249 34.7116 157.042 35.5513 154.733 35.8888C154.566 35.451 154.379 35.018 154.241 34.5753C155.43 34.1705 156.45 33.3786 157.135 32.3261C157.821 31.2736 158.134 30.0215 158.024 28.7701C158.051 27.3799 157.571 26.0276 156.672 24.9663C155.774 23.905 154.52 23.2074 153.144 23.0043C151.75 22.7862 150.337 22.7104 148.928 22.778H141.44C141.44 29.695 141.44 36.612 141.44 43.529C140.266 42.691 139.338 41.5525 138.754 40.2329C138.054 38.6105 137.9 36.8043 138.316 35.0869C138.731 33.4139 139.673 31.9186 141.002 30.8216C139.374 28.9891 138.203 26.7976 137.583 24.426C136.867 21.6446 136.924 18.7201 137.751 15.9692C137.829 15.7084 137.913 15.4526 138.006 15.1968C138.949 12.62 140.556 10.3384 142.665 8.58351C144.774 6.82866 147.31 5.66305 150.015 5.20499ZM92.3078 10.9167C93.8612 10.0976 95.6406 9.81105 97.3726 10.1011C99.1047 10.3912 100.694 11.2419 101.895 12.5224C103.097 13.803 103.845 15.4426 104.025 17.1896C104.205 18.9365 103.806 20.6942 102.89 22.1925C102.36 23.0471 101.684 23.8015 100.893 24.4211C101.821 25.0272 102.686 25.7243 103.475 26.5021C103.667 26.6989 103.864 26.9006 104.061 27.0925C104.061 32.7058 104.061 38.3191 104.061 43.9324H106.668C105.415 46.6891 103.382 49.0188 100.821 50.6343C98.2595 52.2497 95.2814 53.0804 92.2537 53.024C89.226 52.9675 86.281 52.0263 83.7817 50.3164C81.2824 48.6065 79.3381 46.2026 78.1884 43.4011C76.8367 43.8795 75.4043 44.0885 73.9723 44.0161C73.5407 44.0157 73.1115 43.9527 72.6981 43.8291C74.5765 43.6616 76.3589 42.9239 77.8062 41.7149C79.2535 40.5059 80.2967 38.8832 80.7958 37.0646C81.3431 35.1901 81.4691 33.2178 81.1648 31.2889C80.8061 28.7037 79.4999 26.3438 77.4996 24.6671C76.493 23.8604 75.315 23.2949 74.0559 23.0141C76.3153 22.9049 78.5497 23.5278 80.4268 24.7901C81.0048 25.1818 81.545 25.6265 82.0405 26.1184C82.8987 25.3279 83.8407 24.6334 84.8496 24.0472C84.8496 30.674 84.8496 37.3008 84.8496 43.9324H93.9657C95.2801 43.9836 96.5881 43.7241 97.7833 43.1748C98.9993 42.5214 99.9133 41.4204 100.332 40.105C100.694 38.9506 100.721 37.7173 100.41 36.5481C100.066 35.3157 99.2467 34.2702 98.1326 33.6405C97.5184 33.3088 96.8535 33.081 96.1648 32.9666C96.6244 32.8523 97.0699 32.6873 97.4931 32.4746C98.1385 32.1291 98.6916 31.6338 99.1059 31.0303C99.5203 30.4268 99.7837 29.7327 99.8742 29.0062C100.048 27.7594 99.8002 26.4903 99.1707 25.4001C98.5988 24.4023 97.6953 23.6364 96.6174 23.2355C95.0874 22.7435 93.459 22.773 91.8749 22.778C90.4826 22.778 89.0903 22.778 87.6981 22.778C88.2185 22.5989 88.7491 22.4511 89.2871 22.3352C88.1886 20.5931 87.793 18.4987 88.1802 16.4759C88.4098 15.2994 88.8996 14.1891 89.6138 13.2264C90.328 12.2636 91.2485 11.4728 92.3078 10.9118V10.9167ZM191.94 18.0895C194.085 17.8567 196.255 18.0736 198.311 18.7263C200.368 19.379 202.265 20.4533 203.883 21.8804C205.501 23.3076 206.804 25.0564 207.708 27.0152C208.612 28.974 209.098 31.0997 209.135 33.2568V33.7734C209.092 36.4028 208.382 38.9783 207.071 41.2581C205.76 43.5379 203.892 45.4473 201.641 46.8071C199.39 48.1669 196.831 48.9325 194.203 49.032C191.575 49.1316 188.965 48.5618 186.617 47.3762C184.911 46.5216 183.38 45.3533 182.106 43.9324H183.98C183.98 42.8255 183.98 41.7235 183.98 40.6215H179.794C179.049 39.1501 178.538 37.5716 178.279 35.9429C180.634 35.6891 182.899 34.898 184.9 33.6307C185.658 33.1366 186.382 32.5943 187.07 32.0072C187.552 32.7958 188.265 33.4174 189.112 33.7881C189.935 34.1556 190.792 34.4438 191.67 34.6491L195.232 35.574C195.98 35.7151 196.685 36.0266 197.293 36.4841C197.685 36.882 197.937 37.3957 198.014 37.9489C198.09 38.502 197.986 39.0649 197.716 39.5539C197.316 40.1605 196.723 40.6146 196.034 40.8429C195.32 41.0724 194.574 41.1789 193.825 41.1578C192.643 41.2158 191.466 40.9595 190.415 40.4149C189.983 40.159 189.611 39.8137 189.323 39.4022C189.036 38.9907 188.839 38.5225 188.748 38.0289C187.503 38.2749 186.288 38.5553 185.028 38.8111C185.282 39.804 185.757 40.7271 186.416 41.512C187.128 42.3171 188.017 42.9468 189.013 43.3519C190.726 44.0551 192.578 44.3547 194.425 44.2276C195.862 44.1851 197.274 43.838 198.567 43.2093C199.774 42.6686 200.77 41.7466 201.402 40.5849C202.034 39.4233 202.267 38.0862 202.065 36.7793C201.928 35.6309 201.459 34.5472 200.717 33.6602C199.769 32.7374 198.589 32.0866 197.303 31.776C196.26 31.4808 195.207 31.2447 194.164 30.9741C193.216 30.7929 192.293 30.4989 191.414 30.0984C191.034 29.9312 190.708 29.6602 190.475 29.3165C190.242 28.9728 190.11 28.5702 190.096 28.1551C190.32 27.823 190.513 27.4705 190.671 27.1023C190.8 26.8569 190.901 26.5979 190.971 26.33C191.836 25.7874 192.843 25.5141 193.863 25.5448C194.884 25.5755 195.872 25.9087 196.703 26.5021C197.123 26.8961 197.439 27.3879 197.623 27.9337C198.838 27.6435 200.082 27.3434 201.268 27.0335C200.926 25.7666 200.129 24.6703 199.03 23.9538C196.926 22.6593 194.426 22.17 191.99 22.5763C192.193 21.0866 192.18 19.5754 191.95 18.0895H191.94ZM67.9162 25.8035V40.7839H69.9923C70.7315 40.8194 71.4725 40.7881 72.2061 40.6904C73.1686 40.4938 74.0668 40.0602 74.8193 39.4288C75.5719 38.7974 76.1549 37.9881 76.5157 37.0745C76.9962 35.796 77.217 34.4346 77.1651 33.0699C77.2076 31.2238 76.6557 29.4129 75.5908 27.9042C75.1399 27.249 74.5348 26.7146 73.8287 26.3483C73.1227 25.982 72.3373 25.7949 71.542 25.8035H67.9162ZM88.4459 25.8035C88.4459 27.7419 88.4459 29.6802 88.4459 31.6186C89.9218 31.6432 91.4321 31.6186 92.9277 31.6186C93.4585 31.6431 93.9885 31.5542 94.4823 31.3578C94.9039 31.1696 95.2726 30.8803 95.5557 30.5156C95.8389 30.1509 96.0278 29.7221 96.1058 29.267C96.2393 28.5947 96.1638 27.8977 95.8893 27.2696C95.5489 26.6654 94.9913 26.2134 94.3298 26.0053C93.7607 25.8194 93.1605 25.7475 92.5636 25.7937L88.4459 25.8035ZM145.273 25.8035C145.273 27.9124 145.273 30.023 145.273 32.1351C146.837 32.1351 148.402 32.1351 149.966 32.1351C150.68 32.1572 151.393 32.0539 152.072 31.8301C152.621 31.6454 153.103 31.3032 153.459 30.8462C153.963 30.1321 154.162 29.2476 154.015 28.3864C153.911 27.6901 153.547 27.059 152.997 26.6202C152.378 26.1519 151.632 25.8811 150.856 25.8429C148.997 25.8035 147.137 25.8429 145.273 25.8429V25.8035ZM52.2914 34.0735V40.4198H58.8837C58.6466 39.2369 58.1463 38.1225 57.4198 37.1593C56.6934 36.1961 55.7594 35.4088 54.6873 34.8557C53.9355 34.4687 53.1267 34.2046 52.2914 34.0735ZM88.4311 34.6491V40.6953H93.4983C94.3641 40.7148 95.2055 40.4075 95.8548 39.8344C96.3059 39.4068 96.596 38.837 96.6764 38.2207C96.752 37.8378 96.7508 37.4436 96.673 37.0611C96.5951 36.6786 96.4422 36.3153 96.2231 35.9923C96.0039 35.6692 95.7229 35.3929 95.3962 35.1792C95.0695 34.9656 94.7037 34.8188 94.3199 34.7475C93.6345 34.6458 92.9407 34.6128 92.2487 34.6491H88.4311ZM145.258 35.2001C145.258 38.0977 145.258 40.9954 145.258 43.8931H142.095L142.434 44.144C144.209 43.7712 146.057 44.0105 147.678 44.8229C149.101 44.558 150.421 43.8983 151.486 42.919C152.018 42.4249 152.491 41.872 152.898 41.2709C152.131 39.244 151.365 37.2204 150.601 35.2001H145.258ZM137.224 43.0125C137.342 43.3175 137.47 43.6225 137.583 43.9324H134.528C134.075 44.3163 133.711 44.795 133.463 45.3348C133.215 45.8746 133.088 46.4623 133.092 47.0564C133.095 47.6897 133.249 48.3131 133.54 48.8757C133.83 49.4383 134.25 49.9241 134.764 50.2935C135.188 50.5904 135.664 50.8056 136.166 50.9282C136.713 51.0597 137.281 51.0749 137.834 50.973C138.386 50.871 138.912 50.6541 139.375 50.3363C139.839 50.0185 140.231 49.6069 140.525 49.1281C140.82 48.6493 141.01 48.114 141.085 47.5568C141.159 46.9997 141.116 46.4331 140.957 45.8938C140.799 45.3545 140.529 44.8545 140.165 44.4261C139.801 43.9977 139.351 43.6505 138.845 43.407C138.338 43.1635 137.786 43.0291 137.224 43.0125ZM66.0615 52.3598C65.6647 52.8134 65.375 53.3504 65.2141 53.9312C65.0532 54.512 65.0251 55.1215 65.1319 55.7146C65.2387 56.3077 65.4777 56.8692 65.8311 57.3573C66.1845 57.8455 66.6433 58.2478 67.1734 58.5344C67.7035 58.8211 68.2913 58.9847 68.8933 59.0131C69.4953 59.0416 70.0959 58.9341 70.6507 58.6987C71.2055 58.4633 71.7002 58.1061 72.098 57.6534C72.4959 57.2008 72.7867 56.6644 72.949 56.084C73.1383 55.4233 73.1383 54.7227 72.949 54.062C72.7302 53.1532 72.1988 52.3502 71.4479 51.7936C70.697 51.2369 69.7742 50.9619 68.8411 51.0167C67.769 51.0786 66.7647 51.5613 66.0467 52.3598H66.0615Z" fill="#EC208B"/>
<path fill-rule="evenodd" clip-rule="evenodd" d="M85.1935 3.08465C85.7328 2.96707 86.2905 2.96142 86.8321 3.06805C87.3737 3.17467 87.8876 3.39129 88.3421 3.70452C88.916 4.0986 89.3775 4.63514 89.6814 5.26147C89.9852 5.8878 90.121 6.58238 90.0754 7.27704C90.0297 7.97169 89.8042 8.64255 89.421 9.22373C89.0378 9.8049 88.51 10.2764 87.8895 10.592C87.3817 10.8523 86.8244 11.0013 86.2545 11.0292C85.6846 11.0571 85.1154 10.9632 84.5846 10.7538C84.0539 10.5443 83.5739 10.2242 83.1767 9.81465C82.7795 9.40511 82.4741 8.9156 82.2809 8.37875C82.0877 7.84189 82.0112 7.27002 82.0565 6.70127C82.1017 6.13252 82.2677 5.57994 82.5433 5.08037C82.8189 4.58081 83.1978 4.14573 83.6548 3.80415C84.1118 3.46256 84.6363 3.22231 85.1935 3.09941V3.08465ZM3.84716 16.2545C5.73035 14.1099 8.16776 12.5252 10.8921 11.6743C11.6466 13.1334 12.8315 14.3252 14.2862 15.0882C15.7409 15.8512 17.395 16.1484 19.0243 15.9397C20.8938 15.7026 22.6201 14.8142 23.8996 13.4307C25.2513 14.3092 26.4635 15.3854 27.4959 16.6235C26.9809 18.6292 26.8714 20.7176 27.1738 22.7661C27.4763 24.8147 28.1845 26.7823 29.2571 28.5536C28.6422 28.7701 28.0223 28.9767 27.4221 29.2276C26.8317 27.0728 26.243 24.9197 25.656 22.7681C24.3621 22.7681 23.0731 22.7681 21.7793 22.7681C20.7724 26.8613 19.7606 30.961 18.7439 35.0673C18.2233 34.9737 17.6902 34.9737 17.1696 35.0673C16.084 30.9741 14.9984 26.8744 13.9128 22.7681H9.84913C11.0823 27.2942 12.3204 31.8219 13.5635 36.3513C12.4034 37.1009 11.4669 38.1495 10.8527 39.3867C10.5816 39.929 10.372 40.5 10.2279 41.0889C7.68896 40.1653 5.43285 38.599 3.6799 36.5431C2.04295 34.6234 0.902624 32.3309 0.359136 29.8672C0.170677 29.0039 0.0505919 28.1272 0 27.245V25.7691C0.0384924 25.1097 0.112392 24.4528 0.221383 23.8013C0.711484 20.9996 1.96626 18.388 3.84716 16.2545ZM120.89 15.0148C123.288 13.6457 126.007 12.9412 128.768 12.9741C131.528 13.0069 134.23 13.7759 136.594 15.2017C136.725 15.3135 136.889 15.3792 137.061 15.3887C137.061 15.4133 137.061 15.4625 137.061 15.4871L137.76 15.979C136.934 18.73 136.876 21.6545 137.593 24.4359C138.212 26.8075 139.384 28.999 141.012 30.8314C139.682 31.9285 138.741 33.4238 138.326 35.0968C137.909 36.8142 138.063 38.6204 138.764 40.2427C138.125 40.7988 137.442 41.3022 136.722 41.7481L133.888 34.595C135.125 34.1414 136.18 33.2946 136.889 32.1844C137.591 30.8978 137.848 29.416 137.622 27.9682C137.475 26.7411 136.937 25.5939 136.087 24.6966C135.304 23.9197 134.316 23.3807 133.239 23.142C132.223 22.8949 131.179 22.7841 130.134 22.8124H121.092V42.1368C118.098 40.4824 115.732 37.8894 114.357 34.7573C114.849 34.7573 115.297 34.7573 115.769 34.7573C115.769 33.7291 115.769 32.7009 115.769 31.6776C114.972 31.6776 114.17 31.6776 113.368 31.6776C113.003 29.7989 112.971 27.8704 113.275 25.9807H117.703C117.703 24.9279 117.703 23.8751 117.703 22.8223H114.16C115.465 19.5495 117.841 16.8161 120.9 15.0689L120.89 15.0148ZM76.8695 15.6986C80.6036 14.5272 84.6414 14.7993 88.1847 16.4612C87.7974 18.484 88.1931 20.5783 89.2916 22.3205C88.7536 22.4363 88.2229 22.5842 87.7025 22.7632C86.7481 22.7632 85.7888 22.7632 84.8295 22.7632V24.0227C83.8205 24.6088 82.8786 25.3033 82.0203 26.0938C81.5249 25.6019 80.9847 25.1572 80.4067 24.7655C78.5296 23.5032 76.2952 22.8804 74.0358 22.9895C73.3588 22.8505 72.6703 22.7748 71.9793 22.7632H68.0928C68.874 21.3826 69.8705 20.1353 71.0446 19.0686C72.7171 17.53 74.7073 16.3779 76.8744 15.6937L76.8695 15.6986ZM124.925 25.8429C124.925 27.9485 124.925 30.0558 124.925 32.1647H129.49C130.087 32.1895 130.684 32.1349 131.266 32.0023C131.965 31.8622 132.598 31.4915 133.062 30.9495C133.577 30.2641 133.803 29.4039 133.691 28.5536C133.656 28.1829 133.547 27.8229 133.371 27.4951C133.194 27.1672 132.954 26.8781 132.663 26.6448C132.006 26.1435 131.207 25.8644 130.38 25.8478C128.56 25.8478 126.74 25.8478 124.92 25.8478L124.925 25.8429ZM59.8721 33.4733C60.7106 31.072 62.1184 28.9096 63.9751 27.1712V41.6005C63.1278 41.24 62.2145 41.0607 61.2939 41.0742C61.2939 40.8724 61.2939 40.6757 61.2939 40.474H59.1637C58.854 38.117 59.0965 35.7204 59.8721 33.4733ZM23.3683 28.4897C22.9993 29.9065 22.6648 31.3333 22.3106 32.755C22.8807 32.2068 23.4854 31.6958 24.121 31.225C23.8652 30.3149 23.6291 29.3949 23.3683 28.4897ZM165.63 31.5054C166.97 32.8273 168.536 33.8987 170.254 34.6688V43.9423H182.12C183.395 45.3632 184.925 46.5314 186.632 47.3861C185.09 48.6893 183.309 49.6786 181.387 50.2985C178.362 51.2661 175.115 51.2936 172.074 50.3772V50.4707C171.947 49.5939 171.537 48.7825 170.909 48.1584C170.331 47.621 169.613 47.2588 168.838 47.1142C168.063 46.9696 167.262 47.0485 166.53 47.3418C165.385 46.3591 164.391 45.2137 163.578 43.9423H165.64V31.5054H165.63ZM161.202 33.4389C161.394 33.3011 161.586 33.1634 161.787 33.0354C161.787 35.3821 161.787 37.7337 161.787 40.0804C161.574 39.4919 161.419 38.8839 161.325 38.265C161.053 36.6705 161.013 35.0448 161.207 33.4389H161.202ZM124.925 35.2345C124.925 38.0256 124.925 40.8134 124.925 43.5979C127.687 44.2591 130.577 44.1605 133.288 43.3126C132.275 40.6215 131.251 37.9305 130.238 35.2394L124.925 35.2345ZM174.121 35.8249V40.6215H179.848C179.103 39.1501 178.591 37.5717 178.332 35.943C176.929 36.0882 175.514 36.0486 174.121 35.8249ZM73.9767 44.0161C75.4088 44.0885 76.8411 43.8796 78.1929 43.4011C79.4146 46.3831 81.5325 48.9119 84.2538 50.6379C81.5085 52.8412 78.0921 54.039 74.572 54.0325C74.0308 54.0325 73.4847 53.9735 72.9436 53.9882C72.9339 54.0123 72.9257 54.0369 72.919 54.062C72.7002 53.1532 72.1688 52.3503 71.4179 51.7936C70.667 51.2369 69.7442 50.9619 68.8111 51.0168C69.171 49.5132 69.1149 47.9401 68.6487 46.4661C68.3235 45.5493 67.848 44.6931 67.2417 43.9325C69.062 43.9079 70.8872 43.9964 72.7025 43.8291C73.116 43.9527 73.5452 44.0157 73.9767 44.0161Z" fill="#7C2570"/>
<path fill-rule="evenodd" clip-rule="evenodd" d="M174.658 5.11645C176.96 4.82531 179.297 5.0488 181.501 5.77077C184.944 6.89746 187.882 9.19705 189.802 12.2684C191.723 15.3397 192.504 18.9878 192.01 22.5763C191.049 22.6927 190.122 23.0024 189.284 23.4869C188.446 23.9714 187.715 24.6205 187.134 25.3952C186.406 26.5061 186.073 27.8304 186.19 29.1538C186.253 30.1656 186.566 31.1459 187.1 32.0072C186.412 32.5943 185.688 33.1366 184.93 33.6307C182.929 34.8981 180.664 35.6891 178.309 35.943C176.906 36.0883 175.49 36.0486 174.097 35.8249V34.7376C176.72 34.7376 179.342 34.7376 181.969 34.7376C181.969 33.7144 181.969 32.6862 181.969 31.6579H174.097V25.9512H183.863C183.863 24.8934 183.863 23.8406 183.863 22.7829H170.255V34.6491C168.537 33.879 166.971 32.8077 165.631 31.4858V22.7927H161.823C161.823 23.5455 161.823 24.2982 161.823 25.0459C161.526 24.1722 161.328 23.2679 161.233 22.35C161.03 20.6277 161.115 18.8838 161.483 17.1893C162.275 13.5766 164.332 10.366 167.284 8.13712C167.466 8.75739 167.793 9.32554 168.238 9.79504C168.911 10.4933 169.813 10.925 170.778 11.0106C171.744 11.0962 172.708 10.8299 173.493 10.2608C174.278 9.69164 174.83 8.85805 175.049 7.91361C175.268 6.96917 175.138 5.97751 174.683 5.12137L174.658 5.11645ZM110.019 11.0496C113.106 10.105 116.352 9.79032 119.564 10.1241C122.775 10.4579 125.887 11.4335 128.714 12.9928C125.582 12.9682 122.516 13.8902 119.918 15.6381C117.319 17.3859 115.309 19.8781 114.152 22.7878H104.076V27.0778C103.879 26.8859 103.682 26.6842 103.491 26.4874C102.701 25.7096 101.836 25.0125 100.908 24.4064C101.7 23.7868 102.376 23.0324 102.905 22.1778C103.617 21.0103 104.019 19.6805 104.073 18.3143C104.128 16.948 103.832 15.5905 103.215 14.3703C105.293 12.9067 107.589 11.781 110.019 11.0348V11.0496ZM57.1771 15.3641C59.7089 14.8069 62.3394 14.8881 64.8321 15.6002C67.146 16.2638 69.2723 17.46 71.0407 19.0932C69.8665 20.1599 68.8701 21.4071 68.0889 22.7878H63.9613V27.1466C62.1067 28.8936 60.7038 31.0647 59.8731 33.4733C59.0951 35.7215 58.8508 38.12 59.1597 40.4789H58.899C58.6618 39.296 58.1615 38.1816 57.4351 37.2184C56.7086 36.2552 55.7747 35.4679 54.7025 34.9147C53.9508 34.5277 53.1419 34.2636 52.3066 34.1325V32.5878C54.9976 30.4088 56.8819 27.3919 57.6592 24.0177C58.3035 21.1518 58.1331 18.1628 57.1673 15.3887L57.1771 15.3641ZM137.062 15.4084C137.372 15.3296 137.682 15.2657 138.002 15.2116C137.908 15.4674 137.825 15.7035 137.746 15.984L137.048 15.492C137.048 15.4674 137.048 15.4182 137.048 15.3936L137.062 15.4084ZM107.908 25.9512C107.908 27.8452 107.908 29.7442 107.908 31.6383C109.734 31.6629 111.554 31.6383 113.374 31.6383C113.009 29.7595 112.977 27.8311 113.281 25.9413L107.908 25.9512ZM190.101 28.1552C190.325 27.823 190.518 27.4705 190.677 27.1023C190.805 26.857 190.906 26.5979 190.977 26.33C190.699 26.5451 190.475 26.8221 190.323 27.1389C190.171 27.4558 190.095 27.8038 190.101 28.1552ZM154.753 35.8987C155.816 38.57 156.869 41.2463 157.931 43.9226C156.588 43.9226 155.24 43.9226 153.892 43.9226C153.558 43.0469 153.233 42.1712 152.908 41.3005C152.502 41.9015 152.028 42.4544 151.497 42.9485C150.431 43.9278 149.111 44.5876 147.689 44.8524C149.287 45.6472 150.572 46.955 151.339 48.5668C151.99 49.9457 152.243 51.4795 152.067 52.9944C154.046 53.7453 156.157 54.0858 158.271 53.9953C160.385 53.9048 162.459 53.3852 164.366 52.468C164.098 51.7746 164.025 51.0208 164.155 50.2886C164.274 49.6337 164.555 49.0185 164.97 48.4983C165.386 47.978 165.924 47.5688 166.536 47.3073C165.391 46.3246 164.397 45.1793 163.584 43.9079H161.823C161.823 42.6189 161.823 41.33 161.823 40.0459C161.61 39.4575 161.455 38.8494 161.36 38.2306C161.088 36.636 161.048 35.0104 161.242 33.4044C159.293 34.687 157.087 35.5267 154.778 35.8642L154.753 35.8987ZM107.908 34.7376H114.358C115.733 37.8697 118.099 40.4627 121.093 42.1171C121.093 42.7222 121.093 43.3323 121.093 43.9374H124.926V43.6028C127.688 44.2624 130.578 44.1621 133.289 43.3126C133.368 43.5143 133.441 43.716 133.51 43.9226C133.845 43.9226 134.179 43.9226 134.494 43.9226C134.041 44.3065 133.677 44.7852 133.429 45.325C133.181 45.8648 133.054 46.4525 133.058 47.0466C133.061 47.6799 133.215 48.3033 133.506 48.8659C133.796 49.4285 134.216 49.9143 134.73 50.2837C132.543 52.6632 129.897 54.5764 126.952 55.9087C124.007 57.2409 120.824 57.9648 117.592 58.037C114.361 58.1091 111.148 57.528 108.147 56.3284C105.145 55.1289 102.417 53.3356 100.126 51.0561C103.013 49.4374 105.307 46.9379 106.674 43.9226H117.797C117.797 42.8206 117.797 41.7137 117.797 40.6117H107.908C107.908 40.2132 107.908 39.8098 107.908 39.4064C108.016 39.0812 108.067 38.7402 108.061 38.3979C108.091 37.8026 108.061 37.2073 108.061 36.617C108.067 36.2831 108.017 35.9506 107.913 35.633C107.913 35.3379 107.913 35.0476 107.913 34.7573L107.908 34.7376ZM138.75 40.2427C139.333 41.5624 140.261 42.7008 141.436 43.5389C141.436 43.6668 141.436 43.7996 141.436 43.9325H142.09L142.43 44.1834C141.748 44.3283 141.087 44.5563 140.462 44.8623C140.108 44.3116 139.625 43.8554 139.055 43.5331C138.485 43.2108 137.845 43.0322 137.19 43.0125C137.028 42.5894 136.856 42.1712 136.698 41.7481C137.422 41.3026 138.108 40.7992 138.75 40.2427Z" fill="#BB3C95"/>
<path fill-rule="evenodd" clip-rule="evenodd" d="M191.995 22.5763C194.431 22.17 196.931 22.6594 199.035 23.9538C200.134 24.6703 200.931 25.7667 201.273 27.0335C200.063 27.3434 198.843 27.6435 197.628 27.9338C197.444 27.388 197.128 26.8961 196.708 26.5022C195.877 25.9087 194.889 25.5755 193.868 25.5449C192.848 25.5142 191.841 25.7875 190.976 26.33C190.698 26.5451 190.474 26.8221 190.322 27.139C190.17 27.4558 190.094 27.8038 190.1 28.1552C190.115 28.5703 190.247 28.9728 190.48 29.3165C190.713 29.6603 191.039 29.9313 191.419 30.0985C192.297 30.499 193.221 30.7929 194.169 30.9741C195.212 31.2447 196.265 31.4661 197.308 31.776C198.594 32.0866 199.773 32.7374 200.722 33.6603C201.464 34.5472 201.933 35.6309 202.07 36.7793C202.272 38.0863 202.039 39.4233 201.407 40.585C200.775 41.7466 199.779 42.6687 198.572 43.2093C197.279 43.8381 195.867 44.1852 194.43 44.2277C192.583 44.3548 190.731 44.0551 189.018 43.352C188.022 42.9469 187.133 42.3172 186.421 41.512C185.761 40.7272 185.287 39.8041 185.033 38.8111C186.273 38.5553 187.493 38.2749 188.753 38.0289C188.844 38.5225 189.041 38.9908 189.328 39.4023C189.616 39.8138 189.988 40.1591 190.42 40.4149C191.471 40.9595 192.647 41.2159 193.83 41.1578C194.578 41.1789 195.325 41.0725 196.038 40.843C196.728 40.6146 197.321 40.1605 197.721 39.554C197.99 39.065 198.095 38.502 198.019 37.9489C197.942 37.3958 197.69 36.8821 197.298 36.4841C196.69 36.0266 195.984 35.7152 195.237 35.574L191.675 34.6491C190.797 34.4439 189.94 34.1556 189.117 33.7882C188.27 33.4175 187.557 32.7958 187.075 32.0073C186.54 31.1459 186.228 30.1656 186.165 29.1539C186.048 27.8304 186.381 26.5061 187.109 25.3953C187.69 24.6206 188.421 23.9714 189.259 23.4869C190.096 23.0024 191.024 22.6927 191.985 22.5763H191.995ZM9.84961 22.7928H13.9132C14.9956 26.8859 16.0812 30.9856 17.17 35.0919C17.4455 36.1053 17.6964 37.1237 17.9867 38.1372C18.2474 37.1237 18.4787 36.1102 18.7443 35.0968C19.7545 30.9971 20.7663 26.8974 21.7797 22.7977C23.0736 22.7977 24.3626 22.7977 25.6564 22.7977C26.2402 24.9525 26.8289 27.1057 27.4226 29.2572C28.2294 32.209 29.0362 35.1608 29.848 38.1125C30.4334 35.9184 30.9992 33.7144 31.5748 31.5104C32.3324 28.6012 33.09 25.6904 33.8476 22.778C34.9742 22.778 36.1008 22.778 37.2274 22.778C36.2435 26.4153 35.2727 30.0509 34.315 33.6849C33.4 37.0958 32.4882 40.5084 31.5797 43.9226H27.5751C26.419 39.6819 25.2776 35.4363 24.1313 31.1906C23.8755 30.2805 23.6394 29.3605 23.3786 28.4553C23.0097 29.8721 22.6751 31.2988 22.3209 32.7206C21.396 36.4546 20.4908 40.1936 19.561 43.9226H15.6253C14.9365 41.4038 14.2494 38.8849 13.5639 36.3661C12.3242 31.8367 11.0861 27.309 9.84961 22.7829V22.7928ZM39.8348 22.7928C41.114 22.7928 42.3931 22.7928 43.6673 22.7928V35.9922C43.6673 36.9466 43.6673 37.9059 43.6673 38.8652C43.6673 40.5576 43.6673 42.245 43.6673 43.9374H39.8447V35.8003C39.8447 31.4645 39.8447 27.1286 39.8447 22.7928H39.8348ZM48.2917 22.7928H52.3061V40.4592H61.2894C61.2894 40.6609 61.2894 40.8577 61.2894 41.0594V43.9374H48.2966C48.2966 36.8859 48.2966 29.8344 48.2966 22.7829L48.2917 22.7928ZM63.9755 22.7928H71.9896C72.6806 22.8043 73.3691 22.8801 74.0461 23.0191C75.3051 23.2999 76.4832 23.8653 77.4898 24.6721C79.4901 26.3487 80.7963 28.7086 81.1549 31.2939C81.4593 33.2228 81.3333 35.1951 80.786 37.0696C80.2868 38.8882 79.2437 40.5108 77.7964 41.7199C76.349 42.9289 74.5667 43.6666 72.6882 43.8341C70.8729 44.0014 69.0477 43.9128 67.2274 43.9374H63.9657C63.9657 43.1503 63.9657 42.3631 63.9657 41.5809V22.7878L63.9755 22.7928ZM67.9113 25.8085V40.7888H69.9874C70.7266 40.8243 71.4676 40.7931 72.2012 40.6954C73.1637 40.4988 74.0619 40.0651 74.8144 39.4337C75.5669 38.8023 76.15 37.9931 76.5108 37.0794C76.9913 35.801 77.2121 34.4396 77.1602 33.0748C77.2027 31.2287 76.6508 29.4178 75.5859 27.9092C75.135 27.2539 74.5299 26.7196 73.8238 26.3533C73.1177 25.9869 72.3324 25.7999 71.537 25.8085H67.9113ZM84.8348 22.7928C85.8188 22.7928 86.7535 22.7928 87.7079 22.7928C89.1002 22.7928 90.4924 22.7928 91.8847 22.7928C93.4688 22.7928 95.0972 22.7485 96.6272 23.2503C97.7052 23.6512 98.6086 24.4171 99.1805 25.4149C99.81 26.5051 100.058 27.7742 99.884 29.021C99.7936 29.7475 99.5301 30.4416 99.1158 31.0451C98.7014 31.6486 98.1483 32.1439 97.5029 32.4894C97.0798 32.7021 96.6342 32.8671 96.1746 32.9814C96.8633 33.0958 97.5282 33.3236 98.1425 33.6553C99.2565 34.285 100.076 35.3305 100.42 36.5629C100.731 37.7321 100.704 38.9654 100.342 40.1198C99.9231 41.4352 99.0092 42.5362 97.7932 43.1896C96.5979 43.7389 95.29 43.9984 93.9755 43.9473H84.8447C84.8447 37.3156 84.8447 30.6888 84.8447 24.062V22.8026L84.8348 22.7928ZM88.4409 25.8282C88.4409 27.7665 88.4409 29.7049 88.4409 31.6432C89.9168 31.6678 91.4272 31.6432 92.9227 31.6432C93.4536 31.6678 93.9836 31.5789 94.4773 31.3825C94.8989 31.1942 95.2676 30.905 95.5508 30.5403C95.834 30.1756 96.0229 29.7467 96.1008 29.2916C96.2344 28.6193 96.1588 27.9223 95.8844 27.2942C95.544 26.69 94.9864 26.238 94.3248 26.0299C93.7557 25.844 93.1556 25.7721 92.5587 25.8184L88.4409 25.8282ZM88.4409 34.6835V40.7298H93.5082C94.374 40.7493 95.2154 40.4419 95.8647 39.8689C96.3157 39.4413 96.6059 38.8715 96.6863 38.2552C96.7618 37.8722 96.7606 37.4781 96.6828 37.0956C96.605 36.7131 96.4521 36.3498 96.2329 36.0268C96.0138 35.7037 95.7327 35.4274 95.406 35.2137C95.0794 35 94.7135 34.8533 94.3298 34.7819C93.6444 34.6803 92.9505 34.6473 92.2586 34.6835H88.4409ZM104.071 22.7878H117.693C117.693 23.8407 117.693 24.8935 117.693 25.9463H107.908C107.908 27.8403 107.908 29.7393 107.908 31.6334C109.733 31.658 111.553 31.6334 113.374 31.6334C114.176 31.6334 114.978 31.6334 115.774 31.6334C115.774 32.6567 115.774 33.6849 115.774 34.7131C115.283 34.7131 114.83 34.7131 114.363 34.7131H107.908C107.908 35.0033 107.908 35.2936 107.908 35.5888C107.908 36.8531 107.908 38.1224 107.908 39.3867C107.908 39.7901 107.908 40.1936 107.908 40.5921H117.821C117.821 41.694 117.821 42.801 117.821 43.903H104.085C104.085 38.2897 104.085 32.6763 104.085 27.063V22.7583L104.071 22.7878ZM121.088 22.7878H130.13C131.175 22.7595 132.219 22.8703 133.234 23.1175C134.309 23.3657 135.292 23.9132 136.068 24.6967C136.918 25.5939 137.456 26.7411 137.603 27.9682C137.829 29.416 137.571 30.8979 136.87 32.1844C136.16 33.2946 135.106 34.1414 133.869 34.595L136.732 41.7482C136.899 42.1713 137.072 42.5894 137.224 43.0125C137.342 43.3175 137.47 43.6226 137.583 43.9325H134.528C134.199 43.9325 133.864 43.9325 133.544 43.9325C133.475 43.7259 133.402 43.5242 133.323 43.3224C132.309 40.6314 131.286 37.9404 130.273 35.2493H124.925C124.925 38.0404 124.925 40.8282 124.925 43.6127V43.9473H121.122C121.122 43.3421 121.122 42.7321 121.122 42.127V22.7878H121.088ZM124.896 25.8429C124.896 27.9486 124.896 30.0558 124.896 32.1647H129.461C130.058 32.1895 130.655 32.135 131.237 32.0024C131.936 31.8622 132.569 31.4915 133.033 30.9495C133.548 30.2641 133.774 29.4039 133.662 28.5537C133.627 28.1829 133.518 27.823 133.342 27.4951C133.165 27.1672 132.924 26.8781 132.634 26.6449C131.977 26.1435 131.178 25.8644 130.351 25.8479C128.531 25.8479 126.711 25.8479 124.891 25.8479L124.896 25.8429ZM141.435 22.7878H148.933C150.342 22.7203 151.755 22.7961 153.149 23.0141C154.525 23.2173 155.779 23.9148 156.677 24.9762C157.576 26.0375 158.056 27.3898 158.029 28.78C158.139 30.0314 157.826 31.2835 157.14 32.336C156.454 33.3884 155.435 34.1804 154.246 34.5852C154.399 35.0279 154.586 35.4609 154.738 35.8987C155.801 38.5701 156.854 41.2464 157.916 43.9226C156.573 43.9226 155.225 43.9226 153.877 43.9226C153.543 43.0469 153.218 42.1713 152.893 41.3005C152.126 39.2736 151.36 37.25 150.596 35.2296H145.273C145.273 38.1273 145.273 41.025 145.273 43.9226H141.445C141.445 43.7898 141.445 43.657 141.445 43.5291C141.445 36.6121 141.445 29.695 141.445 22.778L141.435 22.7878ZM145.268 25.838C145.268 27.9469 145.268 30.0574 145.268 32.1696C146.832 32.1696 148.397 32.1696 149.961 32.1696C150.675 32.1917 151.388 32.0884 152.067 31.8646C152.616 31.6798 153.098 31.3377 153.454 30.8807C153.958 30.1666 154.158 29.2821 154.01 28.4209C153.906 27.7246 153.542 27.0935 152.992 26.6547C152.373 26.1864 151.627 25.9155 150.852 25.8774C148.992 25.838 147.132 25.8774 145.268 25.8774V25.838ZM161.798 22.7878H165.625V43.9423H161.822C161.822 42.6534 161.822 41.3644 161.822 40.0804C161.822 37.7337 161.822 35.3821 161.822 33.0355C161.822 30.3739 161.822 27.7124 161.822 25.0509C161.822 24.3031 161.822 23.5504 161.822 22.7977L161.798 22.7878ZM170.25 22.7878H183.862C183.862 23.8456 183.862 24.8984 183.862 25.9561H174.082V31.653H181.954C181.954 32.6813 181.954 33.7095 181.954 34.7327C179.331 34.7327 176.709 34.7327 174.082 34.7327V40.6363H183.995C183.995 41.7383 183.995 42.8403 183.995 43.9473H170.255V22.7928L170.25 22.7878Z" fill="white"/>
<path fill-rule="evenodd" clip-rule="evenodd" d="M29.2567 28.5536C29.9164 29.621 30.6936 30.6111 31.5739 31.5054C30.9983 33.7094 30.4325 35.9331 29.8471 38.1075C29.0354 35.1558 28.2285 32.204 27.4217 29.2522C28.0219 29.0013 28.6418 28.7946 29.2567 28.5782V28.5536ZM22.3102 32.7107C21.3853 36.4447 20.4801 40.1836 19.5503 43.9127H15.6146C14.9258 41.3939 14.2387 38.875 13.5532 36.3561C12.3931 37.1058 11.4567 38.1544 10.8425 39.3916C10.3079 40.4561 10.0157 41.6257 9.98675 42.8166C9.95783 44.0074 10.193 45.1899 10.6752 46.2791C11.1218 47.2798 11.7686 48.1785 12.5758 48.9197C13.383 49.6609 14.3334 50.2289 15.3686 50.5887C16.7937 51.0771 18.3265 51.1606 19.7963 50.8297C21.1874 53.4227 23.2867 55.567 25.8497 57.0128C28.4126 58.4585 31.3336 59.1462 34.2724 58.9956C37.2111 58.8451 40.0466 57.8625 42.4483 56.1624C44.8501 54.4624 46.7194 52.1148 47.8382 49.3932C46.7049 48.8986 45.7015 48.1482 44.9068 47.2007C44.1121 46.2533 43.5478 45.1346 43.2581 43.9324H39.8487V35.8002C37.8907 35.4536 36.0161 34.7391 34.324 33.6946C33.4089 37.1056 32.4971 40.5182 31.5887 43.9324H27.5841C26.4279 39.6917 25.2866 35.446 24.1403 31.2004C23.5047 31.6711 22.9 32.1822 22.3299 32.7304L22.3102 32.7107ZM17.1839 35.0721C17.7045 34.9786 18.2376 34.9786 18.7582 35.0721C18.5024 36.0856 18.2663 37.099 18.0006 38.1125C17.7103 37.099 17.4594 36.0806 17.1839 35.0672V35.0721ZM43.6811 35.9872C44.5074 35.9155 45.3287 35.7956 46.141 35.628C45.9147 35.8593 45.649 36.0511 45.4325 36.2725C44.6731 37.0064 44.0706 37.8867 43.6615 38.8603C43.6615 37.9009 43.6615 36.9416 43.6615 35.9872H43.6811ZM61.3082 41.0495C62.2289 41.0361 63.1422 41.2154 63.9894 41.5759C63.9894 42.3581 63.9894 43.1453 63.9894 43.9324H67.2512C67.8575 44.693 68.333 45.5493 68.6582 46.466C69.1244 47.9401 69.1805 49.5132 68.8205 51.0167C68.2368 51.0518 67.6678 51.2138 67.153 51.4912C66.6382 51.7687 66.1901 52.155 65.8399 52.6233C65.4896 53.0915 65.2456 53.6305 65.1248 54.2027C65.0041 54.7749 65.0095 55.3665 65.1406 55.9363C64.4602 56.3341 63.7263 56.6323 62.9612 56.8219C61.8428 57.0971 60.6781 57.1279 59.5466 56.9123C58.4151 56.6967 57.3434 56.2398 56.4045 55.5726C55.4655 54.9054 54.6815 54.0436 54.1057 53.046C53.5299 52.0485 53.1759 50.9385 53.0678 49.7917C54.4653 49.4237 55.738 48.6864 56.7525 47.6573C57.767 46.6281 58.4858 45.3449 58.8337 43.9422H61.2935V41.0495H61.3082ZM142.448 44.1833C144.208 43.8142 146.042 44.0465 147.654 44.843C149.267 45.6396 150.566 46.9542 151.343 48.5766C151.994 49.9555 152.246 51.4893 152.071 53.0042C151.843 54.7939 151.021 56.4553 149.736 57.722C148.452 58.9887 146.779 59.7874 144.986 59.9901H143.27C142.2 59.8776 141.164 59.5512 140.223 59.0302C139.283 58.5092 138.456 57.8043 137.794 56.9575C137.131 56.1107 136.645 55.1392 136.366 54.1009C136.086 53.0625 136.018 51.9785 136.166 50.9134C136.944 51.1003 137.761 51.0504 138.511 50.77C139.261 50.4897 139.91 49.9917 140.375 49.34C140.84 48.6883 141.1 47.9124 141.122 47.112C141.143 46.3116 140.925 45.523 140.495 44.8475C141.121 44.5415 141.781 44.3135 142.463 44.1685L142.448 44.1833ZM166.554 47.3319C167.286 47.0387 168.087 46.9597 168.862 47.1043C169.637 47.2489 170.356 47.6111 170.933 48.1485C171.562 48.7726 171.971 49.584 172.099 50.4608C172.24 51.4365 172.018 52.4301 171.473 53.2522C170.929 54.0743 170.102 54.6675 169.148 54.9186C168.195 55.1697 167.182 55.0612 166.304 54.6138C165.425 54.1664 164.742 53.4113 164.385 52.4926C164.116 51.7991 164.043 51.0453 164.173 50.3132C164.291 49.6597 164.569 49.0456 164.982 48.5255C165.395 48.0054 165.93 47.5953 166.539 47.3319H166.554Z" fill="#8E2880"/>
<path fill-rule="evenodd" clip-rule="evenodd" d="M107.912 35.6133C108.015 35.9308 108.065 36.2633 108.06 36.5972C108.089 37.1876 108.094 37.7828 108.06 38.3781C108.066 38.7205 108.015 39.0615 107.907 39.3866C107.897 38.1469 107.897 36.8776 107.912 35.6133Z" fill="#E4248C"/>
</g>
<defs>
<clipPath id="clip0_967_2812">
<rect width="209.149" height="60" fill="white"/>
</clipPath>
</defs>
</svg>
