<svg id="where-map" width="554" height="290" viewBox="0 0 554 290" fill="none" xmlns="http://www.w3.org/2000/svg">
<g style="mix-blend-mode:multiply" opacity="0.5">
<path d="M478.363 289.663C477.66 289.663 476.998 289.249 476.708 288.56C476.322 287.649 476.764 286.601 477.674 286.215C483.149 283.94 488.651 281.526 494.043 279.058C494.954 278.644 496.002 279.044 496.415 279.94C496.829 280.837 496.429 281.899 495.533 282.312C490.099 284.795 484.555 287.222 479.053 289.511C478.832 289.608 478.598 289.649 478.363 289.649V289.663Z" fill="#91CF50"/>
<path d="M473.605 282.671C472.902 282.671 472.226 282.257 471.951 281.568C471.578 280.658 472.006 279.609 472.93 279.223C480.721 276.01 488.555 272.549 496.181 268.935C497.077 268.508 498.139 268.894 498.567 269.79C498.994 270.687 498.608 271.749 497.712 272.176C490.03 275.803 482.156 279.292 474.295 282.533C474.074 282.63 473.84 282.671 473.605 282.671Z" fill="#91CF50"/>
<path d="M479.673 271.1C478.983 271.1 478.321 270.7 478.031 270.025C477.631 269.115 478.045 268.066 478.955 267.667C484.816 265.101 490.705 262.412 496.442 259.64C497.338 259.213 498.4 259.585 498.842 260.482C499.269 261.378 498.897 262.44 498 262.881C492.222 265.667 486.292 268.384 480.39 270.962C480.155 271.059 479.907 271.114 479.673 271.114V271.1Z" fill="#91CF50"/>
<path d="M540.228 239.671C539.621 239.671 539.028 239.368 538.697 238.816C538.187 237.975 538.449 236.872 539.304 236.348L541.069 235.272C541.91 234.762 543.014 235.024 543.538 235.865C544.048 236.706 543.786 237.81 542.945 238.334L541.166 239.409C540.876 239.589 540.559 239.671 540.242 239.671H540.228Z" fill="#91CF50"/>
<path d="M478.788 262.454C478.099 262.454 477.45 262.054 477.147 261.392C476.747 260.482 477.147 259.434 478.057 259.034C484.732 256.082 491.434 252.938 497.957 249.697C498.84 249.256 499.916 249.615 500.357 250.511C500.798 251.394 500.44 252.469 499.543 252.911C492.965 256.179 486.221 259.337 479.505 262.316C479.271 262.426 479.023 262.468 478.774 262.468L478.788 262.454Z" fill="#91CF50"/>
<path d="M542.643 228.459C542.05 228.459 541.47 228.17 541.126 227.618C540.602 226.777 540.85 225.674 541.691 225.15C542.85 224.419 544.022 223.674 545.166 222.943C545.994 222.405 547.111 222.654 547.649 223.481C548.187 224.308 547.938 225.425 547.111 225.963C545.952 226.708 544.78 227.453 543.608 228.184C543.318 228.377 542.974 228.459 542.656 228.459H542.643Z" fill="#91CF50"/>
<path d="M459.524 261.585C458.806 261.585 458.144 261.157 457.855 260.454C457.483 259.53 457.938 258.496 458.848 258.123C461.813 256.937 464.805 255.696 467.743 254.455C468.653 254.069 469.701 254.497 470.101 255.407C470.487 256.317 470.06 257.365 469.15 257.751C466.198 259.006 463.178 260.247 460.186 261.447C459.965 261.53 459.744 261.571 459.524 261.571V261.585Z" fill="#91CF50"/>
<path d="M477.933 253.766C477.243 253.766 476.595 253.366 476.292 252.704C475.892 251.807 476.292 250.745 477.188 250.332C483.615 247.449 490.083 244.36 496.413 241.188C497.295 240.733 498.371 241.106 498.826 241.988C499.267 242.871 498.909 243.947 498.026 244.402C491.655 247.615 485.132 250.704 478.65 253.614C478.416 253.724 478.167 253.779 477.919 253.779L477.933 253.766Z" fill="#91CF50"/>
<path d="M511.886 236.913C511.252 236.913 510.631 236.582 510.314 235.975C509.845 235.107 510.162 234.017 511.031 233.548C513.651 232.114 516.244 230.666 518.837 229.19C519.692 228.708 520.795 228.997 521.278 229.866C521.774 230.721 521.471 231.824 520.602 232.307C517.996 233.796 515.375 235.244 512.741 236.693C512.465 236.844 512.176 236.913 511.886 236.913Z" fill="#91CF50"/>
<path d="M547.33 215.579C546.751 215.579 546.171 215.303 545.827 214.779C545.275 213.952 545.509 212.835 546.337 212.297L548.061 211.152C548.888 210.601 549.991 210.821 550.543 211.649C551.095 212.476 550.874 213.579 550.047 214.131L548.323 215.276C548.019 215.482 547.675 215.565 547.33 215.565V215.579Z" fill="#91CF50"/>
<path d="M38.9609 226.377C38.6575 226.377 38.3541 226.308 38.0783 226.143C34.8651 224.322 31.638 222.461 28.4938 220.599C27.6387 220.089 27.3629 218.999 27.8732 218.144C28.3834 217.289 29.4867 217.013 30.3279 217.524C33.4446 219.371 36.6441 221.233 39.8435 223.026C40.7124 223.509 41.0158 224.612 40.5193 225.467C40.1883 226.046 39.5815 226.377 38.9609 226.377Z" fill="#91CF50"/>
<path d="M345.199 283.65C344.317 283.65 343.558 283.002 343.42 282.106C343.282 281.126 343.958 280.216 344.937 280.078C353.529 278.851 362.189 277.389 370.671 275.707C371.65 275.514 372.588 276.148 372.781 277.113C372.974 278.079 372.339 279.03 371.374 279.223C362.824 280.92 354.108 282.409 345.447 283.636C345.365 283.636 345.282 283.65 345.185 283.65H345.199Z" fill="#91CF50"/>
<path d="M391.22 274.797C390.407 274.797 389.676 274.245 389.483 273.431C389.248 272.466 389.841 271.501 390.807 271.266C392.144 270.935 393.482 270.618 394.806 270.273C395.771 270.039 396.737 270.618 396.985 271.57C397.233 272.535 396.64 273.5 395.689 273.748C394.351 274.093 392.999 274.424 391.662 274.741C391.524 274.769 391.372 274.797 391.234 274.797H391.22Z" fill="#91CF50"/>
<path d="M451.69 255.779C450.972 255.779 450.297 255.338 450.021 254.634C449.662 253.711 450.117 252.676 451.041 252.318C466.542 246.291 481.919 239.368 496.744 231.742C497.627 231.287 498.702 231.632 499.157 232.514C499.612 233.397 499.268 234.472 498.385 234.928C483.45 242.609 467.963 249.587 452.338 255.655C452.131 255.738 451.91 255.779 451.69 255.779Z" fill="#91CF50"/>
<path d="M507.322 229.963C506.687 229.963 506.067 229.618 505.75 229.025C505.281 228.156 505.598 227.067 506.467 226.598C507.267 226.156 508.08 225.715 508.88 225.274C509.749 224.791 510.838 225.108 511.321 225.977C511.804 226.846 511.487 227.936 510.618 228.418C509.804 228.859 509.004 229.301 508.191 229.742C507.915 229.894 507.625 229.963 507.336 229.963H507.322Z" fill="#91CF50"/>
<path d="M549.644 204.05C549.079 204.05 548.513 203.774 548.169 203.278C547.603 202.464 547.81 201.347 548.624 200.782L549.755 200.009C550.568 199.444 551.685 199.651 552.251 200.464C552.816 201.278 552.609 202.395 551.796 202.961L550.651 203.747C550.334 203.953 549.989 204.064 549.631 204.064L549.644 204.05Z" fill="#91CF50"/>
<path d="M25.7778 208.959C25.4606 208.959 25.1296 208.877 24.84 208.684L23.6678 207.953C22.8266 207.429 22.5646 206.325 23.0886 205.484C23.6126 204.643 24.7159 204.381 25.5571 204.905L26.7294 205.636C27.5706 206.16 27.8326 207.263 27.3086 208.104C26.9638 208.656 26.3846 208.946 25.7778 208.946V208.959Z" fill="#91CF50"/>
<path d="M41.7759 218.461C41.4725 218.461 41.1691 218.392 40.8933 218.227C36.2872 215.62 31.6811 212.89 27.1853 210.132C26.3441 209.608 26.0821 208.504 26.5923 207.663C27.1164 206.822 28.2058 206.56 29.0609 207.07C33.5291 209.801 38.1076 212.504 42.6723 215.096C43.5274 215.579 43.8307 216.682 43.3481 217.537C43.0171 218.116 42.4103 218.447 41.7897 218.447L41.7759 218.461Z" fill="#91CF50"/>
<path d="M240.706 278.92C240.706 278.92 240.623 278.92 240.568 278.92C238.5 278.768 236.431 278.603 234.362 278.424C233.369 278.341 232.652 277.472 232.735 276.479C232.818 275.486 233.687 274.755 234.68 274.852C236.734 275.031 238.789 275.196 240.844 275.348C241.837 275.417 242.568 276.286 242.499 277.265C242.43 278.203 241.644 278.92 240.72 278.92H240.706Z" fill="#91CF50"/>
<path d="M259.295 279.927C259.295 279.927 259.254 279.927 259.226 279.927C253.241 279.72 247.187 279.389 241.257 278.961C240.264 278.892 239.533 278.037 239.602 277.044C239.671 276.051 240.526 275.307 241.519 275.39C247.408 275.817 253.407 276.148 259.35 276.355C260.343 276.396 261.116 277.224 261.074 278.203C261.047 279.168 260.247 279.927 259.282 279.927H259.295Z" fill="#91CF50"/>
<path d="M278.605 280.23C277.612 280.23 276.812 279.43 276.812 278.451C276.812 277.458 277.612 276.658 278.591 276.644C285.197 276.617 291.886 276.451 298.505 276.148C299.498 276.107 300.34 276.865 300.381 277.858C300.422 278.851 299.664 279.692 298.671 279.733C292.01 280.037 285.252 280.202 278.605 280.244V280.23Z" fill="#91CF50"/>
<path d="M317.164 278.506C316.24 278.506 315.454 277.803 315.385 276.865C315.303 275.872 316.033 275.017 317.013 274.921C344.622 272.576 372.134 267.791 398.792 260.675C399.743 260.413 400.736 260.992 400.984 261.944C401.246 262.895 400.667 263.888 399.716 264.136C372.851 271.294 345.132 276.12 317.316 278.479C317.261 278.479 317.206 278.479 317.164 278.479V278.506Z" fill="#91CF50"/>
<path d="M436.123 252.759C435.392 252.759 434.688 252.304 434.44 251.573C434.109 250.635 434.592 249.615 435.53 249.284C455.292 242.237 474.792 233.783 493.465 224.143C494.347 223.688 495.423 224.033 495.878 224.915C496.333 225.798 495.988 226.874 495.106 227.329C476.295 237.038 456.657 245.56 436.729 252.662C436.536 252.731 436.329 252.773 436.123 252.773V252.759Z" fill="#91CF50"/>
<path d="M501.586 223.66C500.952 223.66 500.331 223.316 500 222.723C499.531 221.854 499.862 220.764 500.731 220.295C502.345 219.427 503.958 218.544 505.558 217.661C506.427 217.179 507.516 217.496 507.999 218.365C508.482 219.234 508.165 220.323 507.296 220.806C505.682 221.702 504.055 222.585 502.441 223.454C502.166 223.605 501.876 223.674 501.586 223.674V223.66Z" fill="#91CF50"/>
<path d="M512.442 217.634C511.821 217.634 511.215 217.317 510.884 216.737C510.387 215.882 510.691 214.779 511.546 214.296L512.732 213.607C513.587 213.11 514.69 213.4 515.186 214.269C515.683 215.124 515.393 216.227 514.524 216.724L513.325 217.413C513.049 217.579 512.732 217.648 512.428 217.648L512.442 217.634Z" fill="#91CF50"/>
<path d="M45.2507 210.918C44.9473 210.918 44.6439 210.849 44.3681 210.683C35.7902 205.788 27.2538 200.561 18.9931 195.141C18.1657 194.603 17.9312 193.486 18.4829 192.659C19.0207 191.831 20.1377 191.597 20.9652 192.149C29.1569 197.527 37.6244 202.726 46.1471 207.58C47.0021 208.077 47.3055 209.166 46.8228 210.021C46.4919 210.601 45.8851 210.932 45.2645 210.932L45.2507 210.918Z" fill="#91CF50"/>
<path d="M276.384 271.955C261.256 271.955 246.003 271.225 231.026 269.79C230.047 269.694 229.316 268.825 229.413 267.832C229.509 266.853 230.392 266.136 231.371 266.219C246.238 267.639 261.38 268.37 276.384 268.37C283.569 268.37 290.809 268.204 297.925 267.873C298.973 267.86 299.759 268.591 299.801 269.583C299.842 270.576 299.084 271.418 298.091 271.459C290.92 271.79 283.61 271.955 276.384 271.955Z" fill="#91CF50"/>
<path d="M306.266 271.018C305.329 271.018 304.543 270.287 304.474 269.335C304.418 268.342 305.163 267.501 306.156 267.432C337.737 265.446 369.138 260.22 399.506 251.918C400.457 251.656 401.45 252.221 401.712 253.173C401.974 254.124 401.409 255.117 400.457 255.379C369.869 263.75 338.22 269.004 306.39 271.004C306.349 271.004 306.308 271.004 306.28 271.004L306.266 271.018Z" fill="#91CF50"/>
<path d="M428.962 246.498C428.217 246.498 427.528 246.029 427.266 245.284C426.949 244.346 427.445 243.326 428.369 243.009C449.276 235.796 469.865 226.984 489.572 216.82C490.455 216.365 491.531 216.71 491.986 217.592C492.441 218.475 492.096 219.551 491.213 220.006C471.369 230.239 450.613 239.12 429.541 246.401C429.348 246.47 429.155 246.498 428.962 246.498Z" fill="#91CF50"/>
<path d="M497.12 216.668C496.485 216.668 495.865 216.324 495.534 215.731C495.065 214.862 495.396 213.772 496.264 213.303C499.105 211.773 501.946 210.214 504.691 208.67C505.546 208.187 506.649 208.49 507.132 209.359C507.614 210.214 507.311 211.318 506.442 211.8C503.67 213.359 500.815 214.931 497.947 216.475C497.671 216.613 497.382 216.682 497.106 216.682L497.12 216.668Z" fill="#91CF50"/>
<path d="M546.891 185.805C546.325 185.805 545.774 185.543 545.429 185.046C544.85 184.246 545.043 183.116 545.843 182.55L546.408 182.15C547.208 181.571 548.339 181.764 548.904 182.564C549.483 183.364 549.29 184.495 548.49 185.06L547.925 185.46C547.608 185.681 547.249 185.791 546.891 185.791V185.805Z" fill="#91CF50"/>
<path d="M60.8357 210.049C60.5461 210.049 60.2565 209.98 59.9945 209.842C44.3834 201.526 29.0756 192.204 14.4988 182.123C13.6852 181.557 13.4783 180.44 14.0437 179.627C14.6091 178.813 15.7262 178.606 16.5398 179.171C31.0063 189.17 46.19 198.423 61.677 206.67C62.5458 207.139 62.8768 208.215 62.4217 209.097C62.1045 209.704 61.4839 210.049 60.8357 210.049Z" fill="#91CF50"/>
<path d="M276.383 263.681C254.828 263.681 233.149 262.178 211.953 259.213C210.973 259.075 210.284 258.165 210.422 257.186C210.56 256.207 211.47 255.517 212.449 255.655C233.48 258.592 254.994 260.082 276.383 260.082C317.3 260.082 357.859 254.676 396.956 244.029C397.907 243.767 398.9 244.333 399.162 245.284C399.424 246.236 398.859 247.229 397.907 247.491C358.507 258.234 317.631 263.667 276.397 263.667L276.383 263.681Z" fill="#91CF50"/>
<path d="M423.144 239.727C422.399 239.727 421.696 239.258 421.448 238.499C421.131 237.561 421.641 236.541 422.579 236.224C444.189 228.942 465.454 219.937 485.768 209.456C486.65 209.001 487.726 209.346 488.181 210.228C488.636 211.111 488.291 212.187 487.409 212.642C466.93 223.205 445.513 232.28 423.723 239.616C423.53 239.685 423.337 239.713 423.158 239.713L423.144 239.727Z" fill="#91CF50"/>
<path d="M492.082 209.98C491.448 209.98 490.827 209.635 490.496 209.028C490.027 208.16 490.358 207.07 491.241 206.601C493.268 205.526 495.268 204.436 497.281 203.319C498.15 202.836 499.239 203.154 499.722 204.022C500.205 204.891 499.888 205.981 499.019 206.463C497.005 207.58 494.978 208.684 492.937 209.759C492.675 209.897 492.385 209.966 492.096 209.966L492.082 209.98Z" fill="#91CF50"/>
<path d="M66.8328 203.871C66.557 203.871 66.2674 203.802 66.0054 203.664C47.8981 194.148 30.2597 183.281 13.5867 171.366C12.7869 170.787 12.5938 169.67 13.173 168.87C13.7522 168.07 14.8693 167.877 15.6691 168.456C32.218 180.275 49.7047 191.045 67.674 200.492C68.5566 200.947 68.8876 202.036 68.4325 202.905C68.1153 203.512 67.4948 203.871 66.8466 203.871H66.8328Z" fill="#91CF50"/>
<path d="M276.381 255.407C254.661 255.407 232.83 253.848 211.496 250.787C210.517 250.649 209.841 249.739 209.979 248.76C210.117 247.78 211.027 247.105 212.006 247.243C233.175 250.277 254.84 251.821 276.381 251.821C348.066 251.821 419.378 234.514 482.608 201.788C483.491 201.333 484.566 201.678 485.021 202.561C485.477 203.443 485.132 204.519 484.249 204.974C420.522 237.975 348.645 255.407 276.381 255.407Z" fill="#91CF50"/>
<path d="M485.272 204.215C484.624 204.215 484.003 203.871 483.686 203.25C483.231 202.368 483.562 201.292 484.445 200.837C486.472 199.775 488.499 198.699 490.499 197.61C491.368 197.141 492.457 197.458 492.926 198.327C493.395 199.196 493.078 200.285 492.209 200.754C490.182 201.857 488.141 202.947 486.1 204.009C485.837 204.147 485.548 204.215 485.272 204.215Z" fill="#91CF50"/>
<path d="M542.008 168.925C541.456 168.925 540.904 168.677 540.56 168.194C539.98 167.394 540.146 166.277 540.946 165.684L542.614 164.471C543.414 163.878 544.531 164.057 545.124 164.843C545.717 165.643 545.538 166.76 544.752 167.353L543.083 168.58C542.766 168.815 542.394 168.925 542.021 168.925H542.008Z" fill="#91CF50"/>
<path d="M15.5182 162.14C15.1459 162.14 14.7873 162.029 14.4563 161.795C9.83643 158.416 5.20274 154.886 0.679374 151.314C-0.0929084 150.693 -0.230816 149.576 0.389768 148.79C0.996561 148.018 2.1274 147.88 2.91347 148.501C7.39547 152.045 11.9878 155.548 16.5801 158.899C17.38 159.478 17.5592 160.609 16.9662 161.409C16.6215 161.892 16.0698 162.14 15.5182 162.14Z" fill="#91CF50"/>
<path d="M65.5899 193.817C65.3003 193.817 65.0107 193.748 64.7349 193.597C49.9925 185.598 35.5398 176.662 21.7767 167.022C20.963 166.456 20.77 165.339 21.3354 164.526C21.9008 163.712 23.0178 163.519 23.8315 164.084C37.4843 173.641 51.8267 182.509 66.4449 190.439C67.3137 190.907 67.6309 191.997 67.162 192.866C66.831 193.459 66.2243 193.803 65.5899 193.803V193.817Z" fill="#91CF50"/>
<path d="M276.382 247.132C254.069 247.132 231.645 245.464 209.745 242.168C208.766 242.016 208.09 241.106 208.242 240.127C208.394 239.147 209.304 238.458 210.283 238.623C232.003 241.892 254.248 243.547 276.396 243.547C340.619 243.547 402.526 230.045 460.406 203.429C461.302 203.016 462.364 203.416 462.778 204.312C463.192 205.208 462.792 206.27 461.895 206.684C403.533 233.521 341.13 247.132 276.382 247.132Z" fill="#91CF50"/>
<path d="M461.772 206.56C461.096 206.56 460.448 206.174 460.144 205.512C459.731 204.616 460.117 203.554 461.013 203.14C462.048 202.657 463.096 202.175 464.13 201.692C465.026 201.278 466.088 201.65 466.516 202.547C466.943 203.443 466.557 204.505 465.661 204.933C464.613 205.429 463.578 205.912 462.516 206.395C462.268 206.505 462.02 206.56 461.772 206.56Z" fill="#91CF50"/>
<path d="M466.765 204.215C466.089 204.215 465.455 203.843 465.152 203.195C464.724 202.299 465.096 201.237 465.993 200.809C468.889 199.43 471.799 197.996 474.626 196.575C475.508 196.134 476.584 196.479 477.039 197.375C477.481 198.258 477.136 199.334 476.239 199.789C473.385 201.223 470.461 202.657 467.537 204.05C467.289 204.174 467.027 204.229 466.765 204.229V204.215Z" fill="#91CF50"/>
<path d="M483.396 195.844C482.748 195.844 482.127 195.5 481.81 194.893C481.341 194.024 481.686 192.934 482.554 192.466C483.368 192.038 484.168 191.611 484.982 191.169C485.85 190.7 486.94 191.031 487.409 191.9C487.878 192.769 487.547 193.858 486.678 194.327C485.864 194.769 485.051 195.196 484.237 195.637C483.975 195.775 483.685 195.844 483.396 195.844Z" fill="#91CF50"/>
<path d="M537.689 161.823C537.138 161.823 536.6 161.574 536.241 161.092C535.662 160.292 535.827 159.175 536.627 158.582C538.655 157.092 540.682 155.589 542.681 154.072C543.468 153.465 544.598 153.631 545.191 154.417C545.784 155.203 545.633 156.334 544.847 156.927C542.819 158.458 540.792 159.975 538.737 161.478C538.42 161.712 538.048 161.823 537.675 161.823H537.689Z" fill="#91CF50"/>
<path d="M8.29275 146.294C7.90661 146.294 7.52047 146.17 7.18949 145.908L5.56219 144.626C4.7899 144.005 4.652 142.888 5.27258 142.102C5.89316 141.33 7.01021 141.192 7.79629 141.812L9.4098 143.095C10.1821 143.702 10.32 144.832 9.7132 145.619C9.35464 146.074 8.83059 146.308 8.30654 146.308L8.29275 146.294Z" fill="#91CF50"/>
<path d="M13.2003 150.087C12.8279 150.087 12.4418 149.963 12.1108 149.714C10.649 148.597 9.18718 147.466 7.72536 146.322C6.93928 145.715 6.81517 144.584 7.42196 143.812C8.02875 143.026 9.15959 142.888 9.94567 143.509C11.3937 144.639 12.8417 145.756 14.2898 146.86C15.0758 147.466 15.2275 148.584 14.6345 149.37C14.276 149.838 13.7519 150.073 13.2141 150.073L13.2003 150.087Z" fill="#91CF50"/>
<path d="M71.7147 187.722C71.4251 187.722 71.1355 187.653 70.8735 187.515C57.3034 180.247 43.9539 172.166 31.2113 163.491C30.3976 162.94 30.177 161.823 30.7424 160.995C31.294 160.168 32.4111 159.961 33.2385 160.526C45.8846 169.132 59.11 177.144 72.5697 184.343C73.4386 184.812 73.7695 185.901 73.3007 186.77C72.9835 187.377 72.3629 187.722 71.7147 187.722Z" fill="#91CF50"/>
<path d="M106.523 204.395C106.289 204.395 106.054 204.353 105.82 204.243L104.551 203.705C103.641 203.319 103.227 202.257 103.613 201.347C103.999 200.437 105.061 200.009 105.971 200.409L107.24 200.947C108.15 201.333 108.578 202.381 108.192 203.305C107.902 203.981 107.24 204.395 106.537 204.395H106.523Z" fill="#91CF50"/>
<path d="M113.528 207.305C113.308 207.305 113.073 207.263 112.853 207.167C111.143 206.477 109.433 205.774 107.736 205.057C106.826 204.671 106.399 203.623 106.771 202.712C107.157 201.802 108.205 201.361 109.115 201.747C110.798 202.45 112.494 203.154 114.19 203.843C115.114 204.216 115.556 205.264 115.183 206.174C114.908 206.877 114.232 207.291 113.515 207.291L113.528 207.305Z" fill="#91CF50"/>
<path d="M115.443 208.077C115.223 208.077 114.988 208.036 114.767 207.939L114.133 207.691C113.209 207.332 112.768 206.284 113.126 205.36C113.499 204.436 114.533 203.995 115.457 204.353L116.105 204.615C117.029 204.988 117.47 206.036 117.098 206.946C116.822 207.649 116.147 208.063 115.429 208.063L115.443 208.077Z" fill="#91CF50"/>
<path d="M133.539 214.82C133.346 214.82 133.139 214.793 132.946 214.724C127.306 212.766 121.624 210.656 116.067 208.449C115.143 208.091 114.687 207.042 115.06 206.118C115.418 205.195 116.466 204.753 117.39 205.112C122.893 207.291 128.533 209.387 134.119 211.331C135.056 211.662 135.553 212.683 135.222 213.621C134.96 214.365 134.27 214.82 133.526 214.82H133.539Z" fill="#91CF50"/>
<path d="M201.553 232.431C201.457 232.431 201.346 232.431 201.25 232.404C197.899 231.824 194.465 231.19 191.045 230.501C190.079 230.307 189.445 229.37 189.638 228.391C189.831 227.411 190.769 226.791 191.748 226.984C195.141 227.66 198.547 228.294 201.871 228.873C202.85 229.039 203.498 229.976 203.332 230.942C203.181 231.811 202.422 232.431 201.567 232.431H201.553Z" fill="#91CF50"/>
<path d="M276.385 238.858C253.024 238.858 229.579 236.996 206.7 233.328C205.721 233.176 205.059 232.252 205.211 231.273C205.363 230.294 206.287 229.618 207.266 229.783C229.952 233.424 253.217 235.272 276.371 235.272C337.644 235.272 396.861 222.723 452.369 197.968C453.279 197.568 454.327 197.968 454.741 198.878C455.141 199.789 454.741 200.837 453.831 201.25C397.854 226.212 338.154 238.858 276.371 238.858H276.385Z" fill="#91CF50"/>
<path d="M458.145 199.127C457.469 199.127 456.821 198.74 456.517 198.079C456.104 197.182 456.49 196.12 457.386 195.706C458.421 195.224 459.455 194.741 460.503 194.258C461.399 193.831 462.461 194.217 462.889 195.113C463.316 196.01 462.93 197.072 462.034 197.499C460.986 197.996 459.938 198.478 458.889 198.961C458.641 199.071 458.393 199.127 458.145 199.127Z" fill="#91CF50"/>
<path d="M530.081 157.12C529.529 157.12 528.978 156.858 528.619 156.375C528.04 155.575 528.219 154.458 529.019 153.879C531.957 151.755 534.935 149.563 537.845 147.342C538.631 146.749 539.762 146.901 540.355 147.687C540.948 148.473 540.796 149.604 540.01 150.197C537.073 152.431 534.08 154.652 531.101 156.789C530.784 157.024 530.412 157.134 530.053 157.134L530.081 157.12Z" fill="#91CF50"/>
<path d="M79.1345 182.288C78.8587 182.288 78.5691 182.219 78.3071 182.081C66.5022 175.903 54.849 169.09 43.6509 161.823C42.8235 161.285 42.589 160.168 43.1269 159.34C43.6647 158.513 44.7818 158.278 45.6092 158.816C56.7108 166.029 68.2812 172.786 79.9758 178.909C80.8584 179.364 81.1894 180.454 80.7343 181.323C80.4171 181.929 79.7965 182.288 79.1483 182.288H79.1345Z" fill="#91CF50"/>
<path d="M84.6499 185.115C84.3741 185.115 84.0983 185.06 83.85 184.922C82.402 184.191 80.9678 183.46 79.5335 182.716C78.6509 182.261 78.3062 181.171 78.7612 180.302C79.2163 179.42 80.3058 179.089 81.1746 179.53C82.5951 180.275 84.0155 181.006 85.4498 181.723C86.3324 182.164 86.6909 183.253 86.2496 184.136C85.9324 184.757 85.2981 185.115 84.6499 185.115Z" fill="#91CF50"/>
<path d="M87.1191 186.356C86.8571 186.356 86.5812 186.301 86.3192 186.163L84.4575 185.239C83.5749 184.798 83.2163 183.722 83.6576 182.826C84.0989 181.943 85.1746 181.585 86.071 182.026L87.9189 182.95C88.8016 183.391 89.1739 184.467 88.7326 185.35C88.4154 185.984 87.781 186.343 87.1329 186.343L87.1191 186.356Z" fill="#91CF50"/>
<path d="M141.247 208.711C141.054 208.711 140.861 208.684 140.682 208.615C128.698 204.602 116.741 200.009 105.143 194.948C104.233 194.548 103.819 193.5 104.219 192.59C104.619 191.68 105.667 191.266 106.577 191.666C118.065 196.686 129.925 201.25 141.813 205.222C142.75 205.539 143.261 206.546 142.943 207.498C142.695 208.242 141.992 208.725 141.247 208.725V208.711Z" fill="#91CF50"/>
<path d="M145.178 210.008C144.998 210.008 144.805 209.98 144.626 209.925C143.743 209.635 142.875 209.359 141.992 209.07C141.054 208.753 140.544 207.746 140.847 206.808C141.151 205.87 142.171 205.346 143.109 205.664C143.978 205.953 144.847 206.229 145.715 206.519C146.653 206.822 147.177 207.829 146.874 208.78C146.626 209.539 145.922 210.021 145.164 210.021L145.178 210.008Z" fill="#91CF50"/>
<path d="M276.385 230.583C245.714 230.583 215.099 227.329 185.407 220.888C184.442 220.682 183.821 219.73 184.028 218.751C184.235 217.785 185.2 217.165 186.166 217.372C215.623 223.743 245.976 226.984 276.385 226.984C338.567 226.984 398.474 213.841 454.465 187.929C455.361 187.515 456.423 187.901 456.85 188.797C457.264 189.694 456.878 190.756 455.982 191.183C399.522 217.317 339.105 230.57 276.398 230.57L276.385 230.583Z" fill="#91CF50"/>
<path d="M521.97 152.748C521.404 152.748 520.853 152.486 520.508 151.99C519.943 151.176 520.122 150.059 520.935 149.494C526.328 145.687 531.706 141.688 536.919 137.634C537.705 137.027 538.822 137.165 539.429 137.951C540.036 138.737 539.898 139.854 539.112 140.461C533.857 144.557 528.424 148.583 522.99 152.431C522.673 152.652 522.315 152.762 521.956 152.762L521.97 152.748Z" fill="#91CF50"/>
<path d="M276.383 222.309C195.721 222.309 117.389 199.375 49.8423 155.975C49.0148 155.438 48.7666 154.334 49.3044 153.493C49.8423 152.666 50.9455 152.417 51.7868 152.955C118.755 195.982 196.424 218.723 276.383 218.723C338.786 218.723 398.79 205.25 454.725 178.675C455.621 178.247 456.683 178.634 457.111 179.53C457.538 180.426 457.152 181.488 456.256 181.916C399.838 208.725 339.31 222.309 276.369 222.309H276.383Z" fill="#91CF50"/>
<path d="M515.061 147.494C514.496 147.494 513.944 147.232 513.585 146.722C513.02 145.908 513.213 144.791 514.027 144.226C520.563 139.661 527.059 134.862 533.334 129.925C534.106 129.318 535.237 129.442 535.857 130.228C536.464 131 536.34 132.131 535.554 132.752C529.224 137.73 522.673 142.571 516.081 147.177C515.764 147.398 515.406 147.494 515.061 147.494Z" fill="#91CF50"/>
<path d="M535.523 132.269C534.999 132.269 534.475 132.035 534.116 131.593C533.496 130.821 533.634 129.69 534.406 129.07L535.482 128.215C536.254 127.594 537.385 127.718 538.005 128.504C538.626 129.276 538.502 130.407 537.716 131.028L536.626 131.883C536.295 132.145 535.909 132.269 535.509 132.269H535.523Z" fill="#91CF50"/>
<path d="M276.384 214.034C194.164 214.034 114.798 189.859 46.8648 144.102C46.0373 143.55 45.8305 142.433 46.3821 141.619C46.9337 140.806 48.0508 140.585 48.8644 141.137C116.191 186.481 194.867 210.449 276.37 210.449C339.284 210.449 399.605 196.506 455.678 169.021C456.56 168.58 457.636 168.953 458.077 169.835C458.519 170.718 458.146 171.793 457.264 172.235C400.708 199.968 339.849 214.034 276.384 214.034Z" fill="#91CF50"/>
<path d="M509.916 140.985C509.35 140.985 508.785 140.723 508.44 140.213C507.875 139.399 508.082 138.282 508.895 137.716C515.998 132.779 523.045 127.539 529.83 122.147C530.602 121.526 531.733 121.664 532.353 122.436C532.974 123.209 532.836 124.339 532.064 124.96C525.224 130.394 518.108 135.675 510.95 140.654C510.633 140.875 510.274 140.971 509.93 140.971L509.916 140.985Z" fill="#91CF50"/>
<path d="M546.806 112.08C546.309 112.08 545.813 111.873 545.454 111.473C544.792 110.728 544.875 109.597 545.606 108.935L546.13 108.48C546.875 107.832 548.005 107.901 548.654 108.646C549.302 109.39 549.233 110.521 548.488 111.183L547.978 111.638C547.633 111.942 547.219 112.093 546.792 112.093L546.806 112.08Z" fill="#91CF50"/>
<path d="M551.95 107.487C551.468 107.487 550.971 107.294 550.626 106.894C549.965 106.163 550.02 105.032 550.751 104.357L550.999 104.122C551.73 103.46 552.861 103.515 553.536 104.246C554.198 104.977 554.143 106.108 553.412 106.784L553.164 107.018C552.819 107.335 552.392 107.487 551.964 107.487H551.95Z" fill="#91CF50"/>
<path d="M276.385 205.76C193.365 205.76 113.627 180.716 45.804 133.345C44.9904 132.779 44.7973 131.662 45.3627 130.849C45.9281 130.035 47.0452 129.842 47.8588 130.407C115.075 177.351 194.096 202.174 276.385 202.174C339.616 202.174 400.088 187.832 456.12 159.561C457.003 159.12 458.078 159.464 458.534 160.347C458.975 161.23 458.63 162.305 457.747 162.76C401.205 191.293 340.181 205.76 276.399 205.76H276.385Z" fill="#91CF50"/>
<path d="M507.144 132.821C506.578 132.821 506.027 132.559 505.682 132.062C505.116 131.248 505.31 130.131 506.109 129.566C513.749 124.188 521.293 118.464 528.533 112.562C529.305 111.941 530.436 112.052 531.057 112.824C531.677 113.596 531.567 114.727 530.795 115.348C523.486 121.305 515.873 127.07 508.164 132.49C507.847 132.71 507.488 132.821 507.13 132.821H507.144Z" fill="#91CF50"/>
<path d="M276.382 197.486C194.079 197.486 115.223 172.414 48.3105 124.988C47.4968 124.408 47.3175 123.291 47.883 122.492C48.4484 121.678 49.5792 121.499 50.3791 122.064C116.685 169.063 194.823 193.9 276.382 193.9C346.011 193.9 414.358 175.379 474.072 140.351C474.927 139.854 476.03 140.13 476.527 140.985C477.023 141.84 476.748 142.943 475.893 143.44C415.627 178.799 346.646 197.486 276.382 197.486Z" fill="#91CF50"/>
<path d="M479.727 140.874C479.12 140.874 478.527 140.571 478.196 140.019C477.686 139.178 477.948 138.075 478.789 137.551L479.368 137.192C480.209 136.682 481.313 136.944 481.837 137.785C482.347 138.627 482.085 139.73 481.244 140.254L480.651 140.612C480.361 140.792 480.03 140.874 479.713 140.874H479.727Z" fill="#91CF50"/>
<path d="M483.838 138.337C483.245 138.337 482.652 138.034 482.321 137.496C481.797 136.655 482.059 135.551 482.9 135.027C484.459 134.062 486.003 133.083 487.548 132.09C488.375 131.552 489.492 131.8 490.03 132.628C490.568 133.455 490.32 134.572 489.492 135.11C487.934 136.103 486.376 137.096 484.803 138.075C484.514 138.254 484.183 138.351 483.852 138.351L483.838 138.337Z" fill="#91CF50"/>
<path d="M506.716 122.96C506.164 122.96 505.612 122.698 505.268 122.216C504.688 121.416 504.868 120.299 505.668 119.706C510.839 115.969 515.983 112.038 520.948 108.053C521.72 107.432 522.851 107.556 523.471 108.328C524.092 109.101 523.968 110.232 523.196 110.852C518.176 114.879 512.99 118.837 507.777 122.616C507.46 122.85 507.088 122.96 506.729 122.96H506.716Z" fill="#91CF50"/>
<path d="M276.382 189.211C192.631 189.211 112.934 162.871 45.9251 113.031C45.1253 112.438 44.9598 111.321 45.5528 110.521C46.1458 109.721 47.2628 109.556 48.0627 110.149C114.451 159.52 193.403 185.625 276.382 185.625C351.045 185.625 423.405 164.126 485.629 123.457C486.457 122.919 487.574 123.153 488.112 123.981C488.649 124.808 488.415 125.925 487.588 126.463C424.785 167.518 351.749 189.211 276.382 189.211Z" fill="#91CF50"/>
<path d="M504.166 114.576C503.614 114.576 503.076 114.327 502.718 113.845C502.125 113.045 502.304 111.928 503.104 111.335C506.221 109.032 509.351 106.66 512.399 104.274C513.185 103.667 514.302 103.805 514.923 104.577C515.529 105.363 515.392 106.48 514.619 107.101C511.544 109.501 508.4 111.9 505.241 114.217C504.924 114.451 504.552 114.562 504.18 114.562L504.166 114.576Z" fill="#91CF50"/>
<path d="M516.203 105.35C515.679 105.35 515.155 105.115 514.796 104.674C514.176 103.902 514.3 102.771 515.086 102.15L516.162 101.295C516.934 100.674 518.065 100.799 518.685 101.571C519.306 102.343 519.182 103.474 518.41 104.095L517.334 104.963C517.003 105.225 516.603 105.35 516.217 105.35H516.203Z" fill="#91CF50"/>
<path d="M276.383 180.937C196.218 180.937 119.638 156.182 54.8902 109.349C54.0903 108.77 53.911 107.653 54.4902 106.839C55.0694 106.039 56.1865 105.86 57.0001 106.439C121.127 152.831 196.99 177.351 276.383 177.351C350.853 177.351 422.8 155.562 484.444 114.327C485.258 113.776 486.375 113.996 486.927 114.824C487.478 115.651 487.258 116.754 486.43 117.306C424.193 158.94 351.571 180.937 276.383 180.937Z" fill="#91CF50"/>
<path d="M502.32 105.639C501.782 105.639 501.231 105.391 500.886 104.922C500.293 104.136 500.445 103.005 501.244 102.412C503.437 100.757 505.616 99.0887 507.781 97.3924C508.554 96.7856 509.684 96.9097 510.305 97.6958C510.912 98.4681 510.788 99.5989 510.002 100.22C507.823 101.93 505.63 103.626 503.41 105.281C503.092 105.529 502.706 105.639 502.334 105.639H502.32Z" fill="#91CF50"/>
<path d="M276.385 172.662C197.405 172.662 122.052 148.128 58.4633 101.709C57.6635 101.13 57.4842 99.9987 58.0772 99.1989C58.6564 98.399 59.7872 98.2197 60.5871 98.8127C123.556 144.777 198.191 169.077 276.399 169.077C354.606 169.077 423.67 146.529 485.121 103.86C485.935 103.295 487.052 103.502 487.618 104.315C488.183 105.129 487.976 106.246 487.163 106.811C425.104 149.894 352.22 172.676 276.399 172.676L276.385 172.662Z" fill="#91CF50"/>
<path d="M490.635 103.943C490.083 103.943 489.532 103.681 489.173 103.198C488.594 102.398 488.787 101.268 489.587 100.702C491.448 99.3644 493.296 98.0129 495.131 96.6476C495.93 96.0546 497.048 96.2201 497.641 97.0062C498.234 97.806 498.068 98.9231 497.282 99.5161C495.434 100.895 493.572 102.26 491.683 103.612C491.366 103.833 491.007 103.943 490.635 103.943Z" fill="#91CF50"/>
<path d="M501.158 96.1236C500.62 96.1236 500.096 95.8892 499.738 95.4203C499.131 94.6342 499.283 93.5172 500.069 92.9104C504.22 89.7109 508.343 86.3735 512.356 83.0086C513.115 82.3742 514.246 82.4708 514.88 83.2293C515.514 83.9877 515.418 85.1186 514.659 85.753C510.619 89.1593 506.44 92.5242 502.261 95.7513C501.93 95.9995 501.544 96.1236 501.172 96.1236H501.158Z" fill="#91CF50"/>
<path d="M520.798 79.8505C520.301 79.8505 519.805 79.6437 519.446 79.2437C518.784 78.499 518.867 77.3682 519.598 76.72L520.108 76.2649C520.853 75.6168 521.984 75.6857 522.632 76.4166C523.294 77.1613 523.211 78.2922 522.48 78.9541L521.97 79.4092C521.625 79.7126 521.211 79.8643 520.784 79.8643L520.798 79.8505Z" fill="#91CF50"/>
<path d="M276.383 164.388C199.679 164.388 126.408 140.695 64.4741 95.8477C63.6743 95.2685 63.495 94.1515 64.0742 93.3378C64.6534 92.5379 65.7705 92.3587 66.5841 92.9379C127.898 137.33 200.437 160.788 276.383 160.788C352.328 160.788 429.929 135.689 492.539 88.2214C493.325 87.6284 494.456 87.7801 495.049 88.5662C495.642 89.3523 495.49 90.4831 494.704 91.0761C431.46 139.027 355.955 164.374 276.383 164.374V164.388Z" fill="#91CF50"/>
<path d="M495.269 90.2072C494.732 90.2072 494.194 89.9728 493.849 89.5039C493.242 88.7178 493.394 87.587 494.18 86.994C501.944 81.0364 509.57 74.6789 516.824 68.1007C517.555 67.4387 518.7 67.4939 519.362 68.2248C520.024 68.9557 519.969 70.0865 519.238 70.7623C511.901 77.4094 504.206 83.8221 496.359 89.8487C496.028 90.0969 495.656 90.221 495.269 90.221V90.2072Z" fill="#91CF50"/>
<path d="M44.8084 69.1076C44.3947 69.1076 43.9672 68.9559 43.6224 68.6663C40.6712 66.0737 37.7338 63.412 34.8929 60.7642C34.1757 60.0885 34.1344 58.9576 34.8101 58.2267C35.4859 57.5096 36.6167 57.4682 37.3476 58.144C40.1609 60.778 43.0708 63.412 45.9944 65.9771C46.7391 66.6253 46.8081 67.7699 46.1599 68.5146C45.8013 68.9145 45.3049 69.1214 44.8084 69.1214V69.1076Z" fill="#91CF50"/>
<path d="M276.383 156.113C199.086 156.113 125.664 131.621 64.0607 85.2703C63.2746 84.6772 63.1091 83.5464 63.7021 82.7603C64.2951 81.9743 65.426 81.8088 66.212 82.4018C127.181 128.284 199.858 152.528 276.369 152.528C365.154 152.528 449.816 119.223 514.742 58.7506C515.46 58.0749 516.604 58.1163 517.28 58.8472C517.956 59.5781 517.914 60.7089 517.183 61.3847C451.581 122.478 366.051 156.113 276.355 156.113H276.383Z" fill="#91CF50"/>
<path d="M276.385 147.839C201.115 147.839 129.596 124.05 69.5372 79.023C68.7512 78.43 68.5857 77.2992 69.1787 76.5131C69.7717 75.7133 70.9025 75.5616 71.6886 76.1546C131.113 120.699 201.901 144.253 276.385 144.253C365.528 144.253 449.886 110.121 513.916 48.1456C514.634 47.456 515.764 47.4698 516.454 48.1869C517.143 48.9041 517.13 50.0349 516.413 50.7244C451.706 113.348 366.452 147.839 276.385 147.839Z" fill="#91CF50"/>
<path d="M229.578 136.324C229.495 136.324 229.413 136.324 229.33 136.31C175.325 128.766 123.362 107.832 79.0796 75.7822C78.2797 75.2029 78.1005 74.0859 78.6797 73.286C79.2589 72.4862 80.3759 72.3069 81.1896 72.8861C125.003 104.591 176.401 125.305 229.84 132.779C230.819 132.917 231.509 133.827 231.371 134.807C231.247 135.703 230.474 136.351 229.592 136.351L229.578 136.324Z" fill="#91CF50"/>
<path d="M230.945 136.503C230.862 136.503 230.78 136.503 230.697 136.489L230.007 136.392C229.028 136.254 228.339 135.358 228.477 134.379C228.614 133.4 229.511 132.724 230.49 132.848L231.18 132.945C232.159 133.083 232.848 133.979 232.71 134.958C232.586 135.855 231.814 136.503 230.931 136.503H230.945Z" fill="#91CF50"/>
<path d="M276.383 139.564C262.951 139.564 249.436 138.765 236.197 137.192C235.218 137.068 234.514 136.186 234.625 135.207C234.735 134.227 235.631 133.538 236.611 133.634C249.712 135.193 263.089 135.979 276.383 135.979C365.968 135.979 450.036 100.937 513.115 37.3198C513.805 36.6165 514.949 36.6165 515.653 37.3198C516.356 38.0093 516.356 39.154 515.653 39.8573C451.898 104.164 366.933 139.578 276.383 139.578V139.564Z" fill="#91CF50"/>
<path d="M237.731 129.028C237.662 129.028 237.593 129.028 237.524 129.028C185.423 122.891 134.949 104.012 91.5355 74.4168C90.7219 73.8651 90.5012 72.7481 91.0666 71.9206C91.6182 71.107 92.7353 70.8863 93.5627 71.4517C136.493 100.716 186.43 119.388 237.952 125.456C238.931 125.567 239.634 126.463 239.524 127.442C239.414 128.352 238.641 129.028 237.745 129.028H237.731Z" fill="#91CF50"/>
<path d="M246.65 129.952C246.65 129.952 246.54 129.952 246.485 129.952C244.182 129.745 241.879 129.511 239.589 129.263C238.61 129.152 237.893 128.27 238.003 127.277C238.114 126.298 238.996 125.567 239.989 125.691C242.251 125.939 244.526 126.173 246.816 126.38C247.795 126.463 248.526 127.346 248.443 128.325C248.36 129.249 247.574 129.952 246.664 129.952H246.65Z" fill="#91CF50"/>
<path d="M276.382 131.29C266.88 131.29 257.295 130.876 247.862 130.076C246.869 129.994 246.139 129.125 246.235 128.132C246.318 127.153 247.173 126.381 248.18 126.505C257.502 127.305 267.004 127.718 276.395 127.718C358.74 127.718 437.292 96.8683 497.585 40.8503C498.316 40.1746 499.447 40.2159 500.123 40.9468C500.799 41.6778 500.757 42.8086 500.026 43.4843C439.071 100.123 359.65 131.304 276.395 131.304L276.382 131.29Z" fill="#91CF50"/>
<path d="M499.298 43.4704C498.815 43.4704 498.346 43.2773 497.988 42.905C497.312 42.1879 497.353 41.0432 498.071 40.3675L499.574 38.9608C500.291 38.2851 501.422 38.3127 502.111 39.0298C502.787 39.7469 502.759 40.8777 502.042 41.5673L500.525 42.9877C500.181 43.3049 499.739 43.4704 499.298 43.4704Z" fill="#91CF50"/>
<path d="M502.318 40.6295C501.849 40.6295 501.38 40.4503 501.022 40.0779C500.332 39.3608 500.36 38.2299 501.077 37.5404L501.574 37.0715C502.291 36.382 503.421 36.3958 504.111 37.1129C504.801 37.83 504.787 38.9609 504.07 39.6504L503.573 40.1331C503.228 40.4641 502.773 40.6295 502.332 40.6295H502.318Z" fill="#91CF50"/>
<path d="M221.911 118.382C221.814 118.382 221.704 118.382 221.608 118.354C179.132 111.031 139.194 95.4477 102.911 72.031C102.083 71.4932 101.835 70.3899 102.373 69.5487C102.911 68.7212 104.014 68.473 104.855 69.0108C140.739 92.1655 180.222 107.584 222.214 114.824C223.194 114.989 223.842 115.913 223.676 116.892C223.524 117.761 222.766 118.382 221.911 118.382Z" fill="#91CF50"/>
<path d="M238.967 120.837C238.898 120.837 238.829 120.837 238.76 120.837C234.651 120.354 230.486 119.788 226.39 119.14C225.411 118.989 224.749 118.065 224.901 117.085C225.052 116.106 225.976 115.431 226.955 115.596C231.01 116.23 235.119 116.796 239.188 117.265C240.167 117.375 240.87 118.271 240.76 119.251C240.65 120.161 239.877 120.837 238.981 120.837H238.967Z" fill="#91CF50"/>
<path d="M276.382 123.015C264.508 123.015 252.552 122.354 240.816 121.071C239.837 120.961 239.12 120.078 239.23 119.099C239.34 118.12 240.223 117.403 241.202 117.513C252.8 118.796 264.633 119.444 276.368 119.444C309.687 119.444 342.509 114.3 373.924 104.136C374.862 103.819 375.882 104.343 376.186 105.294C376.489 106.232 375.979 107.253 375.027 107.556C343.267 117.83 310.073 123.029 276.368 123.029L276.382 123.015Z" fill="#91CF50"/>
<path d="M379.718 105.887C378.973 105.887 378.283 105.419 378.021 104.674C377.704 103.736 378.201 102.716 379.139 102.398C423.462 87.201 464.669 61.7295 498.277 28.7282C498.98 28.0387 500.111 28.0387 500.814 28.7558C501.504 29.4591 501.504 30.6038 500.787 31.2933C466.793 64.6669 425.131 90.428 380.297 105.791C380.104 105.86 379.911 105.887 379.718 105.887Z" fill="#91CF50"/>
<path d="M132.023 79.1884C131.747 79.1884 131.457 79.1195 131.195 78.9816C125.707 76.0855 120.218 72.9826 114.895 69.7694C114.053 69.2591 113.778 68.1558 114.288 67.3008C114.798 66.4596 115.901 66.1838 116.756 66.694C122.011 69.8797 127.43 72.9412 132.864 75.8097C133.747 76.2648 134.077 77.3543 133.609 78.2369C133.291 78.8437 132.671 79.1884 132.023 79.1884Z" fill="#91CF50"/>
<path d="M140.021 83.243C139.759 83.243 139.483 83.1879 139.235 83.0638C137.566 82.2501 135.925 81.4227 134.27 80.5814C133.387 80.1263 133.042 79.0507 133.498 78.1681C133.953 77.2854 135.028 76.9407 135.911 77.3958C137.538 78.2232 139.166 79.0507 140.82 79.8505C141.703 80.2918 142.075 81.3537 141.648 82.2501C141.331 82.8845 140.696 83.2568 140.034 83.2568L140.021 83.243Z" fill="#91CF50"/>
<path d="M157.603 91.2002C157.369 91.2002 157.148 91.1589 156.914 91.0623C152.666 89.2971 148.405 87.4216 144.226 85.4633C143.33 85.0496 142.944 83.9739 143.357 83.0775C143.771 82.1811 144.847 81.795 145.743 82.2087C149.867 84.1394 154.087 86.0011 158.293 87.7388C159.203 88.1249 159.644 89.173 159.258 90.0832C158.968 90.7727 158.306 91.1865 157.603 91.1865V91.2002Z" fill="#91CF50"/>
<path d="M167.863 95.241C167.656 95.241 167.449 95.1996 167.243 95.1306C164.65 94.1653 162.043 93.1448 159.492 92.1105C158.568 91.7381 158.127 90.69 158.499 89.7798C158.872 88.8696 159.92 88.4145 160.83 88.7869C163.354 89.8074 165.932 90.8141 168.498 91.7657C169.422 92.1105 169.89 93.1448 169.546 94.0687C169.284 94.7859 168.594 95.241 167.863 95.241Z" fill="#91CF50"/>
<path d="M198.77 104.963C198.618 104.963 198.467 104.95 198.315 104.908C188.496 102.384 178.705 99.3367 169.189 95.8615C168.265 95.5167 167.782 94.4962 168.127 93.5584C168.472 92.6344 169.492 92.1518 170.43 92.4965C179.835 95.9304 189.517 98.9506 199.225 101.447C200.191 101.695 200.756 102.674 200.508 103.626C200.301 104.439 199.57 104.977 198.77 104.977V104.963Z" fill="#91CF50"/>
<path d="M205.473 106.604C205.335 106.604 205.197 106.591 205.059 106.563C203.487 106.191 201.915 105.818 200.343 105.418C199.377 105.184 198.798 104.205 199.032 103.24C199.267 102.274 200.246 101.695 201.211 101.943C202.756 102.329 204.314 102.702 205.873 103.074C206.838 103.295 207.431 104.26 207.21 105.225C207.017 106.053 206.286 106.604 205.459 106.604H205.473Z" fill="#91CF50"/>
<path d="M218.959 109.446C218.849 109.446 218.739 109.445 218.628 109.418C215.222 108.784 211.788 108.08 208.437 107.336C207.472 107.115 206.865 106.163 207.072 105.198C207.292 104.233 208.244 103.626 209.209 103.833C212.533 104.564 215.912 105.267 219.29 105.901C220.269 106.081 220.904 107.018 220.725 107.997C220.559 108.852 219.814 109.459 218.959 109.459V109.446Z" fill="#91CF50"/>
<path d="M242.831 112.948C242.831 112.948 242.706 112.948 242.638 112.948C237.631 112.411 232.543 111.735 227.509 110.949C226.53 110.797 225.868 109.873 226.02 108.894C226.171 107.915 227.082 107.239 228.075 107.404C233.039 108.191 238.073 108.852 243.024 109.377C244.003 109.487 244.72 110.369 244.61 111.349C244.513 112.273 243.727 112.948 242.831 112.948Z" fill="#91CF50"/>
<path d="M253.132 113.886C253.132 113.886 253.049 113.886 252.994 113.886C250.457 113.693 247.919 113.472 245.396 113.224C244.416 113.128 243.685 112.245 243.782 111.266C243.879 110.287 244.761 109.556 245.74 109.652C248.236 109.901 250.746 110.107 253.256 110.3C254.249 110.369 254.98 111.238 254.911 112.217C254.842 113.155 254.056 113.872 253.132 113.872V113.886Z" fill="#91CF50"/>
<path d="M268.977 114.658H268.935C264.315 114.548 259.654 114.341 255.075 114.024C254.083 113.955 253.338 113.1 253.407 112.121C253.476 111.128 254.345 110.397 255.31 110.452C259.833 110.756 264.439 110.962 269.004 111.073C269.997 111.1 270.783 111.914 270.756 112.907C270.728 113.886 269.928 114.658 268.963 114.658H268.977Z" fill="#91CF50"/>
<path d="M276.385 114.741C274.123 114.741 271.875 114.714 269.627 114.672C268.634 114.645 267.848 113.831 267.876 112.838C267.903 111.845 268.703 111.059 269.71 111.087C285.638 111.431 301.829 110.535 317.578 108.439C318.557 108.315 319.467 108.99 319.591 109.983C319.715 110.962 319.026 111.873 318.046 111.997C304.338 113.831 290.313 114.755 276.385 114.755V114.741Z" fill="#91CF50"/>
<path d="M318.486 111.914C317.603 111.914 316.831 111.266 316.707 110.369C316.569 109.39 317.259 108.48 318.238 108.356C335.669 105.984 352.977 102.109 369.677 96.8131C370.629 96.5097 371.622 97.0337 371.925 97.9853C372.229 98.9231 371.705 99.9436 370.753 100.233C353.846 105.584 336.345 109.514 318.707 111.914C318.624 111.914 318.541 111.928 318.458 111.928L318.486 111.914Z" fill="#91CF50"/>
<path d="M393.563 91.8483C392.859 91.8483 392.183 91.4208 391.908 90.7312C391.535 89.8073 391.977 88.7729 392.887 88.3868C429.681 73.3687 462.861 51.6345 491.477 23.7909C492.18 23.1014 493.325 23.1152 494.014 23.8323C494.704 24.5356 494.69 25.6803 493.973 26.3698C465.012 54.5443 431.46 76.5268 394.238 91.7242C394.018 91.8207 393.783 91.8621 393.563 91.8621V91.8483Z" fill="#91CF50"/>
<path d="M493.229 26.3974C492.76 26.3974 492.305 26.2182 491.946 25.8596C491.257 25.1563 491.27 24.0116 491.974 23.3221C496.842 18.5643 501.627 13.5582 506.192 8.46946C506.854 7.73855 507.985 7.6696 508.73 8.33155C509.46 8.99351 509.529 10.1244 508.867 10.8691C504.247 16.0268 499.407 21.0742 494.484 25.8872C494.139 26.2319 493.684 26.3974 493.229 26.3974Z" fill="#91CF50"/>
<path d="M508 10.9381C507.572 10.9381 507.145 10.7864 506.814 10.483C506.069 9.82106 506.014 8.69022 506.662 7.94552L507.572 6.92501C508.221 6.18031 509.365 6.11135 510.096 6.77331C510.841 7.43526 510.91 8.56611 510.248 9.31081L509.324 10.3451C508.965 10.745 508.483 10.9519 507.986 10.9519L508 10.9381Z" fill="#91CF50"/>
<path d="M136.282 72.0726C136.006 72.0726 135.717 72.0037 135.455 71.8658C130.573 69.3007 125.691 66.5701 120.933 63.7292C120.078 63.219 119.802 62.1295 120.313 61.2745C120.823 60.4194 121.926 60.1436 122.767 60.6539C127.47 63.4534 132.297 66.1702 137.124 68.6939C138.006 69.149 138.337 70.2384 137.882 71.1073C137.565 71.7141 136.944 72.0726 136.296 72.0726H136.282Z" fill="#91CF50"/>
<path d="M158.073 82.4155C157.839 82.4155 157.604 82.3741 157.37 82.2776C153.343 80.5537 149.302 78.7333 145.358 76.844C144.462 76.4165 144.089 75.3408 144.517 74.4582C144.944 73.5618 146.006 73.1895 146.903 73.617C150.792 75.4787 154.791 77.2853 158.763 78.9816C159.673 79.3677 160.1 80.4158 159.714 81.3398C159.425 82.0155 158.763 82.4293 158.059 82.4293L158.073 82.4155Z" fill="#91CF50"/>
<path d="M174.773 88.9523C174.566 88.9523 174.373 88.911 174.166 88.842C171.119 87.7526 168.071 86.6079 165.078 85.4357C164.154 85.0772 163.699 84.0291 164.071 83.1051C164.43 82.1811 165.478 81.726 166.402 82.0983C169.353 83.2568 172.374 84.4014 175.38 85.4771C176.318 85.8081 176.8 86.8424 176.469 87.7663C176.207 88.4973 175.518 88.9523 174.787 88.9523H174.773Z" fill="#91CF50"/>
<path d="M212.546 99.709C212.422 99.709 212.298 99.709 212.16 99.6676C211.029 99.4194 209.899 99.1712 208.782 98.9229C207.816 98.7023 207.209 97.7369 207.43 96.7716C207.651 95.8062 208.602 95.1994 209.581 95.4201C210.698 95.6683 211.816 95.9165 212.933 96.1648C213.898 96.3716 214.519 97.3232 214.312 98.3023C214.132 99.1436 213.388 99.7228 212.56 99.7228L212.546 99.709Z" fill="#91CF50"/>
<path d="M246.594 105.019C246.594 105.019 246.484 105.019 246.415 105.019C241.367 104.522 236.279 103.902 231.273 103.157C230.293 103.005 229.618 102.095 229.769 101.116C229.921 100.137 230.817 99.461 231.81 99.6127C236.747 100.344 241.781 100.964 246.773 101.461C247.752 101.557 248.483 102.44 248.387 103.419C248.29 104.343 247.518 105.032 246.608 105.032L246.594 105.019Z" fill="#91CF50"/>
<path d="M254.153 105.667C254.153 105.667 254.07 105.667 254.015 105.667L251.946 105.515C250.953 105.432 250.222 104.577 250.305 103.584C250.388 102.592 251.243 101.861 252.236 101.943L254.291 102.095C255.284 102.164 256.015 103.019 255.946 104.012C255.877 104.95 255.091 105.681 254.167 105.681L254.153 105.667Z" fill="#91CF50"/>
<path d="M259.655 106.011C259.655 106.011 259.586 106.011 259.558 106.011C258.4 105.942 257.255 105.874 256.097 105.805C255.104 105.736 254.359 104.881 254.428 103.901C254.497 102.909 255.338 102.136 256.331 102.233C257.476 102.302 258.607 102.371 259.751 102.44C260.744 102.495 261.503 103.336 261.448 104.329C261.393 105.281 260.607 106.025 259.655 106.025V106.011Z" fill="#91CF50"/>
<path d="M276.383 106.467C272.632 106.467 268.84 106.398 265.089 106.26C264.096 106.218 263.323 105.391 263.365 104.398C263.406 103.405 264.247 102.591 265.227 102.674C285.072 103.405 305.178 102.164 324.651 99.0195C325.616 98.854 326.54 99.5298 326.706 100.509C326.857 101.488 326.196 102.412 325.216 102.564C309.178 105.156 292.753 106.467 276.37 106.467H276.383Z" fill="#91CF50"/>
<path d="M326.308 102.357C325.453 102.357 324.695 101.736 324.543 100.854C324.377 99.8747 325.039 98.9508 326.019 98.7853L327.37 98.5646C328.349 98.3991 329.273 99.0611 329.439 100.026C329.604 101.006 328.942 101.93 327.977 102.095L326.612 102.329C326.515 102.343 326.418 102.357 326.322 102.357H326.308Z" fill="#91CF50"/>
<path d="M328.346 102.012C327.491 102.012 326.732 101.392 326.58 100.523C326.415 99.5436 327.063 98.6197 328.042 98.4542L329.394 98.2197C330.359 98.0267 331.297 98.6886 331.476 99.6678C331.655 100.647 331.007 101.571 330.028 101.75L328.663 101.985C328.566 101.998 328.456 102.012 328.359 102.012H328.346Z" fill="#91CF50"/>
<path d="M355.929 95.8892C355.142 95.8892 354.425 95.3651 354.205 94.5653C353.943 93.6137 354.508 92.6208 355.46 92.3588L357.446 91.8071C358.411 91.5451 359.39 92.0967 359.652 93.0483C359.914 93.9999 359.362 94.9928 358.411 95.2548C357.749 95.4479 357.073 95.6272 356.411 95.8065C356.246 95.8478 356.094 95.8754 355.942 95.8754L355.929 95.8892Z" fill="#91CF50"/>
<path d="M389.879 84.4152C389.176 84.4152 388.5 83.9877 388.21 83.2981C387.838 82.3879 388.279 81.3398 389.203 80.9675C393.616 79.1747 398.057 77.244 402.401 75.2305C403.297 74.8168 404.359 75.203 404.787 76.0993C405.2 76.9957 404.814 78.0576 403.918 78.4851C399.519 80.5262 395.023 82.4707 390.555 84.2911C390.334 84.3738 390.1 84.429 389.879 84.429V84.4152Z" fill="#91CF50"/>
<path d="M403.783 78.3609C403.108 78.3609 402.46 77.9748 402.156 77.3266C401.742 76.4302 402.129 75.3683 403.025 74.9408C405.521 73.7686 408.017 72.5688 410.431 71.369C411.313 70.9277 412.389 71.2863 412.83 72.1689C413.271 73.0515 412.913 74.1272 412.03 74.5685C409.589 75.7821 407.066 77.0094 404.528 78.1817C404.28 78.292 404.032 78.3472 403.77 78.3472L403.783 78.3609Z" fill="#91CF50"/>
<path d="M427.627 65.9354C427.006 65.9354 426.399 65.6183 426.068 65.039C425.572 64.184 425.861 63.0808 426.73 62.5843L427.916 61.8948C428.771 61.3983 429.861 61.6741 430.371 62.5291C430.867 63.3842 430.592 64.4736 429.737 64.9839L428.537 65.6872C428.247 65.8527 427.944 65.9217 427.64 65.9217L427.627 65.9354Z" fill="#91CF50"/>
<path d="M451.389 50.6278C450.823 50.6278 450.272 50.3658 449.927 49.8693C449.348 49.0694 449.541 47.9386 450.341 47.3732C451.265 46.7112 452.202 46.0493 453.126 45.3735C453.926 44.7943 455.043 44.9598 455.636 45.7597C456.216 46.5595 456.05 47.6766 455.25 48.2696C454.312 48.9453 453.375 49.6211 452.437 50.2968C452.12 50.5175 451.761 50.6278 451.403 50.6278H451.389Z" fill="#91CF50"/>
<path d="M458.614 45.3183C458.076 45.3183 457.538 45.0701 457.18 44.615C456.587 43.8289 456.739 42.6981 457.525 42.1051C470.419 32.3412 482.624 21.4328 493.78 9.72442C494.47 9.0073 495.601 8.97972 496.318 9.65547C497.035 10.345 497.063 11.4758 496.373 12.193C485.078 24.053 472.736 35.0718 459.69 44.9598C459.359 45.208 458.986 45.3183 458.614 45.3183Z" fill="#91CF50"/>
<path d="M495.56 12.2482C495.119 12.2482 494.678 12.0827 494.333 11.7517C493.616 11.0759 493.588 9.93131 494.264 9.21419C496.925 6.41467 499.56 3.51861 502.125 0.608765C502.773 -0.135935 503.904 -0.204889 504.648 0.443276C505.393 1.09144 505.462 2.22228 504.814 2.98077C502.235 5.93199 499.56 8.85563 496.87 11.6965C496.512 12.0689 496.043 12.2619 495.574 12.2619L495.56 12.2482Z" fill="#91CF50"/>
<path d="M141.632 65.5356C141.356 65.5356 141.067 65.4667 140.805 65.3426C136.323 63.0257 131.827 60.5572 127.442 57.9783C126.587 57.4818 126.297 56.3786 126.793 55.5235C127.29 54.6685 128.393 54.3789 129.248 54.8754C133.592 57.4129 138.033 59.8538 142.46 62.1431C143.342 62.5982 143.687 63.6739 143.232 64.5565C142.915 65.1771 142.28 65.5218 141.632 65.5218V65.5356Z" fill="#91CF50"/>
<path d="M162.856 75.4511C162.621 75.4511 162.387 75.4097 162.166 75.3132C155.809 72.6516 149.451 69.7141 143.273 66.5974C142.39 66.1561 142.032 65.0666 142.487 64.184C142.928 63.3014 144.004 62.9429 144.9 63.398C150.996 66.4871 157.284 69.3831 163.559 72.0172C164.469 72.4033 164.897 73.4514 164.524 74.3616C164.235 75.0511 163.573 75.4649 162.87 75.4649L162.856 75.4511Z" fill="#91CF50"/>
<path d="M173.119 79.5333C172.912 79.5333 172.691 79.4919 172.484 79.423L171.188 78.9265C170.264 78.5817 169.795 77.5474 170.154 76.6096C170.512 75.6857 171.547 75.2168 172.471 75.5753L173.753 76.058C174.677 76.4028 175.146 77.4371 174.801 78.3611C174.526 79.0782 173.85 79.5195 173.119 79.5195V79.5333Z" fill="#91CF50"/>
<path d="M210.063 90.6762C209.925 90.6762 209.787 90.6625 209.663 90.6349C207.402 90.1108 205.154 89.573 202.92 88.9938C201.954 88.7455 201.389 87.7664 201.623 86.8148C201.871 85.8495 202.851 85.2841 203.802 85.5185C206.009 86.0839 208.229 86.6218 210.463 87.1458C211.428 87.3665 212.035 88.3318 211.801 89.2972C211.608 90.1246 210.877 90.69 210.049 90.69L210.063 90.6762Z" fill="#91CF50"/>
<path d="M246.084 96.6475C246.084 96.6475 245.96 96.6475 245.904 96.6475C244.291 96.482 242.677 96.3027 241.078 96.1096C240.099 95.9993 239.395 95.1029 239.506 94.1238C239.616 93.1446 240.512 92.4413 241.491 92.5516C243.077 92.7447 244.663 92.9102 246.263 93.0757C247.242 93.1722 247.959 94.0548 247.863 95.0477C247.766 95.9717 246.994 96.6613 246.084 96.6613V96.6475Z" fill="#91CF50"/>
<path d="M257.766 97.613C257.766 97.613 257.697 97.613 257.656 97.613L256.263 97.5164C255.27 97.4475 254.525 96.5925 254.594 95.6133C254.663 94.6204 255.518 93.8895 256.497 93.9446L257.863 94.0274C258.856 94.0825 259.6 94.9376 259.545 95.9305C259.49 96.8821 258.704 97.613 257.752 97.613H257.766Z" fill="#91CF50"/>
<path d="M272.92 98.1784H272.203C271.21 98.1646 270.424 97.3509 270.438 96.358C270.438 95.3789 271.251 94.5928 272.23 94.5928H272.948C273.941 94.6066 274.727 95.4202 274.713 96.4132C274.713 97.3923 273.899 98.1784 272.92 98.1784Z" fill="#91CF50"/>
<path d="M274.99 98.1922H273.598C272.605 98.1784 271.805 97.3647 271.819 96.3718C271.819 95.3926 272.632 94.5928 273.611 94.5928H275.004C275.997 94.6066 276.797 95.4202 276.783 96.3994C276.783 97.3785 275.97 98.1784 274.99 98.1784V98.1922Z" fill="#91CF50"/>
<path d="M277.058 98.1921C276.065 98.1921 275.266 97.3922 275.266 96.3993C275.266 95.4064 276.065 94.6065 277.058 94.6065H279.113C280.106 94.5238 280.906 95.3788 280.92 96.3717C280.92 97.3646 280.134 98.1645 279.141 98.1783H277.058V98.1921Z" fill="#91CF50"/>
<path d="M279.816 98.1784C278.837 98.1784 278.037 97.3924 278.023 96.3994C278.023 95.4065 278.81 94.5928 279.802 94.5928C296.958 94.3998 314.155 92.6897 330.883 89.5316C331.863 89.3523 332.8 89.9867 332.98 90.9659C333.159 91.945 332.524 92.8828 331.545 93.0621C314.597 96.2615 297.206 97.9854 279.83 98.1784H279.816Z" fill="#91CF50"/>
<path d="M383.496 78.0578C382.779 78.0578 382.103 77.6302 381.828 76.9131C381.469 75.9891 381.924 74.9548 382.848 74.5963C383.482 74.348 384.117 74.0998 384.765 73.8378C385.675 73.4654 386.723 73.9205 387.096 74.8307C387.468 75.7547 387.013 76.789 386.103 77.1614C385.455 77.4234 384.82 77.6716 384.172 77.9198C383.951 78.0026 383.731 78.044 383.524 78.044L383.496 78.0578Z" fill="#91CF50"/>
<path d="M386.695 76.7752C385.992 76.7752 385.316 76.3476 385.027 75.6581C384.654 74.7341 385.096 73.6998 386.02 73.3275C386.654 73.0654 387.288 72.8172 387.923 72.5552C388.847 72.169 389.881 72.6104 390.267 73.5205C390.639 74.4307 390.212 75.4788 389.302 75.865C388.654 76.127 388.019 76.389 387.371 76.651C387.15 76.7338 386.93 76.7889 386.695 76.7889V76.7752Z" fill="#91CF50"/>
<path d="M456.915 36.1889C456.377 36.1889 455.853 35.9544 455.495 35.4993C454.888 34.7133 455.026 33.5962 455.812 32.9756C462.266 27.942 468.582 22.5636 474.609 17.0059C475.34 16.3302 476.471 16.3716 477.146 17.1025C477.822 17.8334 477.781 18.9642 477.05 19.64C470.954 25.2804 464.555 30.7139 458.032 35.8165C457.701 36.0648 457.315 36.1889 456.929 36.1889H456.915Z" fill="#91CF50"/>
<path d="M163.052 66.5424C162.817 66.5424 162.569 66.4872 162.334 66.3907C153.246 62.4603 144.269 57.9921 135.622 53.124C134.753 52.6413 134.45 51.538 134.932 50.683C135.415 49.8142 136.504 49.5108 137.373 49.9935C145.91 54.7926 154.777 59.2057 163.755 63.0947C164.665 63.4946 165.079 64.5427 164.693 65.4529C164.403 66.1286 163.741 66.5286 163.052 66.5286V66.5424Z" fill="#91CF50"/>
<path d="M204.076 80.6779C203.924 80.6779 203.773 80.6641 203.621 80.6227L202.945 80.4435C201.994 80.1952 201.414 79.2023 201.676 78.2507C201.925 77.2992 202.918 76.72 203.869 76.982L204.531 77.1475C205.483 77.3957 206.062 78.3749 205.814 79.3402C205.607 80.1401 204.876 80.6779 204.076 80.6779Z" fill="#91CF50"/>
<path d="M212.794 82.8154C212.656 82.8154 212.532 82.8154 212.394 82.7741C209.719 82.1673 207.002 81.5053 204.299 80.8158C203.347 80.5675 202.768 79.5884 203.016 78.6368C203.265 77.6853 204.244 77.1061 205.195 77.3543C207.857 78.0438 210.546 78.692 213.18 79.2988C214.146 79.5195 214.752 80.4848 214.532 81.4502C214.339 82.2776 213.608 82.843 212.78 82.843L212.794 82.8154Z" fill="#91CF50"/>
<path d="M292.932 89.4488C291.995 89.4488 291.195 88.7179 291.14 87.7526C291.084 86.7597 291.843 85.9184 292.822 85.8633C294.656 85.7529 296.477 85.6426 298.297 85.5047C299.304 85.4219 300.145 86.1667 300.228 87.1596C300.297 88.1525 299.566 89.0075 298.573 89.0903C296.725 89.2282 294.891 89.3523 293.029 89.4626C292.988 89.4626 292.96 89.4626 292.919 89.4626L292.932 89.4488Z" fill="#91CF50"/>
<path d="M299.125 89.0213C298.201 89.0213 297.415 88.318 297.346 87.3802C297.263 86.3873 297.994 85.5322 298.987 85.4495L299.677 85.3943C300.67 85.3116 301.525 86.0425 301.608 87.0354C301.69 88.0146 300.959 88.8834 299.966 88.9661L299.277 89.0213C299.277 89.0213 299.18 89.0213 299.125 89.0213Z" fill="#91CF50"/>
<path d="M300.49 88.9108C299.566 88.9108 298.78 88.2075 298.711 87.2697C298.629 86.2768 299.36 85.4218 300.353 85.339C309.675 84.5529 319.039 83.3118 328.182 81.6155C329.148 81.4362 330.085 82.0844 330.265 83.0497C330.444 84.0289 329.796 84.9529 328.83 85.1321C319.563 86.8422 310.075 88.111 300.642 88.897C300.587 88.897 300.546 88.897 300.49 88.897V88.9108Z" fill="#91CF50"/>
<path d="M329.174 85.0495C328.333 85.0495 327.575 84.4427 327.409 83.5877C327.23 82.6086 327.864 81.6846 328.843 81.4915L330.195 81.2295C331.174 81.0364 332.112 81.6846 332.291 82.65C332.47 83.6291 331.836 84.5669 330.871 84.7461L329.505 85.0082C329.395 85.0357 329.285 85.0357 329.174 85.0357V85.0495Z" fill="#91CF50"/>
<path d="M369.155 74.5135C368.411 74.5135 367.721 74.0446 367.459 73.2999C367.142 72.3621 367.638 71.3416 368.576 71.0244C369.224 70.8038 369.872 70.5693 370.521 70.3487C371.445 70.0315 372.479 70.5142 372.81 71.4381C373.141 72.3759 372.644 73.3964 371.72 73.7274C371.072 73.9619 370.41 74.1825 369.748 74.4169C369.555 74.4859 369.362 74.5135 369.169 74.5135H369.155Z" fill="#91CF50"/>
<path d="M372.408 73.3687C371.677 73.3687 370.987 72.9136 370.725 72.1827C370.394 71.245 370.877 70.2244 371.815 69.8935C376.09 68.3627 380.393 66.7078 384.599 64.9702C385.509 64.584 386.557 65.0253 386.943 65.9355C387.316 66.8457 386.888 67.8938 385.964 68.2799C381.703 70.0452 377.345 71.7138 373.015 73.2584C372.822 73.3274 372.615 73.3687 372.408 73.3687Z" fill="#91CF50"/>
<path d="M161.824 56.9302C161.575 56.9302 161.327 56.8751 161.079 56.7647C155.838 54.3789 150.598 51.8001 145.523 49.0971C144.654 48.6282 144.323 47.5525 144.778 46.6699C145.247 45.8011 146.323 45.4701 147.205 45.9252C152.225 48.6006 157.397 51.1381 162.568 53.4963C163.465 53.9101 163.865 54.9719 163.465 55.8683C163.161 56.5303 162.513 56.9164 161.837 56.9164L161.824 56.9302Z" fill="#91CF50"/>
<path d="M224.102 76.7199C223.992 76.7199 223.882 76.7199 223.758 76.6923C219.234 75.8235 214.669 74.8444 210.201 73.7549C209.236 73.5205 208.643 72.5551 208.877 71.5897C209.112 70.6244 210.077 70.0314 211.043 70.2796C215.456 71.3553 219.965 72.3345 224.433 73.1757C225.412 73.355 226.047 74.3065 225.854 75.2719C225.688 76.1269 224.944 76.7337 224.089 76.7337L224.102 76.7199Z" fill="#91CF50"/>
<path d="M297.551 80.8433C296.627 80.8433 295.841 80.1262 295.772 79.1884C295.703 78.1955 296.434 77.3405 297.427 77.2715C298.117 77.2163 298.792 77.1612 299.482 77.106C300.475 76.9957 301.33 77.7542 301.412 78.7471C301.495 79.74 300.764 80.5951 299.771 80.6778C299.082 80.733 298.392 80.7881 297.689 80.8433C297.648 80.8433 297.592 80.8433 297.551 80.8433Z" fill="#91CF50"/>
<path d="M308.531 79.7953C307.634 79.7953 306.862 79.1196 306.752 78.2094C306.641 77.2302 307.345 76.3338 308.324 76.2235C310.599 75.9615 312.861 75.6719 315.123 75.3547C316.102 75.2168 317.012 75.8925 317.15 76.8855C317.288 77.8646 316.598 78.7748 315.619 78.9127C313.33 79.2299 311.041 79.5333 308.737 79.7953C308.669 79.7953 308.6 79.7953 308.531 79.7953Z" fill="#91CF50"/>
<path d="M451.401 19.4194C450.877 19.4194 450.367 19.1987 450.008 18.7574C449.387 17.9851 449.498 16.8543 450.27 16.2337C452.035 14.7857 453.787 13.3239 455.524 11.8345C456.283 11.1863 457.414 11.269 458.048 12.0275C458.696 12.7722 458.613 13.9169 457.855 14.5512C456.104 16.0544 454.325 17.5438 452.532 19.0057C452.201 19.2815 451.801 19.4056 451.401 19.4056V19.4194Z" fill="#91CF50"/>
<path d="M158.526 46.2425C158.264 46.2425 157.988 46.1873 157.74 46.0632C156.706 45.5529 155.658 45.0427 154.637 44.5186C153.755 44.0773 153.396 42.9878 153.837 42.1052C154.279 41.2226 155.354 40.8641 156.251 41.3054C157.271 41.8156 158.292 42.3259 159.312 42.8224C160.209 43.2637 160.567 44.3255 160.14 45.2219C159.822 45.8563 159.188 46.2287 158.526 46.2287V46.2425Z" fill="#91CF50"/>
<path d="M160.404 47.1388C160.142 47.1388 159.88 47.0836 159.631 46.9595L158.376 46.3527C157.48 45.9252 157.108 44.8495 157.549 43.9531C157.977 43.0567 159.052 42.6981 159.949 43.1256L161.19 43.7186C162.086 44.1462 162.459 45.2218 162.031 46.1182C161.728 46.7526 161.079 47.1388 160.418 47.1388H160.404Z" fill="#91CF50"/>
<path d="M253.035 72.3758C253.035 72.3758 252.925 72.3758 252.883 72.3758C243.437 71.5622 233.963 70.2382 224.709 68.4592C223.73 68.2662 223.095 67.3284 223.289 66.363C223.482 65.3977 224.433 64.7633 225.385 64.9426C234.514 66.7078 243.864 68.0041 253.187 68.8178C254.18 68.9005 254.911 69.7694 254.814 70.7623C254.731 71.7001 253.945 72.4034 253.035 72.4034V72.3758Z" fill="#91CF50"/>
<path d="M304.667 71.9069C303.757 71.9069 302.985 71.2173 302.888 70.3072C302.778 69.328 303.495 68.4454 304.488 68.3351C307.66 68.0041 310.873 67.6042 314.003 67.1629C314.983 67.025 315.893 67.7007 316.031 68.6936C316.169 69.6728 315.493 70.583 314.5 70.7209C311.314 71.176 308.073 71.5621 304.86 71.9069C304.791 71.9069 304.736 71.9069 304.667 71.9069Z" fill="#91CF50"/>
<path d="M297.744 64.2256C296.82 64.2256 296.034 63.5223 295.965 62.5845C295.883 61.5916 296.627 60.7366 297.606 60.6538C300.558 60.4194 303.536 60.116 306.46 59.785C307.439 59.6747 308.336 60.378 308.446 61.3572C308.556 62.3363 307.853 63.2327 306.874 63.343C303.909 63.6878 300.889 63.9774 297.896 64.2256C297.841 64.2256 297.799 64.2256 297.744 64.2256Z" fill="#91CF50"/>
<path d="M308.033 63.1913C307.137 63.1913 306.365 62.5294 306.254 61.6192C306.13 60.64 306.834 59.7436 307.813 59.6195L308.502 59.5368C309.481 59.3989 310.378 60.116 310.502 61.0951C310.626 62.0743 309.923 62.9707 308.944 63.0948L308.254 63.1775C308.185 63.1775 308.102 63.1775 308.033 63.1775V63.1913Z" fill="#91CF50"/>
<path d="M293.856 56.2269C292.918 56.2269 292.132 55.496 292.063 54.5582C291.994 53.5653 292.739 52.7102 293.732 52.6413C296.697 52.4344 299.689 52.1862 302.599 51.8828C303.592 51.7725 304.461 52.4896 304.571 53.4825C304.668 54.4617 303.964 55.3443 302.972 55.4546C300.02 55.758 296.986 56.02 293.98 56.2269C293.939 56.2269 293.897 56.2269 293.856 56.2269Z" fill="#91CF50"/>
<path d="M280.494 48.518C279.515 48.518 278.715 47.7319 278.701 46.7527C278.688 45.7598 279.474 44.9462 280.467 44.9324C281.156 44.9324 281.832 44.9048 282.521 44.891C283.528 44.891 284.328 45.6495 284.356 46.6424C284.383 47.6354 283.597 48.449 282.604 48.4766C281.915 48.4904 281.211 48.5042 280.522 48.518H280.494Z" fill="#91CF50"/>
<path d="M257.477 39.5262C257.477 39.5262 257.381 39.5262 257.339 39.5262L255.96 39.4159C254.967 39.3331 254.236 38.4643 254.333 37.4714C254.416 36.4784 255.284 35.7475 256.277 35.8441L257.643 35.9544C258.636 36.0371 259.366 36.8922 259.284 37.8851C259.215 38.8229 258.429 39.54 257.505 39.54L257.477 39.5262Z" fill="#91CF50"/>
<path d="M268.48 40.1469C268.48 40.1469 268.438 40.1469 268.425 40.1469C265.653 40.0504 262.853 39.9125 260.095 39.7332C259.102 39.6642 258.357 38.8092 258.426 37.8301C258.495 36.8371 259.364 36.1062 260.329 36.1614C263.032 36.3407 265.791 36.4786 268.535 36.5751C269.528 36.6027 270.3 37.4301 270.273 38.4231C270.245 39.3884 269.445 40.1607 268.48 40.1607V40.1469Z" fill="#91CF50"/>
<path d="M254.138 30.9209C254.138 30.9209 254.028 30.9209 253.959 30.9209C251.173 30.6451 248.387 30.3279 245.67 29.9694C244.691 29.8452 244.002 28.9351 244.126 27.9559C244.264 26.9768 245.146 26.2872 246.139 26.4114C248.801 26.7699 251.545 27.0871 254.29 27.3491C255.269 27.4457 256 28.3283 255.903 29.3074C255.807 30.2314 255.034 30.9209 254.124 30.9209H254.138Z" fill="#91CF50"/>
<path d="M258.95 31.3346C258.95 31.3346 258.867 31.3346 258.812 31.3346L257.419 31.2243C256.426 31.1416 255.695 30.2727 255.778 29.2936C255.861 28.3007 256.716 27.5698 257.709 27.6525L259.074 27.7628C260.067 27.8318 260.798 28.7006 260.729 29.6797C260.66 30.6175 259.874 31.3484 258.95 31.3484V31.3346Z" fill="#91CF50"/>
<path d="M263.764 31.6518C263.764 31.6518 263.696 31.6518 263.668 31.6518C262.275 31.5828 260.896 31.4863 259.503 31.3897C258.51 31.3208 257.779 30.4658 257.848 29.4728C257.917 28.4799 258.758 27.7352 259.765 27.8179C261.13 27.9145 262.496 28.011 263.861 28.08C264.854 28.1351 265.612 28.9763 265.557 29.9693C265.502 30.9208 264.716 31.6655 263.764 31.6655V31.6518Z" fill="#91CF50"/>
</g>
<path d="M372.258 95.5566H358.007C353.567 89.9329 347.643 85.6691 340.907 83.2494C334.171 80.8297 326.893 80.351 319.9 81.8675C312.906 83.384 306.477 86.8351 301.341 91.829C296.206 96.8228 292.571 103.159 290.848 110.12C288.635 102.167 283.883 95.1608 277.318 90.1729C270.754 85.1851 262.739 82.4908 254.502 82.5026H217V120.191C216.991 125.825 218.245 131.39 220.669 136.474C223.093 141.557 226.626 146.03 231.006 149.562C231.282 165.231 237.662 180.17 248.784 191.185C259.906 202.201 274.886 208.419 290.523 208.511C306.16 208.603 321.212 202.56 332.461 191.676C343.711 180.791 350.266 165.928 350.724 150.264C357.082 145.619 361.845 139.111 364.354 131.637C366.863 124.163 366.994 116.092 364.73 108.54L368.232 102.645L372.258 95.5566Z" fill="#2D2A26"/>
<path d="M263.68 124.612L254.05 114.961V93.2748H254.506C257.599 93.2855 260.667 93.8316 263.575 94.889L263.68 124.612ZM227.719 97.942V112.996H242.74L227.719 97.942ZM247.502 93.2748H232.411L247.502 108.329V93.2748ZM249.428 119.629H227.719V120.19C227.732 123.301 228.277 126.387 229.329 129.314H259.023L249.428 119.629ZM232.901 135.911C234.999 138.861 237.672 141.354 240.759 143.239C243.846 145.123 247.282 146.361 250.86 146.876C254.438 147.391 258.083 147.173 261.575 146.235C265.066 145.297 268.331 143.66 271.173 141.42L265.675 135.911H232.901ZM270.368 98.3631V131.244L275.795 136.753C278.016 133.897 279.639 130.621 280.567 127.121C281.494 123.622 281.708 119.971 281.195 116.386C280.682 112.802 279.452 109.358 277.579 106.261C275.707 103.165 273.23 100.478 270.298 98.3631H270.368Z" fill="#A2D45E"/>
<path d="M328.032 147.035C322.575 147.035 317.241 145.413 312.703 142.375C308.165 139.336 304.629 135.018 302.541 129.965C300.452 124.912 299.906 119.352 300.97 113.988C302.035 108.624 304.663 103.697 308.522 99.8299C312.381 95.9627 317.297 93.3291 322.649 92.2621C328.002 91.1952 333.55 91.7428 338.591 93.8357C343.633 95.9286 347.943 99.4728 350.974 104.02C354.006 108.568 355.625 113.914 355.625 119.383C355.615 126.714 352.705 133.742 347.533 138.926C342.36 144.109 335.347 147.026 328.032 147.035ZM290.951 197.567C279.22 197.55 267.879 193.338 258.97 185.69C250.061 178.041 244.167 167.458 242.35 155.843C247.268 157.531 252.482 158.181 257.664 157.751C262.845 157.322 267.882 155.822 272.457 153.347C277.032 150.871 281.046 147.474 284.247 143.368C287.448 139.262 289.766 134.537 291.056 129.489C292.408 134.474 294.75 139.134 297.941 143.191C301.133 147.248 305.108 150.617 309.63 153.097C314.151 155.577 319.126 157.118 324.255 157.626C329.385 158.134 334.564 157.599 339.482 156.053C337.628 167.621 331.727 178.15 322.836 185.756C313.944 193.362 302.641 197.548 290.951 197.567Z" fill="#F3BD48"/>
<path d="M340.921 102.434C338.948 101.892 336.86 101.95 334.92 102.599C332.98 103.249 331.276 104.461 330.025 106.081C328.773 107.702 328.029 109.659 327.888 111.704C327.747 113.749 328.215 115.789 329.232 117.567C330.249 119.346 331.77 120.781 333.603 121.692C335.435 122.603 337.496 122.948 339.524 122.684C341.552 122.42 343.456 121.558 344.995 120.208C346.534 118.859 347.639 117.081 348.169 115.102C348.877 112.459 348.512 109.642 347.154 107.269C345.796 104.895 343.555 103.156 340.921 102.434Z" fill="#2D2A26"/>
</svg>
