<svg id="wildberries" width="41" height="41" viewBox="0 0 41 41" fill="none" xmlns="http://www.w3.org/2000/svg">
<g clip-path="url(#clip0_964_3422)">
<rect x="0.753906" y="0.685913" width="39.369" height="39.369" rx="19.6845" fill="#511E75"/>
<path fill-rule="evenodd" clip-rule="evenodd" d="M12.2328 0.698828H12.9139C14.2875 0.792369 15.5706 1.41768 16.4906 2.44196C17.1278 3.15642 17.5579 4.03128 17.7345 4.9722C17.911 5.91312 17.8274 6.88439 17.4926 7.78126C17.1577 8.67814 16.5844 9.4666 15.8344 10.0616C15.0844 10.6566 14.1862 11.0356 13.2367 11.1576C12.1676 11.2946 11.0823 11.0996 10.1278 10.5989C9.17333 10.0983 8.39586 9.31631 7.90078 8.35894C7.41024 7.40412 7.22194 6.32261 7.3609 5.2582C7.49987 4.19378 7.95951 3.19687 8.67874 2.39999C9.59809 1.39355 10.8697 0.779728 12.2296 0.685913L12.2328 0.698828ZM132.38 0.698828H133.08C134.382 0.783568 135.606 1.34856 136.515 2.28431C137.424 3.22006 137.953 4.45993 138 5.7636V6.16065C137.984 6.39307 137.961 6.62871 137.922 6.86113C137.773 7.71518 137.415 8.51909 136.88 9.20136C136.345 9.88363 135.65 10.4231 134.856 10.7719C134.062 11.1206 133.194 11.2678 132.33 11.2003C131.466 11.1329 130.631 10.8528 129.901 10.3852C129.171 9.91747 128.568 9.27663 128.145 8.51961C127.723 7.76259 127.494 6.91285 127.479 6.04596C127.463 5.17908 127.663 4.32191 128.059 3.55067C128.455 2.77943 129.036 2.11802 129.749 1.62527C130.532 1.08594 131.445 0.766053 132.393 0.698828H132.38ZM111.162 3.43942C111.531 3.0698 112.003 2.81856 112.515 2.71772C113.028 2.61689 113.559 2.67104 114.041 2.87326C114.523 3.07549 114.934 3.41663 115.221 3.85319C115.508 4.28975 115.659 4.80195 115.654 5.32449C115.649 5.84702 115.488 6.35622 115.193 6.78717C114.897 7.21811 114.48 7.55126 113.994 7.74416C113.508 7.93705 112.976 7.98095 112.466 7.87025C111.955 7.75955 111.489 7.49927 111.127 7.1226C110.835 6.81454 110.62 6.44174 110.5 6.03475C110.372 5.58427 110.366 5.10778 110.482 4.65403C110.598 4.20028 110.833 3.78557 111.162 3.45233V3.43942ZM23.6826 5.27294C25.7425 4.12078 28.1381 3.7181 30.4615 4.13345C32.1412 4.43135 33.7182 5.14986 35.0452 6.22197C36.524 7.41175 37.6418 8.99014 38.2733 10.78C38.907 12.6002 39.0188 14.5614 38.5961 16.4419C38.086 18.6559 36.8497 20.6354 35.084 22.0651L34.8734 17.0897L32.4499 15.6381C32.4499 20.265 32.4499 24.8918 32.4499 29.5186H39.3579C39.0772 30.662 38.4212 31.6781 37.4948 32.4046C36.5685 33.1311 35.4252 33.5259 34.2479 33.5259C33.0707 33.5259 31.9274 33.1311 31.001 32.4046C30.0746 31.6781 29.4186 30.662 29.138 29.5186H29.4091C29.4091 28.4082 29.4091 27.301 29.4091 26.1905C29.6776 25.5518 30.0729 24.9741 30.5712 24.4926C30.7229 24.3473 30.894 24.2214 31.036 24.0697C30.5031 24.1797 29.9642 24.2583 29.422 24.3054V15.6381C28.586 15.6381 27.7467 15.6381 26.9074 15.6381C26.9074 18.4852 26.9074 21.3302 26.9074 24.173C25.6226 23.9456 24.3926 23.4768 23.2823 22.7914C23.9279 20.407 24.5649 18.0215 25.1933 15.6349C24.4541 15.6349 23.7149 15.6349 22.9757 15.6349C22.4807 17.5459 21.9836 19.4558 21.4843 21.3646C20.9067 20.7779 20.3967 20.1282 19.9639 19.4278C19.2546 18.2585 18.7879 16.9585 18.5915 15.605C18.3952 14.2515 18.4734 12.8724 18.8213 11.5498C19.1692 10.2272 19.7797 8.98809 20.6166 7.90639C21.4534 6.8247 22.4994 5.9225 23.6923 5.25357L23.6826 5.27294ZM99.1861 4.10117C100.956 3.8035 102.773 3.97871 104.453 4.60906C106.133 5.2394 107.617 6.30251 108.754 7.69073C107.736 8.93017 107.026 10.394 106.685 11.9614C106.443 13.0733 106.387 14.2175 106.52 15.3476C106.583 15.9499 106.713 16.5433 106.908 17.1166C106.908 18.8629 106.908 20.6093 106.908 22.3556C106.775 22.4396 106.649 22.53 106.523 22.6204C105.245 23.462 103.797 24.0129 102.282 24.2344C102.172 23.9471 102.049 23.663 101.959 23.3725C102.739 23.1069 103.408 22.5872 103.858 21.8967C104.308 21.2061 104.513 20.3845 104.441 19.5634C104.459 18.6512 104.144 17.7639 103.554 17.0675C102.965 16.3712 102.142 15.9135 101.239 15.7802C100.324 15.6371 99.3975 15.5873 98.4727 15.6317H93.5597C93.5597 20.1703 93.5597 24.7089 93.5597 29.2475C92.7889 28.6976 92.1802 27.9506 91.7971 27.0847C91.3375 26.0202 91.2367 24.8351 91.5099 23.7082C91.7821 22.6105 92.4 21.6293 93.2724 20.9095C92.2042 19.7071 91.4354 18.2692 91.0289 16.7131C90.5586 14.888 90.5965 12.9691 91.1386 11.1641C91.1903 10.993 91.2452 10.8251 91.3065 10.6573C91.9248 8.96652 92.9794 7.46943 94.3633 6.31798C95.7472 5.16654 97.4111 4.40172 99.1861 4.10117ZM61.3214 7.8489C62.3407 7.31144 63.5082 7.12343 64.6447 7.31377C65.7811 7.5041 66.8237 8.06225 67.6123 8.90249C68.4008 9.74273 68.8917 10.8186 69.0096 11.9649C69.1275 13.1111 68.8659 14.2644 68.2648 15.2475C67.9174 15.8083 67.4737 16.3033 66.9543 16.7098C67.5632 17.1075 68.1309 17.5649 68.649 18.0753C68.7749 18.2044 68.904 18.3368 69.0331 18.4627C69.0331 22.1458 69.0331 25.829 69.0331 29.5122H70.744C69.9216 31.321 68.5878 32.8496 66.9072 33.9096C65.2266 34.9696 63.2725 35.5146 61.2859 35.4776C59.2993 35.4405 57.3669 34.823 55.727 33.701C54.0871 32.5791 52.8113 31.0018 52.0569 29.1636C51.17 29.4775 50.2302 29.6146 49.2905 29.5671C49.0074 29.5668 48.7257 29.5255 48.4545 29.4444C49.687 29.3345 50.8565 28.8505 51.8062 28.0571C52.7558 27.2638 53.4403 26.1992 53.7678 25.0059C54.1269 23.7759 54.2096 22.4818 54.0099 21.2162C53.7746 19.5198 52.9175 17.9714 51.605 16.8712C50.9445 16.3419 50.1715 15.9709 49.3454 15.7866C50.8279 15.715 52.294 16.1237 53.5257 16.9519C53.9049 17.209 54.2594 17.5007 54.5845 17.8235C55.1476 17.3048 55.7657 16.8491 56.4277 16.4645C56.4277 20.8127 56.4277 25.1608 56.4277 29.5122H62.4092C63.2717 29.5458 64.1299 29.3755 64.9142 29.0151C65.712 28.5863 66.3117 27.8639 66.5863 27.0008C66.8239 26.2434 66.8418 25.4341 66.6379 24.6669C66.4118 23.8583 65.8743 23.1723 65.1434 22.7592C64.7403 22.5415 64.304 22.392 63.8521 22.3169C64.1537 22.2419 64.446 22.1337 64.7237 21.9941C65.1472 21.7674 65.5101 21.4425 65.782 21.0465C66.0538 20.6505 66.2267 20.195 66.2861 19.7184C66.4 18.9002 66.2375 18.0675 65.8245 17.3522C65.4492 16.6975 64.8564 16.1949 64.1491 15.9319C63.1452 15.6091 62.0767 15.6284 61.0373 15.6317C60.1238 15.6317 59.2102 15.6317 58.2967 15.6317C58.6382 15.5142 58.9863 15.4172 59.3394 15.3411C58.6186 14.1981 58.359 12.8238 58.6131 11.4966C58.7637 10.7246 59.0851 9.99609 59.5537 9.36439C60.0223 8.73269 60.6263 8.2138 61.3214 7.84568V7.8489ZM126.695 12.5554C128.103 12.4026 129.526 12.5449 130.876 12.9732C132.225 13.4015 133.47 14.1063 134.532 15.0428C135.593 15.9792 136.448 17.1267 137.041 18.4119C137.634 19.6972 137.953 21.092 137.977 22.5074V22.8463C137.949 24.5716 137.483 26.2615 136.623 27.7574C135.763 29.2533 134.537 30.5062 133.06 31.3984C131.583 32.2906 129.904 32.793 128.18 32.8583C126.455 32.9236 124.743 32.5497 123.203 31.7718C122.083 31.211 121.079 30.4445 120.243 29.5122H121.472C121.472 28.7859 121.472 28.0628 121.472 27.3397H118.725C118.237 26.3742 117.901 25.3385 117.731 24.2699C119.276 24.1033 120.763 23.5843 122.076 22.7527C122.573 22.4285 123.048 22.0727 123.5 21.6874C123.816 22.2049 124.284 22.6128 124.839 22.856C125.38 23.0971 125.942 23.2862 126.518 23.4209L128.855 24.0278C129.346 24.1204 129.808 24.3247 130.207 24.625C130.464 24.886 130.63 25.2231 130.68 25.5861C130.73 25.949 130.662 26.3184 130.485 26.6392C130.223 27.0372 129.834 27.3352 129.381 27.485C128.913 27.6356 128.423 27.7054 127.932 27.6916C127.156 27.7297 126.384 27.5615 125.695 27.2041C125.411 27.0362 125.167 26.8097 124.978 26.5397C124.789 26.2697 124.661 25.9624 124.6 25.6386C123.784 25.8 122.986 25.984 122.16 26.1518C122.327 26.8033 122.638 27.409 123.07 27.924C123.538 28.4523 124.121 28.8655 124.775 29.1313C125.899 29.5927 127.113 29.7893 128.325 29.7059C129.269 29.678 130.195 29.4502 131.043 29.0377C131.835 28.6829 132.489 28.0779 132.903 27.3157C133.318 26.5535 133.471 25.6762 133.339 24.8186C133.249 24.0651 132.941 23.354 132.454 22.7721C131.832 22.1665 131.058 21.7395 130.214 21.5357C129.53 21.342 128.839 21.1871 128.154 21.0096C127.532 20.8907 126.926 20.6978 126.35 20.435C126.1 20.3253 125.887 20.1475 125.734 19.9219C125.581 19.6964 125.495 19.4323 125.485 19.1599C125.632 18.942 125.759 18.7107 125.863 18.4691C125.947 18.3081 126.013 18.1381 126.059 17.9623C126.627 17.6063 127.287 17.427 127.957 17.4471C128.626 17.4673 129.275 17.6859 129.82 18.0753C130.096 18.3338 130.303 18.6565 130.424 19.0146C131.221 18.8242 132.038 18.6273 132.816 18.4239C132.591 17.5927 132.068 16.8733 131.347 16.4032C129.967 15.5538 128.326 15.2328 126.728 15.4993C126.861 14.5219 126.852 13.5303 126.702 12.5554H126.695ZM45.3168 17.6169V27.4462H46.679C47.1641 27.4695 47.6503 27.449 48.1317 27.3849C48.7632 27.2559 49.3525 26.9714 49.8463 26.5571C50.3401 26.1428 50.7227 25.6118 50.9594 25.0123C51.2747 24.1735 51.4196 23.2802 51.3855 22.3847C51.4134 21.1734 51.0513 19.9852 50.3525 18.9953C50.0567 18.5653 49.6596 18.2147 49.1963 17.9743C48.733 17.734 48.2178 17.6112 47.6959 17.6169H45.3168ZM58.7874 17.6169C58.7874 18.8888 58.7874 20.1606 58.7874 21.4324C59.7558 21.4486 60.7468 21.4324 61.7281 21.4324C62.0764 21.4485 62.4242 21.3902 62.7482 21.2614C63.0248 21.1378 63.2667 20.948 63.4525 20.7087C63.6383 20.4694 63.7623 20.1881 63.8134 19.8894C63.901 19.4483 63.8515 18.991 63.6714 18.5789C63.448 18.1824 63.0822 17.8858 62.6481 17.7493C62.2747 17.6273 61.8809 17.5801 61.4892 17.6105L58.7874 17.6169ZM96.0743 17.6169C96.0743 19.0007 96.0743 20.3855 96.0743 21.7714C97.1008 21.7714 98.1273 21.7714 99.1538 21.7714C99.6225 21.7858 100.09 21.7181 100.535 21.5712C100.896 21.45 101.212 21.2255 101.446 20.9256C101.776 20.4571 101.907 19.8767 101.81 19.3116C101.742 18.8548 101.504 18.4407 101.142 18.1528C100.736 17.8455 100.247 17.6678 99.7381 17.6427C98.5179 17.6169 97.2977 17.6427 96.0743 17.6427V17.6169ZM35.0646 23.0432V27.2074H39.3902C39.2346 26.4312 38.9063 25.7 38.4296 25.068C37.953 24.436 37.3402 23.9194 36.6367 23.5565C36.1434 23.3025 35.6127 23.1292 35.0646 23.0432ZM58.7777 23.4209V27.3881H62.1025C62.6707 27.401 63.2227 27.1993 63.6488 26.8232C63.9447 26.5427 64.1351 26.1688 64.1879 25.7644C64.2374 25.5132 64.2366 25.2545 64.1856 25.0036C64.1345 24.7526 64.0342 24.5142 63.8904 24.3022C63.7466 24.0903 63.5622 23.909 63.3478 23.7688C63.1335 23.6286 62.8935 23.5323 62.6416 23.4855C62.1919 23.4187 61.7366 23.3971 61.2826 23.4209H58.7777ZM96.0646 23.7824C96.0646 25.6837 96.0646 27.5851 96.0646 29.4864H93.989L94.2117 29.651C95.3761 29.4064 96.5891 29.5634 97.6528 30.0965C98.5863 29.9226 99.4521 29.4897 100.151 28.8472C100.5 28.523 100.811 28.1602 101.078 27.7658C100.574 26.4359 100.072 25.1081 99.5702 23.7824H96.0646ZM90.7932 28.9085C90.8707 29.1087 90.9546 29.3088 91.0289 29.5122H89.0243C88.7267 29.764 88.4881 30.0781 88.3252 30.4323C88.1623 30.7865 88.0792 31.1721 88.0817 31.562C88.0841 31.9775 88.1848 32.3865 88.3756 32.7557C88.5663 33.1249 88.8417 33.4436 89.1792 33.686C89.4573 33.8808 89.7693 34.022 90.0992 34.1024C90.4578 34.1887 90.8305 34.1987 91.1932 34.1318C91.5559 34.0649 91.9005 33.9226 92.2047 33.7141C92.5089 33.5056 92.766 33.2355 92.9592 32.9213C93.1524 32.6071 93.2775 32.2559 93.3263 31.8903C93.3752 31.5248 93.3467 31.153 93.2428 30.7991C93.1388 30.4453 92.9617 30.1172 92.7229 29.8361C92.4841 29.555 92.189 29.3272 91.8566 29.1674C91.5242 29.0076 91.1619 28.9194 90.7932 28.9085ZM44.0999 35.0418C43.8395 35.3394 43.6494 35.6918 43.5439 36.0729C43.4383 36.4539 43.4198 36.8539 43.4899 37.2431C43.56 37.6322 43.7168 38.0006 43.9487 38.3209C44.1806 38.6412 44.4816 38.9052 44.8294 39.0933C45.1773 39.2814 45.563 39.3887 45.958 39.4074C46.353 39.426 46.7471 39.3555 47.1111 39.2011C47.4751 39.0466 47.7997 38.8122 48.0607 38.5152C48.3218 38.2182 48.5126 37.8662 48.6191 37.4854C48.7433 37.0519 48.7433 36.5922 48.6191 36.1587C48.4755 35.5624 48.1269 35.0355 47.6342 34.6703C47.1414 34.305 46.536 34.1246 45.9237 34.1605C45.2202 34.2011 44.5613 34.5179 44.0902 35.0418H44.0999Z" fill="#EC208B"/>
<circle cx="34.5461" cy="27.9161" r="4.92112" fill="#EC208B"/>
<ellipse cx="31.9212" cy="19.0581" rx="4.26497" ry="4.59305" fill="#EC208B"/>
<path fill-rule="evenodd" clip-rule="evenodd" d="M56.6546 2.70992C57.0085 2.63277 57.3744 2.62906 57.7298 2.69902C58.0851 2.76898 58.4223 2.91112 58.7205 3.11664C59.0971 3.37522 59.3999 3.72727 59.5993 4.13824C59.7987 4.5492 59.8878 5.00496 59.8578 5.46075C59.8279 5.91655 59.6799 6.35674 59.4285 6.73807C59.177 7.11941 58.8307 7.4288 58.4236 7.63588C58.0904 7.80665 57.7247 7.90445 57.3508 7.92276C56.9769 7.94106 56.6033 7.87944 56.2551 7.74202C55.9069 7.60459 55.5919 7.39453 55.3313 7.12581C55.0706 6.85709 54.8702 6.5359 54.7435 6.18364C54.6167 5.83139 54.5665 5.45615 54.5962 5.08296C54.6259 4.70978 54.7348 4.3472 54.9156 4.01941C55.0965 3.69162 55.3451 3.40615 55.645 3.18202C55.9448 2.95788 56.289 2.80024 56.6546 2.7196V2.70992ZM3.2792 11.3513C4.51485 9.94412 6.11416 8.90435 7.90173 8.34605C8.39681 9.30343 9.17428 10.0854 10.1288 10.5861C11.0833 11.0867 12.1686 11.2817 13.2377 11.1447C14.4644 10.9892 15.597 10.4063 16.4366 9.49846C17.3235 10.0749 18.1189 10.7811 18.7963 11.5934C18.4584 12.9095 18.3866 14.2797 18.585 15.6239C18.7834 16.9681 19.2482 18.2591 19.952 19.4214C19.5484 19.5634 19.1417 19.699 18.7479 19.8636C18.3605 18.4498 17.9742 17.037 17.589 15.6252C16.7401 15.6252 15.8943 15.6252 15.0454 15.6252C14.3847 18.311 13.7208 21.001 13.0537 23.6953C12.7121 23.6339 12.3623 23.6339 12.0207 23.6953C11.3084 21.0096 10.5961 18.3196 9.88374 15.6252H7.21739C8.02655 18.595 8.83893 21.5659 9.65455 24.5378C8.89335 25.0297 8.27889 25.7177 7.87591 26.5295C7.698 26.8853 7.56049 27.26 7.46595 27.6464C5.79999 27.0404 4.31965 26.0127 3.16945 24.6637C2.09537 23.404 1.34714 21.8998 0.99053 20.2833C0.866873 19.7169 0.788079 19.1416 0.754883 18.5627V17.5943C0.78014 17.1616 0.828629 16.7306 0.900143 16.3031C1.22172 14.4648 2.04504 12.7512 3.2792 11.3513ZM80.0772 10.5379C81.6502 9.63955 83.4344 9.1773 85.2458 9.19886C87.0571 9.22043 88.8298 9.72501 90.381 10.6605C90.4671 10.7339 90.5748 10.777 90.6877 10.7832C90.6877 10.7993 90.6877 10.8316 90.6877 10.8478L91.1461 11.1706C90.604 12.9756 90.566 14.8945 91.0363 16.7195C91.4428 18.2757 92.2116 19.7136 93.2798 20.916C92.4074 21.6358 91.7895 22.6169 91.5173 23.7147C91.2441 24.8415 91.3449 26.0267 91.8046 27.0912C91.3854 27.456 90.9374 27.7864 90.465 28.079L88.6056 23.3854C89.4173 23.0878 90.1091 22.5322 90.5747 21.8037C91.0349 20.9595 91.204 19.9872 91.0557 19.0373C90.9593 18.2321 90.6062 17.4794 90.0485 16.8906C89.5344 16.3809 88.8864 16.0272 88.1795 15.8706C87.5131 15.7084 86.8282 15.6357 86.1426 15.6543H80.2095V28.334C78.2452 27.2484 76.6923 25.547 75.7903 23.4919C76.1131 23.4919 76.4069 23.4919 76.7168 23.4919C76.7168 22.8173 76.7168 22.1426 76.7168 21.4712C76.1938 21.4712 75.6677 21.4712 75.1415 21.4712C74.9017 20.2385 74.881 18.9731 75.0802 17.7331H77.9854C77.9854 17.0423 77.9854 16.3516 77.9854 15.6608H75.6612C76.5171 13.5134 78.0762 11.7198 80.0836 10.5734L80.0772 10.5379ZM51.1928 10.9866C53.643 10.2179 56.2923 10.3965 58.6172 11.4869C58.3632 12.8142 58.6228 14.1884 59.3436 15.3315C58.9905 15.4075 58.6424 15.5045 58.3009 15.622C57.6747 15.622 57.0452 15.622 56.4157 15.622V16.4484C55.7537 16.833 55.1357 17.2887 54.5725 17.8074C54.2474 17.4846 53.893 17.1928 53.5137 16.9358C52.2821 16.1076 50.816 15.6989 49.3334 15.7705C48.8892 15.6793 48.4375 15.6296 47.9841 15.622H45.434C45.9466 14.7161 46.6004 13.8977 47.3708 13.1978C48.4682 12.1883 49.7741 11.4323 51.196 10.9833L51.1928 10.9866ZM82.7241 17.6428C82.7241 19.0244 82.7241 20.407 82.7241 21.7908H85.7197C86.1112 21.8071 86.5031 21.7713 86.8851 21.6843C87.344 21.5923 87.7589 21.3491 88.0633 20.9935C88.4014 20.5437 88.5498 19.9793 88.4765 19.4214C88.4535 19.1781 88.3819 18.9419 88.2661 18.7268C88.1502 18.5117 87.9923 18.322 87.8018 18.1689C87.3708 17.84 86.8461 17.6568 86.304 17.646C85.1096 17.646 83.9153 17.646 82.7209 17.646L82.7241 17.6428ZM40.04 22.6494C40.5901 21.0738 41.5139 19.655 42.7321 18.5143V27.9821C42.1762 27.7456 41.577 27.6279 40.9729 27.6367C40.9729 27.5044 40.9729 27.3753 40.9729 27.2429H39.5751C39.3719 25.6964 39.5311 24.1239 40.04 22.6494ZM16.088 19.3794C15.8459 20.3091 15.6264 21.2452 15.394 22.1781C15.7681 21.8184 16.1649 21.4831 16.5819 21.1742C16.414 20.577 16.2591 19.9734 16.088 19.3794ZM109.433 21.3582C110.312 22.2256 111.34 22.9285 112.467 23.4338V29.5187H120.253C121.089 30.451 122.094 31.2175 123.213 31.7783C122.202 32.6334 121.033 33.2826 119.772 33.6893C117.787 34.3242 115.657 34.3422 113.662 33.7409V33.8023C113.578 33.227 113.309 32.6946 112.896 32.2851C112.518 31.9324 112.047 31.6948 111.538 31.5999C111.029 31.505 110.504 31.5568 110.024 31.7492C109.272 31.1044 108.62 30.3529 108.087 29.5187H109.439V21.3582H109.433ZM106.528 22.6268C106.653 22.5364 106.779 22.4461 106.912 22.3621C106.912 23.9019 106.912 25.4449 106.912 26.9847C106.772 26.5985 106.67 26.1996 106.608 25.7935C106.429 24.7473 106.403 23.6806 106.531 22.6268H106.528ZM82.7241 23.8051C82.7241 25.6364 82.7241 27.4656 82.7241 29.2927C84.5367 29.7265 86.433 29.6618 88.2118 29.1055C87.5468 27.3398 86.8754 25.574 86.2104 23.8083L82.7241 23.8051ZM115.004 24.1924V27.3398H118.762C118.273 26.3743 117.938 25.3386 117.768 24.2699C116.847 24.3652 115.918 24.3392 115.004 24.1924ZM49.2947 29.5671C50.2343 29.6146 51.1742 29.4775 52.0611 29.1636C52.8628 31.1202 54.2524 32.7795 56.038 33.912C54.2367 35.3577 51.995 36.1436 49.6853 36.1394C49.3302 36.1394 48.9719 36.1006 48.6168 36.1103C48.6105 36.1261 48.6051 36.1423 48.6007 36.1587C48.4571 35.5624 48.1085 35.0356 47.6157 34.6703C47.123 34.305 46.5176 34.1246 45.9053 34.1606C46.1415 33.174 46.1046 32.1418 45.7988 31.1746C45.5854 30.5731 45.2734 30.0113 44.8755 29.5122C46.0699 29.4961 47.2675 29.5542 48.4586 29.4444C48.7299 29.5255 49.0116 29.5668 49.2947 29.5671Z" fill="#7C2570"/>
<path fill-rule="evenodd" clip-rule="evenodd" d="M115.355 4.04309C116.865 3.85206 118.399 3.9987 119.845 4.47242C122.104 5.2117 124.032 6.72058 125.292 8.73583C126.552 10.7511 127.065 13.1448 126.74 15.4994C126.11 15.5757 125.502 15.779 124.952 16.0969C124.402 16.4148 123.922 16.8407 123.541 17.349C123.063 18.0779 122.845 18.9468 122.922 19.8152C122.963 20.4791 123.168 21.1223 123.519 21.6875C123.068 22.0727 122.592 22.4285 122.095 22.7527C120.782 23.5843 119.296 24.1033 117.75 24.2699C116.83 24.3652 115.901 24.3392 114.987 24.1924V23.479C116.708 23.479 118.428 23.479 120.152 23.479C120.152 22.8076 120.152 22.1329 120.152 21.4583H114.987V17.7138H121.395C121.395 17.0198 121.395 16.329 121.395 15.6349H112.466V23.4209C111.339 22.9156 110.311 22.2127 109.432 21.3453V15.6414H106.933C106.933 16.1353 106.933 16.6292 106.933 17.1198C106.738 16.5465 106.608 15.9532 106.546 15.3509C106.413 14.2208 106.469 13.0765 106.711 11.9647C107.23 9.5942 108.58 7.48757 110.516 6.0251C110.636 6.43209 110.851 6.80488 111.143 7.11294C111.584 7.57111 112.176 7.85438 112.809 7.91053C113.443 7.96668 114.076 7.79195 114.591 7.41852C115.105 7.0451 115.468 6.49814 115.612 5.87844C115.755 5.25875 115.67 4.60807 115.371 4.04632L115.355 4.04309ZM72.9422 7.93609C74.968 7.31634 77.0977 7.10985 79.2048 7.32888C81.312 7.54791 83.3536 8.188 85.2087 9.21116C83.1539 9.19501 81.1422 9.80001 79.4372 10.9469C77.7322 12.0937 76.4134 13.7289 75.6537 15.6382H69.0427V18.453C68.9136 18.3271 68.7845 18.1948 68.6586 18.0656C68.1405 17.5553 67.5728 17.0979 66.9639 16.7002C67.4834 16.2936 67.927 15.7986 68.2745 15.2379C68.7415 14.4719 69.0053 13.5993 69.0409 12.7028C69.0765 11.8064 68.8827 10.9156 68.4778 10.115C69.8413 9.15469 71.348 8.41603 72.9422 7.92641V7.93609ZM38.27 10.7671C39.9312 10.4015 41.6572 10.4548 43.2928 10.922C44.811 11.3574 46.2062 12.1423 47.3665 13.2139C46.5961 13.9139 45.9423 14.7322 45.4297 15.6382H42.7214V18.4982C41.5045 19.6445 40.584 21.069 40.0389 22.6494C39.5284 24.1246 39.3682 25.6983 39.5709 27.2461H39.3998C39.2442 26.47 38.9159 25.7388 38.4392 25.1068C37.9626 24.4748 37.3498 23.9582 36.6463 23.5952C36.153 23.3413 35.6223 23.168 35.0742 23.082V22.0684C36.8399 20.6387 38.0763 18.6591 38.5863 16.4452C39.009 14.5647 38.8972 12.6034 38.2635 10.7832L38.27 10.7671ZM90.6866 10.7961C90.89 10.7445 91.0934 10.7025 91.3032 10.667C91.2419 10.8349 91.187 10.9898 91.1353 11.1738L90.677 10.851C90.677 10.8349 90.677 10.8026 90.677 10.7864L90.6866 10.7961ZM71.5574 17.7138C71.5574 18.9566 71.5574 20.2026 71.5574 21.4454C72.755 21.4615 73.9493 21.4454 75.1437 21.4454C74.9039 20.2126 74.8832 18.9473 75.0824 17.7073L71.5574 17.7138ZM125.488 19.1599C125.635 18.942 125.762 18.7107 125.866 18.4691C125.95 18.3081 126.016 18.1381 126.063 17.9623C125.88 18.1035 125.733 18.2852 125.634 18.4931C125.534 18.701 125.484 18.9294 125.488 19.1599ZM102.295 24.2408C102.992 25.9937 103.683 27.7497 104.38 29.5058C103.499 29.5058 102.614 29.5058 101.73 29.5058C101.51 28.9312 101.297 28.3566 101.084 27.7852C100.817 28.1796 100.506 28.5424 100.158 28.8666C99.4585 29.5091 98.5927 29.942 97.6592 30.1159C98.7078 30.6373 99.5512 31.4955 100.054 32.553C100.482 33.4578 100.647 34.4642 100.532 35.4582C101.83 35.9509 103.215 36.1743 104.603 36.1149C105.99 36.0556 107.351 35.7146 108.602 35.1128C108.426 34.6578 108.378 34.1632 108.463 33.6828C108.542 33.2531 108.726 32.8494 108.998 32.5081C109.271 32.1667 109.624 31.8982 110.026 31.7266C109.275 31.0818 108.622 30.3303 108.089 29.4961H106.933C106.933 28.6503 106.933 27.8046 106.933 26.9621C106.793 26.5759 106.692 26.177 106.63 25.7709C106.451 24.7247 106.425 23.658 106.552 22.6042C105.274 23.4458 103.826 23.9968 102.311 24.2182L102.295 24.2408ZM71.5574 23.479H75.7893C76.6913 25.5341 78.2441 27.2355 80.2085 28.3211C80.2085 28.7181 80.2085 29.1184 80.2085 29.5154H82.7231V29.2959C84.536 29.7287 86.4322 29.6629 88.2108 29.1055C88.2624 29.2378 88.3108 29.3702 88.356 29.5058C88.5755 29.5058 88.795 29.5058 89.0016 29.5058C88.7041 29.7576 88.4654 30.0717 88.3025 30.4259C88.1397 30.7801 88.0565 31.1657 88.059 31.5556C88.0615 31.9711 88.1622 32.3801 88.3529 32.7493C88.5437 33.1184 88.8191 33.4372 89.1566 33.6796C87.7212 35.2409 85.9853 36.4962 84.053 37.3704C82.1207 38.2446 80.0318 38.7196 77.9115 38.7669C75.7912 38.8142 73.6832 38.4329 71.7138 37.6458C69.7444 36.8587 67.9543 35.6821 66.4506 34.1864C68.3453 33.1243 69.8507 31.4842 70.7471 29.5058H78.0457C78.0457 28.7827 78.0457 28.0564 78.0457 27.3333H71.5574C71.5574 27.0718 71.5574 26.8071 71.5574 26.5424C71.6278 26.3291 71.6616 26.1053 71.6574 25.8807C71.6768 25.4901 71.6574 25.0995 71.6574 24.7121C71.6611 24.4931 71.6283 24.2749 71.5606 24.0665C71.5606 23.8729 71.5606 23.6824 71.5606 23.4919L71.5574 23.479ZM91.7939 27.0912C92.1769 27.9571 92.7856 28.7041 93.5564 29.254C93.5564 29.3379 93.5564 29.4251 93.5564 29.5122H93.9857L94.2084 29.6768C93.7614 29.7719 93.3278 29.9215 92.9172 30.1223C92.6848 29.761 92.3679 29.4616 91.9939 29.2502C91.6199 29.0387 91.2 28.9215 90.7706 28.9086C90.664 28.631 90.5511 28.3566 90.4478 28.079C90.9224 27.7867 91.3726 27.4563 91.7939 27.0912Z" fill="#BB3C95"/>
<path fill-rule="evenodd" clip-rule="evenodd" d="M19.9512 19.4214C20.3841 20.1218 20.894 20.7714 21.4716 21.3582C21.0939 22.8044 20.7227 24.2634 20.3386 25.6902C19.806 23.7534 19.2766 21.8166 18.7472 19.8798C19.141 19.7151 19.5477 19.5796 19.9512 19.4375V19.4214ZM15.3933 22.1491C14.7864 24.5991 14.1924 27.0524 13.5823 29.4993H10.9999C10.548 27.8465 10.0971 26.1938 9.64737 24.541C8.88617 25.0329 8.27171 25.721 7.86873 26.5327C7.51796 27.2312 7.3262 27.9987 7.30722 28.78C7.28825 29.5614 7.44252 30.3373 7.75897 31.052C8.05198 31.7086 8.47638 32.2983 9.00602 32.7846C9.53566 33.271 10.1593 33.6437 10.8385 33.8797C11.7736 34.2002 12.7793 34.255 13.7437 34.0379C14.6565 35.7393 16.034 37.1463 17.7157 38.0949C19.3974 39.0435 21.314 39.4947 23.2422 39.3959C25.1705 39.2971 27.031 38.6524 28.6069 37.5369C30.1828 36.4214 31.4093 34.8811 32.1435 33.0953C31.3998 32.7708 30.7414 32.2784 30.22 31.6567C29.6986 31.035 29.3283 30.301 29.1382 29.5122H26.9012V24.1763C25.6164 23.9488 24.3864 23.48 23.2761 22.7947C22.6757 25.0328 22.0774 27.2719 21.4813 29.5122H18.8537C18.0951 26.7296 17.3462 23.9439 16.5941 21.1581C16.177 21.467 15.7803 21.8023 15.4062 22.162L15.3933 22.1491ZM12.0297 23.6985C12.3712 23.6372 12.721 23.6372 13.0626 23.6985C12.8948 24.3635 12.7398 25.0285 12.5655 25.6934C12.3751 25.0285 12.2104 24.3603 12.0297 23.6953V23.6985ZM29.4158 24.2989C29.9579 24.2519 30.4969 24.1732 31.0298 24.0633C30.8813 24.215 30.707 24.3409 30.565 24.4862C30.0667 24.9677 29.6714 25.5453 29.4029 26.1841C29.4029 25.5546 29.4029 24.9252 29.4029 24.2989H29.4158ZM40.9818 27.6206C41.5859 27.6118 42.1852 27.7294 42.7411 27.966C42.7411 28.4792 42.7411 28.9957 42.7411 29.5122H44.8813C45.2791 30.0113 45.5911 30.5731 45.8045 31.1746C46.1104 32.1418 46.1472 33.174 45.911 34.1606C45.528 34.1836 45.1546 34.2899 44.8169 34.4719C44.4791 34.654 44.1851 34.9074 43.9552 35.2147C43.7254 35.522 43.5653 35.8756 43.4861 36.251C43.4068 36.6265 43.4104 37.0147 43.4964 37.3886C43.05 37.6496 42.5684 37.8452 42.0664 37.9696C41.3325 38.1502 40.5683 38.1704 39.8259 38.029C39.0835 37.8875 38.3803 37.5877 37.7642 37.1499C37.1481 36.7121 36.6337 36.1467 36.2559 35.4921C35.878 34.8375 35.6458 34.1092 35.5749 33.3568C36.4918 33.1153 37.3269 32.6316 37.9926 31.9563C38.6582 31.281 39.1299 30.439 39.3581 29.5187H40.9721V27.6206H40.9818ZM94.2216 29.6768C95.3767 29.4346 96.5797 29.587 97.6379 30.1097C98.696 30.6323 99.5482 31.495 100.058 32.5595C100.485 33.4643 100.651 34.4707 100.536 35.4647C100.386 36.639 99.8468 37.7291 99.004 38.5602C98.1611 39.3914 97.0636 39.9155 95.8873 40.0485H94.7607C94.059 39.9746 93.3793 39.7604 92.7621 39.4186C92.1448 39.0768 91.6026 38.6143 91.1677 38.0586C90.7329 37.503 90.4142 36.8655 90.2307 36.1842C90.0471 35.5029 90.0025 34.7917 90.0995 34.0928C90.6103 34.2154 91.1462 34.1826 91.6383 33.9987C92.1305 33.8148 92.5564 33.488 92.8616 33.0604C93.1669 32.6327 93.3374 32.1237 93.3514 31.5985C93.3653 31.0733 93.2221 30.5559 92.9401 30.1126C93.3507 29.9118 93.7843 29.7622 94.2313 29.6671L94.2216 29.6768ZM110.039 31.7428C110.519 31.5504 111.045 31.4986 111.553 31.5935C112.062 31.6883 112.533 31.926 112.912 32.2786C113.325 32.6881 113.593 33.2205 113.677 33.7958C113.77 34.436 113.624 35.0879 113.267 35.6274C112.91 36.1668 112.367 36.556 111.741 36.7208C111.115 36.8856 110.451 36.8144 109.875 36.5208C109.298 36.2272 108.85 35.7318 108.615 35.129C108.439 34.6739 108.391 34.1793 108.477 33.6989C108.554 33.2702 108.737 32.8672 109.007 32.526C109.278 32.1847 109.629 31.9156 110.029 31.7428H110.039Z" fill="#8E2880"/>
<rect x="26.3447" y="16.4335" width="2.6246" height="13.123" fill="#511E75"/>
<path fill-rule="evenodd" clip-rule="evenodd" d="M28.2299 15.778H26.3447L26.3512 15.7845V16.6108V29.6585H32.3424C33.2049 29.6921 34.0631 29.5218 34.8473 29.1614C35.6452 28.7327 36.2449 28.0103 36.5195 27.1471C36.7571 26.3897 36.775 25.5804 36.5711 24.8132C36.3449 24.0046 35.8075 23.3186 35.0765 22.9055C34.6735 22.6878 34.2372 22.5383 33.7853 22.4632C34.0869 22.3882 34.3792 22.28 34.6569 22.1404C35.0804 21.9138 35.4433 21.5888 35.7152 21.1928C35.987 20.7968 36.1599 20.3413 36.2193 19.8647C36.3332 19.0466 36.1707 18.2138 35.7576 17.4985C35.3824 16.8438 34.7896 16.3413 34.0823 16.0782C33.1536 15.7736 32.1696 15.7757 31.2044 15.7777C31.1263 15.7778 31.0483 15.778 30.9705 15.778H28.2299ZM28.7109 17.7697V21.5852C29.3564 21.596 30.0119 21.5924 30.6679 21.5888C30.9961 21.587 31.3244 21.5852 31.6516 21.5852C31.9999 21.6013 32.3477 21.543 32.6716 21.4141C32.9483 21.2906 33.1902 21.1008 33.376 20.8615C33.5618 20.6222 33.6858 20.3408 33.7369 20.0422C33.8245 19.6011 33.775 19.1437 33.5949 18.7316C33.3715 18.3352 33.0057 18.0386 32.5716 17.902C32.1982 17.7801 31.8044 17.7329 31.4127 17.7632L28.7109 17.7697ZM28.7109 27.5474V23.5801H31.2158C31.6698 23.5563 32.1251 23.578 32.5748 23.6447C32.8266 23.6915 33.0667 23.7878 33.281 23.928C33.4954 24.0682 33.6798 24.2495 33.8236 24.4615C33.9674 24.6734 34.0677 24.9118 34.1188 25.1628C34.1698 25.4138 34.1706 25.6724 34.121 25.9237C34.0683 26.328 33.8779 26.7019 33.582 26.9825C33.1559 27.3585 32.6038 27.5602 32.0357 27.5474H28.7109Z" fill="#511E75"/>
<path fill-rule="evenodd" clip-rule="evenodd" d="M5.34766 14.4748H8.01401C8.72417 17.1605 9.43649 19.8505 10.151 22.5448C10.3317 23.2098 10.4964 23.878 10.6868 24.543C10.8579 23.878 11.0096 23.213 11.1839 22.5481C11.8467 19.858 12.5106 17.168 13.1756 14.478C14.0246 14.478 14.8703 14.478 15.7193 14.478C16.1024 15.8919 16.4886 17.3047 16.8782 18.7164C17.4076 20.6532 17.937 22.59 18.4696 24.5268C18.8537 23.0871 19.2249 21.641 19.6026 20.1948C20.0997 18.286 20.5968 16.3761 21.094 14.4651C21.8332 14.4651 22.5724 14.4651 23.3116 14.4651C22.666 16.8517 22.029 19.2372 21.4006 21.6216C20.8002 23.8597 20.202 26.0989 19.6058 28.3391H16.9782C16.2196 25.5566 15.4707 22.7708 14.7186 19.985C14.5508 19.3878 14.3958 18.7842 14.2247 18.1902C13.9826 19.1199 13.7631 20.056 13.5307 20.9889C12.9238 23.439 12.3299 25.8923 11.7198 28.3391H9.13736C8.68544 26.6864 8.23459 25.0336 7.78482 23.3809C6.97135 20.409 6.15897 17.4381 5.34766 14.4683V14.4748ZM25.0225 14.4748C25.6681 14.4748 26.2814 14.4748 26.9076 14.4748C27.8212 14.4748 28.7347 14.4748 29.6482 14.4748C30.6877 14.4748 31.7561 14.4457 32.76 14.775C33.4673 15.038 34.0601 15.5406 34.4354 16.1953C34.8484 16.9106 35.0109 17.7433 34.897 18.5615C34.8376 19.0381 34.6648 19.4936 34.3929 19.8896C34.121 20.2856 33.7581 20.6105 33.3346 20.8372C33.057 20.9767 32.7646 21.085 32.4631 21.16C32.9149 21.2351 33.3512 21.3846 33.7543 21.6022C34.4853 22.0154 35.0227 22.7014 35.2489 23.51C35.4527 24.2772 35.4348 25.0865 35.1972 25.8439C34.9227 26.707 34.323 27.4294 33.5251 27.8582C32.7408 28.2186 31.8826 28.3889 31.0201 28.3553H25.0289C25.0289 24.0039 25.0289 19.6557 25.0289 15.3076V14.4812L25.0225 14.4748ZM27.3886 16.4665C27.3886 17.7383 27.3886 19.0101 27.3886 20.282C28.357 20.2981 29.348 20.282 30.3293 20.282C30.6777 20.2981 31.0254 20.2398 31.3494 20.1109C31.626 19.9874 31.868 19.7976 32.0538 19.5583C32.2396 19.319 32.3635 19.0376 32.4146 18.739C32.5023 18.2979 32.4527 17.8405 32.2726 17.4284C32.0493 17.032 31.6834 16.7354 31.2493 16.5988C30.8759 16.4768 30.4821 16.4297 30.0905 16.46L27.3886 16.4665ZM27.3886 22.2769V26.2442H30.7135C31.2816 26.257 31.8337 26.0553 32.2597 25.6792C32.5557 25.3987 32.746 25.0248 32.7988 24.6205C32.8483 24.3692 32.8476 24.1105 32.7965 23.8596C32.7455 23.6086 32.6451 23.3702 32.5013 23.1582C32.3575 22.9463 32.1731 22.765 31.9588 22.6248C31.7444 22.4846 31.5044 22.3883 31.2526 22.3415C30.8028 22.2748 30.3476 22.2531 29.8936 22.2769H27.3886Z" fill="white"/>
</g>
<defs>
<clipPath id="clip0_964_3422">
<rect x="0.753906" y="0.685913" width="39.369" height="39.369" rx="19.6845" fill="white"/>
</clipPath>
</defs>
</svg>
