<svg id="yandex" width="28" height="28" viewBox="0 0 28 28" fill="none" xmlns="http://www.w3.org/2000/svg">
<path fill-rule="evenodd" clip-rule="evenodd" d="M27.7979 13.6778C27.7979 10.9726 26.9827 8.32816 25.4554 6.07886C23.9282 3.82955 21.7575 2.07642 19.2178 1.04117C16.6781 0.00593364 13.8835 -0.264942 11.1874 0.262819C8.49125 0.79058 6.01471 2.09327 4.07091 4.00615C2.12711 5.91902 0.803365 8.35619 0.267072 11.0094C-0.26922 13.6627 0.00601566 16.4128 1.05799 18.9121C2.10997 21.4114 3.89144 23.5476 6.17711 25.0505C8.46277 26.5534 11.15 27.3556 13.8989 27.3556C17.5831 27.3492 21.1146 25.9061 23.7197 23.3424C26.3249 20.7787 27.7913 17.3034 27.7979 13.6778V13.6778Z" fill="#FC3F1D"/>
<path fill-rule="evenodd" clip-rule="evenodd" d="M15.9378 7.67168H14.554C12.1449 7.67168 10.9342 8.8875 10.9342 10.6869C10.9342 12.4863 11.7743 13.6899 13.5286 14.8814L14.9247 15.8784L10.9342 21.9574H7.69727L11.4901 16.389C9.26629 14.845 8.06789 13.386 8.06789 10.8328C8.06789 7.63522 10.2917 5.44678 14.554 5.44678H18.8164V21.8601H16.049V7.67168H15.9378Z" fill="white"/>
</svg>
