<svg id="ymarket" width="41" height="41" viewBox="0 0 41 41" fill="none" xmlns="http://www.w3.org/2000/svg">
<path fill-rule="evenodd" clip-rule="evenodd" d="M20.6534 40.0344C24.5432 40.0344 28.3456 38.8805 31.5798 36.7187C34.8141 34.5569 37.3348 31.4841 38.8234 27.8891C40.3119 24.2941 40.7014 20.3383 39.9425 16.5219C39.1837 12.7055 37.3106 9.19986 34.5601 6.44837C31.8096 3.69688 28.3053 1.82309 24.4902 1.06395C20.6752 0.304819 16.7208 0.694448 13.1272 2.18354C9.53349 3.67264 6.46189 6.19436 4.30085 9.42977C2.13981 12.6652 0.986359 16.469 0.986359 20.3602C0.981753 22.9451 1.4873 25.5055 2.47403 27.8946C3.46076 30.2837 4.90928 32.4544 6.73645 34.2822C8.56362 36.11 10.7335 37.5591 13.1217 38.5462C15.5099 39.5333 18.0694 40.039 20.6534 40.0344Z" fill="#FED42B"/>
<path fill-rule="evenodd" clip-rule="evenodd" d="M10.9517 11.441L1.30176 24.1025C1.78368 26.7002 2.79536 29.1708 4.27369 31.3601L11.0741 22.3362L9.76295 31.64L16.9829 34.1408L25.7238 20.1502C25.3392 22.7909 24.675 28.8943 30.444 30.6431C31.8858 30.9878 33.3916 30.96 34.8198 30.5623C36.248 30.1646 37.5515 29.41 38.6079 28.3696C39.7466 25.8646 40.3424 23.1468 40.3561 20.395C40.3528 19.1089 40.224 17.8262 39.9716 16.5651C37.157 20.7972 34.4473 23.8052 32.9788 23.4205C30.4789 22.7734 32.7166 14.7638 34.1501 9.65727V9.51734L26.1609 6.77173L16.5634 22.3362L17.8745 13.802L10.8818 11.441H10.9517Z" fill="black"/>
</svg>
