<svg id="yamarket-full" width="326" height="60" viewBox="0 0 326 60" fill="none" xmlns="http://www.w3.org/2000/svg">
<g clip-path="url(#clip0_967_2821)">
<path fill-rule="evenodd" clip-rule="evenodd" d="M153.046 50.8033H159.479L168.464 17.4033V50.8033H175.704V6.64343H165.729L156.718 39.0794L147.733 6.64343H137.576V50.8033H143.827V17.4033L153.02 50.8033H153.046ZM205.966 28.9188C205.966 21.1029 202.06 18.185 194.064 18.185C190.103 18.1527 186.204 19.1683 182.762 21.1289V27.3556C185.858 25.325 189.477 24.2388 193.179 24.2292C196.903 24.2292 198.388 25.61 198.388 28.9188V30.6904H197.216C185.678 30.6904 180.418 34.5983 180.418 41.1115C180.479 43.1208 181.121 45.0692 182.264 46.7221C183.408 48.3749 185.005 49.6617 186.863 50.4272C188.721 51.1927 190.761 51.4043 192.736 51.0365C194.712 50.6687 196.539 49.7372 197.997 48.3543H198.388C198.466 49.2437 198.659 50.1193 198.961 50.9596H206.383C206.201 48.3543 205.992 45.749 205.992 43.1437V29.0751L205.966 28.9188ZM198.388 43.1958C197.758 44.0442 196.931 44.7254 195.977 45.1796C195.024 45.6338 193.974 45.8472 192.918 45.801C192.289 45.8568 191.655 45.7739 191.061 45.5579C190.467 45.342 189.927 44.9984 189.48 44.5513C189.033 44.1042 188.69 43.5644 188.474 42.9701C188.258 42.3758 188.175 41.7414 188.231 41.1115C188.231 37.412 190.835 36.0312 197.398 36.0312H198.57V43.2739L198.388 43.1958ZM219.092 18.7841H212.06V60H219.665V46.9735C220.512 48.3265 221.698 49.4348 223.105 50.1887C224.512 50.9427 226.091 51.3162 227.687 51.2722C235.109 51.2722 240.187 45.4103 240.187 34.6504C240.187 23.8905 235.291 18.0546 228.077 18.0546C226.363 18.0364 224.674 18.4578 223.169 19.2788C221.664 20.0998 220.395 21.2929 219.483 22.7442L219.092 18.6278V18.7841ZM225.525 45.5406C221.618 45.5406 219.483 42.2058 219.483 34.9891C219.483 27.7724 221.618 24.2292 225.916 24.2292C230.213 24.2292 232.166 27.564 232.166 34.7807C232.166 41.9974 230.03 45.5406 225.525 45.5406ZM263.809 50.7512H272.403L260.293 33.5562L271.049 18.732H263.496L252.766 33.5822V18.732H245.136V50.7772H252.766V35.1454L263.887 50.7772L263.809 50.7512ZM297.796 48.6148C294.524 50.6468 290.699 51.6034 286.857 51.3503C277.299 51.3503 271.83 45.8792 271.83 34.7285C271.83 24.9587 276.31 17.9244 285.503 17.9244C293.108 17.9244 298.004 22.0408 298.004 33.1654V37.2818H279.773C280.164 42.7529 282.378 45.28 287.795 45.28C291.315 45.2321 294.755 44.2231 297.743 42.3621V48.6148H297.796ZM285.477 24.2553C281.961 24.2553 280.008 26.8605 279.799 31.8888H290.347V31.2896C290.347 27.3817 289.175 24.2553 285.477 24.2553ZM325.115 24.8545V18.7841H299.723V24.8545H308.708V50.9075H316.338V24.8545H325.115Z" fill="black"/>
<path fill-rule="evenodd" clip-rule="evenodd" d="M92.4962 58.6192C98.291 58.6192 103.956 56.9003 108.774 53.6797C113.592 50.4591 117.347 45.8815 119.565 40.5259C121.782 35.1703 122.363 29.2771 121.232 23.5916C120.102 17.9061 117.311 12.6836 113.214 8.5846C109.116 4.48558 103.896 1.6941 98.2121 0.563183C92.5287 -0.567734 86.6377 0.0127151 81.284 2.23109C75.9304 4.44946 71.3545 8.20619 68.1351 13.0261C64.9157 17.8461 63.1973 23.5127 63.1973 29.3096C63.1905 33.1606 63.9436 36.9749 65.4136 40.534C66.8835 44.0931 69.0415 47.3269 71.7635 50.0499C74.4855 52.7729 77.7181 54.9317 81.2759 56.4022C84.8337 57.8727 88.6467 58.6261 92.4962 58.6192Z" fill="#FED42B"/>
<path fill-rule="evenodd" clip-rule="evenodd" d="M59.0822 29.3096C59.0822 23.5127 57.3638 17.8461 54.1444 13.0261C50.925 8.20618 46.3491 4.44946 40.9955 2.23109C35.6418 0.0127151 29.7508 -0.567734 24.0673 0.563183C18.3839 1.6941 13.1634 4.48558 9.06585 8.5846C4.96833 12.6836 2.17787 17.9061 1.04736 23.5916C-0.0831409 29.2771 0.497056 35.1703 2.71462 40.5259C4.93218 45.8815 8.68753 50.4591 13.5057 53.6797C18.3239 56.9002 23.9885 58.6192 29.7833 58.6192C37.5496 58.6054 44.9939 55.513 50.4855 50.0194C55.9771 44.5258 59.0684 37.0788 59.0822 29.3096Z" fill="#FC3F1D"/>
<path fill-rule="evenodd" clip-rule="evenodd" d="M34.08 16.4394H31.1631C26.0846 16.4394 23.5324 19.0447 23.5324 22.9006C23.5324 26.7564 25.3033 29.3356 29.0015 31.8888L31.9444 34.0252L23.5324 47.0517H16.709L24.7043 35.1194C20.0165 31.8107 17.4903 28.6843 17.4903 23.2132C17.4903 16.3613 22.1781 11.6718 31.1631 11.6718H40.1481V46.8433H34.3143V16.4394H34.08Z" fill="white"/>
<path fill-rule="evenodd" clip-rule="evenodd" d="M78.0421 16.0226L63.666 34.885C64.384 38.7549 65.8911 42.4354 68.0934 45.697L78.2243 32.2537L76.271 46.1139L87.027 49.8394L100.049 28.997C99.4758 32.931 98.4861 42.0235 107.08 44.6288C109.228 45.1424 111.472 45.1009 113.599 44.5084C115.727 43.916 117.669 42.7918 119.243 41.2419C120.939 37.51 121.827 33.4613 121.847 29.3617C121.842 27.4458 121.65 25.5348 121.274 23.6561C117.081 29.961 113.044 34.4421 110.857 33.8689C107.133 32.905 110.466 20.9727 112.602 13.3653V13.1568L100.7 9.06653L86.402 32.2537L88.3552 19.5398L77.9379 16.0226H78.0421Z" fill="black"/>
</g>
<defs>
<clipPath id="clip0_967_2821">
<rect width="324.632" height="60" fill="white" transform="translate(0.484375)"/>
</clipPath>
</defs>
</svg>
