<?xml version="1.0" encoding="utf-8"?><svg width="706" height="363" fill="none" xmlns="http://www.w3.org/2000/svg" viewBox="0 0 706 363"><path d="M414.761 82.27c-.12-.78-.2-1.57-.2-2.39 0-8.82 7.15-15.96 15.96-15.96 2.6 0 5.05.63 7.21 1.74 3.39-7.16 10.68-12.12 19.13-12.12 9.93 0 18.26 6.85 20.53 16.08 1.52-.59 3.17-.93 4.9-.93 7.5 0 13.58 6.08 13.58 13.57h-81.12l.01.01z" fill="#A0C966"/><path d="M411.702 85.82h87.72v-3.55c0-9.44-7.68-17.12-17.12-17.12-.86 0-1.72.07-2.57.2A24.643 24.643 0 00456.862 50c-8.37 0-16.18 4.31-20.7 11.22-1.82-.56-3.71-.84-5.65-.84-10.76 0-19.51 8.75-19.51 19.51 0 .91.08 1.86.24 2.92l.46 3.02v-.01zm79.97-7.1h-73.52c.59-6.3 5.91-11.25 12.36-11.25 1.96 0 3.84.45 5.6 1.35l3.25 1.66 1.56-3.3c2.9-6.13 9.15-10.09 15.92-10.09 8.12 0 15.15 5.5 17.09 13.38l.96 3.92 3.77-1.46c1.17-.46 2.39-.69 3.62-.69 4.28 0 7.94 2.69 9.38 6.48h.01z" fill="#1D1D1B"/><path d="M192.933 186.03h29.83v50.989h-29.83v47.404h-55.284v-47.404H6V186.03L98.671 5.577h58.864L65.262 186.03h72.387v-66.126h55.284v66.126zM353.647 290c-34.735 0-62.046-13.146-81.933-39.437-19.621-26.822-29.432-62.01-29.432-105.563 0-43.553 9.811-78.608 29.432-105.165C291.601 13.278 318.912 0 353.647 0c35.265 0 62.576 13.278 81.932 39.835C455.2 66.392 465.011 101.447 465.011 145c0 43.553-9.811 78.741-29.432 105.563C416.223 276.854 388.912 290 353.647 290zm56.875-145c0-29.744-4.905-52.45-14.716-68.118-9.545-15.669-23.598-23.503-42.159-23.503s-32.614 7.834-42.16 23.503c-9.545 15.668-14.318 38.374-14.318 68.118 0 29.744 4.773 52.45 14.318 68.118 9.546 15.403 23.599 23.105 42.16 23.105 18.561 0 32.614-7.835 42.159-23.503 9.811-15.669 14.716-38.242 14.716-67.72zM674.17 186.03H704v50.989h-29.83v47.404h-55.284v-47.404H487.237V186.03L579.908 5.577h58.864L546.499 186.03h72.387v-66.126h55.284v66.126zM18.08 350.26c-5.159 0-9.473-1.735-12.943-5.205C1.712 341.584 0 337.292 0 332.178c0-5.114 1.712-9.406 5.137-12.877 3.47-3.47 7.784-5.205 12.944-5.205 3.333 0 6.37.799 9.109 2.397 2.74 1.598 4.817 3.744 6.232 6.439l-7.602 4.452c-.685-1.416-1.735-2.535-3.15-3.357-1.37-.822-2.923-1.232-4.658-1.232-2.648 0-4.84.89-6.575 2.671-1.735 1.735-2.602 3.972-2.602 6.712 0 2.648.867 4.886 2.602 6.712 1.735 1.736 3.927 2.603 6.575 2.603 1.78 0 3.356-.388 4.726-1.164 1.415-.822 2.465-1.941 3.15-3.356l7.67 4.383c-1.506 2.74-3.652 4.909-6.437 6.507-2.74 1.598-5.753 2.397-9.04 2.397zM34.675 315.055h30.34v8.493H54.331v25.753h-8.835v-25.753h-10.82v-8.493zM89.663 314.096c4.612 0 8.538 1.758 11.78 5.274 3.287 3.516 4.931 7.785 4.931 12.808 0 5.114-1.644 9.406-4.931 12.877-3.196 3.47-7.123 5.205-11.78 5.205-4.794 0-8.492-1.666-11.095-5V363h-8.835v-47.945h8.835v4.041c2.603-3.333 6.3-5 11.095-5zm-8.424 25.068c1.78 1.781 4.04 2.672 6.78 2.672s5-.891 6.78-2.672c1.827-1.826 2.74-4.155 2.74-6.986 0-2.831-.913-5.137-2.74-6.918-1.78-1.826-4.04-2.739-6.78-2.739s-5 .913-6.78 2.739c-1.78 1.781-2.67 4.087-2.67 6.918 0 2.831.89 5.16 2.67 6.986zM138.63 319.096v-4.041h8.835v34.246h-8.835v-4.041c-2.648 3.334-6.369 5-11.163 5-4.566 0-8.493-1.735-11.78-5.205-3.242-3.516-4.863-7.808-4.863-12.877 0-5.023 1.621-9.292 4.863-12.808 3.287-3.516 7.214-5.274 11.78-5.274 4.794 0 8.515 1.667 11.163 5zm-16.3 20.068c1.781 1.781 4.041 2.672 6.78 2.672 2.74 0 5-.891 6.781-2.672 1.826-1.826 2.739-4.155 2.739-6.986 0-2.831-.913-5.137-2.739-6.918-1.781-1.826-4.041-2.739-6.781-2.739-2.739 0-4.999.913-6.78 2.739-1.781 1.781-2.671 4.087-2.671 6.918 0 2.831.89 5.16 2.671 6.986zM177.94 328v-12.945h8.835v34.246h-8.835v-13.013h-13.629v13.013h-8.835v-34.246h8.835V328h13.629zM203.5 334.507l16.094-19.452h6.575v34.246h-8.629v-19.452l-16.095 19.452h-6.575v-34.246h8.63v19.452zM264.398 315.055v25.959h5.753v17.465h-8.629v-9.178h-27.258v-34.246h8.835v25.959h12.465v-25.959h8.834zM300.419 319.096v-4.041h8.835v34.246h-8.835v-4.041c-2.649 3.334-6.37 5-11.164 5-4.566 0-8.492-1.735-11.78-5.205-3.241-3.516-4.862-7.808-4.862-12.877 0-5.023 1.621-9.292 4.862-12.808 3.288-3.516 7.214-5.274 11.78-5.274 4.794 0 8.515 1.667 11.164 5zm-16.3 20.068c1.78 1.781 4.04 2.672 6.78 2.672 2.739 0 4.999-.891 6.78-2.672 1.826-1.826 2.74-4.155 2.74-6.986 0-2.831-.914-5.137-2.74-6.918-1.781-1.826-4.041-2.739-6.78-2.739-2.74 0-5 .913-6.78 2.739-1.781 1.781-2.671 4.087-2.671 6.918 0 2.831.89 5.16 2.671 6.986zM356.851 328v-12.945h8.835v34.246h-8.835v-13.013h-13.629v13.013h-8.835v-34.246h8.835V328h13.629zM407.066 335.808h-25.82c1.141 4.292 4.36 6.439 9.656 6.439 3.379 0 5.936-1.142 7.671-3.425l7.123 4.11c-3.379 4.885-8.356 7.328-14.93 7.328-5.662 0-10.205-1.712-13.63-5.137-3.424-3.424-5.136-7.739-5.136-12.945 0-5.114 1.689-9.406 5.068-12.877 3.333-3.47 7.671-5.205 13.013-5.205 5.068 0 9.2 1.735 12.396 5.205 3.287 3.471 4.931 7.763 4.931 12.877 0 .959-.114 2.169-.342 3.63zm-25.957-6.849h17.464c-.502-2.238-1.529-3.95-3.082-5.137-1.507-1.187-3.31-1.781-5.41-1.781-2.375 0-4.338.617-5.89 1.849-1.553 1.188-2.58 2.877-3.082 5.069zM453.161 328v-12.945h8.835v34.246h-8.835v-13.013h-13.629v13.013h-8.834v-34.246h8.834V328h13.629zM496.117 319.096v-4.041h8.834v34.246h-8.834v-4.041c-2.649 3.334-6.37 5-11.164 5-4.566 0-8.492-1.735-11.78-5.205-3.242-3.516-4.862-7.808-4.862-12.877 0-5.023 1.62-9.292 4.862-12.808 3.288-3.516 7.214-5.274 11.78-5.274 4.794 0 8.515 1.667 11.164 5zm-16.3 20.068c1.78 1.781 4.04 2.672 6.78 2.672 2.739 0 4.999-.891 6.78-2.672 1.826-1.826 2.74-4.155 2.74-6.986 0-2.831-.914-5.137-2.74-6.918-1.781-1.826-4.041-2.739-6.78-2.739-2.74 0-5 .913-6.78 2.739-1.781 1.781-2.672 4.087-2.672 6.918 0 2.831.891 5.16 2.672 6.986zM538.577 310.671h-19.861V303h19.861v7.671zm-16.985 23.836l16.095-19.452h6.575v34.246h-8.63v-19.452l-16.094 19.452h-6.575v-34.246h8.629v19.452zM583.176 315.055v25.959h4.52v17.465h-8.629v-9.178h-21.231v9.178h-8.63v-17.465h4.178c1.963-2.923 2.945-6.964 2.945-12.124v-13.835h26.847zm-20.341 25.959h11.712V323h-9.589v5.89c0 4.932-.707 8.973-2.123 12.124zM625.236 335.808h-25.82c1.142 4.292 4.36 6.439 9.657 6.439 3.379 0 5.935-1.142 7.67-3.425l7.123 4.11c-3.379 4.885-8.355 7.328-14.93 7.328-5.662 0-10.205-1.712-13.629-5.137-3.424-3.424-5.137-7.739-5.137-12.945 0-5.114 1.69-9.406 5.068-12.877 3.333-3.47 7.671-5.205 13.013-5.205 5.068 0 9.2 1.735 12.396 5.205 3.288 3.471 4.931 7.763 4.931 12.877 0 .959-.114 2.169-.342 3.63zm-25.957-6.849h17.464c-.502-2.238-1.529-3.95-3.081-5.137-1.507-1.187-3.311-1.781-5.411-1.781-2.374 0-4.338.617-5.89 1.849-1.552 1.188-2.58 2.877-3.082 5.069zM654.21 328v-12.945h8.835v34.246h-8.835v-13.013h-13.629v13.013h-8.835v-34.246h8.835V328h13.629zM697.165 319.096v-4.041H706v34.246h-8.835v-4.041c-2.648 3.334-6.369 5-11.163 5-4.566 0-8.493-1.735-11.78-5.205-3.242-3.516-4.863-7.808-4.863-12.877 0-5.023 1.621-9.292 4.863-12.808 3.287-3.516 7.214-5.274 11.78-5.274 4.794 0 8.515 1.667 11.163 5zm-16.3 20.068c1.781 1.781 4.041 2.672 6.78 2.672 2.74 0 5-.891 6.781-2.672 1.826-1.826 2.739-4.155 2.739-6.986 0-2.831-.913-5.137-2.739-6.918-1.781-1.826-4.041-2.739-6.781-2.739-2.739 0-4.999.913-6.78 2.739-1.781 1.781-2.671 4.087-2.671 6.918 0 2.831.89 5.16 2.671 6.986z" fill="#fff"/><path d="M159.95 170.78h-57.62l-.76-2.54c-.14-.48-1.35-4.9.25-12.2 1.69-7.71 9.97-16.04 20.39-16.04 6.95 0 13.44 3.5 17.31 9.14 1.42-.39 2.89-.59 4.38-.59 9.21 0 16.71 7.5 16.71 16.71 0 .78-.06 1.57-.2 2.5l-.46 3.03v-.01zm-51.82-7.12h45.23c-.76-4.53-4.71-7.99-9.45-7.99-1.51 0-2.96.35-4.33 1.05l-3.27 1.66-1.57-3.31c-2.28-4.83-7.2-7.94-12.53-7.94-6.56 0-12.35 5.51-13.43 10.45-.56 2.56-.68 4.62-.65 6.09v-.01z" fill="#163029"/></svg>