<?xml version="1.0" encoding="utf-8"?><svg width="54" height="51" xmlns="http://www.w3.org/2000/svg" viewBox="0 0 54 51"><path fill-rule="evenodd" clip-rule="evenodd" d="M5.272 33.165A2.053 2.053 0 012 31.513V19.708c0-.11.009-.218.025-.323.383-3.548 5.05-6.35 10.754-6.35 5.688 0 10.347 2.788 10.75 6.322.02.114.03.231.03.35v11.806a2.053 2.053 0 11-4.107 0V22.76v-.026-2.258l-.001-.002a1.027 1.027 0 00-1.025-1.023v26.177a2.566 2.566 0 11-5.133 0V31.513h-1.028v14.115a2.562 2.562 0 01-2.566 2.566 2.566 2.566 0 01-2.567-2.566V19.45a1.027 1.027 0 00-1.025 1.071v10.991a2.05 2.05 0 01-.835 1.652zm0 2.067a3.913 3.913 0 01-5.132-3.72V19.709c0-.191.014-.38.04-.565.292-2.539 2.064-4.55 4.278-5.863 1.569-.93 3.466-1.586 5.534-1.898a5.966 5.966 0 115.575 0c2.06.311 3.95.963 5.515 1.888 2.209 1.306 3.981 3.303 4.289 5.828.031.2.048.404.048.61v11.805a3.913 3.913 0 01-5.133 3.719v10.396a4.426 4.426 0 01-7.507 3.178 4.426 4.426 0 01-7.507-3.178V35.232zM16.885 6.106a4.106 4.106 0 11-8.212 0 4.106 4.106 0 018.212 0z"/><path fill-rule="evenodd" clip-rule="evenodd" d="M37.131 12.026a9.18 9.18 0 00-1.688.644c-3.292 1.6-5.334 4.755-6.197 6.734l-3.475 6.018a3.913 3.913 0 003.692 5.858l-.396 1.425c-.642 2.305.777 4.59 2.964 5.155v7.768a4.426 4.426 0 007.506 3.179 4.426 4.426 0 007.506-3.179V37.86c2.19-.564 3.61-2.85 2.969-5.156l-.396-1.422a3.913 3.913 0 003.655-5.86l-3.32-5.75c-.684-1.827-2.356-4.71-5.143-6.473a9.077 9.077 0 00-2.773-1.218 5.453 5.453 0 10-4.904.044zm6.666 2.736c-1.094-.728-2.45-1.173-3.925-1.21a7.626 7.626 0 00-.204-.003h-.002c-1.238 0-2.4.287-3.4.79-2.802 1.356-4.615 4.154-5.355 5.9l-3.53 6.113a2.053 2.053 0 103.557 2.053l2.423-4.196-2.502 8.995a2.31 2.31 0 002.225 2.928h.807v9.496a2.566 2.566 0 005.133 0v-9.496h1.027v9.496a2.562 2.562 0 002.566 2.566 2.566 2.566 0 002.566-2.566v-9.496h.812a2.31 2.31 0 002.225-2.928l-2.47-8.876 2.355 4.078a2.05 2.05 0 002.805.752 2.053 2.053 0 00.75-2.806l-3.4-5.89c-.555-1.565-2.04-4.174-4.463-5.7zm-.665-7.63a3.593 3.593 0 11-7.186 0 3.593 3.593 0 017.186 0z"/></svg>