<?xml version="1.0" encoding="utf-8"?><svg width="52" height="50" fill="none" xmlns="http://www.w3.org/2000/svg" viewBox="0 0 52 50"><rect x=".5" width="50" height="50" rx="25" fill="#fff"/><path fill-rule="evenodd" clip-rule="evenodd" d="M23.423 15.468c.23 0 .417.186.417.416v7.227a.416.416 0 01-.833 0v-7.227c0-.23.186-.416.416-.416zm4.165 0c.23 0 .416.186.416.416v7.227a.416.416 0 01-.832 0v-7.227c0-.23.186-.416.416-.416zm-7.252 1.47c.23 0 .417.186.417.416v8.77a.416.416 0 01-.833 0v-8.77c0-.23.186-.416.416-.416zM30.727 16.938c.23 0 .416.186.416.416v5.757a.416.416 0 01-.832 0v-5.757c0-.23.186-.416.416-.416z" fill="#333"/><path fill-rule="evenodd" clip-rule="evenodd" d="M22.419 15.688c-.92 0-1.666.746-1.666 1.666a.416.416 0 01-.833 0 2.499 2.499 0 013.734-2.173.416.416 0 11-.412.724 1.656 1.656 0 00-.823-.217z" fill="#333"/><path fill-rule="evenodd" clip-rule="evenodd" d="M25.507 14.218c-.92 0-1.667.746-1.667 1.666a.416.416 0 01-.832 0 2.499 2.499 0 114.997 0 .416.416 0 01-.832 0c0-.92-.746-1.666-1.666-1.666zM13.998 26.936a1.666 1.666 0 00.61 2.276.416.416 0 01-.417.721 2.499 2.499 0 112.5-4.328.416.416 0 11-.417.721 1.666 1.666 0 00-2.276.61z" fill="#333"/><path fill-rule="evenodd" clip-rule="evenodd" d="M33.219 32.984c-.743.935-1.88 1.558-3.426 1.558-.24 0-.434.054-.658.15-.116.049-.234.107-.375.176l-.004.002c-.14.069-.296.146-.473.223-.727.318-1.742.621-3.571.621-.794 0-1.723-.284-2.674-.702-.959-.42-1.98-.995-2.966-1.614-1.972-1.236-3.845-2.669-4.882-3.462l-.034-.026a.416.416 0 01.505-.662l.032.025c1.037.793 2.884 2.206 4.821 3.42.969.607 1.951 1.158 2.859 1.557.917.403 1.719.632 2.339.632 1.723 0 2.623-.283 3.237-.552.158-.069.3-.138.44-.207l.014-.007c.133-.065.269-.132.405-.19.29-.124.6-.217.985-.217 1.296 0 2.192-.51 2.774-1.243.591-.745.878-1.747.878-2.74a.416.416 0 01.833 0c0 1.139-.327 2.336-1.06 3.258zm-13.504-6.23a.747.747 0 00.208-.59.416.416 0 01.83-.06c.032.445-.11.9-.449 1.239-.484.484-1.197.565-1.792.318l-.005-.002-.005-.002c-.48-.214-.848-.468-1.183-.7l-.018-.013c-.331-.23-.63-.438-1.009-.613a.416.416 0 01.349-.756c.447.207.798.45 1.12.674l.033.024c.334.232.643.443 1.041.62.33.135.67.072.88-.139zM28.645 15.688c-.317 0-.611.087-.862.24a.416.416 0 11-.432-.712 2.499 2.499 0 013.793 2.138.416.416 0 11-.833 0c0-.92-.746-1.666-1.666-1.666z" fill="#333"/><path fill-rule="evenodd" clip-rule="evenodd" d="M31.78 17.305c-.308 0-.595.083-.842.228a.416.416 0 01-.422-.718 2.499 2.499 0 013.763 2.156.416.416 0 01-.832 0c0-.92-.746-1.666-1.667-1.666z" fill="#333"/><path fill-rule="evenodd" clip-rule="evenodd" d="M33.862 18.555c.23 0 .416.186.416.416v7.962a.416.416 0 11-.833 0v-7.962c0-.23.187-.416.417-.416zM24.359 27.506a.833.833 0 100-1.666.833.833 0 000 1.666zm0 .832a1.665 1.665 0 100-3.33 1.665 1.665 0 000 3.33zM26.233 33.75a1.457 1.457 0 100-2.914 1.457 1.457 0 000 2.914zm0 .833a2.29 2.29 0 100-4.58 2.29 2.29 0 000 4.58zM28.938 25.424a.416.416 0 100-.833.416.416 0 000 .833zm0 .832a1.249 1.249 0 100-2.498 1.249 1.249 0 000 2.498zM28.73 28.754a.208.208 0 100-.416.208.208 0 000 .416zm0 .833a1.04 1.04 0 100-2.082 1.04 1.04 0 000 2.082zM22.07 30.42a.208.208 0 100-.417.208.208 0 000 .417zm0 .832a1.04 1.04 0 100-2.081 1.04 1.04 0 000 2.081zM32.718 27.475a1.25 1.25 0 00.944 2.313.416.416 0 01.314.77 2.082 2.082 0 11-1.572-3.854.416.416 0 01.314.77zM30.883 32.303c-.535.27-.75.924-.478 1.46l-.743.376a1.919 1.919 0 113.424-1.734l-.743.376a1.086 1.086 0 00-1.46-.478z" fill="#333"/><circle cx="25.429" cy="24.643" r="17.5" stroke="#333" stroke-width="1.429"/><path stroke="#333" stroke-width="1.429" d="M13.495 36.995l24.286-24.286"/></svg>