<?xml version="1.0" encoding="utf-8"?><svg width="1920" height="642" fill="none" xmlns="http://www.w3.org/2000/svg" viewBox="0 0 1920 642"><g opacity=".1" clip-path="url(#adclip0_1943_6848)"><path d="M1403.91 575.06c30.73 0 55.64-24.898 55.64-55.611 0-30.713-24.91-55.611-55.64-55.611-30.72 0-55.63 24.898-55.63 55.611 0 30.713 24.91 55.611 55.63 55.611z" fill="#F3BD48" stroke="#F3BD48" stroke-width=".25" stroke-miterlimit="10"/><path d="M1572.11 528.333h-319.99v78.416h319.99v-78.416z" fill="#D8D6DF"/><path d="M1268.33 506.289l1.73-1.52 1.76 1.52a37.848 37.848 0 0024.73 9.195c9.08 0 17.85-3.264 24.73-9.195l1.76-1.52 1.73 1.52a37.899 37.899 0 0049.48 0l1.74-1.52 1.76 1.52a37.899 37.899 0 0049.48 0l1.73-1.52 1.76 1.52a37.867 37.867 0 0024.73 9.195c9.08 0 17.86-3.264 24.73-9.195l1.76-1.52 1.74 1.52a37.899 37.899 0 0049.48 0l1.73-1.52 1.76 1.52a38.043 38.043 0 0024.74 9.193v51.905a43.292 43.292 0 00-52.97 0 43.313 43.313 0 00-26.49-9.048c-9.59 0-18.91 3.183-26.49 9.048a43.247 43.247 0 00-52.95 0 43.292 43.292 0 00-26.49-9.048c-9.59 0-18.9 3.183-26.49 9.048a43.2 43.2 0 01-26.47-9.051 43.307 43.307 0 01-52.98 0 43.229 43.229 0 01-26.48 9.051v-51.905a38.07 38.07 0 0024.75-9.193z" fill="#D8D6DF"/><path d="M1243.58 513.986a36.394 36.394 0 0023.77-8.814l2.71-2.375 2.71 2.375a36.49 36.49 0 0047.53 0l2.71-2.375 2.71 2.375a36.456 36.456 0 0023.77 8.815 36.43 36.43 0 0023.76-8.815l2.71-2.375 2.74 2.375a36.43 36.43 0 0023.76 8.815c8.73 0 17.16-3.128 23.77-8.815l2.71-2.375 2.71 2.375a36.49 36.49 0 0047.53 0l2.71-2.375 2.71 2.375a36.456 36.456 0 0047.54 0l2.7-2.375 2.74 2.375a36.387 36.387 0 0023.76 8.814h1.48v8.243h-1.48a44.658 44.658 0 00-26.48-8.694c-9.54 0-18.82 3.046-26.49 8.694a44.71 44.71 0 00-26.49-8.694 44.71 44.71 0 00-26.49 8.694 44.647 44.647 0 00-52.95 0 44.71 44.71 0 00-26.49-8.694 44.71 44.71 0 00-26.49 8.694 44.838 44.838 0 01-26.47-8.695 44.71 44.71 0 01-26.49 8.694 44.71 44.71 0 01-26.49-8.694 44.879 44.879 0 01-26.47 8.695h-1.48v-8.243h1.52zM1269.66 529.806l2.71-2.375 2.7 2.375a36.385 36.385 0 0047.54 0l2.73-2.375 2.71 2.375a36.385 36.385 0 0023.77 8.838 36.36 36.36 0 0023.76-8.838l2.71-2.375 2.74 2.375a36.36 36.36 0 0023.76 8.838c8.73 0 17.17-3.137 23.77-8.838l2.71-2.375 2.71 2.375a36.366 36.366 0 0023.77 8.838 36.36 36.36 0 0023.76-8.838l2.74-2.375 2.71 2.375a36.36 36.36 0 0023.76 8.838c8.73 0 17.16-3.137 23.77-8.838l2.71-2.375 2.73 2.375a36.302 36.302 0 0023.77 8.837h1.47v8.219h-1.47a44.789 44.789 0 00-26.49-8.67c-9.53 0-18.81 3.037-26.49 8.67a44.789 44.789 0 00-52.97 0 44.778 44.778 0 00-26.48-8.673c-9.52 0-18.8 3.039-26.48 8.673a44.789 44.789 0 00-52.97 0 44.835 44.835 0 01-26.48-8.551 44.789 44.789 0 01-52.97 0 44.969 44.969 0 01-26.48 8.67h-1.47v-8.219h1.47a36.389 36.389 0 0023.77-8.956z" fill="#D8D6DF"/><path d="M1268.32 506.288l1.74-1.52 1.76 1.52a37.843 37.843 0 0024.73 9.196c9.08 0 17.85-3.264 24.73-9.196l1.75-1.52 1.74 1.52a37.9 37.9 0 0024.74 9.191 37.9 37.9 0 0024.74-9.191l1.74-1.52 1.76 1.52a37.86 37.86 0 0024.74 9.191 37.9 37.9 0 0024.74-9.191l1.73-1.52 1.76 1.52a37.843 37.843 0 0024.73 9.196c9.08 0 17.86-3.264 24.73-9.196l1.76-1.52 1.73 1.52a37.906 37.906 0 0049.49 0l1.73-1.52 1.76 1.52a38.03 38.03 0 0024.74 9.194v51.905a43.285 43.285 0 00-52.97 0 43.307 43.307 0 00-52.98 0 43.248 43.248 0 00-52.95 0 43.307 43.307 0 00-52.98 0 43.25 43.25 0 01-26.48-9.051 43.292 43.292 0 01-52.97 0 43.229 43.229 0 01-26.48 9.051v-51.905a38.03 38.03 0 0024.74-9.194z" fill="#D8D6DF"/><path d="M1561.39 521.919a44.712 44.712 0 01-26.31-8.623l-.19-.119-.17.119a44.408 44.408 0 01-26.31 8.626 44.4 44.4 0 01-26.3-8.626l-.17-.119-.19.119a44.411 44.411 0 01-26.3 8.623c-9.46 0-18.67-3.021-26.3-8.623l-.19-.119-.16.119a44.453 44.453 0 01-26.31 8.626c-9.47 0-18.69-3.022-26.31-8.626l-.19-.119-.17.119a44.43 44.43 0 01-26.31 8.626c-9.46 0-18.68-3.022-26.31-8.626l-.17-.119-.18.119a44.433 44.433 0 01-26.3 8.623c-9.46 0-18.68-3.021-26.3-8.623l-.19-.119-.17.119a44.667 44.667 0 01-26.31 8.623h-1.19v-7.625h1.19c8.8 0 17.3-3.161 23.96-8.908l2.52-2.186 2.52 2.186a36.706 36.706 0 0023.97 8.905c8.8 0 17.3-3.161 23.97-8.905l2.51-2.186 2.52 2.186a36.67 36.67 0 0047.92 0l2.52-2.186 2.54 2.186a36.67 36.67 0 0023.96 8.91c8.79 0 17.3-3.163 23.95-8.91l2.52-2.186 2.52 2.186a36.726 36.726 0 0023.97 8.905c8.8 0 17.31-3.161 23.97-8.905l2.52-2.186 2.52 2.186a36.663 36.663 0 0023.95 8.91c8.8 0 17.31-3.163 23.96-8.91l2.52-2.186 2.52 2.186a36.662 36.662 0 0023.98 8.908h1.17v7.625h-1.17z" fill="#163029"/><path d="M1534.89 503.604l2.38 2.019a37.026 37.026 0 0024.17 8.956h.88v7.127h-.88a44.355 44.355 0 01-26.14-8.576l-.36-.261-.33.261a44.126 44.126 0 01-26.15 8.584c-9.41 0-18.57-3.008-26.14-8.584l-.36-.261-.35.261a44.126 44.126 0 01-26.15 8.584c-9.4 0-18.57-3.008-26.14-8.584l-.36-.261-.35.261a44.126 44.126 0 01-26.15 8.584c-9.4 0-18.57-3.008-26.14-8.584l-.36-.261-.33.261a44.097 44.097 0 01-26.14 8.584c-9.41 0-18.57-3.008-26.15-8.584l-.35-.261-.36.261a44.097 44.097 0 01-26.14 8.584c-9.41 0-18.57-3.008-26.15-8.584l-.35-.261-.36.261a44.309 44.309 0 01-26.14 8.576h-.88v-7.127h.88a36.99 36.99 0 0024.14-8.956l2.38-2.019 2.38 2.019a37.052 37.052 0 0024.16 8.955c8.86 0 17.43-3.177 24.16-8.955l2.37-2.019 2.38 2.019a37.052 37.052 0 0024.16 8.955c8.86 0 17.43-3.177 24.16-8.955l2.37-2.019 2.38 2.019a37.071 37.071 0 0048.32 0l2.37-2.019 2.38 2.019a37.052 37.052 0 0024.16 8.955c8.87 0 17.44-3.177 24.16-8.955l2.38-2.019 2.37 2.019a37.054 37.054 0 0024.15 8.953c8.86 0 17.43-3.177 24.15-8.953l2.37-2.019m0-.784l-2.71 2.376a36.43 36.43 0 01-23.76 8.815c-8.73 0-17.16-3.128-23.77-8.815l-2.71-2.376-2.71 2.376a36.489 36.489 0 01-23.77 8.799c-8.72 0-17.15-3.121-23.76-8.799l-2.71-2.376-2.71 2.376a36.456 36.456 0 01-23.77 8.815 36.43 36.43 0 01-23.76-8.815l-2.74-2.376-2.71 2.376a36.43 36.43 0 01-23.76 8.815c-8.73 0-17.16-3.128-23.77-8.815l-2.71-2.376-2.71 2.376a36.489 36.489 0 01-23.77 8.799c-8.72 0-17.15-3.121-23.76-8.799l-2.71-2.376-2.71 2.376a36.412 36.412 0 01-23.77 8.813h-1.47v8.243h1.47a44.85 44.85 0 0026.48-8.694 128.085 128.085 0 0179.45 8.694 44.717 44.717 0 0126.49-8.694c9.53 0 18.81 3.047 26.49 8.694a44.653 44.653 0 0152.95 0 44.695 44.695 0 0152.97 0 44.717 44.717 0 0126.49-8.694c9.53 0 18.81 3.047 26.49 8.694h1.47v-8.243h-1.47a36.412 36.412 0 01-23.77-8.813l-2.73-2.376h-.05zM1563.67 546.577a44.684 44.684 0 01-26.28-8.623l-.19-.142-.17.142a44.43 44.43 0 01-26.31 8.626c-9.46 0-18.68-3.022-26.31-8.626l-.17-.142-.19.142a44.4 44.4 0 01-26.3 8.626c-9.47 0-18.69-3.022-26.31-8.626l-.17-.142-.17.142a44.408 44.408 0 01-26.31 8.626c-9.46 0-18.68-3.022-26.31-8.626l-.19-.142-.16.142a44.453 44.453 0 01-26.31 8.626c-9.47 0-18.69-3.022-26.31-8.626l-.17-.142-.19.142a44.43 44.43 0 01-26.31 8.626c-9.46 0-18.68-3.022-26.31-8.626l-.17-.142-.16.142a44.816 44.816 0 01-26.31 8.623h-1.19v-7.625h1.19c8.79-.01 17.29-3.17 23.96-8.908l2.51-2.186 2.52 2.186a36.72 36.72 0 0023.97 8.905c8.8 0 17.31-3.16 23.97-8.905l2.52-2.186 2.52 2.186a36.664 36.664 0 0023.96 8.91c8.79 0 17.3-3.162 23.95-8.91l2.52-2.186 2.52 2.186a36.72 36.72 0 0023.97 8.905c8.8 0 17.31-3.16 23.97-8.905l2.52-2.186 2.52 2.186a36.701 36.701 0 0023.97 8.905c8.8 0 17.3-3.16 23.97-8.905l2.51-2.186 2.52 2.186a36.664 36.664 0 0023.96 8.91c8.8 0 17.3-3.162 23.96-8.91l2.52-2.186 2.52 2.186a36.761 36.761 0 0023.95 8.908h1.19v7.625h-1.19z" fill="#163029"/><path d="M1325.34 528.262l2.38 1.995a36.937 36.937 0 0048.29 0l2.38-1.995 2.37 1.995a37 37 0 0048.32 0l2.38-1.995 2.38 1.995a36.955 36.955 0 0024.15 8.978 36.98 36.98 0 0024.16-8.978l2.38-1.995 2.38 1.995a36.98 36.98 0 0048.31 0l2.38-1.995 2.38 1.995a36.921 36.921 0 0024.17 8.98h.88v7.126h-.88a44.56 44.56 0 01-26.15-8.552l-.35-.261-.36.261a44.192 44.192 0 01-26.14 8.561c-9.41 0-18.56-2.999-26.15-8.561l-.33-.261-.35.261a44.221 44.221 0 01-26.15 8.561c-9.4 0-18.56-2.999-26.14-8.561l-.36-.261-.35.261a44.221 44.221 0 01-26.15 8.561c-9.4 0-18.56-2.999-26.14-8.561l-.36-.261-.35.261a44.2 44.2 0 01-52.29 0l-.33-.261-.36.261a44.2 44.2 0 01-52.29 0l-.35-.261-.36.261a44.439 44.439 0 01-26.14 8.552h-.88v-7.126h.88a36.899 36.899 0 0024.14-8.98l2.38-1.995 2.38 1.995a37 37 0 0048.32 0l2.37-1.995m211.86-.784l-2.71 2.376a36.39 36.39 0 01-23.77 8.837c-8.72 0-17.16-3.137-23.76-8.837l-2.71-2.376-2.74 2.376a36.37 36.37 0 01-47.53 0l-2.71-2.376-2.71 2.376a36.37 36.37 0 01-47.53 0l-2.74-2.376-2.71 2.376a36.364 36.364 0 01-23.76 8.837 36.39 36.39 0 01-23.77-8.837l-2.71-2.376-2.73 2.376a36.39 36.39 0 01-23.77 8.837c-8.72 0-17.16-3.137-23.76-8.837l-2.71-2.376-2.71 2.376a36.383 36.383 0 01-23.77 8.836h-1.47v8.22h1.47a44.97 44.97 0 0026.48-8.671 128.398 128.398 0 0179.45 8.671 44.783 44.783 0 0152.97 0 44.772 44.772 0 0126.48-8.674c9.52 0 18.8 3.039 26.48 8.674a44.783 44.783 0 0152.97 0 44.783 44.783 0 0126.49-8.671c9.53 0 18.81 3.037 26.49 8.671h1.47v-8.22h-1.47a36.301 36.301 0 01-23.77-8.836l-2.73-2.376z" fill="#163029"/><path d="M2039.44 665.472h-508.16v-139.3a54.184 54.184 0 014.11-20.801 54.275 54.275 0 0111.76-17.643 54.435 54.435 0 0117.63-11.791 54.39 54.39 0 0120.81-4.141h399.56a54.333 54.333 0 0138.39 15.907 54.268 54.268 0 0115.9 38.374v139.395z" fill="#5FBB52"/><path d="M1528.02 668.75V526.219a57.6 57.6 0 0116.88-40.662 57.661 57.661 0 0140.69-16.872h399.56a57.638 57.638 0 0140.68 16.872 57.558 57.558 0 0116.88 40.662V668.75h-514.69zm57.57-193.604a51.077 51.077 0 00-36.07 14.952 51.012 51.012 0 00-14.96 36.05v136.07h501.62v-136.07a51.012 51.012 0 00-14.96-36.05 51.095 51.095 0 00-36.07-14.952h-399.56z" fill="#163029"/><path d="M1985.15 468.922a57.333 57.333 0 0140.47 16.79 57.297 57.297 0 0116.79 40.46v142.27h-514.1v-142.27a57.336 57.336 0 0116.79-40.461 57.383 57.383 0 0140.49-16.789h399.56zm-450.9 193.581h502.21V526.172a51.33 51.33 0 00-15.04-36.26 51.388 51.388 0 00-36.27-15.051h-399.56a51.379 51.379 0 00-36.29 15.042 51.313 51.313 0 00-15.05 36.269v136.331zm450.9-194.175h-399.56a57.916 57.916 0 00-57.88 57.844v142.792H2043V526.172a57.849 57.849 0 00-16.96-40.879 57.919 57.919 0 00-40.89-16.965zm-450.31 193.51V526.172a50.803 50.803 0 0114.88-35.849 50.794 50.794 0 0135.87-14.868h399.56a50.786 50.786 0 0135.86 14.87 50.74 50.74 0 0114.86 35.847v135.666h-501.03z" fill="#163029"/><path d="M2039.79 563.396h-200.23v6.533h200.23v-6.533z" fill="#163029"/><path d="M2039.51 563.681v5.939h-199.64v-5.939h199.64zm.59-.594h-200.83v7.127h200.83v-7.127z" fill="#163029"/><path d="M204.194 575.06c30.728 0 55.638-24.898 55.638-55.611 0-30.713-24.91-55.611-55.638-55.611-30.727 0-55.637 24.898-55.637 55.611 0 30.713 24.91 55.611 55.637 55.611z" fill="#F3BD48" stroke="#F3BD48" stroke-width=".25" stroke-miterlimit="10"/><path d="M372.391 528.333H52.396v78.416h319.995v-78.416z" fill="#D8D6DF"/><path d="M68.582 506.289l1.758-1.52 1.735 1.52a37.893 37.893 0 0024.741 9.19 37.892 37.892 0 0024.741-9.19l1.735-1.52 1.759 1.52a37.849 37.849 0 0049.459 0l1.758-1.52 1.759 1.52a37.85 37.85 0 0049.459 0l1.758-1.52 1.735 1.52a37.896 37.896 0 0049.483 0l1.734-1.52 1.759 1.52a37.853 37.853 0 0049.459 0l1.758-1.52 1.759 1.52a37.849 37.849 0 0024.718 9.193v51.905a43.272 43.272 0 01-26.477-9.051 43.29 43.29 0 01-52.976 0 43.244 43.244 0 01-52.952 0 43.29 43.29 0 01-52.976 0 43.29 43.29 0 01-52.976 0 43.241 43.241 0 01-52.952 0 43.311 43.311 0 01-26.476 9.051v-51.905a37.847 37.847 0 0024.718-9.193z" fill="#D8D6DF"/><path d="M43.865 513.986a36.493 36.493 0 0023.767-8.814l2.709-2.375 2.71 2.375a36.445 36.445 0 0047.533 0l2.709-2.375 2.733 2.375a36.445 36.445 0 0047.534 0l2.709-2.375 2.709 2.375a36.493 36.493 0 0047.534 0l2.709-2.375 2.71 2.375a36.444 36.444 0 0047.533 0l2.71-2.375 2.732 2.375a36.449 36.449 0 0047.534 0l2.709-2.375 2.71 2.375a36.491 36.491 0 0023.766 8.814h1.498v8.243h-1.498a44.959 44.959 0 01-26.476-8.695 44.69 44.69 0 01-52.975 0 44.652 44.652 0 01-52.953 0 44.693 44.693 0 01-52.976 0 44.693 44.693 0 01-52.976 0 44.647 44.647 0 01-52.952 0 44.958 44.958 0 01-26.476 8.695h-1.497v-8.243h1.52zM69.912 529.806l2.734-2.375 2.71 2.375a36.373 36.373 0 0047.532 0l2.71-2.375 2.733 2.375a36.374 36.374 0 0047.533 0l2.71-2.375 2.709 2.375a36.374 36.374 0 0047.534 0l2.733-2.375 2.709 2.375a36.374 36.374 0 0047.534 0l2.709-2.375 2.709 2.375a36.4 36.4 0 0047.534 0l2.709-2.375 2.709 2.375a36.322 36.322 0 0023.767 8.837h1.474v8.219h-1.474a44.863 44.863 0 01-26.476-8.67 44.792 44.792 0 01-52.976 0 44.741 44.741 0 01-26.476 8.673c-9.524 0-18.8-3.038-26.476-8.673a44.794 44.794 0 01-52.976 0 44.792 44.792 0 01-52.976 0 44.742 44.742 0 01-52.952 0 44.93 44.93 0 01-26.5 8.67h-1.474v-8.219h1.474a36.301 36.301 0 0023.79-8.837z" fill="#D8D6DF"/><path d="M68.583 506.288l1.758-1.52 1.735 1.52a37.894 37.894 0 0049.482 0l1.735-1.52 1.759 1.52a37.845 37.845 0 0049.459 0l1.758-1.52 1.759 1.52a37.847 37.847 0 0049.459 0l1.758-1.52 1.735 1.52a37.897 37.897 0 0049.482 0l1.735-1.52 1.759 1.52a37.849 37.849 0 0049.459 0l1.758-1.52 1.759 1.52a37.85 37.85 0 0024.718 9.194v51.905a43.279 43.279 0 01-26.477-9.051 43.292 43.292 0 01-52.976 0 43.244 43.244 0 01-52.952 0 43.292 43.292 0 01-52.976 0 43.292 43.292 0 01-52.976 0 43.246 43.246 0 01-52.952 0 43.324 43.324 0 01-26.476 9.051v-51.905a37.848 37.848 0 0024.718-9.194z" fill="#D8D6DF"/><path d="M361.649 521.919a44.81 44.81 0 01-26.309-8.623l-.167-.119-.166.119a44.43 44.43 0 01-52.619 0l-.191-.119-.166.119a44.43 44.43 0 01-52.619 0l-.167-.119-.19.119a44.407 44.407 0 01-52.596 0l-.19-.119-.166.119a44.432 44.432 0 01-52.619 0l-.191-.119-.166.119a44.432 44.432 0 01-52.62 0l-.166-.119-.19.119a44.69 44.69 0 01-26.286 8.623h-1.188v-7.625h1.188a36.66 36.66 0 0023.957-8.908l2.52-2.186 2.518 2.186a36.662 36.662 0 0047.914 0l2.519-2.186 2.543 2.186a36.661 36.661 0 0047.914 0l2.519-2.186 2.52 2.186a36.709 36.709 0 0047.937 0l2.519-2.186 2.519 2.186a36.663 36.663 0 0047.914 0l2.519-2.186 2.52 2.186a36.709 36.709 0 0047.937 0l2.519-2.186 2.52 2.186a36.659 36.659 0 0023.956 8.908h1.189v7.625h-1.189z" fill="#163029"/><path d="M176.269 503.604l2.377 2.019a37.06 37.06 0 0048.317 0l2.377-2.019 2.377 2.019a37.063 37.063 0 0048.318 0l2.376-2.019 2.377 2.019a37.06 37.06 0 0048.317 0l2.377-2.019 2.377 2.019a37.016 37.016 0 0024.147 8.956h.903v7.127h-.903a44.319 44.319 0 01-26.144-8.576l-.356-.261-.357.261a44.101 44.101 0 01-52.286 0l-.357-.261-.332.261a44.102 44.102 0 01-52.287 0l-.357-.261-.356.261a44.102 44.102 0 01-52.287 0l-.357-.261-.356.261a44.101 44.101 0 01-52.287 0l-.356-.261-.333.261a44.101 44.101 0 01-52.287 0l-.356-.261-.357.261a44.316 44.316 0 01-26.143 8.576h-.903v-7.127h.903a37.016 37.016 0 0024.147-8.956l2.377-2.019 2.376 2.019a37.06 37.06 0 0048.318 0l2.377-2.019 2.376 2.019a37.063 37.063 0 0048.318 0l2.377-2.019m158.904-.784l-2.71 2.376a36.444 36.444 0 01-47.533 0l-2.733-2.376-2.71 2.376a36.444 36.444 0 01-47.533 0l-2.709-2.376-2.71 2.376a36.49 36.49 0 01-23.767 8.799 36.49 36.49 0 01-23.766-8.799l-2.71-2.376-2.709 2.376a36.445 36.445 0 01-47.533 0l-2.734-2.376-2.709 2.376a36.444 36.444 0 01-47.533 0l-2.71-2.376-2.71 2.376a36.492 36.492 0 01-23.766 8.813h-1.497v8.243h1.497a44.957 44.957 0 0026.476-8.694 44.648 44.648 0 0052.952 0 44.7 44.7 0 0052.976 0 44.699 44.699 0 0052.976 0 44.65 44.65 0 0052.953 0 44.697 44.697 0 0052.976 0 44.952 44.952 0 0026.475 8.694h1.498v-8.243h-1.498a36.49 36.49 0 01-23.766-8.813l-2.709-2.376h-.024zM363.955 546.577a44.806 44.806 0 01-26.309-8.623l-.167-.142-.19.142a44.407 44.407 0 01-52.596 0l-.19-.142-.166.142a44.435 44.435 0 01-52.62 0l-.166-.142-.19.142a44.435 44.435 0 01-52.62 0l-.166-.142-.19.142a44.41 44.41 0 01-52.596 0l-.19-.142-.166.142a44.435 44.435 0 01-52.62 0l-.166-.142-.19.142a44.688 44.688 0 01-26.31 8.623h-1.165v-7.625h1.165a36.8 36.8 0 0023.98-8.908l2.52-2.186 2.519 2.186a36.657 36.657 0 0023.957 8.91c8.797 0 17.3-3.162 23.957-8.91l2.519-2.186 2.519 2.186a36.706 36.706 0 0047.938 0l2.519-2.186 2.519 2.186a36.706 36.706 0 0047.938 0l2.519-2.186 2.519 2.186a36.656 36.656 0 0023.957 8.91c8.797 0 17.3-3.162 23.957-8.91l2.519-2.186 2.519 2.186a36.706 36.706 0 0047.938 0l2.519-2.186 2.519 2.186a36.734 36.734 0 0023.957 8.908h1.188v7.625h-1.188z" fill="#163029"/><path d="M125.599 528.262l2.377 1.995a36.992 36.992 0 0048.318 0l2.376-1.995 2.377 1.995a36.988 36.988 0 0048.317 0l2.377-1.995 2.377 1.995a36.94 36.94 0 0024.147 8.983 36.94 36.94 0 0024.147-8.983l2.377-1.995 2.376 1.995a36.99 36.99 0 0048.318 0l2.376-1.995 2.377 1.995a36.921 36.921 0 0024.147 8.98h.88v7.126h-.88a44.448 44.448 0 01-26.143-8.552l-.357-.261-.356.261a44.197 44.197 0 01-52.287 0l-.357-.261-.356.261a44.194 44.194 0 01-52.287 0l-.332-.261-.357.261a44.194 44.194 0 01-52.287 0l-.356-.261-.357.261a44.194 44.194 0 01-52.286 0l-.357-.261-.356.261a44.197 44.197 0 01-52.287 0l-.333-.261-.356.261a44.525 44.525 0 01-26.144 8.552h-.88v-7.126h.88a36.945 36.945 0 0024.171-8.98l2.377-1.995 2.376 1.995a36.94 36.94 0 0024.147 8.983 36.94 36.94 0 0024.147-8.983l2.377-1.995m211.88-.784l-2.709 2.376a36.4 36.4 0 01-47.534 0l-2.709-2.376-2.71 2.376a36.375 36.375 0 01-47.533 0l-2.709-2.376-2.733 2.376a36.38 36.38 0 01-47.534 0l-2.709-2.376-2.71 2.376a36.375 36.375 0 01-47.533 0l-2.733-2.376-2.71 2.376a36.376 36.376 0 01-47.533 0l-2.71-2.376-2.733 2.376A36.3 36.3 0 0146.6 538.69h-1.474v8.22h1.474a44.937 44.937 0 0026-8.6 44.743 44.743 0 0052.953 0 44.784 44.784 0 0026.488 8.671 44.783 44.783 0 0026.487-8.671 44.788 44.788 0 0052.977 0 44.74 44.74 0 0052.952 0 44.788 44.788 0 0052.976 0 44.853 44.853 0 0026.476 8.671h1.473v-8.219h-1.473a36.328 36.328 0 01-23.767-8.837l-2.709-2.376.475-.071z" fill="#163029"/><path d="M1250.98 594.8h553.26a48.65 48.65 0 0118.61 3.7 48.555 48.555 0 0115.77 10.536 48.65 48.65 0 0110.55 15.768 48.651 48.651 0 013.7 18.599v26.939h-650.59v-26.844a48.493 48.493 0 013.68-18.645 48.621 48.621 0 0110.55-15.809 48.724 48.724 0 0115.81-10.555 48.7 48.7 0 0118.66-3.689z" fill="#3E9831"/><path d="M1199.14 673.715v-30.216a51.905 51.905 0 0115.22-36.648 51.948 51.948 0 0136.66-15.21h553.36a51.971 51.971 0 0136.67 15.21 51.896 51.896 0 0115.21 36.648v30.216h-657.12zm51.88-75.517a45.4 45.4 0 00-32.05 13.289 45.35 45.35 0 00-13.29 32.035v23.755h644.07v-23.755a45.35 45.35 0 00-13.29-32.035 45.4 45.4 0 00-32.05-13.289h-553.39z" fill="#163029"/><path d="M1804.26 591.95a51.634 51.634 0 0136.46 15.112 51.571 51.571 0 0115.12 36.437v29.907h-656.53v-29.907a51.618 51.618 0 0115.13-36.438 51.655 51.655 0 0136.46-15.111h553.36zm-598.92 75.517h644.65v-23.968a45.616 45.616 0 00-13.38-32.238 45.673 45.673 0 00-32.25-13.372H1250.9a45.713 45.713 0 00-32.26 13.371 45.665 45.665 0 00-13.39 32.239v23.968m598.92-76.016H1250.9c-13.84 0-27.12 5.49-36.93 15.265a52.246 52.246 0 00-15.35 36.877v30.502h657.72v-30.596a52.234 52.234 0 00-15.32-36.836 52.288 52.288 0 00-36.85-15.307v.095zm-598.42 75.517v-23.375a45.133 45.133 0 0113.26-31.838 45.189 45.189 0 0131.89-13.178h553.36a45.184 45.184 0 0131.82 13.22 45.109 45.109 0 0113.22 31.796v23.375h-643.55z" fill="#163029"/><path d="M1274.22 665.472H332.892v-139.3a54.236 54.236 0 014.106-20.801 54.292 54.292 0 0129.396-29.434 54.347 54.347 0 0120.805-4.141h832.711c14.41 0 28.22 5.719 38.4 15.899a54.247 54.247 0 0115.91 38.382v139.395z" fill="#3DAE2B"/><path d="M329.636 668.75V526.219a57.592 57.592 0 0116.88-40.662 57.645 57.645 0 0140.683-16.872h832.711a57.641 57.641 0 0140.72 16.813 57.6 57.6 0 0116.94 40.65v142.531l-947.934.071zm57.563-193.604a51.085 51.085 0 00-36.068 14.952 51.032 51.032 0 00-14.959 36.05v136.07h934.768v-136.07a51.012 51.012 0 00-14.96-36.05 51.095 51.095 0 00-36.07-14.952H387.199z" fill="#163029"/><path d="M1219.91 468.922a57.36 57.36 0 0140.48 16.789 57.304 57.304 0 0116.8 40.461v142.27H329.92v-142.27a57.31 57.31 0 0116.797-40.461 57.367 57.367 0 0140.481-16.789h832.712zM335.79 662.503h935.39V526.172a51.398 51.398 0 00-15.05-36.269 51.414 51.414 0 00-36.29-15.042H387.198a51.394 51.394 0 00-36.287 15.042 51.346 51.346 0 00-15.049 36.269v136.331m884.118-194.175H387.198a57.96 57.96 0 00-40.932 16.946 57.902 57.902 0 00-16.988 40.898v142.792h948.462V526.172a57.916 57.916 0 00-57.88-57.844h.12zm-883.572 193.51V526.172a50.757 50.757 0 0114.876-35.849 50.8 50.8 0 0135.866-14.868h832.71a50.794 50.794 0 0135.87 14.868 50.803 50.803 0 0114.88 35.849v135.666H336.408z" fill="#163029"/><path d="M681.002 594.919H54.394v70.553h626.608v-70.553z" fill="#8ACB78"/><path d="M51.208 668.75v-77.109h633.145v77.109H51.208zm6.536-6.532h620.073v-64.139H57.744v64.139z" fill="#163029"/><path d="M683.973 591.95v76.491H51.423V591.95h632.55zM57.364 662.503h620.667v-64.614H57.364v64.614zm627.203-71.147H50.828v77.608h633.739v-77.679.071zM57.958 661.837v-63.426h619.479v63.426H57.958z" fill="#163029"/><path d="M1274.22 665.472H332.891v-139.3a54.236 54.236 0 014.106-20.801 54.292 54.292 0 0129.396-29.434 54.347 54.347 0 0120.805-4.141h832.712c14.4 0 28.22 5.719 38.4 15.899a54.247 54.247 0 0115.91 38.382v139.395z" fill="#D8D6DF"/><path d="M329.635 668.75V526.219a57.592 57.592 0 0116.88-40.662 57.645 57.645 0 0140.683-16.872h832.712a57.641 57.641 0 0140.72 16.813 57.6 57.6 0 0116.94 40.65v142.531l-947.935.071zm57.563-193.604a51.085 51.085 0 00-36.068 14.952 51.032 51.032 0 00-14.959 36.05v136.07h934.769v-136.07a51.012 51.012 0 00-14.96-36.05 51.095 51.095 0 00-36.07-14.952H387.198z" fill="#163029"/><path d="M1219.91 468.922a57.36 57.36 0 0140.48 16.789 57.304 57.304 0 0116.8 40.461v142.27H329.92v-142.27a57.31 57.31 0 0116.797-40.461 57.367 57.367 0 0140.481-16.789h832.712zM335.79 662.503h935.39V526.172a51.398 51.398 0 00-15.05-36.269 51.414 51.414 0 00-36.29-15.042H387.198a51.394 51.394 0 00-36.287 15.042 51.346 51.346 0 00-15.049 36.269v136.331m884.118-194.175H387.198a57.96 57.96 0 00-40.932 16.946 57.902 57.902 0 00-16.988 40.898v142.792h948.462V526.172a57.916 57.916 0 00-57.88-57.844h.12zm-883.572 193.51V526.172a50.757 50.757 0 0114.876-35.849 50.8 50.8 0 0135.866-14.868h832.71a50.794 50.794 0 0135.87 14.868 50.803 50.803 0 0114.88 35.849v135.666H336.408z" fill="#163029"/><path d="M1223.72 563.396H641.193v6.533h582.527v-6.533z" fill="#163029"/><path d="M1223.43 563.681v5.939H641.501v-5.939h581.929zm.59-.594H640.907v7.127h583.113v-7.127zM691.554 472.176h-6.535v41.976h6.535v-41.976z" fill="#163029"/><path d="M691.269 472.485v41.382h-5.941v-41.382h5.941zm.594-.594h-7.13v42.665h7.13v-42.76.095z" fill="#163029"/><path d="M748.262 594.919c-17.136 0-32.584-14.11-43.493-28.268h31.99c-15.52 0-29.352-8.125-38.217-22.093h27.118c-20.63 0-37.361-18.196-37.361-43.59 0 25.394-16.637 43.59-37.386 43.59h27.118c-8.865 13.968-22.673 22.093-38.217 22.093h32.014c-10.933 14.253-26.381 28.268-43.493 28.268h52.691v67.132h14.569v-67.132h52.667z" fill="#3DAE2B"/><path d="M677.746 665.306v-67.132h-49.007v-6.533c11.456-.119 23.767-7.459 35.888-21.237l.428-.475h-24.837v-6.533a40.87 40.87 0 0031.135-15.084l.428-.499h-20.44v-6.533c19.204-.166 33.678-17.293 33.797-40.027h6.535c.143 22.852 14.759 40.027 34.106 40.027h2.139v6.533H705.03l.428.499a40.85 40.85 0 0031.135 15.084v6.533h-24.837l.428.475c12.216 13.968 24.29 21.118 35.888 21.237v6.533h-49.221v67.132h-21.105zm6.536-6.533h8.033v-67.132h34.343l-.879-.546a93.155 93.155 0 01-23.601-22.449l-4.064-5.25h14.902l-.856-.546a52.278 52.278 0 01-16.375-16.629l-3.185-5.012h11.717l-.736-.546a43.474 43.474 0 01-15.021-19.955l-.261-.712-.286.712a43.332 43.332 0 01-15.02 19.955l-.737.546h11.717l-3.161 5.012a52.411 52.411 0 01-16.375 16.629l-.879.546h14.901l-4.064 5.25a92.394 92.394 0 01-23.6 22.449l-.88.546h34.367v67.132z" fill="#163029"/><path d="M691.269 501.562c.238 22.852 14.949 40.027 34.39 40.027h1.854v5.939h-23.244l.832.974a41.207 41.207 0 0031.063 15.179v5.939h-25.193l.88.998c12.145 13.92 24.194 21.094 35.816 21.379v5.939h-49.126v67.132h-20.51v-67.179h-49.102v-5.939c11.598-.238 23.767-7.412 35.816-21.38l.856-.998h-25.193v-5.938a41.174 41.174 0 0031.063-15.18l.832-.974h-20.796v-5.962c19.156-.333 33.559-17.389 33.82-40.004h5.942m-19.94 40.027h12.121l-2.9 4.562a52.267 52.267 0 01-16.28 16.438l-1.759 1.093h15.354l-3.684 4.751a93.098 93.098 0 01-23.553 22.377l-1.759 1.093h35.103v67.132h8.628V591.95h35.103l-1.758-1.093a93.415 93.415 0 01-23.53-22.377l-3.707-4.751h15.353l-1.759-1.093a52.466 52.466 0 01-16.28-16.438l-2.876-4.561h12.098l-1.498-1.093a43.14 43.14 0 01-14.901-19.812l-.547-1.449-.571 1.449a43.14 43.14 0 01-14.901 19.812l-1.497 1.093m20.534-40.622h-7.13c0 22.805-14.545 40.028-33.82 40.028v7.126h20.107a40.562 40.562 0 01-13.926 10.976 40.594 40.594 0 01-17.28 3.99v7.126h24.575c-9.317 10.667-22.008 21.142-35.959 21.142v7.127h49.102v67.132h21.699v-67.179h49.125v-7.127c-13.951 0-26.666-10.476-35.959-21.142h24.456v-7.127a40.577 40.577 0 01-31.205-14.965h22.554v-7.127h-2.376c-19.275 0-33.797-17.222-33.797-40.027l-.166.047zm-18.681 40.028a44.022 44.022 0 0015.116-20.097 43.717 43.717 0 0015.116 20.097h-11.361l3.47 5.463a52.667 52.667 0 0016.47 16.629h-14.474l4.421 5.749a95.15 95.15 0 0023.767 22.519h-33.63v67.132h-7.439v-67.179h-33.606a95.487 95.487 0 0023.767-22.52l4.444-5.749h-14.498a52.674 52.674 0 0016.47-16.628l3.471-5.464-11.504.048z" fill="#163029"/><path d="M1199.83 566.817h3.45a10.82 10.82 0 01-2.12-6.39v-6.556c0-2.873 1.14-5.628 3.17-7.66a10.861 10.861 0 017.67-3.173h4.89a11.09 11.09 0 01-2.37-6.77c0-6.723 6.15-12.163 13.78-12.163h6.49c7.63 0 13.78 5.44 13.78 12.163a11.09 11.09 0 01-2.37 6.77h4.89c2.88 0 5.63 1.142 7.67 3.173a10.838 10.838 0 013.17 7.66v6.556c-.01 2.3-.75 4.538-2.11 6.39h3.49c2.87 0 5.63 1.141 7.66 3.173a10.803 10.803 0 013.18 7.66v6.556a10.797 10.797 0 01-.84 4.12 10.533 10.533 0 01-2.35 3.482c-1.01.994-2.2 1.779-3.52 2.309-1.31.53-2.71.794-4.13.779h-22.58v75.541h-18.39v-75.541h-22.58a10.78 10.78 0 01-4.14-.779 10.753 10.753 0 01-5.87-5.791 10.787 10.787 0 01-.83-4.12v-6.556a10.805 10.805 0 013.2-7.685 10.825 10.825 0 017.71-3.148z" fill="#8ACB78"/><path d="M1219.15 673.715v-75.541h-19.3a14.032 14.032 0 01-9.93-4.07 14.013 14.013 0 01-4.16-9.898v-6.557c.03-3.406 1.27-6.69 3.51-9.257a14.288 14.288 0 018.71-4.734h.3v-.333c-.19-.946-.28-1.909-.28-2.874v-6.557a14.097 14.097 0 0113.47-14.087h.34v-.332a14.013 14.013 0 01-.36-3.16c0-8.528 7.65-15.44 17.07-15.44h6.27c9.51 0 17.06 6.912 17.06 15.44a14.6 14.6 0 01-.35 3.16v.332h.35c3.63.16 7.06 1.715 9.56 4.34a14.052 14.052 0 013.9 9.747v6.557c0 .965-.1 1.928-.29 2.874v.333h.31a14.263 14.263 0 0112.22 13.991v6.557a14.055 14.055 0 01-4.16 9.898 14.055 14.055 0 01-9.94 4.07h-19.3v75.541h-25zm6.51-6.533h11.89v-75.541h25.76a7.4 7.4 0 002.88-.531 7.502 7.502 0 002.46-1.604 7.459 7.459 0 002.22-5.3v-6.557a7.58 7.58 0 00-.57-2.898 7.468 7.468 0 00-1.64-2.459 7.496 7.496 0 00-2.45-1.643 7.598 7.598 0 00-2.9-.578h-9.89l3.81-5.202a7.474 7.474 0 001.47-4.442v-6.557a7.58 7.58 0 00-2.21-5.341 7.567 7.567 0 00-5.35-2.213h-11.48l4-5.25a7.933 7.933 0 001.66-4.751c0-4.917-4.75-8.908-10.53-8.908h-6.51c-5.8 0-10.53 3.991-10.53 8.908.02 1.723.6 3.392 1.66 4.751l4 5.25h-11.48c-2.01 0-3.93.796-5.35 2.213a7.538 7.538 0 00-2.21 5.341v6.557c0 1.601.52 3.158 1.47 4.442l3.83 5.202h-9.91a7.599 7.599 0 00-5.35 2.228 7.604 7.604 0 00-2.21 5.35v6.557a7.462 7.462 0 002.22 5.3 7.46 7.46 0 002.45 1.604c.92.366 1.9.547 2.89.531h25.83l.07 75.541z" fill="#163029"/><path d="M1234.79 521.136c9.25 0 16.64 6.77 16.64 15.132.01 1.039-.11 2.075-.34 3.088l-.16.689h.71c3.55.153 6.91 1.672 9.37 4.24a13.818 13.818 0 013.82 9.538v6.556c0 .951-.1 1.9-.31 2.827l-.12.618h.64a13.828 13.828 0 0111.89 13.683v6.556a13.762 13.762 0 01-4.08 9.681 13.77 13.77 0 01-9.73 3.978h-19.61v75.542h-24.31v-75.542h-19.61a13.77 13.77 0 01-9.73-3.978 13.804 13.804 0 01-4.08-9.681v-6.556a13.835 13.835 0 013.4-9.054 13.835 13.835 0 018.49-4.629h.64l-.12-.618c-.21-.927-.31-1.876-.31-2.827v-6.556c0-3.554 1.37-6.971 3.82-9.538a13.804 13.804 0 019.37-4.24h.71l-.16-.689c-.22-1.015-.33-2.05-.34-3.088 0-8.362 7.51-15.132 16.76-15.132h6.75zm-11.88 24.871h-10.89a7.884 7.884 0 00-5.55 2.31 7.886 7.886 0 00-2.32 5.553v6.557a7.89 7.89 0 001.55 4.751l3.47 4.751h-9.32a7.88 7.88 0 00-5.56 2.303 7.835 7.835 0 00-2.3 5.56v6.556c0 1.026.2 2.042.6 2.988.39.946.98 1.804 1.71 2.522a7.707 7.707 0 005.55 2.211h25.43v75.541h12.46v-75.541h25.57a7.695 7.695 0 005.55-2.211 7.665 7.665 0 001.72-2.522c.39-.946.6-1.962.6-2.988v-6.556c0-2.086-.83-4.086-2.31-5.56a7.845 7.845 0 00-5.56-2.303h-9.32l3.47-4.751a7.681 7.681 0 001.55-4.751v-6.557a7.919 7.919 0 00-2.31-5.553 7.908 7.908 0 00-5.56-2.31h-10.88l3.63-4.751a8.19 8.19 0 001.71-4.964c0-5.084-4.75-9.194-10.81-9.194h-6.51c-5.97 0-10.82 4.11-10.82 9.194a8.319 8.319 0 001.71 4.964l3.64 4.751m11.88-25.465h-6.51c-9.5 0-17.35 7.127-17.35 15.726 0 1.087.12 2.17.36 3.231a14.403 14.403 0 00-13.76 14.253v6.556c0 .99.11 1.976.31 2.946a14.423 14.423 0 00-12.48 14.253v6.556c0 1.884.37 3.749 1.1 5.488a14.161 14.161 0 003.13 4.641 14.312 14.312 0 004.67 3.081c1.75.707 3.62 1.062 5.5 1.043h19.02v75.542h25.62v-75.542h19.01c1.88.019 3.75-.336 5.5-1.043a14.25 14.25 0 004.68-3.081 14.29 14.29 0 004.22-10.129v-6.556a14.389 14.389 0 00-3.57-9.461 14.4 14.4 0 00-8.9-4.792c.21-.968.31-1.956.3-2.946v-6.556a14.37 14.37 0 00-4.03-9.868 14.407 14.407 0 00-9.73-4.385c.24-1.061.36-2.144.36-3.231 0-8.671-7.77-15.726-17.35-15.726h-.1zm-35.03 70.79a7.103 7.103 0 01-2.77-.501 7.15 7.15 0 01-2.36-1.535 6.975 6.975 0 01-1.58-2.33 7.077 7.077 0 01-.56-2.76v-6.557a7.278 7.278 0 012.14-5.133 7.291 7.291 0 015.13-2.136h10.48l-4.16-5.677a7.308 7.308 0 01-1.42-4.276v-6.557c0-1.928.76-3.776 2.13-5.14a7.26 7.26 0 015.14-2.129h12.07l-4.34-5.725a7.557 7.557 0 01-1.6-4.608c0-4.751 4.59-8.599 10.22-8.599h6.61c5.66 0 10.22 3.848 10.22 8.599a7.61 7.61 0 01-1.59 4.608l-4.35 5.725h12.07c1.93 0 3.78.766 5.14 2.129a7.243 7.243 0 012.13 5.14v6.557a7.308 7.308 0 01-1.42 4.276l-4.16 5.677h10.48c1.93 0 3.78.766 5.14 2.129a7.241 7.241 0 012.13 5.14v6.557c0 .948-.19 1.886-.55 2.76a7.154 7.154 0 01-1.59 2.33 7.05 7.05 0 01-2.36 1.535c-.88.35-1.82.52-2.77.501h-26.14v75.542h-11.27v-75.542h-26.24z" fill="#163029"/><path d="M1223.69 591.641H695.856v6.533h527.834v-6.533z" fill="#163029"/><path d="M1223.43 591.95v5.939H696.165v-5.939h527.265zm.59-.594H695.571v7.126h528.449v-7.126z" fill="#163029"/><path d="M1541.38 594.919c.15-.942.23-1.895.24-2.85.01-3.259-.82-6.466-2.41-9.312a18.99 18.99 0 00-15.86-9.74c-3.26-.128-6.49.584-9.4 2.067a25.249 25.249 0 00-25.36-14.328 25.248 25.248 0 00-22 19.079 16.693 16.693 0 00-6.02-1.141c-4.3 0-8.42 1.707-11.46 4.746a16.198 16.198 0 00-4.75 11.456l97.02.023z" fill="#8ACB78"/><path d="M1441.2 598.173v-3.254c0-5.162 2.05-10.113 5.7-13.766a19.495 19.495 0 0113.77-5.713c1.15-.006 2.31.098 3.44.309h.24v-.238a28.312 28.312 0 0110.47-13.258 28.292 28.292 0 0116.15-4.938c4.83.021 9.57 1.258 13.8 3.595a28.771 28.771 0 0110.37 9.779l.12.19h.22a22.05 22.05 0 016.93-1.117 22.343 22.343 0 0115.79 6.547 22.369 22.369 0 016.56 15.783 21.814 21.814 0 01-.29 3.326l-.4 2.779-102.87-.024zm19.47-16.201a13 13 0 00-7.74 2.594 12.99 12.99 0 00-4.67 6.695l-.12.38h90.17v-.309a15.747 15.747 0 00-4.86-10.696 15.793 15.793 0 00-10.92-4.365c-2.48.002-4.92.597-7.13 1.734l-2.99 1.521-1.45-3.041a21.981 21.981 0 00-22.07-12.502c-4.52.45-8.79 2.289-12.22 5.264a22.022 22.022 0 00-6.95 11.348l-.88 3.61-3.47-1.354a13.274 13.274 0 00-4.8-.879h.1z" fill="#163029"/><path d="M1491.04 557.648a28.526 28.526 0 0123.94 13.231l.23.404.45-.143c2.21-.73 4.52-1.099 6.85-1.092a22.058 22.058 0 0115.57 6.456 22.016 22.016 0 016.46 15.565c0 1.105-.09 2.21-.26 3.302l-.38 2.518h-102.34v-2.97a19.224 19.224 0 015.62-13.548 19.234 19.234 0 0113.56-5.622c1.14-.004 2.28.099 3.4.309h.47l.19-.452a27.96 27.96 0 0110.34-13.13 27.955 27.955 0 0115.97-4.9m-22.43 26.131l-3.16-1.212a12.741 12.741 0 00-4.76-.902c-2.85.009-5.63.939-7.92 2.651a13.294 13.294 0 00-4.77 6.851l-.24.76h90.89v-.618a16.177 16.177 0 00-2.32-7.589 16.088 16.088 0 00-5.66-5.562 16.119 16.119 0 00-15.38-.46l-2.71 1.401-1.31-2.756a22.285 22.285 0 00-22.37-12.669 22.308 22.308 0 00-12.39 5.331 22.32 22.32 0 00-7.05 11.496l-.8 3.278m22.43-26.748a28.796 28.796 0 00-16.3 5.036 28.854 28.854 0 00-10.58 13.374 18.904 18.904 0 00-3.49-.309 19.823 19.823 0 00-13.98 5.796 19.828 19.828 0 00-5.8 13.968v3.563h103.51l.47-3.04c.17-1.117.25-2.244.26-3.373a22.4 22.4 0 00-2.51-10.239 22.607 22.607 0 00-6.88-7.99 22.603 22.603 0 00-9.75-4.003 22.655 22.655 0 00-10.52.852 28.963 28.963 0 00-10.48-9.889 29.047 29.047 0 00-13.95-3.628v-.118zm-22.03 27.556l.97-3.944a21.713 21.713 0 0118.91-16.383c4.46-.445 8.95.5 12.85 2.706a21.665 21.665 0 018.93 9.615l1.57 3.326 3.28-1.663a15.251 15.251 0 016.99-1.687c3.99.002 7.82 1.537 10.7 4.289a15.49 15.49 0 014.79 10.487h-89.45a12.608 12.608 0 012.44-4.559 12.634 12.634 0 019.08-4.487c1.75-.08 3.49.201 5.11.827l3.78 1.473h.05z" fill="#163029"/><path d="M1761.34 566.651c16.21 0 30.61-8.647 39.86-22.069h-28.29c21.54 0 38.98-19.764 38.98-44.161 0 24.397 17.42 44.161 38.96 44.161h-28.29c9.25 13.422 23.77 22.069 39.86 22.069h-43.35v28.268h-14.38v-28.268h-43.35z" fill="#8ACB78"/><path d="M1801.41 598.173v-28.244h-39.76v-6.533a44.134 44.134 0 0032.42-15.061l.45-.499h-21.39v-6.532c19.46-.19 35.24-18.292 35.39-40.598h6.53c.15 22.306 15.95 40.384 35.39 40.598v6.509h-21.39l.45.498a44.134 44.134 0 0032.42 15.061v6.533h-39.76v28.268h-20.75zm6.54-6.532h7.86v-28.245h22.2l-.93-.57a55.867 55.867 0 01-17.2-16.391l-3.52-5.131h13.1l-.79-.523a46.413 46.413 0 01-16.64-21.38l-.26-.689-.28.689a46.329 46.329 0 01-16.52 21.38l-.78.523h13.12l-3.55 5.131a55.52 55.52 0 01-17.2 16.391l-.93.57h22.2l.12 28.245z" fill="#163029"/><path d="M1814.86 501.015c.27 22.211 16 40.218 35.39 40.598v5.939h-21.67l.9.997a44.462 44.462 0 0014.58 10.961 44.448 44.448 0 0017.77 4.171v5.939h-39.79v28.269h-20.32V569.62h-39.78v-5.939a44.44 44.44 0 0017.76-4.171 44.359 44.359 0 0014.58-10.961l.91-.997h-21.68v-5.939c19.42-.38 35.13-18.387 35.39-40.598h5.96zm-21.55 40.598h13.5l-3.21 4.751a55.972 55.972 0 01-17.11 16.32l-1.86 1.092h22.94v28.269h8.43v-28.269h22.99l-1.83-1.092a55.698 55.698 0 01-17.14-16.32l-3.21-4.751h13.5l-1.57-1.093a45.943 45.943 0 01-16.4-21.189l-.54-1.426-.57 1.426a45.943 45.943 0 01-16.4 21.189l-1.57 1.093m22.1-41.192h-7.13c0 22.378-15.9 40.598-35.41 40.598v7.127h20.94a43.799 43.799 0 01-32.51 14.941v7.127h39.78v28.269h21.51v-28.269h39.79v-7.127a43.888 43.888 0 01-17.86-4.003 43.914 43.914 0 01-14.66-10.938h20.94v-7.127c-19.51 0-35.39-18.22-35.39-40.598zm-20.2 40.598a46.984 46.984 0 0016.64-21.38 46.758 46.758 0 0016.63 21.38h-12.71l3.83 5.582a56.519 56.519 0 0017.32 16.486h-21.39v28.269h-7.25v-28.269h-21.39a56.441 56.441 0 0017.33-16.486l3.82-5.582h-12.83z" fill="#163029"/><path d="M1704.87 538.311h3.47a10.683 10.683 0 01-2.14-6.414v-6.652a10.937 10.937 0 013.21-7.711 10.941 10.941 0 017.72-3.192h4.76a11.553 11.553 0 01-2.26-6.913 12.75 12.75 0 014.02-8.84 12.723 12.723 0 019.1-3.418h5.11c3.37-.109 6.64 1.12 9.1 3.417a12.685 12.685 0 014.04 8.841 11.677 11.677 0 01-2.23 6.818h5.18c2.89 0 5.67 1.147 7.72 3.192a10.895 10.895 0 013.21 7.711v6.604c0 2.341-.77 4.617-2.18 6.485a10.873 10.873 0 0110.36 10.856v6.581a10.9 10.9 0 01-.83 4.179 10.837 10.837 0 01-2.36 3.546 10.93 10.93 0 01-3.54 2.37c-1.33.549-2.75.832-4.18.832h-16.11v28.221h-18.52v-28.007h-22.72a10.896 10.896 0 01-4.17-.84 10.873 10.873 0 01-3.52-2.374 10.79 10.79 0 01-2.34-3.543 10.849 10.849 0 01-.81-4.171v-6.58a10.84 10.84 0 013.15-7.786 10.74 10.74 0 013.56-2.386c1.33-.552 2.76-.833 4.2-.826z" fill="#8ACB78"/><path d="M1724.38 598.174v-28.222h-19.46a14.275 14.275 0 01-9.98-4.233 14.192 14.192 0 01-4.11-10.02v-6.58a14.256 14.256 0 0112.21-14.063h.33v-.309c-.21-.959-.31-1.939-.3-2.922v-6.58a14.185 14.185 0 013.92-9.834 14.258 14.258 0 019.62-4.419h.36v-.356a14.426 14.426 0 01-.36-3.207 15.987 15.987 0 015-11.142 15.982 15.982 0 0111.4-4.37h5.11a15.55 15.55 0 016.96 1.212c2.19.933 4.14 2.359 5.7 4.167a15.544 15.544 0 013.26 6.26c.59 2.309.64 4.724.15 7.056v.356h.38c3.72.087 7.26 1.627 9.87 4.291a14.265 14.265 0 014.06 9.962v6.604c0 1.351-.2 2.695-.58 3.991v.238l.24.119a14.126 14.126 0 016.27 5.199 14.12 14.12 0 012.34 7.795v6.58c0 3.78-1.51 7.405-4.18 10.078a14.252 14.252 0 01-10.08 4.175h-12.86v28.174h-25.27zm6.54-6.533h11.88V563.42h19.4c2.03 0 3.97-.806 5.41-2.241a7.666 7.666 0 002.24-5.408v-6.581c0-1.958-.76-3.839-2.12-5.254a7.618 7.618 0 00-5.15-2.347l-6.11-.309 3.66-4.894a7.645 7.645 0 001.52-4.537v-6.604a7.682 7.682 0 00-2.25-5.393 7.647 7.647 0 00-5.4-2.232h-11.55l3.73-5.179a8.426 8.426 0 001.59-4.917 9.499 9.499 0 00-3.09-6.509 9.516 9.516 0 00-6.77-2.471h-5.11c-2.5-.097-4.93.79-6.77 2.471a9.51 9.51 0 00-3.1 6.509 8.518 8.518 0 001.62 4.917l3.71 5.179h-11.01c-2.02 0-3.96.802-5.4 2.232a7.682 7.682 0 00-2.25 5.393v6.604a7.572 7.572 0 001.5 4.49l3.8 5.202h-9.91a7.568 7.568 0 00-5.36 2.26 7.553 7.553 0 00-1.64 2.477 7.839 7.839 0 00-.56 2.912v6.581c0 .998.19 1.988.56 2.912.38.925.93 1.766 1.64 2.477a7.568 7.568 0 005.36 2.26h26l-.07 28.221z" fill="#163029"/><path d="M1737.93 492.297a15.696 15.696 0 0111.2 4.287 15.681 15.681 0 014.91 10.94c0 1.055-.11 2.107-.35 3.136l-.14.712h.71c3.63.081 7.1 1.575 9.65 4.165a13.95 13.95 0 014.01 9.708v6.604c.01 1.32-.19 2.633-.57 3.896l-.16.499.5.214a13.886 13.886 0 016.12 5.101 13.808 13.808 0 012.29 7.632v6.58a13.9 13.9 0 01-4.06 9.818 13.941 13.941 0 01-9.82 4.079h-13.14v28.221h-24.46v-28.221h-19.75a13.899 13.899 0 01-9.78-4.097 13.93 13.93 0 01-4.03-9.8v-6.58c0-3.338 1.19-6.567 3.38-9.093a13.87 13.87 0 018.51-4.662h.64l-.15-.617c-.19-.946-.3-1.909-.3-2.875v-6.699a13.792 13.792 0 013.85-9.596 13.871 13.871 0 019.43-4.253h.71l-.16-.689a13.773 13.773 0 01-.33-3.135 15.656 15.656 0 014.9-10.932 15.693 15.693 0 0111.19-4.295h5.11m-10.22 25.014h-10.37c-2.1 0-4.13.835-5.62 2.322a7.983 7.983 0 00-2.34 5.612v6.604c0 1.711.55 3.379 1.57 4.751l3.45 4.751h-9.32c-2.1.019-4.1.866-5.58 2.357a7.976 7.976 0 00-2.29 5.601v6.58c0 2.096.82 4.11 2.29 5.601a7.957 7.957 0 005.58 2.357h25.69v28.221h12.57v-28.387h19.02a7.972 7.972 0 007.94-7.958v-6.58a7.87 7.87 0 00-2.19-5.455 7.887 7.887 0 00-5.35-2.432l-5.56-.285 3.33-4.466a7.977 7.977 0 001.59-4.751v-6.557a7.98 7.98 0 00-2.34-5.611 7.95 7.95 0 00-5.62-2.323h-10.96l3.38-4.751a8.601 8.601 0 001.66-5.083 9.8 9.8 0 00-3.17-6.735 9.81 9.81 0 00-7-2.554h-5.11a9.771 9.771 0 00-6.99 2.555 9.752 9.752 0 00-3.16 6.734c0 1.828.58 3.609 1.66 5.083l3.38 4.751m10.22-25.608h-5.11a16.32 16.32 0 00-11.58 4.487 16.299 16.299 0 00-5.06 11.334c0 1.103.12 2.202.36 3.278-3.73.159-7.25 1.75-9.83 4.441a14.46 14.46 0 00-4.03 10.002v6.604c0 1.007.12 2.011.33 2.994a14.42 14.42 0 00-8.91 4.79 14.46 14.46 0 00-3.59 9.463v6.58c0 3.828 1.51 7.504 4.21 10.22a14.482 14.482 0 0010.2 4.27h19.15v28.222h25.65v-28.126h12.55a14.485 14.485 0 0010.23-4.253 14.505 14.505 0 004.24-10.238v-6.58a14.433 14.433 0 00-8.77-13.279c.39-1.319.59-2.687.59-4.063v-6.604a14.522 14.522 0 00-4.17-10.141 14.544 14.544 0 00-10.09-4.325c.24-1.069.36-2.16.36-3.255a16.257 16.257 0 00-5.06-11.334 16.32 16.32 0 00-11.58-4.487h-.09zm-33.06 71.432a7.313 7.313 0 01-5.16-2.177 7.374 7.374 0 01-1.58-2.384 7.27 7.27 0 01-.53-2.803v-6.58c-.01-.961.17-1.914.53-2.804a7.395 7.395 0 013.94-3.985 7.342 7.342 0 012.8-.575h10.5l-4.16-5.654a7.175 7.175 0 01-1.45-4.324v-6.604a7.386 7.386 0 012.17-5.191 7.365 7.365 0 015.2-2.149h11.74l-4.06-5.63a8.182 8.182 0 01-1.55-4.751 9.165 9.165 0 019.51-8.694h5.11a9.182 9.182 0 016.54 2.398 9.193 9.193 0 012.97 6.296 8.123 8.123 0 01-1.57 4.751l-4.04 5.63h12.12c1.95 0 3.82.773 5.2 2.149a7.386 7.386 0 012.17 5.191v6.604a7.277 7.277 0 01-1.48 4.348l-3.99 5.368 6.68.333c1.87.091 3.64.899 4.94 2.256a7.321 7.321 0 012.02 5.037v6.58c.01.966-.18 1.923-.55 2.816a7.406 7.406 0 01-1.59 2.39 7.273 7.273 0 01-2.39 1.597 7.34 7.34 0 01-2.81.561h-19.68v28.221h-11.38v-28.221h-26.17zM1726.31 475.145v-28.244h-39.76v-6.533a44.046 44.046 0 0017.8-4.095 44.01 44.01 0 0014.62-10.966l.45-.499h-21.39v-6.532c19.46-.167 35.24-18.292 35.39-40.598h6.53c.14 22.306 15.95 40.384 35.39 40.598v6.532h-21.39l.45.499a44.073 44.073 0 0014.61 10.966 44.092 44.092 0 0017.81 4.095v6.533h-39.76v28.244h-20.75zm6.54-6.532h7.86v-28.245h22.2l-.93-.546a56.23 56.23 0 01-17.2-16.415l-3.52-5.131h13.09l-.78-.523a46.346 46.346 0 01-16.64-21.379l-.26-.689-.28.689a46.33 46.33 0 01-16.52 21.379l-.79.523h13.12l-3.54 5.131a55.62 55.62 0 01-17.2 16.415l-.91.546h22.18l.12 28.245z" fill="#163029"/><path d="M1739.76 377.987c.26 22.211 16 40.218 35.39 40.598v5.939h-21.68l.91.997a44.359 44.359 0 0014.58 10.961 44.441 44.441 0 0017.76 4.172v5.938h-39.78v28.269h-20.32v-28.269h-39.79v-5.938a44.394 44.394 0 0017.77-4.168 44.446 44.446 0 0014.58-10.965l.9-.997h-21.67v-5.939c19.41-.38 35.12-18.387 35.41-40.598h5.94zm-21.39 40.598h13.48l-3.21 4.751a55.972 55.972 0 01-17.11 16.32l-1.86 1.092h22.98v28.269h8.37v-28.269H1764l-1.83-1.092a55.665 55.665 0 01-17.13-16.32l-3.21-4.751h13.45l-1.57-1.093a46.135 46.135 0 01-16.4-21.189l-.54-1.426-.57 1.426a45.757 45.757 0 01-16.4 21.189l-1.55 1.093m22.08-41.191h-7.13c0 22.377-15.88 40.597-35.41 40.597v7.127h20.94a43.802 43.802 0 01-32.52 14.942v7.126H1726v28.269h21.39v-28.269h39.78v-7.126a43.76 43.76 0 01-17.84-4 43.637 43.637 0 01-14.64-10.942h20.91v-7.127c-19.51 0-35.39-18.22-35.39-40.597h.12zm-20.2 40.597a47.05 47.05 0 0016.64-21.38 46.758 46.758 0 0016.63 21.38h-12.71l3.85 5.583a56.124 56.124 0 0017.3 16.486h-21.39v28.268h-7.13V440.06h-21.39a56.375 56.375 0 0017.3-16.486l3.83-5.583h-12.93z" fill="#163029"/><path d="M1799.3 475.146v-28.221h-12.86c-3.78 0-7.41-1.502-10.08-4.175a14.229 14.229 0 01-4.18-10.079v-6.604c-.01-2.771.81-5.482 2.34-7.794a14.109 14.109 0 016.26-5.2l.26-.118v-.238c-.37-1.296-.57-2.64-.57-3.991v-6.604c0-3.727 1.46-7.306 4.07-9.971a14.275 14.275 0 019.88-4.282h.36v-.356a15.712 15.712 0 01-.36-3.207 15.987 15.987 0 015-11.142 15.982 15.982 0 0111.4-4.37h5.11a16.022 16.022 0 0111.41 4.37 15.977 15.977 0 014.99 11.142c0 1.079-.12 2.155-.35 3.207v.356h.35c3.66.183 7.11 1.765 9.63 4.419a14.275 14.275 0 013.92 9.834v6.604c0 .983-.1 1.963-.31 2.922v.333h.31c3.39.485 6.49 2.172 8.74 4.754a14.228 14.228 0 013.5 9.309v6.604c0 3.755-1.48 7.359-4.13 10.028a14.25 14.25 0 01-9.99 4.225h-19.44v28.221l-25.26.024zm6.53-6.533h11.89v-28.221h25.97a7.601 7.601 0 007.01-4.715c.38-.923.58-1.912.57-2.911v-6.604a7.571 7.571 0 00-2.21-5.39 7.624 7.624 0 00-5.37-2.259h-9.91l3.8-5.202a7.358 7.358 0 001.5-4.49v-6.604c0-2.022-.8-3.962-2.23-5.392a7.63 7.63 0 00-5.4-2.233h-11.17l3.71-5.179a8.29 8.29 0 001.62-4.917 9.51 9.51 0 00-3.1-6.509 9.484 9.484 0 00-6.77-2.471h-5.11a9.516 9.516 0 00-6.77 2.471 9.499 9.499 0 00-3.09 6.509 8.29 8.29 0 001.62 4.917l3.7 5.179h-11.55a7.651 7.651 0 00-7.65 7.625v6.604c0 1.641.55 3.235 1.54 4.538l3.64 4.893-6.11.309c-1.95.097-3.8.939-5.15 2.353a7.659 7.659 0 00-2.12 5.248v6.604a7.684 7.684 0 002.25 5.394 7.651 7.651 0 005.4 2.232h19.4l.09 28.221z" fill="#163029"/><path d="M1815.84 369.269a15.712 15.712 0 0111.2 4.287 15.681 15.681 0 014.91 10.94c0 1.056-.12 2.108-.35 3.136l-.15.712h.69c3.58.142 6.96 1.664 9.44 4.247a13.807 13.807 0 013.85 9.603v6.604c0 .966-.1 1.93-.31 2.874l-.14.618h.64c3.3.48 6.32 2.135 8.51 4.661a13.86 13.86 0 013.37 9.093v6.604c.01 3.669-1.44 7.19-4.03 9.791a13.876 13.876 0 01-9.78 4.082h-19.75v28.221h-24.43V446.64h-13.17c-3.68-.007-7.2-1.47-9.8-4.071a13.88 13.88 0 01-4.08-9.802v-6.604c0-2.714.8-5.368 2.29-7.632a13.858 13.858 0 016.13-5.101l.5-.214-.17-.499a14.261 14.261 0 01-.55-3.896v-6.603a13.985 13.985 0 014-9.707 13.967 13.967 0 019.64-4.167h.72l-.14-.712c-.24-1.029-.36-2.08-.36-3.136a15.681 15.681 0 014.91-10.94 15.712 15.712 0 0111.2-4.287h5.11m-10.24 25.014h-10.96a7.944 7.944 0 00-7.94 7.935v6.603a7.706 7.706 0 001.6 4.751l3.3 4.466-5.56.285a7.901 7.901 0 00-5.34 2.439 7.858 7.858 0 00-2.19 5.448v6.604c0 2.103.84 4.117 2.33 5.604a7.943 7.943 0 005.6 2.33h19.02v28.221h12.55v-28.268h25.69a7.91 7.91 0 005.57-2.342 7.869 7.869 0 002.29-5.592v-6.604a7.846 7.846 0 00-2.28-5.599 7.891 7.891 0 00-5.58-2.336h-9.34l3.47-4.751a7.964 7.964 0 001.57-4.751v-6.604a7.969 7.969 0 00-2.34-5.603 7.944 7.944 0 00-5.6-2.331h-10.6l3.4-4.751a8.75 8.75 0 001.66-5.083 9.77 9.77 0 00-3.18-6.735 9.77 9.77 0 00-6.99-2.554h-5.11a9.81 9.81 0 00-7 2.554 9.759 9.759 0 00-3.17 6.735 8.68 8.68 0 001.66 5.083l3.37 4.751m10.25-25.608h-5.11a16.303 16.303 0 00-16.64 15.821c0 1.095.12 2.186.36 3.255-3.8.062-7.43 1.613-10.09 4.318a14.45 14.45 0 00-4.17 10.148v6.604c-.01 1.375.19 2.742.57 4.062a14.414 14.414 0 00-6.39 5.322 14.424 14.424 0 00-2.38 7.958v6.604c0 1.899.37 3.781 1.1 5.536.73 1.755 1.79 3.35 3.14 4.693a14.462 14.462 0 0010.23 4.237h12.57v28.222h25.63v-28.127h19.15a14.46 14.46 0 0010.2-4.255 14.418 14.418 0 004.2-10.211v-6.604a14.425 14.425 0 00-3.58-9.451 14.468 14.468 0 00-8.89-4.802c.2-.986.3-1.988.31-2.993v-6.604a14.478 14.478 0 00-4.03-9.988 14.519 14.519 0 00-9.81-4.456c.23-1.078.35-2.176.36-3.278a16.295 16.295 0 00-5.07-11.327 16.321 16.321 0 00-11.57-4.494l-.09-.19zm-29.4 71.432a7.379 7.379 0 01-5.19-2.157 7.404 7.404 0 01-2.16-5.183v-6.604c.01-1.88.74-3.687 2.04-5.045a7.305 7.305 0 014.95-2.248l6.66-.333-3.97-5.345a7.337 7.337 0 01-1.48-4.371v-6.604c0-.964.19-1.918.56-2.809a7.39 7.39 0 011.59-2.381 7.469 7.469 0 012.39-1.591 7.319 7.319 0 012.81-.559h12.12l-4.04-5.63a8.123 8.123 0 01-1.57-4.751 9.151 9.151 0 012.97-6.296 9.182 9.182 0 016.54-2.398h5.11a9.158 9.158 0 016.53 2.398 9.151 9.151 0 012.97 6.296 8.123 8.123 0 01-1.57 4.751l-4.04 5.63h11.74c1.95.006 3.81.782 5.19 2.157a7.363 7.363 0 012.16 5.183v6.604c0 1.561-.51 3.08-1.45 4.324l-4.16 5.677h10.5a7.333 7.333 0 015.17 2.161 7.34 7.34 0 011.57 2.38c.36.889.54 1.84.54 2.8v6.604c0 1.936-.76 3.796-2.12 5.172a7.327 7.327 0 01-5.16 2.168h-26.28v28.221h-11.36v-28.126l-19.56-.095z" fill="#163029"/><path fill-rule="evenodd" clip-rule="evenodd" d="M1673.64 521.801a75.137 75.137 0 00-25.53-19.043 75.196 75.196 0 00-31.14-6.753 75.196 75.196 0 00-31.14 6.753 75.137 75.137 0 00-25.53 19.043h113.34z" fill="#F3BD48"/><path d="M1560.39 524.96a3.157 3.157 0 01-2.86-1.852 3.156 3.156 0 01.49-3.374 78.284 78.284 0 0159.06-26.885c11.19 0 22.26 2.399 32.45 7.037a78.38 78.38 0 0126.61 19.848c.39.457.65 1.018.74 1.616a3.22 3.22 0 01-.26 1.758 3.14 3.14 0 01-1.16 1.345c-.5.329-1.09.505-1.7.507h-113.37zm56.66-25.798a71.724 71.724 0 00-48.67 19.004l-.57.499h98.51l-.57-.499a71.71 71.71 0 00-48.79-19.004h.09z" fill="#163029"/><path d="M1616.96 493.176a78.1 78.1 0 0132.33 7.02 78 78 0 0126.51 19.776c.36.416.59.925.67 1.469.08.544 0 1.098-.23 1.598-.22.5-.59.924-1.05 1.222-.46.299-1 .459-1.55.462h-113.25a2.895 2.895 0 01-2.61-1.687c-.23-.5-.31-1.055-.23-1.599.08-.543.32-1.052.68-1.465a78.009 78.009 0 0158.73-26.796zm-49.91 25.822h100.03l-1.14-1.045a72.248 72.248 0 00-48.89-19.052c-18.11 0-35.55 6.8-48.89 19.052l-1.11 1.045zm49.91-26.416a78.491 78.491 0 00-32.58 7.063 78.516 78.516 0 00-26.7 19.947c-.43.502-.7 1.117-.8 1.772-.09.655.01 1.323.28 1.925a3.54 3.54 0 001.27 1.471c.56.36 1.21.553 1.87.557h113.34a3.502 3.502 0 001.87-.557c.55-.359.99-.87 1.27-1.471.27-.602.37-1.27.28-1.925-.1-.655-.37-1.27-.8-1.772a78.635 78.635 0 00-59.3-27.01zm-48.49 25.822a71.633 71.633 0 0148.49-18.91 71.59 71.59 0 0148.48 18.91h-96.97z" fill="#163029"/><path d="M1620.21 485.812h-6.53v11.783h6.53v-11.783z" fill="#163029"/><path d="M1619.93 486.049v11.189h-5.94v-11.189h5.94zm.59-.593h-7.13v12.471h7.13v-12.471z" fill="#163029"/><path fill-rule="evenodd" clip-rule="evenodd" d="M1590.72 521.801a29.2 29.2 0 0010.77 11.956 29.263 29.263 0 0015.48 4.435c5.47 0 10.83-1.537 15.48-4.435a29.2 29.2 0 0010.77-11.956h-52.5z" fill="#F3BD48"/><path d="M1616.96 541.351a32.24 32.24 0 01-17.16-4.89 32.196 32.196 0 01-11.93-13.259l-2.24-4.561h62.7l-2.26 4.561a32.196 32.196 0 01-11.93 13.273 32.247 32.247 0 01-17.18 4.876zm-20.18-15.892a26.147 26.147 0 0031.37 7.038c3.5-1.65 6.58-4.054 9.03-7.038l.38-.499h-41.16l.38.499z" fill="#163029"/><path d="M1647.83 518.95l-2.04 4.11a32.045 32.045 0 01-11.84 13.108 32.084 32.084 0 01-33.96 0 32.045 32.045 0 01-11.84-13.108l-2.04-4.11h61.79m-30.89 16.368c3.91.017 7.78-.845 11.32-2.522a26.202 26.202 0 009.12-7.17l.78-.951h-42.42l.78.951a26.097 26.097 0 009.11 7.165 26.123 26.123 0 0011.31 2.527zm31.82-16.962h-63.62l2.37 4.965a32.693 32.693 0 0046.68 13.37 32.693 32.693 0 0012.05-13.37l2.38-4.965h.14zm-11.88 6.913a25.793 25.793 0 01-8.91 6.975 25.84 25.84 0 01-11.05 2.485 25.763 25.763 0 01-19.95-9.46h39.91z" fill="#163029"/><path fill-rule="evenodd" clip-rule="evenodd" d="M1560.39 521.801v1.425c-.08 2.014.25 4.023.97 5.908a14.964 14.964 0 008.13 8.457 14.957 14.957 0 0011.73 0 14.964 14.964 0 008.13-8.457c.72-1.885 1.05-3.894.97-5.908v-1.425h-29.93z" fill="#F3BD48"/><path d="M1575.18 541.351a18.14 18.14 0 01-12.8-5.324c-3.4-3.397-5.31-8-5.31-12.801v-1.71l1.78-2.875h34.03l.26 2.875v1.71a18.09 18.09 0 01-5.26 12.751 18.152 18.152 0 01-12.7 5.374zm-11.63-16.035c.57 2.66 2.04 5.045 4.15 6.756a11.911 11.911 0 007.48 2.644c2.72 0 5.36-.933 7.47-2.644a11.87 11.87 0 004.15-6.756v-.356h-23.36l.11.356z" fill="#163029"/><path d="M1592.67 518.95l.26 2.59v1.686a17.821 17.821 0 01-17.82 17.817 17.821 17.821 0 01-17.83-17.817v-1.568l1.66-2.708h33.59m-17.5 16.368c2.84-.001 5.58-.999 7.76-2.819a12.09 12.09 0 004.13-7.135l.14-.689h-24.08l.12.689c.5 2.79 1.96 5.316 4.14 7.135a12.058 12.058 0 007.75 2.819m18.04-16.962h-34.47l-1.9 3.112c-.03.586-.03 1.173 0 1.758 0 4.883 1.94 9.566 5.4 13.018a18.414 18.414 0 0013.02 5.393c4.89 0 9.57-1.94 13.03-5.393a18.417 18.417 0 005.39-13.018v-1.758l-.31-3.112h-.16zm-6.71 6.913a11.47 11.47 0 01-3.93 6.798 11.52 11.52 0 01-14.78 0 11.535 11.535 0 01-3.94-6.798h22.65z" fill="#163029"/><path fill-rule="evenodd" clip-rule="evenodd" d="M1673.64 521.801v1.425c.08 2.014-.25 4.023-.96 5.908a15.149 15.149 0 01-3.2 5.058 14.993 14.993 0 01-16.67 3.399 15.067 15.067 0 01-4.93-3.399 15.149 15.149 0 01-3.2-5.058 15.069 15.069 0 01-.96-5.908v-1.425h29.92z" fill="#F3BD48"/><path d="M1658.74 541.351a18.158 18.158 0 01-12.8-5.324c-3.39-3.397-5.3-8-5.31-12.801v-1.71l.28-2.875h34.02l1.92 3.041v1.591a18.124 18.124 0 01-5.33 12.771 18.155 18.155 0 01-12.78 5.307zm-11.6-16.035a11.903 11.903 0 004.16 6.719 11.881 11.881 0 007.45 2.626c2.71 0 5.34-.927 7.46-2.626 2.11-1.7 3.57-4.071 4.15-6.719v-.356H1647l.14.356z" fill="#163029"/><path d="M1674.83 518.95l1.66 2.708c.04.523.04 1.046 0 1.568a17.792 17.792 0 01-5.53 12.016 17.862 17.862 0 01-12.29 4.904c-4.58 0-8.98-1.755-12.29-4.904a17.847 17.847 0 01-5.54-12.016c-.03-.561-.03-1.125 0-1.686l.24-2.59h33.58m-16.09 16.368a12.098 12.098 0 0011.89-9.954v-.689h-24.08v.689a12.098 12.098 0 0011.88 9.954m16.43-16.962h-34.46l-.29 3.112v1.758c.17 4.772 2.19 9.29 5.63 12.605a18.434 18.434 0 0012.8 5.168c4.78 0 9.37-1.853 12.81-5.168a18.45 18.45 0 005.62-12.605v-1.758l-1.92-3.112h-.19zm-5.09 6.913a11.484 11.484 0 01-3.94 6.798 11.493 11.493 0 01-7.38 2.683c-2.7 0-5.32-.95-7.39-2.683a11.535 11.535 0 01-3.94-6.798h22.65zM1620.21 537.479h-6.53v25.988h6.53v-25.988z" fill="#163029"/><path d="M1619.93 537.788v25.394h-5.94v-25.394h5.94zm.59-.594h-7.13v26.582h7.13v-26.582z" fill="#163029"/><path d="M1640.58 560.498h-47.27v6.533h47.27v-6.533z" fill="#163029"/><path d="M1640.3 560.807v6.01h-46.63v-5.939h46.67m.6-.594h-47.87v7.127h47.87v-7.127zM1626.42 570.428h-18.92v6.532h18.92v-6.532z" fill="#163029"/><path d="M1626.13 570.713v5.938h-18.2v-5.938h18.32m.6-.594h-19.52v7.126h19.52v-7.126zM1571.44 574.704c-3.78 0-7.4-1.502-10.08-4.175a14.27 14.27 0 01-4.18-10.079v-15.939h6.54v15.939a7.684 7.684 0 002.25 5.394 7.669 7.669 0 005.4 2.232h15.21v6.533l-15.14.095z" fill="#163029"/><path d="M1563.51 544.915v15.63c0 2.105.83 4.123 2.32 5.611a7.944 7.944 0 005.61 2.324h14.91v5.939h-14.91c-3.67-.007-7.2-1.47-9.8-4.071-2.6-2.6-4.07-6.125-4.08-9.803v-15.63h5.95zm.59-.594h-7.13v16.224c0 1.9.38 3.782 1.1 5.537.73 1.755 1.8 3.35 3.14 4.693a14.414 14.414 0 004.7 3.136c1.75.727 3.63 1.101 5.53 1.101h15.5v-7.126h-15.5c-.96 0-1.91-.19-2.81-.559a7.319 7.319 0 01-3.97-3.973 7.318 7.318 0 01-.56-2.809v-16.224zM1580.14 577.792h-19.32v6.532h19.32v-6.532z" fill="#163029"/><path d="M1579.86 578.101v5.938h-18.73v-5.938h18.73zm.59-.594h-19.91v7.126h19.91v-7.126z" fill="#163029"/><path d="M1583.71 571.734h-6.54v22.995h6.54v-22.995z" fill="#163029"/><path d="M1583.42 572.043v22.401h-5.94v-22.401h5.94zm.6-.594h-7.13v23.589h7.13v-23.589zM1563.79 557.244h-6.53v37.509h6.53v-37.509z" fill="#163029"/><path d="M1563.51 557.528v36.916h-5.95v-36.916h5.95zm.59-.593h-7.13v38.008h7.13v-38.008zM1647.29 574.704v-6.533h15.21c2.02 0 3.96-.803 5.4-2.232a7.682 7.682 0 002.25-5.393v-15.94h6.53v15.94c0 3.78-1.5 7.405-4.17 10.078a14.275 14.275 0 01-10.09 4.175l-15.13-.095z" fill="#163029"/><path d="M1676.37 544.915v15.63a13.87 13.87 0 01-4.07 9.803 13.91 13.91 0 01-9.81 4.071h-14.92v-5.939h15.02a7.99 7.99 0 005.61-2.331 8.002 8.002 0 002.33-5.604v-15.63h5.94m.59-.594h-7.13v16.224a7.354 7.354 0 01-7.34 7.341h-15.52v7.126h15.52c3.84 0 7.52-1.524 10.23-4.237a14.44 14.44 0 004.24-10.23v-16.224zM1673.09 577.792h-19.32v6.532h19.32v-6.532z" fill="#163029"/><path d="M1672.81 578.101v5.938h-18.73v-5.938h18.73zm.59-.594h-19.91v7.126h19.91v-7.126z" fill="#163029"/><path d="M1656.74 571.734h-6.53v22.995h6.53v-22.995z" fill="#163029"/><path d="M1656.46 572.043v22.401h-5.94v-22.401h5.94zm.59-.594h-7.13v23.589h7.13v-23.589zM1676.66 557.244h-6.54v37.509h6.54v-37.509z" fill="#163029"/><path d="M1676.38 557.528v36.916h-5.95v-36.916h5.95zm.59-.593h-7.13v38.008h7.13v-38.008zM1629.98 564.061h-6.53v30.668h6.53v-30.668z" fill="#163029"/><path d="M1629.7 564.441v30.074h-5.94v-30.074h5.94zm.59-.594h-7.13v31.262h7.13v-31.333.071zM1610.07 564.061h-6.54v30.668h6.54v-30.668z" fill="#163029"/><path d="M1609.78 564.441v30.074h-5.94v-30.074h5.94zm.6-.594h-7.13v31.262h7.13v-31.333.071z" fill="#163029"/><path d="M1382.88 439.442c.15-.943.23-1.896.24-2.851.01-3.262-.82-6.472-2.41-9.322a18.937 18.937 0 00-6.66-6.949 19.034 19.034 0 00-9.22-2.793c-3.26-.125-6.5.591-9.4 2.079a25.263 25.263 0 00-10.41-11.185 25.259 25.259 0 00-28.98 2.907 25.269 25.269 0 00-7.98 13.029 15.89 15.89 0 00-5.84-1.116 16.188 16.188 0 00-16.21 16.201h96.87z" fill="#D8D6DF"/><path d="M1282.73 442.72v-3.278a19.48 19.48 0 015.71-13.767 19.54 19.54 0 0113.78-5.713c1.15.009 2.3.112 3.44.309h.24v-.214a28.263 28.263 0 0110.46-13.267 28.352 28.352 0 0116.16-4.953c4.83.024 9.57 1.262 13.79 3.599a28.718 28.718 0 0110.38 9.775l.14.191h.22a22.03 22.03 0 016.94-1.093 22.359 22.359 0 0115.77 6.54 22.312 22.312 0 016.54 15.766c0 1.114-.08 2.226-.26 3.326l-.4 2.803-102.91-.024zm19.49-16.225c-2.8.012-5.52.924-7.76 2.601a12.965 12.965 0 00-4.67 6.711v.38h89.98v-.309a15.801 15.801 0 00-4.87-10.695 15.778 15.778 0 00-10.91-4.365c-2.48-.007-4.93.58-7.13 1.71l-3.02 1.52-1.43-3.04a21.96 21.96 0 00-9.05-9.754 21.981 21.981 0 00-13.02-2.748 21.973 21.973 0 00-19.16 16.611l-.91 3.611-3.47-1.33a12.77 12.77 0 00-4.58-.903z" fill="#163029"/><path d="M1332.59 402.17a28.526 28.526 0 0123.93 13.256l.24.38.45-.143a22.048 22.048 0 0119.78 3.104 22.032 22.032 0 019.1 17.824c-.01 1.106-.1 2.209-.26 3.302l-.38 2.518h-102.41v-2.969c0-5.082 2.02-9.955 5.62-13.549a19.22 19.22 0 0113.56-5.621c1.13-.004 2.26.1 3.37.308h.5l.17-.451a27.977 27.977 0 0110.35-13.125 28.044 28.044 0 0115.98-4.905m-22.46 26.13l-3.14-1.235a13.226 13.226 0 00-10.64.451 13.26 13.26 0 00-4.28 3.354 13.146 13.146 0 00-2.57 4.795l-.21.76h90.86v-.618a16.021 16.021 0 00-4.95-10.903 16.035 16.035 0 00-11.12-4.443c-2.53-.002-5.02.601-7.27 1.758l-2.74 1.378-1.3-2.756a22.307 22.307 0 00-9.18-9.882c-4-2.269-8.61-3.242-13.19-2.787a22.308 22.308 0 00-12.39 5.331 22.32 22.32 0 00-7.05 11.496l-.81 3.301m22.46-26.771a28.778 28.778 0 00-16.3 5.032 28.797 28.797 0 00-10.58 13.378 19.256 19.256 0 00-3.49-.309 19.818 19.818 0 00-13.98 5.796 19.776 19.776 0 00-5.79 13.968v3.564h103.5l.45-3.041c.18-1.116.28-2.243.29-3.373a22.662 22.662 0 00-2.51-10.24 22.64 22.64 0 00-6.89-7.989 22.613 22.613 0 00-20.26-3.151 29.063 29.063 0 00-24.44-13.517v-.118zm-22.03 27.555l.98-3.943a21.624 21.624 0 016.86-11.185 21.686 21.686 0 0112.06-5.184 21.72 21.72 0 0112.84 2.713 21.717 21.717 0 018.92 9.618l1.57 3.302 3.26-1.663a15.491 15.491 0 017.46-1.681c2.59.073 5.12.793 7.35 2.096a15.439 15.439 0 015.45 5.359 15.406 15.406 0 012.22 7.315h-89.46c.5-1.67 1.33-3.22 2.46-4.553a12.543 12.543 0 014.07-3.19 12.604 12.604 0 015-1.295c1.74-.082 3.48.197 5.11.819l3.78 1.472h.07zM1256.58 392.501l-.69-2.375c-.88-3.986-.79-8.124.27-12.068 1.2-4.45 3.81-8.393 7.44-11.239a21.381 21.381 0 0112.69-4.558c3.36-.001 6.67.818 9.65 2.387a20.714 20.714 0 017.41 6.616l.14.167h.19a16.461 16.461 0 0114.29 2.804 16.386 16.386 0 014.75 5.766 16.4 16.4 0 011.71 7.274 15.76 15.76 0 01-.21 2.376l-.43 2.779-57.21.071zm19.71-23.755c-3.12.12-6.12 1.213-8.59 3.126a14.954 14.954 0 00-5.15 7.54c-.48 2.024-.7 4.098-.67 6.177v.285h45.92v-.333c-.27-1.527-.89-2.97-1.81-4.213a9.92 9.92 0 00-12.45-2.913l-2.99 1.52-1.43-3.041a14.286 14.286 0 00-5.26-5.871 14.248 14.248 0 00-7.57-2.182v-.095z" fill="#163029"/><path d="M1276.29 362.523a20.5 20.5 0 019.51 2.368 20.403 20.403 0 017.31 6.516l.24.356h.4c1.38-.379 2.81-.57 4.23-.57a16.19 16.19 0 0111.41 4.731 16.143 16.143 0 014.73 11.399c-.01.795-.07 1.589-.19 2.375l-.38 2.542h-56.73l-.64-2.138a25.24 25.24 0 01.26-11.877 21.099 21.099 0 017.34-11.084 21.09 21.09 0 0112.51-4.5m-14.69 23.755h46.56v-.688a10.207 10.207 0 00-3.47-6.098 10.16 10.16 0 00-6.59-2.407 10.05 10.05 0 00-4.58 1.117l-2.74 1.377-1.33-2.921a14.44 14.44 0 00-5.34-6.032 14.507 14.507 0 00-7.73-2.259 15.291 15.291 0 00-14.05 10.927 27.13 27.13 0 00-.64 6.224v.642M1276.38 362c-4.68.117-9.2 1.744-12.88 4.638a21.647 21.647 0 00-7.53 11.42 25.733 25.733 0 00-.27 12.211l.76 2.541h57.69l.45-3.04c.13-.825.21-1.659.21-2.495a16.71 16.71 0 00-4.91-11.723 16.74 16.74 0 00-11.73-4.905c-1.47-.006-2.94.194-4.37.594a21.122 21.122 0 00-7.53-6.705 21.132 21.132 0 00-9.79-2.441l-.1-.095zm-14.09 23.755c-.04-2.054.17-4.104.64-6.105a14.591 14.591 0 015.05-7.384 14.634 14.634 0 018.4-3.068c2.63.008 5.2.76 7.41 2.169a13.943 13.943 0 015.12 5.789l1.56 3.302 3.28-1.663a9.548 9.548 0 014.34-1.075 9.47 9.47 0 014.34 1.021 9.416 9.416 0 013.4 2.89 9.45 9.45 0 011.71 4.124h-45.25z" fill="#163029"/><path d="M732.124 459.159v-34.635a57.883 57.883 0 0116.964-40.865 57.932 57.932 0 0140.884-16.955H1150.8a57.924 57.924 0 0140.88 16.955 57.868 57.868 0 0116.97 40.865v34.635H732.124z" fill="#F3BD48"/><path d="M1150.8 367.012a57.607 57.607 0 0140.66 16.866 57.563 57.563 0 0116.88 40.645v34.327H732.41v-34.327a57.59 57.59 0 0116.889-40.647 57.65 57.65 0 0140.673-16.864H1150.8zm0-.594H789.972a58.167 58.167 0 00-41.114 17.018 58.116 58.116 0 00-17.043 41.087v34.921h477.115v-34.921a58.06 58.06 0 00-17.03-41.086 58.125 58.125 0 00-41.1-17.019z" fill="#F3BD48"/><path d="M342.968 594.919c.152-.942.231-1.895.238-2.85a19.004 19.004 0 00-9.068-16.271 19.013 19.013 0 00-18.62-.714 25.264 25.264 0 00-25.361-14.328 25.27 25.27 0 00-14.032 6.05 25.248 25.248 0 00-7.974 13.029 16.489 16.489 0 00-5.847-1.093 16.219 16.219 0 00-14.997 9.996 16.195 16.195 0 00-1.236 6.205l96.897-.024z" fill="#8ACB78"/><path d="M242.815 598.174v-3.255a19.501 19.501 0 015.716-13.767 19.516 19.516 0 0113.773-5.712 18.368 18.368 0 013.423.309h.261v-.238a28.315 28.315 0 0110.466-13.253 28.338 28.338 0 0116.153-4.943 28.76 28.76 0 0124.17 13.374v.19h.238a21.967 21.967 0 016.94-1.116 22.37 22.37 0 0115.775 6.555 22.348 22.348 0 016.542 15.774 24.67 24.67 0 01-.261 3.326l-.428 2.78-102.768-.024zm19.489-16.201a13.052 13.052 0 00-12.43 9.288v.38h90.171v-.309a15.721 15.721 0 00-7.806-12.931 15.732 15.732 0 00-15.105-.395l-2.995 1.52-1.426-3.041a22.117 22.117 0 00-8.131-9.159 22.146 22.146 0 00-11.761-3.431 21.925 21.925 0 00-13.575 4.613 21.898 21.898 0 00-7.815 12.016l-.904 3.61-3.47-1.354a13.165 13.165 0 00-4.753-.807z" fill="#163029"/><path d="M292.678 557.647a28.522 28.522 0 0123.91 13.232l.261.404.428-.143a21.654 21.654 0 016.868-1.093 22.064 22.064 0 0115.572 6.457 22.037 22.037 0 016.46 15.564 20.63 20.63 0 01-.261 3.255l-.381 2.542h-102.41v-2.97a19.189 19.189 0 015.633-13.557 19.207 19.207 0 0113.57-5.613 17.78 17.78 0 013.375.309h.475l.191-.452a27.984 27.984 0 0110.344-13.133 28.009 28.009 0 0115.989-4.897m-22.459 26.131l-3.138-1.212a12.804 12.804 0 00-4.753-.902 13.31 13.31 0 00-12.715 9.502l-.214.76h90.86v-.618a16.054 16.054 0 00-4.951-10.897 16.07 16.07 0 00-11.115-4.449 15.872 15.872 0 00-7.273 1.758l-2.733 1.378-1.307-2.756a22.304 22.304 0 00-34.76-7.338 22.28 22.28 0 00-7.046 11.496l-.808 3.278m22.46-26.748a28.743 28.743 0 00-16.304 5.028 28.722 28.722 0 00-10.577 13.382 19.297 19.297 0 00-3.493-.309 19.801 19.801 0 00-13.991 5.787 19.783 19.783 0 00-5.807 13.977v3.564h103.528l.451-3.041a22.04 22.04 0 00.286-3.373 22.61 22.61 0 00-19.149-22.232 22.627 22.627 0 00-10.512.852 29.047 29.047 0 00-24.432-13.517v-.118zm-22.032 27.556l.974-3.944a21.673 21.673 0 0118.896-16.397 21.679 21.679 0 0121.769 12.335l1.569 3.326 3.28-1.663a15.482 15.482 0 0114.813.415 15.469 15.469 0 017.67 12.674h-89.458a12.639 12.639 0 0111.529-9.038c1.741-.082 3.48.197 5.108.819l3.778 1.473h.072z" fill="#163029"/><path d="M562.977 566.651c16.185 0 30.587-8.647 39.833-22.069h-28.259c21.39 0 38.954-19.764 38.954-44.161 0 24.397 17.444 44.161 38.953 44.161h-28.282c9.245 13.422 23.767 22.069 39.857 22.069h-43.327v28.268h-14.403v-28.268h-43.326z" fill="#8ACB78"/><path d="M603.047 598.173v-28.244h-39.785v-6.533a44.129 44.129 0 0032.418-15.061l.451-.499h-21.39v-6.532c19.465-.19 35.27-18.292 35.389-40.598h6.726c.142 22.306 15.947 40.384 35.388 40.598v6.509h-21.271l.428.498a44.145 44.145 0 0032.442 15.061v6.533h-39.857v28.268h-20.939zm6.536-6.532h7.843v-28.245h22.198l-.903-.57a55.688 55.688 0 01-17.231-16.391l-3.517-5.131h13.143l-.784-.523a46.28 46.28 0 01-16.495-21.38l-.285-.689-.285.689a46.33 46.33 0 01-16.637 21.38l-.76.523h13.095l-3.517 5.131a55.948 55.948 0 01-17.231 16.391l-.903.57h22.198l.071 28.245z" fill="#163029"/><path d="M616.475 501.015c.285 22.211 15.995 40.218 35.389 40.598v5.939h-21.675l.903.997a44.45 44.45 0 0032.346 15.132v5.939h-39.761v28.269h-20.345V569.62h-39.761v-5.939a44.35 44.35 0 0032.322-15.132l.904-.997h-21.652v-5.939c19.394-.38 35.103-18.387 35.389-40.598h5.941zm-21.39 40.598h13.476l-3.208 4.751a55.62 55.62 0 01-17.113 16.32l-1.83 1.092h22.959v28.269h8.461v-28.269h22.792l-1.83-1.092a55.958 55.958 0 01-17.136-16.32l-3.184-4.751h13.475l-1.545-1.093a45.947 45.947 0 01-16.422-21.189l-.547-1.426-.547 1.426a45.94 45.94 0 01-16.422 21.189l-1.545 1.093m22.079-41.192h-7.13c0 22.378-15.876 40.598-35.388 40.598v7.127h20.914a43.73 43.73 0 01-32.489 14.941v7.127h39.762v28.269h21.532v-28.269h39.762v-7.127a43.737 43.737 0 01-32.489-14.941h20.915v-7.127c-19.513 0-35.389-18.22-35.389-40.598zm-20.201 40.598a46.83 46.83 0 0016.636-21.38 46.779 46.779 0 0016.637 21.38h-12.715l3.85 5.582a56.414 56.414 0 0017.302 16.486h-21.39v28.269h-7.273v-28.269h-21.39a56.414 56.414 0 0017.302-16.486l3.851-5.582h-12.81z" fill="#163029"/><path d="M506.483 538.31h3.422a10.852 10.852 0 01-2.115-6.413v-6.652a10.9 10.9 0 013.195-7.71 10.913 10.913 0 017.714-3.194h4.753a11.615 11.615 0 01-2.21-6.817 12.717 12.717 0 0113.12-12.258h5.133a12.715 12.715 0 0113.191 12.163c0 2.448-.774 4.835-2.211 6.817h5.181a10.94 10.94 0 017.707 3.201 10.92 10.92 0 013.202 7.703v6.604a10.808 10.808 0 01-2.186 6.485 10.89 10.89 0 017.368 3.349 10.877 10.877 0 013.018 7.507v6.58a10.934 10.934 0 01-10.933 10.928h-16.114v28.221h-18.514v-28.007h-22.721a10.868 10.868 0 01-10.034-6.757 10.862 10.862 0 01-.804-4.171v-6.58a10.87 10.87 0 013.122-7.76 10.86 10.86 0 017.716-3.239z" fill="#8ACB78"/><path d="M525.948 598.174v-28.221h-19.465a14.267 14.267 0 01-9.976-4.233 14.25 14.25 0 01-4.117-10.02v-6.581a14.25 14.25 0 013.501-9.308 14.263 14.263 0 018.739-4.755h.309v-.308c-.21-.96-.314-1.94-.309-2.922v-6.581a14.246 14.246 0 013.93-9.842 14.262 14.262 0 019.64-4.411h.333v-.356a14.602 14.602 0 01-.357-3.207 16.011 16.011 0 015.009-11.143 16.024 16.024 0 0111.414-4.369h5.11a15.997 15.997 0 0111.405 4.37 15.983 15.983 0 014.994 11.142 14.262 14.262 0 01-.356 3.183v.357h.356a14.258 14.258 0 0113.928 14.253v6.604a14.251 14.251 0 01-.714 4.109v.238l.238.119a14.086 14.086 0 018.604 12.994v6.58a14.25 14.25 0 01-4.177 10.078 14.262 14.262 0 01-10.083 4.175h-12.858v28.055h-25.098zm6.536-6.533h11.883V563.42h19.394a7.655 7.655 0 007.653-7.649v-6.58a7.625 7.625 0 00-7.249-7.602l-6.108-.309 3.636-4.893a7.605 7.605 0 001.522-4.538v-6.604a7.624 7.624 0 00-7.63-7.625h-11.55l3.707-5.179a8.447 8.447 0 001.616-4.917 9.506 9.506 0 00-9.863-8.979h-5.109a9.506 9.506 0 00-9.888 8.979 8.462 8.462 0 001.616 4.917l3.732 5.179h-11.171a7.654 7.654 0 00-7.652 7.625v6.604a7.553 7.553 0 001.497 4.49l3.826 5.202h-9.934a7.618 7.618 0 00-5.364 2.261 7.593 7.593 0 00-2.194 5.389v6.58a7.588 7.588 0 00.561 2.912 7.587 7.587 0 004.09 4.14c.92.388 1.908.591 2.907.597h26.001l.071 28.221z" fill="#163029"/><path d="M539.566 492.297a15.718 15.718 0 0111.189 4.295 15.699 15.699 0 014.901 10.932 15.442 15.442 0 01-.332 3.136l-.167.712h.737a13.982 13.982 0 019.634 4.173 13.965 13.965 0 014.008 9.7v6.604c.002 1.32-.19 2.633-.57 3.896l-.143.499.475.214a13.8 13.8 0 018.438 12.733v6.58a13.914 13.914 0 01-4.08 9.819 13.932 13.932 0 01-9.824 4.078h-13.143v28.221h-24.456v-28.221h-19.75a13.883 13.883 0 01-9.777-4.097 13.868 13.868 0 01-4.031-9.8v-6.58a13.873 13.873 0 0111.883-13.755h.642l-.143-.617a14.524 14.524 0 01-.285-2.875v-6.699a13.825 13.825 0 0113.262-13.849h.713l-.167-.689a15.292 15.292 0 01-.332-3.135 15.694 15.694 0 014.91-10.941 15.712 15.712 0 0111.204-4.286h5.109m-10.243 25.014h-10.576a7.96 7.96 0 00-7.938 7.934v6.604a7.886 7.886 0 001.544 4.751l3.47 4.751h-9.34a7.94 7.94 0 00-7.867 7.958v6.58a7.935 7.935 0 007.867 7.958h25.692v28.221h12.572v-28.387h19.014a7.967 7.967 0 007.356-4.913c.4-.965.606-2 .606-3.045v-6.58a7.908 7.908 0 00-2.199-5.456 7.919 7.919 0 00-5.359-2.431l-5.538-.285 3.304-4.466a7.792 7.792 0 001.592-4.751v-6.557a7.96 7.96 0 00-7.938-7.934h-10.98l3.375-4.751a8.626 8.626 0 001.664-5.083 9.765 9.765 0 00-10.149-9.289h-5.11a9.798 9.798 0 00-6.997 2.554 9.785 9.785 0 00-3.175 6.735 8.612 8.612 0 001.664 5.083l3.375 4.751m10.243-25.608h-5.11a16.31 16.31 0 00-11.578 4.487 16.289 16.289 0 00-5.058 11.334 15.05 15.05 0 00.356 3.278 14.477 14.477 0 00-9.814 4.449 14.46 14.46 0 00-4.018 9.994v6.604c-.006 1.006.098 2.01.309 2.994a14.464 14.464 0 00-12.502 14.253v6.58a14.469 14.469 0 0014.403 14.49h19.156v28.222h25.644v-28.126h12.549a14.532 14.532 0 0010.245-4.252 14.51 14.51 0 004.253-10.239v-6.58a14.44 14.44 0 00-8.794-13.279c.402-1.317.602-2.686.594-4.063v-6.604a14.507 14.507 0 00-4.177-10.141 14.523 14.523 0 00-10.083-4.325c.239-1.069.358-2.16.357-3.255a16.294 16.294 0 00-5.059-11.334 16.31 16.31 0 00-11.578-4.487h-.095zm-33.083 71.432a7.346 7.346 0 01-7.273-7.364v-6.58a7.34 7.34 0 017.273-7.364h10.719l-4.16-5.654a7.368 7.368 0 01-1.426-4.324v-6.604a7.34 7.34 0 017.344-7.34h11.741l-3.993-5.725a8.266 8.266 0 01-1.545-4.751 9.171 9.171 0 019.507-8.694h5.11a9.15 9.15 0 019.507 8.694 8.1 8.1 0 01-1.545 4.751l-4.064 5.63h12.144a7.37 7.37 0 017.344 7.341v6.603a7.128 7.128 0 01-1.473 4.348l-3.969 5.368 6.654.333a7.323 7.323 0 016.988 7.293v6.58a7.36 7.36 0 01-2.158 5.207 7.37 7.37 0 01-5.21 2.157h-19.679v28.221h-11.384v-28.126h-26.452zM527.945 475.145v-28.244h-39.786v-6.533a44.036 44.036 0 0032.418-15.061l.452-.499h-21.39v-6.532c19.465-.167 35.269-18.292 35.412-40.598h6.536c.118 22.306 15.923 40.384 35.388 40.598v6.532h-21.39l.452.499a44.036 44.036 0 0032.418 15.061v6.533h-39.786v28.244h-20.724zm6.535-6.532h7.844v-28.245h22.245l-.903-.546a56.049 56.049 0 01-17.231-16.415l-3.517-5.131h13.095l-.76-.523a46.158 46.158 0 01-16.637-21.379l-.19-.594-.285.688a46.16 46.16 0 01-16.518 21.38l-.761.523h13.096l-3.518 5.131a56.323 56.323 0 01-17.231 16.415l-.903.546h22.198l-.024 28.15z" fill="#163029"/><path d="M541.373 377.987c.285 22.211 15.995 40.218 35.388 40.598v5.939h-21.699l.903.997a44.44 44.44 0 0032.347 15.133v5.938H548.55v28.269h-20.344v-28.269h-39.69v-5.938a44.436 44.436 0 0032.346-15.133l.903-.997H500.09v-5.939c19.394-.38 35.103-18.387 35.389-40.598h5.941m-21.39 40.598h13.476l-3.209 4.751a55.605 55.605 0 01-17.112 16.32l-1.83 1.092h22.959v28.269h8.461v-28.269h22.959l-1.831-1.092a55.613 55.613 0 01-17.111-16.32l-3.209-4.751h13.476l-1.545-1.093a45.949 45.949 0 01-16.423-21.189l-.546-1.426-.547 1.426a45.949 45.949 0 01-16.423 21.189l-1.545 1.093zm22.08-41.191h-7.13c0 22.377-15.877 40.597-35.389 40.597v7.127h20.914a43.73 43.73 0 01-32.488 14.942v7.126h39.761v28.269h21.533v-28.269h39.762v-7.126a43.759 43.759 0 01-32.49-14.942h20.915v-7.127c-19.512 0-35.388-18.22-35.388-40.597zm-20.321 40.597a46.947 46.947 0 0016.637-21.38 46.945 46.945 0 0016.636 21.38h-12.715l3.85 5.583A56.157 56.157 0 00563.5 440.06h-21.39v28.268h-7.273V440.06h-21.39a56.164 56.164 0 0017.302-16.486l3.85-5.583h-12.81z" fill="#163029"/><path d="M600.909 475.146v-28.221h-12.858a14.262 14.262 0 01-10.083-4.175 14.246 14.246 0 01-4.177-10.078v-6.604a14.082 14.082 0 018.604-12.994l.237-.119v-.238a14.267 14.267 0 01-.594-3.99v-6.604a14.262 14.262 0 0113.951-14.254h.357v-.356a14.357 14.357 0 01-.357-3.207 15.983 15.983 0 014.994-11.142 16.004 16.004 0 0111.405-4.37h5.11a15.554 15.554 0 0112.655 5.397 15.53 15.53 0 013.411 13.322v.356h.357a14.267 14.267 0 019.64 4.411 14.252 14.252 0 013.931 9.843v6.604c-.007.981-.11 1.96-.309 2.921v.333h.309a14.258 14.258 0 0112.239 14.063v6.604a14.26 14.26 0 01-14.117 14.253h-19.441v28.221l-25.264.024zm6.536-6.533h11.883v-28.221h26.048a7.604 7.604 0 007.582-7.625v-6.604a7.625 7.625 0 00-7.582-7.649h-9.911l3.827-5.203a7.55 7.55 0 001.497-4.489v-6.604a7.65 7.65 0 00-7.653-7.626h-11.17l3.731-5.178a8.432 8.432 0 001.593-4.918 9.504 9.504 0 00-9.863-8.979h-5.11a9.509 9.509 0 00-9.863 8.979 8.45 8.45 0 001.616 4.918l3.708 5.178h-11.551a7.655 7.655 0 00-7.653 7.626v6.604a7.62 7.62 0 001.545 4.537l3.636 4.893-6.108.309a7.63 7.63 0 00-7.13 7.602v6.604a7.627 7.627 0 007.629 7.625h19.204l.095 28.221z" fill="#163029"/><path d="M617.45 369.269a15.713 15.713 0 0111.204 4.287 15.698 15.698 0 014.91 10.94 13.787 13.787 0 01-.356 3.136l-.143.712h.713a13.862 13.862 0 019.416 4.261 13.848 13.848 0 013.846 9.589v6.604c0 .965-.095 1.928-.285 2.874l-.143.618h.642a13.879 13.879 0 0111.883 13.754v6.604a13.874 13.874 0 01-13.832 13.873h-19.75v28.221h-24.432V446.64H587.98a13.905 13.905 0 01-13.904-13.873v-6.604a13.8 13.8 0 018.437-12.733l.476-.214-.143-.499a13.419 13.419 0 01-.57-3.896v-6.603a13.938 13.938 0 014.001-9.707 13.958 13.958 0 019.641-4.167h.737l-.167-.712a15.232 15.232 0 01-.332-3.136 15.699 15.699 0 014.901-10.932 15.718 15.718 0 0111.189-4.295h5.109m-10.219 25.014h-10.98a7.957 7.957 0 00-7.939 7.935v6.603a7.787 7.787 0 001.593 4.751l3.303 4.466-5.537.285a7.935 7.935 0 00-7.558 7.887v6.604a7.955 7.955 0 007.962 7.934h19.013v28.221h12.549v-28.268h25.834a7.943 7.943 0 005.583-2.341 7.932 7.932 0 002.308-5.593v-6.604a7.907 7.907 0 00-2.302-5.601 7.922 7.922 0 00-5.589-2.334h-9.316l3.47-4.751a7.881 7.881 0 001.544-4.751v-6.604a7.956 7.956 0 00-7.938-7.934H622.56l3.375-4.751a8.569 8.569 0 001.664-5.083 9.796 9.796 0 00-10.172-9.289h-5.11a9.765 9.765 0 00-10.149 9.289 8.576 8.576 0 001.664 5.083l3.375 4.751m10.22-25.608h-5.11a16.31 16.31 0 00-11.578 4.486 16.294 16.294 0 00-5.059 11.335 14.67 14.67 0 00.357 3.255 14.502 14.502 0 00-10.09 4.318 14.484 14.484 0 00-4.17 10.148v6.604a13.63 13.63 0 00.594 4.062 14.448 14.448 0 00-8.794 13.28v6.604a14.488 14.488 0 004.255 10.231 14.502 14.502 0 0010.243 4.235h12.549v28.222h25.739v-28.127h19.013a14.447 14.447 0 0014.427-14.466v-6.604a14.488 14.488 0 00-12.502-14.253c.211-.984.315-1.988.309-2.993v-6.604a14.485 14.485 0 00-4.024-9.988 14.506 14.506 0 00-9.808-4.456c.239-1.076.358-2.175.357-3.278a16.294 16.294 0 00-5.059-11.334 16.31 16.31 0 00-11.578-4.487l-.071-.19zm-29.376 71.432a7.369 7.369 0 01-7.368-7.34v-6.604a7.321 7.321 0 016.988-7.293l6.654-.333-3.969-5.368a7.128 7.128 0 01-1.473-4.348v-6.604a7.37 7.37 0 017.344-7.34h12.145l-4.065-5.63a8.1 8.1 0 01-1.545-4.751 9.15 9.15 0 019.507-8.694h5.11a9.171 9.171 0 019.507 8.694 8.266 8.266 0 01-1.545 4.751l-4.064 5.63h11.741a7.37 7.37 0 017.344 7.34v6.604a7.368 7.368 0 01-1.426 4.324l-4.16 5.677h10.6a7.332 7.332 0 015.169 2.16 7.312 7.312 0 012.127 5.181v6.604a7.343 7.343 0 01-7.296 7.34h-26.143v28.221h-11.361v-28.126l-19.821-.095z" fill="#163029"/><path fill-rule="evenodd" clip-rule="evenodd" d="M475.254 521.801a75.12 75.12 0 00-25.536-19.043 75.16 75.16 0 00-62.272 0 75.12 75.12 0 00-25.536 19.043h113.344z" fill="#F3BD48"/><path d="M361.91 524.96a3.16 3.16 0 01-2.376-5.226 78.268 78.268 0 01118.097 0 3.092 3.092 0 01.499 3.373 3.144 3.144 0 01-2.876 1.853H361.91zm56.684-25.798a71.775 71.775 0 00-48.698 19.004l-.57.499h98.513l-.571-.499a71.727 71.727 0 00-48.674-19.004z" fill="#163029"/><path d="M418.594 493.176a78.02 78.02 0 0158.822 26.796 2.849 2.849 0 01.452 3.064 2.894 2.894 0 01-2.614 1.687H361.91a2.872 2.872 0 01-2.602-1.684 2.877 2.877 0 01.439-3.067 78.055 78.055 0 0158.847-26.796zm-49.91 25.822h100.034l-1.117-1.045a72.247 72.247 0 00-97.776 0l-1.141 1.045zm49.91-26.416a78.65 78.65 0 00-59.298 27.01 3.47 3.47 0 002.614 5.725h113.344a3.469 3.469 0 003.415-3.953 3.459 3.459 0 00-.801-1.772 78.416 78.416 0 00-26.699-19.947 78.461 78.461 0 00-32.575-7.063zm-48.484 25.822a71.603 71.603 0 0148.484-18.91 71.605 71.605 0 0148.484 18.91H370.11z" fill="#163029"/><path d="M421.85 485.812h-6.536v11.783h6.536v-11.783z" fill="#163029"/><path d="M421.565 486.049v11.189h-5.942v-11.189h5.942zm.594-.593h-7.13v12.471h7.13v-12.471z" fill="#163029"/><path fill-rule="evenodd" clip-rule="evenodd" d="M392.332 521.801a29.218 29.218 0 0052.501 0h-52.501z" fill="#F3BD48"/><path d="M418.594 541.351a32.197 32.197 0 01-29.09-18.149l-2.258-4.561h62.673l-2.234 4.561a32.261 32.261 0 01-29.091 18.149zm-20.201-15.892a26.16 26.16 0 0031.374 7.038 26.144 26.144 0 009.029-7.038l.404-.499h-41.164l.357.499z" fill="#163029"/><path d="M449.443 518.95l-2.044 4.11a32.091 32.091 0 01-57.634 0l-2.044-4.11h61.793m-30.896 16.368a26.157 26.157 0 0020.415-9.692l.784-.951h-42.423l.784.951a26.146 26.146 0 0020.44 9.692zm31.871-16.962h-63.624l2.377 4.965a32.668 32.668 0 0012.054 13.37 32.696 32.696 0 0034.619 0 32.661 32.661 0 0012.054-13.37l2.377-4.965h.143zm-11.884 6.913a25.779 25.779 0 01-30.993 6.975 25.75 25.75 0 01-8.911-6.975h39.904z" fill="#163029"/><path fill-rule="evenodd" clip-rule="evenodd" d="M361.91 521.801v1.425a14.98 14.98 0 00.963 5.908 14.98 14.98 0 0024.795 5.058 14.963 14.963 0 004.165-10.966v-1.425H361.91z" fill="#F3BD48"/><path d="M376.812 541.351a18.161 18.161 0 01-12.816-5.316 18.143 18.143 0 01-5.318-12.809 13.551 13.551 0 010-1.71l1.759-2.875h34.034l.285 2.875v1.71a18.145 18.145 0 01-5.251 12.743 18.162 18.162 0 01-12.693 5.382zm-11.622-16.035a11.877 11.877 0 0011.61 9.345 11.877 11.877 0 0011.61-9.345v-.356h-23.362l.142.356z" fill="#163029"/><path d="M394.304 518.95l.238 2.59v1.686a17.836 17.836 0 01-5.534 12.016 17.852 17.852 0 01-30.116-12.016v-1.568l1.688-2.708h33.582m-17.493 16.368a12.102 12.102 0 007.747-2.824 12.088 12.088 0 004.137-7.13v-.689h-24.076v.689a12.088 12.088 0 004.137 7.13 12.104 12.104 0 007.747 2.824m18.015-16.962h-34.438l-1.925 3.112v1.758a18.426 18.426 0 005.626 12.605 18.448 18.448 0 0025.61 0 18.43 18.43 0 005.626-12.605v-1.758l-.309-3.112h-.19zm-6.703 6.913a11.492 11.492 0 01-3.938 6.798 11.507 11.507 0 01-18.711-6.798h22.649z" fill="#163029"/><path fill-rule="evenodd" clip-rule="evenodd" d="M475.254 521.801v1.425a14.98 14.98 0 01-.963 5.908 14.98 14.98 0 01-24.795 5.058 14.963 14.963 0 01-4.165-10.966v-1.425h29.923z" fill="#F3BD48"/><path d="M460.375 541.351a18.159 18.159 0 01-18.134-18.125 13.937 13.937 0 010-1.71l.262-2.875h34.129l1.83 2.993v1.592a18.145 18.145 0 01-5.301 12.793 18.167 18.167 0 01-12.786 5.332zm-11.621-16.035a11.875 11.875 0 0011.621 9.4 11.883 11.883 0 0011.622-9.4v-.356h-23.362l.119.356z" fill="#163029"/><path d="M476.466 518.95l1.663 2.708v1.568a17.824 17.824 0 01-17.825 17.817 17.827 17.827 0 01-12.604-5.219 17.81 17.81 0 01-5.221-12.598v-1.686l.262-2.59h33.582m-16.09 16.368a12.077 12.077 0 0011.883-9.954v-.689H448.04l.143.689a12.062 12.062 0 004.132 7.135 12.08 12.08 0 007.752 2.819m16.422-16.962h-34.462l-.308 3.112v1.758c0 4.883 1.94 9.566 5.395 13.018a18.422 18.422 0 0031.443-13.018c.036-.585.036-1.172 0-1.758l-1.901-3.112h-.167zm-5.109 6.913a11.503 11.503 0 01-22.65 0h22.65zM421.85 537.479h-6.536v25.988h6.536v-25.988z" fill="#163029"/><path d="M421.565 537.788v25.394h-5.942v-25.394h5.942zm.594-.594h-7.13v26.582h7.13v-26.582z" fill="#163029"/><path d="M442.218 560.498h-47.272v6.533h47.272v-6.533z" fill="#163029"/><path d="M441.933 560.807v6.01h-46.678v-5.939h46.678m.594-.594h-47.866v7.127h47.866v-7.127zM428.03 570.428h-18.919v6.532h18.919v-6.532z" fill="#163029"/><path d="M427.745 570.713v5.938H409.42v-5.938h18.325zm.594-.594h-19.513v7.126h19.513v-7.126zM373.057 574.704a14.267 14.267 0 01-10.084-4.175 14.25 14.25 0 01-4.176-10.079v-15.939h6.536v15.939a7.655 7.655 0 007.653 7.626h15.21v6.533l-15.139.095z" fill="#163029"/><path d="M365.119 544.915v15.63a7.957 7.957 0 007.938 7.935h14.925v5.939h-14.925a13.906 13.906 0 01-13.88-13.874v-15.63h5.942zm.594-.594h-7.13v16.224a14.475 14.475 0 0014.474 14.467h15.639v-7.126h-15.52a7.37 7.37 0 01-7.344-7.341v-16.224h-.119zM381.756 577.792h-19.322v6.532h19.322v-6.532z" fill="#163029"/><path d="M381.565 578.101v5.938h-18.728v-5.938h18.728zm.595-.594h-19.917v7.126h19.917v-7.126z" fill="#163029"/><path d="M385.321 571.734h-6.536v22.995h6.536v-22.995z" fill="#163029"/><path d="M385.035 572.043v22.401h-5.846v-22.401h5.942m.594-.594h-7.13v23.589h7.13v-23.589zM365.404 557.244h-6.536v37.509h6.536v-37.509z" fill="#163029"/><path d="M365.119 557.528v36.916h-5.942v-36.916h5.942zm.594-.593h-7.13v38.008h7.13v-38.008zM448.896 574.704v-6.533h15.211a7.655 7.655 0 007.653-7.625v-15.94h6.536v15.94c0 3.78-1.502 7.405-4.177 10.078a14.262 14.262 0 01-10.083 4.175l-15.14-.095z" fill="#163029"/><path d="M477.987 544.915v15.63a13.893 13.893 0 01-4.072 9.803 13.91 13.91 0 01-9.808 4.071h-14.902v-5.939h14.902a7.935 7.935 0 007.938-7.935v-15.63h5.942zm.594-.594h-7.13v16.224a7.341 7.341 0 01-7.344 7.341h-15.496v7.126h15.496c3.839 0 7.52-1.524 10.235-4.237a14.465 14.465 0 004.239-10.23v-16.224zM474.707 577.792h-19.322v6.532h19.322v-6.532z" fill="#163029"/><path d="M474.422 578.101v5.938h-18.728v-5.938h18.728zm.594-.594H455.1v7.126h19.916v-7.126z" fill="#163029"/><path d="M458.356 571.734h-6.536v22.995h6.536v-22.995z" fill="#163029"/><path d="M458.07 572.043v22.401h-5.942v-22.401h5.942zm.594-.594h-7.13v23.589h7.13v-23.589zM478.272 557.244h-6.536v37.509h6.536v-37.509z" fill="#163029"/><path d="M477.987 557.528v36.916h-5.942v-36.916h5.942zm.594-.593h-7.13v38.008h7.13v-38.008zM431.618 564.061h-6.536v30.668h6.536v-30.668z" fill="#163029"/><path d="M431.333 564.441v30.074h-5.942v-30.074h5.942zm.594-.594h-7.13v31.262h7.13v-31.333.071zM411.677 564.061h-6.535v30.668h6.535v-30.668z" fill="#163029"/><path d="M411.393 564.441v30.074h-5.941v-30.074h5.941zm.594-.594h-7.13v31.262h7.13v-31.333.071z" fill="#163029"/><path d="M184.492 439.442c.152-.943.232-1.896.238-2.851a18.992 18.992 0 00-9.062-16.255 19.013 19.013 0 00-18.602-.73 25.27 25.27 0 00-47.391 4.751 15.901 15.901 0 00-5.847-1.116 16.214 16.214 0 00-11.461 4.745 16.196 16.196 0 00-4.748 11.456h96.873z" fill="#D8D6DF"/><path d="M84.339 442.72v-3.278a19.5 19.5 0 015.715-13.767 19.515 19.515 0 0113.774-5.712c1.155.008 2.307.111 3.446.308h.237v-.213a28.29 28.29 0 0126.595-18.221 28.845 28.845 0 0124.195 13.375l.119.19h.214a22.072 22.072 0 016.94-1.093 22.366 22.366 0 0115.782 6.539 22.347 22.347 0 016.558 15.767 21.843 21.843 0 01-.285 3.349l-.404 2.78-102.886-.024zm19.489-16.225a13.03 13.03 0 00-7.756 2.601 13.016 13.016 0 00-4.674 6.711v.38h90.17v-.308a15.774 15.774 0 00-15.308-15.054 15.79 15.79 0 00-7.603 1.703l-2.994 1.521-1.45-3.041a21.98 21.98 0 00-22.07-12.502 21.982 21.982 0 00-19.165 16.611l-.88 3.611-3.469-1.33a12.832 12.832 0 00-4.801-.903z" fill="#163029"/><path d="M134.202 402.17a28.536 28.536 0 0113.661 3.572 28.51 28.51 0 0110.272 9.684l.237.38.452-.143a22.317 22.317 0 016.845-1.093 22.068 22.068 0 0115.572 6.457 22.045 22.045 0 016.46 15.564 21.226 21.226 0 01-.262 3.302l-.38 2.518H84.649v-2.969a19.191 19.191 0 015.624-13.549 19.21 19.21 0 0113.555-5.621c1.14-.005 2.278.099 3.399.308h.475l.166-.451a28.038 28.038 0 0126.334-18.03m-22.436 26.13l-3.161-1.235a13.226 13.226 0 00-10.64.451 13.214 13.214 0 00-6.852 8.149l-.214.76h90.884v-.618a16.04 16.04 0 00-23.339-13.588l-2.71 1.378-1.307-2.756a22.28 22.28 0 00-9.173-9.882 22.306 22.306 0 00-25.587 2.544 22.278 22.278 0 00-7.045 11.496l-.808 3.301m22.435-26.771a28.757 28.757 0 00-26.88 18.41 19.799 19.799 0 00-17.469 5.487 19.781 19.781 0 00-5.798 13.968v3.564h103.504l.475-3.041c.163-1.117.251-2.244.261-3.373a22.61 22.61 0 00-9.391-18.229 22.633 22.633 0 00-20.27-3.151 29.009 29.009 0 00-10.482-9.889 29.036 29.036 0 00-13.95-3.628v-.118zm-22.031 27.555l.974-3.943a21.69 21.69 0 0118.919-16.369 21.7 21.7 0 0121.77 12.331l1.568 3.302 3.256-1.663a15.504 15.504 0 0120.279 5.774 15.476 15.476 0 012.228 7.315h-89.6a12.644 12.644 0 0116.637-8.219l3.778 1.472h.191zM58.338 392.501l-.713-2.375a25.978 25.978 0 01.262-12.068 21.375 21.375 0 017.44-11.239 21.397 21.397 0 0112.69-4.558 20.7 20.7 0 0117.088 9.003v.167h.19a16.459 16.459 0 017.471-.265 16.458 16.458 0 0111.569 8.835 16.44 16.44 0 011.709 7.274 15.51 15.51 0 01-.214 2.376l-.404 2.779-57.088.071zm19.679-23.755a14.981 14.981 0 00-8.577 3.135 14.966 14.966 0 00-5.16 7.531 27.523 27.523 0 00-.666 6.177v.285h45.918v-.333a9.884 9.884 0 00-9.798-8.216 9.883 9.883 0 00-4.462 1.09l-2.995 1.52-1.45-3.041a14.256 14.256 0 00-12.929-8.053l.119-.095z" fill="#163029"/><path d="M77.898 362.523a20.468 20.468 0 0116.85 8.884l.239.356h.404c1.377-.382 2.8-.574 4.23-.57a16.146 16.146 0 0111.396 4.733 16.126 16.126 0 014.718 11.397c.002.796-.062 1.59-.19 2.375l-.38 2.542H58.338l-.641-2.138a25.404 25.404 0 01.285-11.877 21.07 21.07 0 017.322-11.081 21.088 21.088 0 0112.5-4.503m-14.688 23.755h46.558l-.118-.688a10.139 10.139 0 00-5.441-7.415 10.15 10.15 0 00-9.2.027l-2.733 1.377-1.307-2.755a14.515 14.515 0 00-13.072-8.291 15.262 15.262 0 00-14.022 10.928 25.381 25.381 0 00-.665 6.224v.475M77.803 362a21.73 21.73 0 00-12.874 4.643 21.707 21.707 0 00-7.541 11.415 26.123 26.123 0 00-.262 12.211l.761 2.541h57.705l.452-3.04a16.625 16.625 0 00-4.683-14.253 16.641 16.641 0 00-11.764-4.87 16.093 16.093 0 00-4.396.594 21.051 21.051 0 00-17.326-9.146l-.072-.095zM63.71 385.755c-.04-2.054.175-4.104.642-6.105a14.668 14.668 0 0113.452-10.452c2.63.007 5.204.758 7.425 2.166a13.917 13.917 0 015.123 5.792l1.569 3.302 3.256-1.663a9.51 9.51 0 0113.808 6.96H63.71z" fill="#163029"/><path d="M1174.85 594.919c.15-.975.23-1.959.24-2.945.01-3.359-.84-6.665-2.48-9.599-1.64-2.934-4-5.397-6.87-7.154a19.573 19.573 0 00-19.17-.731 26.17 26.17 0 00-10.74-11.378 26.154 26.154 0 00-29.72 2.894 26.143 26.143 0 00-8.33 13.235 16.97 16.97 0 00-6.04-1.14c-4.41 0-8.65 1.751-11.77 4.87a16.62 16.62 0 00-4.87 11.758l99.75.19z" fill="#8ACB78"/><path d="M1071.8 598.174v-3.255c0-5.29 2.11-10.362 5.85-14.103a20.013 20.013 0 0114.11-5.851c1.21-.008 2.42.103 3.61.333h.27v-.238a29.047 29.047 0 0127.35-18.767c4.97.022 9.86 1.299 14.2 3.712a29.44 29.44 0 0110.66 10.09l.12.19h.21c2.3-.771 4.71-1.164 7.13-1.164a22.921 22.921 0 0116.18 6.707 22.872 22.872 0 016.71 16.169c-.01 1.145-.1 2.288-.26 3.421l-.43 2.78-105.71-.024zm19.96-16.629c-2.92.007-5.76.964-8.08 2.725a13.437 13.437 0 00-4.82 7.039v.38h93.07v-.309a16.322 16.322 0 00-5.01-11.151 16.326 16.326 0 00-11.34-4.551c-2.58-.006-5.11.605-7.4 1.781l-2.99 1.521-1.45-3.041a22.78 22.78 0 00-9.36-10.067 22.757 22.757 0 00-26.09 2.602 22.731 22.731 0 00-7.19 11.717l-.9 3.611-3.47-1.354a13.591 13.591 0 00-4.97-.95v.047z" fill="#163029"/><path d="M1123.09 556.626a29.236 29.236 0 0124.6 13.659l.23.404.45-.143a22.586 22.586 0 0120.34 3.085 22.544 22.544 0 019.37 18.295 21.51 21.51 0 01-.33 3.397l-.38 2.542h-105.29v-2.97a19.688 19.688 0 015.77-13.893 19.704 19.704 0 0113.89-5.776c1.19.004 2.39.115 3.56.333h.5l.17-.475a28.738 28.738 0 0127.07-18.577m-23.15 26.938l-3.16-1.211a13.673 13.673 0 00-5.6-.94c-1.91.083-3.78.567-5.5 1.421a13.679 13.679 0 00-4.44 3.534 13.582 13.582 0 00-2.62 5.036l-.21.76h93.76v-.618a16.642 16.642 0 00-16.64-16.011c-2.62-.001-5.2.626-7.53 1.829l-2.71 1.378-1.31-2.756a23 23 0 00-9.49-10.219 23.049 23.049 0 00-13.64-2.881 23.084 23.084 0 00-12.82 5.512 23.075 23.075 0 00-7.28 11.888l-.79 3.278m23.18-27.318a29.523 29.523 0 00-16.77 5.202 29.463 29.463 0 00-10.85 13.802 19.123 19.123 0 00-3.68-.356 20.325 20.325 0 00-14.32 5.95 20.273 20.273 0 00-5.93 14.313v3.563h106.4l.45-3.041c.61-3.919.19-7.928-1.2-11.641a23.23 23.23 0 00-6.75-9.563 23.23 23.23 0 00-10.57-5.038c-3.9-.746-7.92-.478-11.69.777a29.658 29.658 0 00-10.75-10.204 29.7 29.7 0 00-14.34-3.74v-.024zm-22.77 28.126l.97-3.943a22.486 22.486 0 017.1-11.561 22.473 22.473 0 0125.75-2.572 22.43 22.43 0 019.24 9.928l1.57 3.326 3.28-1.663a15.793 15.793 0 017.13-1.758 16.07 16.07 0 0111.13 4.491 16.017 16.017 0 014.91 10.95h-92.35a13.13 13.13 0 012.5-4.817 13.214 13.214 0 014.25-3.381 13.091 13.091 0 0110.62-.473l3.78 1.473h.12z" fill="#163029"/><path d="M851.338 594.919c.15-.975.23-1.959.237-2.945a19.579 19.579 0 00-18.837-19.627 19.592 19.592 0 00-9.683 2.143 26.139 26.139 0 00-26.05-14.589 26.136 26.136 0 00-22.743 19.34A16.632 16.632 0 00758.775 581a16.626 16.626 0 00-7.234 13.8l99.797.119z" fill="#3DAE2B"/><path d="M748.31 598.173v-3.254a19.971 19.971 0 015.854-14.103 19.989 19.989 0 0114.109-5.851 18.557 18.557 0 013.613.332h.238v-.237a29.001 29.001 0 0127.331-18.767 29.528 29.528 0 0124.86 13.802l.119.19h.214a22.533 22.533 0 017.13-1.164 22.937 22.937 0 0116.185 6.706 22.918 22.918 0 016.726 16.17 22.682 22.682 0 01-.166 3.326l-.428 2.779-105.785.071zm19.963-16.628a13.48 13.48 0 00-12.929 9.763v.38h93.094v-.308a16.312 16.312 0 00-8.061-13.479 16.329 16.329 0 00-15.705-.442l-2.995 1.52-1.426-3.04a22.776 22.776 0 00-35.601-7.569 22.753 22.753 0 00-7.179 11.821l-.879 3.611-3.47-1.354a13.715 13.715 0 00-4.849-.951v.048z" fill="#163029"/><path d="M799.551 556.626a29.185 29.185 0 0124.598 13.659l.262.404.428-.143a22.562 22.562 0 0127.228 11.102 22.538 22.538 0 012.48 10.278 24.889 24.889 0 01-.262 3.373l-.38 2.542h-105.31v-2.969a19.614 19.614 0 017.065-15.121 19.64 19.64 0 0116.155-4.216h.499l.166-.475a28.777 28.777 0 0127.071-18.577m-23.173 26.962l-3.161-1.211a13.646 13.646 0 00-18.157 9.051l-.214.76h93.783v-.618a16.625 16.625 0 00-8.18-13.77 16.643 16.643 0 00-16.015-.483l-2.709 1.378-1.307-2.756a23.03 23.03 0 00-23.124-13.114 23.034 23.034 0 00-12.81 5.517 23.018 23.018 0 00-7.274 11.897l-.808 3.278m23.173-27.318a29.51 29.51 0 00-27.617 19.004 18.985 18.985 0 00-3.661-.356 20.288 20.288 0 00-20.273 20.263v3.563h106.499l.452-3.041a23.129 23.129 0 00-7.955-21.204 23.154 23.154 0 00-22.253-4.261 29.67 29.67 0 00-10.749-10.207 29.7 29.7 0 00-14.348-3.738l-.095-.023zm-22.769 28.126l.974-3.943a22.46 22.46 0 0132.844-14.133 22.45 22.45 0 019.247 9.928l1.569 3.326 3.28-1.663a15.826 15.826 0 017.13-1.758 16.084 16.084 0 0116.066 15.441h-92.381a13.063 13.063 0 0112.015-9.562 13.076 13.076 0 015.358.891l3.779 1.473h.119z" fill="#163029"/><path d="M74.666 665.472h-208.1v-139.3a54.276 54.276 0 0133.502-50.235 54.345 54.345 0 0120.804-4.141h99.44a54.322 54.322 0 0138.385 15.907 54.268 54.268 0 0115.898 38.374l.072 139.395z" fill="#3DAE2B"/><path d="M-136.691 668.75V526.219a57.588 57.588 0 0116.88-40.662 57.644 57.644 0 0140.683-16.872h99.44a57.643 57.643 0 0140.682 16.872 57.592 57.592 0 0116.88 40.662V668.75H-136.69zm57.563-193.604a51.086 51.086 0 00-36.068 14.952 51.037 51.037 0 00-14.96 36.05v136.07H71.41v-136.07a51.037 51.037 0 00-14.985-36.075 51.089 51.089 0 00-36.113-14.927h-99.44z" fill="#163029"/><path d="M20.312 468.922a57.34 57.34 0 0140.472 16.79 57.284 57.284 0 0116.782 40.46v142.27h-214.043v-142.27a57.305 57.305 0 0116.797-40.461 57.366 57.366 0 0140.48-16.789h99.512zm-150.847 193.581H71.624V526.172a51.344 51.344 0 00-15.041-36.26 51.394 51.394 0 00-36.271-15.051H-79.2a51.395 51.395 0 00-36.287 15.042 51.346 51.346 0 00-15.049 36.269v136.331zM20.312 468.328H-79.2a57.957 57.957 0 00-40.901 16.963 57.903 57.903 0 00-16.971 40.881v142.792h215.23V526.172a57.876 57.876 0 00-16.955-40.879 57.932 57.932 0 00-40.892-16.965zm-150.182 193.51V526.172a50.757 50.757 0 0114.876-35.849 50.8 50.8 0 0135.866-14.868h99.44a50.776 50.776 0 0135.857 14.87 50.728 50.728 0 0114.86 35.847v135.666H-129.87z" fill="#163029"/><path d="M75.022 563.396h-206.508v6.533H75.022v-6.533z" fill="#163029"/><path d="M74.738 563.681v5.939h-205.915v-5.939H74.738zm.594-.594h-207.127v7.127H75.308v-7.127h.024zM339 592h300v7H339z" fill="#163029"/></g><defs><clipPath id="adclip0_1943_6848"><path fill="#fff" transform="translate(-137 362)" d="M0 0h2180v280H0z"/></clipPath></defs></svg>