<?xml version="1.0" encoding="utf-8"?><svg width="1920" height="490" fill="none" xmlns="http://www.w3.org/2000/svg" viewBox="0 0 1920 490"><g clip-path="url(#apclip0_1403_4260)"><path d="M271.491 409.31l-2.55 87.54 903.319 4.6-6.29-50.4-11.9-15.67-25.06-18.03-29.1-7.75-828.419-.29z" fill="#A2D45E"/><path d="M1633.89 268.12c-.66.05-1.31.07-1.96.07-1.77 0-3.49-.21-5.15-.57 1.58 8.33-1.23 17.8-8.26 24.83l-2.62 2.62-9.79-9.8c-4.84-4.84-7.04-11.71-6.24-18.86-7.14.79-14.01-1.4-18.86-6.24l-9.8-9.79 2.62-2.62c7.2-7.2 16.98-9.99 25.45-8.15-1.59-8.33 1.22-17.82 8.26-24.86l2.62-2.62 9.8 9.8c4.84 4.84 7.04 11.71 6.24 18.86 7.14-.79 14.01 1.4 18.86 6.25l9.79 9.79-2.62 2.62c-5.08 5.08-11.59 8.16-18.33 8.66l-.01.01z" fill="#000"/><path d="M1141.46 450.45h.07c.88-.04 1.77-.07 2.66-.07h253.37c18.99 0 35.7 9.85 45.34 24.7 5.1-39.14 38.65-69.48 79.16-69.48h115.28c-17.31-9.74-29.43-31.75-29.43-57.29v-3.7h12.36c.17-1.22.39-2.45.68-3.67 2.3-9.79 8.28-18.09 16.83-23.38.3-.19.62-.33.93-.51-1.88-5.18-2.23-10.78-.94-16.27 1.75-7.45 6.3-13.76 12.8-17.79 7.73-4.78 16.85-5.41 24.8-2.55l9.34-5.27-.09 8.96 9.69.06-4.54 7.76c.07.11.15.21.22.32 6.79 10.97 5.25 24.77-2.86 33.99.88 1.11 1.71 2.27 2.47 3.5 2.85 4.6 4.6 9.65 5.29 14.85h7.22l4.52 5.84-.06 1.36c-1.04 24.18-12.84 44.53-29.31 53.79h3.64c32.99 0 61.61 18.96 75.61 46.54v-39.19h-12.66c-11.06 0-20.07-9-20.07-20.07v-3.71h20.07c4.8 0 9.2 1.7 12.66 4.51v-16.59c-14.62-1.83-25.97-14.31-25.97-29.41v-29.67h3.71c11.17 0 20.9 6.2 25.97 15.33 5.06-9.13 14.79-15.33 25.96-15.33h3.71v29.67c0 15.1-11.35 27.58-25.96 29.41v60.75c8.99-23.22 27.92-41.51 51.56-49.64v-41.11c0-53.35 46.64-96.76 103.96-96.76h1.13c28.17 0 54.55 10.31 74.27 29.04 19.15 18.19 29.7 42.24 29.7 67.72v36.51h8.82V490h-941.22c4.84-17.44 18.21-31.38 35.34-36.96 5.13-1.76 12.95-2.55 13.97-2.59z" fill="#000"/><path d="M1873.45 362.98c0-27.01 20.78-48.98 46.33-48.98h.48c12.62 0 24.42 5.26 33.21 14.83 8.46 9.19 13.12 21.32 13.12 34.15v20.62h11.9v-25.92c0-15.1-5.87-29.36-16.54-40.16-11.03-11.17-25.8-17.32-41.59-17.32h-.7c-32.05 0-58.12 25.79-58.12 57.49v25.92h11.9v-20.62l.01-.01zM1693.74 352.02l-2.41 3.11-5.97 7.71-1.5 1.94-9.88-12.76h-4.73l-9.88 12.76-9.88-12.76h-4.73l-9.88 12.76-7.6-9.82-2.28-2.94h-9.56c1.45 28.74 19.68 51.53 41.86 51.53s40.06-22.17 41.81-50.72l-.63-.81h-4.74zM1737.97 325.73v21.94c0 11 8.03 20.17 18.54 21.94v-21.94c0-11-8.03-20.17-18.54-21.94zM1810.25 443.5c-24.59 0-44.6 20.01-44.6 44.6v1.9h267.73v-46.5h-223.13z" fill="#F3BD48"/><path d="M1682.4 321.26c5.81-7.01 6.83-17.23 1.78-25.39-4.12-6.66-11.27-10.32-18.57-10.32-3.91 0-7.87 1.05-11.44 3.26-8.72 5.4-12.28 15.98-9.22 25.32.35 1.07.79 2.13 1.31 3.16.26.52.53 1.03.84 1.53.32.51.66.99 1.02 1.47 6.67 9.03 19.29 11.61 29 5.6.03-.02.05-.04.07-.05 1.02-.64 1.95-1.36 2.83-2.13.86-.76 1.66-1.57 2.38-2.44v-.01zm-8.28-14.34a7.465 7.465 0 01-10.28-2.42 7.465 7.465 0 012.42-10.28 7.465 7.465 0 0110.28 2.42 7.465 7.465 0 01-2.42 10.28zm-32.74 16.45c.14-.09.29-.15.43-.24a28.635 28.635 0 0023.88 12.84c5.14 0 10.34-1.38 15.02-4.28.45-.28.87-.6 1.3-.9.63.82 1.22 1.67 1.77 2.56 2.64 4.27 4.08 8.94 4.47 13.63l-4.4 5.69-6.25-8.06h-12l-6.25 8.06-6.25-8.06h-12l-6.25 8.06-6.25-8.06h-1.4c.12-.7.22-1.4.39-2.1 1.88-8.01 6.78-14.81 13.78-19.14h.01zm278.4-1.95h.48c10.52 0 20.38 4.41 27.75 12.43 7.19 7.82 11.16 18.16 11.16 29.13v20.62h-78.3v-20.62c0-22.92 17.46-41.56 38.91-41.56z" fill="#FCE200"/><path d="M1919.56 278.97h.91c21.03 0 40.69 7.87 55.38 22.17 14.16 13.79 21.96 31.98 21.96 51.24v31.22h-11.9v-25.92c0-17.06-6.63-33.18-18.68-45.38-12.44-12.59-29.08-19.53-46.87-19.53h-.7c-36.14 0-65.54 29.12-65.54 64.91v25.92h-11.16c-.25 0-.49.02-.74.02v-31.24c0-40.48 34.69-73.41 77.34-73.41zm-155.64 68.71v21.94c10.51-1.77 18.54-10.94 18.54-21.94v-21.94c-10.51 1.77-18.54 10.94-18.54 21.94zm-146.15-103.2c2.3-6.48 1.12-13.1-3.07-17.29l-4.34-4.34c-5.47 7.52-5.62 17.22.09 22.94l5.07 5.06 2.26-6.37h-.01zm-35.87 6.12l4.34 4.34c4.19 4.19 10.82 5.36 17.29 3.07l6.36-2.26-5.06-5.06c-5.72-5.72-15.41-5.56-22.94-.09h.01zm26.37 12.15c-2.29 6.48-1.12 13.1 3.07 17.29l4.34 4.34c5.47-7.52 5.62-17.22-.09-22.94l-5.07-5.07-2.25 6.37v.01zm7.87-11.28l5.07 5.07c3.05 3.05 7.36 4.54 12.12 4.18 3.81-.28 7.55-1.71 10.81-4.09l-4.34-4.34c-4.19-4.19-10.81-5.36-17.29-3.07l-6.36 2.25h-.01zM1397.56 457.8h-253.37c-.53 0-1.04.06-1.57.08-.36 0-.72.04-1.09.06h-.07c-1.09.06-2.18.15-3.25.29l-.39.06c-.02 0-.05.01-.07.01-1.23.17-2.44.36-3.64.63-.02.01-.05.01-.07.02l-.14.03c-16.04 3.64-28.95 15.57-33.99 31.02h341.92c-6.09-18.66-23.6-32.2-44.27-32.2z" fill="#F09F54"/><path d="M1743.86 405.53h12.1c-1.59-5.17-6.41-8.94-12.1-8.94h-12.1c1.59 5.17 6.41 8.94 12.1 8.94zM1834.81 352.38c0-44.57 38.02-80.83 84.76-80.83h.91c22.97 0 44.48 8.62 60.55 24.27 15.61 15.2 24.2 35.28 24.2 56.56v31.22h11.9v-36.52c0-23.42-9.73-45.56-27.4-62.34-18.33-17.41-42.89-27-69.15-27h-1.13c-53.24 0-96.55 40.08-96.55 89.34v38.94c3.87-.94 7.84-1.63 11.9-2.02v-31.62h.01zM1842.97 391.02c-.25 0-.49.02-.74.02a76.188 76.188 0 00-7.42.42c-4.07.43-8.04 1.18-11.9 2.22a75.578 75.578 0 00-7.42 2.41c-26.84 10.24-46.56 35.02-49.47 64.67 9.18-14.79 25.57-24.67 44.22-24.67h223.13v-45.06h-190.41l.01-.01zM1680.9 413.02h-158.84c-39.94 0-72.44 32.49-72.44 72.44v4.55h308.59c-.19-42.48-34.79-76.98-77.31-76.98v-.01z" fill="#A2D45E"/><path d="M302.19 468.31c-.9-18.12-2.18-36.23-3.11-54.35-.14-2.79-.24-5.58-.32-8.37h-59.48c-32.99 0-61.61 18.96-75.61 46.54v-39.19h12.66c11.06 0 20.07-9 20.07-20.07v-3.71h-20.07c-4.8 0-9.2 1.7-12.66 4.51v-16.59c14.62-1.83 25.97-14.31 25.97-29.41V318h-3.71c-11.17 0-20.9 6.2-25.97 15.33C154.9 324.2 145.17 318 134 318h-3.71v29.67c0 15.1 11.35 27.58 25.96 29.41v60.75c-8.99-23.22-27.92-41.51-51.56-49.64v-41.11c0-53.36-46.64-96.76-103.96-96.76H-.4c-28.16 0-54.54 10.31-74.26 29.04-19.15 18.19-29.7 42.24-29.7 67.72v36.51h-8.82v106.4h416.05c-.27-7.27-.32-14.55-.68-21.68z" fill="#000"/><path d="M-46.4 362.98c0-12.83 4.66-24.96 13.12-34.15C-24.48 319.26-12.69 314-.07 314h.48c25.55 0 46.33 21.97 46.33 48.98v20.62h11.9v-25.92c0-31.7-26.07-57.48-58.12-57.48h-.7c-15.78 0-30.55 6.15-41.58 17.32-10.67 10.8-16.54 25.06-16.54 40.16v25.92h11.9v-20.62zM109.95 443.51h-223.13V490h267.73v-1.89c0-24.6-20.01-44.6-44.6-44.6zM163.68 347.68v21.94c10.51-1.77 18.55-10.94 18.55-21.94v-21.94c-10.51 1.77-18.55 10.93-18.55 21.94z" fill="#F3BD48"/><path d="M.41 321.42h-.48c-10.52 0-20.38 4.41-27.75 12.43-7.2 7.82-11.16 18.17-11.16 29.13v20.62h78.3v-20.62c0-22.92-17.45-41.56-38.91-41.56z" fill="#FCE200"/><path d="M137.719 325.74v21.94c0 11 8.03 20.17 18.54 21.94v-21.94c0-11.01-8.03-20.17-18.54-21.94zM.629 278.97h-.92c-21.02 0-40.69 7.88-55.37 22.17-14.16 13.79-21.96 31.99-21.96 51.24v31.22h11.9v-25.92c0-17.06 6.63-33.18 18.68-45.37 12.43-12.6 29.08-19.53 46.86-19.53h.7c36.14 0 65.54 29.11 65.54 64.9v25.92h11.16c.25 0 .5.02.74.02v-31.24c0-40.48-34.69-73.41-77.33-73.41z" fill="#F09F54"/><path d="M104.7 396.09c-1.22-.47-2.45-.91-3.71-1.31-1.22-.4-2.46-.77-3.71-1.1a76.439 76.439 0 00-19.32-2.64c-.24 0-.49-.02-.74-.02h-190.4v45.07h223.13c18.65 0 35.04 9.87 44.22 24.67-2.9-29.65-22.62-54.43-49.47-64.67zM-85.041 352.38c0-21.27 8.59-41.36 24.2-56.55 16.08-15.66 37.58-24.28 60.55-24.28h.92c46.73 0 84.75 36.26 84.75 80.83V384c4.06.39 8.03 1.08 11.9 2.02v-38.93c0-49.26-43.31-89.34-96.54-89.34h-1.14c-26.25 0-50.81 9.59-69.15 27-17.66 16.77-27.39 38.91-27.39 62.34v36.51h11.9v-31.22zM188.432 396.59h-12.09c-5.69 0-10.51 3.77-12.1 8.94h12.1c5.68 0 10.5-3.77 12.09-8.94zM311.579 468.31c-.9-18.12 3.1-40.88 2.17-59-.02-.32-14.69 4.02-14.71 3.71h-59.75c-42.52 0-77.13 34.5-77.32 76.98h145.91c-.27-7.27 4.06-14.55 3.7-21.68v-.01z" fill="#A2D45E"/><path d="M297.988 409.31h794.942c32.39 0 60.54 18.17 74.81 44.87" stroke="#1D1D1B" stroke-width="7.43" stroke-miterlimit="10"/><path d="M244.23 288.83c14.07 0 25.49 11.42 25.49 25.49v27.49h-3.32c-12.23 0-22.17-9.93-22.17-22.17v-30.82.01z" fill="#F3BD48"/><path d="M273.049 341.82h-3.32v-27.49c0-14.07 11.42-25.49 25.49-25.49v30.82c0 12.23-9.93 22.17-22.17 22.17v-.01z" fill="#F09F54"/><path d="M269.719 381.96v2.5h-16.5c-8.44 0-15.29-6.85-15.29-15.29v-2.5h16.5c8.44 0 15.29 6.85 15.29 15.29z" fill="#A2D45E"/><path d="M244.23 288.83c14.07 0 25.49 11.42 25.49 25.49v27.49h-3.32c-12.23 0-22.17-9.93-22.17-22.17v-30.82.01zM273.049 341.82h-3.32v-27.49c0-14.07 11.42-25.49 25.49-25.49v30.82c0 12.23-9.93 22.17-22.17 22.17v-.01zM269.719 381.96v2.5h-16.5c-8.44 0-15.29-6.85-15.29-15.29v-2.5h16.5c8.44 0 15.29 6.85 15.29 15.29zM269.719 338.48v70.81" stroke="#1D1D1B" stroke-width="7.43" stroke-miterlimit="10"/><path d="M339.553 306.41h-3.32v-27.49c0-14.07 11.42-25.49 25.49-25.49v30.82c0 12.23-9.93 22.17-22.17 22.17v-.01z" fill="#F3BD48"/><path d="M310.742 253.43c14.07 0 25.49 11.42 25.49 25.49v27.49h-3.32c-12.23 0-22.17-9.93-22.17-22.17v-30.82.01z" fill="#F09F54"/><path d="M368.02 331.26v2.5c0 8.44-6.85 15.29-15.29 15.29h-16.5v-2.5c0-8.44 6.85-15.29 15.29-15.29h16.5z" fill="#A2D45E"/><path d="M339.553 306.41h-3.32v-27.49c0-14.07 11.42-25.49 25.49-25.49v30.82c0 12.23-9.93 22.17-22.17 22.17v-.01zM310.742 253.43c14.07 0 25.49 11.42 25.49 25.49v27.49h-3.32c-12.23 0-22.17-9.93-22.17-22.17v-30.82.01zM368.02 331.26v2.5c0 8.44-6.85 15.29-15.29 15.29h-16.5v-2.5c0-8.44 6.85-15.29 15.29-15.29h16.5z" stroke="#1D1D1B" stroke-width="7.43" stroke-miterlimit="10"/><path d="M336.23 383.61v2.5h-16.5c-8.44 0-15.29-6.85-15.29-15.29v-2.5h16.5c8.44 0 15.29 6.85 15.29 15.29z" fill="#A2D45E"/><path d="M336.23 383.61v2.5h-16.5c-8.44 0-15.29-6.85-15.29-15.29v-2.5h16.5c8.44 0 15.29 6.85 15.29 15.29zM336.23 303.07v106.22" stroke="#1D1D1B" stroke-width="7.43" stroke-miterlimit="10"/><path d="M392.039 315.33c14.07 0 25.49 11.42 25.49 25.49v27.49h-3.32c-12.23 0-22.17-9.93-22.17-22.17v-30.82.01z" fill="#F3BD48"/><path d="M420.861 368.32h-3.32v-27.49c0-14.07 11.42-25.49 25.49-25.49v30.82c0 12.23-9.93 22.17-22.17 22.17v-.01z" fill="#F09F54"/><path d="M417.539 394.09v2.5h-16.5c-8.44 0-15.29-6.85-15.29-15.29v-2.5h16.5c8.44 0 15.29 6.85 15.29 15.29z" fill="#A2D45E"/><path d="M392.039 315.33c14.07 0 25.49 11.42 25.49 25.49v27.49h-3.32c-12.23 0-22.17-9.93-22.17-22.17v-30.82.01zM420.861 368.32h-3.32v-27.49c0-14.07 11.42-25.49 25.49-25.49v30.82c0 12.23-9.93 22.17-22.17 22.17v-.01zM417.539 394.09v2.5h-16.5c-8.44 0-15.29-6.85-15.29-15.29v-2.5h16.5c8.44 0 15.29 6.85 15.29 15.29zM417.531 364.98v44.33" stroke="#1D1D1B" stroke-width="7.43" stroke-miterlimit="10"/><path d="M793.352 315.33c14.07 0 25.49 11.42 25.49 25.49v27.49h-3.32c-12.23 0-22.17-9.93-22.17-22.17v-30.82.01z" fill="#F3BD48"/><path d="M822.162 368.32h-3.32v-27.49c0-14.07 11.42-25.49 25.49-25.49v30.82c0 12.23-9.93 22.17-22.17 22.17v-.01z" fill="#F09F54"/><path d="M818.84 394.08v2.5h-16.5c-8.44 0-15.29-6.85-15.29-15.29v-2.5h16.5c8.44 0 15.29 6.85 15.29 15.29z" fill="#A2D45E"/><path d="M793.352 315.33c14.07 0 25.49 11.42 25.49 25.49v27.49h-3.32c-12.23 0-22.17-9.93-22.17-22.17v-30.82.01zM822.162 368.32h-3.32v-27.49c0-14.07 11.42-25.49 25.49-25.49v30.82c0 12.23-9.93 22.17-22.17 22.17v-.01zM818.84 394.08v2.5h-16.5c-8.44 0-15.29-6.85-15.29-15.29v-2.5h16.5c8.44 0 15.29 6.85 15.29 15.29zM818.84 364.98v44.33" stroke="#1D1D1B" stroke-width="7.43" stroke-miterlimit="10"/><path d="M904.211 315.33c14.07 0 25.49 11.42 25.49 25.49v27.49h-3.32c-12.23 0-22.17-9.93-22.17-22.17v-30.82.01z" fill="#F3BD48"/><path d="M933.033 368.32h-3.32v-27.49c0-14.07 11.42-25.49 25.49-25.49v30.82c0 12.23-9.93 22.17-22.17 22.17v-.01z" fill="#F09F54"/><path d="M929.711 394.09v2.5h-16.5c-8.44 0-15.29-6.85-15.29-15.29v-2.5h16.5c8.44 0 15.29 6.85 15.29 15.29z" fill="#A2D45E"/><path d="M904.211 315.33c14.07 0 25.49 11.42 25.49 25.49v27.49h-3.32c-12.23 0-22.17-9.93-22.17-22.17v-30.82.01zM933.033 368.32h-3.32v-27.49c0-14.07 11.42-25.49 25.49-25.49v30.82c0 12.23-9.93 22.17-22.17 22.17v-.01zM929.711 394.09v2.5h-16.5c-8.44 0-15.29-6.85-15.29-15.29v-2.5h16.5c8.44 0 15.29 6.85 15.29 15.29zM929.703 364.98v44.33" stroke="#1D1D1B" stroke-width="7.43" stroke-miterlimit="10"/><path d="M1054.85 288.83c14.07 0 25.49 11.42 25.49 25.49v27.49h-3.32c-12.23 0-22.17-9.93-22.17-22.17v-30.82.01z" fill="#F3BD48"/><path d="M1083.67 341.81h-3.32v-27.49c0-14.07 11.42-25.49 25.49-25.49v30.82c0 12.23-9.93 22.17-22.17 22.17v-.01z" fill="#F09F54"/><path d="M1080.34 381.95v2.5h-16.5c-8.44 0-15.29-6.85-15.29-15.29v-2.5h16.5c8.44 0 15.29 6.85 15.29 15.29z" fill="#A2D45E"/><path d="M1054.85 288.83c14.07 0 25.49 11.42 25.49 25.49v27.49h-3.32c-12.23 0-22.17-9.93-22.17-22.17v-30.82.01zM1083.67 341.81h-3.32v-27.49c0-14.07 11.42-25.49 25.49-25.49v30.82c0 12.23-9.93 22.17-22.17 22.17v-.01zM1080.34 381.95v2.5h-16.5c-8.44 0-15.29-6.85-15.29-15.29v-2.5h16.5c8.44 0 15.29 6.85 15.29 15.29zM1080.34 338.47v70.81" stroke="#1D1D1B" stroke-width="7.43" stroke-miterlimit="10"/><path d="M1285.15 333.72c14.07 0 25.49 11.42 25.49 25.49v27.49h-3.32c-12.23 0-22.17-9.93-22.17-22.17v-30.82.01z" fill="#F3BD48"/><path d="M1313.96 386.7h-3.32v-27.49c0-14.07 11.42-25.49 25.49-25.49v30.82c0 12.23-9.93 22.17-22.17 22.17v-.01z" fill="#F09F54"/><path d="M1310.64 426.84v2.5h-16.5c-8.44 0-15.29-6.85-15.29-15.29v-2.5h16.5c8.44 0 15.29 6.85 15.29 15.29z" fill="#A2D45E"/><path d="M1285.15 333.72c14.07 0 25.49 11.42 25.49 25.49v27.49h-3.32c-12.23 0-22.17-9.93-22.17-22.17v-30.82.01zM1313.96 386.7h-3.32v-27.49c0-14.07 11.42-25.49 25.49-25.49v30.82c0 12.23-9.93 22.17-22.17 22.17v-.01zM1310.64 426.84v2.5h-16.5c-8.44 0-15.29-6.85-15.29-15.29v-2.5h16.5c8.44 0 15.29 6.85 15.29 15.29zM1310.64 383.36v70.82" stroke="#1D1D1B" stroke-width="7.43" stroke-miterlimit="10"/><path d="M1375.07 348.07h-3.32v-27.49c0-14.07 11.42-25.49 25.49-25.49v30.82c0 12.23-9.93 22.17-22.17 22.17v-.01z" fill="#F3BD48"/><path d="M1346.25 295.08c14.07 0 25.49 11.42 25.49 25.49v27.49h-3.32c-12.23 0-22.17-9.93-22.17-22.17v-30.82.01z" fill="#F09F54"/><path d="M1403.53 372.91v2.5c0 8.44-6.85 15.29-15.29 15.29h-16.5v-2.5c0-8.44 6.85-15.29 15.29-15.29h16.5z" fill="#A2D45E"/><path d="M1375.07 348.07h-3.32v-27.49c0-14.07 11.42-25.49 25.49-25.49v30.82c0 12.23-9.93 22.17-22.17 22.17v-.01zM1346.25 295.08c14.07 0 25.49 11.42 25.49 25.49v27.49h-3.32c-12.23 0-22.17-9.93-22.17-22.17v-30.82.01zM1403.53 372.91v2.5c0 8.44-6.85 15.29-15.29 15.29h-16.5v-2.5c0-8.44 6.85-15.29 15.29-15.29h16.5z" stroke="#1D1D1B" stroke-width="7.43" stroke-miterlimit="10"/><path d="M1371.75 415.71v2.5h-16.5c-8.44 0-15.29-6.85-15.29-15.29v-2.5h16.5c8.44 0 15.29 6.85 15.29 15.29z" fill="#A2D45E"/><path d="M1371.75 415.71v2.5h-16.5c-8.44 0-15.29-6.85-15.29-15.29v-2.5h16.5c8.44 0 15.29 6.85 15.29 15.29zM1371.75 344.73v109.45" stroke="#1D1D1B" stroke-width="7.43" stroke-miterlimit="10"/><path d="M519.289 331.68v2.5c0 8.44-6.85 15.29-15.29 15.29h-16.5v-2.5c0-8.44 6.85-15.29 15.29-15.29h16.5z" fill="#A2D45E"/><path d="M519.289 331.68v2.5c0 8.44-6.85 15.29-15.29 15.29h-16.5v-2.5c0-8.44 6.85-15.29 15.29-15.29h16.5z" stroke="#1D1D1B" stroke-width="7.43" stroke-miterlimit="10"/><path d="M487.5 384.03v2.5H471c-8.44 0-15.29-6.85-15.29-15.29v-2.5h16.5c8.44 0 15.29 6.85 15.29 15.29z" fill="#A2D45E"/><path d="M487.5 384.03v2.5H471c-8.44 0-15.29-6.85-15.29-15.29v-2.5h16.5c8.44 0 15.29 6.85 15.29 15.29zM487.5 303.49v106.22" stroke="#1D1D1B" stroke-width="7.43" stroke-miterlimit="10"/><path d="M475.23 291.54c9.339 0 16.91-7.571 16.91-16.91s-7.571-16.91-16.91-16.91-16.91 7.571-16.91 16.91 7.571 16.91 16.91 16.91z" fill="#F3BD48"/><path d="M499.14 315.45c9.34 0 16.91-7.571 16.91-16.91s-7.57-16.91-16.91-16.91c-9.339 0-16.91 7.571-16.91 16.91s7.571 16.91 16.91 16.91z" fill="#F3BD48"/><path d="M499.14 291.54c9.34 0 16.91-7.571 16.91-16.91s-7.57-16.91-16.91-16.91c-9.339 0-16.91 7.571-16.91 16.91s7.571 16.91 16.91 16.91z" fill="#F09F54"/><path d="M475.23 315.45c9.339 0 16.91-7.571 16.91-16.91s-7.571-16.91-16.91-16.91-16.91 7.571-16.91 16.91 7.571 16.91 16.91 16.91z" fill="#F09F54"/><path d="M475.23 291.54c9.339 0 16.91-7.571 16.91-16.91s-7.571-16.91-16.91-16.91-16.91 7.571-16.91 16.91 7.571 16.91 16.91 16.91z" stroke="#1D1D1B" stroke-width="7.43" stroke-miterlimit="10"/><path d="M499.14 315.45c9.34 0 16.91-7.571 16.91-16.91s-7.57-16.91-16.91-16.91c-9.339 0-16.91 7.571-16.91 16.91s7.571 16.91 16.91 16.91z" stroke="#1D1D1B" stroke-width="7.43" stroke-miterlimit="10"/><path d="M499.14 291.54c9.34 0 16.91-7.571 16.91-16.91s-7.57-16.91-16.91-16.91c-9.339 0-16.91 7.571-16.91 16.91s7.571 16.91 16.91 16.91z" stroke="#1D1D1B" stroke-width="7.43" stroke-miterlimit="10"/><path d="M475.23 315.45c9.339 0 16.91-7.571 16.91-16.91s-7.571-16.91-16.91-16.91-16.91 7.571-16.91 16.91 7.571 16.91 16.91 16.91z" stroke="#1D1D1B" stroke-width="7.43" stroke-miterlimit="10"/><path d="M487.402 306.31c10.758 0 19.48-8.721 19.48-19.48 0-10.758-8.722-19.48-19.48-19.48-10.759 0-19.48 8.722-19.48 19.48 0 10.759 8.721 19.48 19.48 19.48z" fill="#FCE200"/><path d="M487.511 306.05c10.759 0 19.48-8.722 19.48-19.48 0-10.759-8.721-19.48-19.48-19.48-10.758 0-19.48 8.721-19.48 19.48 0 10.758 8.722 19.48 19.48 19.48z" stroke="#1D1D1B" stroke-width="7.43" stroke-miterlimit="10"/><path d="M1030.25 331.68v2.5c0 8.44-6.85 15.29-15.29 15.29h-16.5v-2.5c0-8.44 6.85-15.29 15.29-15.29h16.5z" fill="#A2D45E"/><path d="M1030.25 331.68v2.5c0 8.44-6.85 15.29-15.29 15.29h-16.5v-2.5c0-8.44 6.85-15.29 15.29-15.29h16.5z" stroke="#1D1D1B" stroke-width="7.43" stroke-miterlimit="10"/><path d="M998.461 384.03v2.5h-16.5c-8.44 0-15.29-6.85-15.29-15.29v-2.5h16.5c8.44 0 15.29 6.85 15.29 15.29z" fill="#A2D45E"/><path d="M998.461 384.03v2.5h-16.5c-8.44 0-15.29-6.85-15.29-15.29v-2.5h16.5c8.44 0 15.29 6.85 15.29 15.29zM998.461 303.49v106.22" stroke="#1D1D1B" stroke-width="7.43" stroke-miterlimit="10"/><path d="M986.183 291.54c9.34 0 16.907-7.571 16.907-16.91s-7.567-16.91-16.907-16.91c-9.339 0-16.91 7.571-16.91 16.91s7.571 16.91 16.91 16.91z" fill="#F3BD48"/><path d="M1010.09 315.45c9.34 0 16.91-7.571 16.91-16.91s-7.57-16.91-16.91-16.91-16.906 7.571-16.906 16.91 7.566 16.91 16.906 16.91z" fill="#F3BD48"/><path d="M1010.09 291.54c9.34 0 16.91-7.571 16.91-16.91s-7.57-16.91-16.91-16.91-16.906 7.571-16.906 16.91 7.566 16.91 16.906 16.91z" fill="#F09F54"/><path d="M986.183 315.45c9.34 0 16.907-7.571 16.907-16.91s-7.567-16.91-16.907-16.91c-9.339 0-16.91 7.571-16.91 16.91s7.571 16.91 16.91 16.91z" fill="#F09F54"/><path d="M986.183 291.54c9.34 0 16.907-7.571 16.907-16.91s-7.567-16.91-16.907-16.91c-9.339 0-16.91 7.571-16.91 16.91s7.571 16.91 16.91 16.91z" stroke="#1D1D1B" stroke-width="7.43" stroke-miterlimit="10"/><path d="M1010.09 315.45c9.34 0 16.91-7.571 16.91-16.91s-7.57-16.91-16.91-16.91-16.906 7.571-16.906 16.91 7.566 16.91 16.906 16.91z" stroke="#1D1D1B" stroke-width="7.43" stroke-miterlimit="10"/><path d="M1010.09 291.54c9.34 0 16.91-7.571 16.91-16.91s-7.57-16.91-16.91-16.91-16.906 7.571-16.906 16.91 7.566 16.91 16.906 16.91z" stroke="#1D1D1B" stroke-width="7.43" stroke-miterlimit="10"/><path d="M986.183 315.45c9.34 0 16.907-7.571 16.907-16.91s-7.567-16.91-16.907-16.91c-9.339 0-16.91 7.571-16.91 16.91s7.571 16.91 16.91 16.91z" stroke="#1D1D1B" stroke-width="7.43" stroke-miterlimit="10"/><path d="M998.363 306.31c10.757 0 19.477-8.721 19.477-19.48 0-10.758-8.72-19.48-19.477-19.48-10.759 0-19.48 8.722-19.48 19.48 0 10.759 8.721 19.48 19.48 19.48z" fill="#FCE200"/><path d="M998.472 306.05c10.758 0 19.478-8.722 19.478-19.48 0-10.759-8.72-19.48-19.478-19.48-10.758 0-19.48 8.721-19.48 19.48 0 10.758 8.722 19.48 19.48 19.48z" stroke="#1D1D1B" stroke-width="7.43" stroke-miterlimit="10"/><path d="M768.656 331.68v2.5c0 8.44-6.85 15.29-15.29 15.29h-16.5v-2.5c0-8.44 6.85-15.29 15.29-15.29h16.5z" fill="#A2D45E"/><path d="M768.656 331.68v2.5c0 8.44-6.85 15.29-15.29 15.29h-16.5v-2.5c0-8.44 6.85-15.29 15.29-15.29h16.5z" stroke="#1D1D1B" stroke-width="7.43" stroke-miterlimit="10"/><path d="M736.867 384.04v2.5h-16.5c-8.44 0-15.29-6.85-15.29-15.29v-2.5h16.5c8.44 0 15.29 6.85 15.29 15.29z" fill="#A2D45E"/><path d="M736.867 384.04v2.5h-16.5c-8.44 0-15.29-6.85-15.29-15.29v-2.5h16.5c8.44 0 15.29 6.85 15.29 15.29zM736.867 303.49v106.22" stroke="#1D1D1B" stroke-width="7.43" stroke-miterlimit="10"/><path d="M724.597 291.54c9.34 0 16.911-7.571 16.911-16.91s-7.571-16.91-16.911-16.91c-9.339 0-16.909 7.571-16.909 16.91s7.57 16.91 16.909 16.91z" fill="#F3BD48"/><path d="M748.508 315.45c9.339 0 16.91-7.571 16.91-16.91s-7.571-16.91-16.91-16.91-16.91 7.571-16.91 16.91 7.571 16.91 16.91 16.91z" fill="#F3BD48"/><path d="M748.508 291.54c9.339 0 16.91-7.571 16.91-16.91s-7.571-16.91-16.91-16.91-16.91 7.571-16.91 16.91 7.571 16.91 16.91 16.91z" fill="#F09F54"/><path d="M724.597 315.45c9.34 0 16.911-7.571 16.911-16.91s-7.571-16.91-16.911-16.91c-9.339 0-16.909 7.571-16.909 16.91s7.57 16.91 16.909 16.91z" fill="#F09F54"/><path d="M724.597 291.54c9.34 0 16.911-7.571 16.911-16.91s-7.571-16.91-16.911-16.91c-9.339 0-16.909 7.571-16.909 16.91s7.57 16.91 16.909 16.91z" stroke="#1D1D1B" stroke-width="7.43" stroke-miterlimit="10"/><path d="M748.508 315.45c9.339 0 16.91-7.571 16.91-16.91s-7.571-16.91-16.91-16.91-16.91 7.571-16.91 16.91 7.571 16.91 16.91 16.91z" stroke="#1D1D1B" stroke-width="7.43" stroke-miterlimit="10"/><path d="M748.508 291.54c9.339 0 16.91-7.571 16.91-16.91s-7.571-16.91-16.91-16.91-16.91 7.571-16.91 16.91 7.571 16.91 16.91 16.91z" stroke="#1D1D1B" stroke-width="7.43" stroke-miterlimit="10"/><path d="M724.597 315.45c9.34 0 16.911-7.571 16.911-16.91s-7.571-16.91-16.911-16.91c-9.339 0-16.909 7.571-16.909 16.91s7.57 16.91 16.909 16.91z" stroke="#1D1D1B" stroke-width="7.43" stroke-miterlimit="10"/><path d="M736.769 306.31c10.759 0 19.48-8.721 19.48-19.48 0-10.758-8.721-19.48-19.48-19.48-10.758 0-19.48 8.722-19.48 19.48 0 10.759 8.722 19.48 19.48 19.48z" fill="#FCE200"/><path d="M736.878 306.05c10.759 0 19.48-8.722 19.48-19.48 0-10.759-8.721-19.48-19.48-19.48-10.758 0-19.48 8.721-19.48 19.48 0 10.758 8.722 19.48 19.48 19.48z" stroke="#1D1D1B" stroke-width="7.43" stroke-miterlimit="10"/><path d="M1088.68 167.99c-.66.05-1.31.07-1.96.07-1.77 0-3.49-.21-5.15-.57 1.58 8.33-1.23 17.8-8.26 24.83l-2.62 2.62-9.79-9.8c-4.84-4.84-7.04-11.71-6.24-18.86-7.14.79-14.01-1.4-18.86-6.24l-9.8-9.79 2.62-2.62c7.2-7.2 16.98-9.99 25.45-8.15-1.59-8.33 1.22-17.82 8.26-24.86l2.62-2.62 9.8 9.8c4.84 4.84 7.04 11.71 6.24 18.86 7.14-.79 14.01 1.4 18.86 6.25l9.79 9.79-2.62 2.62c-5.08 5.08-11.59 8.16-18.33 8.66l-.01.01z" fill="#000"/><path d="M1072.56 144.35c2.3-6.48 1.12-13.1-3.07-17.29l-4.34-4.34c-5.47 7.52-5.62 17.22.09 22.94l5.07 5.06 2.26-6.37h-.01zm-35.87 6.12l4.34 4.34c4.19 4.19 10.82 5.36 17.29 3.07l6.36-2.26-5.06-5.06c-5.72-5.72-15.41-5.56-22.94-.09h.01zm26.37 12.15c-2.29 6.48-1.12 13.1 3.07 17.29l4.34 4.34c5.47-7.52 5.62-17.22-.09-22.94l-5.07-5.07-2.25 6.37v.01zm7.87-11.28l5.07 5.07c3.05 3.05 7.36 4.54 12.12 4.18 3.81-.28 7.55-1.71 10.81-4.09l-4.34-4.34c-4.19-4.19-10.81-5.36-17.29-3.07l-6.36 2.25h-.01z" fill="#F3BD48"/><path d="M406.61 147.98c-.66.05-1.31.07-1.96.07-1.77 0-3.49-.21-5.15-.57 1.58 8.33-1.23 17.8-8.26 24.83l-2.62 2.62-9.79-9.8c-4.84-4.84-7.04-11.71-6.24-18.86-7.14.79-14.01-1.4-18.86-6.24l-9.8-9.79 2.62-2.62c7.2-7.2 16.98-9.99 25.45-8.15-1.59-8.33 1.22-17.82 8.26-24.86l2.62-2.62 9.8 9.8c4.84 4.84 7.04 11.71 6.24 18.86 7.14-.79 14.01 1.4 18.86 6.25l9.79 9.79-2.62 2.62c-5.08 5.08-11.59 8.16-18.33 8.66l-.01.01z" fill="#000"/><path d="M390.489 124.34c2.3-6.48 1.12-13.1-3.07-17.29l-4.34-4.34c-5.47 7.52-5.62 17.22.09 22.94l5.07 5.06 2.26-6.37h-.01zm-35.87 6.12l4.34 4.34c4.19 4.19 10.82 5.36 17.29 3.07l6.36-2.26-5.06-5.06c-5.72-5.72-15.41-5.56-22.94-.09h.01zm26.37 12.15c-2.29 6.48-1.12 13.1 3.07 17.29l4.34 4.34c5.47-7.52 5.62-17.22-.09-22.94l-5.07-5.07-2.25 6.37v.01zm7.87-11.28l5.07 5.07c3.05 3.05 7.36 4.54 12.12 4.18 3.81-.28 7.55-1.71 10.81-4.09l-4.34-4.34c-4.19-4.19-10.81-5.36-17.29-3.07l-6.36 2.25h-.01z" fill="#F3BD48"/><path d="M803.962 224.26c-.05-.66-.07-1.31-.07-1.96 0-1.77.21-3.49.57-5.15-8.33 1.58-17.8-1.23-24.83-8.26l-2.62-2.62 9.8-9.79c4.84-4.84 11.71-7.04 18.86-6.24-.79-7.14 1.4-14.01 6.24-18.86l9.79-9.8 2.62 2.62c7.2 7.2 9.99 16.98 8.15 25.45 8.33-1.59 17.82 1.22 24.86 8.26l2.62 2.62-9.8 9.8c-4.84 4.84-11.71 7.04-18.86 6.24.79 7.14-1.4 14.01-6.25 18.86l-9.79 9.79-2.62-2.62c-5.08-5.08-8.16-11.59-8.66-18.33l-.01-.01z" fill="#000"/><path d="M827.603 208.14c6.48 2.3 13.1 1.12 17.29-3.07l4.34-4.34c-7.52-5.47-17.22-5.62-22.94.09l-5.06 5.07 6.37 2.26v-.01zm-6.12-35.87l-4.34 4.34c-4.19 4.19-5.36 10.82-3.07 17.29l2.26 6.36 5.06-5.06c5.72-5.72 5.56-15.41.09-22.94v.01zm-12.15 26.37c-6.48-2.29-13.1-1.12-17.29 3.07l-4.34 4.34c7.52 5.47 17.22 5.62 22.94-.09l5.07-5.07-6.37-2.25h-.01zm11.28 7.87l-5.07 5.07c-3.05 3.05-4.54 7.36-4.18 12.12.28 3.81 1.71 7.55 4.09 10.81l4.34-4.34c4.19-4.19 5.36-10.81 3.07-17.29l-2.25-6.36v-.01z" fill="#FCE200"/><path d="M602.7 390.4c18.524 0 33.54-15.017 33.54-33.54 0-18.524-15.016-33.54-33.54-33.54-18.523 0-33.54 15.016-33.54 33.54 0 18.523 15.017 33.54 33.54 33.54z" fill="#FCE200" stroke="#1D1D1B" stroke-width="7.43" stroke-miterlimit="10"/><path d="M635.487 356.79c13.912 0 25.19-11.278 25.19-25.19s-11.278-25.19-25.19-25.19-25.19 11.278-25.19 25.19 11.278 25.19 25.19 25.19z" fill="#FCE200" stroke="#1D1D1B" stroke-width="7.43" stroke-miterlimit="10"/><path d="M657.348 321.75l14.65 3.99-6.4 6.27 6.81 6.9-13.29 3.56 1.2-11.5-2.97-9.22zM644.397 339.07a7.53 7.53 0 007.53-7.53 7.53 7.53 0 10-15.06 0 7.53 7.53 0 007.53 7.53z" fill="#000"/><path d="M593.641 342.514l5.542 8.204-20.484 13.837c-6.994 4.725-16.505 2.883-21.229-4.111l-5.542-8.204 20.484-13.837c6.994-4.725 16.504-2.883 21.229 4.111z" fill="#FCE200"/><path d="M593.641 342.514l5.542 8.204-20.484 13.837c-6.994 4.725-16.505 2.883-21.229-4.111l-5.542-8.204 20.484-13.837c6.994-4.725 16.504-2.883 21.229 4.111zM595.758 389.67v20.45M613.5 387.76v20.44" stroke="#1D1D1B" stroke-width="7.43" stroke-miterlimit="10"/><path d="M172.953 216.372l.474-1.026c3.408-7.371 12.155-10.587 19.525-7.18l10.239 4.733-.474 1.026c-3.407 7.37-12.154 10.587-19.525 7.18l-10.239-4.733z" fill="#FCE200"/><path d="M172.953 216.372l.474-1.026c3.408-7.371 12.155-10.587 19.525-7.18l10.239 4.733-.474 1.026c-3.407 7.37-12.154 10.587-19.525 7.18l-10.239-4.733z" stroke="#1D1D1B" stroke-width="7.43" stroke-miterlimit="10"/><path d="M204.041 206.936l-2.769 5.991-18.735-8.66c-7.661-3.542-11.005-12.634-7.463-20.295l2.769-5.991 18.735 8.661c7.661 3.541 11.005 12.633 7.463 20.294z" fill="#F3BD48"/><path d="M204.041 206.936l-2.769 5.991-18.735-8.66c-7.661-3.542-11.005-12.634-7.463-20.295l2.769-5.991 18.735 8.661c7.661 3.541 11.005 12.633 7.463 20.294z" stroke="#1D1D1B" stroke-width="7.43" stroke-miterlimit="10"/><path d="M217.951 229.72c-5.99-.1-11.93-1.53-14-7.15-2.07-5.62.82-11.86 6.44-13.93 5.62-2.07 11.37 1.09 13.93 6.44 1.48 3.08 3.72 8.3 5.42 13.03-5.27 1.57-8.69 1.67-11.78 1.61h-.01z" fill="#FCE200"/><path d="M217.951 229.72c-5.99-.1-11.93-1.53-14-7.15-2.07-5.62.82-11.86 6.44-13.93 5.62-2.07 11.37 1.09 13.93 6.44 1.48 3.08 3.72 8.3 5.42 13.03-5.27 1.57-8.69 1.67-11.78 1.61h-.01zM185.578 209.52l1.38 9.65" stroke="#1D1D1B" stroke-width="7.43" stroke-miterlimit="10"/><path d="M1310.58 279.784l-.5-1.011c-3.62-7.271-.65-16.106 6.62-19.721l10.1-5.023.5 1.012c3.62 7.27.65 16.105-6.62 19.721l-10.1 5.022z" fill="#FCE200"/><path d="M1310.58 279.784l-.5-1.011c-3.62-7.271-.65-16.106 6.62-19.721l10.1-5.023.5 1.012c3.62 7.27.65 16.105-6.62 19.721l-10.1 5.022z" stroke="#1D1D1B" stroke-width="7.43" stroke-miterlimit="10"/><path d="M1322.66 249.617l2.93 5.909-18.48 9.191c-7.55 3.758-16.74.674-20.5-6.883l-2.93-5.91 18.48-9.19c7.55-3.758 16.74-.674 20.5 6.883z" fill="#F3BD48"/><path d="M1322.66 249.617l2.93 5.909-18.48 9.191c-7.55 3.758-16.74.674-20.5-6.883l-2.93-5.91 18.48-9.19c7.55-3.758 16.74-.674 20.5 6.883z" stroke="#1D1D1B" stroke-width="7.43" stroke-miterlimit="10"/><path d="M1349.15 253.04c-3.83 4.61-8.66 8.35-14.34 6.44-5.68-1.91-8.74-8.06-6.83-13.74 1.91-5.68 7.97-8.18 13.74-6.83 3.33.78 8.8 2.29 13.55 3.93-2.07 5.1-4.14 7.82-6.12 10.2z" fill="#FCE200"/><path d="M1349.15 253.04c-3.83 4.61-8.66 8.35-14.34 6.44-5.68-1.91-8.74-8.06-6.83-13.74 1.91-5.68 7.97-8.18 13.74-6.83 3.33.78 8.8 2.29 13.55 3.93-2.07 5.1-4.14 7.82-6.12 10.2zM1313.14 265.63l8.39 4.97" stroke="#1D1D1B" stroke-width="7.43" stroke-miterlimit="10"/></g><defs><clipPath id="apclip0_1403_4260"><path fill="#fff" d="M0 0h1920v490H0z"/></clipPath></defs></svg>