<?xml version="1.0" encoding="UTF-8"?><svg width="1920" height="390" xmlns="http://www.w3.org/2000/svg" viewBox="0 0 1920 390"><path fill="#f90" d="M0 0h1920v390H0z"/><path fill="#fff" stroke="#1d1d1b" stroke-width="8" d="M485.071 110.63h114.69c29.19 0 52.89 23.7 52.89 52.89v235.89h-218.94V162c0-28.35 23.01-51.36 51.36-51.36v-.01z"/><path fill="#8c9091" stroke="#1d1d1b" stroke-width="8" d="M591.059-19.83h79.92c29.19 0 52.89 23.7 52.89 52.89v366.35h-184.17V31.53c0-28.35 23.01-51.36 51.36-51.36z"/><path fill="#1d1d1b" d="M660.258 334.52a27.688 27.688 0 01-5.21-4.98 28.05 28.05 0 01-5.22 4.98 35.21 35.21 0 005.22 5.06c6.27 4.95 14.39 7.93 23.23 7.93v-7.19c-6.81 0-13.08-2.18-18.02-5.8z"/><path fill="#1d1d1b" d="M655.05 329.54a28.05 28.05 0 01-5.22 4.98c-4.94 3.62-11.21 5.8-18.02 5.8-6.81 0-12.87-2.1-17.77-5.63a27.353 27.353 0 01-5.27-4.91c-1.51 1.84-3.29 3.5-5.27 4.91a34.94 34.94 0 005.27 5.04c6.25 4.86 14.29 7.78 23.04 7.78s16.96-2.98 23.24-7.93c1.92-1.51 3.67-3.21 5.21-5.06a27.685 27.685 0 01-5.21-4.98z"/><path fill="#1d1d1b" d="M608.771 329.78c-1.51 1.84-3.29 3.5-5.27 4.91-4.9 3.53-11.08 5.63-17.77 5.63-6.69 0-12.93-2.13-17.85-5.69a27.905 27.905 0 01-5.25-4.92c-1.52 1.84-3.29 3.5-5.26 4.92 1.56 1.85 3.32 3.54 5.25 5.05 6.26 4.89 14.32 7.83 23.11 7.83s16.79-2.92 23.04-7.78c1.94-1.5 3.7-3.19 5.27-5.04a27.352 27.352 0 01-5.27-4.91z"/><path fill="#1d1d1b" d="M562.63 329.7a28.27 28.27 0 01-5.26 4.92c-4.91 3.56-11.11 5.69-17.85 5.69-6.74 0-12.5-1.98-17.32-5.3-2.01-1.39-3.81-3-5.36-4.81a27.938 27.938 0 01-5.34 4.82c1.6 1.84 3.39 3.51 5.36 4.99 6.2 4.68 14.09 7.49 22.66 7.49s16.85-2.94 23.1-7.83c1.94-1.51 3.7-3.2 5.26-5.05a27.902 27.902 0 01-5.25-4.92z"/><path fill="#1d1d1b" d="M516.839 330.2a27.935 27.935 0 01-5.34 4.82c-4.84 3.35-10.86 5.35-17.39 5.35v7.2c8.62 0 16.54-2.83 22.75-7.56 1.96-1.49 3.75-3.16 5.34-5-2.01-1.39-3.81-3-5.36-4.81zM839.218 329.54c-1.5 1.86-3.25 3.53-5.22 4.98-4.94 3.62-11.21 5.8-18.02 5.8-6.81 0-12.87-2.1-17.77-5.63a27.354 27.354 0 01-5.27-4.91c-1.51 1.84-3.29 3.5-5.27 4.91 1.57 1.85 3.33 3.54 5.27 5.04 6.25 4.86 14.29 7.78 23.04 7.78s16.96-2.98 23.24-7.93a34.66 34.66 0 005.21-5.06 27.686 27.686 0 01-5.21-4.98z"/><path fill="#1d1d1b" d="M792.939 329.78c-1.51 1.84-3.29 3.5-5.27 4.91-4.9 3.53-11.08 5.63-17.77 5.63-6.69 0-12.93-2.13-17.85-5.69a27.903 27.903 0 01-5.25-4.92c-1.52 1.84-3.29 3.5-5.26 4.92a35.36 35.36 0 005.25 5.05c6.26 4.89 14.32 7.83 23.11 7.83s16.79-2.92 23.04-7.78c1.94-1.5 3.7-3.19 5.27-5.04a27.352 27.352 0 01-5.27-4.91z"/><path fill="#1d1d1b" d="M746.798 329.7a28.27 28.27 0 01-5.26 4.92c-4.91 3.56-11.11 5.69-17.85 5.69-6.74 0-12.5-1.98-17.32-5.3-2.01-1.39-3.81-3-5.36-4.81a27.935 27.935 0 01-5.34 4.82c1.6 1.84 3.39 3.51 5.36 4.99 6.2 4.68 14.09 7.49 22.66 7.49s16.85-2.94 23.1-7.83c1.94-1.51 3.7-3.2 5.26-5.05a27.904 27.904 0 01-5.25-4.92z"/><path fill="#1d1d1b" d="M701.011 330.2a27.935 27.935 0 01-5.34 4.82c-4.84 3.35-10.86 5.35-17.39 5.35v7.2c8.62 0 16.54-2.83 22.75-7.56 1.96-1.49 3.75-3.16 5.34-5-2.01-1.39-3.81-3-5.36-4.81zM660.258 358.43a27.688 27.688 0 01-5.21-4.98 28.05 28.05 0 01-5.22 4.98 35.21 35.21 0 005.22 5.06c6.27 4.95 14.39 7.93 23.23 7.93v-7.19c-6.81 0-13.08-2.18-18.02-5.8z"/><path fill="#1d1d1b" d="M655.05 353.45a28.05 28.05 0 01-5.22 4.98c-4.94 3.62-11.21 5.8-18.02 5.8-6.81 0-12.87-2.1-17.77-5.63a27.353 27.353 0 01-5.27-4.91c-1.51 1.84-3.29 3.5-5.27 4.91a34.94 34.94 0 005.27 5.04c6.25 4.86 14.29 7.78 23.04 7.78s16.96-2.98 23.24-7.93c1.92-1.51 3.67-3.21 5.21-5.06a27.684 27.684 0 01-5.21-4.98z"/><path fill="#1d1d1b" d="M608.771 353.69c-1.51 1.84-3.29 3.5-5.27 4.91-4.9 3.53-11.08 5.63-17.77 5.63-6.69 0-12.93-2.13-17.85-5.69a27.905 27.905 0 01-5.25-4.92c-1.52 1.84-3.29 3.5-5.26 4.92 1.56 1.85 3.32 3.54 5.25 5.05 6.26 4.89 14.32 7.83 23.11 7.83s16.79-2.92 23.04-7.78c1.94-1.5 3.7-3.19 5.27-5.04a27.352 27.352 0 01-5.27-4.91z"/><path fill="#1d1d1b" d="M562.63 353.62a28.27 28.27 0 01-5.26 4.92c-4.91 3.56-11.11 5.69-17.85 5.69-6.74 0-12.5-1.98-17.32-5.3-2.01-1.39-3.81-3-5.36-4.81a27.939 27.939 0 01-5.34 4.82c1.6 1.84 3.39 3.51 5.36 4.99 6.2 4.68 14.09 7.49 22.66 7.49s16.85-2.94 23.1-7.83c1.94-1.51 3.7-3.2 5.26-5.05a27.903 27.903 0 01-5.25-4.92z"/><path fill="#1d1d1b" d="M516.839 354.12a27.936 27.936 0 01-5.34 4.82c-4.84 3.35-10.86 5.35-17.39 5.35v7.2c8.62 0 16.54-2.83 22.75-7.56 1.96-1.49 3.75-3.16 5.34-5-2.01-1.39-3.81-3-5.36-4.81zM839.218 353.45c-1.5 1.86-3.25 3.53-5.22 4.98-4.94 3.62-11.21 5.8-18.02 5.8-6.81 0-12.87-2.1-17.77-5.63a27.354 27.354 0 01-5.27-4.91c-1.51 1.84-3.29 3.5-5.27 4.91 1.57 1.85 3.33 3.54 5.27 5.04 6.25 4.86 14.29 7.78 23.04 7.78s16.96-2.98 23.24-7.93a34.66 34.66 0 005.21-5.06 27.686 27.686 0 01-5.21-4.98z"/><path fill="#1d1d1b" d="M792.939 353.69c-1.51 1.84-3.29 3.5-5.27 4.91-4.9 3.53-11.08 5.63-17.77 5.63-6.69 0-12.93-2.13-17.85-5.69a27.903 27.903 0 01-5.25-4.92c-1.52 1.84-3.29 3.5-5.26 4.92 1.56 1.85 3.32 3.54 5.25 5.05 6.26 4.89 14.32 7.83 23.11 7.83s16.79-2.92 23.04-7.78c1.94-1.5 3.7-3.19 5.27-5.04a27.352 27.352 0 01-5.27-4.91z"/><path fill="#1d1d1b" d="M746.798 353.62a28.27 28.27 0 01-5.26 4.92c-4.91 3.56-11.11 5.69-17.85 5.69-6.74 0-12.5-1.98-17.32-5.3-2.01-1.39-3.81-3-5.36-4.81a27.937 27.937 0 01-5.34 4.82c1.6 1.84 3.39 3.51 5.36 4.99 6.2 4.68 14.09 7.49 22.66 7.49s16.85-2.94 23.1-7.83c1.94-1.51 3.7-3.2 5.26-5.05a27.905 27.905 0 01-5.25-4.92z"/><path fill="#1d1d1b" d="M701.011 354.12a27.937 27.937 0 01-5.34 4.82c-4.84 3.35-10.86 5.35-17.39 5.35v7.2c8.62 0 16.54-2.83 22.75-7.56 1.96-1.49 3.75-3.16 5.34-5-2.01-1.39-3.81-3-5.36-4.81z"/><path fill="none" stroke="#1d1d1b" stroke-width="8" d="M1060.6 266v-22c0-14.45 11.72-26.17 26.17-26.17h52.85c14.45 0 26.17 11.72 26.17 26.17v150.94"/><path fill="none" stroke="#1d1d1b" stroke-width="8" d="M1082.68 265.37h-52.85c-14.45 0-26.17 11.717-26.17 26.17v51.82c0 14.453 11.72 26.17 26.17 26.17h52.85c14.45 0 26.17-11.717 26.17-26.17v-51.82c0-14.453-11.72-26.17-26.17-26.17z"/><path fill="#1d1d1b" d="M1839.95 80.57c10.42 0 18.91-8.56 18.91-19.08 0-10.52-8.48-19.08-18.91-19.08s-18.91 8.56-18.91 19.08c0 10.52 8.48 19.08 18.91 19.08zm0-30.28c6.09 0 11.04 5.03 11.04 11.21 0 6.18-4.95 11.21-11.04 11.21-6.09 0-11.04-5.03-11.04-11.21 0-6.18 4.95-11.21 11.04-11.21zm-108.94 53.33c-.17-1.16-.26-2.21-.26-3.2 0-11.82 9.53-21.44 21.25-21.44 2.08 0 4.12.3 6.08.9 4.92-7.57 13.4-12.29 22.49-12.29 11.06 0 20.79 6.75 24.87 16.83.9-.14 1.81-.2 2.73-.2 10.29 0 18.66 8.45 18.66 18.82v3.93h-95.32l-.5-3.35zm192.7 172.69h-81.28v-23.27h32.71v-7.87c-10.3 0-20.03-4.77-27.52-13.32h17.25v-7.87c-16.89 0-30.63-17.24-30.63-38.43h-.48c-7.68-60.99-63.51-61.02-85.49-61.02h-98.41v-.1c-13.81 0-26.8-5.87-36.6-16.33h23.57v-7.87c-22.02 0-39.93-19.94-39.93-44.46h-7.87c0 24.52-17.91 44.46-39.93 44.46v7.87h23.57c-9.8 10.47-22.79 16.33-36.6 16.33v7.87h28.3c-12 11.05-26.92 17.76-42.03 18.71l.25 7.86h57.89v21.92h-46.33c-34.94 0-63.36 28.42-63.36 63.36v32.18h-26.34c-25.22 0-46.81 15.83-55.37 38.08-8.56-22.25-30.14-38.08-55.37-38.08h-164.09v-.04h-7.86v.04l.18 7.87c1.43 19.23 12.39 35.84 28.18 45.11h-25.82v7.86h52.56c24.51.8 52.25 20.68 52.25 46.18v10.82h46.21v-.35h-.13v-10.47c0-19.84-14.07-36.78-31.75-46.18h50.28c28.37 0 51.45 23.08 51.45 51.45v5.54h305.34V284.19h11.21c41.3 0 89.3 33.67 89.3 77.09v32.88h41.24v-32.88c0-34.7-27.48-63.74-59.73-77.09h151.19v-7.87l-.01-.01zm-538.58 59.32v23.48c-10.25-17.8-29.45-29.81-51.42-29.81h-78.34c-.61-.02-1.22-.05-1.83-.05h-36.37c-24.95-.92-45.22-20.43-47.35-45.06h163.89c28.19 0 51.14 22.78 51.44 50.9 0 .18-.01.36-.01.54h-.01zm363.14-203.23c23.97 0 72.29.02 77.97 56.47-.55 8.07-3.09 15.44-7.01 21.31-10.47-6.24-17.76-18.91-17.76-28.06h-.08c-.82-20.11-13.77-31.18-36.75-31.18h-61.76c-2-5.73-3.34-11.98-3.91-18.54h49.3zm28.8 77.03c-6.84-4.27-12.8-11.37-17.11-20.64h13.32v-8.14c-4.94-.97-10.13-3.7-14.88-7.95-4.58-4.1-8.16-9.13-10.12-13.9h16.36c18.96 0 28.41 7.87 28.92 24-.32 8.73-6.92 20.33-16.49 26.63zm5.46 12.45c-1.46 3.05-3.66 6.24-6.29 9.26-3.44-2.76-6.56-5.87-9.24-9.26h15.53zm-60.88-45.13c-1.74-1.1-3.45-2.38-5.08-3.88-4.1-3.77-7.59-8.57-10.38-14.07h30.93c-1.95 4.79-5.5 9.83-10.07 13.91-1.75 1.56-3.56 2.9-5.4 4.05v-.01zm3.73 12.14c-1.57 3.36-3.36 6.42-5.33 9.18a67.62 67.62 0 01-6.66-9.18h11.99zm-94.28-56.6v.1h59.36c-.57 6.55-1.92 12.8-3.91 18.54h-23.7c-14.86-1.13-29.48-7.78-41.27-18.64h9.53-.01zm52.13 26.5c-2.79 5.51-6.28 10.3-10.38 14.07-4.73 4.35-9.99 7.02-15.47 7.91h-51.93v-21.92h57.89v-.07h19.88l.01.01zm-132.09-7.8c9.47-4.79 18.19-11.59 25.48-20.07l5.59-6.5h-17.41c7.41-4.36 14-10.44 19.35-17.99l4.39-6.2h-14.25c8.22-5.6 14.79-13.86 18.68-23.68 3.89 9.82 10.46 18.07 18.68 23.68h-14.25l4.39 6.2c5.35 7.56 11.94 13.64 19.35 17.99h-17.41l5.59 6.5c7.29 8.47 16.02 15.28 25.48 20.07h-37.21v29.79h-9.24v-29.79h-37.21zm-72.47 125.32v-32.18c0-30.6 24.89-55.49 55.49-55.49h46.06v4.77c0 36.92 22.17 68.73 53.88 82.9h-155.43zm203.56 0h-11.26c-45.71 0-82.9-37.19-82.9-82.9v-4.77h62.46v.23c1.82.15 3.63.15 5.43.01h20.07c-9.72 16.05-23.39 25.12-38.22 25.12v7.87h29.79c-11.97 14.79-27.12 22.85-43.27 22.85v7.87h57.89v23.71l.01.01zm17.11-.53h-9.24V252.6h9.24v23.18zm-1.01-37.63c-2.55 1.3-5.18 2.43-7.87 3.37-5.91 2.07-12.07 3.22-18.14 3.22h-19.12c9.55-5.5 18.19-13.79 25.44-24.59l4.12-6.13h-19.51c8.56-5.66 16.05-14.28 21.92-25.37.34-.65.7-1.27 1.03-1.93l2.84-5.69h-13.65c.1-.08.19-.17.29-.25.84-.67 1.68-1.37 2.5-2.12 5.65-5.2 10.28-12.01 13.71-19.86 1.05-2.41 2-4.92 2.82-7.51.82 2.6 1.77 5.1 2.82 7.51 3.43 7.85 8.06 14.66 13.71 19.86.67.61 1.35 1.17 2.04 1.73-.64.16-1.28.29-1.91.39-.29.05-.59.11-.88.15h-4.7v.1h-5.41l2.84 5.69c.33.66.69 1.29 1.03 1.93 3.12 5.9 6.71 11.08 10.68 15.51-4.94 4.91-10.61 8.14-16.61 9.33-1.71.34-3.45.53-5.2.53v7.87h18.9c.95 1.35 1.93 2.67 2.93 3.94-4.74 4.96-10.42 9.15-16.62 12.33v-.01zm31.89 38.17h-23.01v-23.71h23.01v23.71zm17.11-30.8v30.27h-9.24v-31.05h-35.17a69.329 69.329 0 0017.2-12.9c.92-.95 1.81-1.93 2.68-2.94.86-1 1.69-2.03 2.48-3.08.97-1.28 1.88-2.59 2.74-3.94.41-.65.85-1.28 1.24-1.95l1.17-1.99 2.3-3.93h-17.15c1.72-1.29 3.36-2.77 4.94-4.35.91-.91 1.8-1.86 2.66-2.86.85-.99 1.68-2.02 2.48-3.09 3.21-4.29 6-9.25 8.27-14.8.04-.09.07-.18.11-.26.33-.81.67-1.6.98-2.44l.43-1.18.03-.07 1.44-3.93.04-.1h-7.49l.18-.15c.16-.13.32-.27.48-.4.74-.58 1.47-1.17 2.19-1.81 4.38-3.91 7.94-8.44 10.42-13.07 2.49 4.62 6.05 9.14 10.45 13.07.93.83 1.89 1.62 2.85 2.36h-7.55l1.94 5.28c.31.83.65 1.63.98 2.44 4.22 10.42 10.27 18.81 17.46 24.55-1.9.5-3.85.79-5.85.79v.03h-10.3l3.47 5.92c3.73 6.36 8.68 12.03 14.43 16.81-3.96 3.39-8.32 6.1-12.47 7.46-.64.21-1.27.39-1.9.53h-8.89v.78h-.03zm7.87 30.8v-23.27h30.28l.24 23.27H1755.2zm30.3-31.14h-12.84c.19-.14.38-.3.57-.44 1.33-1.01 2.62-2.09 3.87-3.22 1-.91 1.98-1.85 2.92-2.82.94-.98 1.85-1.98 2.72-3 3.77-4.46 6.72-9.27 8.3-13.8.38-1.07.68-2.13.9-3.16l.16-.77.2-.96.63-3.01h-8.53c.36-.28.69-.58 1.04-.88 5.23-4.41 9.43-10.04 12.2-15.83 3.03 6.15 7.64 12.16 13.38 16.7h-8.49l.62 4.48c.07.48.17.97.28 1.46.47 1.59 2.25 7.22 5.3 11.94h.16c.57.82 1.16 1.64 1.79 2.44-3.73 3.65-7.91 6.43-12.38 8.27-2.13.87-4.31 1.53-6.55 1.96-2.05.39-4.13.64-6.25.64zm16.31 30.74h-8.23l-.23-22.88h8.47v22.88h-.01zm7.87.39v-23.27h8.57l.23 23.27h-8.81.01zm24.91-31.14v30.74h-8.23l-.23-22.88-.04-3.93-.04-3.93h-16.11c.23-.16.44-.36.67-.52 1.87-1.36 3.65-2.89 5.36-4.55.93-.9 1.84-1.84 2.72-2.83.86-.98 1.73-1.96 2.54-3.01 1.03-1.34 2.02-2.74 2.96-4.21l3.85-6.05h-10.81c.83-.67 1.63-1.39 2.41-2.14 1.28-1.22 2.5-2.53 3.64-3.93.33-.4.64-.81.95-1.23.83-1.1 1.62-2.24 2.37-3.43 1.43-2.29 2.69-4.73 3.75-7.32 2.99 7.31 7.54 13.54 13.12 18.05h-10.81l3.85 6.05c3.97 6.23 8.81 11.34 14.24 15.14h-16.15l-.01-.02z"/><path fill="#8c9091" d="M1752.01 86.84c2.1 0 4.13.49 6.03 1.47l3.63 1.87 1.73-3.7c3.14-6.7 9.88-11.03 17.19-11.03 8.77 0 16.36 6.02 18.46 14.64l1.07 4.38 4.19-1.65c1.26-.49 2.57-.75 3.88-.75 4.59 0 8.51 2.92 10.07 7.02h-79.57c.65-6.87 6.38-12.26 13.32-12.26v.01zM1739.5 284.3c32.1 13.41 59.39 42.38 59.39 76.96v32.88h25.5v-32.88c0-41.88-44.66-74.69-84.89-76.96zM1444.46 284.17H1682.65v28.62c-4.82 2.96-10.33 4.58-16 4.58-7.62 0-14.99-2.87-20.74-8.07l-2.34-2.11-2.34 2.11c-5.75 5.2-13.11 8.07-20.73 8.07-7.62 0-14.99-2.87-20.74-8.07l-2.34-2.11-2.34 2.11c-5.75 5.2-13.11 8.07-20.73 8.07-7.62 0-14.99-2.87-20.73-8.07l-2.34-2.11-2.34 2.11c-5.75 5.2-13.11 8.07-20.73 8.07-7.62 0-14.99-2.87-20.74-8.07l-2.34-2.11-2.34 2.11c-5.75 5.2-13.11 8.07-20.73 8.07-7.62 0-14.99-2.87-20.74-8.07l-2.34-2.11-2.34 2.11c-5.75 5.2-13.11 8.07-20.74 8.07-7.63 0-14.99-2.87-20.74-8.07l-2.34-2.11-2.34 2.11c-3.98 3.6-8.73 6.05-13.8 7.23 7.59-18.95 26.13-32.37 47.76-32.37l.02.01zm222.19 56.18c-7.62 0-14.98-2.87-20.73-8.07l-2.34-2.11-2.34 2.11c-5.75 5.2-13.11 8.07-20.73 8.07-7.62 0-14.99-2.87-20.73-8.07l-2.34-2.11-2.34 2.11c-5.75 5.2-13.11 8.07-20.73 8.07-7.62 0-14.98-2.87-20.73-8.07l-2.34-2.11-2.34 2.11c-5.75 5.2-13.12 8.07-20.73 8.07-7.61 0-14.99-2.87-20.73-8.07l-2.34-2.11-2.34 2.11c-5.75 5.2-13.11 8.07-20.73 8.07-7.62 0-14.98-2.87-20.73-8.07l-2.34-2.11-2.34 2.11c-5.75 5.2-13.12 8.07-20.74 8.07-7.62 0-14.98-2.87-20.73-8.07l-2.34-2.11-2.34 2.11c-4.92 4.45-11.03 7.18-17.47 7.87v-4.54c0-.18-.01-.36-.01-.54.04-3.7.48-7.31 1.26-10.78 6.69-.83 13.13-3.43 18.55-7.61 6.64 5.12 14.79 7.92 23.07 7.92 8.28 0 16.44-2.81 23.07-7.92 6.64 5.12 14.79 7.92 23.07 7.92 8.28 0 16.44-2.81 23.07-7.92 6.64 5.12 14.79 7.92 23.07 7.92 8.28 0 16.44-2.81 23.07-7.92 6.64 5.12 14.79 7.92 23.07 7.92 8.28 0 16.44-2.81 23.07-7.92 6.64 5.12 14.79 7.92 23.07 7.92 8.28 0 16.44-2.81 23.07-7.92 6.64 5.12 14.79 7.92 23.07 7.92 5.53 0 11-1.28 16-3.65v14.81c-4.82 2.96-10.33 4.58-16 4.58l.02.01zm16 3.59c-5 2.36-10.46 3.65-16 3.65-8.28 0-16.44-2.81-23.07-7.92-6.64 5.12-14.79 7.92-23.07 7.92-8.28 0-16.44-2.81-23.07-7.92-6.64 5.12-14.79 7.92-23.07 7.92-8.28 0-16.43-2.81-23.07-7.92-6.64 5.12-14.79 7.92-23.07 7.92-8.28 0-16.44-2.81-23.07-7.92-6.64 5.12-14.79 7.92-23.07 7.92-8.28 0-16.44-2.81-23.07-7.92-6.64 5.12-14.79 7.92-23.07 7.92-8.28 0-16.44-2.81-23.07-7.92-5.76 4.44-12.67 7.14-19.8 7.77v46.71h289.61v-50.2l-.04-.01zM1307.25 380.95v12.83h-30.27v-10.47c0-19.84-14.06-36.78-31.74-46.18h9.88c23.73.8 50.48 19.48 52.12 43.81l.01.01z"/><path fill="#1d1d1b" d="M493.45 314.39c-8.56-22.25-30.15-38.08-55.37-38.08h-26.34v-32.18c0-34.93-28.42-63.35-63.36-63.35h-46.33v-21.92h57.9l.24-7.86c-15.12-.95-30.03-7.66-42.03-18.71h28.3v-7.87c-13.81 0-26.8-5.86-36.6-16.33h23.57v-7.87c-22.02 0-39.93-19.94-39.93-44.46h-7.87c0 24.52-17.91 44.46-39.93 44.46v7.87h23.57c-9.8 10.47-22.79 16.33-36.6 16.33v.11h-98.41c-21.99 0-77.81.03-85.49 61.02h-.03c0 21.19-14.2 38.43-31.09 38.43v7.87H34.9c-7.49 8.54-17.21 13.32-27.52 13.32v7.86H40.1v23.27h-81.28v7.87H110c-32.24 13.35-59.72 42.39-59.72 77.09v32.88h41.23v-32.88c0-43.42 48.01-77.09 89.31-77.09h11.21v109.97h305.34v-5.55c0-.22 0-.44.01-.66v-53.21s0-10.04-3.93-20.33zm-278.52-92.51h29.79v-7.87c-14.83 0-28.51-9.07-38.22-25.12h20.06c1.8.14 3.62.13 5.45-.01v-.24h62.45v4.77c0 45.71-37.19 82.89-82.9 82.89h-11.25v-23.71h57.89v-7.87c-16.15 0-31.29-8.05-43.27-22.84zm62.15-63.02v21.92h-51.93c-5.48-.89-10.74-3.56-15.47-7.91-4.1-3.78-7.59-8.57-10.37-14.08h19.87v.07h57.9zm25.24 34.55v-4.77h46.06c30.6 0 55.49 24.9 55.49 55.49v32.18H248.45c31.71-14.17 53.87-45.98 53.87-82.9zm-21.57-86.98l4.38-6.21h-14.25c8.23-5.6 14.79-13.86 18.68-23.67 3.9 9.81 10.46 18.07 18.69 23.67h-14.26l4.39 6.21c5.35 7.56 11.94 13.63 19.35 17.99h-17.41l5.59 6.5c7.3 8.48 16.02 15.29 25.49 20.07h-37.22v29.79h-9.24v-29.79h-37.21c9.47-4.78 18.19-11.59 25.48-20.07l5.6-6.5H261.4c7.4-4.36 14-10.43 19.35-17.99zm-29.31 25.96v-.1h9.53c-11.8 10.86-26.42 17.52-41.27 18.64h-23.71c-2-5.73-3.34-11.98-3.91-18.54h59.36zm-117.18 0h49.3c-.57 6.56-1.91 12.81-3.91 18.54h-61.77c-22.97 0-35.92 11.07-36.74 31.19h-.08c0 9.15-7.29 21.82-17.76 28.06-3.93-5.88-6.46-13.24-7.01-21.31 5.67-56.46 54-56.48 77.97-56.48zm31.7 40.48c-1.64 1.5-3.34 2.78-5.08 3.88a39.814 39.814 0 01-5.4-4.05c-4.57-4.08-8.13-9.12-10.07-13.91h30.92c-2.78 5.51-6.27 10.3-10.37 14.08zm3.18 16.02c-2.05 3.38-4.28 6.44-6.66 9.18a58.913 58.913 0 01-5.33-9.18h11.99zm-46.57-.1c-4.31 9.27-10.27 16.36-17.11 20.64-9.57-6.31-16.17-17.9-16.49-26.63.5-16.13 9.96-24.01 28.91-24.01h16.37c-1.96 4.78-5.54 9.81-10.12 13.91-4.75 4.24-9.94 6.97-14.88 7.95v8.14h13.32zm-7.03 33.09c-2.68 3.39-5.81 6.49-9.24 9.25-2.63-3.01-4.84-6.2-6.3-9.25h15.54zm-59.03 23.29l-.08 7.86-.23 22.88h-8.24v-30.74H31.81c5.44-3.8 10.28-8.91 14.25-15.14l3.85-6.05H39.1c5.58-4.51 10.13-10.74 13.12-18.05a48.46 48.46 0 003.75 7.32 46.19 46.19 0 002.36 3.43c.32.42.63.83.96 1.23a42.45 42.45 0 003.63 3.93c.79.75 1.59 1.47 2.42 2.14H54.53l3.85 6.05a56.41 56.41 0 002.96 4.21c.81 1.06 1.67 2.04 2.54 3.01.87.99 1.78 1.93 2.71 2.84 1.71 1.66 3.49 3.2 5.36 4.55.23.17.44.37.67.53H56.51zm16.36 31.13h-8.81l.24-23.27h8.57v23.27zm16.1-.39h-8.23v-22.88h8.46l-.23 22.88zm-4.71-33.35c-4.47-1.84-8.65-4.61-12.38-8.27.63-.8 1.23-1.62 1.79-2.44h.16c3.04-4.72 4.83-10.35 5.3-11.94.1-.49.21-.98.28-1.46l.62-4.48h-8.49c5.74-4.53 10.35-10.55 13.38-16.7 2.78 5.79 6.97 11.42 12.2 15.83.35.29.69.59 1.04.87h-8.53l.63 3.01.19.95h.01l.16.78c.21 1.04.52 2.09.89 3.17 1.59 4.53 4.54 9.34 8.31 13.8.86 1.02 1.77 2.02 2.71 3 .94.97 1.92 1.91 2.92 2.82 1.25 1.13 2.54 2.21 3.87 3.22l.57.45H97.05c-2.11 0-4.19-.25-6.25-.65a33.67 33.67 0 01-6.54-1.96zm12.57 33.74l.24-23.27h30.28v23.27H96.83zm78.5 0h-23.01v-23.71h23.01v23.71zm-30.88-31.58v31.05h-9.24v-31.05h-8.88c-.63-.14-1.26-.32-1.9-.53-4.16-1.36-8.52-4.07-12.48-7.45 5.75-4.77 10.71-10.45 14.43-16.81l3.47-5.92h-10.3v-.04c-2 0-3.95-.28-5.85-.78 7.19-5.74 13.24-14.12 17.46-24.55.33-.81.67-1.6.98-2.43l1.93-5.29h-7.55c.97-.74 1.92-1.52 2.85-2.36 4.39-3.92 7.96-8.44 10.45-13.06 2.47 4.63 6.03 9.15 10.42 13.07.71.64 1.45 1.22 2.18 1.81.17.13.32.27.49.4.06.04.11.1.17.14h-7.48l.03.1 1.44 3.94.03.07.43 1.18c.31.83.65 1.62.98 2.43.03.09.07.18.1.27 2.27 5.55 5.06 10.51 8.27 14.8.81 1.07 1.63 2.1 2.48 3.09.86 1 1.75 1.95 2.66 2.86 1.59 1.58 3.23 3.06 4.94 4.35h-17.14l2.3 3.93 1.17 1.99c.38.66.82 1.3 1.24 1.95.86 1.34 1.77 2.66 2.74 3.94a67.062 67.062 0 005.16 6.01 69.24 69.24 0 0017.19 12.89h-35.17zm47.99 31.05h-9.24v-23.18h9.24v23.18zm-.36-34.27c-2.69-.93-5.32-2.06-7.87-3.36-6.2-3.17-11.88-7.37-16.62-12.33 1-1.27 1.97-2.58 2.93-3.93h18.89v-7.87c-1.75 0-3.49-.19-5.2-.53-6-1.19-11.67-4.42-16.61-9.33 3.97-4.42 7.55-9.61 10.68-15.51.34-.64.7-1.26 1.03-1.93l2.84-5.69h-5.41v-.1h-4.7c-.29-.03-.59-.1-.88-.14-.63-.11-1.27-.23-1.91-.39.68-.56 1.37-1.12 2.04-1.74 5.64-5.2 10.28-12.01 13.71-19.86 1.05-2.41 2-4.92 2.82-7.51.82 2.59 1.77 5.1 2.82 7.51 3.43 7.85 8.07 14.66 13.71 19.86.82.76 1.66 1.45 2.5 2.13.1.07.19.17.29.24h-13.65l2.84 5.69c.33.67.69 1.29 1.03 1.93 5.87 11.08 13.36 19.71 21.92 25.37h-19.51l4.12 6.13c7.25 10.79 15.9 19.08 25.44 24.58h-19.12c-6.06 0-12.22-1.15-18.13-3.22z"/><path fill="#8c9091" d="M143.038 284.3c-32.1 13.41-59.39 42.38-59.39 76.96v32.88h-25.5v-32.88c0-41.88 44.66-74.69 84.89-76.96zM469.698 339.66c-6.64 5.12-14.79 7.92-23.07 7.92-8.28 0-16.44-2.8-23.08-7.92-6.63 5.12-14.79 7.92-23.07 7.92-8.28 0-16.44-2.8-23.07-7.92-6.64 5.12-14.79 7.92-23.08 7.92s-16.43-2.8-23.07-7.92c-6.64 5.12-14.79 7.92-23.07 7.92-8.28 0-16.44-2.8-23.08-7.92-6.63 5.12-14.79 7.92-23.07 7.92-8.28 0-16.43-2.8-23.07-7.92-6.64 5.12-14.79 7.92-23.08 7.92-5.53 0-10.99-1.28-15.99-3.64v50.2h289.6v-46.71c-7.13-.63-14.04-3.33-19.8-7.77zm18.55-15.36a38.103 38.103 0 01-18.55-7.62c-6.64 5.12-14.79 7.93-23.07 7.93-8.28 0-16.44-2.81-23.08-7.93-6.63 5.12-14.79 7.93-23.07 7.93-8.28 0-16.44-2.81-23.07-7.93-6.64 5.12-14.79 7.93-23.08 7.93s-16.43-2.81-23.07-7.93c-6.64 5.12-14.79 7.93-23.07 7.93-8.28 0-16.44-2.81-23.07-7.93-6.64 5.12-14.8 7.93-23.08 7.93-8.28 0-16.43-2.81-23.07-7.93-6.64 5.12-14.79 7.93-23.08 7.93-5.53 0-10.99-1.29-15.99-3.65v14.81c4.82 2.96 10.33 4.58 15.99 4.58 7.62 0 14.99-2.86 20.74-8.07l2.34-2.11 2.34 2.11c5.75 5.21 13.11 8.07 20.73 8.07 7.62 0 14.99-2.86 20.74-8.07l2.34-2.11 2.33 2.11c5.75 5.21 13.12 8.07 20.74 8.07 7.62 0 14.98-2.86 20.73-8.07l2.34-2.11 2.34 2.11c5.75 5.21 13.11 8.07 20.73 8.07 7.62 0 14.99-2.86 20.74-8.07l2.34-2.11 2.34 2.11c5.75 5.21 13.11 8.07 20.73 8.07 7.62 0 14.98-2.86 20.74-8.07l2.33-2.11 2.34 2.11c5.75 5.21 13.12 8.07 20.74 8.07 7.62 0 14.98-2.86 20.73-8.07l2.34-2.11 2.34 2.11c4.92 4.46 11.03 7.18 17.46 7.88v-4.54c0-.18.02-.36.02-.54-.04-3.7-.48-7.31-1.27-10.78zm-50.17-40.13h-238.18v28.62c4.82 2.96 10.33 4.58 15.99 4.58 7.63 0 14.99-2.86 20.74-8.07l2.34-2.11 2.34 2.11c5.74 5.21 13.11 8.07 20.73 8.07 7.62 0 14.99-2.86 20.74-8.07l2.34-2.11 2.33 2.11c5.75 5.21 13.12 8.07 20.74 8.07 7.62 0 14.98-2.86 20.73-8.07l2.34-2.11 2.34 2.11c5.75 5.21 13.11 8.07 20.73 8.07 7.62 0 14.99-2.86 20.74-8.07l2.34-2.11 2.34 2.11c5.74 5.21 13.11 8.07 20.73 8.07 7.62 0 14.99-2.86 20.74-8.07l2.33-2.11 2.34 2.11c5.75 5.21 13.11 8.07 20.74 8.07 7.63 0 14.98-2.86 20.73-8.07l2.34-2.11 2.34 2.11c3.97 3.6 8.73 6.05 13.8 7.24-7.6-18.95-26.13-32.37-47.76-32.37zM820.629 376.44v29.63h288.631v-72.76c0-21.94-17.78-39.72-39.72-39.72H903.479c-45.76 0-82.85 37.09-82.85 82.85z"/><path fill="#1d1d1b" d="M816.699 410v-33.57c0-47.93 38.85-86.78 86.78-86.78h166.061c24.11 0 43.65 19.54 43.65 43.65V410H816.699zm288.631-76.69c0-19.77-16.03-35.79-35.79-35.79H903.479c-43.59 0-78.92 35.34-78.92 78.92v25.7h280.771v-68.83zM926.81 83.47c.45 1.55.61 3.19.43 4.85-.35 3.34-1.98 6.34-4.59 8.45l-10.4 8.42c-1.37-4.71.1-10.01 4.15-13.29l10.4-8.42m1.64-9.05l-15.82 12.81c-7.97 6.45-9.2 18.14-2.75 26.1l.73.9 15.82-12.81c7.97-6.45 9.2-18.14 2.75-26.1l-.73-.9zM878.05 83.18l10.49 8.32c2.63 2.08 4.29 5.07 4.67 8.4.19 1.65.06 3.3-.38 4.85l-10.49-8.32a12.445 12.445 0 01-4.67-8.4c-.19-1.65-.06-3.3.38-4.85zm-1.73-9.03l-.72.91c-6.37 8.03-5.02 19.71 3.01 26.07l15.95 12.64.72-.91c6.37-8.03 5.02-19.71-3.01-26.07l-15.95-12.64z"/><path fill="#1d1d1b" d="M902.482 105.73c2.7 0 4.9 2.2 4.9 4.9s-2.2 4.9-4.9 4.9-4.9-2.2-4.9-4.9 2.2-4.9 4.9-4.9zm0-6c-6.02 0-10.9 4.88-10.9 10.9 0 6.02 4.88 10.9 10.9 10.9 6.02 0 10.9-4.88 10.9-10.9 0-6.02-4.88-10.9-10.9-10.9zM848.852 26.14c1.37 4.71-.1 10.01-4.15 13.29l-10.4 8.42a12.52 12.52 0 01-.43-4.85c.35-3.34 1.98-6.34 4.59-8.45l10.4-8.42m1.64-9.05l-15.82 12.81c-7.97 6.45-9.2 18.14-2.75 26.1l.73.9 15.82-12.81c7.97-6.45 9.2-18.14 2.75-26.1l-.73-.9zM800.091 25.85l10.49 8.32c4.08 3.24 5.61 8.52 4.29 13.25l-10.48-8.31a12.445 12.445 0 01-4.67-8.4c-.19-1.65-.06-3.3.38-4.85m-1.73-9.03l-.72.91c-6.37 8.03-5.02 19.71 3.01 26.07l15.95 12.64.72-.91c6.37-8.03 5.02-19.71-3.01-26.07l-15.95-12.64z"/><path fill="#1d1d1b" d="M824.533 48.39c2.7 0 4.9 2.2 4.9 4.9s-2.2 4.9-4.9 4.9-4.9-2.2-4.9-4.9 2.2-4.9 4.9-4.9zm0-6c-6.02 0-10.9 4.88-10.9 10.9 0 6.02 4.88 10.9 10.9 10.9 6.02 0 10.9-4.88 10.9-10.9 0-6.02-4.88-10.9-10.9-10.9z"/><path fill="#8b8e8f" d="M915.611 293.91l13.56-31.57-7.71-17.91-19.41 48.92 13.56.56z"/><path fill="#e1201c" d="M922.211 242.5h54.07l18.88 50.85h-53.38l-19.57-50.85zM917.52 292.84l11.209-29.48 11.671 29.99-22.88-.51z"/><path fill="none" stroke="#1d1d1b" stroke-width="7" d="M902.051 293.35h93.11l-19.15-49.83h-54.2l-19.76 49.83zM941.453 293.78l-19.641-50.26M928.789 261.37l-13.16 31.98"/><path fill="#8b8e8f" d="M964.04 262.87c.07 3.2-2.49 4.53-4.99 4.77-5.44.52-10.71-4.56-10.43-8.82.21-3.17 1.69-4.89 5.13-5.17 3.94-.32 10.15 3.01 10.29 9.22z"/><path fill="none" stroke="#1d1d1b" stroke-width="5" d="M964.043 262.87c.07 3.2-2.49 4.53-4.99 4.77-5.44.52-10.06-4.57-10.43-8.82-.24-2.73 1.25-5.69 4.69-5.97 3.94-.32 10.59 3.81 10.74 10.02h-.01z"/><path fill="#163029" d="M411.68 69.18h-57.62l-.76-2.54c-.14-.48-1.35-4.9.25-12.2 1.69-7.71 9.97-16.04 20.39-16.04 6.95 0 13.44 3.5 17.31 9.14 1.42-.39 2.89-.59 4.38-.59 9.21 0 16.71 7.5 16.71 16.71 0 .78-.06 1.57-.2 2.5l-.46 3.03v-.01zm-51.82-7.12h45.23c-.76-4.53-4.71-7.99-9.45-7.99-1.51 0-2.96.35-4.33 1.05l-3.27 1.66-1.57-3.31c-2.28-4.83-7.2-7.94-12.53-7.94-6.56 0-12.35 5.51-13.43 10.45-.56 2.56-.68 4.62-.65 6.09v-.01z"/><path fill="#fff" stroke="#1d1d1b" stroke-width="7" d="M733.742 96.24h-95.05c-11.018 0-19.95 8.932-19.95 19.95v11.67c0 11.018 8.932 19.95 19.95 19.95h95.05c11.018 0 19.95-8.932 19.95-19.95v-11.67c0-11.018-8.932-19.95-19.95-19.95z"/><path fill="#878787" stroke="#1d1d1b" stroke-width="7" d="M695.76 44.66h1.761c6.91 0 12.519 5.61 12.519 12.52v39.05h-26.81V57.18c0-6.91 5.61-12.52 12.52-12.52h.01z"/><path fill="#f90" opacity=".88" d="M0 0h1920v390H0z"/></svg>