<?xml version="1.0" encoding="utf-8"?><svg width="1920" height="668" fill="none" xmlns="http://www.w3.org/2000/svg" viewBox="0 0 1920 668"><g clip-path="url(#atclip0_2146_7120)"><path fill="#F2C94C" d="M1920.1 540H.1V0h1920z"/><path fill="#fff" d="M0 0h1920v135H0z"/><path d="M1522.26 102.6l-1-3.432a33.364 33.364 0 01.31-15.89 28.341 28.341 0 019.79-14.88 28.168 28.168 0 0116.71-6.055c4.38.01 8.68 1.071 12.56 3.096a27.39 27.39 0 019.74 8.538l.17.24h.28c3.2-.827 6.55-.907 9.79-.234 3.25.674 6.29 2.083 8.9 4.12a21.778 21.778 0 016.19 7.635 21.94 21.94 0 012.2 9.586c.01 1.15-.08 2.3-.28 3.432l-.58 4.016-74.78-.172zm25.81-30.888a18.88 18.88 0 00-10.81 3.98 18.94 18.94 0 00-6.49 9.542c-.56 2.42-.84 4.895-.85 7.379v.48h58.4v-.514a12.51 12.51 0 00-4.34-6.936 12.444 12.444 0 00-7.69-2.742 12.17 12.17 0 00-5.58 1.338l-4.31 2.196-2.05-4.392a18.102 18.102 0 00-6.63-7.42 18.025 18.025 0 00-9.54-2.773l-.11-.138z" fill="#163029"/><path d="M1548.18 62.858c4.3.007 8.54 1.049 12.36 3.037a26.923 26.923 0 019.59 8.391l.34.48h.55c1.72-.45 3.49-.681 5.27-.686 3.07-.03 6.11.615 8.91 1.89a21.198 21.198 0 017.3 5.487c2 2.341 3.47 5.093 4.3 8.063a21.19 21.19 0 01.52 9.133l-.55 3.673h-74.1l-.89-3.055a32.783 32.783 0 01.34-15.718 27.735 27.735 0 019.61-14.65 27.62 27.62 0 0116.45-5.942m-18.57 30.888h59.36l-.24-1.064a12.6 12.6 0 00-2.48-5.22 12.691 12.691 0 00-15.74-3.394l-3.9 1.99-1.88-3.981a18.41 18.41 0 00-6.77-7.65 18.309 18.309 0 00-9.78-2.852c-4.01.15-7.88 1.554-11.05 4.015a19.314 19.314 0 00-6.67 9.713 34.869 34.869 0 00-.85 7.482v.858m18.57-31.609a28.554 28.554 0 00-16.97 6.138 28.774 28.774 0 00-9.95 15.106 33.725 33.725 0 00-.3 16.13l1.09 3.673h75.47l.65-4.393c.18-1.136.27-2.283.28-3.432 0-3.389-.77-6.732-2.26-9.776a22.145 22.145 0 00-6.31-7.786 22.043 22.043 0 00-9.07-4.211 22.06 22.06 0 00-9.99.22 27.888 27.888 0 00-9.9-8.64 27.773 27.773 0 00-12.74-3.132v.103zm-17.72 30.888c.01-2.46.29-4.91.82-7.31 1.1-3.684 3.32-6.93 6.35-9.287a18.378 18.378 0 0110.55-3.858c3.3.005 6.53.949 9.32 2.722a17.486 17.486 0 016.44 7.3l2.26 4.77 4.72-2.402a11.69 11.69 0 015.37-1.304c2.7 0 5.33.93 7.44 2.633a11.921 11.921 0 014.15 6.736h-57.42zM1553.61 170.588v-4.736a25.876 25.876 0 017.53-18.215 25.703 25.703 0 0118.16-7.559c1.37.011 2.74.125 4.1.343h.34v-.343a37.239 37.239 0 0113.73-17.152 37.047 37.047 0 0120.98-6.391c6.25.011 12.4 1.586 17.9 4.582a37.674 37.674 0 0113.56 12.578l.21.274h.3a28.864 28.864 0 018.76-1.338c4.22-.01 8.4.899 12.24 2.663a29.286 29.286 0 0110.02 7.558 29.59 29.59 0 015.95 11.068 29.561 29.561 0 01.79 12.55l-.62 4.05-133.95.068zm25.69-21.072a16.28 16.28 0 00-9.46 3.057 16.335 16.335 0 00-5.93 7.994l-.21.583h115.55v-.48a20.11 20.11 0 00-6.35-13.165 19.975 19.975 0 00-13.55-5.368 19.79 19.79 0 00-9.03 2.162l-4.31 2.197-2.08-4.393a28.1 28.1 0 00-11.53-12.403 27.93 27.93 0 00-16.54-3.488 27.98 27.98 0 00-15.53 6.698 28.082 28.082 0 00-8.86 14.444l-1.27 5.217-4.99-1.922a15.964 15.964 0 00-5.91-1.133zM223.419 170.588v-4.736a25.853 25.853 0 00-7.532-18.215 25.67 25.67 0 00-18.15-7.559 27.246 27.246 0 00-4.103.343h-.342v-.343a37.241 37.241 0 00-13.731-17.152 37.042 37.042 0 00-20.979-6.391 37.507 37.507 0 00-17.895 4.582 37.66 37.66 0 00-13.566 12.578l-.205.274h-.307a28.794 28.794 0 00-8.755-1.338 29.182 29.182 0 00-12.245 2.663 29.297 29.297 0 00-10.014 7.558 29.415 29.415 0 00-5.948 11.068 29.48 29.48 0 00-.791 12.55l.615 4.05 133.948.068zm-25.682-21.072a16.275 16.275 0 019.454 3.057 16.369 16.369 0 015.935 7.994l.205.583H97.781v-.48a20.143 20.143 0 016.347-13.165 20.002 20.002 0 0113.555-5.368 19.781 19.781 0 019.028 2.162l4.308 2.197 2.087-4.393a28.064 28.064 0 0111.529-12.403 27.92 27.92 0 0132.067 3.21 28.118 28.118 0 018.862 14.444l1.265 5.217 4.992-1.922a15.987 15.987 0 015.916-1.133z" fill="#163029"/><path d="M1579.3 149.516a16.28 16.28 0 00-9.46 3.057 16.335 16.335 0 00-5.93 7.994l-.21.584h115.55v-.481a20.14 20.14 0 00-6.34-13.164 20.015 20.015 0 00-13.56-5.369 19.79 19.79 0 00-9.03 2.162l-4.31 2.197-2.08-4.393a28.1 28.1 0 00-11.53-12.403 27.938 27.938 0 00-16.54-3.488 27.98 27.98 0 00-15.53 6.698 28.147 28.147 0 00-8.86 14.444l-1.27 5.217-4.99-1.922a15.964 15.964 0 00-5.91-1.133zM197.736 149.516a16.275 16.275 0 019.454 3.057 16.369 16.369 0 015.935 7.994l.205.584H97.78v-.481a20.138 20.138 0 016.347-13.164 19.999 19.999 0 0113.555-5.369 19.781 19.781 0 019.028 2.162l4.308 2.197 2.087-4.393a28.064 28.064 0 0111.529-12.403 27.927 27.927 0 0132.067 3.21 28.118 28.118 0 018.862 14.444l1.265 5.217 4.992-1.922a15.987 15.987 0 015.916-1.133z" fill="#E8EDF0"/><path d="M1618.59 117.117a37.51 37.51 0 0117.7 4.664 37.685 37.685 0 0113.42 12.496l.34.549.61-.171c2.8-.89 5.72-1.341 8.66-1.339a28.937 28.937 0 0120.43 8.525 29.176 29.176 0 018.5 20.51c-.02 1.46-.15 2.917-.38 4.359l-.51 3.638h-133.37v-4.496a25.475 25.475 0 017.42-17.902 25.278 25.278 0 0117.85-7.426c1.35-.003 2.7.101 4.04.308h.68l.27-.652a36.9 36.9 0 0113.53-16.938 36.601 36.601 0 0120.67-6.365m-28.72 35.007l-4.55-1.785a16.64 16.64 0 00-18.46 4.489 16.785 16.785 0 00-3.36 5.807l-.41 1.132h116.61v-.926a20.69 20.69 0 00-3.18-9.39 20.595 20.595 0 00-7.19-6.807 20.439 20.439 0 00-9.52-2.646c-3.35-.09-6.66.641-9.66 2.129l-3.89 1.991-1.88-3.982a28.49 28.49 0 00-11.71-12.633 28.326 28.326 0 00-32.6 3.276 28.508 28.508 0 00-8.97 14.711l-1.17 4.736m28.73-35.864a37.53 37.53 0 00-21.21 6.496 37.769 37.769 0 00-13.88 17.356 24.828 24.828 0 00-4.2-.343c-6.93 0-13.57 2.758-18.47 7.668a26.304 26.304 0 00-7.66 18.518v5.148h134.91l.65-4.393a30.3 30.3 0 00.37-4.461 29.998 29.998 0 00-8.73-21.127 29.785 29.785 0 00-21.05-8.766 28.81 28.81 0 00-8.89 1.373 38.121 38.121 0 00-13.71-12.791 37.914 37.914 0 00-18.13-4.678zm-28.14 36.997l1.4-5.697a27.618 27.618 0 018.72-14.253 27.485 27.485 0 0115.3-6.606c5.66-.564 11.36.644 16.31 3.456a27.626 27.626 0 0111.34 12.255l2.26 4.77 4.71-2.402a19.455 19.455 0 0125.31 6.972 19.586 19.586 0 012.97 9.055h-114.49a15.96 15.96 0 015.8-7.777 15.868 15.868 0 019.22-2.965 15.61 15.61 0 015.71 1.064l5.44 2.128zM158.444 117.117a37.51 37.51 0 00-17.703 4.664 37.662 37.662 0 00-13.415 12.496l-.342.549-.616-.171a28.474 28.474 0 00-8.651-1.339 28.943 28.943 0 00-20.438 8.525 29.154 29.154 0 00-8.493 20.51 29.67 29.67 0 00.376 4.359l.513 3.638h133.367v-4.496a25.444 25.444 0 00-7.423-17.902 25.263 25.263 0 00-17.848-7.426c-1.351-.003-2.7.101-4.035.308h-.684l-.274-.652a36.833 36.833 0 00-13.522-16.938 36.634 36.634 0 00-20.675-6.365m28.726 35.007l4.548-1.785a16.633 16.633 0 0113.099.473 16.7 16.7 0 015.361 4.016 16.78 16.78 0 013.358 5.807l.41 1.132H97.473v-.926a20.64 20.64 0 013.182-9.39 20.535 20.535 0 017.187-6.807 20.454 20.454 0 0119.176-.517l3.899 1.991 1.88-3.982a28.484 28.484 0 0111.702-12.633 28.339 28.339 0 0116.819-3.553 28.372 28.372 0 0115.784 6.829 28.548 28.548 0 018.974 14.711l1.163 4.736m-28.726-35.864a37.522 37.522 0 0121.208 6.496 37.727 37.727 0 0113.878 17.356 24.907 24.907 0 014.206-.343 26.078 26.078 0 0118.462 7.668 26.267 26.267 0 017.665 18.518v5.148H89.026l-.65-4.393a30.582 30.582 0 01-.376-4.461 29.981 29.981 0 018.734-21.127 29.765 29.765 0 0121.051-8.766c3.017-.01 6.017.453 8.891 1.373a38.091 38.091 0 0113.708-12.791 37.919 37.919 0 0118.129-4.678zm28.144 36.997l-1.402-5.697a27.674 27.674 0 00-8.718-14.253 27.484 27.484 0 00-31.613-3.15 27.628 27.628 0 00-11.341 12.255l-2.256 4.77-4.719-2.402a19.44 19.44 0 00-18.424.401 19.522 19.522 0 00-6.885 6.571 19.611 19.611 0 00-2.972 9.055h114.491a15.948 15.948 0 00-5.797-7.777 15.87 15.87 0 00-9.216-2.965 15.608 15.608 0 00-5.711 1.064l-5.437 2.128z" fill="#163029"/><path fill-rule="evenodd" clip-rule="evenodd" d="M565.574 202.342h-6.125l-9.142 9.284C536.46 203.337 520.674 198.977 504.6 199c-24.002 0-47.02 9.683-63.992 26.919-16.972 17.236-26.507 40.613-26.507 64.988 0 24.384 9.532 47.771 26.501 65.022 16.969 17.25 39.988 26.954 63.998 26.978 16.074.023 31.86-4.337 45.707-12.625V383c0 12.311-4.815 24.117-13.387 32.822-8.571 8.705-20.197 13.596-32.32 13.596a45.22 45.22 0 01-25.683-8.129c-7.565-5.265-13.395-12.719-16.733-21.393l-33.183 33.7c8.226 12.732 19.445 23.184 32.643 30.413A89.23 89.23 0 00504.6 475c23.535.011 46.148-9.289 63.043-25.927 16.896-16.638 26.744-39.306 27.458-63.195v-183.35h-29.71l.183-.186zM537.012 323.73c8.571-8.705 13.387-20.512 13.387-32.823 0-12.31-4.816-24.117-13.387-32.822-8.572-8.705-20.198-13.595-32.32-13.595s-23.748 4.89-32.32 13.595c-8.571 8.705-13.387 20.512-13.387 32.822 0 12.311 4.816 24.118 13.387 32.823 8.572 8.705 20.198 13.595 32.32 13.595s23.748-4.89 32.32-13.595z" fill="#fff"/><path d="M330.521 389.199h-3.622a11.346 11.346 0 002.248-6.771v-6.996a11.492 11.492 0 00-11.517-11.519h-5.172a11.891 11.891 0 002.498-7.196c0-7.121-6.545-12.918-14.64-12.918h-6.92c-8.07 0-14.641 5.797-14.641 12.918.01 2.61.889 5.142 2.498 7.196h-5.197a11.492 11.492 0 00-11.492 11.519v6.946a11.491 11.491 0 002.224 6.771h-3.648a11.498 11.498 0 00-11.493 11.519v6.947a11.505 11.505 0 003.358 8.143 11.492 11.492 0 008.135 3.375h23.785v44.302h19.512v-44.252h23.959a11.516 11.516 0 0011.518-11.519v-6.946a11.521 11.521 0 00-11.393-11.519z" fill="#A2D45E"/><path d="M310.134 467.033v-44.327h20.362a14.987 14.987 0 0014.99-14.991v-6.947a15.163 15.163 0 00-12.941-14.992h-.325v-.324c.2-.979.3-1.975.3-2.974v-7.046a14.993 14.993 0 00-14.266-14.992h-.375v-.375c.242-1.065.36-2.155.35-3.248 0-9.095-8.17-16.516-18.213-16.516h-6.921c-9.993 0-18.213 7.496-18.213 16.516a15.62 15.62 0 00.35 3.248v.375h-.375a14.989 14.989 0 00-14.266 14.992v6.946c0 .999.101 1.995.3 2.974v.324h-.35a15.163 15.163 0 00-12.941 14.992v6.947a14.99 14.99 0 0014.99 14.992h20.362v44.326l27.182.1zm-7.145-7.172h-12.367v-44.326H263.14a7.921 7.921 0 01-7.92-7.92v-6.947a7.921 7.921 0 017.92-7.92h10.718l-4.172-5.722a7.745 7.745 0 01-1.549-4.648v-6.946a7.923 7.923 0 017.919-7.921h12.492l-4.372-5.772a8.17 8.17 0 01-1.749-4.997c0-5.147 4.997-9.345 11.043-9.345h6.92c6.096 0 11.044 4.198 11.044 9.345a8.375 8.375 0 01-1.724 4.997l-4.372 5.772h12.492a7.923 7.923 0 017.919 7.921v6.946a7.745 7.745 0 01-1.549 4.648l-4.172 5.722h10.718a7.921 7.921 0 017.92 7.92v6.947a7.921 7.921 0 01-7.92 7.92h-27.482l-.275 44.326z" fill="#1D1D1B"/><path d="M293.346 340.526c-9.994 0-17.914 7.271-17.914 16.191a14.99 14.99 0 00.35 3.174l.175.724h-.75a14.767 14.767 0 00-13.966 14.767v6.947c.004.972.096 1.942.275 2.898l.125.65h-.649a14.838 14.838 0 00-12.667 14.642v6.946a14.791 14.791 0 0014.765 14.792h20.687v44.401h26.058v-44.251h20.686a14.813 14.813 0 0010.451-4.34 14.811 14.811 0 004.34-10.452v-6.946a14.995 14.995 0 00-12.692-14.642h-.649v-.65c.199-.953.3-1.925.299-2.899v-7.046a14.792 14.792 0 00-13.991-14.767h-.724l.15-.699c.229-1.051.346-2.123.349-3.199 0-8.92-8.019-16.191-17.913-16.191h-6.92m12.492 26.661h11.767a8.242 8.242 0 018.245 8.245v6.947a8.067 8.067 0 01-1.625 4.847l-3.797 5.197h9.994a8.244 8.244 0 018.244 8.246v6.946a8.245 8.245 0 01-8.244 8.246h-27.208v44.251h-12.991v-44.301h-27.232a8.25 8.25 0 01-5.815-2.424 8.249 8.249 0 01-2.405-5.822v-6.946a8.247 8.247 0 018.22-8.246h10.118l-3.823-5.197a8.218 8.218 0 01-1.599-4.847v-6.947a8.219 8.219 0 015.068-7.617 8.215 8.215 0 013.152-.628h11.792l-3.997-5.247a8.574 8.574 0 01-1.649-5.223c0-5.322 4.997-9.644 11.368-9.644h6.92c6.271 0 11.368 4.322 11.368 9.644a8.699 8.699 0 01-1.799 5.223l-3.997 5.247m-12.492-27.286h6.92c10.219 0 18.538 7.496 18.538 16.816a16.355 16.355 0 01-.349 3.324 15.418 15.418 0 0114.565 15.391v6.947a15.193 15.193 0 01-.3 3.023 15.441 15.441 0 0113.217 15.267v6.946a15.443 15.443 0 01-15.416 15.417h-19.987v44.301h-27.282v-44.301h-19.987a15.414 15.414 0 01-15.39-15.417v-6.946a15.442 15.442 0 0113.216-15.267 15.118 15.118 0 01-.299-3.023v-6.947a15.414 15.414 0 0114.565-15.391 14.81 14.81 0 01-.375-3.324c0-9.27 8.32-16.816 18.539-16.816h-.175zm37.175 75.335a7.644 7.644 0 007.62-7.496v-6.946a7.643 7.643 0 00-7.62-7.496h-11.317l4.522-6.197a7.494 7.494 0 001.499-4.473v-7.196a7.648 7.648 0 00-7.495-7.496h-13.042l4.772-6.246a7.974 7.974 0 001.674-4.848c0-4.997-4.822-9.02-10.743-9.02h-6.92c-5.921 0-10.743 4.048-10.743 9.02a7.991 7.991 0 001.698 4.848l4.747 6.246h-13.042a7.495 7.495 0 00-7.495 7.496v6.947a7.496 7.496 0 001.475 4.472l4.547 6.197h-11.343a7.498 7.498 0 00-7.495 7.496v6.946a7.496 7.496 0 007.495 7.496h27.857v44.301h11.742v-44.051h27.607z" fill="#1D1D1B"/><path d="M492.717 550.988H186.665c0-99.946 79.948-100.796 116.999-100.796h189.053v100.796z" fill="#F3BD48"/><path d="M496.289 554.561V446.669H303.664c-36.077 0-120.597 0-120.597 104.394v3.573l313.222-.075zm-7.171-7.171H190.287v-.325c2.049-93.3 77.25-93.3 113.377-93.3h185.454v93.625z" fill="#1D1D1B"/><path d="M303.664 446.919c-35.977 0-120.272 0-120.272 104.069v3.273h312.597V446.819H303.614m185.78 100.796H189.913v-.65c2.023-93.6 77.45-93.6 113.676-93.6h185.78v94.25m-185.78-101.421h192.95v108.592H182.693v-3.898c0-104.694 84.72-104.694 120.896-104.694zM488.744 546.99v-92.825H303.589c-36.201 0-111.028 0-113.052 93l298.207-.175z" fill="#1D1D1B"/><path d="M430.082 450.192c.133-.826.208-1.661.225-2.499a17.49 17.49 0 00-17.489-17.49 17.242 17.242 0 00-7.92 1.924 23.213 23.213 0 00-36.22-7.653 23.211 23.211 0 00-7.326 12 14.866 14.866 0 00-20.287 13.893l89.017-.175z" fill="#A2D45E"/><path d="M433.18 453.766l.45-3.049c.163-1.041.247-2.094.25-3.148a21.139 21.139 0 00-21.111-21.114 20.814 20.814 0 00-6.097.9h-.224l-.125-.2a27.158 27.158 0 00-22.486-12.168 26.627 26.627 0 00-24.809 16.666v.224h-.25a20.091 20.091 0 00-2.773-.199 18.516 18.516 0 00-18.488 18.49v3.573l95.663.025zm-20.411-20.139a14.065 14.065 0 0113.89 12.643v.4h-81.522l.15-.425a11.399 11.399 0 0110.593-7.296 11.035 11.035 0 014.098.774l3.797 1.474.974-3.972a19.64 19.64 0 0117.117-14.838 19.641 19.641 0 0119.709 11.165l1.6 3.348 3.273-1.674a13.536 13.536 0 016.321-1.599z" fill="#1D1D1B"/><path d="M383.837 415.36a26.408 26.408 0 00-24.534 16.466l-.175.475h-.5c-.899-.15-1.81-.225-2.722-.225a18.216 18.216 0 00-18.164 18.191v3.273h95.163l.425-2.799c.151-1.026.234-2.061.25-3.098a20.84 20.84 0 00-20.811-20.814 20.45 20.45 0 00-6.022.9l-.449.15-.25-.4a26.829 26.829 0 00-22.211-12.044m19.488 21.039l3.023-1.549a13.979 13.979 0 016.421-1.549 14.163 14.163 0 0114.19 12.918v.699h-82.321l.324-.849a11.576 11.576 0 016.095-6.484 11.571 11.571 0 018.896-.238l3.473 1.35.899-3.623a19.987 19.987 0 0137.476-3.723l1.424 3.048m-19.488-21.663a27.324 27.324 0 0122.736 12.318 21.402 21.402 0 0118.982 3.296 21.406 21.406 0 018.649 17.218 21.28 21.28 0 01-.274 3.198l-.5 3.323h-96.312v-3.897a18.816 18.816 0 0118.788-18.815c.945-.001 1.889.074 2.822.224a27.08 27.08 0 0125.109-16.865zm19.213 22.487l-1.724-3.648a19.342 19.342 0 00-19.403-10.974 19.336 19.336 0 00-16.849 14.597l-1.049 4.323-4.147-1.624a10.887 10.887 0 00-3.972-.75 11.042 11.042 0 00-10.294 7.122h80.823a13.64 13.64 0 00-13.566-12.369 13.22 13.22 0 00-6.147 1.499l-3.572 1.824h-.1z" fill="#1D1D1B"/><path d="M1399.58 289.461L1462.1 380h-53.05l-35.95-52.216L1337.06 380h-52.96l62.43-90.539L1286.22 202h52.95l33.93 49.046L1406.94 202h52.95l-60.31 87.461z" fill="#fff"/><path fill-rule="evenodd" clip-rule="evenodd" d="M1208.06 338.054a45.378 45.378 0 01-23.89-6.838c-7.2-4.464-13.05-10.854-16.91-18.471h129.36a94.756 94.756 0 002.48-21.292c-.02-24.529-9.63-48.044-26.7-65.38-17.07-17.335-40.21-27.073-64.34-27.073-24.13 0-47.26 9.741-64.32 27.079-17.06 17.338-26.64 40.854-26.64 65.374-.02 3.466.2 6.93.64 10.366-.05.684-.05 1.371 0 2.055.37 2.801.83 5.509 1.38 8.124v.747c4.72 20.262 16.01 38.316 32.07 51.246 16.05 12.93 35.92 19.979 56.41 20.009a89.287 89.287 0 0034.81-7.012c11.04-4.648 21.06-11.469 29.5-20.071l-31.88-32.498c-8.48 8.593-19.91 13.485-31.88 13.635h-.09zm23.9-86.511a45.405 45.405 0 00-23.9-6.877l.09.187a45.377 45.377 0 00-23.93 6.773c-7.21 4.448-13.08 10.828-16.96 18.441h81.59c-3.85-7.634-9.69-14.043-16.89-18.524z" fill="#fff"/><path d="M2215.87 547.702v-4.971c0-14.033-5.58-27.49-15.49-37.416a52.958 52.958 0 00-37.4-15.523h-188.24a53.052 53.052 0 00-34.75 13.044 53.05 53.05 0 00-17.7 32.632v.552a42.373 42.373 0 00-.33 3.922v7.76h-7.62v-4.971-2.762c0-.939.16-2.568.3-3.866v-.442a53.111 53.111 0 00-17.65-32.756c-9.64-8.433-22-13.1-34.8-13.14h-165.63a.604.604 0 00-.44.176.643.643 0 00-.2.431v57.302h-7.59V490.4a.647.647 0 00-.05-.239.57.57 0 00-.14-.201.66.66 0 00-.2-.13.63.63 0 00-.25-.038h-102.14a53.123 53.123 0 00-34.57 13.015 53.16 53.16 0 00-17.74 32.412v12.483h-8.01v-36.757c0-2.761 0-5.523-.19-8.284a160.988 160.988 0 00-49.89-108.527 160.854 160.854 0 00-110.91-44.242h-19.49c-.17 0-.33.067-.45.186a.637.637 0 00-.19.449v21.43c0 .359.28.884.64.884h7.62a146.658 146.658 0 01103.56 42.981 146.806 146.806 0 0142.97 103.601v28.306h-7.26v-28.333a139.247 139.247 0 00-40.65-98.098 139.118 139.118 0 00-97.99-40.863h-7.89a.646.646 0 00-.64.608v29.3c0 .082.02.163.05.239a.599.599 0 00.35.33c.07.029.16.042.24.038h2.54a113.57 113.57 0 0180.19 33.293 113.674 113.674 0 0133.27 80.234v23.225h-7.6v-23.225a106.054 106.054 0 00-31.04-74.846 106.005 106.005 0 00-74.82-31.059h-2.54c-.17 0-.33.067-.45.186a.636.636 0 00-.19.449v128.495h-7.59v-49.156a.69.69 0 00-.18-.433.674.674 0 00-.43-.202 48.88 48.88 0 01-27.27-9.417.647.647 0 00-.36-.111c-.13 0-.25.039-.36.111a48.366 48.366 0 01-28.75 9.47 48.366 48.366 0 01-28.75-9.47.613.613 0 00-.36 0 .649.649 0 00-.39 0 48.32 48.32 0 01-57.47 0 .649.649 0 00-.39 0 .555.555 0 00-.36 0 48.891 48.891 0 01-28.87 9.472c-2.66.001-5.31-.22-7.93-.663a48.53 48.53 0 01-20.7-8.809.613.613 0 00-.36 0 .649.649 0 00-.39 0 48.297 48.297 0 01-28.73 9.474 48.327 48.327 0 01-28.74-9.474.649.649 0 00-.39 0 .613.613 0 00-.36 0 48.253 48.253 0 01-57.69-.193.649.649 0 00-.39 0 .614.614 0 00-.36 0 48.033 48.033 0 01-17.527 8.036.64.64 0 00-.469.414 112.86 112.86 0 00-5.521 34.685v16.266h-7.592v-16.211a120.62 120.62 0 0135.309-85.136 120.52 120.52 0 0185.11-35.322h66.5a.63.63 0 00.43-.196.652.652 0 00.18-.439v-28.969a.66.66 0 00-.04-.241.572.572 0 00-.13-.206.694.694 0 00-.2-.139.624.624 0 00-.24-.049h-26.14a18.42 18.42 0 01-13-5.395 18.458 18.458 0 01-5.39-12.997v-8.837a18.386 18.386 0 0116.32-18.309.557.557 0 00.25-.067.54.54 0 00.19-.181.704.704 0 00.05-.249c0-.085-.02-.17-.05-.248-.33-1.357-.5-2.747-.5-4.143v-8.754c.03-4.81 1.92-9.422 5.29-12.859a18.51 18.51 0 0112.74-5.56.58.58 0 00.47-.221.66.66 0 000-.553 19.202 19.202 0 01-.56-4.529c0-11.046 10.03-20.214 22.37-20.214h7.23c12.34 0 22.36 9.058 22.36 20.214 0 1.576-.2 3.145-.61 4.667a.708.708 0 00-.05.249c0 .085.02.17.05.249a.64.64 0 00.44.276c4.48.528 8.6 2.681 11.6 6.051a18.43 18.43 0 014.64 12.23v8.837c0 1.874-.29 3.737-.86 5.523a.607.607 0 00.04.439c.07.137.18.246.32.307a18.372 18.372 0 018 6.351.595.595 0 00.5.249c24.1-3.286 42.29-26.538 42.57-54.264h7.62c.3 29.382 21.25 53.822 46.93 54.623.16.003.32-.056.44-.166.11-.13.18-.295.19-.469v-.829c.12-.098.2-.235.22-.386 2.76-47.885 29.57-70.199 84.81-70.199h120.8c20 .022 39.17 7.978 53.31 22.122a75.525 75.525 0 0122.11 53.323v79.174c0 .331.28.856.63.856h16.9a60.26 60.26 0 0140.72 15.647 60.333 60.333 0 0119.52 39.032.594.594 0 00.6.552h165.89a60.418 60.418 0 0155.7 36.949c.05.112.13.207.24.274.1.067.22.102.34.102a.623.623 0 00.58-.376 60.572 60.572 0 0122.46-27.106 60.492 60.492 0 0133.75-10.009h188.19a60.749 60.749 0 0160.51 60.561v4.971h-7.57zM1585.8 434.478A52.957 52.957 0 001548.4 450a53.035 53.035 0 00-15.52 37.417v14.94c0 2.762.22 5.523.22 8.285a.678.678 0 00.44.607h.17a.63.63 0 00.31-.082.64.64 0 00.24-.222 60.141 60.141 0 0151.54-28.885h55.79c.14.005.27-.036.38-.116.11-.08.19-.195.23-.326a.598.598 0 00-.04-.395.634.634 0 00-.26-.295 63.43 63.43 0 01-20.7-19.436 63.556 63.556 0 01-10.17-26.517.607.607 0 00-.2-.376.607.607 0 00-.4-.148l-24.63.027zm-332.84 45.4a40.255 40.255 0 0026.46 9.915c9.73 0 19.13-3.522 26.46-9.915l2.76-2.32 2.76 2.32a40.385 40.385 0 0024.85 9.859c.16.003.32-.056.44-.166a.686.686 0 00.19-.469v-21.927a.586.586 0 00-.18-.43.608.608 0 00-.43-.178 48.883 48.883 0 01-27.27-9.444.647.647 0 00-.36-.111c-.13 0-.25.039-.36.111a48.278 48.278 0 01-28.75 9.497 48.278 48.278 0 01-28.75-9.497.695.695 0 00-.75 0 48.187 48.187 0 01-28.73 9.501 48.217 48.217 0 01-28.74-9.501.916.916 0 00-.39 0 .782.782 0 00-.36 0 48.278 48.278 0 01-28.75 9.497 48.278 48.278 0 01-28.75-9.497.686.686 0 00-.37-.109c-.13 0-.26.038-.38.109a48.187 48.187 0 01-28.73 9.501 48.217 48.217 0 01-28.74-9.501.686.686 0 00-.37-.109.72.72 0 00-.38.109 48.184 48.184 0 01-54.82 1.823.765.765 0 00-.33 0 .637.637 0 00-.27.059.627.627 0 00-.23.162 114.218 114.218 0 00-16.89 27.366.617.617 0 00-.11.346c0 .122.04.242.11.345.05.063.12.114.19.147.08.034.16.049.25.046h.25a41.311 41.311 0 0010.27-5.965l1.04-1.519 2.57-2.209 2.76 2.32a40.293 40.293 0 0026.46 9.914c9.73 0 19.13-3.521 26.46-9.914l2.76-2.32 2.76 2.32a40.255 40.255 0 0026.45 9.911c9.72 0 19.12-3.52 26.45-9.911l2.76-2.32 2.76 2.32a40.254 40.254 0 0026.46 9.914c9.73 0 19.12-3.521 26.46-9.914l2.76-2.32 2.76 2.32a40.236 40.236 0 0052.89 0l2.76-2.32 1.88 2.154zm366.49-45.317a.732.732 0 00-.27.06.694.694 0 00-.22.161.614.614 0 000 .497 55.894 55.894 0 0018.96 33.64 55.875 55.875 0 0036.25 13.306h13.39c.08.006.17-.009.25-.042a.637.637 0 00.22-.151c.06-.066.1-.145.13-.231.03-.085.04-.176.03-.266a52.916 52.916 0 00-17.28-33.474 52.846 52.846 0 00-35.17-13.472l-16.29-.028zM1421.8 279.086c-50.94 0-74.76 19.331-77.3 62.522-.01.085 0 .171.03.252.03.081.08.155.14.217.11.118.27.187.44.193h19.32a168.818 168.818 0 01162.87 125.347c.04.132.11.249.21.334.11.085.24.133.37.135a.619.619 0 00.58-.414 60.8 60.8 0 0122.11-29.465 60.718 60.718 0 0135.07-11.268h23.99a.58.58 0 00.42-.178.584.584 0 00.18-.429V346.91a67.907 67.907 0 00-19.88-47.934 67.867 67.867 0 00-47.92-19.89H1421.8zm-168.84 169.559a40.199 40.199 0 0026.46 9.942c9.73 0 19.13-3.533 26.46-9.942l2.76-2.32 2.76 2.32a40.222 40.222 0 0024.85 9.859c.16.003.32-.056.44-.166a.715.715 0 00.19-.442v-38.661a.647.647 0 00-.05-.239.57.57 0 00-.14-.201.66.66 0 00-.2-.13.61.61 0 00-.24-.038h-229.99a111.913 111.913 0 00-43.4 8.69 111.934 111.934 0 00-36.65 24.835.605.605 0 00-.17.525c0 .091.03.18.08.258.05.077.12.141.2.184a40.125 40.125 0 0024.17 5.415 40.2 40.2 0 0022.76-9.806l2.76-2.32 2.76 2.32a40.154 40.154 0 0052.89 0l2.76-2.32 2.76 2.32a40.18 40.18 0 0052.92 0l2.76-2.32 2.76 2.32a40.16 40.16 0 0026.45 9.938c9.73 0 19.12-3.531 26.44-9.938l2.77-2.32 1.68 2.237zm46.4-67.906a.61.61 0 00-.24.038.66.66 0 00-.2.13.567.567 0 00-.14.2.655.655 0 00-.05.239v28.969c0 .168.07.33.19.449.11.119.28.186.44.186h36.78c.16 0 .33-.067.44-.186a.636.636 0 00.19-.449v-28.941a.651.651 0 00-.05-.239.57.57 0 00-.14-.201.66.66 0 00-.2-.13.648.648 0 00-.24-.038l-36.78-.027zm-93.11 0c-.08 0-.16.016-.24.049a.71.71 0 00-.2.138c-.06.06-.1.13-.13.207a.66.66 0 00-.04.241v28.913a.639.639 0 00.61.636h65.01a.636.636 0 00.44-.194.674.674 0 00.2-.442v-28.913a.648.648 0 00-.2-.432.63.63 0 00-.44-.176h-65.01v-.027zm73.24 29.548c0 .082.01.164.05.239a.57.57 0 00.14.201.66.66 0 00.2.13.61.61 0 00.24.038h10.38c.09.004.17-.009.24-.038a.599.599 0 00.35-.331.651.651 0 00.05-.239v-37.143h28.93a.621.621 0 00.38-.132.665.665 0 00.23-.337.608.608 0 00-.04-.398.585.585 0 00-.27-.292 73.929 73.929 0 01-23.9-22.424l-4.12-5.965h16.29a.633.633 0 00.6-.845.62.62 0 00-.24-.315 61.975 61.975 0 01-23.11-29.714.579.579 0 00-.22-.308.596.596 0 00-.36-.119c-.13 0-.25.042-.36.119a.637.637 0 00-.22.308 61.955 61.955 0 01-23.1 29.714.62.62 0 00-.24.315.625.625 0 00.22.721c.11.081.24.124.38.124h16.28l-4.11 5.965a73.655 73.655 0 01-23.93 22.424.595.595 0 00-.26.298.587.587 0 00-.02.392c.04.134.12.252.22.337a.65.65 0 00.39.132h28.93v37.143zm-98.61-1.104c0 .082.02.163.05.239.03.075.08.144.14.2a.66.66 0 00.2.13.63.63 0 00.25.038h15.87a.61.61 0 00.45-.168.54.54 0 00.13-.2.5.5 0 00.05-.239v-36.011h25.37c1.54-.01 3.05-.339 4.45-.966a10.878 10.878 0 004.61-3.972 10.871 10.871 0 001.74-5.832v-8.837c-.01-.621-.08-1.24-.2-1.85a4.583 4.583 0 00-.13-.635c-.54-2.268-1.79-4.3-3.58-5.794a10.77 10.77 0 00-6.33-2.491l-7.13-.359 4.25-5.716a10.581 10.581 0 002.16-6.379v-8.727c0-2.864-1.14-5.61-3.16-7.635a10.806 10.806 0 00-7.64-3.162h-12.36l4.63-6.103a11.24 11.24 0 002.35-6.822c0-6.959-6.6-12.62-14.74-12.62h-7.1c-8.28 0-14.76 5.661-14.76 12.62.02 2.472.86 4.868 2.37 6.822l4.64 6.103h-14.33c-2.86.007-5.6 1.147-7.62 3.17a10.768 10.768 0 00-3.17 7.627v8.837c.01 2.282.75 4.499 2.12 6.324l4.42 6.075h-12.31c-2.86.008-5.6 1.149-7.62 3.173a10.79 10.79 0 00-3.15 7.625v8.837a10.802 10.802 0 003.16 7.608 10.795 10.795 0 007.61 3.162h34.2l.11 35.928zm127.79-57.993a.554.554 0 00-.55.387.569.569 0 00-.11.331c0 .119.04.234.11.332a62.253 62.253 0 0027.6 18.281h.19c.12.045.25.045.36 0a.562.562 0 00.2-.214.57.57 0 00.08-.283v-18.116c0-.168-.07-.33-.19-.449a.636.636 0 00-.45-.186l-27.24-.083zm-66.26 0a.554.554 0 00-.24.061.643.643 0 00-.2.16.558.558 0 00-.14.213.451.451 0 00-.02.257v.414c.02.423.02.847 0 1.27v8.837c-.02 1.529-.22 3.05-.61 4.529a.58.58 0 00.01.345c.03.112.09.213.18.29a.65.65 0 00.42.138c.08.026.16.026.24 0a63.179 63.179 0 0020.38-15.409.56.56 0 00.1-.332.559.559 0 00-.1-.331.554.554 0 00-.55-.387l-19.47-.055zm197.33-3.286l-.5-3.231a28.983 28.983 0 01-.36-4.363 29.252 29.252 0 018.57-20.652 29.217 29.217 0 0120.64-8.565c3.17-.001 6.31.521 9.3 1.546h.2a.583.583 0 00.52-.304 37.48 37.48 0 0115.21-13.881 37.448 37.448 0 0139.41 3.773 37.502 37.502 0 0112.3 16.515c.04.116.12.216.23.285.1.069.22.105.35.102 1.56-.309 3.15-.466 4.75-.47a25.444 25.444 0 0117.95 7.45 25.407 25.407 0 017.44 17.957v3.81l-136.01.028zm28.21-29.051a21.711 21.711 0 00-15 6.137 21.723 21.723 0 00-6.59 14.823c0 .163.06.321.17.442a.68.68 0 00.44.193h119.95a.637.637 0 00.27-.07.656.656 0 00.23-.179.653.653 0 000-.552c-.65-2.417-1.8-4.67-3.37-6.613a17.728 17.728 0 00-5.77-4.663 17.759 17.759 0 00-14.49-.709l-4.03 1.574-1.03-4.225a29.808 29.808 0 00-9.46-15.375 29.836 29.836 0 00-16.58-7.118 29.86 29.86 0 00-29.94 16.97l-1.68 3.535-3.48-1.768a21.165 21.165 0 00-9.64-2.402zm-355.2-23.004c-4.59 0-9.07-1.361-12.88-3.909a23.119 23.119 0 01-8.54-10.411 23.122 23.122 0 01-1.32-13.403c.89-4.499 3.1-8.633 6.34-11.877a23.227 23.227 0 0111.88-6.348 23.193 23.193 0 0127.71 22.751 23.238 23.238 0 01-6.84 16.314 23.193 23.193 0 01-16.35 6.745v.138zm0-38.662a15.54 15.54 0 00-8.64 2.639 15.518 15.518 0 00-5.72 6.995 15.567 15.567 0 00-.88 8.997 15.54 15.54 0 004.27 7.967 15.556 15.556 0 0016.96 3.364 15.477 15.477 0 006.98-5.736 15.585 15.585 0 002.63-8.651 15.61 15.61 0 00-1.13-6.038 15.6 15.6 0 00-3.36-5.138 15.593 15.593 0 00-11.11-4.647v.248z" fill="#1D1D1B"/><path d="M1112.78 250.504c4.46.006 8.81 1.334 12.52 3.816a22.505 22.505 0 018.29 10.131 22.542 22.542 0 011.28 13.034 22.655 22.655 0 01-6.18 11.545 22.6 22.6 0 01-11.55 6.167 22.558 22.558 0 01-23.15-9.599 22.617 22.617 0 01-3.79-12.532c0-5.986 2.39-11.725 6.62-15.955a22.567 22.567 0 0115.96-6.607zm0 38.662c3.2 0 6.34-.951 9-2.732a16.266 16.266 0 005.97-7.275 16.23 16.23 0 00.92-9.366 16.292 16.292 0 00-4.43-8.3 16.243 16.243 0 00-8.3-4.436c-3.15-.625-6.4-.304-9.36.923a16.167 16.167 0 00-7.28 5.97 16.219 16.219 0 00-2.73 9.006 16.245 16.245 0 004.76 11.454 16.204 16.204 0 0011.45 4.756zm429.82-16.569a74.834 74.834 0 0152.85 21.935 74.902 74.902 0 0121.93 52.875v79.173c-.01.083-.01.167 0 .249 0 .33.13.646.37.879.23.233.54.364.87.364h16.9a59.621 59.621 0 0140.31 15.472 59.743 59.743 0 0119.32 38.626c.02.306.16.59.39.799.22.209.52.328.82.333h165.88a59.885 59.885 0 0133.13 9.948 59.907 59.907 0 0122.09 26.615 1.303 1.303 0 001.16.746c.24-.001.47-.072.67-.205.2-.132.36-.32.46-.541a59.92 59.92 0 0122.1-26.601 59.914 59.914 0 0133.11-9.962h188.19a59.967 59.967 0 0142.33 17.577 60.006 60.006 0 0117.57 42.349v4.336h-6.38v-4.336a53.568 53.568 0 00-15.69-37.847 53.555 53.555 0 00-37.83-15.699h-188.41a53.624 53.624 0 00-35.08 13.227 53.674 53.674 0 00-17.87 32.973v.553c0 1.16-.25 2.43-.33 3.976V547.564h-6.38v-4.336-2.762c0-.938.17-2.568.31-3.81.01-.101.01-.203 0-.304v-.525a53.723 53.723 0 00-17.87-32.973 53.643 53.643 0 00-35.08-13.227H1696.8a1.232 1.232 0 00-1.14.767c-.07.15-.1.312-.1.475v56.639h-6.38V490.98c.01-.165-.02-.328-.08-.48a1.142 1.142 0 00-.27-.407 1.278 1.278 0 00-.41-.269 1.187 1.187 0 00-.48-.087H1585.8a53.705 53.705 0 00-34.99 13.149 53.732 53.732 0 00-17.93 32.803.463.463 0 000 .166v11.764h-6.73v-36.121c0-2.762 0-5.523-.23-8.285a161.485 161.485 0 00-50.05-109.008 161.412 161.412 0 00-111.38-44.423H1345c-.33 0-.65.131-.88.364a1.22 1.22 0 00-.37.879v21.705c0 .33.13.646.37.879.23.233.55.364.88.364h7.62a146.022 146.022 0 01103.11 42.796 146.127 146.127 0 0142.78 103.152v27.615h-6.35v-27.615a139.858 139.858 0 00-40.87-98.569 139.776 139.776 0 00-98.48-41.027H1345c-.33 0-.65.13-.88.364a1.22 1.22 0 00-.37.878v29.3c0 .33.13.646.37.879.23.233.55.364.88.364h2.54c29.92.037 58.6 11.942 79.75 33.106a113.051 113.051 0 0133.1 79.786v22.589h-6.38v-22.589a106.656 106.656 0 00-31.22-75.284 106.55 106.55 0 00-75.25-31.229H1345c-.33 0-.65.131-.88.364a1.22 1.22 0 00-.37.879v127.859h-6.37v-48.492c0-.16-.03-.319-.08-.468a1.29 1.29 0 00-.26-.4 1.177 1.177 0 00-.39-.272c-.14-.065-.3-.1-.46-.103a48.284 48.284 0 01-26.92-9.307 1.215 1.215 0 00-.74-.248c-.27 0-.53.087-.75.248a47.675 47.675 0 01-56.75 0 1.204 1.204 0 00-.72-.248 1.24 1.24 0 00-.75.248 47.683 47.683 0 01-56.75 0 1.24 1.24 0 00-1.49 0 48.22 48.22 0 01-28.49 9.335 49.277 49.277 0 01-7.82-.636 48.15 48.15 0 01-20.45-8.699 1.204 1.204 0 00-.72-.248 1.24 1.24 0 00-.75.248 47.675 47.675 0 01-56.75 0 1.24 1.24 0 00-.75-.248c-.26.002-.51.089-.72.248a47.618 47.618 0 01-56.97-.193 1.24 1.24 0 00-.75-.248c-.26.002-.51.089-.72.248a47.441 47.441 0 01-17.306 7.926 1.263 1.263 0 00-.911.828 113.478 113.478 0 00-5.521 34.878v15.631h-6.239v-15.575a120.027 120.027 0 0135.127-84.707 119.951 119.951 0 0184.68-35.144h66.5c.33 0 .65-.131.88-.364.24-.233.37-.549.37-.879v-28.969c0-.329-.13-.645-.37-.878a1.24 1.24 0 00-.88-.364h-25.95c-4.71 0-9.24-1.873-12.58-5.207a17.859 17.859 0 01-5.22-12.577v-8.837a17.72 17.72 0 014.51-11.865 17.699 17.699 0 0111.28-5.809c.35-.058.67-.245.88-.525.1-.144.17-.307.2-.477.03-.171.03-.347 0-.517a17.425 17.425 0 01-.47-4.004v-8.754a17.852 17.852 0 015.09-12.418 17.87 17.87 0 0112.3-5.367c.19-.002.37-.048.54-.132.17-.084.31-.205.43-.354.11-.148.19-.321.23-.505.04-.183.03-.373-.01-.555a18.077 18.077 0 01-.56-4.391c0-10.825 9.78-19.607 21.76-19.607h7.23c11.98 0 21.75 8.782 21.75 19.607 0 1.519-.19 3.032-.58 4.501-.05.172-.06.353-.03.53a1.261 1.261 0 00.58.857c.15.091.32.146.5.16 4.33.514 8.31 2.597 11.2 5.855a17.753 17.753 0 014.48 11.819v8.836c0 1.78-.27 3.548-.8 5.247-.09.297-.07.618.07.9.13.281.36.502.65.619a18.011 18.011 0 017.73 6.131 1.211 1.211 0 00.99.525h.17c24.21-3.287 42.57-26.484 43.09-54.237h6.41c.58 29.438 21.69 53.822 47.59 54.596.32.004.64-.114.88-.332.23-.248.36-.573.36-.911v-.525c.14-.183.23-.403.25-.635 2.59-47.499 29.34-69.619 84.17-69.619h120.8m-197.35 70.668h19.32a168.171 168.171 0 01102.38 34.879 168.265 168.265 0 0159.97 90.026c.07.259.22.489.43.658.21.168.46.267.73.281.26-.004.51-.089.72-.243.2-.153.36-.368.44-.613a60.001 60.001 0 0121.87-29.173 59.988 59.988 0 0134.72-11.118h23.99a1.219 1.219 0 001.16-.763c.06-.152.09-.316.08-.48v-79.422a68.482 68.482 0 00-20.05-48.381 68.453 68.453 0 00-48.35-20.077H1421.8c-51.35 0-75.34 19.33-77.83 63.128 0 .169.03.336.09.492a1.31 1.31 0 00.67.707c.16.066.32.1.49.099m-169.14-32.779h-12.95a11.399 11.399 0 00-8.06 3.358 11.426 11.426 0 00-3.34 8.075v8.837c.01 2.418.79 4.77 2.23 6.71l3.7 5.054h-11.04a11.442 11.442 0 00-8.07 3.356 11.488 11.488 0 00-3.36 8.077v8.837a11.46 11.46 0 003.36 8.066 11.43 11.43 0 008.07 3.339h33.57v35.43c0 .33.13.646.36.879.24.233.55.364.88.364h15.88c.33 0 .64-.131.87-.364.24-.233.37-.549.37-.879v-35.43h24.84c3.02-.022 5.91-1.23 8.04-3.365a11.493 11.493 0 003.36-8.04v-8.837c0-.659-.06-1.315-.19-1.961a5.422 5.422 0 00-.14-.691v-.165a11.277 11.277 0 00-10.43-8.533l-5.96-.304 3.56-4.778a11.387 11.387 0 002.29-6.765v-8.754a11.488 11.488 0 00-3.36-8.077 11.442 11.442 0 00-8.07-3.356h-11.04l3.89-5.109a11.752 11.752 0 002.48-7.18c0-7.291-6.9-13.228-15.37-13.228h-7.24c-8.47 0-15.37 5.937-15.37 13.228.01 2.602.89 5.126 2.48 7.18l3.89 5.109m85.91 34.105h15.1l-3.67 4.943a72.601 72.601 0 01-23.71 22.092c-.23.144-.41.358-.52.61-.1.253-.12.533-.06.799a1.242 1.242 0 001.21.911h28.33v36.591a1.24 1.24 0 001.24 1.242h10.38a1.24 1.24 0 001.24-1.242v-36.481h28.33a1.242 1.242 0 001.21-.911 1.36 1.36 0 00-.06-.798 1.347 1.347 0 00-.52-.61 72.615 72.615 0 01-23.71-22.093l-3.45-4.998h15.1a1.209 1.209 0 001.18-.884c.09-.252.08-.526-.01-.776s-.26-.463-.48-.605a61.328 61.328 0 01-22.86-29.437 1.23 1.23 0 00-.46-.579 1.22 1.22 0 00-.7-.218c-.25 0-.5.076-.7.218a1.23 1.23 0 00-.46.579 61.328 61.328 0 01-22.86 29.437c-.22.142-.39.355-.48.605-.09.25-.1.524-.01.776a1.209 1.209 0 001.18.884m74.15 26.98c.27.002.53-.085.75-.248.15-.119.27-.269.36-.441.08-.172.13-.361.13-.553v-18.116c0-.33-.13-.646-.36-.879a1.24 1.24 0 00-.88-.364h-27.6a1.23 1.23 0 00-.68.189c-.2.128-.36.312-.46.529a1.3 1.3 0 00-.08.703c.03.238.13.462.28.65a63.068 63.068 0 0028.05 18.475h.35m-94.32-2.762c.17.026.35.026.52 0a64.526 64.526 0 0020.57-15.575c.15-.188.24-.412.28-.65.03-.238 0-.48-.09-.703-.1-.217-.26-.401-.46-.529s-.43-.193-.67-.189h-19.69a1.262 1.262 0 00-.92.402c-.11.128-.2.278-.26.442-.05.164-.07.337-.06.509V363.231c-.01 1.482-.2 2.957-.58 4.391-.05.229-.04.468.03.692.08.224.21.423.39.578.23.172.51.268.8.276m57.56 43.246h36.77c.33 0 .64-.131.87-.364.24-.233.37-.549.37-.879v-29.245c0-.163-.03-.325-.1-.475a1.135 1.135 0 00-.27-.403 1.232 1.232 0 00-.87-.364h-36.77c-.17 0-.33.032-.48.094-.15.063-.29.154-.4.27-.12.115-.21.252-.27.403-.07.15-.1.312-.1.475v28.969c0 .33.13.646.37.879.23.233.55.364.88.364m-93.12 0h65.01c.33 0 .65-.131.88-.364.23-.233.36-.549.36-.879v-28.969c0-.163-.03-.325-.09-.475a1.135 1.135 0 00-.27-.403 1.183 1.183 0 00-.4-.27 1.245 1.245 0 00-.48-.094h-65.01c-.16 0-.32.032-.47.094-.16.063-.29.154-.41.27-.11.115-.2.252-.27.403-.06.15-.09.312-.09.475v28.914c0 .329.13.645.36.878.24.234.55.364.88.364m92.98 6.38h-193.08a112.627 112.627 0 00-80.58 33.718c-.14.135-.24.3-.3.482-.06.183-.08.377-.06.567.03.186.11.363.21.52.1.157.24.29.4.392a40.874 40.874 0 0047.54-4.474l2.23-1.961 2.27 1.961a40.816 40.816 0 0053.72 0l2.26-1.961 2.24 1.961a40.856 40.856 0 0026.87 10.077c9.88 0 19.43-3.58 26.88-10.077l2.23-1.961 2.27 1.961a40.796 40.796 0 0026.86 10.083c9.87 0 19.42-3.582 26.86-10.083l2.26-1.961 2.24 1.961a40.816 40.816 0 0053.72 0l2.26-1.961 2.24 1.961c7.06 6.129 16 9.665 25.34 10.024.32-.001.63-.13.85-.359.13-.112.22-.248.29-.4.07-.153.1-.317.1-.483v-38.662c0-.33-.13-.646-.36-.879a1.257 1.257 0 00-.88-.364h-36.52m374.85 64.841h13.39c.18.002.36-.034.52-.105.16-.072.3-.177.42-.309.12-.128.21-.281.26-.448.06-.168.07-.345.05-.518a53.495 53.495 0 00-17.53-33.888 53.47 53.47 0 00-35.64-13.583h-16.1c-.18-.006-.36.028-.53.099-.16.072-.31.18-.43.315-.11.144-.2.308-.24.483-.05.176-.06.359-.04.539a56.545 56.545 0 0019.21 33.994 56.512 56.512 0 0036.66 13.421zm-140.37 29.162a1.303 1.303 0 001.08-.58 59.546 59.546 0 0121.76-20.982 59.535 59.535 0 0129.25-7.6h55.79c.28.004.55-.084.76-.25.22-.165.38-.399.46-.664.07-.265.05-.547-.05-.801a1.259 1.259 0 00-.53-.604 62.738 62.738 0 01-20.5-19.231 62.633 62.633 0 01-10.06-26.252 1.21 1.21 0 00-1.24-1.049h-24.63a53.56 53.56 0 00-37.83 15.699 53.62 53.62 0 00-15.7 37.847v14.995c0 2.762.2 5.523.2 8.285 0 .27.09.532.25.746.17.214.4.369.66.441.11.027.22.027.33 0zm-428.99-45.897a48 48 0 01-28.38-9.361 1.202 1.202 0 00-.75-.221c-.26-.008-.51.07-.72.221a47.63 47.63 0 01-26.78 9.335 47.674 47.674 0 01-27.35-7.54 1.275 1.275 0 00-1.63.248 113.333 113.333 0 00-17 27.616c-.1.225-.13.473-.08.714.04.241.15.463.32.639.12.116.26.208.41.27.15.061.31.092.48.089.15.028.31.028.47 0a41.843 41.843 0 0010.35-6.324c.1-.078.18-.172.25-.276l.85-1.243 2.13-1.85 2.26 1.961a40.82 40.82 0 0053.72 0l2.24-1.961 2.26 1.961a40.82 40.82 0 0053.72 0l2.27-1.961 2.23 1.961a40.901 40.901 0 0026.88 10.077c9.88 0 19.43-3.58 26.87-10.077l2.24-1.961 2.26 1.961a40.82 40.82 0 0053.72 0l2.27-1.961 2.23 1.961a40.82 40.82 0 0053.72 0l2.27-1.961 2.23 1.961a40.88 40.88 0 0025.34 9.996c.16.005.32-.022.47-.079.14-.057.28-.143.39-.252.12-.117.22-.259.29-.415.06-.157.1-.326.1-.496v-21.927a1.257 1.257 0 00-1.19-1.243 48.056 48.056 0 01-26.92-9.306 1.365 1.365 0 00-.74-.219c-.27 0-.52.076-.75.219a47.683 47.683 0 01-56.75 0 1.166 1.166 0 00-.72-.221c-.27-.012-.53.066-.75.221a47.683 47.683 0 01-56.75 0 1.202 1.202 0 00-.75-.221c-.27-.008-.53.07-.75.221a47.675 47.675 0 01-56.75 0 1.166 1.166 0 00-.72-.221c-.27-.012-.53.066-.75.221a47.994 47.994 0 01-28.37 9.362m405.14-170.857a36.94 36.94 0 0120.91 6.541 36.995 36.995 0 0113.54 17.236c.09.235.25.438.45.581.21.143.46.219.71.22h.22c1.53-.299 3.08-.447 4.64-.442 6.59 0 12.91 2.618 17.57 7.279a24.892 24.892 0 017.27 17.575v3.203h-134.99l-.41-2.761a30.678 30.678 0 01-.33-4.281c0-7.578 3.01-14.844 8.37-20.202a28.6 28.6 0 0120.2-8.38c3.09-.005 6.17.498 9.11 1.491a.84.84 0 00.38 0 1.194 1.194 0 001.05-.607 37.237 37.237 0 0113.43-12.777 37.217 37.217 0 0117.93-4.704m-28.96 26.787l-2.92-1.491a21.92 21.92 0 00-10.02-2.43 22.384 22.384 0 00-15.44 6.321 22.438 22.438 0 00-6.79 15.247c.01.336.14.66.36.911.24.225.56.353.89.359h119.94c.19.001.38-.041.55-.122.18-.081.33-.2.45-.348.11-.154.18-.329.22-.515.04-.185.04-.377 0-.562a18.385 18.385 0 00-9.44-11.704 18.363 18.363 0 00-15.02-.722l-3.37 1.297-.85-3.507a30.419 30.419 0 00-9.55-15.875 30.367 30.367 0 00-47.6 10.159l-1.41 2.982zm-368.06-73.208a23.77 23.77 0 00-13.22 4.012 23.76 23.76 0 00-8.77 10.683 23.803 23.803 0 00-1.35 13.753 23.806 23.806 0 006.51 12.189 23.784 23.784 0 0025.93 5.16 23.766 23.766 0 0010.68-8.768 23.767 23.767 0 004.01-13.225 23.836 23.836 0 00-6.98-16.816 23.856 23.856 0 00-16.81-6.988zm0 38.661a14.94 14.94 0 01-8.32-2.509 14.965 14.965 0 01-5.53-6.711 15.063 15.063 0 01-.86-8.65 14.968 14.968 0 0111.75-11.775c2.9-.58 5.91-.285 8.65.847a15.019 15.019 0 016.72 5.512 15.01 15.01 0 012.52 8.319 14.96 14.96 0 01-14.93 14.967zm429.82-16.569h-120.8c-55.46 0-82.82 22.562-85.42 70.778h-.24v1.243c-25.71-.773-46.41-24.854-46.41-54.596h-8.83c0 27.947-18.42 51.034-42.05 54.265a18.823 18.823 0 00-8.28-6.545c.56-1.787.85-3.649.86-5.523v-8.809a19.111 19.111 0 00-4.81-12.64 19.065 19.065 0 00-11.98-6.277c.42-1.567.64-3.183.64-4.805 0-11.488-10.33-20.85-23-20.85h-7.07c-12.67 0-22.99 9.362-22.99 20.85 0 1.583.19 3.159.58 4.694-4.97.116-9.7 2.17-13.18 5.725a19.105 19.105 0 00-5.43 13.303v8.836c0 1.442.17 2.878.5 4.281a19.022 19.022 0 00-12.05 6.237 19.071 19.071 0 00-4.85 12.679v8.837a19.11 19.11 0 005.6 13.448 19.076 19.076 0 0013.45 5.579h25.95v28.914h-66.5c-32.11 0-62.91 12.749-85.64 35.449a121.266 121.266 0 00-35.549 85.617v16.873h8.861v-16.873a111.386 111.386 0 015.521-34.492 48.72 48.72 0 0017.747-8.284 48.842 48.842 0 0058.44.193 48.948 48.948 0 0029.13 9.611c10.49 0 20.7-3.369 29.12-9.611a49.01 49.01 0 0058.22 0 48.94 48.94 0 0058.25 0 48.9 48.9 0 0058.22 0 49.085 49.085 0 0027.61 9.555v49.707h8.86V419.76h2.54c27.9.029 54.65 11.129 74.38 30.865a105.39 105.39 0 0130.85 74.405v23.832h8.86V525.03a114.297 114.297 0 00-33.45-80.666 114.218 114.218 0 00-80.64-33.469h-2.54v-29.3h7.89a138.432 138.432 0 0197.57 40.668 138.522 138.522 0 0140.46 97.685v28.914h8.84v-28.914a147.39 147.39 0 00-43.15-104.031 147.261 147.261 0 00-103.99-43.159h-7.62v-21.706h19.49a160.548 160.548 0 01110.36 44.186 160.629 160.629 0 0149.75 108.003c0 2.761.22 5.523.22 8.285v37.363h9.22v-13.007a52.482 52.482 0 0117.53-32.038 52.449 52.449 0 0134.18-12.837h102.14V549h8.86v-57.993h165.64a52.457 52.457 0 0151.54 45.096v.525c0 1.298-.25 2.596-.31 3.894-.05 1.298 0 1.822 0 2.761v5.523h8.86v-5.523c0-.939 0-1.85.14-2.761.14-.912.17-2.596.33-3.866v-.553a52.486 52.486 0 0117.46-32.193 52.428 52.428 0 0134.25-12.93h188.13a52.428 52.428 0 0136.92 15.367 52.497 52.497 0 0115.37 36.936v5.523h8.86v-5.523a61.236 61.236 0 00-17.93-43.236 61.188 61.188 0 00-43.22-17.932h-188.13a61.22 61.22 0 00-33.72 10.206 61.156 61.156 0 00-22.51 27.103 61.342 61.342 0 00-22.54-27.118 61.239 61.239 0 00-33.75-10.191h-165.89a61.202 61.202 0 00-19.73-39.309 61.213 61.213 0 00-41-15.922h-16.98V347.462a76.109 76.109 0 00-22.29-53.753 76.092 76.092 0 00-53.73-22.3v-.055zm-197.27 70.834c2.45-43.301 25.75-61.942 76.58-61.942h120.8a67.259 67.259 0 0147.48 19.713 67.267 67.267 0 0119.68 47.503V426.884h-23.99a61.252 61.252 0 00-35.43 11.366 61.359 61.359 0 00-22.32 29.781 169.578 169.578 0 00-60.44-90.677 169.519 169.519 0 00-103.12-35.166h-19.24zm-198.52 30.929c-2.69 0-5.28-1.07-7.19-2.975a10.198 10.198 0 01-2.99-7.187v-8.837c0-1.339.26-2.664.77-3.9.52-1.236 1.27-2.36 2.21-3.306a10.21 10.21 0 017.2-2.985h13.37l-5.17-7.041a10.018 10.018 0 01-1.98-5.965v-8.754c0-2.698 1.07-5.286 2.97-7.196 1.9-1.91 4.49-2.987 7.19-2.995h15.48l-5.38-7.097a10.644 10.644 0 01-2.24-6.434c0-6.628 6.35-11.985 14.14-11.985h7.23c7.78 0 14.13 5.357 14.13 11.985-.02 2.332-.8 4.592-2.23 6.434l-5.52 7.097h13.63a10.23 10.23 0 017.2 2.993 10.224 10.224 0 012.99 7.198v8.836a10.07 10.07 0 01-2.04 6.021l-4.94 6.655 8.28.414c2.16.103 4.23.896 5.91 2.262a10.135 10.135 0 013.42 5.332c.07.254.12.513.16.774.12.573.17 1.155.17 1.739v8.837a10.242 10.242 0 01-10.16 10.163h-26v36.673h-15.88v-36.756h-34.73zm115.29-29.604a62.305 62.305 0 0023.32-30.018 62.324 62.324 0 0023.33 30.018h-17.45l4.75 6.932a74.717 74.717 0 0024.13 22.617h-29.57v37.833h-10.38v-37.833h-29.56a74.684 74.684 0 0024.12-22.617l4.75-6.932h-17.44zm74.15 26.981a61.456 61.456 0 01-27.61-18.116h27.61v18.116zm-94.33-2.762c.39-1.534.6-3.111.6-4.695V354.2v-1.739h19.69a63.142 63.142 0 01-20.16 15.271h-.13zm57.55 43.246v-29.052h36.78v28.969h-36.78v.083zm-93.11 0v-28.997h64.98v28.969l-64.98.028zm65.01 8.864h64.88v38.662a39.582 39.582 0 01-24.55-9.721l-3.06-2.761-3.06 2.761a39.636 39.636 0 01-52.1 0l-3.06-2.761-3.09 2.761a39.636 39.636 0 01-26.05 9.761 39.61 39.61 0 01-26.04-9.761l-3.07-2.761-3.06 2.761a39.636 39.636 0 01-52.1 0l-3.06-2.761-3.06 2.761a39.655 39.655 0 01-52.12 0l-3.07-2.761-3.06 2.761a39.642 39.642 0 01-46.08 4.308 111.876 111.876 0 0136.5-24.689 111.845 111.845 0 0143.2-8.67h165.11v.11zm402.82 62.356a55.458 55.458 0 01-35.79-13.181 55.478 55.478 0 01-18.84-33.185h16.1a52.453 52.453 0 0134.76 13.325 52.498 52.498 0 0117.16 33.041h-13.39zm-140.37 29.162c0-2.762 0-5.523-.19-8.285v-14.94a52.445 52.445 0 0115.36-36.936 52.428 52.428 0 0136.92-15.367h24.43a64.622 64.622 0 0010.3 26.737 64.501 64.501 0 0020.87 19.629h-55.79a61.18 61.18 0 00-29.84 7.797 61.184 61.184 0 00-22.25 21.365h.19zm-254.3-43.412a49.246 49.246 0 0029.12-9.582 49.26 49.26 0 0027.61 9.527v21.927a39.57 39.57 0 01-24.55-9.693l-3.06-2.762-3.06 2.762a39.602 39.602 0 01-26.05 9.779c-9.58 0-18.83-3.475-26.05-9.779l-3.06-2.762-3.09 2.762a39.602 39.602 0 01-26.05 9.779c-9.58 0-18.83-3.475-26.04-9.779l-3.07-2.762-3.06 2.762a39.602 39.602 0 01-26.05 9.779c-9.58 0-18.83-3.475-26.05-9.779l-3.06-2.762-3.06 2.762a39.638 39.638 0 01-26.06 9.773c-9.59 0-18.84-3.472-26.06-9.773l-3.07-2.762-3.06 2.762a39.602 39.602 0 01-26.05 9.779c-9.58 0-18.83-3.475-26.04-9.779l-3.07-2.762-3.06 2.762-.94 1.381a39.694 39.694 0 01-10.13 5.882 111.792 111.792 0 0116.84-27.202 48.892 48.892 0 0055.51-1.822 49.059 49.059 0 0029.13 9.584c10.48 0 20.69-3.359 29.12-9.584a49.01 49.01 0 0058.22 0 49.051 49.051 0 0058.25 0 49.171 49.171 0 0029.1 9.582zm230.34-173.397a38.215 38.215 0 00-32.41 18.088 29.205 29.205 0 00-9.5-1.574 29.835 29.835 0 00-21.07 8.744 29.865 29.865 0 00-8.74 21.081c0 1.498.12 2.994.36 4.474l.58 3.755h137.28v-4.446c0-3.831-.84-7.616-2.47-11.084-1.63-3.467-4-6.531-6.96-8.972a25.938 25.938 0 00-21.46-5.488 37.957 37.957 0 00-13.97-17.856 37.952 37.952 0 00-21.64-6.722zm-28.38 29.714l1.93-4.114a29.235 29.235 0 0112.05-12.966 29.19 29.19 0 0117.31-3.639 29.241 29.241 0 0125.47 22.128l1.18 4.888 4.7-1.823a17.067 17.067 0 017.07-1.164c2.41.115 4.77.74 6.92 1.833a17.076 17.076 0 015.57 4.508 17.157 17.157 0 013.24 6.394h-119.95a21.03 21.03 0 016.37-14.424 21.028 21.028 0 0114.61-5.929c3.3.001 6.54.787 9.47 2.292l4.06 2.072v-.056z" fill="#1D1D1B"/><path d="M1965.71 541.069a3.545 3.545 0 01-2.48-1.045 3.52 3.52 0 01-1.02-2.49V253.537a23.897 23.897 0 00-23.88-23.86h-55.57c-3.14 0-6.24.617-9.13 1.816a23.963 23.963 0 00-7.74 5.172 23.962 23.962 0 00-5.17 7.741 23.836 23.836 0 00-1.81 9.131v283.942c0 .937-.38 1.836-1.04 2.499a3.526 3.526 0 01-2.5 1.035c-.94 0-1.83-.372-2.5-1.035a3.542 3.542 0 01-1.03-2.499V253.537a30.947 30.947 0 019.07-21.854 30.959 30.959 0 0121.85-9.076h55.57a30.953 30.953 0 0121.84 9.076 30.999 30.999 0 019.08 21.854v283.942c0 .467-.09.931-.27 1.365-.17.434-.43.828-.76 1.162a3.56 3.56 0 01-2.51 1.063z" fill="#1D1D1B"/><path d="M1938.33 223.242c8.05 0 15.77 3.201 21.47 8.898a30.398 30.398 0 018.89 21.479v283.86c0 .769-.3 1.506-.85 2.05a2.89 2.89 0 01-4.09 0 2.874 2.874 0 01-.85-2.05V253.537a24.52 24.52 0 00-24.49-24.495h-55.57a24.52 24.52 0 00-24.49 24.495v283.942c0 .769-.3 1.506-.85 2.05a2.89 2.89 0 01-2.05.849c-.76 0-1.5-.305-2.05-.849a2.906 2.906 0 01-.84-2.05V253.537c0-8.057 3.2-15.783 8.89-21.48a30.353 30.353 0 0121.47-8.897h55.57m0-1.243h-55.57a31.533 31.533 0 00-22.28 9.245 31.54 31.54 0 00-9.24 22.292v284.025c0 1.098.43 2.152 1.21 2.929a4.15 4.15 0 002.93 1.213c1.1 0 2.15-.437 2.93-1.213a4.17 4.17 0 001.21-2.929V253.537a23.321 23.321 0 016.81-16.434 23.28 23.28 0 0116.43-6.818h55.57a23.262 23.262 0 0116.43 6.818 23.289 23.289 0 016.82 16.434v283.942c0 1.098.43 2.152 1.21 2.929a4.15 4.15 0 002.93 1.213c1.1 0 2.15-.437 2.93-1.213a4.17 4.17 0 001.21-2.929V253.537A31.556 31.556 0 001938.49 222v-.083z" fill="#1D1D1B"/><path d="M1233.22 351.052a10.13 10.13 0 00-3.42-5.332 10.094 10.094 0 00-5.91-2.262l-8.28-.414 4.94-6.656a10.068 10.068 0 002.04-6.02v-8.754c0-2.7-1.08-5.288-2.99-7.198a10.202 10.202 0 00-7.19-2.992h-13.64l5.52-7.097a10.714 10.714 0 002.24-6.435c0-6.627-6.35-11.985-14.14-11.985h-7.18c-7.78 0-14.13 5.358-14.13 11.985a10.65 10.65 0 002.24 6.435l5.38 7.097h-15.57a10.2 10.2 0 00-7.19 2.994 10.207 10.207 0 00-2.97 7.196v8.837c.01 2.15.71 4.24 1.99 5.965l5.16 7.042h-13.36a10.168 10.168 0 00-7.2 2.984c-.95.947-1.7 2.07-2.21 3.306a10.24 10.24 0 00-.78 3.9v8.837a10.206 10.206 0 003 7.187 10.173 10.173 0 007.19 2.975h34.81v36.674h15.87v-36.757h26.01a10.242 10.242 0 0010.16-10.162v-8.837c0-.584-.06-1.167-.17-1.74a6.88 6.88 0 00-.22-.773zm131.27-.552H1345v21.705h7.62a147.262 147.262 0 01103.99 43.16 147.38 147.38 0 0143.14 104.031v28.913h24.85l.22-13.007v-24.357c0-2.761 0-5.523-.22-8.284a160.689 160.689 0 00-49.76-107.986 160.535 160.535 0 00-110.35-44.175zm-68.55-.608l-4.75-6.931h17.45a62.324 62.324 0 01-23.33-30.018 62.305 62.305 0 01-23.32 30.018h17.44l-4.75 6.931a74.673 74.673 0 01-24.12 22.617h29.56v37.833h10.38v-37.833h29.57a74.706 74.706 0 01-24.13-22.617z" fill="#A2D45E" stroke="#A2D45E" stroke-width=".45" stroke-linecap="round" stroke-linejoin="round"/><path d="M1112.78 257.547a14.952 14.952 0 0113.82 9.24 14.97 14.97 0 01.85 8.648 14.955 14.955 0 01-11.75 11.759 14.955 14.955 0 01-15.36-6.364 14.922 14.922 0 01-2.52-8.316 14.95 14.95 0 014.38-10.583 14.946 14.946 0 0110.58-4.384z" fill="#F3BD48" stroke="#F3BD48" stroke-width=".45" stroke-linecap="round" stroke-linejoin="round"/><path d="M1308.53 457.731a49.26 49.26 0 0027.61 9.527v21.927a39.57 39.57 0 01-24.55-9.693l-3.06-2.762-3.06 2.762a39.602 39.602 0 01-26.05 9.779c-9.58 0-18.83-3.475-26.05-9.779l-3.06-2.762-3.09 2.762a39.602 39.602 0 01-26.05 9.779c-9.58 0-18.83-3.475-26.04-9.779l-3.07-2.762-3.06 2.762a39.602 39.602 0 01-26.05 9.779c-9.58 0-18.83-3.475-26.04-9.779l-3.07-2.762-3.06 2.762a39.638 39.638 0 01-26.06 9.773c-9.59 0-18.84-3.472-26.06-9.773l-3.07-2.762-3.06 2.762a39.583 39.583 0 01-26.05 9.779c-9.58 0-18.83-3.475-26.04-9.779l-3.07-2.762-3.06 2.762-.94 1.381a39.694 39.694 0 01-10.13 5.882 111.767 111.767 0 0116.84-27.201 48.892 48.892 0 0055.51-1.823 49.059 49.059 0 0029.13 9.584c10.48 0 20.69-3.359 29.12-9.584a49.01 49.01 0 0058.22 0 49.051 49.051 0 0058.25 0 49.01 49.01 0 0058.22 0zm241.8-130.814c-2.13.011-4.23.414-6.21 1.187l-4.7 1.823-1.18-4.888a29.246 29.246 0 00-9.22-15.108 29.248 29.248 0 00-16.25-7.02 29.24 29.24 0 00-29.36 16.605l-1.93 4.114-4.06-2.071a20.722 20.722 0 00-9.47-2.292 20.987 20.987 0 00-14.6 5.929 20.998 20.998 0 00-6.38 14.424h119.95a17.203 17.203 0 00-6.15-9.155c-3-2.295-6.67-3.542-10.44-3.548zm-250.97 92.29h-193.24a111.758 111.758 0 00-43.19 8.67 111.774 111.774 0 00-36.5 24.69 39.617 39.617 0 0023.73 5.269 39.642 39.642 0 0022.34-9.577l3.07-2.762 3.06 2.762a39.66 39.66 0 0052.12 0l3.06-2.762 3.07 2.762a39.635 39.635 0 0026.04 9.761c9.58 0 18.83-3.468 26.05-9.761l3.06-2.762 3.07 2.762a39.635 39.635 0 0026.04 9.761c9.58 0 18.83-3.468 26.05-9.761l3.09-2.762 3.07 2.762a39.616 39.616 0 0026.04 9.761c9.58 0 18.83-3.468 26.05-9.761l3.06-2.762 3.07 2.762a39.56 39.56 0 0024.54 9.72v-38.661h-36.77l.02-.111zm-19.95 79.395a49.02 49.02 0 01-29.1-9.61 48.94 48.94 0 01-58.25 0 48.926 48.926 0 01-58.22 0 48.94 48.94 0 01-58.25 0 48.849 48.849 0 01-58.44-.194 48.716 48.716 0 01-17.749 8.285 111.381 111.381 0 00-5.521 34.492v16.873h342.31V498.74a49.085 49.085 0 01-27.61-9.555 49.125 49.125 0 01-29.17 9.417zm634.6 36.949a52.51 52.51 0 00-17.47-32.202 52.43 52.43 0 00-34.27-12.921h-165.63v57.992h217.01v-5.523-2.762c0-.911.16-2.596.3-3.893l.06-.691zm-561.12-154.646H1345v29.3h2.54a114.195 114.195 0 0180.63 33.469 114.307 114.307 0 0133.46 80.665v23.832h29.29v-28.775a138.522 138.522 0 00-40.46-97.685 138.45 138.45 0 00-97.57-40.668v-.138zm181.21 154.26v13.006h153.73v-57.992h-102.14a52.424 52.424 0 00-34.18 12.967 52.473 52.473 0 00-17.41 32.157v-.138z" fill="url(#atpaint0_linear_2146_7120)"/><path d="M1308.53 457.731a49.26 49.26 0 0027.61 9.527v21.927a39.57 39.57 0 01-24.55-9.693l-3.06-2.762-3.06 2.762a39.602 39.602 0 01-26.05 9.779c-9.58 0-18.83-3.475-26.05-9.779l-3.06-2.762-3.09 2.762a39.602 39.602 0 01-26.05 9.779c-9.58 0-18.83-3.475-26.04-9.779l-3.07-2.762-3.06 2.762a39.602 39.602 0 01-26.05 9.779c-9.58 0-18.83-3.475-26.04-9.779l-3.07-2.762-3.06 2.762a39.638 39.638 0 01-26.06 9.773c-9.59 0-18.84-3.472-26.06-9.773l-3.07-2.762-3.06 2.762a39.583 39.583 0 01-26.05 9.779c-9.58 0-18.83-3.475-26.04-9.779l-3.07-2.762-3.06 2.762-.94 1.381a39.694 39.694 0 01-10.13 5.882 111.767 111.767 0 0116.84-27.201 48.892 48.892 0 0055.51-1.823 49.059 49.059 0 0029.13 9.584c10.48 0 20.69-3.359 29.12-9.584a49.01 49.01 0 0058.22 0 49.051 49.051 0 0058.25 0 49.01 49.01 0 0058.22 0zm241.8-130.814c-2.13.011-4.23.414-6.21 1.187l-4.7 1.823-1.18-4.888a29.246 29.246 0 00-9.22-15.108 29.248 29.248 0 00-16.25-7.02 29.24 29.24 0 00-29.36 16.605l-1.93 4.114-4.06-2.071a20.722 20.722 0 00-9.47-2.292 20.987 20.987 0 00-14.6 5.929 20.998 20.998 0 00-6.38 14.424h119.95a17.203 17.203 0 00-6.15-9.155c-3-2.295-6.67-3.542-10.44-3.548zm-250.97 92.29h-193.24a111.758 111.758 0 00-43.19 8.67 111.774 111.774 0 00-36.5 24.69 39.617 39.617 0 0023.73 5.269 39.642 39.642 0 0022.34-9.577l3.07-2.762 3.06 2.762a39.66 39.66 0 0052.12 0l3.06-2.762 3.07 2.762a39.635 39.635 0 0026.04 9.761c9.58 0 18.83-3.468 26.05-9.761l3.06-2.762 3.07 2.762a39.635 39.635 0 0026.04 9.761c9.58 0 18.83-3.468 26.05-9.761l3.09-2.762 3.07 2.762a39.616 39.616 0 0026.04 9.761c9.58 0 18.83-3.468 26.05-9.761l3.06-2.762 3.07 2.762a39.56 39.56 0 0024.54 9.72v-38.661h-36.77l.02-.111zm-19.95 79.395a49.02 49.02 0 01-29.1-9.61 48.94 48.94 0 01-58.25 0 48.926 48.926 0 01-58.22 0 48.94 48.94 0 01-58.25 0 48.849 48.849 0 01-58.44-.194 48.716 48.716 0 01-17.749 8.285 111.381 111.381 0 00-5.521 34.492v17.218l342.31-.345V498.74a49.085 49.085 0 01-27.61-9.555 49.125 49.125 0 01-29.17 9.417zm634.6 36.949a52.51 52.51 0 00-17.47-32.202 52.43 52.43 0 00-34.27-12.921h-165.63v57.992h217.01v-5.523-2.762c0-.911.16-2.596.3-3.893l.06-.691zm-561.12-154.646H1345v29.3h2.54a114.195 114.195 0 0180.63 33.469 114.307 114.307 0 0133.46 80.665v23.832h29.29v-28.775a138.522 138.522 0 00-40.46-97.685 138.45 138.45 0 00-97.57-40.668v-.138zm181.21 154.26v13.006h153.73v-57.992h-102.14a52.424 52.424 0 00-34.18 12.967 52.473 52.473 0 00-17.41 32.157v-.138z" fill="url(#atpaint1_linear_2146_7120)"/><path d="M1308.53 457.731a49.26 49.26 0 0027.61 9.527v21.927a39.57 39.57 0 01-24.55-9.693l-3.06-2.762-3.06 2.762a39.602 39.602 0 01-26.05 9.779c-9.58 0-18.83-3.475-26.05-9.779l-3.06-2.762-3.09 2.762a39.602 39.602 0 01-26.05 9.779c-9.58 0-18.83-3.475-26.04-9.779l-3.07-2.762-3.06 2.762a39.602 39.602 0 01-26.05 9.779c-9.58 0-18.83-3.475-26.04-9.779l-3.07-2.762-3.06 2.762a39.638 39.638 0 01-26.06 9.773c-9.59 0-18.84-3.472-26.06-9.773l-3.07-2.762-3.06 2.762a39.583 39.583 0 01-26.05 9.779c-9.58 0-18.83-3.475-26.04-9.779l-3.07-2.762-3.06 2.762-.94 1.381a39.694 39.694 0 01-10.13 5.882 111.767 111.767 0 0116.84-27.201 48.892 48.892 0 0055.51-1.823 49.059 49.059 0 0029.13 9.584c10.48 0 20.69-3.359 29.12-9.584a49.01 49.01 0 0058.22 0 49.051 49.051 0 0058.25 0 49.01 49.01 0 0058.22 0zm241.8-130.814c-2.13.011-4.23.414-6.21 1.187l-4.7 1.823-1.18-4.888a29.246 29.246 0 00-9.22-15.108 29.248 29.248 0 00-16.25-7.02 29.24 29.24 0 00-29.36 16.605l-1.93 4.114-4.06-2.071a20.722 20.722 0 00-9.47-2.292 20.987 20.987 0 00-14.6 5.929 20.998 20.998 0 00-6.38 14.424h119.95a17.203 17.203 0 00-6.15-9.155c-3-2.295-6.67-3.542-10.44-3.548zm-250.97 92.29h-193.24a111.758 111.758 0 00-43.19 8.67 111.774 111.774 0 00-36.5 24.69 39.617 39.617 0 0023.73 5.269 39.642 39.642 0 0022.34-9.577l3.07-2.762 3.06 2.762a39.66 39.66 0 0052.12 0l3.06-2.762 3.07 2.762a39.635 39.635 0 0026.04 9.761c9.58 0 18.83-3.468 26.05-9.761l3.06-2.762 3.07 2.762a39.635 39.635 0 0026.04 9.761c9.58 0 18.83-3.468 26.05-9.761l3.09-2.762 3.07 2.762a39.616 39.616 0 0026.04 9.761c9.58 0 18.83-3.468 26.05-9.761l3.06-2.762 3.07 2.762a39.56 39.56 0 0024.54 9.72v-38.661h-36.77l.02-.111zm-19.95 79.395a49.02 49.02 0 01-29.1-9.61 48.94 48.94 0 01-58.25 0 48.926 48.926 0 01-58.22 0 48.94 48.94 0 01-58.25 0 48.849 48.849 0 01-58.44-.194 48.716 48.716 0 01-17.749 8.285 111.381 111.381 0 00-5.521 34.492V549l342.31-.552V498.74a49.085 49.085 0 01-27.61-9.555 49.125 49.125 0 01-29.17 9.417zm634.6 36.949a52.513 52.513 0 00-17.47-32.202 52.43 52.43 0 00-34.27-12.921h-165.63v57.992h217.01v-5.523-2.762c0-.911.16-2.596.3-3.893l.06-.691zm-561.12-154.646H1345v29.3h2.54a114.195 114.195 0 0180.63 33.469 114.307 114.307 0 0133.46 80.665v23.832h29.29v-28.775a138.522 138.522 0 00-40.46-97.685 138.45 138.45 0 00-97.57-40.668v-.138zm181.21 154.26v13.006h153.73v-57.992h-102.14a52.424 52.424 0 00-34.18 12.967 52.473 52.473 0 00-17.41 32.157v-.138z" stroke="#8C9091" stroke-width=".5" stroke-linecap="round" stroke-linejoin="round"/><path d="M1961.57 253.536a23.288 23.288 0 00-6.82-16.433 23.24 23.24 0 00-16.42-6.819h-55.57a23.263 23.263 0 00-16.43 6.819 23.288 23.288 0 00-6.82 16.433v310.155h2.76a61.214 61.214 0 0133.75 10.191c10.01 6.633 16.89-24.437 21.58-13.382 3.81-8.968 10.66 23.599 18.13 17.357a61.423 61.423 0 0125.84-12.758V253.536z" fill="#F09F54" stroke="#F09F54" stroke-width=".45" stroke-linecap="round" stroke-linejoin="round"/><path d="M1965.71 541.069a3.545 3.545 0 01-2.48-1.045 3.52 3.52 0 01-1.02-2.49V253.537a23.897 23.897 0 00-23.88-23.86h-55.57c-3.14 0-6.24.617-9.13 1.816a23.963 23.963 0 00-7.74 5.172 23.962 23.962 0 00-5.17 7.741 23.836 23.836 0 00-1.81 9.131v303.942c0 .937-.38 1.836-1.04 2.499a3.526 3.526 0 01-2.5 1.035c-.94 0-1.83-.372-2.5-1.035a3.542 3.542 0 01-1.03-2.499V253.537a30.947 30.947 0 019.07-21.854 30.959 30.959 0 0121.85-9.076h55.57a30.953 30.953 0 0121.84 9.076 30.999 30.999 0 019.08 21.854v283.942c0 .467-.09.931-.27 1.365-.17.434-.43.828-.76 1.162a3.56 3.56 0 01-2.51 1.063z" fill="#1D1D1B"/><path d="M1938.33 223.242c8.05 0 15.77 3.201 21.47 8.898a30.398 30.398 0 018.89 21.479v283.86c0 .769-.3 1.506-.85 2.05a2.89 2.89 0 01-4.09 0 2.874 2.874 0 01-.85-2.05V253.537a24.52 24.52 0 00-24.49-24.495h-55.57a24.52 24.52 0 00-24.49 24.495v303.942c0 .769-.3 1.506-.85 2.05a2.89 2.89 0 01-2.05.849c-.76 0-1.5-.305-2.05-.849a2.906 2.906 0 01-.84-2.05V253.537c0-8.057 3.2-15.783 8.89-21.48a30.353 30.353 0 0121.47-8.897h55.57m0-1.243h-55.57a31.533 31.533 0 00-22.28 9.245 31.54 31.54 0 00-9.24 22.292v304.025c0 1.098.43 2.152 1.21 2.929a4.15 4.15 0 002.93 1.213c1.1 0 2.15-.437 2.93-1.213a4.17 4.17 0 001.21-2.929V253.537a23.321 23.321 0 016.81-16.434 23.28 23.28 0 0116.43-6.818h55.57a23.262 23.262 0 0116.43 6.818 23.289 23.289 0 016.82 16.434v283.942c0 1.098.43 2.152 1.21 2.929a4.15 4.15 0 002.93 1.213c1.1 0 2.15-.437 2.93-1.213a4.17 4.17 0 001.21-2.929V253.537A31.556 31.556 0 001938.49 222v-.083z" fill="#1D1D1B"/><path d="M1682.64 481.563h-8.56a55.458 55.458 0 01-35.79-13.181 55.526 55.526 0 01-18.84-33.185h16.1a52.458 52.458 0 0134.76 13.325 52.498 52.498 0 0117.16 33.041h-4.83zm-154.59-14.084a169.634 169.634 0 00-60.44-90.677 169.519 169.519 0 00-103.12-35.166h-19.33c2.46-43.301 25.76-61.942 76.58-61.942h120.8a67.241 67.241 0 0147.48 19.713 67.319 67.319 0 0119.69 47.503V426.332h-23.99a61.23 61.23 0 00-35.38 11.39 61.298 61.298 0 00-22.29 29.757zm48.31-118.939v-4.446c0-3.832-.84-7.617-2.47-11.084-1.63-3.468-4-6.532-6.96-8.973a25.938 25.938 0 00-21.46-5.488 38.107 38.107 0 00-12.52-16.768 38.073 38.073 0 00-40.04-3.82 38.1 38.1 0 00-15.46 14.099 29.18 29.18 0 00-9.5-1.575 29.839 29.839 0 00-21.07 8.744 29.867 29.867 0 00-8.74 21.081c0 1.498.12 2.994.36 4.474l.58 3.756h137.28zm33.98 86.657h-24.62a52.428 52.428 0 00-36.92 15.367 52.497 52.497 0 00-15.37 36.936v14.94c0 2.762.2 5.523.2 8.285a61.184 61.184 0 0122.25-21.365 61.18 61.18 0 0129.84-7.797h55.79a64.501 64.501 0 01-20.87-19.629 64.617 64.617 0 01-10.3-26.737zm-157.65 100.106v-10.825a105.4 105.4 0 00-30.86-74.405 105.328 105.328 0 00-74.38-30.865h-2.54V548.31h107.67v-13.007h.11zm710.21-44.875h-188.16a52.45 52.45 0 00-51.73 45.123v.553c-.17 1.27-.25 2.568-.34 3.866-.08 1.298-.13 1.822-.13 2.761v5.523h292.62v-5.523a52.48 52.48 0 00-15.33-36.897 52.421 52.421 0 00-36.85-15.406h-.08z" fill="#A2D45E" stroke="#3DAE2B" stroke-width=".45" stroke-linecap="round" stroke-linejoin="round"/><path fill-rule="evenodd" clip-rule="evenodd" d="M1053.09 211.292c-13.82-8.329-29.56-12.714-45.59-12.7-23.943 0-46.909 9.737-63.85 27.072-16.94 17.334-26.47 40.848-26.494 65.375a94.475 94.475 0 006.878 35.413c4.54 11.228 11.195 21.429 19.584 30.023 8.39 8.593 18.35 15.409 29.311 20.06a88.48 88.48 0 0034.571 7.044c16.03.014 31.77-4.371 45.59-12.7l9.11 9.339h35.74V135h-44.85v76.292zm-77.819 112.762c8.548 8.756 20.142 13.675 32.229 13.675a44.65 44.65 0 0017.45-3.554 45.602 45.602 0 0014.79-10.121 46.822 46.822 0 009.88-15.147 47.693 47.693 0 003.47-17.868c0-12.383-4.81-24.259-13.35-33.015-8.55-8.756-20.15-13.675-32.24-13.675-12.087 0-23.681 4.919-32.229 13.675-8.549 8.756-13.352 20.632-13.352 33.015s4.803 24.259 13.352 33.015z" fill="#fff"/><path d="M870.12 210.228a90.311 90.311 0 0146.008-12.57v46.133c-12.296 0-24.087 4.949-32.781 13.759-8.694 8.811-13.578 20.76-13.578 33.219V380.497h-45.061V201.041h36.346l9.066 9.187zM1476.5 249.018a41.474 41.474 0 00-29.47 12.112 41.44 41.44 0 00-9.02 13.505 41.497 41.497 0 00-3.15 15.937 41.257 41.257 0 003.12 15.967 41.413 41.413 0 009.02 13.536 41.386 41.386 0 0013.54 9.023 41.415 41.415 0 0015.96 3.121 41.453 41.453 0 0015.94-3.147 41.387 41.387 0 0013.51-9.029 41.532 41.532 0 009-13.525 41.518 41.518 0 003.11-15.946 41.577 41.577 0 00-3.14-15.916 41.401 41.401 0 00-9-13.494 41.495 41.495 0 00-29.42-12.144zm0 74.578a32.071 32.071 0 01-22.73-9.888 32.025 32.025 0 01-6.78-10.673 31.96 31.96 0 01-2.13-12.463c-.13-4.254.6-8.49 2.13-12.462a32.031 32.031 0 016.78-10.672 32.074 32.074 0 0122.73-9.889c4.25.071 8.44.984 12.34 2.687a32.168 32.168 0 0110.34 7.234 32.12 32.12 0 016.76 10.661 32.223 32.223 0 012.12 12.441c.12 4.247-.6 8.477-2.12 12.442a32.13 32.13 0 01-17.1 17.895 32.166 32.166 0 01-12.34 2.687zm14.13-32.656a14.486 14.486 0 002.48-8.165c.04-1.929-.31-3.847-1.02-5.642a14.532 14.532 0 00-3.11-4.815 13.395 13.395 0 00-10.09-4.403h-17.34v44.582h9.18v-15.136h5.22l8.35 15.136h10.64l-9.17-16.971a14.198 14.198 0 004.86-4.586zm-8.44-4.22a4.394 4.394 0 01-3.3 1.559h-7.8v-10.916h7.8a4.41 4.41 0 013.3 1.56 5.507 5.507 0 011.38 3.852 5.592 5.592 0 01-1.38 3.945z" fill="#fff"/><path d="M1439.51 347.803l-.5-3.252a30.251 30.251 0 01-.35-4.355 29.185 29.185 0 018.55-20.593 29.212 29.212 0 0120.61-8.54c3.16-.012 6.29.5 9.28 1.516h.22c.11.001.21-.025.3-.073a.665.665 0 00.23-.202 37.319 37.319 0 0115.17-13.864 37.357 37.357 0 0139.33 3.75 37.312 37.312 0 0112.28 16.48c.05.117.13.218.23.291.1.074.22.116.35.123a25.03 25.03 0 014.74-.441c6.72 0 13.17 2.672 17.93 7.427a25.382 25.382 0 017.43 17.93v3.803h-135.8z" fill="#1D1D1B"/><path d="M1509.65 295.188a36.893 36.893 0 0120.88 6.528 36.958 36.958 0 0113.52 17.202c.09.235.24.437.45.58.21.143.45.219.7.22h.25c1.52-.285 3.06-.433 4.61-.441 6.57 0 12.88 2.613 17.53 7.265a24.776 24.776 0 017.27 17.54v3.169h-134.75l-.41-2.756c-.23-1.412-.35-2.84-.36-4.271a28.595 28.595 0 018.36-20.163 28.562 28.562 0 0120.17-8.364c3.09-.005 6.16.498 9.09 1.489.14.026.28.026.42 0 .2-.006.41-.061.59-.162.18-.1.34-.243.45-.417a37.14 37.14 0 0113.39-12.768 37.082 37.082 0 0117.89-4.706m0-1.24a38.17 38.17 0 00-18.49 4.847 38.107 38.107 0 00-13.83 13.206 29.334 29.334 0 00-9.51-1.572 29.782 29.782 0 00-21.04 8.727 29.81 29.81 0 00-8.73 21.04c.01 1.495.13 2.988.36 4.465l.58 3.748h137.06v-4.41c.01-3.826-.83-7.607-2.46-11.071a25.84 25.84 0 00-6.94-8.965 25.943 25.943 0 00-21.44-5.486 37.905 37.905 0 00-13.94-17.826 37.909 37.909 0 00-21.62-6.703z" fill="#1D1D1B"/><path d="M1447.53 338.955c.35-5.15 2.64-9.977 6.4-13.514a20.479 20.479 0 0113.88-5.558c3.19 0 6.34.755 9.18 2.205l4.05 2.067c.09.026.19.026.28 0h.22a.793.793 0 00.36-.303l1.93-4.107a28.529 28.529 0 0111.75-12.668 28.553 28.553 0 0141.8 18.015l1.21 4.851c.02.087.05.169.1.24.06.072.13.131.2.173.1.025.21.025.31 0h.22l4.68-1.819a16.54 16.54 0 0113.08.508 16.554 16.554 0 018.61 9.855l-118.26.055z" fill="#1D1D1B"/><path d="M1509.65 304.008a27.84 27.84 0 0127.12 21.249l1.21 4.879a1.209 1.209 0 00.64.799c.19.041.38.041.57 0 .15.027.3.027.45 0l4.68-1.819a15.907 15.907 0 0120.62 9.178h-116.73a19.702 19.702 0 0110.11-15.377 19.702 19.702 0 0118.39-.333l4.05 2.067c.19.041.37.041.56 0h.41c.16-.048.3-.13.43-.239.12-.11.22-.244.29-.395l1.93-4.106a28.048 28.048 0 0110.32-11.653 28.104 28.104 0 0114.95-4.361m0-1.24a29.264 29.264 0 00-15.6 4.557 29.285 29.285 0 00-10.78 12.173l-1.95 4.107-4.06-2.068a20.546 20.546 0 00-9.45-2.259 20.953 20.953 0 00-20.92 20.312h119.76a17.241 17.241 0 00-3.24-6.375 17.145 17.145 0 00-19.53-5.201l-4.69 1.819-1.21-4.878a29.135 29.135 0 00-10.32-15.997 29.11 29.11 0 00-18.01-6.19z" fill="#1D1D1B"/><path d="M1550.05 326.855c-2.11.003-4.2.395-6.17 1.158l-4.69 1.819-1.21-4.878a29.16 29.16 0 00-54.71-5.512l-1.95 4.106-4.06-2.067a20.547 20.547 0 00-9.45-2.26 20.932 20.932 0 00-14.57 5.919 20.951 20.951 0 00-6.35 14.394h119.76a17.25 17.25 0 00-6.16-9.146 17.17 17.17 0 00-10.44-3.533z" fill="#EFEFEE" stroke="#8C9091" stroke-width=".5" stroke-linecap="round" stroke-linejoin="round"/><path fill-rule="evenodd" clip-rule="evenodd" d="M662.523 190.268a42.69 42.69 0 00-25.306-9.115V181a41.52 41.52 0 00-33.759 17.482 33.052 33.052 0 00-37.84 17.49 33.013 33.013 0 00-3.361 14.517c.012 1.707.147 3.41.407 5.097l.97 6.524h112.541l1.632-5.453a49.973 49.973 0 00-.458-23.955 42.654 42.654 0 00-14.826-22.434zm-.116 25.9a50.959 50.959 0 011.224 10.856h-85.618A17.697 17.697 0 01595.3 213.11c2.785-.001 5.53.663 8.007 1.936l7.036 3.568 3.365-7.084a26.057 26.057 0 0123.509-14.883 27.436 27.436 0 0125.19 19.521z" fill="#163029"/><path d="M637.37 195.373a28.16 28.16 0 0116.118 5.911 28.132 28.132 0 019.684 14.17 49.543 49.543 0 011.275 10.958v.714H577.35v-.765a18.553 18.553 0 0117.95-14.372 18.162 18.162 0 018.311 1.987l6.426 3.262 3.06-6.524a26.92 26.92 0 0124.119-15.137l.154-.204z" fill="#E8EDF0"/><path fill-rule="evenodd" clip-rule="evenodd" d="M1089.07 74.173a23.838 23.838 0 00-14.13-5.088V69a23.14 23.14 0 00-10.6 2.596 23.101 23.101 0 00-8.24 7.162 18.453 18.453 0 00-15.87 3.309 18.372 18.372 0 00-5.25 6.454 18.365 18.365 0 00-1.88 8.103c.01.952.08 1.903.23 2.845l.54 3.641h62.82l.91-3.044c1-4.412.91-9-.26-13.37a23.806 23.806 0 00-8.27-12.523zM1089 88.63c.45 1.99.68 4.02.68 6.06h-47.78c.48-2.201 1.69-4.171 3.45-5.584a9.885 9.885 0 016.19-2.183c1.56 0 3.09.37 4.47 1.08l3.93 1.992 1.88-3.954a14.572 14.572 0 015.36-6.05 14.531 14.531 0 017.76-2.257 15.32 15.32 0 018.78 3.197 15.261 15.261 0 015.28 7.699z" fill="#163029"/><path fill-rule="evenodd" clip-rule="evenodd" d="M765.001 202.362h-6.094l-9.233 9.339A90.159 90.159 0 00703.508 199c-24.243 0-47.493 9.741-64.635 27.079-17.142 17.338-26.772 40.854-26.772 65.374 0 24.529 9.627 48.054 26.766 65.407 17.14 17.354 40.39 27.115 64.641 27.14a90.159 90.159 0 0046.166-12.701l9.233 9.339h36.194V202.362h-30.1zm-94.045 122.015c8.658 8.757 20.401 13.677 32.645 13.677a45.703 45.703 0 0017.666-3.555 46.115 46.115 0 0014.977-10.122 46.732 46.732 0 0010.008-15.148 47.158 47.158 0 003.514-17.869c0-12.384-4.864-24.261-13.522-33.018-8.657-8.756-20.4-13.676-32.643-13.676-12.244 0-23.987 4.92-32.645 13.676-8.657 8.757-13.521 20.634-13.521 33.018s4.864 24.261 13.521 33.017z" fill="#fff"/><path d="M1053 135c0 53.572-43.43 38-97 38-53.572 0-97 15.572-97-38s43.428-97 97-97c53.57 0 97 43.428 97 97z" fill="#F2C94C"/><path d="M984.066 108.342h-61.394a36.499 36.499 0 1061.394 0z" fill="#F3BD48"/><path d="M953.373 167.81a39.786 39.786 0 01-33.469-61.253l.987-1.527h64.988l.963 1.527a39.74 39.74 0 01-33.469 61.253zm-28.912-56.039a33.19 33.19 0 00.276 33.025 33.188 33.188 0 0057.295 0 33.183 33.183 0 00.277-33.025v-.141h-57.684l-.164.141z" fill="#163029"/><path d="M985.711 105.336l.893 1.362a39.502 39.502 0 011.455 40.299 39.505 39.505 0 11-67.899-40.299l.892-1.362h64.659zm-32.341 56.18a33.47 33.47 0 0033.496-33.187 33.466 33.466 0 00-4.302-16.698l-.164-.306h-58.036l-.164.306a33.468 33.468 0 0029.17 49.885zm32.67-56.767h-65.387l-1.057 1.644a40.1 40.1 0 00-1.478 40.898 40.088 40.088 0 0035.194 20.888 40.087 40.087 0 0035.193-20.888 40.094 40.094 0 00-1.478-40.898l-1.057-1.644h.07zm-32.67 56.18a32.874 32.874 0 01-28.39-16.287 32.878 32.878 0 01-.264-32.729h57.331a32.88 32.88 0 01-28.677 49.016z" fill="#163029"/><path d="M981.696 130.379c12.024-1.941 20.194-13.262 18.257-25.286-1.941-12.025-13.262-20.199-25.287-18.258-12.024 1.941-20.198 13.262-18.257 25.287 1.941 12.024 13.262 20.199 25.287 18.257z" fill="#F3BD48"/><path d="M985.01 110.691a7.084 7.084 0 01-1.715-.211 6.604 6.604 0 01-4.887-7.253 6.6 6.6 0 016.602-5.736 6.027 6.027 0 011.714.235 6.53 6.53 0 014.017 3.077 6.605 6.605 0 01-2.431 9.009 6.611 6.611 0 01-3.3.879z" fill="#163029"/><path d="M985.006 97.773a6.315 6.315 0 016.202 7.148 6.322 6.322 0 01-6.202 5.488 6.317 6.317 0 110-12.636zm0-.587a6.906 6.906 0 000 13.81 6.906 6.906 0 000-13.81z" fill="#163029"/><path d="M978.193 133.99a25.349 25.349 0 01-21.494-11.85 25.342 25.342 0 0141.316-29.228v.117h9.185l-4.7 8.22a28.914 28.914 0 011.04 7.399 25.373 25.373 0 01-25.347 25.342zm0-44.085a18.79 18.79 0 00-13.286 32.076 18.786 18.786 0 0020.476 4.073 18.794 18.794 0 008.433-6.92 18.795 18.795 0 003.166-10.439 18.79 18.79 0 00-18.789-18.696v-.094z" fill="#163029"/><path d="M978.192 83.705a24.894 24.894 0 0119.589 9.394l.164.212h8.805l-2.23 3.828-2.35 3.946V101.531c.68 2.289 1.02 4.66 1.04 7.046a25.067 25.067 0 01-15.463 23.172 25.062 25.062 0 01-23.51-43.995 25.061 25.061 0 0113.932-4.214m0 44.085a19.046 19.046 0 0018.682-22.764 19.046 19.046 0 00-25.971-13.882 19.047 19.047 0 007.289 36.646zm0-44.625a25.645 25.645 0 00-24.359 17.544 25.641 25.641 0 0023.903 33.747 25.647 25.647 0 0015.088-4.597 25.699 25.699 0 009.549-12.558 25.67 25.67 0 00.39-15.769l2.34-3.923 2.73-4.697h-9.654a25.675 25.675 0 00-20.058-9.7l.071-.047zm0 44.085a18.463 18.463 0 01-18.132-22.048 18.46 18.46 0 1118.132 22.048z" fill="#163029"/><path d="M929.06 87.72h-21.561v21.562a21.58 21.58 0 0013.314 19.96 21.59 21.59 0 0023.533-4.675 21.592 21.592 0 005.909-11.057 21.59 21.59 0 00-9.194-22.161 21.589 21.589 0 00-12.001-3.628z" fill="#8ACB78"/><path d="M929.06 134.154a24.896 24.896 0 01-24.849-24.872v-24.85h24.849a24.868 24.868 0 0118.079 7.006 24.873 24.873 0 01-8.329 41.048 24.88 24.88 0 01-9.75 1.668zm-14.797-14.209a18.288 18.288 0 0014.797 7.609 18.038 18.038 0 0011.227-3.875l.258-.211-3.899-3.899h-22.712l.329.376zm25.013-3.289l3.97 4.111.211-.259a18.083 18.083 0 003.876-11.226 18.3 18.3 0 00-7.61-14.797l-.447-.329v22.5zm-28.489-7.374c.007 2.107.38 4.197 1.104 6.177v.188h20.763l-7.046-7.046h-14.985l.164.681zm17.615-3.5l6.53 6.67.493.494V92.183h-.188a18.13 18.13 0 00-6.177-1.104h-.658v14.703zm-17.615-1.01h11.062l-11.062-11.039v11.039zm13.763-2.701V91.009h-10.944l10.944 11.062z" fill="#163029"/><path d="M929.061 84.667a24.57 24.57 0 0122.697 15.166 24.57 24.57 0 01-5.326 26.773 24.565 24.565 0 01-37.798-3.723c-2.7-4.04-4.14-8.79-4.14-13.649V84.667h24.567zm6.67 28.936V91.925l-.399-.141a18.79 18.79 0 00-6.271-1.104h-.964v15.29l.165.188 6.459 6.435 1.01 1.01zm-10.874-10.875V90.68h-12.049l.986 1.01 10.053 10.029 1.01 1.009zm-14.351 2.349h12.049l-.987-1.01-10.052-10.052-1.01-.987v12.049zm32.881 16.136l.4-.517a18.39 18.39 0 003.946-11.415 18.629 18.629 0 00-7.728-15.031l-.939-.681v23.322l.164.188 3.688 3.664.469.47zm-31.542-5.261h21.678l-1.01-1.01-6.435-6.459-.188-.165H910.6v.963a18.776 18.776 0 001.104 6.271l.141.4zm17.31 11.907a18.384 18.384 0 0011.414-3.946l.517-.399-.47-.47-3.664-3.687-.188-.164h-23.322l.681.939a18.634 18.634 0 0015.032 7.727zm0-43.732H904v25.154a25.18 25.18 0 0015.532 23.28 25.171 25.171 0 0027.449-5.453 25.175 25.175 0 005.453-27.45 25.172 25.172 0 00-23.279-15.531zm6.082 28.184l-6.458-6.459V91.384h.376c2.075.007 4.132.373 6.082 1.08v19.847zm-10.874-10.874l-10.052-10.053h10.052v10.053zm-13.176 3.123V94.508l10.052 10.052h-10.052zm32.13 15.83l-3.664-3.663V94.79a17.874 17.874 0 013.664 25.6zm-31.05-4.955a18.03 18.03 0 01-1.08-6.083v-.376h14.468l6.459 6.459h-19.847zm16.888 11.908a17.921 17.921 0 01-14.562-7.493h21.936l3.664 3.664a17.784 17.784 0 01-11.038 3.829z" fill="#163029"/><path d="M372.769 512.883h256.434v91.85H372.769v-91.85z" fill="#F3BD48"/><path d="M632.775 608.307v-98.996H369.171v98.996h263.604zm-7.145-7.171H376.342v-84.654H625.63v84.654z" fill="#1D1D1B"/><path d="M369.371 509.61v98.397h263.105V509.61H369.371zm256.559 91.976H376.092v-85.43H625.93v85.43zm-257.058-92.451h264.229v99.647H368.872v-99.797.15zm256.433 91.701v-84.055H376.666v84.055h248.639z" fill="#1D1D1B"/><path d="M145.417 664.052a77.447 77.447 0 01-54.766-22.687 77.466 77.466 0 01-22.684-54.772v-73.71h339.055v78.508a72.69 72.69 0 01-21.278 51.363 72.677 72.677 0 01-51.35 21.298H145.417z" fill="#FCE200"/><path d="M334.394 667.675a76.37 76.37 0 0053.906-22.372 76.395 76.395 0 0022.37-53.912v-82.106H46.905l17.489 77.459a81.085 81.085 0 0023.728 57.265 81.071 81.071 0 0057.245 23.766l189.027-.1zm69.105-76.284a69.189 69.189 0 01-20.262 48.848 69.176 69.176 0 01-48.843 20.265H145.491a73.885 73.885 0 01-73.776-73.785v-70.238h331.784v74.91z" fill="#1D1D1B"/><path d="M47.23 509.61l17.489 76.959v.15a80.76 80.76 0 0023.65 57.003 80.744 80.744 0 0056.998 23.653h189.027a76.045 76.045 0 0053.701-22.277 76.058 76.058 0 0022.274-53.707V509.61H47.305m287.089 151.194H145.491a74.15 74.15 0 01-52.358-21.721 74.166 74.166 0 01-21.719-52.364v-70.563H403.7v75.235a69.493 69.493 0 01-20.315 49.025 69.48 69.48 0 01-48.99 20.388zM46.505 508.985H410.92v82.456a76.717 76.717 0 01-22.456 54.083A76.695 76.695 0 01334.394 668H145.491a81.343 81.343 0 01-57.446-23.829 81.36 81.36 0 01-23.826-57.452l-17.714-77.734zm287.889 151.194a68.853 68.853 0 0048.613-20.169 68.87 68.87 0 0020.167-48.619v-74.61H72.064v69.963A73.54 73.54 0 0093.6 638.666a73.523 73.523 0 0051.916 21.538l188.878-.025z" fill="#1D1D1B"/><path d="M69.565 609.307a29.311 29.311 0 0020.812-8.595 9.569 9.569 0 0113.216 0 29.456 29.456 0 0041.598 0 9.57 9.57 0 0113.217 0 29.456 29.456 0 0041.598 0 9.569 9.569 0 0113.216 0 29.457 29.457 0 0041.598 0 9.569 9.569 0 0113.217 0 29.455 29.455 0 0041.598 0 9.569 9.569 0 0113.216 0 29.456 29.456 0 0041.598 0 9.57 9.57 0 0113.217 0 29.456 29.456 0 0041.598 0 9.494 9.494 0 016.621-2.649 9.393 9.393 0 016.595 2.649 29.505 29.505 0 0041.623 0 9.393 9.393 0 016.596-2.649 9.494 9.494 0 016.621 2.649 29.48 29.48 0 0041.373.224l-4.997-4.997a22.256 22.256 0 01-31.255-.225 16.513 16.513 0 00-23.335 0 22.256 22.256 0 01-31.479 0 16.515 16.515 0 00-23.335 0 22.26 22.26 0 01-31.48 0 16.513 16.513 0 00-23.334 0 22.26 22.26 0 01-31.48 0 16.517 16.517 0 00-23.335 0 22.286 22.286 0 01-31.505 0 16.487 16.487 0 00-23.31 0 22.284 22.284 0 01-31.504 0 16.487 16.487 0 00-23.31 0 22.285 22.285 0 01-31.504 0 16.489 16.489 0 00-23.31 0 22.286 22.286 0 01-31.505 0 16.517 16.517 0 00-23.335 0 22.258 22.258 0 01-31.48 0 16.486 16.486 0 00-23.11-.2l4.997 4.998a9.39 9.39 0 016.371-2.499 9.492 9.492 0 016.62 2.649 29.314 29.314 0 0020.787 8.645z" fill="#1D1D1B"/><path d="M42.233 591.117a16.158 16.158 0 00-10.993 4.298l4.622 4.647a9.997 9.997 0 0113.217.425 29.103 29.103 0 0041.148 0 9.99 9.99 0 0113.666 0 29.103 29.103 0 0041.148 0 9.994 9.994 0 0113.666 0 29.106 29.106 0 0041.149 0 9.991 9.991 0 0113.666 0 29.103 29.103 0 0041.149 0 9.989 9.989 0 0113.666 0 29.1 29.1 0 0041.148 0 9.991 9.991 0 0113.666 0 29.103 29.103 0 0041.148 0 9.992 9.992 0 0113.666 0 29.131 29.131 0 0041.174 0 9.84 9.84 0 0113.641 0 29.131 29.131 0 0041.174 0 9.84 9.84 0 0113.641 0 29.106 29.106 0 0040.723.425l-4.622-4.623a22.486 22.486 0 01-31.48-.45 16.214 16.214 0 00-22.885 0 22.484 22.484 0 01-31.929 0 16.216 16.216 0 00-22.885 0 22.488 22.488 0 01-24.612 4.923 22.484 22.484 0 01-7.317-4.923 16.216 16.216 0 00-22.886 0 22.484 22.484 0 01-31.929 0 16.214 16.214 0 00-22.885 0 22.495 22.495 0 01-7.317 4.923 22.496 22.496 0 01-17.295 0 22.499 22.499 0 01-7.318-4.923 16.214 16.214 0 00-22.885 0 22.484 22.484 0 01-31.929 0 16.265 16.265 0 00-22.91 0 22.488 22.488 0 01-24.612 4.923 22.484 22.484 0 01-7.317-4.923 16.216 16.216 0 00-22.885 0 22.495 22.495 0 01-24.613 4.923 22.495 22.495 0 01-7.317-4.923 16.214 16.214 0 00-22.885 0 22.486 22.486 0 01-24.612 4.923 22.489 22.489 0 01-7.318-4.923 16.122 16.122 0 00-11.442-4.722zm0-.625a16.785 16.785 0 0111.892 4.998 21.984 21.984 0 0031.055 0 16.778 16.778 0 0111.88-4.927 16.792 16.792 0 0111.88 4.927 21.984 21.984 0 0031.054 0 16.793 16.793 0 0118.311-3.646 16.778 16.778 0 015.449 3.646 21.986 21.986 0 0031.055 0 16.79 16.79 0 0118.31-3.646 16.768 16.768 0 015.449 3.646 21.986 21.986 0 0031.056 0 16.778 16.778 0 0111.879-4.927 16.79 16.79 0 0111.88 4.927 21.985 21.985 0 0031.055 0 16.778 16.778 0 0111.88-4.927 16.793 16.793 0 0111.88 4.927 21.984 21.984 0 0031.054 0 16.837 16.837 0 0123.785 0 21.96 21.96 0 0031.03 0 16.835 16.835 0 0123.784 0 21.965 21.965 0 0031.031 0 16.833 16.833 0 0123.784 0 21.96 21.96 0 0031.03 0l5.496 5.522a29.727 29.727 0 01-42.023 0 8.99 8.99 0 00-6.395-2.499 9.138 9.138 0 00-6.396 2.499 29.73 29.73 0 01-42.023 0 9.241 9.241 0 00-12.791 0 29.732 29.732 0 01-42.023 0 9.243 9.243 0 00-12.792 0 29.756 29.756 0 01-42.048 0 8.914 8.914 0 00-6.371-2.499 9.095 9.095 0 00-6.396 2.499 29.756 29.756 0 01-42.048 0 8.91 8.91 0 00-6.37-2.499 9.095 9.095 0 00-6.396 2.499 29.756 29.756 0 01-42.048 0 8.914 8.914 0 00-6.371-2.499 9.09 9.09 0 00-6.395 2.499 29.758 29.758 0 01-42.048 0 9.192 9.192 0 00-12.767 0 29.756 29.756 0 01-42.048 0 9.19 9.19 0 00-12.767 0 29.757 29.757 0 01-42.047 0 9.242 9.242 0 00-12.792 0l-5.471-5.522a16.684 16.684 0 0111.867-4.998zM13.325 638.167a29.362 29.362 0 0020.811-8.596 9.568 9.568 0 0113.217 0 29.452 29.452 0 0041.598 0 9.568 9.568 0 0113.216 0 29.453 29.453 0 0041.598 0 9.568 9.568 0 0113.216 0 29.455 29.455 0 0041.598 0 9.568 9.568 0 0113.217 0 29.451 29.451 0 0041.598 0 9.568 9.568 0 0113.216 0 29.455 29.455 0 0041.599 0 9.566 9.566 0 0113.216 0 29.453 29.453 0 0041.598 0 9.497 9.497 0 016.621-2.648 9.393 9.393 0 016.595 2.648 29.507 29.507 0 0041.623 0 9.546 9.546 0 0113.192 0 29.505 29.505 0 0041.398.225l-4.997-4.997a22.281 22.281 0 01-31.254-.2 16.514 16.514 0 00-23.335 0 22.312 22.312 0 01-31.48 0 16.516 16.516 0 00-23.335 0 22.31 22.31 0 01-31.48 0 16.514 16.514 0 00-23.334 0 22.312 22.312 0 01-31.48 0 16.514 16.514 0 00-23.335 0 22.333 22.333 0 01-31.504 0 16.489 16.489 0 00-23.31 0 22.336 22.336 0 01-31.505 0 16.516 16.516 0 00-23.335 0 22.31 22.31 0 01-31.479 0 16.516 16.516 0 00-23.335 0 22.311 22.311 0 01-31.48 0 16.515 16.515 0 00-23.334 0 22.311 22.311 0 01-31.48 0 16.536 16.536 0 00-23.11-.225l4.996 4.997a9.596 9.596 0 0112.991.225 29.303 29.303 0 0020.787 8.571z" fill="#1D1D1B"/><path d="M-14.007 619.976A16.167 16.167 0 00-25 624.274l4.622 4.647a9.997 9.997 0 0113.191.425 29.126 29.126 0 0041.174 0 9.994 9.994 0 0113.666 0 29.104 29.104 0 0041.148 0 9.996 9.996 0 0113.666 0 29.106 29.106 0 0041.148 0 9.998 9.998 0 0113.667 0 29.103 29.103 0 0041.148 0 9.995 9.995 0 0113.666 0 29.103 29.103 0 0041.149 0 9.993 9.993 0 0113.666 0 29.103 29.103 0 0041.148 0 9.84 9.84 0 016.846-2.723 9.74 9.74 0 016.82 2.723 29.127 29.127 0 0041.173 0 9.993 9.993 0 0113.641 0 29.131 29.131 0 0041.174 0 9.993 9.993 0 0113.641 0 29.155 29.155 0 0040.724.45l-4.622-4.648a22.486 22.486 0 01-31.48-.449 16.21 16.21 0 00-22.885 0 22.497 22.497 0 01-15.964 6.652 22.478 22.478 0 01-15.965-6.652 16.212 16.212 0 00-22.885 0 22.477 22.477 0 01-31.93 0 16.21 16.21 0 00-22.885 0 22.478 22.478 0 01-31.929 0 16.212 16.212 0 00-22.886 0 22.497 22.497 0 01-15.964 6.652 22.477 22.477 0 01-15.965-6.652 16.21 16.21 0 00-22.885 0 22.497 22.497 0 01-15.964 6.652 22.478 22.478 0 01-15.965-6.652 16.264 16.264 0 00-22.91 0 22.477 22.477 0 01-31.93 0 16.21 16.21 0 00-22.885 0 22.502 22.502 0 01-15.965 6.652 22.478 22.478 0 01-15.964-6.652 16.211 16.211 0 00-22.886 0 22.5 22.5 0 01-15.964 6.652 22.478 22.478 0 01-15.965-6.652 16.1 16.1 0 00-11.442-4.723zm0-.624a16.784 16.784 0 0111.892 4.997 21.984 21.984 0 0031.055 0 16.779 16.779 0 0111.88-4.926 16.795 16.795 0 0111.88 4.926 21.985 21.985 0 0031.054 0 16.78 16.78 0 0111.88-4.926 16.796 16.796 0 0111.88 4.926 21.984 21.984 0 0031.055 0 16.772 16.772 0 0111.88-4.926 16.796 16.796 0 0111.879 4.926 21.986 21.986 0 0031.056 0 16.768 16.768 0 0111.879-4.926 16.788 16.788 0 0111.88 4.926 21.984 21.984 0 0031.055 0 16.778 16.778 0 0111.879-4.926 16.793 16.793 0 0111.88 4.926 21.986 21.986 0 0031.055 0 16.841 16.841 0 0123.785 0 21.96 21.96 0 0031.03 0 16.837 16.837 0 0123.784 0 21.96 21.96 0 0031.03 0 16.841 16.841 0 0123.785 0 21.96 21.96 0 0031.03 0l5.496 5.522a29.73 29.73 0 01-42.023 0 9.291 9.291 0 00-12.791 0 29.73 29.73 0 01-42.023 0 9.294 9.294 0 00-12.792 0 29.728 29.728 0 01-42.022 0 9.296 9.296 0 00-12.792 0 29.753 29.753 0 01-42.048 0 9.27 9.27 0 00-12.767 0 29.753 29.753 0 01-42.048 0 9.268 9.268 0 00-12.766 0 29.755 29.755 0 01-42.048 0 9.271 9.271 0 00-12.767 0 29.75 29.75 0 01-42.047 0 9.272 9.272 0 00-12.767 0 29.752 29.752 0 01-42.048 0 9.271 9.271 0 00-12.767 0 29.754 29.754 0 01-42.047 0 9.271 9.271 0 00-12.767 0l-5.521-5.522a16.796 16.796 0 0111.892-4.997z" fill="#1D1D1B"/><path d="M-212.001 664.052h384.575v-42.077c-2.373-108.242-90.691-109.117-131.84-109.117H-212v151.194z" fill="#F3BD48"/><path d="M176.172 667.675v-3.623-42.178C173.673 509.26 80.534 509.26 40.735 509.26H-215.55v158.365l391.721.05zM40.685 516.481c40.873 0 125.943 0 128.267 105.593v38.429h-377.431V516.481H40.685z" fill="#1D1D1B"/><path d="M-215.25 509.61v157.74h391.097v-3.298V621.9c-2.499-112.315-95.414-112.315-135.113-112.315H-215.25M169.3 660.804h-378.029V516.156H40.684c40.973 0 126.243 0 128.566 105.919v38.729m-385.2-151.819H40.634c39.974 0 133.264 0 135.737 112.94V667.975H-216v-158.99h.05zm384.576 151.194V622.1c-2.299-105.319-87.169-105.319-127.942-105.319h-248.789v143.398h376.731z" fill="#1D1D1B"/><path d="M41.544 605.093H45.2a11.268 11.268 0 01-2.238-6.733v-6.931c0-3.031 1.205-5.938 3.35-8.082A11.45 11.45 0 0154.405 580h5.174a11.767 11.767 0 01-2.487-7.155c0-7.106 6.517-12.845 14.552-12.845h6.89c8.06 0 14.577 5.739 14.577 12.845A11.766 11.766 0 0190.623 580h5.15a11.46 11.46 0 018.106 3.339 11.414 11.414 0 013.361 8.09v6.931a11.27 11.27 0 01-2.239 6.733h3.632a11.457 11.457 0 018.107 3.339 11.416 11.416 0 013.361 8.09v6.931a11.416 11.416 0 01-3.361 8.09 11.44 11.44 0 01-8.107 3.339H84.802V664H65.399v-29.118H41.544a11.451 11.451 0 01-8.092-3.347 11.425 11.425 0 01-3.351-8.082v-6.931a11.42 11.42 0 013.351-8.081 11.46 11.46 0 018.091-3.348z" fill="#A2D45E"/><path d="M88.078 668v-29.141h20.172c3.938 0 7.716-1.571 10.501-4.366a14.934 14.934 0 004.35-10.54v-6.932a15.091 15.091 0 00-3.646-9.848 14.99 14.99 0 00-9.175-5.058h-.322v-.322c.177-.976.269-1.965.272-2.957v-6.931a14.933 14.933 0 00-4.093-10.294 14.826 14.826 0 00-10.04-4.612h-.371v-.348c.24-1.059.356-2.143.346-3.23 0-9.043-8.093-16.421-18.043-16.421h-6.856c-9.901 0-18.044 7.453-18.044 16.421.002 1.086.119 2.169.347 3.23v.348h-.347a14.827 14.827 0 00-10.056 4.604 14.938 14.938 0 00-4.102 10.302v6.931c0 .993.1 1.984.297 2.957v.322h-.322a14.988 14.988 0 00-9.19 5.05 15.09 15.09 0 00-3.655 9.856v6.932c0 3.953 1.564 7.745 4.35 10.54a14.825 14.825 0 0010.5 4.366h20.197V668h26.93zm-7.104-7.13H68.772v-29.141H41.545a7.836 7.836 0 01-5.548-2.307 7.897 7.897 0 01-2.298-5.569v-6.931a7.912 7.912 0 012.306-5.561 7.851 7.851 0 015.54-2.314H51.99l-4.133-5.664a7.897 7.897 0 01-1.535-4.621v-6.932a7.896 7.896 0 012.298-5.568 7.84 7.84 0 015.548-2.307h12.376l-4.332-5.714a8.217 8.217 0 01-1.732-4.969c0-5.117 4.95-9.291 10.94-9.291h6.856c6.04 0 10.965 4.174 10.965 9.291a8.366 8.366 0 01-1.732 4.969l-4.332 5.714h12.376a7.832 7.832 0 015.548 2.307 7.89 7.89 0 012.298 5.568v6.932a7.725 7.725 0 01-1.535 4.621l-4.133 5.664h10.618a7.852 7.852 0 015.541 2.314 7.914 7.914 0 012.305 5.561v6.931a7.892 7.892 0 01-2.298 5.569 7.832 7.832 0 01-5.548 2.307H81.123l-.15 29.141z" fill="#1D1D1B"/><path d="M105.567 601.136H171v7.171h-65.433v-7.171z" fill="#1D1D1B"/><path d="M105.867 601.586v6.546h64.808v-6.546h-64.808zm-.624-.625H171.3v7.796h-66.057v-7.921.125z" fill="#1D1D1B"/><path fill="#E8EDF0" d="M0 540h2223v138H0z"/></g><defs><linearGradient id="atpaint0_linear_2146_7120" x1="993.963" y1="425.559" x2="1914.09" y2="425.559" gradientUnits="userSpaceOnUse"><stop offset=".14" stop-color="#8C9091"/><stop offset=".18" stop-color="#E6E7E7"/><stop offset=".24" stop-color="#8C9091"/><stop offset=".39" stop-color="#8C9091"/><stop offset=".44" stop-color="#E6E7E7"/><stop offset=".49" stop-color="#8C9091"/><stop offset=".54" stop-color="#8C9091"/><stop offset=".59" stop-color="#E6E7E7"/><stop offset=".65" stop-color="#8C9091"/></linearGradient><linearGradient id="atpaint1_linear_2146_7120" x1="993.963" y1="425.559" x2="1914.09" y2="425.559" gradientUnits="userSpaceOnUse"><stop stop-color="#C4C3C2"/><stop offset=".12" stop-color="#E6E6E5"/><stop offset=".18" stop-color="#F2F2F1"/><stop offset=".26" stop-color="#D0CFCE"/><stop offset=".35" stop-color="#E6E6E5"/><stop offset=".44" stop-color="#F2F2F1"/><stop offset=".49" stop-color="#D0CFCE"/><stop offset=".53" stop-color="#E6E6E5"/><stop offset=".59" stop-color="#F2F2F1"/><stop offset=".67" stop-color="#DBDBDA"/></linearGradient><clipPath id="atclip0_2146_7120"><path fill="#fff" d="M0 0h1920v668H0z"/></clipPath></defs></svg>