<?xml version="1.0" encoding="utf-8"?><svg width="1134" height="522" fill="none" xmlns="http://www.w3.org/2000/svg" viewBox="0 0 1134 522"><path d="M1110.62 65.428c-46.13.054-90.34 18.999-122.956 52.677-32.613 33.679-50.958 79.342-51.011 126.971v25.58h-60.837v-47.857h21.827l-47.476-76.011h-32.329v-17.541h-26.102v17.541h-59.45L713.8 176.316c-13.062-2.067-24.969-8.915-33.547-19.296h31.14v-10.232h-3.368c-26.64 0-46.711-24.557-46.711-57.125h-9.909c0 32.568-20.043 57.125-46.682 57.125v10.232h27.686c-5.297 6.418-11.9 11.55-19.338 15.032a54.034 54.034 0 01-23.692 5.111v10.232h33.518c-14.664 16.05-32.244 25.055-49.372 25.055v10.232h67.944v47.858h-18.005c-14.725-.033-28.996 5.263-40.332 14.967-11.337 9.705-19.023 23.204-21.723 38.152-11.051 5.163-20.43 13.502-27.016 24.02-6.586 10.518-10.102 22.772-10.126 35.298v3.83H407.999c-11.051-8.969-24.701-13.839-38.756-13.829H152.702V227.155c-.007-13.81-5.321-27.051-14.774-36.819-9.453-9.767-22.273-15.262-35.645-15.278H32.867V65.428H0V75.66h22.96V97.76H0v10.232h22.96v30.171H0v10.232h22.96v122.056H0v10.232h22.96V412.65a53.341 53.341 0 005.442 23.45c3.57 7.267 8.747 13.565 15.11 18.385H0v10.232h155.25c24.007 0 64.122 16.606 70.604 39.292a57.7 57.7 0 011.954 10.905c0 1.491.226 2.923.226 4.502v2.28h9.909v-2.28c0-1.52 0-2.924-.198-4.532 1.199-13.659 7.296-26.363 17.094-35.621 9.798-9.259 22.592-14.405 35.873-14.429h233.555v56.979h9.908v-91.768a46.981 46.981 0 0026.215-3.947l.623-.292c1.472-.702 2.831-1.462 4.331-2.31a45.26 45.26 0 004.275-2.923l.566-.41.453.322a51.158 51.158 0 006.058 3.888 50.38 50.38 0 003.992 1.93 52.772 52.772 0 005.916 2.076 53.32 53.32 0 007.078 1.461c2.065.277 4.145.424 6.228.439a43.164 43.164 0 005.181-.322 49.052 49.052 0 0014.154-3.742 49.207 49.207 0 004.473-2.251c1.444-.818 2.831-1.725 4.247-2.69.538-.38 1.104-.731 1.642-1.14l1.274.965a50.627 50.627 0 009.908 5.438 48.679 48.679 0 0018.543 3.742h.198c10.706-.024 21.127-3.567 29.754-10.116 8.626 6.549 19.047 10.092 29.753 10.116h1.897c10.096-.39 19.844-3.915 27.97-10.116 8.639 6.617 19.11 10.19 29.866 10.19 10.757 0 21.228-3.573 29.867-10.19 8.636 6.605 19.092 10.181 29.838 10.203a48.115 48.115 0 0017.581-3.361v27.363H681.64c-16.314.019-31.98 6.592-43.682 18.33a48.986 48.986 0 00-2.378 2.486l-.708.789c-1.5 1.754-2.83 3.567-4.246 5.467-.073.092-.139.19-.198.292a56.394 56.394 0 00-2.435 3.742c-.764 1.287-1.585 2.924-2.321 4.327l-.453.877a78.76 78.76 0 00-2.576 6.198 66.747 66.747 0 00-3.879 22.423v2.28h9.909v-2.28c.016-4.852.664-9.68 1.925-14.354a53.692 53.692 0 012.831-7.952c.651-1.52 1.387-2.924 2.179-4.473 4.464-8.075 10.833-14.854 18.515-19.705 8.278-5.281 17.815-8.084 27.545-8.098h452.252v-10.232h-55.8V335.587c0-10.972-2.69-21.767-7.83-31.373-5.13-9.607-12.54-17.712-21.53-23.559h85.16v-10.232h-113.41v-11.051c0-29.464 11.33-57.721 31.51-78.554 20.17-20.834 47.53-32.539 76.06-32.539h5.92v-10.232h-5.92c-31.12.031-60.97 12.814-82.98 35.544-22.01 22.729-34.39 53.548-34.42 85.693v11.051h-29.297v-16.43c0-38.743 14.893-75.901 41.407-103.309 26.52-27.409 62.48-42.827 100-42.866h11.13V97.498h-11.13c-40.12.047-78.58 16.525-106.95 45.819-28.364 29.295-44.321 69.013-44.366 110.442v16.43h-24.912v-25.376c.105-44.875 17.431-87.876 48.181-119.583 30.747-31.706 72.417-49.532 115.877-49.57h23.3V65.428h-23.3zm-173.57 215.46c14.04.016 27.501 5.785 37.427 16.04 9.925 10.256 15.504 24.16 15.512 38.659v5.847c-5.117.212-9.956 2.461-13.503 6.276-3.547 3.815-5.525 8.9-5.521 14.189v9.355c-.02 1.978.247 3.949.792 5.847a19.773 19.773 0 00-8.125 6.694c-21.656-3.157-38.869-23.388-41.983-48.734a62.906 62.906 0 00-.538-8.069v-.175c-1.236-9.331-4.423-18.273-9.341-26.204-4.918-7.931-11.449-14.661-19.138-19.725h44.418zM235.848 487.725a62.975 62.975 0 00-2.831 6.081 75.615 75.615 0 00-2.01-4.356 64.767 64.767 0 00-4.813-8.01l-.141-.234c-11.466-16.167-49.769-26.721-70.605-26.721H152.9v-71.187h216.541a51.332 51.332 0 0118.713 3.596 51.367 51.367 0 019.88 5.116 51.167 51.167 0 016.539 5.116c6.979 6.35 12.229 14.473 15.231 23.564a52.33 52.33 0 011.387 5.116c.389 1.688.692 3.395.906 5.116.338 2.431.518 4.882.538 7.338v16.225H290.712c-11.176.027-22.145 3.119-31.785 8.959-9.639 5.84-17.604 14.22-23.079 24.281zm-133.225-33.24H73.407c-10.745-.008-21.047-4.417-28.647-12.26-7.6-7.843-11.877-18.479-11.892-29.575V185.291h69.415c10.744.015 21.044 4.432 28.639 12.28 7.595 7.849 11.864 18.488 11.872 29.584v227.33h-40.171zm493.975-166.024c8.101-4.95 17.34-7.565 26.752-7.573h236.386c12.549.233 24.61 5.066 34.027 13.634 9.418 8.569 15.579 20.315 17.383 33.142-.368 29.908-20.099 54.29-44.955 56.394v-1.081c-.023-17.276-6.678-33.837-18.507-46.053-11.829-12.216-27.867-19.089-44.596-19.112H587.369a60.688 60.688 0 00-8.323.585c-2.171.291-4.326.7-6.455 1.228 3.928-13.108 12.461-24.224 23.922-31.164h.085zM737.75 157.137h.17l4.359 6.958-26.809 42.859-3.51 5.613h-9.003l.397-.614 5.378-8.595 9.909-15.846 4.614-7.367 14.495-23.008zm54.071 0v15.349h26.102V157.02h26.922l34.68 55.547h-95.234l-30.376-48.472-2.831-4.706-1.388-2.252h42.125zm7.078-10.232v-10.173h11.946v28.562h-11.946v-18.389zm203.211 196.722a11.561 11.561 0 01-2.128-6.666c.168-3.407 1.638-6.608 4.078-8.902 2.45-2.295 5.67-3.499 8.97-3.348h7c3.3-.151 6.52 1.053 8.97 3.348 2.44 2.294 3.91 5.495 4.08 8.902a12.038 12.038 0 01-2.1 6.666l-5.66 8.098h16.25c2.65.008 5.2 1.1 7.08 3.039 1.87 1.939 2.93 4.567 2.94 7.31v9.355a10.553 10.553 0 01-1.98 6.081l-5.66 8.127h14.52c2.64.023 5.16 1.125 7.02 3.064a10.472 10.472 0 012.89 7.285v9.355a10.475 10.475 0 01-2.89 7.286c-1.86 1.939-4.38 3.04-7.02 3.063h-36.29v38.795h-15.46V415.69h-27.064a10.025 10.025 0 01-4.19-.964 10.187 10.187 0 01-4.236-3.818 10.659 10.659 0 01-1.596-5.567v-9.355a10.504 10.504 0 012.774-7.089c1.77-1.91 4.182-3.045 6.738-3.172l9.257-.497-5.52-7.66a10.39 10.39 0 01-2.01-6.139v-9.355a10.475 10.475 0 012.632-6.946c1.687-1.895 4.001-3.067 6.484-3.286H1007.65l-5.54-8.215zm-441.635-7.835a53.398 53.398 0 015.095-2.719 51.766 51.766 0 0121.799-4.999h215.804c14.084.038 27.579 5.837 37.533 16.127 9.953 10.289 15.554 24.232 15.576 38.776v.468a39.566 39.566 0 01-23.069 3.739c-7.878-1.106-15.27-4.571-21.264-9.966l-3.085-2.924-3.114 2.924c-7.421 6.671-16.928 10.346-26.767 10.346-9.839 0-19.346-3.675-26.767-10.346l-3.086-2.924-3.086 2.924c-7.38 6.673-16.857 10.352-26.667 10.352-9.811 0-19.287-3.679-26.668-10.352l-3.086-2.924-3.085 2.924c-7.404 6.653-16.882 10.327-26.696 10.348a39.339 39.339 0 01-18.628-4.736 41.324 41.324 0 01-8.04-5.612l-1.869-1.696-1.217-1.082-3.086 2.924-.226.35c-7.46 6.444-16.892 9.945-26.617 9.881-9.725-.065-19.113-3.69-26.492-10.231l-2.973-2.661-3.085 2.924a42.43 42.43 0 01-1.755 1.432 40.495 40.495 0 01-17.298 8.157 40.126 40.126 0 01-7.728.76 39.384 39.384 0 01-6.143-.497v-4.502c-.024-9.487 2.331-18.819 6.836-27.088 4.504-8.268 11.005-15.192 18.869-20.097h.085zm361.203 29.644c4.366 7.425 10.145 13.859 16.985 18.915H921.31l.283.438 5.039 7.572c6.16 9.439 14.2 17.413 23.582 23.388h-29.272v38.853h-9.824v-38.853h-29.102c9.373-5.976 17.403-13.95 23.553-23.388l5.351-8.01h-17.354c7.467-5.483 13.68-12.588 18.203-20.816a68.256 68.256 0 004.388-9.355c.17.439.368.877.566 1.345a69.862 69.862 0 004.955 9.911zm38.472 44.086c-7.218-3.701-13.7-8.769-19.109-14.939h18.798V405.341c-.04 1.401.064 2.803.311 4.181zm-425.975-12.396v-.204l1.444.204a49.81 49.81 0 004.699.234c1.586 0 3.143 0 4.728-.234a49.22 49.22 0 0015.344-4.122l2.066-.994a33.111 33.111 0 002.831-1.607 53.96 53.96 0 004.841-3.217 46.804 46.804 0 006.511 4.181l1.784.877a50.022 50.022 0 0017.495 4.882c1.303 0 2.633.147 3.935.147a46.947 46.947 0 006.087-.41c8.588-1.079 16.76-4.433 23.723-9.735l1.274.965a50.787 50.787 0 009.909 5.467 49.235 49.235 0 0018.543 3.713h.198c10.708-.01 21.133-3.554 29.753-10.115 8.622 6.557 19.046 10.101 29.754 10.115h1.896c10.094-.403 19.839-3.926 27.97-10.115 8.64 6.616 19.111 10.189 29.867 10.189s21.227-3.573 29.867-10.189c6.714 5.155 14.576 8.484 22.862 9.679a48.404 48.404 0 0024.556-2.839v22.628a39.509 39.509 0 01-23.074 3.737c-7.881-1.112-15.272-4.586-21.258-9.993l-3.086-2.924-3.114 2.924c-7.413 6.688-16.923 10.374-26.767 10.374-9.844 0-19.354-3.686-26.767-10.374l-3.086-2.924-3.085 2.924c-7.373 6.691-16.853 10.381-26.668 10.381-9.815 0-19.295-3.69-26.668-10.381l-3.086-2.924-3.085 2.924c-6.114 5.558-13.717 9.07-21.804 10.072-8.087 1.002-16.278-.553-23.492-4.459a40.097 40.097 0 01-8.04-5.613l-1.868-1.666-1.217-1.111-3.086 2.923-.227.351a38.913 38.913 0 01-7.502 5.203 35.236 35.236 0 01-4.642 2.164 39.101 39.101 0 01-14.155 2.66 39.632 39.632 0 01-13.306-2.338 41.437 41.437 0 01-9.908-5.204 40.94 40.94 0 01-3.539-2.924l-2.973-2.66-3.085 2.923c-.566.527-1.161.965-1.755 1.433-6.643 5.37-14.756 8.439-23.186 8.77h-3.68a35.084 35.084 0 01-4.303-.438l-.425-23.33zm332.016-2.543h25.082c-6.855 7.867-15.464 13.888-25.082 17.541v-17.541zm64.772 31.281h65.848v28.563h-65.848v-28.563zM742.109 270.656v-31.983h11.975v32.159h-11.975v-.176zm34.538 0h-15.485v-39.35h-26.13v39.35h-15.514v-51.395l.963-1.52 3.199-5.116 1.274-2.046 23.129-36.982 24.431 39.028 3.199 5.116.934 1.52v51.512-.117zm89.261 0h-79.267V222.74h79.267v47.916zM709.61 222.799v47.857h-38.303v-47.857h38.303zM524.267 420.69h-94.272c-2.342-8.613-6.38-16.635-11.861-23.564h106.133v23.564zm-92.346 10.232h92.346v23.563h-91.922V438.26a62.68 62.68 0 00-.424-7.338zm434.27-5.058h35.132v28.621h-35.132v-28.621zM706.864 187.512l-6.313 10.086a91.864 91.864 0 01-10.786-10.086h17.099zm-98.631 25.055c11.35-6.978 21.273-16.173 29.216-27.072l6.171-8.215h-18.854c8.727-5.75 16.09-13.453 21.544-22.54l4.812-7.835h-15.627c9.474-7.238 16.696-17.175 20.78-28.592 4.102 11.414 11.332 21.348 20.807 28.592h-15.627l4.813 7.835c5.453 9.087 12.816 16.79 21.543 22.54h-18.825l6.171 8.215a108.607 108.607 0 0020.043 20.728l-3.963 6.344h-29.838v58.089h-10.22v-58.089h-42.946zm438.087 241.918h-14.15v-28.562h26.21a18.87 18.87 0 009.91-2.924v31.369l-21.97.117zm21.89-118.898v42.624a18.794 18.794 0 00-7.19-2.602c.28-1.374.42-2.775.42-4.18v-9.355c-.03-5.273-2.01-10.334-5.55-14.141-3.53-3.806-8.34-6.069-13.44-6.324.33-1.496.49-3.026.48-4.56-.17-6.121-2.68-11.923-6.99-16.136-4.3-4.214-10.04-6.495-15.97-6.346h-7.02c-5.43-.017-10.7 1.893-14.921 5.408-3.91-16.103-13.633-30.055-27.177-38.999h44.418c14.02.031 27.45 5.795 37.36 16.029 9.91 10.235 15.49 24.108 15.52 38.582h.06zm-273.162-73.409h26.13v-30.813h-26.13v30.813zm7.078-23.387h11.975v16.195h-12.06l.085-16.195zm55.289-7.309h-26.102v30.813h26.102v-30.813zm-7.078 23.388h-11.946v-16.197h11.946v16.197zM723.651 54.289a33.124 33.124 0 00-1.766-15.912c-1.879-5.065-4.968-9.557-8.98-13.058-4.012-3.502-8.816-5.898-13.966-6.966a30.194 30.194 0 00-15.487.854c-3.894-6.39-9.43-11.537-15.991-14.868A38.381 38.381 0 00646.295.343c-7.278.719-14.219 3.511-20.05 8.065-5.831 4.555-10.322 10.692-12.973 17.728a25.622 25.622 0 00-4.728-.438c-7.183.007-14.069 2.957-19.148 8.203-5.08 5.245-7.936 12.356-7.944 19.774v5.116H723l.651-4.502zm-131.583-5.847c1.074-3.65 3.255-6.848 6.221-9.121a16.88 16.88 0 0110.255-3.508c2.12.007 4.221.413 6.2 1.198l5.266 2.105 1.33-5.642c1.444-6.13 4.692-11.647 9.297-15.793 4.605-4.145 10.341-6.715 16.418-7.356a28.779 28.779 0 0117.519 3.776c5.322 3.099 9.582 7.824 12.197 13.526l2.18 4.736 4.557-2.368a20.142 20.142 0 019.512-2.368c5.406.007 10.602 2.155 14.521 6 3.918 3.845 6.259 9.095 6.542 14.67l-122.015.145zm423.852 6.549c4.91 0 9.71-1.504 13.79-4.321 4.09-2.817 7.27-6.822 9.15-11.507a26.391 26.391 0 001.41-14.813c-.96-4.974-3.32-9.542-6.79-13.128-3.48-3.586-7.9-6.027-12.72-7.017a24.09 24.09 0 00-14.34 1.46c-4.54 1.94-8.415 5.226-11.143 9.442a26.24 26.24 0 00-4.184 14.245c.015 6.792 2.636 13.302 7.29 18.102 4.657 4.8 10.957 7.5 17.537 7.508v.029zm14.92-25.64c0 3.048-.88 6.027-2.51 8.56a15.028 15.028 0 01-6.7 5.675 14.487 14.487 0 01-8.62.877 14.811 14.811 0 01-7.64-4.217 15.494 15.494 0 01-4.08-7.889 15.83 15.83 0 01.85-8.901 15.329 15.329 0 015.49-6.914 14.607 14.607 0 018.29-2.597c3.94.008 7.71 1.617 10.5 4.48 2.8 2.862 4.38 6.746 4.42 10.81v.117z" fill="#F2F2F2"/></svg>