<?xml version="1.0" encoding="utf-8"?><svg width="58" height="84" fill="none" xmlns="http://www.w3.org/2000/svg" viewBox="0 0 58 84"><path fill-rule="evenodd" clip-rule="evenodd" d="M23.39 6.92h10.863v25.724l3.937 1.881a21.945 21.945 0 0110.652 11.036H8.722a21.945 21.945 0 0110.712-11.065l3.956-1.875v-25.7zM6.992 52.482a22.162 22.162 0 00-.071 1.785c0 12.073 9.787 21.86 21.86 21.86 12.074 0 21.862-9.787 21.862-21.86 0-.601-.024-1.196-.072-1.785H33.118c1.777 4.774 6.227 8.074 11.29 8.074v6.92c-6.56 0-12.273-3.39-15.685-8.503-3.455 4.8-9.092 7.927-15.458 7.927v-6.92c5.055 0 9.386-3.097 11.2-7.498H6.993zm34.182-42.346v18.146c9.693 4.63 16.39 14.526 16.39 25.985 0 15.895-12.887 28.781-28.782 28.781C12.886 83.047 0 70.161 0 54.266c0-11.49 6.733-21.409 16.47-26.023V10.135h-.634a5.068 5.068 0 110-10.135h25.338a5.068 5.068 0 110 10.135z" fill="#3DAE2B"/></svg>