<?xml version="1.0" encoding="utf-8"?><svg width="239" height="30" fill="none" xmlns="http://www.w3.org/2000/svg" viewBox="0 0 239 30"><path d="M14.705 15l8.976 12h-8.16L7.84 16.392V27H.64V3h7.2v10.512L15.04 3h8.4l-8.736 12zM42.299 5.256V3h7.2v24h-7.2v-2.256c-1.664 1.952-4.048 2.928-7.152 2.928-3.168 0-5.872-1.216-8.112-3.648-2.24-2.432-3.36-5.44-3.36-9.024 0-3.552 1.12-6.544 3.36-8.976 2.272-2.464 4.976-3.696 8.112-3.696 3.104 0 5.488.976 7.152 2.928zM30.875 15c0 1.792.528 3.216 1.584 4.272s2.432 1.584 4.128 1.584c1.696 0 3.072-.528 4.128-1.584s1.584-2.48 1.584-4.272c0-1.792-.528-3.216-1.584-4.272s-2.432-1.584-4.128-1.584c-1.696 0-3.072.528-4.128 1.584s-1.584 2.48-1.584 4.272zM52.621 3h21.6v6.912H67.07V27h-7.2V9.912h-7.248V3zM93.815 5.256V3h7.2v24h-7.2v-2.256c-1.664 1.952-4.048 2.928-7.152 2.928-3.168 0-5.872-1.216-8.112-3.648-2.24-2.432-3.36-5.44-3.36-9.024 0-3.552 1.12-6.544 3.36-8.976 2.272-2.464 4.976-3.696 8.112-3.696 3.104 0 5.488.976 7.152 2.928zM82.39 15c0 1.792.528 3.216 1.584 4.272s2.432 1.584 4.128 1.584c1.696 0 3.072-.528 4.128-1.584s1.584-2.48 1.584-4.272c0-1.792-.528-3.216-1.584-4.272s-2.432-1.584-4.128-1.584c-1.696 0-3.072.528-4.128 1.584S82.39 13.208 82.39 15zM107.593 3h19.584v24h-7.2V9.912h-5.184v7.152c0 3.648-.912 6.32-2.736 8.016-1.792 1.696-4.432 2.336-7.92 1.92v-6.72c1.12.32 1.968.16 2.544-.48.608-.64.912-1.712.912-3.216V3zM152.997 24.024c-2.432 2.432-5.44 3.648-9.024 3.648-3.584 0-6.592-1.216-9.024-3.648-2.464-2.464-3.696-5.472-3.696-9.024 0-3.52 1.232-6.512 3.696-8.976 2.464-2.464 5.472-3.696 9.024-3.696 3.552 0 6.56 1.232 9.024 3.696 2.464 2.464 3.696 5.456 3.696 8.976 0 3.552-1.232 6.56-3.696 9.024zM138.453 15c0 1.664.528 3.024 1.584 4.08s2.368 1.584 3.936 1.584 2.88-.528 3.936-1.584 1.584-2.416 1.584-4.08c0-1.664-.528-3.024-1.584-4.08s-2.368-1.584-3.936-1.584-2.88.528-3.936 1.584-1.584 2.416-1.584 4.08zM160.766 3h16.8v6.912h-9.6V27h-7.2V3zM203.222 17.88h-17.04c.8 2.24 2.72 3.36 5.76 3.36 1.952 0 3.488-.608 4.608-1.824l5.76 3.312c-2.336 3.296-5.824 4.944-10.464 4.944-4 0-7.232-1.2-9.696-3.6-2.4-2.4-3.6-5.424-3.6-9.072 0-3.584 1.184-6.592 3.552-9.024 2.4-2.432 5.472-3.648 9.216-3.648 3.488 0 6.384 1.216 8.688 3.648 2.336 2.368 3.504 5.376 3.504 9.024a13.73 13.73 0 01-.288 2.88zm-17.184-5.376h10.32c-.704-2.528-2.4-3.792-5.088-3.792-2.784 0-4.528 1.264-5.232 3.792z" fill="#F3BD48"/><path fill-rule="evenodd" clip-rule="evenodd" d="M229.05 15l-9.525-9.525 4.949-4.95L238.949 15l-14.475 14.475-4.949-4.95L229.05 15z" fill="#F3BD48"/></svg>