<?xml version="1.0" encoding="utf-8"?><svg width="54" height="50" xmlns="http://www.w3.org/2000/svg" viewBox="0 0 54 50"><path fill-rule="evenodd" clip-rule="evenodd" d="M10.621 37.402A1.392 1.392 0 019 36.03v-8c0-.077.006-.152.018-.226.254-2.31 3.19-4.152 6.85-4.289a11.7 11.7 0 01.875 0c3.67.137 6.612 1.99 6.853 4.308.01.067.015.136.015.207v.04a2.93 2.93 0 010 .118v7.843a1.392 1.392 0 01-2.783 0v-7.483a.696.696 0 00-.694-.692v5.914c0 .033 0 .067-.002.1v11.728a1.74 1.74 0 11-3.479 0V36.03h-.693v9.567a1.738 1.738 0 11-3.479 0V27.855h-.003-.003a.696.696 0 00-.692.668v7.507c0 .69-.503 1.263-1.162 1.372zm0 1.871A3.251 3.251 0 017.14 36.03v-8.002c0-.159.012-.316.034-.472.234-1.962 1.599-3.458 3.19-4.402a10.308 10.308 0 012.395-1.02 5.196 5.196 0 117.092 0c.874.252 1.687.598 2.409 1.028 1.595.95 2.962 2.456 3.181 4.43.02.144.03.29.03.437v.024a4.763 4.763 0 010 .15v7.827a3.251 3.251 0 01-3.479 3.243v6.324a3.6 3.6 0 01-5.685 2.933 3.6 3.6 0 01-5.685-2.933v-6.324zm6.061-17.622a3.337 3.337 0 10-.377.021c.128 0 .253-.007.377-.02z"/><path fill-rule="evenodd" clip-rule="evenodd" d="M43.98 26.186l2.73 4.729a3.695 3.695 0 01-2.794 5.521l.101.366a3.416 3.416 0 01-1.972 4.066v4.786a3.586 3.586 0 01-5.657 2.928 3.586 3.586 0 01-5.657-2.927v-4.787a3.416 3.416 0 01-1.971-4.066l.101-.364a3.697 3.697 0 01-2.82-5.526l2.812-4.872c.149-.258.325-.493.525-.702.747-.922 2.117-2.075 4.058-2.706a5.09 5.09 0 115.929-.015c2.006.65 3.374 1.88 4.084 2.861.201.211.38.448.53.708zm-.576 8.409a1.835 1.835 0 001.695-2.75l-2.73-4.729a1.833 1.833 0 00-.349-.435c-.652-.98-2.509-2.655-5.585-2.655-2.965 0-4.891 1.557-5.663 2.547a1.836 1.836 0 00-.309.397l-2.812 4.872a1.837 1.837 0 003.181 1.837l1.403-2.43-1.683 6.051c-.276.99.469 1.97 1.496 1.97h.543v6.384a1.726 1.726 0 103.452 0V39.27h.69v6.384a1.725 1.725 0 103.452 0V39.27h.544c1.028 0 1.772-.98 1.497-1.97l-1.66-5.963 1.353 2.343c.321.556.889.88 1.485.915zM39.62 18.487a3.23 3.23 0 11-6.46 0 3.23 3.23 0 016.46 0z"/></svg>