<?xml version="1.0" encoding="utf-8"?><svg width="83" height="83" fill="none" xmlns="http://www.w3.org/2000/svg" viewBox="0 0 83 83"><path fill-rule="evenodd" clip-rule="evenodd" d="M35.5 75.5c15.464 0 28-12.536 28-28s-12.536-28-28-28-28 12.536-28 28 12.536 28 28 28zm0 7c19.33 0 35-15.67 35-35s-15.67-35-35-35-35 15.67-35 35 15.67 35 35 35z" fill="#ECBE4C"/><path fill-rule="evenodd" clip-rule="evenodd" d="M32 3.5A3.5 3.5 0 0135.5 0C61.733 0 83 21.267 83 47.5a3.5 3.5 0 11-7 0C76 25.133 57.867 7 35.5 7A3.5 3.5 0 0132 3.5zM57.5 47.5c0 1.105-.967 2-2.16 2H40.66c-1.193 0-2.16-.895-2.16-2s.967-2 2.16-2h14.68c1.193 0 2.16.895 2.16 2zM35 23.5a1.5 1.5 0 011.5 1.5v5a1.5 1.5 0 01-3 0v-5a1.5 1.5 0 011.5-1.5zM51.217 30.56a1.5 1.5 0 010 2.122l-3.536 3.535a1.5 1.5 0 11-2.121-2.12l3.535-3.536a1.5 1.5 0 012.122 0zM35 70.5a1.5 1.5 0 01-1.5-1.5v-5a1.5 1.5 0 013 0v5a1.5 1.5 0 01-1.5 1.5zM18.56 63.217a1.5 1.5 0 010-2.12l3.536-3.537a1.5 1.5 0 012.122 2.122l-3.536 3.535a1.5 1.5 0 01-2.121 0zM12.5 48a1.5 1.5 0 011.5-1.5h5a1.5 1.5 0 010 3h-5a1.5 1.5 0 01-1.5-1.5zM51.217 63.217a1.5 1.5 0 01-2.121 0l-3.536-3.535a1.5 1.5 0 112.121-2.121l3.536 3.535a1.5 1.5 0 010 2.121z" fill="#ECBE4C"/><path d="M41.5 47.5a6 6 0 11-12 0 6 6 0 0112 0z" fill="#ECBE4C"/></svg>