<?xml version="1.0" encoding="utf-8"?><svg width="60" height="31" fill="none" xmlns="http://www.w3.org/2000/svg" viewBox="0 0 60 31"><path d="M.2 27.76c-.14-.92-.2-1.72-.2-2.5C0 16.05 7.5 8.55 16.71 8.55c1.5 0 2.96.2 4.38.59C24.96 3.5 31.45 0 38.4 0c10.42 0 18.69 8.33 20.39 16.04 1.61 7.3.4 11.72.25 12.2l-.76 2.54H.66L.2 27.75v.01zm51.63-10.18C50.74 12.64 44.96 7.13 38.4 7.13c-5.33 0-10.25 3.12-12.53 7.94l-1.57 3.31-3.27-1.66c-1.37-.69-2.82-1.05-4.33-1.05-4.74 0-8.69 3.46-9.45 7.99h45.23c.03-1.47-.08-3.53-.65-6.09v.01z" fill="#163029"/></svg>