<?xml version="1.0" encoding="utf-8"?><svg width="89" height="36" fill="none" xmlns="http://www.w3.org/2000/svg" viewBox="0 0 89 36"><path d="M84.66 32.27c.12-.78.2-1.57.2-2.39 0-8.82-7.15-15.96-15.96-15.96-2.6 0-5.05.63-7.21 1.74C58.3 8.5 51.01 3.54 42.56 3.54c-9.93 0-18.26 6.85-20.53 16.08-1.52-.59-3.17-.93-4.9-.93-7.5 0-13.58 6.08-13.58 13.57h81.12l-.01.01z" fill="#A0C966"/><path d="M87.72 35.82H0v-3.55c0-9.44 7.68-17.12 17.12-17.12.86 0 1.72.07 2.57.2A24.643 24.643 0 0142.56 0c8.37 0 16.18 4.31 20.7 11.22 1.82-.56 3.71-.84 5.65-.84 10.76 0 19.51 8.75 19.51 19.51 0 .91-.08 1.86-.24 2.92l-.46 3.02v-.01zm-79.97-7.1h73.52c-.59-6.3-5.91-11.25-12.36-11.25-1.96 0-3.84.45-5.6 1.35l-3.25 1.66-1.56-3.3c-2.9-6.13-9.15-10.09-15.92-10.09-8.12 0-15.15 5.5-17.09 13.38l-.96 3.92-3.77-1.46a9.862 9.862 0 00-3.62-.69c-4.28 0-7.94 2.69-9.38 6.48h-.01z" fill="#1D1D1B"/></svg>