<?xml version="1.0" encoding="utf-8"?><svg width="1920" height="689" fill="none" xmlns="http://www.w3.org/2000/svg" viewBox="0 0 1920 689"><g clip-path="url(#bgclip0_967_3314)" fill="#D9E2E7"><path d="M902.764 522.678a50.306 50.306 0 00-16.73 2.877c-6.441-10.809-15.714-19.542-26.762-25.202-11.047-5.661-23.423-8.02-35.715-6.81-12.292 1.21-24.005 5.942-33.801 13.655-9.797 7.713-17.282 18.096-21.601 29.964a43.053 43.053 0 00-8.752-.893c-11.883.014-23.276 4.862-31.679 13.483-8.403 8.621-13.129 20.309-13.142 32.5v7.441h238.08l.967-6.349c.388-2.611.598-5.247.628-7.887-.025-13.999-5.46-27.415-15.113-37.309-9.653-9.894-22.736-15.457-36.38-15.47zm-172.806 52.134c1.622-6.754 5.404-12.756 10.742-17.045 5.338-4.289 11.923-6.619 18.703-6.616 3.757-.004 7.481.72 10.976 2.133l7.688 3.025 1.982-8.184c2.525-10.563 8.179-20.064 16.182-27.196 8.003-7.132 17.964-11.545 28.511-12.632 10.548-1.088 21.165 1.203 30.392 6.559s16.61 13.512 21.133 23.348l3.191 6.944 6.625-3.521a36.109 36.109 0 0118.047-4.067 36.214 36.214 0 0117.706 5.422c5.359 3.319 9.805 7.982 12.923 13.551a38.594 38.594 0 014.896 18.279H729.958zM1704.72 105.458c7.33 0 14.5-2.231 20.6-6.412 6.1-4.18 10.85-10.122 13.66-17.074a38.944 38.944 0 002.11-21.982c-1.43-7.38-4.96-14.16-10.15-19.48-5.19-5.322-11.79-8.945-18.99-10.413a36.191 36.191 0 00-21.42 2.165c-6.78 2.88-12.57 7.756-16.65 14.013a38.792 38.792 0 00-6.25 21.137c.02 10.086 3.93 19.756 10.88 26.888 6.95 7.132 16.38 11.145 26.21 11.158zm0-61.211c4.46 0 8.83 1.358 12.54 3.904 3.72 2.545 6.61 6.163 8.32 10.396a23.636 23.636 0 011.28 13.384 23.332 23.332 0 01-6.18 11.861 22.375 22.375 0 01-11.56 6.34c-4.38.894-8.92.435-13.04-1.318a22.704 22.704 0 01-10.14-8.532 23.599 23.599 0 01-3.8-12.87c.01-6.14 2.39-12.024 6.63-16.366 4.23-4.341 9.96-6.786 15.95-6.8zM1264.63 271.929c1.06-.012 2.1-.24 3.07-.669a7.875 7.875 0 002.59-1.83c.74-.779 1.32-1.7 1.71-2.71.39-1.009.58-2.088.56-3.174a8.436 8.436 0 00-1.41-4.575 8.154 8.154 0 00-3.64-3.007 7.892 7.892 0 00-4.66-.431 8.025 8.025 0 00-4.11 2.29 8.315 8.315 0 00-2.18 4.243 8.46 8.46 0 00.47 4.772 8.265 8.265 0 002.98 3.702 7.903 7.903 0 004.47 1.389h.15zM1153.47 69c.37.261.81.4 1.25.396a2.558 2.558 0 002.13-1.24c.22-.395.33-.838.34-1.29a2.613 2.613 0 00-1.11-1.984 2.388 2.388 0 00-1.26-.397c-.43.004-.85.114-1.23.321-.38.207-.7.506-.94.87v.248c-.17.339-.27.71-.29 1.091 0 .433.11.858.31 1.238.21.38.5.704.85.945l-.05-.199zM1222.75 240.282a7.938 7.938 0 004.46-1.479 8.21 8.21 0 002.9-3.769c.59-1.523.72-3.189.38-4.789a8.337 8.337 0 00-2.28-4.199 7.61 7.61 0 00-2.62-1.768 7.602 7.602 0 00-3.08-.564c-2.14 0-4.2.873-5.71 2.427a8.371 8.371 0 00-2.37 5.857c0 2.197.85 4.304 2.37 5.858a7.97 7.97 0 005.71 2.426h.24zM1244.9 288.795h.44a5.517 5.517 0 003.69-1.677 5.81 5.81 0 00.29-7.713 5.521 5.521 0 00-3.55-1.97c-15.66-1.289-24.9-8.482-29.01-22.718a5.748 5.748 0 00-2.68-3.389 5.486 5.486 0 00-4.23-.48 5.567 5.567 0 00-3.29 2.757 5.834 5.834 0 00-.44 4.336c5.37 18.552 18.81 29.217 38.78 30.854z"/><path d="M1855.67 389.639v-19.247h72.52v-14.881H1794.5c-.63-10.235-5.04-19.838-12.32-26.865-7.28-7.028-16.89-10.953-26.89-10.983-3.83 0-7.65.585-11.31 1.736-4.96-7.784-11.89-14.031-20.06-18.067a48.648 48.648 0 00-26.27-4.835c-9.02.873-17.64 4.257-24.93 9.789-7.28 5.531-12.95 12.998-16.4 21.596-8.65-1.209-17.43.96-24.59 6.077-7.17 5.118-12.2 12.81-14.09 21.552h-23.84v-42.263h29.98c6.65-.013 13.02-2.729 17.73-7.554 4.7-4.826 7.35-11.366 7.36-18.19v-11.111c0-5.978-2.03-11.769-5.73-16.383-3.71-4.615-8.86-7.766-14.58-8.916.18-1.264.26-2.541.24-3.819v-11.111c-.01-6.344-2.29-12.462-6.42-17.184-4.13-4.722-9.82-7.717-15.96-8.412.23-1.376.34-2.77.34-4.167-.43-7.772-3.8-15.064-9.41-20.312-5.6-5.248-12.99-8.035-20.57-7.764H1566c-7.59-.271-14.97 2.516-20.57 7.764-5.61 5.248-8.99 12.54-9.41 20.312a24.23 24.23 0 00.34 4.167c-6.15.695-11.83 3.69-15.96 8.412-4.13 4.722-6.42 10.84-6.43 17.184v10.962c.01 1.277.09 2.552.24 3.82-5.71 1.149-10.87 4.3-14.57 8.915-3.7 4.614-5.73 10.405-5.73 16.383v11.111c.01 6.824 2.66 13.365 7.36 18.19 4.7 4.825 11.08 7.541 17.73 7.554h29.88v42.611c-76.88 2.48-198.24 21.875-219.85 174.308h-45.26c10.3-6.796 16.83-21.131 9.33-39.683-4.01-9.921-9.04-20.338-14.16-30.408l-2.42-4.96c-.34-.744-.72-1.438-1.11-2.183-2.42-4.712-4.84-9.375-7.01-13.938v-49.158l7.69 7.887 14.5 14.881.82.695c5.18 4.314 11.74 6.496 18.4 6.12 6.66-.376 12.94-3.283 17.62-8.154 4.73-4.845 7.55-11.304 7.93-18.145.39-6.842-1.7-13.59-5.85-18.959l-15.08-15.427-41.87-42.808c10.53-4.958 19.73-12.467 26.81-21.88 7.08-9.414 11.83-20.451 13.83-32.162a75.32 75.32 0 00-2.33-35.07c-3.54-11.324-9.7-21.597-17.96-29.938l13.2-4.96a5.638 5.638 0 003.16-2.944c.63-1.372.7-2.945.2-4.373a5.662 5.662 0 00-2.87-3.239 5.444 5.444 0 00-4.26-.208l-10.98 4.018 1.79-15.228a5.766 5.766 0 00-1.29-3.996 5.52 5.52 0 00-3.6-2.002 5.468 5.468 0 00-3.97 1.082 5.715 5.715 0 00-2.16 3.576l-2.08 17.808c-10.35-6.608-22.18-10.376-34.35-10.941-12.18-.564-24.29 2.093-35.18 7.717a5.196 5.196 0 00-3.29 1.587v.347c-9.3 5.434-17.3 12.944-23.4 21.975v-4.464c0-7.887 0-15.378-.24-21.777-.5-5.76-2.91-11.172-6.82-15.333-3.92-4.161-9.1-6.82-14.7-7.534v-34.723c6.69 5.946 15.08 9.513 23.91 10.165 8.82.653 17.62-1.643 25.07-6.544l7.69-4.96-47-48.017c2.07.33 4.15.512 6.24.546a40.81 40.81 0 0021.08-5.938c6.39-3.87 11.65-9.42 15.24-16.076 3.6-6.656 5.39-14.176 5.2-21.782-.19-7.607-2.35-15.024-6.27-21.483l-4.84-7.887-46.75 48.017c1.19-8.072.11-16.327-3.14-23.782-3.24-7.455-8.51-13.796-15.17-18.27a40.746 40.746 0 00-22.38-6.962c-7.96-.073-15.77 2.201-22.51 6.552l-7.68 4.96 46.75 48.017a40.59 40.59 0 00-23.14 3.254c-7.25 3.332-13.41 8.727-17.76 15.547-4.36 6.819-6.71 14.776-6.79 22.926-.07 8.15 2.13 16.152 6.35 23.056l4.84 7.887 46.46-47.62v2.58a42.983 42.983 0 000 6.994v64.485c-5.06 1.64-9.47 4.919-12.57 9.345-3.09 4.427-4.7 9.763-4.59 15.209 0 7.59-.24 19.247-.44 33.582v1.29c-.48 44.148-1.11 113.048-1.55 167.761 0 28.373-.43 52.977-.53 67.908v27.431c0 6.498 0 13.939.24 22.47.29 17.461 8.37 27.68 18.33 31.697-32.78 5.507-67.4 16.717-96.7 39.237H239.055v-92.114h366.984c38.68 0 112.802-.001 131.949 77.927a30.774 30.774 0 0112.813-7.986c-23.788-84.674-109.321-84.823-144.762-84.823H239.055V268.704c-.025-22.475-8.749-44.019-24.253-59.897s-36.52-24.79-58.427-24.777H122.53c-21.882.026-42.86 8.955-58.333 24.829-15.473 15.874-24.177 37.396-24.202 59.845v86.807H-10v14.881h49.947v159.775H-10v14.881h50.333a164.535 164.535 0 002.128 18.949H-10v14.881h55.507c0 .546.338 1.141.483 1.736.726 2.53 1.45 4.961 2.224 7.441.774 2.48 1.5 4.514 2.321 6.746.822 2.232 1.886 4.96 2.95 7.49 1.063 2.53 2.175 4.96 3.336 7.391 14.989 31.008 38.862 56.573 68.416 73.265h37.424c-38.072-11.355-70.225-37.69-89.45-73.265a177.71 177.71 0 01-3.77-7.391c-1.16-2.43-2.273-4.96-3.288-7.49-1.016-2.53-1.79-4.464-2.611-6.746-.822-2.282-1.693-4.961-2.466-7.441a18.038 18.038 0 00-.484-1.736c-.532-1.885-1.063-3.77-1.547-5.704 0-.596-.242-1.191-.387-1.737-.58-2.48-1.112-4.96-1.547-7.44a153.565 153.565 0 01-2.32-18.949c0-2.48-.097-4.96-.29-7.441V268.704c.012-18.506 7.183-36.251 19.939-49.337 12.755-13.085 30.051-20.443 48.09-20.456h33.845c18.039.013 35.335 7.371 48.09 20.456 12.756 13.086 19.927 30.831 19.94 49.337v414.243h14.505v-93.255h310.993c-4.11 1.587-8.171 3.323-12.233 4.96-5.125 2.331-10.202 4.96-15.182 7.49-4.98 2.53-8.703 4.961-12.909 7.391-30.05 18.007-55.465 43.128-74.122 73.265h16.971c22.291-32.08 52.61-57.392 87.757-73.265 5.899-2.728 11.894-4.96 17.986-7.391a217.173 217.173 0 0124.901-7.49 188.022 188.022 0 0140.615-4.96c-4.11 1.587-8.172 3.323-12.233 4.96-5.125 2.331-10.202 4.96-15.182 7.49-4.98 2.53-8.703 4.961-12.91 7.391-30.021 18.076-55.4 43.245-74.025 73.414h17.019c22.304-32.068 52.619-57.377 87.757-73.265 5.899-2.728 11.895-4.96 17.987-7.391a215.51 215.51 0 0124.804-7.49 189.346 189.346 0 0142.694-4.961h332.892c-21.66 21.975-38.677 52.085-48.347 93.256h14.94c10.397-43.155 30.317-72.868 54.927-93.256 3.19-2.629 6.43-4.96 9.67-7.44 3.24-2.48 7.64-4.961 11.6-7.441 51.3-29.762 114.5-29.762 154.97-29.762h317.71a217.92 217.92 0 00-36.6 18.949H1325.93c-59.37.942-158.63 11.359-188.85 119.049h15.32c29.01-93.702 116.38-103.077 173.39-104.168h165.6l-2.08 1.736c-2.85 2.431-5.65 4.96-8.36 7.441-27.37 25.694-47.1 58.384-52.17 94.892h14.5c5.76-37.55 28.72-70.586 59.52-94.892 3.24-2.58 6.63-4.961 10.06-7.441l2.56-1.736c2.95-1.984 5.9-3.869 8.9-5.705 1.01-.595 2.03-1.19 3.09-1.736 4.6-2.678 9.33-4.96 14.12-7.44 22.84-11.156 47.6-17.562 72.87-18.85a220.756 220.756 0 00-36.17 18.85 187.932 187.932 0 00-10.88 7.44c-.82.546-1.59 1.141-2.37 1.736-2.46 1.836-4.83 3.721-7.3 5.705l-2.08 1.736c-2.85 2.431-5.66 4.96-8.36 7.441-27.37 25.694-47.1 58.384-52.13 94.892h14.51c5.75-37.55 28.72-70.586 59.52-94.892 3.22-2.58 6.56-5.06 10.01-7.441l2.61-1.736h346.14v-14.881h-320.08c24.62-12.095 51.51-18.56 78.81-18.949h241.27v-14.881h-178.89c57.87-24.802 106.66-77.631 106.66-140.677zm-651.1-363.598c.89 4.498.68 9.152-.61 13.546a27.858 27.858 0 01-6.79 11.635 27.005 27.005 0 01-11.35 6.95 26.437 26.437 0 01-13.21.608l31.96-32.739zm-99.74 81.251c-.92-4.502-.73-9.166.56-13.573a27.804 27.804 0 016.78-11.665 26.914 26.914 0 0111.39-6.946c4.29-1.31 8.84-1.5 13.23-.554l-31.96 32.738zm204.28 267.019l8.9 9.028c1.98 2.549 2.95 5.769 2.73 9.022-.22 3.253-1.63 6.3-3.94 8.538-2.17 2.283-5.1 3.643-8.2 3.809-3.1.165-6.15-.876-8.53-2.916l-8.75-9.028c7.72-4.008 13.97-10.484 17.79-18.453zm-16.49-153.376a59.386 59.386 0 017.06 28.175 57.556 57.556 0 01-.77 9.177 36.187 36.187 0 01-8.36-17.753 36.718 36.718 0 012.07-19.599zm-50.09-30.457a55.789 55.789 0 0123.96 5.352c7.52 3.546 14.19 8.728 19.56 15.184-21.6.722-42.89-5.448-60.93-17.659a55.506 55.506 0 0117.22-2.877h.19zm-57.1 57.392v-.297a59.756 59.756 0 017.87-28.143c4.91-8.546 11.85-15.674 20.17-20.717 19.19 15.293 42.76 23.662 67.06 23.81-2.7 10.863-3.67 30.258 14.94 48.661-3.9 9.83-10.33 18.391-18.59 24.776-8.27 6.384-18.07 10.353-28.35 11.485-1.99 0-3.97.347-6 .347-1.96.009-3.91-.107-5.85-.347-14.1-1.511-27.15-8.333-36.62-19.145-9.48-10.813-14.71-24.847-14.68-39.388-.03-.35-.07-.699-.15-1.042h.2zm9.09-130.062c-3.74.793-7.6.763-11.33-.088a26.732 26.732 0 01-10.29-4.847 27.554 27.554 0 01-7.44-8.751 28.253 28.253 0 01-3.29-11.116 22.85 22.85 0 010-4.96c.08-.982.21-1.959.39-2.927l31.96 32.689zm-79.44-102.333c4.38-.909 8.92-.69 13.2.635a26.952 26.952 0 0111.35 6.965 27.997 27.997 0 016.79 11.64c1.29 4.394 1.5 9.049.62 13.549l-31.96-32.789zm31.23 59.773a12.16 12.16 0 01-3.24-6.498c-.15-.683-.23-1.382-.24-2.083v-1.488c.17-1.387.58-2.731 1.21-3.969a11.805 11.805 0 012.13-3.125 11.685 11.685 0 016.33-3.373c.69-.05 1.39-.05 2.08 0h1.45c1.35.169 2.65.571 3.87 1.19 1.64.83 3.07 2.05 4.17 3.56a11.901 11.901 0 012.11 5.121c.16.7.24 1.416.25 2.133v1.488a13.066 13.066 0 01-1.17 3.92 12.19 12.19 0 01-2.17 3.174l-1.11.992a11.78 11.78 0 01-5.22 2.38 9.054 9.054 0 01-3.53 0 11.673 11.673 0 01-3.87-1.19c-.67-.354-1.3-.77-1.89-1.24-.38-.347-.82-.644-1.16-.992zm-1.5 108.286c-.1-1.521.12-3.045.64-4.472a10.712 10.712 0 012.38-3.803 10.43 10.43 0 013.7-2.458c1.39-.541 2.87-.771 4.35-.676h.34a11.3 11.3 0 018.22 2.384 11.835 11.835 0 014.35 7.537c.34 5.952.25 13.194 0 20.833v1.836a35.392 35.392 0 00-24.46.893c.29-9.227.39-16.717.48-22.074zm-.48 38.592a23.785 23.785 0 0112.08-4.422c4.34-.332 8.68.545 12.58 2.537V225.945c0 2.877 0 5.903.38 8.979v2.777c.25 3.374.58 6.846 1.02 10.318-.02.363-.02.728 0 1.091.01 19.498 7.56 38.194 21 51.985 13.43 13.792 31.65 21.552 50.66 21.578 2.12 0 4.35 0 6.57-.347h9.19l32.01 32.689 7.97 8.185a27.63 27.63 0 01-6.63 11.337 26.713 26.713 0 01-11.01 6.867l-26.6-27.282v26.687l-2.22.893-3.92 1.538-4.54 1.637-3.43 1.14-4.84 1.439-3.48 1.042-4.84 1.24-3.28.793c-1.6.397-3.24.744-4.84 1.042l-2.95.595-5.17.794-2.47.397-6.43.595h-1.01c-2.52.199-4.98.298-7.4.298h-9.58l-4.49-.447-2.66-.397-4.11-.644-2.76-.596-3.87-.892-2.75-.794-3.68-1.141-2.75-.992-3.53-1.439c-.87-.347-1.79-.744-2.66-1.19-.87-.447-2.27-1.042-3.43-1.637l-2.57-1.339-1.4-.844c.82-52.629 1.4-116.768 1.84-159.576v-.198zm-2.32 249.706v-.248-8.829-3.026c.02-.347.02-.695 0-1.042v-.694-1.389-1.191-1.041c0-13.046 0-32.838.43-55.954l1.7.794 2.61 1.141 4.25 1.687 2.52.942 4.83 1.637 1.84.546c2.32.644 4.83 1.24 7.01 1.736l1.93.347c1.74.298 3.53.645 5.32.893l2.66.297 4.84.497h18.13c2.61 0 5.22-.397 7.88-.695l1.93-.297c2.03-.248 4.11-.546 6.19-.943l2.9-.496 5.42-1.141 3.09-.744c1.84-.446 3.68-.893 5.51-1.439l3.05-.793 6.33-1.984 2.28-.744c2.8-.943 5.61-1.935 8.46-3.076v45.934l.77 1.587c2.08 4.216 4.31 8.631 6.53 13.046.13.221.24.453.34.694-6.78 7.883-15.91 13.252-25.97 15.278a7.104 7.104 0 01-.38-.893c-.39-.793-.73-1.587-1.07-2.331l-.67-1.488c-.34-.695-.63-1.439-.97-2.133l-.29-.645c-.68-1.488-1.26-2.877-1.89-4.216 0-.496-.43-1.042-.67-1.538l-.58-1.339-2.66-6.102-1.89-4.414h-49.46v24.008a40.84 40.84 0 01-16.03 3.15 40.848 40.848 0 01-15.98-3.398l-.24.049zm14.5 50.845c-8.65 0-13.92-7.143-14.12-19.247v-15.923a51.64 51.64 0 0031.92 0v16.32c.07 2.449-.34 4.888-1.21 7.172a18.194 18.194 0 01-3.83 6.125 17.775 17.775 0 01-5.85 4.109c-2.2.954-4.57 1.445-6.95 1.444h.04zm74.13 7.49c-15.48 0-35.16 0-56.67 1.885a33.039 33.039 0 0010.63-11.976 33.982 33.982 0 003.87-15.703v-29.614-11.806h26.79c.53 1.29 1.16 2.679 1.79 4.167.72 1.587 1.45 3.324 2.27 4.961l2.47 5.505v.249l2.8 6.15.68 1.439 1.11 2.381c5.22 11.21 10.64 22.272 14.51 28.721 3.13 5.476 7.53 10.076 12.81 13.393l-23.06.248zm44.24-11.905c-6 3.075-15.33 1.538-21.66-9.177-2.91-4.96-6.97-13.145-11.27-22.173 10-2.616 19.16-7.885 26.54-15.278 4.07 8.185 8.03 16.419 11.17 24.356 4.79 12.103.39 19.544-4.83 22.272h.05zm376.41-175.847a19.43 19.43 0 017.25 1.389l7.69 3.076 1.98-8.234c1.87-7.847 6.26-14.821 12.46-19.804 6.2-4.983 13.85-7.687 21.72-7.677a34.809 34.809 0 0118.87 5.65c5.65 3.668 10.17 8.897 13.05 15.084l3.19 6.895 6.62-3.472a24.118 24.118 0 0111.22-2.778c6.16.006 12.1 2.359 16.66 6.602 4.57 4.244 7.44 10.076 8.05 16.365h-147.47c1.46-3.858 4.02-7.173 7.35-9.51a19.664 19.664 0 0111.31-3.586h.05zm-132.39-44.048c-2.81 0-5.5-1.144-7.48-3.182a10.996 10.996 0 01-3.11-7.681v-11.111c0-2.886 1.12-5.654 3.1-7.699 1.99-2.046 4.68-3.201 7.49-3.214h20.02l-8.46-11.806a10.852 10.852 0 01-2.08-6.399v-11.111c0-2.881 1.12-5.645 3.1-7.682 1.99-2.037 4.68-3.182 7.49-3.182h22.68l-8.85-11.954a11.71 11.71 0 01-2.37-6.945c.41-3.825 2.26-7.336 5.14-9.797 2.89-2.46 6.59-3.678 10.33-3.397h10.78a14.26 14.26 0 0110.33 3.397c2.89 2.461 4.73 5.972 5.14 9.797a11.7 11.7 0 01-2.36 6.945l-8.85 11.954h22.67c2.81 0 5.51 1.145 7.49 3.182 1.99 2.037 3.1 4.801 3.1 7.682v10.962c0 2.307-.73 4.551-2.08 6.399l-8.41 11.806h19.97c2.81.013 5.51 1.169 7.49 3.214a11.079 11.079 0 013.1 7.699v11.111c0 2.881-1.12 5.644-3.1 7.682-1.99 2.037-4.68 3.181-7.49 3.181h-44.48v57.144h-15.81v-56.995h-44.49zm-63.24 228.824a45.653 45.653 0 01-15.57-6.647c2.37-3.505 5.62-6.281 9.41-8.03a22.28 22.28 0 0112.09-1.892c4.13.51 8.04 2.166 11.31 4.789a23.295 23.295 0 017.27 10.093 45.198 45.198 0 01-24.56 1.687h.05zm37.42-8.483c-2.58-6.121-6.68-11.444-11.88-15.441-5.21-3.997-11.34-6.529-17.8-7.346-6.45-.817-13 .11-19 2.689-5.99 2.578-11.23 6.719-15.19 12.013a52.312 52.312 0 01-2.95-4.167 44.736 44.736 0 01-3.87-7.54 37.527 37.527 0 0011.34-10.384 38.635 38.635 0 006.36-14.16 39.154 39.154 0 00.34-15.588 38.84 38.84 0 00-5.75-14.432 46.636 46.636 0 015.22-4.117 45.449 45.449 0 0115.04-6.449 38.686 38.686 0 00-3.39 15.873 39.065 39.065 0 005.54 20.41c3.68 6.134 8.97 11.081 15.26 14.275a36.545 36.545 0 0020.32 3.784c6.98-.721 13.63-3.446 19.17-7.863a48.665 48.665 0 01-4.9 21.626c-3.27 6.714-8.03 12.543-13.9 17.016l.04-.199zm-74.26-35.467c-.25-4.272.06-8.559.92-12.748a47.69 47.69 0 014.83-13.691 23.867 23.867 0 011.16 14.199 23.373 23.373 0 01-7.11 12.24h.2zm89.54-21.081a23.148 23.148 0 01-6.65 6.938 22.482 22.482 0 01-8.81 3.574c-3.16.547-6.38.41-9.48-.402a22.617 22.617 0 01-8.5-4.312 23.323 23.323 0 01-6.07-7.478 23.83 23.83 0 01-2.58-9.36c-.22-3.271.24-6.552 1.33-9.632a23.621 23.621 0 015.03-8.248c.78 0 1.55.001 2.32.397 6 1.272 11.68 3.757 16.73 7.308 5.05 3.552 9.35 8.099 12.67 13.377a51.732 51.732 0 013.96 7.838h.05zm112.27 68.007h-118.26c9.44-7.412 16.57-17.489 20.52-28.997a64.227 64.227 0 001.69-35.792c-2.84-11.846-8.99-22.584-17.69-30.897-8.7-8.314-19.58-13.843-31.3-15.909a59.698 59.698 0 00-34.68 4.275c-10.91 4.856-20.2 12.872-26.73 23.064-6.54 10.192-10.03 22.119-10.06 34.318-.02 12.199 3.42 24.141 9.91 34.362a62.71 62.71 0 0014.22 15.576h-84.62c20.99-139.239 130.55-157.146 205.2-159.427H1780.97v19.246c0 78.771-86.17 140.181-160.38 140.181h.04zm69.44-.347c57.05-24.753 105.4-77.432 105.4-140.181v-19.048h45.55v19.048c.14 75.745-79.06 135.27-151 140.23l.05-.049z"/></g><defs><clipPath id="bgclip0_967_3314"><path fill="#fff" transform="translate(-10)" d="M0 0h1938v689H0z"/></clipPath></defs></svg>