<?xml version="1.0" encoding="utf-8"?><svg width="93" height="51" xmlns="http://www.w3.org/2000/svg" viewBox="0 0 93 51"><path fill-rule="evenodd" clip-rule="evenodd" d="M40.784 20.476c-.195-.188-.516-.351-1.027-.485v13.754l1.86 1.487-1.86-1.427v11.823a2.566 2.566 0 11-5.133 0V31.513h-1.026v14.115a2.562 2.562 0 01-2.566 2.566 2.566 2.566 0 01-2.567-2.566V25.142l-1.028-.788v7.159a2.05 2.05 0 01-2.053 2.053 2.053 2.053 0 01-2.053-2.053V21.204l-1.826-1.4-.034-.027a6.78 6.78 0 000 .156v11.58a3.913 3.913 0 005.134 3.719v10.396a4.426 4.426 0 007.506 3.179 4.426 4.426 0 007.506-3.179V35.232a3.913 3.913 0 005.133-3.719V19.708c0-.21-.017-.416-.05-.618-.31-2.522-2.082-4.517-4.29-5.822-1.565-.924-3.454-1.575-5.512-1.886a5.966 5.966 0 10-5.575 0c-2.07.313-3.97.969-5.54 1.902-2.216 1.316-3.989 3.331-4.273 5.875l1.821 1.456v-.694a4.695 4.695 0 010-.131v-.082c0-.107.008-.211.024-.314.375-3.551 5.046-6.359 10.754-6.359 5.686 0 10.343 2.786 10.75 6.317.02.116.03.235.03.356v11.805a2.053 2.053 0 11-4.105 0V22.76h-.002v-.03a2.186 2.186 0 01.002-.055v-2.2zm-13.347 3.421l1.028.822v-4.714c-.52.143-.84.317-1.028.518v3.374zm6.673-13.685a4.106 4.106 0 100-8.212 4.106 4.106 0 000 8.212z"/><path d="M41.617 35.232l-1.86-1.487v.06l1.86 1.427zM27.437 24.354l1.028.788v-.423l-1.028-.822v.457zM21.505 19.803l1.826 1.401v-.589L21.51 19.16l-.005.644z"/><path fill-rule="evenodd" clip-rule="evenodd" d="M79.867 27.97a.696.696 0 00-.693.652v7.523a1.392 1.392 0 01-2.783 0v-7.847a3.237 3.237 0 010-.11v-.045c0-.07.006-.14.016-.208.241-2.318 3.182-4.169 6.852-4.306.145-.006.29-.008.437-.008h.002c.147 0 .293.003.438.008 3.644.137 6.569 1.963 6.845 4.259a1.4 1.4 0 01.023.255v8.002a1.392 1.392 0 01-2.783 0v-5.933h-.002a1.315 1.315 0 01.002-.078v-1.47l-.003-.002a.692.692 0 00-.694-.693V45.711a1.74 1.74 0 01-3.48 0v-9.566h-.695v9.566a1.738 1.738 0 11-3.478 0V27.97h-.002-.002zm-1.856 11.418a3.251 3.251 0 01-3.48-3.243v-7.832a5.367 5.367 0 010-.14v-.03c0-.148.01-.294.03-.439.22-1.973 1.587-3.48 3.182-4.428.722-.43 1.535-.775 2.408-1.027a5.196 5.196 0 117.092 0c.86.249 1.66.588 2.374 1.008 1.586.934 2.948 2.412 3.203 4.355.029.174.044.352.044.531v8.002a3.251 3.251 0 01-3.48 3.243v6.323a3.6 3.6 0 01-5.687 2.933 3.6 3.6 0 01-5.686-2.933v-6.323zm6.065-17.622a3.337 3.337 0 10-.38.021h.002c.128 0 .254-.007.378-.02z"/><path fill-rule="evenodd" clip-rule="evenodd" d="M58.519 12.026a9.184 9.184 0 00-1.688.644c-3.292 1.6-5.334 4.755-6.197 6.734l-3.475 6.018a3.913 3.913 0 003.692 5.858l-.397 1.425c-.64 2.305.778 4.59 2.965 5.155v7.768a4.426 4.426 0 007.506 3.179 4.426 4.426 0 007.506-3.18V37.86c2.19-.563 3.61-2.849 2.968-5.155l-.395-1.422a3.913 3.913 0 003.655-5.86l-3.32-5.751c-.685-1.826-2.356-4.708-5.144-6.472a9.076 9.076 0 00-2.773-1.218 5.453 5.453 0 10-4.904.044zm6.666 2.736c-1.094-.728-2.451-1.173-3.926-1.21a8.074 8.074 0 00-.203-.003h-.002c-1.239 0-2.4.287-3.4.79-2.803 1.356-4.615 4.153-5.355 5.9l-3.53 6.113a2.053 2.053 0 003.557 2.053l2.422-4.196-2.502 8.995a2.31 2.31 0 002.225 2.928h.808v9.496a2.566 2.566 0 105.133 0v-9.496h1.026v9.496a2.562 2.562 0 002.566 2.566 2.566 2.566 0 002.567-2.566v-9.496h.811a2.31 2.31 0 002.226-2.928l-2.47-8.876 2.355 4.078a2.05 2.05 0 002.804.752 2.053 2.053 0 00.752-2.806l-3.401-5.89c-.555-1.565-2.04-4.174-4.463-5.7zm-.665-7.63a3.593 3.593 0 11-7.186 0 3.593 3.593 0 017.186 0zM7.266 25.105c.963-.543 2.224-.964 3.765-.964 3.19 0 5.068 1.801 5.652 2.76.129.121.242.262.335.423l2.676 4.635a1.835 1.835 0 11-3.179 1.836l-1.352-2.343 1.659 5.963c.275.99-.47 1.97-1.497 1.97h-.544v6.385a1.726 1.726 0 01-3.452 0v-6.385h-.69v6.385a1.725 1.725 0 11-3.452 0v-6.385h-.543a1.553 1.553 0 01-1.497-1.97l1.684-6.052-1.403 2.43a1.835 1.835 0 01-2.51.673 1.837 1.837 0 01-.672-2.51l2.64-4.572a1.842 1.842 0 01.332-.42h-.046a4.507 4.507 0 01.046-.071c.334-.496 1.023-1.211 2.048-1.788zm-3.7.92l.033-.054c.635-1.005 2.142-2.48 4.433-3.224a5.09 5.09 0 115.929-.015c2.092.677 3.495 1.988 4.181 3 .184.2.348.42.487.662l2.676 4.635a3.696 3.696 0 01-2.793 5.522l.101.366a3.416 3.416 0 01-1.973 4.066v4.787a3.585 3.585 0 01-5.656 2.927 3.585 3.585 0 01-5.656-2.927v-4.787a3.416 3.416 0 01-1.972-4.066l.1-.364a3.697 3.697 0 01-2.821-5.526l1.273-2.203h-.11l1.282-2.03.196-.34a3.71 3.71 0 01.29-.43zm10.65-7.423a3.23 3.23 0 11-6.46 0 3.23 3.23 0 016.46 0z"/></svg>