<?xml version="1.0" encoding="utf-8"?><svg width="1920" height="398" fill="none" xmlns="http://www.w3.org/2000/svg" viewBox="0 0 1920 398"><g clip-path="url(#bmclip0_967_1479)"><path fill="#fff" d="M0 0h1928v398H0z"/><g clip-path="url(#bmclip1_967_1479)"><path d="M1034.19 408.479a80.004 80.004 0 009.87-39.784 80.019 80.019 0 00-11.15-39.445 79.972 79.972 0 00-29.23-28.748 80.075 80.075 0 00-79.289 0 80.005 80.005 0 00-29.234 28.748 79.963 79.963 0 00-11.147 39.445 79.96 79.96 0 009.867 39.784h140.313z" fill="#F3BD48" stroke="#F3BD48" stroke-width=".25" stroke-miterlimit="10"/><path d="M964.044 372.017c11.965 0 21.664-9.693 21.664-21.65 0-11.958-9.699-21.651-21.664-21.651-11.964 0-21.663 9.693-21.663 21.651 0 11.957 9.699 21.65 21.663 21.65z" fill="#D8D6DF" stroke="#D8D6DF" stroke-width=".25" stroke-miterlimit="10"/><path d="M931.56 370.657h-22.8v13.189h22.8v-13.189z" fill="#8ACB78"/><path d="M921.246 375.629a15.317 15.317 0 01-10.774-4.531 15.295 15.295 0 01-4.433-10.809v-18.262h5.583v18.262a9.7 9.7 0 009.705 9.679h17.501v5.58l-17.582.081z" fill="#333"/><path d="M911.298 342.291v17.997a9.939 9.939 0 002.921 7.018 9.951 9.951 0 007.027 2.905h17.278v5.072h-17.237a15.016 15.016 0 01-15.025-14.995v-18.079h5.076m.508-.507h-6.091v18.586a15.514 15.514 0 004.556 10.963 15.536 15.536 0 0010.976 4.54h17.744v-6.088h-17.744a9.444 9.444 0 01-6.669-2.756 9.43 9.43 0 01-2.772-6.659v-18.586zM931.316 381.066h-22.293v5.58h22.293v-5.58z" fill="#333"/><path d="M931.053 381.31v5.073h-21.786v-5.073h21.786zm.507-.507h-22.8v6.087h22.8v-6.087z" fill="#333"/><path d="M934.362 373.092h-5.584v26.48h5.584v-26.48z" fill="#333"/><path d="M934.098 373.335v25.993h-5.076v-25.993h5.076zm.508-.507h-6.091v27.007h6.091v-27.007zM911.562 356.494h-5.583v43.098h5.583v-43.098z" fill="#333"/><path d="M911.298 356.738v42.61h-5.076v-42.61h5.076zm.508-.508h-6.091v43.605h6.091V356.23z" fill="#333"/><path d="M1018.96 370.657h-22.796v13.189h22.796v-13.189z" fill="#8ACB78"/><path d="M988.957 375.629v-5.58h17.523a9.691 9.691 0 006.84-2.841 9.651 9.651 0 002.84-6.838v-18.262h5.61v18.262a15.315 15.315 0 01-15.27 15.259h-17.543z" fill="#333"/><path d="M1021.48 342.291v17.997c0 3.977-1.58 7.791-4.39 10.603a15.016 15.016 0 01-10.61 4.392h-17.199v-5.072h17.259a9.93 9.93 0 009.93-9.923v-18.079h5.07m.51-.507h-6.09v18.586c0 2.497-.99 4.892-2.76 6.658a9.426 9.426 0 01-6.66 2.757h-17.767v6.088h17.767a15.529 15.529 0 0015.51-15.503v-18.586zM1018.7 381.066h-22.292v5.58h22.292v-5.58z" fill="#333"/><path d="M1018.44 381.31v5.073h-21.788v-5.073h21.788zm.51-.507h-22.805v6.087h22.805v-6.087z" fill="#333"/><path d="M998.947 373.092h-5.584v26.48h5.584v-26.48z" fill="#333"/><path d="M998.682 373.335v25.993h-5.076v-25.993h5.076zm.508-.507h-6.091v27.007h6.091v-27.007zM1021.75 356.494h-5.59v43.098h5.59v-43.098z" fill="#333"/><path d="M1021.48 356.738v42.61h-5.07v-42.61h5.07zm.51-.508h-6.09v43.605h6.09V356.23z" fill="#333"/><path d="M975.496 362.439h-22.801v13.189h22.801v-13.189z" fill="#8ACB78"/><path d="M991.231 361.283h-54.27v5.58h54.27v-5.58z" fill="#333"/><path d="M990.967 361.527v5.072h-53.763v-5.072h53.763zm.508-.507h-54.819v6.087h54.819v-6.087zM975.008 372.625h-21.825v5.58h21.825v-5.58z" fill="#333"/><path d="M974.745 372.869v5.073h-21.318v-5.073h21.318zm.507-.507h-22.333v6.087h22.333v-6.087z" fill="#333"/><path d="M978.054 364.327h-5.583v35.265h5.583v-35.265z" fill="#333"/><path d="M977.81 364.57v34.758h-5.076V364.57h5.076zm.507-.508h-6.09v35.773h6.09v-35.773zM955.253 364.327h-5.583v35.265h5.583v-35.265z" fill="#333"/><path d="M954.99 364.57v34.758h-5.076V364.57h5.076zm.507-.508h-6.091v35.773h6.091v-35.773z" fill="#333"/><path d="M970.826 355.338h-13.928v5.702h13.928v-5.702z" fill="#3DAE2B" stroke="#3DAE2B" stroke-width=".25" stroke-miterlimit="10"/><path d="M966.725 351.686c0-1.583-2.863-5.641-2.863-5.641s-2.883 4.058-2.883 5.641a2.882 2.882 0 004.824 1.879 2.877 2.877 0 00.922-1.879z" fill="#fff"/><path d="M965.243 352.538a1.72 1.72 0 00.149-1.8 1.721 1.721 0 00-1.539-.946 1.728 1.728 0 00-1.54.946 1.726 1.726 0 00.149 1.8 1.404 1.404 0 00.816 1.445 1.408 1.408 0 001.149 0 1.394 1.394 0 00.816-1.445z" fill="#F3BD48"/></g><path d="M82.264 269.984l-.59-2.029a19.57 19.57 0 01.184-9.395 16.736 16.736 0 015.813-8.797 16.756 16.756 0 019.922-3.58 16.249 16.249 0 0113.237 6.878l.102.142h.163a12.872 12.872 0 0111.102 2.298 12.844 12.844 0 014.977 10.181c.01.68-.045 1.359-.162 2.029l-.345 2.374-44.403-.101zm15.329-18.262a11.21 11.21 0 00-10.274 7.995 19.724 19.724 0 00-.507 4.362v.284h34.678v-.304a7.388 7.388 0 00-7.147-5.722 7.232 7.232 0 00-3.309.791l-2.559 1.299-1.218-2.597a10.722 10.722 0 00-9.603-6.027l-.061-.081zM743.264 269.984l-.589-2.029a19.57 19.57 0 01.183-9.395 16.737 16.737 0 015.813-8.797 16.755 16.755 0 019.922-3.58 16.249 16.249 0 0113.237 6.878l.102.142h.163a12.872 12.872 0 0111.102 2.298 12.844 12.844 0 014.977 10.181c.01.68-.045 1.359-.162 2.029l-.345 2.374-44.403-.101zm15.329-18.262a11.203 11.203 0 00-10.274 7.995 19.706 19.706 0 00-.507 4.362v.284h34.678v-.304a7.388 7.388 0 00-7.147-5.722 7.232 7.232 0 00-3.309.791l-2.559 1.299-1.218-2.597a10.722 10.722 0 00-9.603-6.027l-.061-.081z" fill="#E8EDF0"/><path d="M97.654 246.487a15.996 15.996 0 0113.034 6.757l.203.284h.325a12.501 12.501 0 013.127-.406 12.523 12.523 0 019.624 4.362 12.51 12.51 0 012.862 10.166l-.325 2.171H82.508l-.528-1.806c-.69-3.068-.62-6.258.202-9.293a16.418 16.418 0 0115.472-12.174m-11.025 18.261h35.246l-.142-.629a7.536 7.536 0 00-4.158-5.204 7.56 7.56 0 00-6.663.112l-2.315 1.176-1.116-2.353a10.903 10.903 0 00-9.827-6.209 11.43 11.43 0 00-10.517 8.116c-.33 1.452-.5 2.935-.508 4.423v.508m11.025-18.688a16.992 16.992 0 00-15.98 12.56 19.89 19.89 0 00-.181 9.536l.65 2.172h44.808l.386-2.598c.103-.671.157-1.349.162-2.029a13.14 13.14 0 00-5.083-10.383 13.158 13.158 0 00-11.321-2.359A16.528 16.528 0 0097.654 246v.061zm-10.517 18.261c.007-1.453.17-2.902.487-4.321a10.928 10.928 0 0110.03-7.772 10.38 10.38 0 019.36 5.925l1.339 2.821 2.802-1.421a6.971 6.971 0 013.188-.771 7.05 7.05 0 016.883 5.539h-34.09zM758.654 246.487a15.996 15.996 0 0113.034 6.757l.203.284h.325a12.501 12.501 0 013.127-.406 12.523 12.523 0 019.624 4.362 12.51 12.51 0 012.862 10.166l-.325 2.171h-43.996l-.528-1.806c-.69-3.068-.62-6.258.202-9.293a16.418 16.418 0 0115.472-12.174m-11.025 18.261h35.246l-.142-.629a7.536 7.536 0 00-4.158-5.204 7.56 7.56 0 00-6.663.112l-2.315 1.176-1.116-2.353a10.903 10.903 0 00-9.827-6.209 11.429 11.429 0 00-10.517 8.116 20.39 20.39 0 00-.508 4.423v.508m11.025-18.688a16.99 16.99 0 00-15.979 12.56 19.888 19.888 0 00-.183 9.536l.65 2.172h44.809l.386-2.598c.103-.671.157-1.349.162-2.029a13.14 13.14 0 00-5.083-10.383 13.158 13.158 0 00-11.321-2.359 16.528 16.528 0 00-13.441-6.96v.061zm-10.517 18.261c.007-1.453.17-2.902.487-4.321a10.919 10.919 0 0110.03-7.772 10.38 10.38 0 019.36 5.925l1.339 2.821 2.802-1.421a6.971 6.971 0 013.188-.771 7.05 7.05 0 016.883 5.539h-34.089zM798.305 295.2v-2.8a15.251 15.251 0 014.471-10.769 15.277 15.277 0 0110.776-4.47c.816.007 1.631.075 2.437.203h.202v-.203a22.045 22.045 0 0120.608-13.919 22.33 22.33 0 0118.679 10.145l.122.163h.182a17.164 17.164 0 015.198-.792 17.399 17.399 0 0113.216 6.044 17.368 17.368 0 014.001 13.963l-.365 2.394-79.527.041zm15.247-12.459a9.68 9.68 0 00-9.136 6.534l-.122.345h68.604v-.284a11.883 11.883 0 00-3.768-7.783 11.9 11.9 0 00-8.048-3.174 11.77 11.77 0 00-5.36 1.278l-2.558 1.299-1.239-2.597a16.639 16.639 0 00-25.884-5.436 16.62 16.62 0 00-5.261 8.54l-.751 3.084-2.964-1.136a9.536 9.536 0 00-3.513-.67zM340.305 295.2v-2.8a15.251 15.251 0 014.471-10.769 15.277 15.277 0 0110.776-4.47c.816.007 1.631.075 2.437.203h.202v-.203a22.045 22.045 0 0120.608-13.919 22.33 22.33 0 0118.679 10.145l.122.163h.182a17.164 17.164 0 015.198-.792 17.399 17.399 0 0113.216 6.044 17.368 17.368 0 014.001 13.963l-.365 2.394-79.527.041zm15.247-12.459a9.68 9.68 0 00-9.136 6.534l-.122.345h68.604v-.284a11.883 11.883 0 00-3.768-7.783 11.9 11.9 0 00-8.048-3.174 11.77 11.77 0 00-5.36 1.278l-2.558 1.299-1.239-2.597a16.639 16.639 0 00-25.884-5.436 16.62 16.62 0 00-5.261 8.54l-.751 3.084-2.964-1.136a9.536 9.536 0 00-3.513-.67z" fill="#E8EDF0"/><path d="M836.881 263.587a22.342 22.342 0 0118.475 10.145l.203.325.366-.101a16.954 16.954 0 015.137-.792 17.222 17.222 0 0112.133 5.04 17.202 17.202 0 015.043 12.126 17.507 17.507 0 01-.223 2.577l-.305 2.151h-79.182V292.4a15.012 15.012 0 014.407-10.584 15.034 15.034 0 0110.597-4.391c.802-.001 1.603.06 2.396.183h.406l.162-.386a21.798 21.798 0 0120.303-13.777m-17.054 20.697l-2.7-1.056a9.927 9.927 0 00-7.778.28 9.909 9.909 0 00-5.176 5.808l-.243.669h69.233v-.548a12.173 12.173 0 00-6.157-9.576 12.183 12.183 0 00-11.385-.305l-2.315 1.177-1.116-2.354a16.881 16.881 0 00-26.304-5.532 16.857 16.857 0 00-5.328 8.697l-.691 2.8m17.055-21.203a22.324 22.324 0 00-20.831 14.102 15.517 15.517 0 00-13.459 4.33A15.498 15.498 0 00798 292.38v3.043h80.096l.386-2.597a18.07 18.07 0 00.223-2.638 17.69 17.69 0 00-5.186-12.491 17.708 17.708 0 00-12.498-5.182 17.19 17.19 0 00-5.279.812 22.568 22.568 0 00-18.902-10.328zm-16.709 21.873l.832-3.368a16.366 16.366 0 0114.265-12.332 16.367 16.367 0 0116.413 9.288l1.34 2.821 2.802-1.421a11.582 11.582 0 0110.938.237 11.556 11.556 0 015.852 9.239h-67.974a9.433 9.433 0 013.441-4.598 9.447 9.447 0 015.472-1.753 9.314 9.314 0 013.39.629l3.229 1.258zM378.881 263.587a22.342 22.342 0 0118.475 10.145l.203.325.366-.101a16.954 16.954 0 015.137-.792 17.222 17.222 0 0112.133 5.04 17.202 17.202 0 015.043 12.126 17.507 17.507 0 01-.223 2.577l-.305 2.151h-79.182V292.4a15.012 15.012 0 014.407-10.584 15.034 15.034 0 0110.597-4.391c.802-.001 1.603.06 2.396.183h.406l.162-.386a21.798 21.798 0 0120.303-13.777m-17.054 20.697l-2.7-1.056a9.927 9.927 0 00-7.778.28 9.909 9.909 0 00-5.176 5.808l-.243.669h69.233v-.548a12.173 12.173 0 00-6.157-9.576 12.183 12.183 0 00-11.385-.305l-2.315 1.177-1.116-2.354a16.881 16.881 0 00-26.304-5.532 16.857 16.857 0 00-5.328 8.697l-.691 2.8m17.055-21.203a22.324 22.324 0 00-20.831 14.102 15.517 15.517 0 00-13.459 4.33A15.498 15.498 0 00340 292.38v3.043h80.096l.386-2.597a18.07 18.07 0 00.223-2.638 17.69 17.69 0 00-5.186-12.491 17.708 17.708 0 00-12.498-5.182 17.19 17.19 0 00-5.279.812 22.568 22.568 0 00-18.902-10.328zm-16.709 21.873l.832-3.368a16.366 16.366 0 0114.265-12.332 16.367 16.367 0 0116.413 9.288l1.34 2.821 2.802-1.421a11.582 11.582 0 0110.938.237 11.556 11.556 0 015.852 9.239h-67.974a9.433 9.433 0 013.441-4.598 9.447 9.447 0 015.472-1.753 9.314 9.314 0 013.39.629l3.229 1.258zM1643.23 270.007l.37-2.374c.14-.913.21-1.835.22-2.759 0-4.896-1.95-9.589-5.42-13.051a18.496 18.496 0 00-13.05-5.414c-1.92 0-3.83.301-5.65.893h-.2v-.162a23.779 23.779 0 00-8.56-8.026 23.783 23.783 0 00-11.36-2.952 23.397 23.397 0 00-13.3 4.062 23.392 23.392 0 00-8.65 10.893v.203h-.2a15.9 15.9 0 00-2.76-.244c-4.27.032-8.35 1.74-11.37 4.754a16.241 16.241 0 00-4.75 11.357v2.8l84.68.02zm-17.88-18.018a12.89 12.89 0 0112.87 12.175v.284h-73.91l.11-.345a10.45 10.45 0 013.84-5.39 10.5 10.5 0 016.31-2.016c1.3-.002 2.59.246 3.79.73l2.97 1.136.77-3.084a18.005 18.005 0 015.67-9.276 18.002 18.002 0 019.99-4.306c3.7-.369 7.41.415 10.64 2.244a17.898 17.898 0 017.4 7.97l1.24 2.597 2.56-1.298a12.635 12.635 0 015.75-1.421zM1074.65 295.2l-.37-2.374c-.13-.914-.21-1.836-.22-2.76a18.473 18.473 0 015.42-13.05 18.493 18.493 0 0113.06-5.414c1.91 0 3.82.301 5.64.892h.2v-.162a23.779 23.779 0 018.56-8.026 23.782 23.782 0 0111.36-2.951 23.377 23.377 0 0121.95 14.954v.203h.2c.91-.162 1.84-.243 2.76-.243 4.27.031 8.35 1.739 11.37 4.753a16.241 16.241 0 014.75 11.357v2.801l-84.68.02zm17.89-18.018c-3.3 0-6.47 1.262-8.86 3.526a12.901 12.901 0 00-4.02 8.648v.284h73.91l-.1-.345a10.522 10.522 0 00-3.85-5.389 10.502 10.502 0 00-6.31-2.017c-1.3-.002-2.59.246-3.79.731l-2.97 1.136-.77-3.084a17.939 17.939 0 00-5.67-9.277 17.973 17.973 0 00-28.03 5.908l-1.24 2.598-2.56-1.299a12.58 12.58 0 00-5.74-1.42z" fill="#E8EDF0"/><path d="M1599.48 236.487a23.156 23.156 0 00-13.16 4.017 23.086 23.086 0 00-8.54 10.775l-.15.386h-.4c-.9-.146-1.81-.221-2.72-.224-4.21 0-8.25 1.669-11.22 4.641a15.87 15.87 0 00-4.66 11.206v2.537h84.38l.32-2.151c.15-.899.23-1.808.23-2.719 0-4.843-1.93-9.488-5.35-12.913a18.298 18.298 0 00-12.93-5.349c-1.88-.007-3.76.287-5.56.873l-.38.122-.21-.325a23.573 23.573 0 00-8.47-7.934 23.592 23.592 0 00-11.24-2.922m17.6 17.856l2.34-1.177a12.86 12.86 0 015.92-1.42c3.36-.005 6.6 1.278 9.04 3.585a13.091 13.091 0 014.08 8.813v.527h-74.51l.2-.649a10.885 10.885 0 012.13-3.839c.97-1.12 2.16-2.03 3.49-2.673a10.791 10.791 0 018.59-.346l2.68 1.035.69-2.801a18.348 18.348 0 015.79-9.351 18.278 18.278 0 0120.88-2.082 18.26 18.26 0 017.52 8.025l1.12 2.353M1599.38 236c4.02.011 7.97 1.031 11.49 2.967a24.032 24.032 0 018.65 8.112 18.731 18.731 0 0116.7 2.739 18.709 18.709 0 017.66 15.076c0 .931-.07 1.861-.22 2.78l-.39 2.597H1558v-3.043a16.324 16.324 0 015.84-12.523 16.402 16.402 0 016.27-3.272c2.31-.62 4.72-.728 7.08-.316a23.66 23.66 0 018.74-10.995 23.711 23.711 0 0113.43-4.122h.02zm17.38 19.053l-1.34-2.82a17.686 17.686 0 00-7.3-7.854 17.726 17.726 0 00-25.94 11.161l-.83 3.368-3.23-1.258a10.32 10.32 0 00-4.13-.678c-1.4.059-2.79.404-4.05 1.017-1.27.612-2.4 1.477-3.32 2.543a10.143 10.143 0 00-2.04 3.652h73.27a12.629 12.629 0 00-3.93-8.462 12.648 12.648 0 00-8.68-3.449c-1.98-.006-3.93.46-5.7 1.36l-2.78 1.42zM1118.4 261.679a23.133 23.133 0 0121.71 14.792l.14.386h.41c.89-.146 1.8-.22 2.72-.223 4.2 0 8.24 1.669 11.22 4.64a15.861 15.861 0 014.65 11.207v2.536h-84.38l-.32-2.151c-.15-.898-.22-1.808-.22-2.719a18.26 18.26 0 0118.27-18.261 17.67 17.67 0 015.56.872l.39.122.2-.325a23.53 23.53 0 018.48-7.934c3.44-1.896 7.3-2.9 11.23-2.921m-17.6 17.856l-2.33-1.177a12.919 12.919 0 00-5.93-1.421 13.12 13.12 0 00-9.03 3.585 13.104 13.104 0 00-4.09 8.813v.528h74.51l-.2-.65a10.784 10.784 0 00-5.62-6.512 10.773 10.773 0 00-4.26-1.065c-1.48-.06-2.95.185-4.33.719l-2.68 1.035-.69-2.8a18.215 18.215 0 00-5.79-9.352 18.25 18.25 0 00-10.11-4.334 18.27 18.27 0 00-18.29 10.277l-1.12 2.354m17.6-18.364a23.979 23.979 0 00-20.14 11.079 18.698 18.698 0 00-8.67-.623c-2.9.475-5.65 1.627-8.02 3.362a18.68 18.68 0 00-7.67 15.077c0 .931.07 1.86.22 2.779l.39 2.598h85.27v-3.044c0-2.387-.52-4.744-1.53-6.908a16.46 16.46 0 00-4.3-5.615 16.374 16.374 0 00-13.35-3.588 23.778 23.778 0 00-8.74-10.994 23.728 23.728 0 00-13.43-4.123h-.03zm-17.37 19.054l1.33-2.821a17.747 17.747 0 0117.79-10.068c3.64.363 7.08 1.843 9.85 4.238a17.698 17.698 0 015.6 9.137l.83 3.369 3.23-1.258a10.33 10.33 0 0111.51 2.881 10.288 10.288 0 012.03 3.652h-73.27a12.626 12.626 0 013.93-8.461 12.648 12.648 0 018.68-3.449c1.98-.006 3.94.46 5.7 1.359l2.79 1.421z" fill="#E8EDF0"/><path fill-rule="evenodd" clip-rule="evenodd" d="M673.414 397.999a.523.523 0 01-.056 0l-27.667-.063a.525.525 0 00.524-.524V373.59a.523.523 0 00-.524-.524h-20.446A15.307 15.307 0 01610 357.716v-7.36a15.265 15.265 0 0113.547-15.245.576.576 0 00.377-.231.582.582 0 000-.419 14.906 14.906 0 01-.419-3.481v-7.382a15.431 15.431 0 0115.036-15.329.492.492 0 00.225-.055.493.493 0 00.173-.154.482.482 0 000-.441 15.605 15.605 0 01-.461-3.837 17.363 17.363 0 0117.803-16.776h6.417a17.382 17.382 0 0117.825 16.776 16.815 16.815 0 01-.462 3.837.483.483 0 000 .441.547.547 0 00.399.209 15.437 15.437 0 0115.035 15.329v7.382a14.906 14.906 0 01-.419 3.481.582.582 0 000 .419.564.564 0 00.377.231A15.269 15.269 0 01709 350.356v7.36a15.307 15.307 0 01-15.245 15.35h-20.446a.522.522 0 00-.524.524v23.885a.602.602 0 00.573.524h.056zm-7.116-.216a.526.526 0 00.154-.371v-30.658h27.261a9.015 9.015 0 008.954-9.059v-7.36a9.016 9.016 0 00-8.954-9.059h-10.087l3.67-5.012a8.825 8.825 0 001.782-5.305v-7.382a9.058 9.058 0 00-9.059-9.038h-11.491l3.586-4.991a9.86 9.86 0 001.908-5.787 11.096 11.096 0 00-11.534-10.485h-6.417a11.07 11.07 0 00-11.512 10.485 9.834 9.834 0 001.887 5.787l3.586 4.991h-11.491a9.062 9.062 0 00-9.06 9.038v7.382a8.974 8.974 0 001.783 5.305l3.67 5.012h-10.087a9.014 9.014 0 00-8.954 9.059v7.36a9.016 9.016 0 008.954 9.059h27.261v30.658a.522.522 0 00.524.524h13.295a.525.525 0 00.371-.153zM1447.7 398.879v-33.02h15.3l-32.92-52.445h-22.21v-12.103h-17.94v12.103h-40.85l-12.7 20.373c-8.97-1.426-17.15-6.151-23.05-13.313h21.4v-7.06h-2.32c-18.3 0-32.09-16.943-32.09-39.414h-6.81c0 22.471-13.77 39.414-32.07 39.414v7.06h19.02c-3.64 4.428-8.18 7.969-13.29 10.371a36.996 36.996 0 01-16.28 3.527v7.06h23.03c-10.07 11.074-22.15 17.286-33.92 17.286v7.06h46.68v33.02l6.68.004v-40.003h-29.51c7.8-4.814 14.61-11.159 20.07-18.678l4.24-5.668h-12.95c5.99-3.968 11.05-9.283 14.8-15.552l3.31-5.406h-10.74c6.51-4.994 11.47-11.851 14.28-19.728 2.82 7.875 7.78 14.73 14.29 19.728h-10.73l3.3 5.406c3.75 6.269 8.81 11.584 14.81 15.552h-12.94l4.24 5.668a74.988 74.988 0 0013.77 14.301l-2.72 4.377h-20.5v40.006l6.81.004v-32.95h26.31v32.963l6.81.003v-35.407l.66-1.049 2.2-3.53.88-1.412 15.89-25.516 16.78 26.928 2.2 3.53.64 1.049v35.427l6.87.003v-33.03h54.46v33.057l6.81.004zm-94.75-78.324h-.11l-9.96 15.874-3.17 5.083-6.81 10.933-3.7 5.93-.27.424h6.19l2.41-3.873 18.42-29.571-3-4.8zm37.04 10.59v-10.59h-28.94l.95 1.553 1.94 3.247 20.88 33.444h65.43l-23.83-38.325h-18.5v10.671h-17.93zm4.86-24.67v19.708h8.21v-19.708h-8.21zm-67.57 41.996l4.34-6.959h-11.75a62.322 62.322 0 007.41 6.959z" fill="#E8EDF0"/><path fill-rule="evenodd" clip-rule="evenodd" d="M1435.06 371.85h-17.93v21.26h17.93v-21.26zm-13.07 16.137h8.21v-11.175h-8.21v11.175zM1392.21 393.029h17.95v-21.26h-17.95v21.26zm13.09-16.136h-8.23l-.06 11.174h8.29v-11.174zM1355.83 398.833V399h8.23v-.163l4.86.002v.04h10.64v-.034l-10.64-.006v-27.11h-17.95v27.102l-10.66-.006v.054h10.66v-.048l4.86.002zm0 0v-22.021h8.23v22.025l-8.23-.004zm-22.33.046v-.057l-26.31-.013v.07h26.31zm-33.12 0v-.074l-7.02-.003v.077h7.02zm140.51 0v-.004l-54.46-.027v.031h54.46zM364.703 398.879v-33.02H380l-32.92-52.445h-22.214v-12.103h-17.934v12.103h-40.848l-12.702 20.373c-8.975-1.426-17.156-6.151-23.05-13.313h21.397v-7.06h-2.315c-18.304 0-32.095-16.943-32.095-39.414h-6.808c0 22.471-13.772 39.414-32.075 39.414v7.06h19.023c-3.64 4.428-8.177 7.969-13.287 10.371a36.992 36.992 0 01-16.279 3.527v7.06h23.03c-10.075 11.074-22.155 17.286-33.923 17.286v7.06h46.684v33.02l6.671.004v-40.003h-29.507c7.798-4.814 14.616-11.159 20.073-18.678l4.241-5.668h-12.955c5.997-3.968 11.056-9.283 14.803-15.552l3.307-5.406h-10.738c6.51-4.994 11.472-11.851 14.278-19.728 2.819 7.875 7.786 14.73 14.296 19.728h-10.737l3.307 5.406c3.747 6.269 8.806 11.584 14.803 15.552H222.59l4.241 5.668a74.786 74.786 0 0013.772 14.301l-2.724 4.377h-20.502v40.006l6.808.004v-32.95h26.318v32.963l6.808.003v-35.407l.662-1.049 2.198-3.53.875-1.412 15.892-25.516 16.786 26.928 2.199 3.53.641 1.049v35.427l6.867.003v-33.03h54.464v33.057l6.808.004zm-94.748-78.324h-.117l-9.959 15.874-3.171 5.083-6.808 10.933-3.695 5.93-.273.424h6.186l2.412-3.873 18.42-29.571-2.995-4.8zm37.035 10.59v-10.59H278.047l.953 1.553 1.945 3.247 20.871 33.444h65.435l-23.828-38.325h-18.498v10.671H306.99zm4.863-24.67v19.708h8.209v-19.708h-8.209zm-67.574 41.996l4.337-6.959h-11.748a63.188 63.188 0 007.411 6.959z" fill="#E8EDF0"/><path fill-rule="evenodd" clip-rule="evenodd" d="M352.059 371.85h-17.934v21.26h17.934v-21.26zm-13.071 16.137h8.209v-11.175h-8.209v11.175zM309.208 393.029h17.954v-21.26h-17.954v21.26zm13.091-16.136h-8.228l-.059 11.174h8.287v-11.174zM272.834 398.833V399h8.228v-.163l4.862.002v.04h10.64v-.034l-10.64-.006v-27.11h-17.953v27.102l-10.66-.006v.054h10.66v-.048l4.863.002zm0 0v-22.021h8.228v22.025l-8.228-.004zm-22.331.046v-.057l-26.318-.013v.07h26.318zm-33.126 0v-.074l-7.022-.003v.077h7.022zm140.518 0v-.004l-54.464-.027v.031h54.464z" fill="#E8EDF0"/><path fill="#E8EDF0" d="M1662 392h93v6h-93z"/><path fill-rule="evenodd" clip-rule="evenodd" d="M1723.41 440.999a.417.417 0 01-.05 0l-27.67-.063c.14 0 .27-.055.37-.153.1-.098.16-.232.16-.371V416.59a.522.522 0 00-.16-.37.521.521 0 00-.37-.154h-20.44a15.31 15.31 0 01-15.25-15.35v-7.36a15.26 15.26 0 013.85-10.217 15.288 15.288 0 019.7-5.028.639.639 0 00.21-.077c.06-.04.12-.092.16-.154a.51.51 0 000-.419c-.27-1.14-.41-2.309-.41-3.481v-7.382c.02-4.007 1.6-7.847 4.41-10.707a15.435 15.435 0 0110.62-4.622c.08 0 .16-.019.23-.055a.53.53 0 00.17-.154.553.553 0 00.05-.22.554.554 0 00-.05-.221 15.508 15.508 0 01-.46-3.837c.15-4.58 2.11-8.913 5.44-12.056a17.379 17.379 0 0112.36-4.72h6.42a17.382 17.382 0 0117.82 16.776c0 1.292-.16 2.58-.46 3.837a.554.554 0 00-.05.221c0 .076.02.152.05.22a.568.568 0 00.4.209c4.01.104 7.81 1.761 10.62 4.622 2.81 2.86 4.39 6.7 4.42 10.707v7.382a15.692 15.692 0 01-.42 3.481.51.51 0 000 .419c.04.062.1.114.16.154.07.039.14.066.21.077 3.74.424 7.2 2.215 9.7 5.028a15.26 15.26 0 013.85 10.217v7.36a15.31 15.31 0 01-15.25 15.35h-20.44c-.14 0-.27.055-.37.154a.522.522 0 00-.16.37v23.885c.03.15.1.287.22.384.1.085.23.134.36.14h.05zm-7.11-.216c.1-.098.15-.232.15-.371v-30.658h27.26a9.014 9.014 0 006.35-2.678 9.021 9.021 0 002.61-6.381v-7.36a9.021 9.021 0 00-2.61-6.381 9.014 9.014 0 00-6.35-2.678h-10.08l3.67-5.012a8.83 8.83 0 001.78-5.305v-7.382a9.07 9.07 0 00-2.66-6.392 9.066 9.066 0 00-6.4-2.646h-11.49l3.58-4.991a9.807 9.807 0 001.91-5.787 11.096 11.096 0 00-3.61-7.61 11.108 11.108 0 00-7.92-2.875h-6.42c-2.91-.12-5.75.914-7.91 2.877a11.084 11.084 0 00-3.6 7.608c0 2.08.66 4.106 1.89 5.787l3.58 4.991h-11.49c-2.4 0-4.7.952-6.4 2.646a9.07 9.07 0 00-2.66 6.392v7.382a8.978 8.978 0 001.78 5.305l3.67 5.012h-10.08c-2.39.016-4.67.98-6.35 2.678a9.021 9.021 0 00-2.61 6.381v7.36a9.021 9.021 0 002.61 6.381 9.014 9.014 0 006.35 2.678h27.26v30.658a.514.514 0 00.52.524h13.3c.14 0 .27-.055.37-.153z" fill="#E8EDF0"/></g><defs><clipPath id="bmclip0_967_1479"><path fill="#fff" d="M0 0h1928v398H0z"/></clipPath><clipPath id="bmclip1_967_1479"><path fill="#fff" transform="translate(883 290)" d="M0 0h161v117H0z"/></clipPath></defs></svg>