<?xml version="1.0" encoding="utf-8"?><svg width="221" height="442" fill="none" xmlns="http://www.w3.org/2000/svg" viewBox="0 0 221 442"><rect width="221" height="442" rx="20" fill="#FF5100"/><g clip-path="url(#bpclip0_969_11711)"><path d="M147.156 65.25h-6.119a16.43 16.43 0 00-7.341-5.284 16.399 16.399 0 00-16.987 3.683 16.483 16.483 0 00-4.505 7.853 16.213 16.213 0 00-5.808-8.564 16.151 16.151 0 00-9.796-3.293H80.5v16.18a16.179 16.179 0 001.575 6.99 16.142 16.142 0 004.438 5.62 25.789 25.789 0 007.633 17.87 25.677 25.677 0 0017.919 7.438 25.679 25.679 0 0018.005-7.228 25.782 25.782 0 007.84-17.778 16.343 16.343 0 005.852-7.998 16.381 16.381 0 00.162-9.915l1.503-2.531 1.729-3.044z" fill="#2D2A26"/><path d="M100.54 77.723l-4.134-4.143v-9.31h.196c1.328.005 2.645.239 3.893.693l.045 12.76zm-15.438-11.45v6.464h6.449l-6.45-6.463zm8.493-2.003h-6.479l6.48 6.463V64.27zm.827 11.314h-9.32v.241c.005 1.336.24 2.66.691 3.917h12.748l-4.12-4.158zm-7.096 6.99a11.457 11.457 0 0012.31 4.432c1.5-.402 2.901-1.105 4.121-2.066l-2.36-2.366h-14.07zm16.086-16.12v14.117l2.33 2.365a11.566 11.566 0 002.318-8.744 11.562 11.562 0 00-4.679-7.738h.031z" fill="#E0E0E0"/><path d="M128.17 87.35c-2.343 0-4.633-.696-6.581-2a11.87 11.87 0 01-4.363-5.328 11.893 11.893 0 012.568-12.938 11.822 11.822 0 0112.909-2.573 11.853 11.853 0 015.317 4.372 11.895 11.895 0 011.996 6.596 11.898 11.898 0 01-3.474 8.39 11.848 11.848 0 01-8.372 3.481zm-15.92 21.694a21.12 21.12 0 01-13.73-5.099 21.205 21.205 0 01-7.135-12.813 16.143 16.143 0 0012.925-1.072 16.215 16.215 0 007.985-10.242 16.509 16.509 0 002.956 5.882 16.424 16.424 0 0017.835 5.522 21.198 21.198 0 01-7.147 12.752 21.106 21.106 0 01-13.689 5.07z" fill="#FF5100"/><path d="M133.7 68.202a4.428 4.428 0 00-4.678 1.566 4.45 4.45 0 001.536 6.702 4.425 4.425 0 004.891-.637 4.447 4.447 0 00-1.749-7.631z" fill="#2D2A26"/><path d="M101.736 126.473a12.28 12.28 0 016.31-1.741v6.286a6.265 6.265 0 00-4.462 1.875 6.45 6.45 0 00-1.848 4.526v12.227h-6.133V125.193h4.947l1.262 1.28h-.076zm72.895 10.729l8.582 12.431h-7.282l-4.934-7.169-4.948 7.169h-7.269l8.569-12.431-8.279-12.009h7.27l4.657 6.734 4.644-6.734h7.269l-8.279 12.009zm-87.345-12.009h-.833l-1.262 1.28a12.292 12.292 0 00-6.31-1.741 12.404 12.404 0 00-8.835 3.712 12.769 12.769 0 00-3.66 8.963c0 3.362 1.316 6.588 3.659 8.967a12.415 12.415 0 008.835 3.72c2.22.002 4.398-.6 6.31-1.741l1.263 1.28H91.4v-24.44h-4.114zm-8.393 18.602a6.263 6.263 0 01-4.462-1.875 6.446 6.446 0 01-1.848-4.526 6.45 6.45 0 011.848-4.527 6.267 6.267 0 014.462-1.875c1.674 0 3.279.675 4.462 1.875a6.479 6.479 0 011.368 6.976 6.4 6.4 0 01-1.368 2.077 6.3 6.3 0 01-2.047 1.388 6.227 6.227 0 01-2.415.487zm48.26-17.335a12.28 12.28 0 00-6.31-1.741 12.418 12.418 0 00-8.839 3.711 12.787 12.787 0 00-3.668 8.964c0 1.666.324 3.316.952 4.855a12.702 12.702 0 002.712 4.116 12.505 12.505 0 004.057 2.751c1.518.637 3.144.965 4.786.965a12.28 12.28 0 006.31-1.741l1.262 1.281h4.948V116h-6.21v10.46zm-6.31 17.335a6.265 6.265 0 01-4.462-1.875 6.448 6.448 0 01-1.848-4.526c0-1.698.665-3.326 1.848-4.527a6.27 6.27 0 014.462-1.875c1.674 0 3.279.675 4.462 1.875a6.48 6.48 0 011.368 6.976 6.399 6.399 0 01-1.368 2.077 6.297 6.297 0 01-2.047 1.388 6.228 6.228 0 01-2.415.487zm27.614 0a6.244 6.244 0 01-3.282-.937 6.375 6.375 0 01-2.322-2.532h17.77a12.781 12.781 0 00-3.327-11.883 12.42 12.42 0 00-8.839-3.711 12.404 12.404 0 00-8.835 3.712 12.77 12.77 0 00-3.66 8.963c-.002.475.027.95.089 1.421a1.883 1.883 0 000 .281c.05.384.113.756.189 1.114v.103a12.708 12.708 0 004.404 7.025 12.395 12.395 0 007.75 2.743 12.284 12.284 0 004.782-.961 12.43 12.43 0 004.052-2.752l-4.379-4.455a6.266 6.266 0 01-4.38 1.869h-.012zm0-12.803a6.249 6.249 0 013.283.943 6.356 6.356 0 012.32 2.54h-11.207a6.366 6.366 0 012.33-2.529 6.245 6.245 0 013.286-.928l-.012-.026zm-88.545-5.825h-.846l-1.262 1.28a12.261 12.261 0 00-6.31-1.741 12.404 12.404 0 00-8.834 3.712 12.769 12.769 0 00-3.66 8.963c0 3.363 1.316 6.588 3.659 8.967a12.42 12.42 0 008.835 3.721c2.22.003 4.399-.598 6.31-1.742v1.754a6.45 6.45 0 01-1.848 4.527 6.263 6.263 0 01-4.462 1.875 6.245 6.245 0 01-3.546-1.121 6.387 6.387 0 01-2.31-2.95l-4.58 4.647a12.538 12.538 0 004.506 4.194 12.327 12.327 0 005.93 1.516 12.401 12.401 0 008.704-3.575 12.762 12.762 0 003.79-8.716v-25.285h-4.101l.025-.026zm-2.095 12.214a6.446 6.446 0 01-1.848 4.526 6.263 6.263 0 01-4.462 1.875 6.263 6.263 0 01-4.462-1.875 6.447 6.447 0 01-1.848-4.526 6.45 6.45 0 011.848-4.527 6.267 6.267 0 014.462-1.875c1.673 0 3.278.675 4.462 1.875a6.45 6.45 0 011.848 4.527z" fill="#1D1D1B"/><path d="M185.32 131.607a5.624 5.624 0 00-2.194.434 5.702 5.702 0 00-1.861 1.256 5.843 5.843 0 00-1.675 4.11 5.862 5.862 0 00.429 2.228 5.786 5.786 0 001.242 1.889 5.681 5.681 0 001.862 1.26 5.621 5.621 0 002.197.435 5.619 5.619 0 002.192-.439 5.706 5.706 0 001.858-1.26 5.792 5.792 0 001.238-1.888 5.866 5.866 0 00.429-2.225 5.869 5.869 0 00-.432-2.222 5.805 5.805 0 00-1.239-1.883 5.694 5.694 0 00-1.857-1.257 5.621 5.621 0 00-2.189-.438zm0 10.409a4.377 4.377 0 01-3.128-1.38 4.508 4.508 0 01-1.226-3.229 4.503 4.503 0 011.226-3.229c.405-.429.89-.772 1.427-1.009a4.358 4.358 0 011.701-.371 4.398 4.398 0 013.119 1.384 4.501 4.501 0 011.222 3.225 4.547 4.547 0 01-.292 1.736 4.49 4.49 0 01-.93 1.488 4.374 4.374 0 01-3.119 1.385zm1.943-4.558c.224-.337.343-.734.341-1.14a2.053 2.053 0 00-.568-1.459 1.838 1.838 0 00-1.388-.615h-2.386v6.222h1.262v-2.112h.72l1.148 2.112h1.464l-1.262-2.368a1.97 1.97 0 00.669-.64zm-1.161-.589a.61.61 0 01-.454.217h-1.073v-1.523h1.073a.597.597 0 01.454.218.77.77 0 01.189.537.784.784 0 01-.189.551z" fill="#1D1D1B"/><path d="M122.368 161.607l4.538 5.547h-3.288l-3.99-4.977v4.977H116.8v-10.962h2.828v4.823l3.77-4.823h3.377l-4.407 5.415zm6.673-5.415h8.682v10.962h-2.828v-8.243h-3.026v3.661c0 3.376-1.542 4.903-4.626 4.582v-2.653c.585.146 1.031.044 1.338-.307.307-.351.46-.942.46-1.776v-6.226zm21.899 6.643h-8.265c.366 1.374 1.396 2.061 3.091 2.061 1.082 0 1.9-.366 2.456-1.096l2.28 1.315c-1.082 1.564-2.675 2.346-4.78 2.346-1.812 0-3.266-.548-4.362-1.644-1.096-1.097-1.644-2.478-1.644-4.144 0-1.637.54-3.011 1.622-4.121 1.067-1.111 2.455-1.667 4.165-1.667 1.623 0 2.945.556 3.968 1.667 1.053 1.11 1.579 2.484 1.579 4.121 0 .307-.037.694-.11 1.162zm-8.309-2.192h5.591c-.161-.716-.49-1.265-.987-1.645-.482-.38-1.059-.57-1.732-.57-.76 0-1.388.198-1.885.592-.497.38-.826.921-.987 1.623zm25.739-4.451v8.309h1.447v5.591h-2.762v-2.938h-14.031v-10.962h2.828v8.309h3.42v-8.309h2.828v8.309h3.442v-8.309h2.828zm6 6.226l5.151-6.226h2.105v10.962h-2.762v-6.226l-5.152 6.226h-2.105v-10.962h2.763v6.226z" fill="#F2F2F2"/></g><g clip-path="url(#bpclip1_969_11711)"><path d="M138.663 327.159c-16.718 0-28.384 11.205-28.384 27.251v3.441h-.756c-7.105 0-13.026-5.332-16.642-9.605h10.507v-4.411c-9.801 0-18.406-10.74-18.406-22.966h-4.41c0 12.226-8.591 22.953-18.393 22.966h-2.04c-.152-.076-.278-.164-.429-.24a7.937 7.937 0 00.252-1.966v-3.504c0-3.908-2.834-7.172-6.55-7.853.1-.504.15-1.021.15-1.538 0-4.79-4.283-8.697-9.55-8.697h-2.859c-5.266 0-9.55 3.907-9.55 8.697 0 .492.038.971.127 1.437a7.989 7.989 0 00-7.257 7.954v3.504c0 .441.025.882.1 1.311a7.988 7.988 0 00-6.588 7.865v3.491c0 4.412 3.578 7.992 7.975 7.992h9.826v10.222c-14.727 1.525-24.717 12.202-24.717 27.037v5.534H1.973a33.931 33.931 0 00-15.823 3.882 34.492 34.492 0 00-12.586 11.231h-39.785c-2.242-30.34-29.177-30.34-39.52-30.34h-84.988c-2.507 0-6.16 0-10.28.442v-54.818c0-12.038-11.741-21.832-23.772-21.832h-8.87c-8.768 0-16.339 5.206-19.804 12.681-.138.277-.252.554-.365.832h-12.397V442h504.96V327.159h-100.08zm78.171-24.441a9.993 9.993 0 00.139-1.676c0-6.164-5.027-11.193-11.187-11.193a11.09 11.09 0 00-3.099.441c-2.595-3.883-7.005-6.29-11.742-6.29a14.074 14.074 0 00-13.001 8.622 11.527 11.527 0 00-1.323-.089c-5.43 0-9.852 4.425-9.852 9.857v2.206h49.788l.277-1.878zm-187.586 1.525c5.43 0 9.852-4.462 9.852-9.945 0-5.483-4.422-9.945-9.852-9.945-5.43 0-9.852 4.462-9.852 9.945 0 5.483 4.422 9.945 9.852 9.945z" fill="#E1251B"/><path d="M205.786 289.849a11.09 11.09 0 00-3.099.441c-2.595-3.883-7.005-6.29-11.742-6.29a14.074 14.074 0 00-13.001 8.622 11.527 11.527 0 00-1.323-.089c-5.43 0-9.852 4.425-9.852 9.857v2.206h49.788l.277-1.878a9.993 9.993 0 00.139-1.676c0-6.164-5.027-11.193-11.187-11.193zm-34.141 10.335c.857-1.903 2.759-3.239 4.976-3.239.668 0 1.323.126 1.965.378l2.344.908.592-2.433a9.69 9.69 0 019.423-7.386 9.764 9.764 0 018.781 5.558l.97 2.055 2.016-1.021a6.737 6.737 0 013.074-.744c3.439 0 6.299 2.584 6.727 5.924h-40.868zm38.424 42.869V331.57h28.674v-4.411h-100.08c-16.718 0-28.384 11.205-28.384 27.251v3.441h-.756c-7.105 0-13.026-5.332-16.642-9.605h10.507v-4.411c-9.801 0-18.406-10.74-18.406-22.966h-4.41c0 12.226-8.591 22.953-18.393 22.966h-2.04c-.152-.076-.278-.164-.429-.24a7.937 7.937 0 00.252-1.966v-3.504c0-3.908-2.834-7.172-6.55-7.853.1-.504.15-1.021.15-1.538 0-4.79-4.283-8.697-9.55-8.697h-2.859c-5.266 0-9.55 3.907-9.55 8.697 0 .492.038.971.127 1.437a7.989 7.989 0 00-7.257 7.954v3.504c0 .441.025.882.1 1.311a7.988 7.988 0 00-6.588 7.865v3.491c0 4.412 3.578 7.992 7.975 7.992h9.826v10.222c-14.727 1.525-24.717 12.202-24.717 27.037v5.534H1.973a33.931 33.931 0 00-15.823 3.882 34.492 34.492 0 00-12.586 11.231h-39.785c-2.242-30.34-29.177-30.34-39.52-30.34h-84.988c-2.507 0-6.16 0-10.28.442-.718.075-1.461.163-2.204.264-.731.101-1.462.227-2.205.366-8.945 1.613-18.809 5.71-23.584 16.033v-79.8h-37.215v4.411h32.806v40.726h-32.806v4.412h32.68V442h5.581v-10.714c0-4.336 0-7.739.012-7.954.341-19.285 11.654-25.776 22.526-27.957a48.689 48.689 0 012.205-.391 45.772 45.772 0 012.204-.289c3.893-.429 7.521-.429 10.28-.429h84.988c10.847 0 32.969 0 35.085 25.928h-101.15c-10.205 0-18.532 4.172-23.471 11.092-2.192 3.063-3.716 6.681-4.434 10.714h4.51c.932-4.223 2.948-7.865 5.808-10.714 4.245-4.21 10.355-6.68 17.587-6.68h142.838a33.623 33.623 0 00-2.369 6.68 33.493 33.493 0 00-.97 8.092V442h4.41v-2.622c0-2.798.39-5.508 1.108-8.092a29.437 29.437 0 012.432-6.012c3.15 2.079 6.777 3.327 10.507 3.592.503.05 1.007.063 1.524.063 4.649 0 9.222-1.538 12.989-4.323.126-.101.252-.177.378-.265.113.088.252.164.365.265a22.232 22.232 0 009.663 4.058c.73.114 1.461.177 2.204.215.139.012.29.012.429.025v.025h.705c.353 0 .718-.025 1.071-.05a21.998 21.998 0 0011.918-4.273c.126-.101.252-.177.378-.265.113.088.24.164.365.265 3.78 2.785 8.353 4.323 12.989 4.323 1.612 0 3.2-.202 4.762-.555a22.751 22.751 0 002.205-.605 21.657 21.657 0 002.204-.895 22.66 22.66 0 004.196-2.533c3.842 2.962 8.566 4.588 13.366 4.588h.706v-.025c4.548-.152 8.995-1.752 12.66-4.563 3.843 2.962 8.568 4.588 13.367 4.588 4.8 0 9.512-1.626 13.367-4.588a20.694 20.694 0 002.318 1.538c0 .012.013.012.013.012.718.416 1.436.807 2.192 1.135 0 .012.012.012.012.012.719.315 1.449.593 2.193.832h.012a21.493 21.493 0 006.614 1.059c3.225 0 6.4-.744 9.298-2.118.012 0 .037 0 .05-.025V442h4.409v-15.882h12.989V442h4.409v-20.294h-10.305c4.989-3.844 8.97-9.529 9.613-14.129l.34-2.509h-4.989c3.099-2.659 5.644-6.227 7.332-9.857 1.663 3.643 4.183 7.198 7.269 9.857h-5.027l.555 2.647c.97 4.639 5.001 10.21 9.864 13.991h-10.57l-.05 12.139-.025 4.411-.026 3.744h4.41l.025-3.744.025-4.411.038-7.727h23.722V442h4.41v-20.294h-10.293c4.989-3.844 8.97-9.529 9.6-14.129l.353-2.509h-4.989c3.086-2.659 5.644-6.227 7.332-9.857 1.663 3.643 4.182 7.198 7.269 9.857h-5.027l.555 2.647c.97 4.639 4.989 10.21 9.864 13.991h-10.57l-.063 12.139-.025 4.411V442h4.397v-3.744l.037-4.411.038-7.727h41.184v-4.412h-24.365c-5.203 0-12.485-6.63-15.219-12.226h9.89v-4.412c-8.605 0-15.723-12.378-15.723-18.693h-4.409c0 6.315-7.118 18.693-15.71 18.693l-.781.013c-8.605-.013-15.71-12.391-15.71-18.706h-4.409c0 6.315-7.118 18.693-15.723 18.693l-1.562.013v-3.87c0-13.789 15.332-24.503 28.522-24.503h75.199v-4.412h-45.379c.013-.126.013-.265.013-.403 0-.631-.013-1.236-.051-1.866 9.55-6.075 16.743-15.768 16.743-26.974zm-40.087 66.427l8.529.012 4.749-.012c-1.738 3.92-6.034 8.47-10.343 10.752-4.17-2.269-8.428-6.769-10.381-10.752h7.446zm-34.91.012h4.183l7.383-.012c-1.903 4.298-6.854 9.34-11.566 11.344v-11.332zm-24.793-47.229v10.033H88.787v-10.033h21.492zm-31.344-14.975l2.381-3.453h-7.093c3.654-2.862 6.652-6.92 8.554-11.635 1.903 4.715 4.901 8.773 8.555 11.635h-7.093l2.38 3.453c1.777 2.597 5.317 7.16 10.18 10.563H84.377v14.445h-3.2v-14.445H68.756c4.863-3.403 8.403-7.966 10.179-10.563zm-6.261.958c-2.117 2.496-5.027 5.357-8.491 7.298.063-.403.113-.819.113-1.248v-3.491c0-.895-.164-1.752-.441-2.559h8.819zm4.094 14.017v10.033H49.984v-10.008h6.325c.113 0 .227-.013.34-.025h20.12zm-50.808-4.387a3.574 3.574 0 01-3.566-3.58v-3.491c0-1.966 1.6-3.567 3.566-3.567h6.185l-2.57-3.517a3.56 3.56 0 01-.692-2.092v-3.504c0-1.967 1.6-3.568 3.565-3.568h7.042l-2.683-3.541c-.517-.681-.794-1.475-.794-2.282 0-2.357 2.306-4.285 5.14-4.285h2.86c2.834 0 5.14 1.928 5.14 4.285 0 .807-.277 1.601-.794 2.282l-2.696 3.541h6.312a3.574 3.574 0 013.578 3.568v3.504c0 .945-.39 1.676-.718 2.105l-2.457 3.315 4.107.214c1.902.088 3.402 1.651 3.402 3.542v3.491c0 1.79-1.323 3.252-3.024 3.517a2.654 2.654 0 01-.554.063H45.575v14.42h-5.38v-14.42H25.96zm-10.482 41.671c0-12.793 8.945-21.907 21.984-22.751.655-.038 1.323-.088 2.003-.088h87.33c-4.799 2.609-9.095 6.277-12.106 10.726a26.02 26.02 0 00-2.205 3.92 23.962 23.962 0 00-2.066 7.374c-.025.214-.051 2.622-.063 6.239H15.478v-5.42zm115.185 22.525s-.038 0-.05.025a17.761 17.761 0 01-9.298 2.635 17.6 17.6 0 01-6.601-1.286c-.013 0-.025-.013-.025-.013a17.47 17.47 0 01-2.18-1.071c-.013 0-.025-.013-.025-.013a17.722 17.722 0 01-2.18-1.462l-.025-.025c-.327-.265-.655-.517-.97-.794l-1.348-1.235-1.36 1.235c-3.326 3.012-7.597 4.664-12.007 4.664-4.409 0-8.68-1.652-12.018-4.664l-1.348-1.235-1.36 1.235c-3.327 3.012-7.597 4.664-12.007 4.664-4.41 0-8.68-1.652-12.006-4.664l-1.36-1.235-1.348 1.235c-.895.794-1.852 1.5-2.848 2.105-.718.428-1.448.794-2.204 1.122a18.246 18.246 0 01-4.888 1.311c-.68.075-1.374.126-2.08.126-.705 0-1.385-.051-2.065-.126a17.99 17.99 0 01-6.69-2.206 19.045 19.045 0 01-3.099-2.206c-.05-.051-.1-.088-.151-.126l-1.348-1.235-1.36 1.235s-.102.075-.152.126a19.042 19.042 0 01-3.1 2.206 17.988 17.988 0 01-6.689 2.206c-.327.037-.655.063-.995.075-.353.025-.718.051-1.07.051-.379 0-.757-.026-1.135-.051-.315-.012-.63-.05-.944-.075a20.349 20.349 0 01-1.26-.19 17.783 17.783 0 01-5.417-2.016 19.711 19.711 0 01-3.112-2.206c-.038-.051-.101-.088-.151-.126l-1.348-1.235-1.361 1.235s-.1.075-.151.126a19.047 19.047 0 01-3.1 2.206 18.004 18.004 0 01-6.676 2.206c-.693.075-1.386.126-2.08.126-.503 0-1.02-.026-1.523-.076-.19-.013-.366-.025-.555-.05a18.004 18.004 0 01-6.677-2.206c-.352-.215-.705-.416-1.058-.656.39-.529.806-1.046 1.235-1.55a29.643 29.643 0 017.055-6.151 29.61 29.61 0 0115.823-4.551h128.69v12.58zm3.452-33.087c-.882 1.5-1.638 3.05-2.205 4.689-.831 2.394-1.297 4.915-1.297 7.537v3.87h-15.861v-.114c.012-3.252.025-5.432.037-5.747.92-8.231 7.27-15.126 14.917-19.033.73-.366 1.461-.719 2.204-1.034.731-.303 1.462-.58 2.205-.845 3.023-1.033 6.135-1.6 9.083-1.6h4.032c-5.38 2.937-10.092 7.184-13.115 12.277zm10.015-17.092c0 .138.013.277.013.403h-3.439c0-.126-.013-.265-.013-.403 0-4.727 1.651-9.076 4.41-12.504l2.444 2.445c-2.13 2.798-3.415 6.277-3.415 10.059zm28.762.403h-24.34c0-.126-.012-.265-.012-.403 0-6.719 5.455-12.189 12.182-12.189 6.728 0 12.183 5.47 12.183 12.189 0 .138-.013.277-.013.403zm-24.68-16.033a20.006 20.006 0 0110.306-4.286v3.479a16.509 16.509 0 00-7.849 3.265l-2.457-2.458zm24.529.491l-1.965 1.967a16.513 16.513 0 00-7.849-3.265v-3.479a19.999 19.999 0 0110.305 4.286l-.491.491zm8 15.542h-3.44c0-.126.013-.265.013-.403 0-3.782-1.285-7.261-3.427-10.059l1.966-1.966.491-.479c2.746 3.428 4.409 7.777 4.409 12.504 0 .138-.012.277-.012.403zm8.214 0h-3.818c0-.126.026-.265.026-.403 0-13.475-10.961-24.454-24.441-24.454-13.48 0-24.44 10.979-24.44 24.454 0 .138.012.277.012.403h-3.817v-.403c0-15.58 12.661-28.26 28.245-28.26 15.584 0 28.245 12.68 28.245 28.26 0 .138 0 .277-.012.403zm-1.059-18.479a35.044 35.044 0 00-1.877-2.546 13.489 13.489 0 00-.68-.806 23.595 23.595 0 00-1.436-1.538c-5.921-6-14.123-9.706-23.181-9.706-18.015 0-32.654 14.66-32.654 32.672v.403h-13.379V354.41c0-13.449 9.864-22.84 23.974-22.84h54.059v11.483c0 4.525-1.386 8.76-3.717 12.542a25.916 25.916 0 00-1.109-1.778zm4.813 11.433c-.101-.441-.202-.882-.315-1.311a32.127 32.127 0 00-1.222-3.819c3.679-4.966 5.959-10.777 5.959-17.067v-11.306h8.529v11.306c0 9-5.455 16.89-12.951 22.197zm-458.926 56.456v4.412h30.79v-4.412h-30.79zM29.248 284.353c-5.43 0-9.852 4.462-9.852 9.945 0 5.483 4.422 9.945 9.852 9.945 5.43 0 9.852-4.462 9.852-9.945 0-5.483-4.422-9.945-9.852-9.945zm0 15.479c-2.998 0-5.443-2.484-5.443-5.534s2.445-5.533 5.443-5.533c2.998 0 5.442 2.483 5.442 5.533 0 3.05-2.444 5.534-5.442 5.534z" fill="#000"/><path d="M1.974 409.492a29.617 29.617 0 00-15.824 4.55 29.649 29.649 0 00-7.054 6.152 29.003 29.003 0 00-1.235 1.55c.353.239.705.441 1.058.655a17.986 17.986 0 006.677 2.206c.19.025.365.038.554.051.504.05 1.02.075 1.525.075.693 0 1.386-.05 2.079-.126a17.986 17.986 0 006.677-2.206 18.98 18.98 0 003.099-2.205c.05-.051.1-.089.15-.126l1.361-1.236 1.349 1.236s.113.075.15.126a19.64 19.64 0 003.112 2.205 17.785 17.785 0 005.418 2.017c.415.076.831.139 1.26.189.314.025.63.063.944.076.378.025.756.05 1.134.05.353 0 .718-.025 1.071-.05.34-.013.668-.038.995-.076a17.971 17.971 0 006.69-2.206 18.979 18.979 0 003.099-2.205c.05-.051.1-.089.151-.126l1.36-1.236 1.349 1.236s.1.075.151.126a18.979 18.979 0 003.1 2.205 17.971 17.971 0 006.689 2.206c.68.076 1.373.126 2.066.126.693 0 1.398-.05 2.079-.126a18.171 18.171 0 004.888-1.311 19.048 19.048 0 002.204-1.121 19.761 19.761 0 002.848-2.105l1.347-1.236 1.361 1.236c3.326 3.012 7.597 4.663 12.006 4.663 4.41 0 8.68-1.651 12.006-4.663l1.36-1.236 1.349 1.236c3.338 3.012 7.597 4.663 12.018 4.663 4.422 0 8.681-1.651 12.006-4.663l1.361-1.236 1.348 1.236c.315.277.643.529.97.794l.025.025a17.836 17.836 0 002.205 1.475c.706.403 1.424.768 2.179 1.071a17.598 17.598 0 006.627 1.298c3.301 0 6.501-.92 9.298-2.634a.088.088 0 01.05-.025v-12.58H1.974zm128.64 17.319a21.728 21.728 0 01-9.298 2.118c-2.242 0-4.472-.366-6.614-1.059h-.013a23.212 23.212 0 01-2.192-.832s-.012 0-.012-.013c-.756-.327-1.474-.718-2.192-1.134 0 0-.013 0-.013-.013a20.55 20.55 0 01-2.318-1.537c-3.855 2.962-8.58 4.588-13.367 4.588-4.787 0-9.524-1.626-13.366-4.588-3.666 2.81-8.113 4.411-12.661 4.562v.026h-.706c-4.8 0-9.524-1.626-13.366-4.588a22.66 22.66 0 01-4.196 2.533c-.73.34-1.461.643-2.204.895-.731.24-1.462.441-2.205.605-1.562.353-3.15.555-4.762.555-4.636 0-9.21-1.538-12.989-4.324-.126-.101-.252-.176-.365-.264-.126.088-.252.163-.378.264a21.981 21.981 0 01-11.918 4.273c-.353.025-.718.051-1.07.051h-.706v-.026c-.139-.012-.29-.012-.429-.025a21.572 21.572 0 01-2.204-.214 22.234 22.234 0 01-9.663-4.059c-.114-.101-.252-.176-.366-.264-.125.088-.251.163-.377.264-3.767 2.786-8.34 4.324-12.99 4.324-.516 0-1.02-.013-1.524-.063-3.729-.265-7.357-1.513-10.506-3.593a29.463 29.463 0 00-2.432 6.013 30.165 30.165 0 00-1.108 8.092V442h158.56v-15.214s-.038.012-.05.025z" fill="#8C9091"/><path d="M29.247 288.764c-2.998 0-5.442 2.483-5.442 5.534 0 3.05 2.444 5.533 5.442 5.533s5.443-2.483 5.443-5.533c0-3.051-2.445-5.534-5.443-5.534zm113.95 87.943c-2.948 0-6.059.568-9.083 1.601-.743.265-1.474.542-2.205.845-.743.315-1.474.668-2.204 1.033-7.647 3.908-13.997 10.802-14.916 19.033-.013.315-.026 2.496-.038 5.748v.114h15.861v-3.87c0-2.622.466-5.143 1.297-7.538.567-1.638 1.323-3.189 2.205-4.689 3.024-5.092 7.735-9.34 13.115-12.277h-4.032zm53.933-44.961v11.307c0 6.29-2.28 12.1-5.959 17.067a31.945 31.945 0 011.525 5.142s.012 0 .012-.012c7.496-5.307 12.951-13.197 12.951-22.197v-11.307h-8.529z" fill="#F3BD48"/><path d="M39.465 376.707c-.68 0-1.348.051-2.003.089-13.04.844-21.984 9.957-21.984 22.751v5.42h94.877c.012-3.617.038-6.025.063-6.239a23.962 23.962 0 012.066-7.374 26.02 26.02 0 012.205-3.92c3.011-4.449 7.307-8.117 12.106-10.727h-87.33zm-305.682-45.137v40.726h32.806V331.57h-32.806zm472.003-37.31a6.737 6.737 0 00-3.074.744l-2.016 1.021-.97-2.055a9.765 9.765 0 00-8.781-5.559 9.69 9.69 0 00-9.423 7.387l-.592 2.433-2.344-.908a5.336 5.336 0 00-1.965-.378c-2.217 0-4.119 1.336-4.976 3.239h40.868c-.428-3.34-3.288-5.924-6.727-5.924zM86.62 347.288l-2.381-3.454h7.093c-3.654-2.861-6.652-6.92-8.555-11.634-1.902 4.714-4.9 8.773-8.554 11.634h7.093l-2.381 3.454c-1.776 2.597-5.316 7.16-10.18 10.563h12.422v14.445h3.2v-14.445H96.8c-4.863-3.403-8.403-7.966-10.18-10.563zm-352.837 29.419v44.999h30.79v4.412h-30.79V442h32.68v-65.293h-32.68zm322.702-29.444l-4.107-.214 2.457-3.315c.327-.429.718-1.16.718-2.105v-3.505c0-1.966-1.6-3.567-3.578-3.567h-6.312l2.696-3.542c.517-.68.794-1.474.794-2.281 0-2.357-2.306-4.286-5.14-4.286h-2.86c-2.834 0-5.14 1.929-5.14 4.286 0 .807.277 1.601.794 2.281l2.683 3.542h-7.042a3.571 3.571 0 00-3.566 3.567v3.505c0 .743.24 1.462.693 2.092l2.57 3.517H25.96a3.57 3.57 0 00-3.566 3.567v3.491c0 1.979 1.6 3.58 3.566 3.58h14.236v14.42h5.38v-14.42h10.733c.189 0 .378-.025.554-.063 1.7-.265 3.024-1.727 3.024-3.517v-3.491c0-1.891-1.5-3.454-3.402-3.542zm82.77 62.217l-4.183.012v11.332c4.712-2.004 9.663-7.046 11.566-11.344h-7.383zm58.304 16.638l-.038 7.727-.025 4.411V442h41.247v-15.882h-41.184zm-34.015-49.411c-13.19 0-28.522 10.714-28.522 24.504v3.87h1.562c8.605-.013 15.723-12.391 15.723-18.706h4.409c0 6.315 7.105 18.693 15.71 18.693l.781.013c8.592-.013 15.71-12.391 15.71-18.706h4.409c0 6.315 7.118 18.693 15.723 18.693v4.412h-9.89c2.734 5.596 10.016 12.226 15.219 12.226h24.365v-44.999h-75.199zm-28.472 49.411V442h12.989v-15.882h-12.989zm58.809-18.403l-.555-2.647h5.027c-3.087-2.66-5.606-6.214-7.269-9.857-1.688 3.63-4.246 7.197-7.332 9.857h4.989l-.353 2.508c-.63 4.601-4.611 10.286-9.6 14.13h10.293V442h3.993v-3.744l.038-4.411.063-12.139h10.57c-4.875-3.781-8.894-9.352-9.864-13.991zm-36.623 0l-.555-2.647h5.027c-3.086-2.66-5.606-6.214-7.269-9.857-1.688 3.63-4.233 7.197-7.332 9.857h4.989l-.34 2.508c-.643 4.601-4.624 10.286-9.613 14.13h10.305V442h3.981l.026-3.744.025-4.411.05-12.139h10.57c-4.863-3.781-8.894-9.352-9.864-13.991zm21.253 1.765l-8.529.012-7.446-.012c1.953 3.983 6.211 8.483 10.381 10.752 4.309-2.282 8.605-6.832 10.343-10.752h-4.749zm-17.562 16.638l-.038 7.727-.025 4.411-.025 3.744h23.81v-15.882h-23.722zm-12.737-69.855l2.457 2.458a16.509 16.509 0 017.849-3.265v-3.479a19.997 19.997 0 00-10.306 4.286zm-.667 5.571l-2.444-2.445a19.877 19.877 0 00-4.41 12.503c0 .139.013.278.013.404h3.439c0-.126-.013-.265-.013-.404 0-3.781 1.285-7.26 3.415-10.058zm13.177-2.13c-6.727 0-12.182 5.47-12.182 12.188 0 .139.012.278.012.404h24.34c0-.126.013-.265.013-.404 0-6.718-5.468-12.188-12.183-12.188zm2.205-7.727v3.479a16.513 16.513 0 017.849 3.265l1.965-1.967.491-.491a19.99 19.99 0 00-10.305-4.286zm-24.264-20.407c-14.11 0-23.974 9.391-23.974 22.84v17.886h13.379v-.404c0-18.012 14.639-32.671 32.654-32.671 9.058 0 17.26 3.706 23.181 9.706.491.479.983 1.008 1.436 1.537.239.265.466.53.68.807a28.737 28.737 0 011.877 2.546c.391.58.769 1.173 1.109 1.778 2.331-3.782 3.717-8.017 3.717-12.542V331.57h-54.059zm37.681 27.819l-.491.479-1.966 1.966c2.142 2.798 3.427 6.277 3.427 10.058 0 .139-.013.278-.013.404h3.44c0-.126.012-.265.012-.404 0-4.726-1.663-9.075-4.409-12.503zm-15.622-15.756c-15.584 0-28.245 12.68-28.245 28.259v.404h3.817c0-.126-.012-.265-.012-.404 0-13.474 10.96-24.453 24.44-24.453s24.441 10.979 24.441 24.453c0 .139-.026.278-.026.404h3.818c.012-.126.012-.265.012-.404 0-15.579-12.673-28.259-28.245-28.259zm49.347-12.063v11.483c0 11.205-7.193 20.898-16.743 26.974.038.63.051 1.235.051 1.865 0 .139 0 .278-.013.404h45.379V331.57h-28.674z" fill="#E1251B"/></g><defs><clipPath id="bpclip0_969_11711"><path fill="#fff" transform="translate(39 59)" d="M0 0h152v114H0z"/></clipPath><clipPath id="bpclip1_969_11711"><rect y="284" width="221" height="158" rx="21.351" fill="#fff"/></clipPath></defs></svg>