<?xml version="1.0" encoding="utf-8"?><svg width="221" height="443" fill="none" xmlns="http://www.w3.org/2000/svg" viewBox="0 0 221 443"><rect width="221" height="442" rx="20" fill="#5BB134"/><g clip-path="url(#boclip0_969_11045)"><path d="M232.36 248.842c-19.626.023-38.443 8.084-52.321 22.416s-21.684 33.762-21.706 54.03v10.886h-25.889v-20.365h9.288l-20.202-32.345h-13.758v-7.465H96.665v7.465H71.367l-7.866 12.564c-5.559-.879-10.625-3.793-14.276-8.21h13.252v-4.354h-1.434c-11.336 0-19.877-10.45-19.877-24.309H36.95c0 13.859-8.53 24.309-19.866 24.309v4.354h11.782a23.714 23.714 0 01-8.229 6.396 22.996 22.996 0 01-10.082 2.175v4.354H24.82c-6.24 6.83-13.722 10.662-21.01 10.662v4.354h28.912v20.365H25.06c-6.266-.014-12.34 2.24-17.163 6.369-4.824 4.13-8.095 9.874-9.244 16.235-4.703 2.197-8.694 5.746-11.496 10.222a28.428 28.428 0 00-4.31 15.02v1.63h-49.475c-4.703-3.817-10.511-5.889-16.492-5.885h-92.146v-62.053c-.003-5.876-2.264-11.511-6.287-15.667-4.022-4.157-9.478-6.495-15.168-6.502h-29.539v-46.651h-13.986v4.354h9.77v9.405h-9.77v4.354h9.77v12.839h-9.77v4.354h9.77v51.939h-9.77v4.354h9.77v56.156a22.695 22.695 0 002.316 9.979 21.936 21.936 0 006.43 7.823h-18.516v4.355h66.064c10.216 0 27.286 7.066 30.045 16.72a24.55 24.55 0 01.831 4.64c0 .634.096 1.244.096 1.916v.97h4.217v-.97c0-.647 0-1.244-.084-1.929.51-5.812 3.104-11.218 7.274-15.158 4.169-3.94 9.613-6.129 15.265-6.14h99.386v24.247h4.216v-39.051a19.99 19.99 0 0011.155-1.679l.265-.125a29.142 29.142 0 001.844-.983 19.036 19.036 0 001.819-1.244l.24-.174.193.137a21.69 21.69 0 002.578 1.655c.554.298 1.12.572 1.699.821.822.344 1.663.639 2.518.883.99.275 1.995.483 3.011.622.88.118 1.764.18 2.65.187a18.675 18.675 0 002.205-.137 20.909 20.909 0 006.024-1.592c.65-.287 1.288-.61 1.903-.958a25.93 25.93 0 001.807-1.145c.229-.162.47-.311.699-.485l.542.41a21.51 21.51 0 004.216 2.314 20.705 20.705 0 007.89 1.593h.085c4.556-.01 8.99-1.518 12.661-4.305 3.671 2.787 8.105 4.295 12.661 4.305h.808a20.943 20.943 0 0011.902-4.305c3.676 2.816 8.132 4.336 12.709 4.336s9.033-1.52 12.709-4.336c3.675 2.811 8.125 4.332 12.698 4.342a20.473 20.473 0 007.481-1.431v11.645h-74.22c-6.942.007-13.609 2.805-18.589 7.8-.349.336-.686.697-1.012 1.057l-.3.336c-.64.747-1.205 1.518-1.808 2.327a.997.997 0 00-.084.124c-.361.51-.71 1.045-1.036 1.592-.325.548-.675 1.244-.988 1.842l-.193.373a33.472 33.472 0 00-1.096 2.637 28.416 28.416 0 00-1.65 9.542v.97h4.216v-.97c.007-2.065.283-4.119.82-6.108.312-1.16.715-2.292 1.204-3.384.277-.647.59-1.244.927-1.904 1.9-3.436 4.61-6.32 7.88-8.384a21.825 21.825 0 0111.72-3.446h192.447v-4.355H218.53v-50.595a28.325 28.325 0 00-3.329-13.35c-2.185-4.088-5.337-7.537-9.163-10.026h36.236v-4.354h-48.259v-4.702c0-12.538 4.823-24.562 13.408-33.428 8.585-8.865 20.229-13.846 32.37-13.846h2.518v-4.354h-2.518c-13.246.013-25.945 5.453-35.312 15.125-9.366 9.672-14.633 22.787-14.646 36.465v4.703h-12.468v-6.992c0-16.486 6.337-32.298 17.62-43.961 11.283-11.664 26.589-18.224 42.553-18.241h4.734v-4.354h-4.734c-17.071.02-33.438 7.032-45.509 19.498-12.072 12.465-18.862 29.367-18.881 46.996v6.992h-10.601v-10.799c.045-19.095 7.418-37.394 20.503-50.886 13.086-13.492 30.817-21.078 49.308-21.094h9.914v-4.354h-9.914zm-73.859 91.686c5.975.006 11.703 2.461 15.927 6.825 4.224 4.364 6.598 10.281 6.601 16.451v2.488a8.313 8.313 0 00-5.746 2.671 8.865 8.865 0 00-2.35 6.038v3.98a8.71 8.71 0 00.338 2.488 8.412 8.412 0 00-3.458 2.849c-9.216-1.343-16.54-9.952-17.865-20.738a26.81 26.81 0 00-.229-3.433v-.075a28.175 28.175 0 00-3.975-11.15 27.195 27.195 0 00-8.144-8.394h18.901zm-298.386 88.016a26.907 26.907 0 00-1.204 2.588 27.495 27.495 0 00-2.904-5.262l-.06-.1c-4.879-6.88-21.178-11.371-30.044-11.371h-1.085v-30.292h92.146c2.722.008 5.42.526 7.963 1.53a21.83 21.83 0 014.204 2.177 21.714 21.714 0 012.783 2.177 23.515 23.515 0 016.481 10.027c.233.715.43 1.442.59 2.177.166.719.295 1.445.386 2.177.144 1.035.22 2.078.229 3.123v6.904h-56.138a26.205 26.205 0 00-13.525 3.813c-4.102 2.485-7.492 6.051-9.822 10.332zm-56.692-14.145h-12.432c-4.572-.003-8.956-1.879-12.19-5.217-3.235-3.337-5.054-7.863-5.061-12.585v-96.749h29.539c4.572.006 8.955 1.886 12.187 5.225 3.232 3.34 5.049 7.868 5.052 12.589v96.737h-17.095zM13.627 343.75a21.856 21.856 0 0111.384-3.222H125.602c5.34.099 10.472 2.155 14.479 5.802 4.008 3.646 6.63 8.644 7.398 14.103-.157 12.726-8.554 23.102-19.131 23.997v-.46c-.009-7.351-2.841-14.399-7.875-19.597-5.034-5.198-11.858-8.123-18.977-8.133H9.7a25.912 25.912 0 00-3.542.249c-.924.124-1.84.298-2.747.522 1.672-5.577 5.303-10.308 10.18-13.261h.036zm60.065-55.883h.073l1.855 2.961-11.409 18.238-1.493 2.389h-3.831l.168-.262 2.29-3.657 4.216-6.743 1.963-3.135 6.168-9.791zm23.01 0v6.532h11.107v-6.581h11.456l14.757 23.637H93.497l-12.926-20.627-1.205-2.003-.59-.958H96.702zm3.011-4.354v-4.329h5.084v12.154h-5.084v-7.825zm86.472 83.712a4.944 4.944 0 01-.904-2.836 5.574 5.574 0 011.737-3.789 5.227 5.227 0 013.817-1.424h2.975a5.23 5.23 0 013.818 1.424 5.578 5.578 0 011.736 3.789 5.083 5.083 0 01-.892 2.836l-2.409 3.446h6.915a4.21 4.21 0 013.012 1.294 4.493 4.493 0 011.253 3.11v3.981a4.501 4.501 0 01-.844 2.588l-2.409 3.458h6.18a4.188 4.188 0 012.988 1.304 4.467 4.467 0 011.228 3.1v3.981a4.467 4.467 0 01-1.228 3.1 4.188 4.188 0 01-2.988 1.304h-15.444v16.508h-6.578v-16.508h-11.516a4.262 4.262 0 01-1.783-.411 4.337 4.337 0 01-1.803-1.624 4.536 4.536 0 01-.679-2.369v-3.981a4.47 4.47 0 011.181-3.017 4.2 4.2 0 012.867-1.35l3.939-.211-2.349-3.259a4.421 4.421 0 01-.855-2.613v-3.981a4.459 4.459 0 011.119-2.956 4.193 4.193 0 012.76-1.398H188.546l-2.361-3.496zm-187.93-3.334a22.807 22.807 0 012.169-1.157 22.03 22.03 0 019.276-2.127h91.832c5.993.016 11.736 2.484 15.972 6.862 4.235 4.379 6.618 10.312 6.628 16.501v.199a16.838 16.838 0 01-9.817 1.591 17.068 17.068 0 01-9.048-4.241l-1.313-1.244-1.325 1.244c-3.158 2.839-7.204 4.403-11.39 4.403-4.188 0-8.233-1.564-11.39-4.403l-1.314-1.244-1.313 1.244c-3.14 2.84-7.173 4.406-11.348 4.406-4.175 0-8.207-1.566-11.348-4.406l-1.313-1.244-1.313 1.244c-3.15 2.832-7.184 4.395-11.36 4.404a16.738 16.738 0 01-7.927-2.015 17.6 17.6 0 01-3.421-2.389l-.796-.721-.518-.461-1.313 1.244-.096.15c-3.175 2.742-7.188 4.231-11.326 4.204-4.139-.027-8.134-1.57-11.274-4.354l-1.265-1.132-1.313 1.244c-.24.212-.494.411-.747.61a17.229 17.229 0 01-7.36 3.471 17.058 17.058 0 01-3.289.323 16.713 16.713 0 01-2.614-.211v-1.916a23.99 23.99 0 012.909-11.527 23.068 23.068 0 018.03-8.552h.035zm153.705 12.615a27.06 27.06 0 007.228 8.049h-7.385l.121.186 2.144 3.222a33.484 33.484 0 0010.035 9.953h-12.456v16.533h-4.18v-16.533h-12.385a33.422 33.422 0 0010.023-9.953l2.277-3.408h-7.384a27.29 27.29 0 007.746-8.858 29.108 29.108 0 001.867-3.981c.072.187.156.373.241.572a29.642 29.642 0 002.108 4.218zm16.372 18.76a27.502 27.502 0 01-8.132-6.357h7.999V393.487a8.625 8.625 0 00.133 1.779zm-181.268-5.275v-.087l.614.087c.663.062 1.326.1 2 .1.675 0 1.337 0 2.012-.1a20.95 20.95 0 006.53-1.754l.879-.423c.421-.211.831-.448 1.204-.684.71-.418 1.398-.875 2.06-1.369a19.9 19.9 0 002.771 1.779l.76.374a21.302 21.302 0 007.444 2.077c.554 0 1.12.062 1.675.062.866-.001 1.73-.06 2.59-.174a20.979 20.979 0 0010.095-4.142l.542.41a21.547 21.547 0 004.216 2.326 20.916 20.916 0 007.89 1.58h.085c4.557-.004 8.993-1.512 12.661-4.304 3.67 2.791 8.105 4.299 12.661 4.304h.808a21.022 21.022 0 0011.902-4.304c3.676 2.816 8.132 4.336 12.709 4.336s9.033-1.52 12.709-4.336a20.868 20.868 0 009.729 4.119c3.526.509 7.12.093 10.45-1.208v9.629a16.804 16.804 0 01-9.819 1.59 17.052 17.052 0 01-9.047-4.252l-1.313-1.244-1.325 1.244c-3.154 2.846-7.201 4.414-11.39 4.414-4.189 0-8.236-1.568-11.39-4.414l-1.313-1.244-1.313 1.244c-3.138 2.847-7.172 4.417-11.348 4.417-4.177 0-8.211-1.57-11.348-4.417l-1.313-1.244-1.314 1.244a16.885 16.885 0 01-9.278 4.286 16.664 16.664 0 01-9.996-1.898 17.05 17.05 0 01-3.422-2.388l-.795-.709-.518-.473-1.313 1.244-.096.149a16.477 16.477 0 01-3.193 2.215c-.636.354-1.297.662-1.975.92a16.629 16.629 0 01-6.024 1.132 16.872 16.872 0 01-5.662-.995 17.613 17.613 0 01-4.216-2.214 17.588 17.588 0 01-1.506-1.244l-1.265-1.132-1.313 1.244c-.24.223-.494.41-.747.609a16.734 16.734 0 01-9.866 3.732h-1.566a15.003 15.003 0 01-1.831-.186l-.181-9.928zm141.284-1.082h10.674a26.775 26.775 0 01-10.674 7.464v-7.464zm27.563 13.311h28.021v12.154h-28.021V402.22zm-80.364-66.046v-13.61h5.096v13.684h-5.096v-.074zm14.698 0h-6.59v-16.745h-11.12v16.745h-6.6v-21.871l.409-.646 1.361-2.178.542-.87 9.842-15.738 10.397 16.608 1.36 2.178.398.646v21.921-.05zm37.983 0H94.497v-20.39h33.731v20.39zm-66.51-20.365v20.365h-16.3v-20.365h16.3zm-78.87 84.209h-40.116a28.006 28.006 0 00-5.048-10.027h45.164v10.027zm-39.297 4.354h39.297v10.027h-39.116v-6.904c0-1.044-.06-2.086-.18-3.123zm184.797-2.152h14.95v12.179h-14.95V402.22zM60.549 300.793l-2.686 4.292a39.172 39.172 0 01-4.59-4.292h7.276zm-41.97 10.662a43.779 43.779 0 0012.432-11.52l2.626-3.496h-8.023a29.888 29.888 0 009.167-9.592l2.048-3.334h-6.65c4.032-3.08 7.105-7.308 8.843-12.166 1.745 4.856 4.822 9.084 8.854 12.166h-6.65l2.048 3.334a29.887 29.887 0 009.168 9.592H44.43l2.626 3.496a46.216 46.216 0 008.529 8.82l-1.687 2.7H41.202v24.719h-4.349v-24.719H18.578zm186.423 102.944h-6.024v-12.154h11.156a8.035 8.035 0 004.216-1.244v13.349l-9.348.049zm9.312-50.595v18.138a7.984 7.984 0 00-3.06-1.107c.12-.585.181-1.181.181-1.779v-3.981a8.922 8.922 0 00-2.362-6.017 8.377 8.377 0 00-5.722-2.691c.141-.637.21-1.288.205-1.941-.072-2.605-1.141-5.074-2.972-6.866-1.831-1.793-4.275-2.764-6.798-2.701h-2.987a9.876 9.876 0 00-6.349 2.302c-1.664-6.853-5.801-12.79-11.565-16.596h18.902c5.964.013 11.68 2.466 15.898 6.821 4.217 4.356 6.592 10.259 6.605 16.418h.024zm-116.24-31.238h11.12v-13.112h-11.12v13.112zm3.013-9.952h5.095v6.892h-5.132l.037-6.892zm23.527-3.11h-11.107v13.112h11.107v-13.112zm-3.012 9.952h-5.084v-6.892h5.084v6.892zm-53.91-85.354a14.1 14.1 0 00-.75-6.771 13.685 13.685 0 00-3.822-5.557 13.074 13.074 0 00-5.943-2.964 12.849 12.849 0 00-6.59.363 16.999 16.999 0 00-6.805-6.327 16.334 16.334 0 00-9.007-1.7 16.493 16.493 0 00-8.532 3.432 17.299 17.299 0 00-5.52 7.544 10.87 10.87 0 00-2.012-.187c-3.057.004-5.987 1.259-8.149 3.491-2.161 2.232-3.377 5.258-3.38 8.415v2.177h60.234l.277-1.916zM11.7 241.614a7.579 7.579 0 012.647-3.882 7.181 7.181 0 014.364-1.492 7.197 7.197 0 012.638.51l2.24.895.567-2.401a13.067 13.067 0 013.956-6.72 12.387 12.387 0 016.986-3.131 12.25 12.25 0 017.456 1.608 12.83 12.83 0 015.19 5.755l.927 2.016 1.94-1.008a8.572 8.572 0 014.047-1.008c2.3.003 4.512.917 6.18 2.553a9.415 9.415 0 012.783 6.243l-51.921.062zm180.364 2.787c2.089 0 4.132-.64 5.869-1.839a10.834 10.834 0 003.891-4.897c.8-1.993 1.009-4.187.602-6.303a11.026 11.026 0 00-2.892-5.587 10.469 10.469 0 00-5.409-2.985 10.259 10.259 0 00-6.104.62 10.65 10.65 0 00-4.742 4.019 11.162 11.162 0 00-1.78 6.061c.006 2.891 1.121 5.661 3.102 7.703 1.98 2.043 4.664 3.192 7.463 3.195v.013zm6.348-10.911a6.707 6.707 0 01-1.07 3.643 6.392 6.392 0 01-2.849 2.414 6.163 6.163 0 01-3.668.373 6.292 6.292 0 01-3.251-1.794 6.631 6.631 0 01-1.737-3.357 6.76 6.76 0 01.361-3.788 6.515 6.515 0 012.338-2.942 6.212 6.212 0 013.528-1.105 6.257 6.257 0 014.468 1.906 6.675 6.675 0 011.88 4.6v.05z" fill="#1D1D1B"/><path d="M63.621 241.602H11.7a7.579 7.579 0 012.647-3.882 7.182 7.182 0 014.364-1.493 7.218 7.218 0 012.638.51l2.24.896.567-2.401a13.063 13.063 0 013.956-6.72 12.38 12.38 0 016.986-3.131c2.587-.273 5.191.289 7.456 1.607a12.833 12.833 0 015.19 5.756l.927 2.015 1.94-1.007a8.56 8.56 0 014.047-1.008 8.84 8.84 0 016.2 2.575 9.418 9.418 0 012.763 6.283zm40.333 144.159c-3.677 2.816-8.132 4.336-12.71 4.336-4.577 0-9.033-1.52-12.709-4.336a21.024 21.024 0 01-11.902 4.305h-.807c-4.557-.006-8.993-1.514-12.661-4.305-3.669 2.792-8.105 4.301-12.662 4.305h-.084a20.955 20.955 0 01-7.89-1.58 21.652 21.652 0 01-4.217-2.326l-.542-.411a20.99 20.99 0 01-10.095 4.143c-.86.114-1.724.172-2.59.174-.554 0-1.12 0-1.675-.062a21.282 21.282 0 01-7.445-2.078l-.759-.373a19.9 19.9 0 01-2.77-1.779c-.663.493-1.35.95-2.06 1.368a29.46 29.46 0 01-1.205.685l-.88.423a21.005 21.005 0 01-6.529 1.754c-.674.062-1.337.099-2.011.099-.675 0-1.338 0-2-.099l-.615-.087v9.952c.607.1 1.218.162 1.831.187H-9.466A16.734 16.734 0 00.4 396.324c.253-.2.506-.386.747-.61l1.313-1.244 1.265 1.132c.479.443.982.858 1.506 1.244a17.613 17.613 0 004.216 2.214c1.82.654 3.734.991 5.662.996a16.65 16.65 0 006.023-1.132 15.126 15.126 0 001.976-.921 16.7 16.7 0 001.831-1.132 16.27 16.27 0 001.361-1.083l.097-.149 1.313-1.244.518.473.795.709a17.098 17.098 0 003.421 2.389 16.664 16.664 0 009.997 1.897 16.878 16.878 0 009.278-4.286l1.313-1.244 1.313 1.244c3.138 2.847 7.171 4.418 11.348 4.418 4.177 0 8.21-1.571 11.348-4.418l1.313-1.244 1.313 1.244c3.155 2.846 7.202 4.415 11.39 4.415 4.19 0 8.236-1.569 11.391-4.415l1.325-1.244 1.313 1.244c3.152 2.846 7.197 4.416 11.384 4.416a17.259 17.259 0 007.481-1.754v-9.629a20.588 20.588 0 01-10.449 1.208 20.857 20.857 0 01-9.729-4.119l.181.062zm20.178-1.754c-.006-6.197-2.393-12.139-6.637-16.521-4.244-4.383-9.997-6.848-15.999-6.854H9.664a21.61 21.61 0 00-9.276 2.102c-.742.346-1.466.732-2.169 1.157a23.045 23.045 0 00-8.16 8.531 23.977 23.977 0 00-2.995 11.585v1.742c.865.139 1.739.21 2.614.212a16.72 16.72 0 008.541-2.339c.736-.432 1.441-.918 2.109-1.456.253-.199.505-.398.746-.609l1.314-1.244 1.264 1.132c3.126 2.814 7.126 4.377 11.274 4.404 4.147.028 8.165-1.482 11.326-4.255l.097-.149 1.313-1.244.518.46.795.722a17.638 17.638 0 003.421 2.388 16.737 16.737 0 007.927 2.015c4.176-.009 8.21-1.572 11.36-4.403l1.313-1.245 1.313 1.245c3.14 2.839 7.173 4.405 11.348 4.405 4.175 0 8.207-1.566 11.348-4.405l1.313-1.245 1.313 1.245c3.158 2.838 7.204 4.402 11.39 4.402 4.187 0 8.233-1.564 11.391-4.402l1.325-1.245 1.313 1.245a17.083 17.083 0 009.048 4.241 16.837 16.837 0 009.817-1.592l.217-.025zm-185.821 16.011a23.515 23.515 0 00-6.481-10.027 21.72 21.72 0 00-2.783-2.177 21.833 21.833 0 00-4.204-2.177 21.847 21.847 0 00-7.963-1.53h-92.146v30.292h1.084c8.867 0 25.166 4.491 30.045 11.371l.06.1a27.495 27.495 0 012.048 3.408c.301.597.59 1.244.855 1.854.356-.885.758-1.748 1.205-2.588 2.333-4.287 5.728-7.856 9.837-10.342a26.214 26.214 0 0113.546-3.803h56.053v-6.904a24.1 24.1 0 00-.229-3.123 21.643 21.643 0 00-.385-2.177 22.257 22.257 0 00-.542-2.177zm303.963-133.113h-4.734c-15.964.017-31.27 6.578-42.553 18.241-11.283 11.663-17.62 27.475-17.62 43.962v6.991h12.432v-4.702c.013-13.679 5.28-26.794 14.646-36.466s22.066-15.112 35.312-15.125h2.517v-12.901zm-482.52 12.839h9.77v-12.839h-9.77v12.839zM23.06 441.98c0-3.256.56-6.487 1.65-9.542.325-.896.699-1.779 1.096-2.637l.193-.373c.313-.635.639-1.244.988-1.842.35-.597.675-1.082 1.036-1.592a.997.997 0 01.084-.124c.567-.809 1.205-1.58 1.807-2.327l.301-.336c.326-.36.663-.721 1.012-1.057 4.98-4.995 11.647-7.793 18.589-7.8h74.316v-11.645a20.473 20.473 0 01-7.481 1.431c-4.573-.01-9.023-1.531-12.697-4.342-3.677 2.816-8.132 4.336-12.71 4.336-4.577 0-9.033-1.52-12.709-4.336a20.942 20.942 0 01-11.902 4.305h-.807c-4.556-.01-8.99-1.518-12.661-4.305-3.671 2.787-8.106 4.295-12.662 4.305h-.084a20.705 20.705 0 01-7.89-1.593 21.512 21.512 0 01-4.217-2.314l-.542-.41c-.229.174-.47.323-.699.485-.59.411-1.204.796-1.807 1.145a15.49 15.49 0 01-1.903.958 20.909 20.909 0 01-6.024 1.592c-.731.09-1.467.135-2.204.137a21.172 21.172 0 01-2.65-.187 22.782 22.782 0 01-3.012-.622 22.547 22.547 0 01-2.518-.883 21.738 21.738 0 01-1.698-.821 21.691 21.691 0 01-2.578-1.655l-.193-.137-.241.174a19.233 19.233 0 01-3.662 2.227l-.265.125a19.989 19.989 0 01-11.156 1.679V443h35.996l-.096-1.02z" fill="#8C9091"/><path d="M-196.721 299.848c4.572.006 8.955 1.886 12.187 5.226 3.232 3.339 5.049 7.867 5.052 12.588v96.737h-29.527c-4.572-.003-8.956-1.879-12.19-5.217-3.235-3.337-5.054-7.863-5.061-12.585v-96.749h29.539zm344.465 114.551h3.903v-16.533h12.444a33.469 33.469 0 01-10.035-9.952l-2.144-3.222-.121-.187h7.385a27.036 27.036 0 01-7.228-8.049 29.683 29.683 0 01-2.108-4.217c-.085-.199-.169-.386-.241-.573a29.227 29.227 0 01-1.867 3.981 27.28 27.28 0 01-7.746 8.858h7.384l-2.277 3.409a33.43 33.43 0 01-10.023 9.952h12.433v16.533h.241zm40.404 0h6.578v-16.508h15.372a4.188 4.188 0 002.987-1.304 4.464 4.464 0 001.229-3.1v-3.981a4.464 4.464 0 00-1.229-3.1 4.188 4.188 0 00-2.987-1.304h-6.18l2.409-3.458a4.5 4.5 0 00.843-2.588v-3.981a4.488 4.488 0 00-1.252-3.11 4.21 4.21 0 00-3.012-1.294h-6.915l2.409-3.446a5.091 5.091 0 00.892-2.836 5.574 5.574 0 00-1.737-3.789 5.227 5.227 0 00-3.817-1.424h-2.939a5.227 5.227 0 00-3.817 1.424 5.574 5.574 0 00-1.737 3.789 4.944 4.944 0 00.904 2.836l2.409 3.446H181.041a4.193 4.193 0 00-2.759 1.398 4.454 4.454 0 00-1.12 2.956v3.981a4.42 4.42 0 00.855 2.613l2.349 3.259-3.939.212a4.195 4.195 0 00-2.867 1.349 4.472 4.472 0 00-1.181 3.017v3.981c.004.84.24 1.662.679 2.369a4.34 4.34 0 001.803 1.625c.56.264 1.167.404 1.783.41h11.516v16.509l-.012.049zm-25.599-89.111v10.799h10.601v-6.992c.019-17.629 6.809-34.531 18.881-46.997 12.071-12.465 28.438-19.477 45.509-19.497h4.734v-9.405h-9.914c-18.51.016-36.258 7.617-49.346 21.134-13.089 13.516-20.449 31.843-20.465 50.958zm79.725 93.515H49.816a21.842 21.842 0 00-11.722 3.446 23.147 23.147 0 00-7.879 8.385c-.337.622-.65 1.244-.927 1.904a22.855 22.855 0 00-1.205 3.383 23.77 23.77 0 00-.819 6.109v.97h215.01v-24.197zm-472.75-165.607h-9.77v9.405h9.77v-9.405zm87.266 188.834c0-.647 0-1.244-.096-1.916a24.55 24.55 0 00-.831-4.64c-2.759-9.654-19.829-16.72-30.045-16.72h-66.064V443h88.604l8.432-.97z" fill="#A2D45E"/><path d="M73.728 287.868l1.856 2.96-11.409 18.238-1.494 2.389h-3.794l.168-.262 2.29-3.657 4.216-6.743 1.963-3.135 6.12-9.79h.084zm27.322 41.588h5.096v-6.892h-5.096v6.892zm15.432 0h5.084v-6.892h-5.084v6.892zm75.545-102.534a6.203 6.203 0 00-3.527 1.105 6.515 6.515 0 00-2.338 2.942 6.76 6.76 0 00-.361 3.788 6.624 6.624 0 001.737 3.357 6.288 6.288 0 003.251 1.794 6.164 6.164 0 003.668-.373 6.394 6.394 0 002.849-2.415 6.704 6.704 0 001.07-3.642 6.678 6.678 0 00-1.85-4.619 6.26 6.26 0 00-4.462-1.937h-.037z" fill="#F3BD48"/></g><g clip-path="url(#boclip1_969_11045)"><path d="M147.154 65.25h-6.119a16.43 16.43 0 00-7.341-5.284 16.398 16.398 0 00-16.987 3.683 16.483 16.483 0 00-4.505 7.853 16.213 16.213 0 00-5.808-8.564 16.151 16.151 0 00-9.796-3.293h-16.1v16.18a16.179 16.179 0 001.575 6.99 16.144 16.144 0 004.438 5.62 25.79 25.79 0 007.633 17.87 25.677 25.677 0 0017.919 7.438 25.679 25.679 0 0018.005-7.228 25.782 25.782 0 007.84-17.778 16.343 16.343 0 005.852-7.998 16.381 16.381 0 00.162-9.915l1.503-2.531 1.729-3.044z" fill="#2D2A26"/><path d="M100.536 77.723l-4.134-4.143v-9.31h.196c1.328.004 2.645.239 3.893.693l.045 12.76zm-15.438-11.45v6.463h6.449l-6.45-6.463zm8.493-2.004h-6.479l6.48 6.464v-6.464zm.827 11.315h-9.32v.24c.005 1.336.24 2.661.691 3.918h12.748l-4.119-4.158zm-7.096 6.99a11.481 11.481 0 007.71 4.707 11.446 11.446 0 008.721-2.342l-2.36-2.365h-14.07zm16.086-16.12V80.57l2.33 2.366a11.566 11.566 0 002.318-8.744 11.563 11.563 0 00-4.678-7.738h.03z" fill="#A2D45E"/><path d="M128.168 87.35c-2.343 0-4.633-.696-6.581-2a11.87 11.87 0 01-4.363-5.328 11.893 11.893 0 012.568-12.938 11.82 11.82 0 0112.909-2.573 11.852 11.852 0 015.317 4.372 11.895 11.895 0 011.996 6.596 11.899 11.899 0 01-3.474 8.39 11.848 11.848 0 01-8.372 3.481zm-15.92 21.695a21.12 21.12 0 01-13.73-5.099 21.21 21.21 0 01-7.135-12.814 16.143 16.143 0 0012.925-1.072 16.215 16.215 0 007.985-10.242 16.509 16.509 0 002.956 5.882 16.426 16.426 0 0017.835 5.522 21.194 21.194 0 01-7.147 12.752 21.112 21.112 0 01-13.689 5.071z" fill="#F3BD48"/><path d="M133.7 68.202a4.428 4.428 0 00-4.678 1.566 4.45 4.45 0 001.536 6.702 4.425 4.425 0 004.891-.637 4.447 4.447 0 00-1.749-7.631z" fill="#2D2A26"/><path d="M101.736 126.473a12.28 12.28 0 016.31-1.741v6.286a6.265 6.265 0 00-4.462 1.875 6.45 6.45 0 00-1.848 4.526v12.227h-6.133V125.193h4.947l1.262 1.28h-.076zm72.895 10.729l8.582 12.431h-7.282l-4.934-7.169-4.947 7.169h-7.27l8.569-12.431-8.279-12.009h7.27l4.657 6.734 4.644-6.734h7.269l-8.279 12.009zm-87.345-12.009h-.833l-1.262 1.28a12.292 12.292 0 00-6.31-1.741 12.404 12.404 0 00-8.835 3.712 12.769 12.769 0 00-3.66 8.963c0 3.362 1.316 6.588 3.659 8.967a12.415 12.415 0 008.835 3.72c2.22.002 4.398-.6 6.31-1.741l1.263 1.28H91.4v-24.44h-4.114zm-8.393 18.602a6.263 6.263 0 01-4.462-1.875 6.446 6.446 0 01-1.848-4.526 6.45 6.45 0 011.848-4.527 6.267 6.267 0 014.462-1.875c1.674 0 3.279.675 4.462 1.875a6.479 6.479 0 011.368 6.976 6.4 6.4 0 01-1.368 2.077 6.3 6.3 0 01-2.047 1.388 6.227 6.227 0 01-2.415.487zm48.26-17.335a12.28 12.28 0 00-6.31-1.741 12.418 12.418 0 00-8.839 3.711 12.787 12.787 0 00-3.668 8.964c0 1.666.324 3.316.952 4.855a12.702 12.702 0 002.712 4.116 12.505 12.505 0 004.057 2.751c1.518.637 3.144.965 4.786.965a12.28 12.28 0 006.31-1.741l1.262 1.281h4.948V116h-6.21v10.46zm-6.31 17.335a6.265 6.265 0 01-4.462-1.875 6.448 6.448 0 01-1.848-4.526c0-1.698.665-3.326 1.848-4.527a6.27 6.27 0 014.462-1.875c1.674 0 3.279.675 4.462 1.875a6.48 6.48 0 011.368 6.976 6.399 6.399 0 01-1.368 2.077 6.297 6.297 0 01-2.047 1.388 6.228 6.228 0 01-2.415.487zm27.614 0a6.244 6.244 0 01-3.282-.937 6.375 6.375 0 01-2.322-2.532h17.77a12.781 12.781 0 00-3.327-11.883 12.42 12.42 0 00-8.839-3.711 12.404 12.404 0 00-8.835 3.712 12.77 12.77 0 00-3.66 8.963c-.002.475.027.95.089 1.421a1.883 1.883 0 000 .281c.05.384.113.756.189 1.114v.103a12.708 12.708 0 004.404 7.025 12.395 12.395 0 007.75 2.743 12.284 12.284 0 004.782-.961 12.43 12.43 0 004.052-2.752l-4.379-4.455a6.266 6.266 0 01-4.38 1.869h-.012zm0-12.803a6.249 6.249 0 013.283.943 6.356 6.356 0 012.32 2.54h-11.207a6.366 6.366 0 012.33-2.529 6.245 6.245 0 013.286-.928l-.012-.026zm-88.545-5.825h-.846l-1.262 1.28a12.261 12.261 0 00-6.31-1.741 12.404 12.404 0 00-8.834 3.712 12.769 12.769 0 00-3.66 8.963c0 3.363 1.316 6.588 3.659 8.967a12.42 12.42 0 008.835 3.721c2.22.003 4.399-.598 6.31-1.742v1.754a6.45 6.45 0 01-1.848 4.527 6.263 6.263 0 01-4.462 1.875 6.245 6.245 0 01-3.546-1.121 6.387 6.387 0 01-2.31-2.95l-4.58 4.647a12.538 12.538 0 004.506 4.194 12.327 12.327 0 005.93 1.516 12.401 12.401 0 008.704-3.575 12.762 12.762 0 003.79-8.716v-25.285h-4.101l.025-.026zm-2.095 12.214a6.446 6.446 0 01-1.848 4.526 6.263 6.263 0 01-4.462 1.875 6.263 6.263 0 01-4.462-1.875 6.447 6.447 0 01-1.848-4.526 6.45 6.45 0 011.848-4.527 6.267 6.267 0 014.462-1.875c1.673 0 3.278.675 4.462 1.875a6.45 6.45 0 011.848 4.527z" fill="#1D1D1B"/><path d="M185.32 131.607a5.624 5.624 0 00-2.194.434 5.702 5.702 0 00-1.861 1.256 5.842 5.842 0 00-1.675 4.109 5.863 5.863 0 00.429 2.229 5.786 5.786 0 001.242 1.889 5.663 5.663 0 004.059 1.695 5.637 5.637 0 002.192-.439 5.706 5.706 0 001.858-1.26 5.792 5.792 0 001.238-1.888 5.867 5.867 0 00.429-2.226 5.864 5.864 0 00-.432-2.221 5.805 5.805 0 00-1.239-1.883 5.694 5.694 0 00-1.857-1.257 5.621 5.621 0 00-2.189-.438zm0 10.409a4.377 4.377 0 01-3.128-1.381 4.493 4.493 0 01-.933-1.489 4.546 4.546 0 01-.293-1.74 4.544 4.544 0 01.293-1.739 4.493 4.493 0 01.933-1.489 4.377 4.377 0 013.128-1.381 4.374 4.374 0 013.119 1.385 4.501 4.501 0 011.222 3.224 4.501 4.501 0 01-1.222 3.225 4.398 4.398 0 01-3.119 1.385zm1.943-4.558c.224-.337.343-.734.341-1.14a2.053 2.053 0 00-.568-1.459 1.838 1.838 0 00-1.388-.615h-2.386v6.222h1.262v-2.112h.72l1.148 2.112h1.464l-1.262-2.368c.27-.157.499-.376.669-.64zm-1.161-.589a.61.61 0 01-.454.217h-1.073v-1.523h1.073a.588.588 0 01.25.059.585.585 0 01.204.159c.129.147.197.34.189.537a.784.784 0 01-.189.551z" fill="#1D1D1B"/><path d="M128.506 151.501v2.718c-1.549-.102-2.324.519-2.324 1.864v.109h2.324v2.719h-2.324v8.243h-2.828v-8.243h-1.578v-2.719h1.578v-.109c0-1.564.432-2.741 1.294-3.53.877-.804 2.163-1.155 3.858-1.052zm9.22 5.985v-1.294h2.829v10.962h-2.829v-1.294c-.847 1.067-2.038 1.601-3.573 1.601-1.462 0-2.718-.556-3.771-1.666-1.037-1.126-1.556-2.5-1.556-4.122 0-1.608.519-2.974 1.556-4.1 1.053-1.125 2.309-1.688 3.771-1.688 1.535 0 2.726.534 3.573 1.601zm-5.217 6.423c.57.57 1.293.855 2.17.855s1.601-.285 2.171-.855c.584-.584.876-1.33.876-2.236 0-.906-.292-1.644-.876-2.214-.57-.585-1.294-.877-2.171-.877-.877 0-1.6.292-2.17.877-.57.57-.855 1.308-.855 2.214 0 .906.285 1.652.855 2.236zm22.733-8.024c1.257 0 2.259.41 3.004 1.228.76.819 1.14 1.915 1.14 3.289v6.752h-2.828v-6.555c0-.658-.161-1.169-.482-1.535-.322-.365-.775-.548-1.36-.548-.643 0-1.147.212-1.512.636-.351.424-.527 1.038-.527 1.841v6.161h-2.828v-6.555c0-.658-.16-1.169-.482-1.535-.321-.365-.775-.548-1.359-.548-.629 0-1.133.219-1.513.658-.365.424-.548 1.03-.548 1.819v6.161h-2.828v-10.962h2.828v1.162c.658-.979 1.674-1.469 3.047-1.469 1.36 0 2.353.527 2.982 1.579.716-1.052 1.805-1.579 3.266-1.579zm7.949-1.008a1.72 1.72 0 01-1.732-1.732c0-.468.168-.877.504-1.228.351-.35.76-.526 1.228-.526.482 0 .892.176 1.228.526.35.351.526.76.526 1.228 0 .468-.176.877-.526 1.228a1.672 1.672 0 01-1.228.504zm1.425 12.277h-2.828v-10.962h2.828v10.962zm5.417 0h-2.829V151.15h2.829v16.004zm7.301-3.596l2.434-7.366h3.025l-3.99 10.962c-.57 1.578-1.33 2.718-2.28 3.42-.935.716-2.104 1.038-3.507.964v-2.63c.745.014 1.344-.146 1.797-.483.453-.336.811-.877 1.075-1.622l-4.495-10.611h3.091l2.85 7.366z" fill="#F2F2F2"/></g><defs><clipPath id="boclip0_969_11045"><rect y="221" width="221" height="222" rx="20" fill="#fff"/></clipPath><clipPath id="boclip1_969_11045"><path fill="#fff" transform="translate(39 59)" d="M0 0h152v114H0z"/></clipPath></defs></svg>