<?xml version="1.0" encoding="utf-8"?><svg width="221" height="442" fill="none" xmlns="http://www.w3.org/2000/svg" viewBox="0 0 221 442"><rect width="221" height="442" rx="20" fill="#DF1125"/><g clip-path="url(#bnclip0_969_11019)"><path d="M147.154 65.25h-6.119a16.43 16.43 0 00-7.341-5.284 16.398 16.398 0 00-16.987 3.683 16.483 16.483 0 00-4.505 7.853 16.213 16.213 0 00-5.808-8.564 16.151 16.151 0 00-9.796-3.293h-16.1v16.18a16.179 16.179 0 001.575 6.99 16.144 16.144 0 004.438 5.62 25.79 25.79 0 007.633 17.87 25.677 25.677 0 0017.919 7.438 25.679 25.679 0 0018.005-7.228 25.782 25.782 0 007.84-17.778 16.343 16.343 0 005.852-7.998 16.381 16.381 0 00.162-9.915l1.503-2.531 1.729-3.044z" fill="#2D2A26"/><path d="M100.536 77.723l-4.134-4.143v-9.31h.196c1.328.004 2.645.239 3.893.693l.045 12.76zm-15.438-11.45v6.463h6.449l-6.45-6.463zm8.493-2.004h-6.479l6.48 6.464v-6.464zm.827 11.315h-9.32v.24c.005 1.336.24 2.661.691 3.918h12.748l-4.119-4.158zm-7.096 6.99a11.481 11.481 0 007.71 4.707 11.446 11.446 0 008.721-2.342l-2.36-2.365h-14.07zm16.086-16.12V80.57l2.33 2.366a11.566 11.566 0 002.318-8.744 11.563 11.563 0 00-4.678-7.738h.03z" fill="#E0E0E0"/><path d="M128.168 87.35c-2.343 0-4.633-.696-6.581-2a11.87 11.87 0 01-4.363-5.328 11.893 11.893 0 012.568-12.938 11.82 11.82 0 0112.909-2.573 11.852 11.852 0 015.317 4.372 11.895 11.895 0 011.996 6.596 11.899 11.899 0 01-3.474 8.39 11.848 11.848 0 01-8.372 3.481zm-15.92 21.695a21.12 21.12 0 01-13.73-5.099 21.21 21.21 0 01-7.135-12.814 16.143 16.143 0 0012.925-1.072 16.215 16.215 0 007.985-10.242 16.509 16.509 0 002.956 5.882 16.426 16.426 0 0017.835 5.522 21.194 21.194 0 01-7.147 12.752 21.112 21.112 0 01-13.689 5.071z" fill="#F3BD48"/><path d="M133.7 68.202a4.428 4.428 0 00-4.678 1.566 4.45 4.45 0 001.536 6.702 4.425 4.425 0 004.891-.637 4.447 4.447 0 00-1.749-7.631z" fill="#2D2A26"/><path d="M101.736 126.473a12.28 12.28 0 016.31-1.741v6.286a6.265 6.265 0 00-4.462 1.875 6.45 6.45 0 00-1.848 4.526v12.227h-6.133V125.193h4.947l1.262 1.28h-.076zm72.895 10.729l8.582 12.431h-7.282l-4.934-7.169-4.948 7.169h-7.269l8.569-12.431-8.279-12.009h7.27l4.657 6.734 4.644-6.734h7.269l-8.279 12.009zm-87.345-12.009h-.833l-1.262 1.28a12.292 12.292 0 00-6.31-1.741 12.404 12.404 0 00-8.835 3.712 12.769 12.769 0 00-3.66 8.963c0 3.362 1.316 6.588 3.659 8.967a12.415 12.415 0 008.835 3.72c2.22.002 4.398-.6 6.31-1.741l1.263 1.28H91.4v-24.44h-4.114zm-8.393 18.602a6.263 6.263 0 01-4.462-1.875 6.446 6.446 0 01-1.848-4.526 6.45 6.45 0 011.848-4.527 6.267 6.267 0 014.462-1.875c1.674 0 3.279.675 4.462 1.875a6.479 6.479 0 011.368 6.976 6.4 6.4 0 01-1.368 2.077 6.3 6.3 0 01-2.047 1.388 6.227 6.227 0 01-2.415.487zm48.26-17.335a12.28 12.28 0 00-6.31-1.741 12.418 12.418 0 00-8.839 3.711 12.787 12.787 0 00-3.668 8.964c0 1.666.324 3.316.952 4.855a12.702 12.702 0 002.712 4.116 12.505 12.505 0 004.057 2.751c1.518.637 3.144.965 4.786.965a12.28 12.28 0 006.31-1.741l1.262 1.281h4.948V116h-6.21v10.46zm-6.31 17.335a6.265 6.265 0 01-4.462-1.875 6.448 6.448 0 01-1.848-4.526c0-1.698.665-3.326 1.848-4.527a6.27 6.27 0 014.462-1.875c1.674 0 3.279.675 4.462 1.875a6.48 6.48 0 011.368 6.976 6.399 6.399 0 01-1.368 2.077 6.297 6.297 0 01-2.047 1.388 6.228 6.228 0 01-2.415.487zm27.614 0a6.244 6.244 0 01-3.282-.937 6.375 6.375 0 01-2.322-2.532h17.77a12.781 12.781 0 00-3.327-11.883 12.42 12.42 0 00-8.839-3.711 12.404 12.404 0 00-8.835 3.712 12.77 12.77 0 00-3.66 8.963c-.002.475.027.95.089 1.421a1.883 1.883 0 000 .281c.05.384.113.756.189 1.114v.103a12.708 12.708 0 004.404 7.025 12.395 12.395 0 007.75 2.743 12.284 12.284 0 004.782-.961 12.43 12.43 0 004.052-2.752l-4.379-4.455a6.266 6.266 0 01-4.38 1.869h-.012zm0-12.803a6.249 6.249 0 013.283.943 6.356 6.356 0 012.32 2.54h-11.207a6.366 6.366 0 012.33-2.529 6.245 6.245 0 013.286-.928l-.012-.026zm-88.545-5.825h-.846l-1.262 1.28a12.261 12.261 0 00-6.31-1.741 12.404 12.404 0 00-8.834 3.712 12.769 12.769 0 00-3.66 8.963c0 3.363 1.316 6.588 3.659 8.967a12.42 12.42 0 008.835 3.721c2.22.003 4.399-.598 6.31-1.742v1.754a6.45 6.45 0 01-1.848 4.527 6.263 6.263 0 01-4.462 1.875 6.245 6.245 0 01-3.546-1.121 6.387 6.387 0 01-2.31-2.95l-4.58 4.647a12.538 12.538 0 004.506 4.194 12.327 12.327 0 005.93 1.516 12.401 12.401 0 008.704-3.575 12.762 12.762 0 003.79-8.716v-25.285h-4.101l.025-.026zm-2.095 12.214a6.446 6.446 0 01-1.848 4.526 6.263 6.263 0 01-4.462 1.875 6.263 6.263 0 01-4.462-1.875 6.447 6.447 0 01-1.848-4.526 6.45 6.45 0 011.848-4.527 6.267 6.267 0 014.462-1.875c1.673 0 3.278.675 4.462 1.875a6.45 6.45 0 011.848 4.527z" fill="#1D1D1B"/><path d="M185.32 131.607a5.624 5.624 0 00-2.194.434 5.702 5.702 0 00-1.861 1.256 5.842 5.842 0 00-1.675 4.109 5.863 5.863 0 00.429 2.229 5.786 5.786 0 001.242 1.889 5.663 5.663 0 004.059 1.695 5.637 5.637 0 002.192-.439 5.706 5.706 0 001.858-1.26 5.792 5.792 0 001.238-1.888 5.867 5.867 0 00.429-2.226 5.864 5.864 0 00-.432-2.221 5.805 5.805 0 00-1.239-1.883 5.694 5.694 0 00-1.857-1.257 5.621 5.621 0 00-2.189-.438zm0 10.409a4.377 4.377 0 01-3.128-1.381 4.493 4.493 0 01-.933-1.489 4.546 4.546 0 01-.293-1.74 4.544 4.544 0 01.293-1.739 4.493 4.493 0 01.933-1.489 4.377 4.377 0 013.128-1.381 4.374 4.374 0 013.119 1.385 4.501 4.501 0 011.222 3.224 4.501 4.501 0 01-1.222 3.225 4.398 4.398 0 01-3.119 1.385zm1.943-4.558c.224-.337.343-.734.341-1.14a2.053 2.053 0 00-.568-1.459 1.838 1.838 0 00-1.388-.615h-2.386v6.222h1.262v-2.112h.72l1.148 2.112h1.464l-1.262-2.368c.27-.157.499-.376.669-.64zm-1.161-.589a.61.61 0 01-.454.217h-1.073v-1.523h1.073a.588.588 0 01.25.059.585.585 0 01.204.159c.129.147.197.34.189.537a.784.784 0 01-.189.551z" fill="#1D1D1B"/><path d="M111.247 162.835h-8.265c.366 1.374 1.396 2.061 3.092 2.061 1.081 0 1.9-.366 2.455-1.096l2.28 1.315c-1.082 1.564-2.675 2.346-4.779 2.346-1.813 0-3.267-.548-4.363-1.644-1.096-1.097-1.644-2.478-1.644-4.144 0-1.637.541-3.011 1.622-4.121 1.067-1.111 2.455-1.667 4.165-1.667 1.623 0 2.945.556 3.969 1.667 1.052 1.11 1.578 2.484 1.578 4.121 0 .307-.037.694-.11 1.162zm-8.308-2.192h5.59c-.161-.716-.49-1.265-.987-1.645-.482-.38-1.059-.57-1.732-.57-.76 0-1.388.198-1.885.592-.497.38-.826.921-.986 1.623zm15.866.899l4.012 5.612h-3.267l-2.367-3.332-2.39 3.332h-3.266l4.011-5.591-3.836-5.371h3.266l2.215 3.091 2.214-3.091h3.245l-3.837 5.35zm11.694-5.35v2.719h-2.478v4.56c0 .38.095.657.285.833.19.175.468.278.833.307.366.014.819.007 1.36-.022v2.565c-1.915.219-3.282.044-4.1-.526-.804-.585-1.206-1.637-1.206-3.157v-4.56h-1.907v-2.719h1.907v-2.214l2.828-.855v3.069h2.478zm4.993 0v1.886c.248-.687.672-1.206 1.271-1.557.6-.365 1.287-.548 2.061-.548v3.157c-.862-.117-1.637.058-2.324.526-.672.453-1.008 1.206-1.008 2.258v5.24h-2.828v-10.962h2.828zm15.234 6.643h-8.265c.365 1.374 1.396 2.061 3.091 2.061 1.082 0 1.9-.366 2.456-1.096l2.28 1.315c-1.082 1.564-2.675 2.346-4.78 2.346-1.812 0-3.266-.548-4.362-1.644-1.097-1.097-1.645-2.478-1.645-4.144 0-1.637.541-3.011 1.623-4.121 1.067-1.111 2.455-1.667 4.165-1.667 1.622 0 2.945.556 3.968 1.667 1.052 1.11 1.579 2.484 1.579 4.121 0 .307-.037.694-.11 1.162zm-8.309-2.192h5.591c-.161-.716-.49-1.265-.987-1.645-.482-.38-1.06-.57-1.732-.57-.76 0-1.388.198-1.885.592-.497.38-.826.921-.987 1.623zm22.516-4.758c1.257 0 2.258.41 3.004 1.228.76.819 1.14 1.915 1.14 3.289v6.752h-2.828v-6.555c0-.658-.161-1.169-.483-1.535-.321-.365-.774-.548-1.359-.548-.643 0-1.147.212-1.512.636-.351.424-.527 1.038-.527 1.841v6.161h-2.828v-6.555c0-.658-.16-1.169-.482-1.535-.322-.365-.775-.548-1.359-.548-.629 0-1.133.219-1.513.658-.365.424-.548 1.03-.548 1.819v6.161h-2.828v-10.962h2.828v1.162c.658-.979 1.673-1.469 3.047-1.469 1.36 0 2.353.527 2.982 1.579.716-1.052 1.805-1.579 3.266-1.579zm17.2 6.95h-8.265c.366 1.374 1.396 2.061 3.092 2.061 1.081 0 1.9-.366 2.455-1.096l2.28 1.315c-1.082 1.564-2.675 2.346-4.779 2.346-1.813 0-3.267-.548-4.363-1.644-1.096-1.097-1.644-2.478-1.644-4.144 0-1.637.541-3.011 1.622-4.121 1.067-1.111 2.455-1.667 4.165-1.667 1.623 0 2.945.556 3.969 1.667 1.052 1.11 1.578 2.484 1.578 4.121 0 .307-.037.694-.11 1.162zm-8.308-2.192h5.59c-.161-.716-.49-1.265-.987-1.645-.482-.38-1.059-.57-1.732-.57-.76 0-1.388.198-1.885.592-.497.38-.826.921-.986 1.623z" fill="#F2F2F2"/></g><g clip-path="url(#bnclip1_969_11019)"><path d="M125.139 293.643v59.494H119.2a26.7 26.7 0 00-2.643.149l-23.98-29.451-19.35-23.765-9.014-11.123-1.642 2.336-26.203 36.495-13.583-16.561-33.772 47.457v7.415l.074-.087v27.375l-.074.098v7.416l.074-.099v.828l-.074-.087-.234-.321a25.157 25.157 0 00-17.287-10.529 25.908 25.908 0 00-3.409-.248h-139.781a25.289 25.289 0 00-20.992 11.123V330.83a22.042 22.042 0 00-6.444-15.564 22.005 22.005 0 00-15.548-6.459h-33.982v-41.87H-263v4.325h10.014v13.594H-263v4.326h10.014v13.594H-263v4.326h10.014v14.842h-9.952v4.326h9.878v12.358h-9.878v4.326h9.878v10.159h-9.878v4.325h9.878v41.352c0 18.636 9.496 34.863 23.462 43.255h10.36c-17.004-5.327-29.512-22.678-29.512-43.255v-60.891c0-.618 0-1.236.074-1.841v-22.925h33.982a17.688 17.688 0 0112.5 5.187 17.715 17.715 0 015.182 12.51v111.227h4.322v-11.963h181.777v11.963h4.322v-11.963h31.574l.1 11.963h4.321l-.099-11.963h3.359v11.963h4.322v-11.963h25.93l.137 11.963h4.322l-.124-11.963h5.396v11.963h4.322v-11.963h17.436v11.963h4.322v-11.963h89.622a24.827 24.827 0 0017.535-7.279 24.87 24.87 0 007.273-17.549v-47.828h18.435v-4.325h-43.514V321.71a14.38 14.38 0 014.079-10.198 14.353 14.353 0 0110.084-4.336h29.351v-4.326h-29.351a18.674 18.674 0 00-13.164 5.59 18.718 18.718 0 00-5.358 13.27v31.427h-29.327v-40.56c0-15.498 7.495-23.358 22.288-23.358h54.912v-4.326H176.68c-17.164 0-26.61 9.887-26.61 27.684v40.56h-20.609v-59.494c0-13.174 9.669-22.381 23.461-22.381h78.67v-4.325H152.96c-16.386 0-27.821 10.986-27.821 26.706zM-10.913 425.744H-192.69v-9.887a21.018 21.018 0 016.149-14.856 20.982 20.982 0 0114.843-6.154h140.287a20.92 20.92 0 018.04 1.809 20.92 20.92 0 016.716 4.778 22.376 22.376 0 012.73 3.609 20.902 20.902 0 012.938 9.442c0 .445.074.89.074 1.347v9.912zm75.324-129.629l22.659 27.831a9.04 9.04 0 01-6.26 3.263 7.619 7.619 0 01-6.175-3.052l-7.791-9.578-2.84 4.041c-3.705 5.425-7.891 8.49-11.682 8.651a8.293 8.293 0 01-6.656-3.399l-.506-.519 19.251-27.238zm-71.027 63.881l29.636-41.648 10.632 13.063-40.292 56.021.024-27.436zm39.28 65.711H20.378a40.417 40.417 0 007.94-9.343l2.086-3.325H24.75a23.225 23.225 0 006.174-8.194 23.268 23.268 0 006.174 8.194h-5.544l2.086 3.325a40.417 40.417 0 007.94 9.343h-8.915zm6.915-8.342h20.424a23.47 23.47 0 01-11.447 7.625c-3.544-1.459-6.742-4.771-8.953-7.625h-.024zm33.031 8.354H57.2a31.452 31.452 0 008.953-9.368l2.1-3.324h-8.46a28.842 28.842 0 0010.213-12.594 29.391 29.391 0 0010.397 12.618h-8.755l2.1 3.325a31.309 31.309 0 008.952 9.368l-10.089-.025zm21.77-.124a22.477 22.477 0 01-14.583-8.243h14.608l-.025 8.243zm0-47.629v35.085h-1.235c-9.878-.197-20.992-10.171-20.992-23.221h-4.322c0 12.964-10.495 22.702-20.164 23.172-7.792-.618-14.447-8.738-14.447-17.982h-4.322c0 9.615-7.187 18.044-15.398 18.044v4.325h8.94c-2.902 3.708-7.471 8.342-12.558 8.342H-6.591v-30.896l49.022-68.157a12.489 12.489 0 009.644 4.943h.457c3.569-.136 8.965-1.99 14.596-9.887l4.198 5.154a11.912 11.912 0 009.632 4.647 13.123 13.123 0 008.853-4.227l21.955 26.966a24.843 24.843 0 00-12.55 9.005 24.88 24.88 0 00-4.811 14.687h-.025zm55.69-20.528h58.765v47.778a20.54 20.54 0 01-6.007 14.491 20.509 20.509 0 01-14.479 6.012H98.727v-47.753a20.576 20.576 0 016.004-14.492 20.544 20.544 0 0114.469-6.036h30.87z" fill="#1D1D1B"/><path d="M231.592 338.653h-18.696v4.326h18.696v-4.326zM231.592 321.957h-18.696v4.325h18.696v-4.325zM15.056 264.625a10.773 10.773 0 00-1.988-.173 11.619 11.619 0 00-8.2 3.402 11.634 11.634 0 00-3.407 8.203v2.163h60.444l.284-1.829c.104-.658.158-1.324.16-1.99a13.293 13.293 0 00-3.887-9.382 13.27 13.27 0 00-9.374-3.891 12.859 12.859 0 00-4.063.643 16.873 16.873 0 00-6.83-6.142 16.853 16.853 0 00-17.59 1.675 16.88 16.88 0 00-5.549 7.321zm15.707-6.401c2.378.007 4.705.688 6.713 1.963a12.615 12.615 0 014.635 5.242l.95 2.002 1.989-1.001a8.728 8.728 0 014.038-.977 8.951 8.951 0 016.138 2.447 8.962 8.962 0 012.79 5.994H6.152a7.28 7.28 0 016.952-5.116c.9-.001 1.792.166 2.63.494l2.297.89.58-2.385a12.533 12.533 0 014.428-6.876 12.51 12.51 0 017.723-2.677zM-6.332 248.399h27.746l.271-1.842c.071-.408.109-.821.112-1.235a8.309 8.309 0 00-3.122-6.504 8.286 8.286 0 00-3.331-1.605 8.285 8.285 0 00-3.698.001 10.399 10.399 0 00-8.31-4.202 10.642 10.642 0 00-10.014 7.898 12.576 12.576 0 00-.111 5.956l.457 1.533zm3.877-6.575a6.377 6.377 0 015.791-4.498 6.014 6.014 0 013.203.93 6.034 6.034 0 012.218 2.493l.95 2.014 1.976-1.001a3.852 3.852 0 011.803-.445 4.014 4.014 0 013.791 2.756H-2.752c.032-.757.131-1.51.297-2.249z" fill="#1D1D1B"/><path d="M143.538 338.801l1.543-3.954a65.552 65.552 0 01-8.903-9.541l-2.692-3.485h8.965a33.047 33.047 0 01-10.138-10.357l-2.099-3.312h6.458a25.295 25.295 0 01-8.706-11.394 25.183 25.183 0 01-8.643 11.394h6.446l-2.1 3.312a33.064 33.064 0 01-10.15 10.357h8.965l-2.741 3.485a57.11 57.11 0 01-14.225 13.495h20.176v14.336h4.52v-14.336h13.324zM157.874 340.964l-.457-1.161-.506-1.323-.396 1.014-.568 1.47-.839 2.163-3.878 10.023h11.361l-3.878-10.023-.839-2.163zM190.906 340.803l-.815-2.113-.815-2.089-3.494-9.095-.618-1.57h-28.4l.074.21.148.371 1.161 2.991 1.16 2.99 2.359 6.106.889 2.273v.087l.84 2.163 3.877 10.01h28.401l-3.939-10.171-.828-2.163zm-11.113 3.485h-7.928l-4.852-12.556h12.212l.222.556 1.235 3.102 1.235 3.102 2.235 5.796h-4.359z" fill="#E1251B"/><path d="M231.606 342.966l.074-3.707v-.569h-2.037c-5.421-.148-11.657-6.513-13.892-12.358h16.176l.074-4.326h-4.025c-8.644-.235-19.016-11.518-19.016-18.427h-4.322c0 6.18-8.94 16.19-16.806 18.093h-33.698a24.934 24.934 0 01-15.756-9.133h13.583v-4.325h-1.482c-11.793 0-20.362-9.8-20.362-23.308h-3.47a24.345 24.345 0 00-1.124 4.128c-1.556 11.32-9.532 19.18-20.09 19.18v4.325h12.113a24.401 24.401 0 01-18.806 9.343v4.326h14.719a43.861 43.861 0 01-12.175 10.109l5.359 6.872h14.818v10.01h4.322v-14.336h-20.264a57.08 57.08 0 0014.225-13.557l2.68-3.485h-8.965a33.074 33.074 0 0010.15-10.357l2.1-3.312h-6.446a25.192 25.192 0 008.644-11.394 25.293 25.293 0 008.705 11.394h-6.396l2.111 3.312a33.047 33.047 0 0010.138 10.357H133.5l2.692 3.485a65.71 65.71 0 008.903 9.541l-1.543 3.954h-13.336v14.336h4.321v-10.01h7.409l-3.877 10.01h4.631l3.877-10.01.84-2.163.839-2.163.445-1.161.815-2.077.802-2.076 2.359-6.179 1.988 5.129-1.235 3.089-.778 2.027-1.296 3.349-.84 2.163-3.877 10.01h4.568l3.878-10.01.839-2.163.568-1.47.396-1.014.506 1.323.457 1.161.839 2.163 3.878 10.01h4.692l-3.877-10.01-.84-2.163v-.086l-.889-2.274-2.359-6.105-1.16-2.991-1.161-2.991-.148-.371-.074-.21h28.4l.618 1.57 3.519 9.096.815 2.088.815 2.114.84 2.162 3.939 10.171h4.643l-3.952-10.171h4.075l.087 10.171h4.322l-.124-14.496h-10.027l-.259-.643a30.191 30.191 0 008.335-13.335l.716-2.719h-6.618a33.358 33.358 0 009.804-10.962 32.104 32.104 0 009.669 10.962h-6.076l.433 2.534c.852 4.882 4.284 10.431 8.742 14.163h-10.669v14.496h4.322v-10.171l18.485.062zm-84.869-12.358a57.545 57.545 0 01-4.284-4.412h6.001l-1.717 4.412zm50.899-4.289a26.96 26.96 0 01-4.939 7.316l-2.828-7.316h7.767z" fill="#1D1D1B"/><path d="M180.695 335.39l-1.235-3.101-.222-.557h-12.213l4.853 12.557h12.213l-2.235-5.796-1.161-3.103zm-2.05 5.809h-4.606l-2.47-6.377h5.57l.753 1.94 1.235 3.102.518 1.335h-1z" fill="#1D1D1B"/><path d="M151.316 340.964l1.297-3.349.778-2.015 1.197-3.101-1.988-5.117-2.358 6.105-.815 2.076-.803 2.077-.444 1.161-.84 2.163-.84 2.163-3.877 10.023h3.976l3.877-10.023.84-2.163zM177.915 336.774l-.753-1.952h-5.594l2.47 6.377H179.619l-.506-1.335-1.198-3.09z" fill="#8C9091"/><path d="M219.505 338.641c-4.458-3.708-7.891-9.282-8.743-14.163l-.432-2.534h6.075a32.13 32.13 0 01-9.668-10.962 33.35 33.35 0 01-9.805 10.962h6.57l-.717 2.719a30.188 30.188 0 01-8.359 13.335l.259.643h10.027l.123 14.496h3.976v-14.496h10.694z" fill="#E1251B"/><path d="M110.988 393.191l1.359 1.236a18.128 18.128 0 0023.819 0l1.358-1.236 1.371 1.236a18.118 18.118 0 0023.807 0l1.371-1.236 1.358 1.236a18.129 18.129 0 0023.82 0l1.358-1.236 1.371 1.236a17.935 17.935 0 0016.855 3.708v-9.986a22.222 22.222 0 01-18.226-3.819 22.213 22.213 0 01-26.536 0 22.272 22.272 0 01-26.549 0 22.211 22.211 0 01-26.536 0 22.315 22.315 0 01-12.261 4.35v10.134a18.118 18.118 0 0010.903-4.424l1.358-1.199z" fill="#8C9091"/><path d="M110.99 407.465l1.358 1.236a18.129 18.129 0 0023.819 0l1.359-1.236 1.37 1.236a18.118 18.118 0 0023.808 0l1.37-1.236 1.359 1.236a18.128 18.128 0 0023.819 0l1.358-1.236 1.371 1.236a18.112 18.112 0 0011.904 4.462 17.308 17.308 0 003.494-.359 20.363 20.363 0 001.457-7.526v-2.83a21.504 21.504 0 01-4.939.581 22.412 22.412 0 01-13.274-4.388 22.214 22.214 0 01-26.536 0 22.275 22.275 0 01-26.549 0 22.214 22.214 0 01-26.536 0 22.33 22.33 0 01-12.262 4.351v10.059a18.195 18.195 0 0010.904-4.424l1.346-1.162z" fill="#8C9091"/><path d="M124.263 417.278a22.372 22.372 0 0013.261-4.387 22.28 22.28 0 0026.549 0 22.213 22.213 0 0026.536 0 22.435 22.435 0 0013.274 4.387h1.05a20.57 20.57 0 002.47-4.461c-1.15.238-2.321.358-3.495.358a18.108 18.108 0 01-11.904-4.461l-1.37-1.236-1.358 1.236a18.134 18.134 0 01-23.82 0l-1.358-1.236-1.371 1.236a18.123 18.123 0 01-11.904 4.46 18.122 18.122 0 01-11.903-4.46l-1.371-1.236-1.358 1.236a18.134 18.134 0 01-23.82 0l-1.358-1.236-1.358 1.236a18.192 18.192 0 01-10.928 4.337v4.153a22.368 22.368 0 0012.261-4.35 22.39 22.39 0 0013.275 4.424zM124.263 402.992a22.376 22.376 0 0013.262-4.388 22.272 22.272 0 0026.549 0 22.212 22.212 0 0026.536 0 22.412 22.412 0 0013.274 4.388 21.504 21.504 0 004.939-.581v-4.289a17.925 17.925 0 01-16.855-3.707l-1.371-1.236-1.358 1.236a18.129 18.129 0 01-23.819 0l-1.359-1.236-1.37 1.236a18.118 18.118 0 01-23.808 0l-1.37-1.236-1.359 1.236a18.128 18.128 0 01-23.819 0l-1.358-1.236-1.359 1.236a18.115 18.115 0 01-10.903 4.424v4.153a22.33 22.33 0 0012.262-4.351 22.386 22.386 0 0013.286 4.351zM124.263 388.705a22.282 22.282 0 0013.261-4.387 22.28 22.28 0 0026.549 0 22.213 22.213 0 0026.536 0 22.222 22.222 0 0018.226 3.819v-4.301a17.815 17.815 0 01-16.855-3.708l-1.371-1.235-1.358 1.235a18.096 18.096 0 01-11.91 4.474c-4.38 0-8.611-1.59-11.91-4.474l-1.358-1.235-1.371 1.235a18.074 18.074 0 01-23.807 0l-1.371-1.235-1.358 1.235a18.091 18.091 0 01-23.819 0l-1.359-1.235-1.358 1.235a18.119 18.119 0 01-10.903 4.425v4.152a22.315 22.315 0 0012.261-4.35 22.3 22.3 0 0013.275 4.35z" fill="#1D1D1B"/><path d="M64.436 296.115l-19.213 27.189.506.519a8.295 8.295 0 006.656 3.398c3.79-.16 7.94-3.225 11.68-8.651l2.841-4.041 7.792 9.578a7.618 7.618 0 006.174 3.053 9.03 9.03 0 006.26-3.263l-22.696-27.782zM49.087 265.453a8.729 8.729 0 00-4.038.977l-1.988 1.001-.95-2.002a12.543 12.543 0 00-23.536 2.348l-.58 2.385-2.298-.89a7.194 7.194 0 00-2.63-.494 7.281 7.281 0 00-6.952 5.116h51.862a8.963 8.963 0 00-2.776-5.981 8.95 8.95 0 00-6.114-2.46z" fill="#8C9091"/></g><defs><clipPath id="bnclip0_969_11019"><path fill="#fff" transform="translate(39 59)" d="M0 0h152v114H0z"/></clipPath><clipPath id="bnclip1_969_11019"><path d="M0 233h200c11.046 0 20 8.954 20 20v169c0 11.046-8.954 20-20 20H20c-11.046 0-20-8.954-20-20V233z" fill="#fff"/></clipPath></defs></svg>