<?xml version="1.0" encoding="utf-8"?><svg width="1920" height="570" fill="none" xmlns="http://www.w3.org/2000/svg" viewBox="0 0 1920 570"><g clip-path="url(#bqclip0_969_11145)"><path d="M1125.2 1.273c-20.68 0-37.52 16.098-37.52 35.878s16.84 35.878 37.52 35.878c20.67 0 37.51-16.097 37.51-35.878 0-19.78-16.84-35.878-37.51-35.878zm0 55.84c-11.42 0-20.73-8.957-20.73-19.962 0-11.004 9.31-19.962 20.73-19.962 11.41 0 20.72 8.958 20.72 19.962 0 11.005-9.31 19.963-20.72 19.963zM73.116 496.79H0v15.915h82.904a127.16 127.16 0 01-9.788-15.915zM0 318.536v15.916h57.716v-15.916H0zm0-162.838v15.916h59.443a59.56 59.56 0 016.333-15.916H0zm124.451 395.886V570h21.254v-7.412a151.944 151.944 0 01-21.254-11.004zM1813.81 213.039v-41.425H1923v-15.916h-381.13c-63.66 0-108.09 40.426-108.09 98.312v12.414h-2.88c-27.06 0-49.6-19.235-63.37-34.65h40.01v-15.915c-37.33 0-70.1-38.743-70.1-82.851h-16.79c0 44.108-32.72 82.805-70.04 82.851h-7.78c-.57-.273-1.05-.591-1.63-.864.63-2.319.96-4.684.96-7.094V195.26c0-14.097-10.79-25.874-24.94-28.33.38-1.819.57-3.683.57-5.547 0-17.28-16.31-31.377-36.37-31.377h-10.89c-20.05 0-36.36 14.097-36.36 31.377 0 1.773.14 3.501.48 5.183-15.5 1.319-27.64 13.688-27.64 28.694v12.641c0 1.592.1 3.183.39 4.729-14.25 2.365-25.09 14.188-25.09 28.375v12.596c0 15.916 13.62 28.83 30.36 28.83h37.43v36.878c-56.09 5.502-94.13 44.018-94.13 97.539v19.963h-34.64c-21.737 0-42.271 5.047-60.262 14.005-19.286 9.549-35.79 23.51-47.928 40.516H761.629C753.089 381.88 650.515 381.88 611.127 381.88H287.476c-9.547 0-23.461 0-39.149 1.591-2.735.273-5.565.591-8.396.955-2.782.364-5.565.819-8.396 1.319v16.052a190.266 190.266 0 018.396-1.41c2.831-.409 5.613-.773 8.396-1.046 14.825-1.546 28.642-1.546 39.149-1.546h323.651c41.307 0 125.554 0 133.614 93.537H359.537c-38.861 0-70.574 15.052-89.381 40.016-8.347 11.05-14.153 24.101-16.887 38.652h17.175c3.551-15.233 11.227-28.375 22.118-38.652 16.168-15.188 39.436-24.1 66.975-24.1h543.959c-3.838 7.639-6.908 15.688-9.019 24.1-2.447 9.322-3.695 19.099-3.695 29.194V570h16.792v-9.458c0-10.095 1.488-19.872 4.222-29.194a103.137 103.137 0 019.26-21.69 86.62 86.62 0 0040.012 12.959c1.919.182 3.838.228 5.805.228 17.704 0 35.117-5.548 49.467-15.597.48-.364.96-.637 1.44-.955.43.318.96.591 1.39.955 10.94 7.639 23.6 12.641 36.8 14.642 2.78.409 5.56.637 8.39.773.53.045 1.11.045 1.63.091v.091h2.69c1.34 0 2.73-.091 4.08-.182 16.26-.773 32.09-6.139 45.38-15.415.48-.364.96-.637 1.44-.955.43.318.91.591 1.39.955 14.4 10.049 31.81 15.597 49.47 15.597 6.14 0 12.18-.728 18.13-2.001a90.762 90.762 0 008.4-2.183c2.83-.909 5.61-2 8.4-3.228 5.61-2.501 10.98-5.502 15.97-9.14 14.63 10.686 32.63 16.552 50.9 16.552h2.69v-.091c17.32-.546 34.26-6.321 48.22-16.461 14.63 10.686 32.62 16.552 50.9 16.552s36.22-5.866 50.9-16.552c2.79 2.046 5.76 3.865 8.83 5.547 0 .046.05.046.05.046 2.73 1.501 5.47 2.91 8.35 4.093 0 .045.05.045.05.045a90.127 90.127 0 008.34 3.001h.05c8.16 2.501 16.65 3.82 25.19 3.82 12.28 0 24.37-2.683 35.41-7.64.04 0 .14 0 .19-.09V570h16.79v-57.296h49.46V570h16.8v-73.211h-39.25c19-13.869 34.16-34.377 36.61-50.975l1.29-9.049h-19c11.81-9.595 21.5-22.463 27.93-35.56 6.33 13.142 15.92 25.965 27.68 35.56h-19.14l2.11 9.549c3.69 16.734 19.04 36.833 37.56 50.475H1610l-.19 43.79-.1 15.916-.09 13.505h16.79l.09-13.505.1-15.916.14-27.875h90.34V570h16.8v-73.211h-39.2c19-13.869 34.16-34.377 36.56-50.975l1.34-9.049h-19c11.76-9.595 21.5-22.463 27.92-35.56 6.34 13.142 15.93 25.965 27.69 35.56h-19.15l2.12 9.549c3.69 16.734 18.99 36.833 37.56 50.475h-40.25l-.24 43.79-.1 15.916V570h16.75v-13.505l.14-15.916.14-27.875H1923v-15.915h-92.79c-19.81 0-47.54-23.919-57.95-44.108h37.66v-15.916c-32.77 0-59.88-44.654-59.88-67.436h-16.79c0 22.782-27.1 67.436-59.82 67.436l-2.98.046c-32.77-.046-59.83-44.7-59.83-67.482h-16.79c0 22.782-27.1 67.436-59.87 67.436l-5.95.046V422.85c0-49.747 58.39-88.398 108.62-88.398H1923v-15.916h-172.81c.05-.455.05-.955.05-1.455 0-2.274-.05-4.456-.2-6.73 36.37-21.918 63.77-56.886 63.77-97.312zm-152.67 239.642l32.48.045 18.09-.045c-6.62 14.142-22.98 30.557-39.39 38.788-15.88-8.185-32.09-24.419-39.53-38.788h28.35zm-132.94.045h15.93l28.11-.045c-7.24 15.506-26.1 33.695-44.04 40.925v-40.88zm-94.42-170.386v36.196h-81.85V282.34h81.85zm-119.36-54.022l9.06-12.459h-27.01c13.92-10.322 25.33-24.965 32.58-41.971 7.24 17.006 18.66 31.649 32.58 41.971h-27.02l9.07 12.459c6.77 9.368 20.25 25.829 38.77 38.106h-47.31v52.112h-12.18v-52.112h-47.31c18.52-12.277 32-28.738 38.77-38.106zm-23.85 3.456c-8.06 9.004-19.14 19.326-32.33 26.329.24-1.455.43-2.956.43-4.502v-12.596c0-3.228-.63-6.32-1.68-9.231h33.58zm15.59 50.566v36.196h-101.99v-36.105h24.08c.43 0 .86 0 1.3-.091h76.61zm-193.49-15.825c-7.48 0-13.57-5.775-13.57-12.914v-12.596c0-7.094 6.09-12.869 13.57-12.869h23.56l-9.79-12.686c-1.72-2.274-2.64-4.866-2.64-7.549V195.26c0-7.094 6.1-12.869 13.58-12.869h26.82l-10.22-12.778c-1.96-2.455-3.02-5.32-3.02-8.23 0-8.504 8.78-15.461 19.57-15.461h10.89c10.8 0 19.58 6.957 19.58 15.461 0 2.91-1.06 5.775-3.02 8.23l-10.27 12.778h24.04c7.53 0 13.62 5.775 13.62 12.869v12.641c0 3.411-1.49 6.048-2.73 7.594l-9.36 11.959 15.64.773c7.25.319 12.96 5.957 12.96 12.778v12.596c0 6.457-5.04 11.732-11.52 12.687-.67.136-1.39.227-2.11.227h-40.88v52.021h-20.48v-52.021h-54.22zm-39.91 150.333c0-46.155 34.06-79.031 83.72-82.078 2.49-.137 5.03-.318 7.63-.318h332.57c-18.28 9.412-34.64 22.645-46.11 38.697-3.21 4.502-6.04 9.185-8.39 14.142-4.03 8.321-6.77 17.188-7.87 26.601-.1.773-.19 9.459-.24 22.509h-361.31v-19.553zm438.65 81.26s-.15 0-.19.091c-10.65 6.184-22.84 9.503-35.41 9.503-8.68 0-17.18-1.591-25.14-4.638-.05 0-.1-.045-.1-.045-2.87-1.092-5.61-2.41-8.3-3.865-.04 0-.09-.046-.09-.046a67.994 67.994 0 01-8.3-5.275l-.1-.091c-1.25-.955-2.49-1.864-3.69-2.864l-5.14-4.457-5.18 4.457c-12.66 10.868-28.93 16.824-45.72 16.824s-33.05-5.956-45.77-16.824l-5.13-4.457-5.18 4.457c-12.67 10.868-28.93 16.824-45.73 16.824-16.79 0-33.05-5.956-45.72-16.824l-5.18-4.457-5.13 4.457a75.412 75.412 0 01-10.84 7.594c-2.74 1.546-5.52 2.864-8.4 4.047-5.95 2.364-12.19 4.001-18.62 4.729-2.59.273-5.23.454-7.91.454-2.69 0-5.28-.181-7.87-.454-8.97-1.046-17.61-3.729-25.48-7.958-4.17-2.274-8.15-4.911-11.8-7.958a4.922 4.922 0 00-.57-.454l-5.14-4.457-5.18 4.457s-.38.272-.57.454c-3.65 3.047-7.63 5.684-11.81 7.958-7.86 4.229-16.5 6.912-25.47 7.958-1.25.136-2.5.227-3.79.273-1.35.091-2.74.181-4.08.181-1.44 0-2.88-.09-4.32-.181-1.2 0-2.4-.182-3.6-.273a80.344 80.344 0 01-4.79-.682c-7.25-1.319-14.21-3.82-20.63-7.276-4.18-2.274-8.16-4.911-11.85-7.958-.15-.182-.39-.318-.58-.454l-5.13-4.457-5.18 4.457s-.39.272-.58.454c-3.65 3.047-7.63 5.684-11.8 7.958-7.871 4.229-16.507 6.912-25.431 7.958-2.638.273-5.277.454-7.916.454-1.919 0-3.886-.09-5.805-.272a33.45 33.45 0 01-2.111-.182c-8.923-1.046-17.559-3.729-25.427-7.958-1.344-.773-2.687-1.501-4.03-2.365a105.856 105.856 0 014.701-5.593c7.629-8.685 16.744-16.188 26.867-22.19 17.464-10.414 38.142-16.416 60.262-16.416h490.08v45.382zm13.14-119.366c-3.35 5.411-6.23 11.004-8.39 16.916-3.17 8.64-4.94 17.734-4.94 27.192v13.961h-60.41v-.41c.05-11.732.1-19.598.15-20.735 3.5-29.694 27.68-54.567 56.8-68.664 2.78-1.319 5.57-2.592 8.4-3.729 2.78-1.091 5.56-2.091 8.39-3.046 11.52-3.729 23.37-5.775 34.6-5.775h15.35c-20.49 10.595-38.43 25.919-49.95 44.29zm38.15-61.661c0 .5.04 1 .04 1.455h-13.09c0-.455-.05-.955-.05-1.455 0-17.052 6.28-32.74 16.79-45.109l9.31 8.822c-8.11 10.095-13 22.645-13 36.287zm109.53 1.455h-92.69c0-.455-.05-.955-.05-1.455 0-24.237 20.77-43.972 46.39-43.972s46.39 19.735 46.39 43.972c0 .5-.04 1-.04 1.455zm-93.99-57.841c11.03-8.367 24.52-13.915 39.24-15.461v12.551c-11.13 1.409-21.34 5.593-29.88 11.777l-9.36-8.867zm93.41 1.773l-7.48 7.094c-8.54-6.184-18.76-10.368-29.89-11.777v-12.551c14.73 1.546 28.21 7.094 39.24 15.461l-1.87 1.773zm30.47 56.068h-13.1c0-.455.05-.955.05-1.455 0-13.642-4.9-26.192-13.05-36.287l7.48-7.094 1.87-1.728c10.46 12.369 16.79 28.057 16.79 45.109 0 .5-.04 1-.04 1.455zm31.28 0h-14.54c0-.455.1-.955.1-1.455 0-48.61-41.74-88.217-93.08-88.217-51.33 0-93.07 39.607-93.07 88.217 0 .5.04 1 .04 1.455h-14.53v-1.455c0-56.204 48.21-101.95 107.56-101.95s107.56 45.746 107.56 101.95c0 .5 0 1-.04 1.455zm-4.03-66.663a129.398 129.398 0 00-7.15-9.185 51.754 51.754 0 00-2.59-2.911 89.25 89.25 0 00-5.47-5.547c-22.55-21.645-53.78-35.014-88.28-35.014-68.61 0-124.35 52.885-124.35 117.865v1.455h-50.96V254.01c0-48.519 37.57-82.396 91.3-82.396h205.87v41.425c0 16.325-5.28 31.604-14.15 45.246-1.3-2.183-2.74-4.32-4.22-6.412zm18.32 41.244c-.38-1.592-.76-3.183-1.2-4.729-1.24-4.729-2.83-9.322-4.65-13.779 14.01-17.916 22.69-38.879 22.69-61.57v-40.788h32.48v40.788c0 32.468-20.77 60.934-49.32 80.078zm49.8-272.018c-4.03 0-8.01.546-11.8 1.592C1775.81 8.685 1759.02 0 1740.98 0c-21.93 0-41.26 12.46-49.52 31.103-1.67-.182-3.35-.318-5.03-.318-20.68 0-37.52 15.96-37.52 35.56v7.957h189.6l1.06-6.775c.38-2.183.53-4.138.53-6.048 0-22.236-19.15-40.38-42.61-40.38zm-130.01 37.288c3.26-6.867 10.5-11.687 18.95-11.687 2.54 0 5.03.455 7.48 1.365l8.93 3.274 2.25-8.777c4.08-15.688 18.85-26.647 35.89-26.647 14.2 0 27.34 7.867 33.44 20.054l3.69 7.412 7.68-3.683c3.69-1.774 7.63-2.683 11.7-2.683 13.1 0 23.99 9.322 25.62 21.372h-155.63z" fill="#E8EDF0"/><path d="M1746.49 288.388c.44 1.591.82 3.183 1.16 4.774 0 0 .04 0 .04-.045-.38-1.592-.76-3.183-1.2-4.729zM239.931 400.387c-2.782.409-5.565.864-8.396 1.41V570h16.792V399.341c-2.783.273-5.565.637-8.396 1.046zm-94.226 162.201V570h22.549a156.588 156.588 0 01-22.549-7.412z" fill="#F3BD48"/><path d="M248.327 185.71V570h-8.396V185.71c0-39.106-40.924-70.8-82.136-70.8h-33.776c-2.303 0-4.557.09-6.764.318-.672.045-1.344.091-1.967.182-2.159.227-4.27.545-6.333.955-.24.045-.528.091-.816.136-.048.046-.096.046-.144.046-.144.045-.288.045-.432.09-.287.046-.527.137-.815.182-.384.091-.72.182-1.104.273-1.055.228-2.063.546-3.118.819-.864.227-1.727.5-2.543.773a28.4 28.4 0 00-2.783.955c-.48.136-.96.318-1.39.5a92.284 92.284 0 00-3.167 1.319h-.048c-.72.318-1.392.636-2.111 1-1.152.5-2.255 1.091-3.359 1.728-.815.409-1.583.864-2.398 1.319-.864.454-1.68.955-2.447 1.5-1.056.682-2.111 1.364-3.119 2.092a47.965 47.965 0 00-4.558 3.547c-.48.409-1.007.818-1.487 1.273-.671.546-1.295 1.137-1.919 1.728a73.83 73.83 0 00-3.31 3.365 71.119 71.119 0 00-2.975 3.41c-.48.592-.911 1.137-1.343 1.728-1.008 1.274-1.92 2.592-2.783 3.911-.288.409-.576.864-.863 1.319a75.228 75.228 0 00-3.599 6.321c-.767 1.637-1.535 3.274-2.207 5.001-.335.91-.671 1.819-1.007 2.774-.24.637-.48 1.319-.672 2.001a52.764 52.764 0 00-1.631 6.139 68.317 68.317 0 00-1.487 14.096v249.009c0 .773 0 1.5.048 2.228 0 .773 0 1.546.048 2.274.048 1.136.096 2.228.144 3.319.144 3.001.383 6.003.767 8.958.192 1.819.48 3.638.768 5.457.336 2.092.72 4.183 1.151 6.23a87.91 87.91 0 001.392 6.139c1.103 4.319 2.35 8.548 3.886 12.686.48 1.41.96 2.774 1.535 4.138.432 1.183.912 2.32 1.391 3.456 1.008 2.456 2.111 4.82 3.263 7.185a.727.727 0 00.192.318c.911 1.91 1.919 3.82 2.974 5.73 0 .091.096.227.192.318 1.056 1.91 2.16 3.82 3.31 5.684a65.997 65.997 0 002.447 3.865c1.104 1.637 2.207 3.275 3.359 4.866 1.679 2.41 3.502 4.775 5.373 7.048a31.908 31.908 0 002.015 2.41c1.2 1.456 2.447 2.911 3.79 4.32a177.054 177.054 0 008.3 8.413 117.434 117.434 0 004.414 3.956c1.103 1 2.255 1.955 3.406 2.865 1.871 1.546 3.743 3.046 5.71 4.456a89.055 89.055 0 003.598 2.592c.48.364.959.682 1.439 1l5.038 3.274a314.108 314.108 0 005.181 3.093c5.805 3.364 11.898 6.366 18.183 9.003h-18.519c-18.375-9.913-34.543-23.055-47.64-38.652-4.894-5.911-9.404-12.095-13.338-18.644a135.03 135.03 0 01-8.54-15.915c-2.303-4.911-4.27-9.913-5.997-15.051-4.99-14.824-7.676-30.604-7.676-47.019V185.71c0-4.82.48-9.503 1.343-14.096a75.207 75.207 0 014.942-15.915c.432-1.001.863-2.001 1.391-3.002 13.194-26.965 42.028-45.745 75.419-45.745h33.776c45.818 0 90.532 35.332 90.532 78.758z" fill="#E8EDF0"/><path d="M239.932 185.711V570h-8.396V185.711c0-34.651-37.182-62.844-73.74-62.844H124.02c-25.092 0-46.97 13.278-58.244 32.832a59.54 59.54 0 00-6.333 15.915c-1.151 4.502-1.727 9.231-1.727 14.097v249.008c0 22.282 5.517 43.381 15.4 62.07a127.233 127.233 0 009.788 15.916 136.327 136.327 0 0015.928 18.643c7.629 7.64 16.264 14.415 25.62 20.236a151.877 151.877 0 0021.253 11.004A156.588 156.588 0 00168.254 570h-25.619c-6.285-2.637-12.378-5.638-18.183-9.003a314.182 314.182 0 01-5.182-3.093l-5.037-3.274c-.48-.318-.96-.636-1.44-1a90.491 90.491 0 01-3.598-2.592c-1.967-1.41-3.838-2.91-5.709-4.456a66.199 66.199 0 01-3.406-2.865 117.053 117.053 0 01-4.414-3.956 177.227 177.227 0 01-8.3-8.413c-1.344-1.409-2.59-2.864-3.79-4.32a31.93 31.93 0 01-2.015-2.41 111.143 111.143 0 01-5.374-7.048c-1.151-1.591-2.255-3.228-3.358-4.865a66.356 66.356 0 01-2.447-3.866 135.941 135.941 0 01-3.31-5.684c-.096-.091-.144-.227-.192-.318a108.803 108.803 0 01-2.975-5.73.721.721 0 01-.192-.318c-1.151-2.365-2.255-4.729-3.262-7.185-.48-1.136-.96-2.273-1.391-3.456-.528-1.364-1.056-2.728-1.536-4.138-1.535-4.138-2.782-8.366-3.886-12.686a87.91 87.91 0 01-1.391-6.139 130.343 130.343 0 01-1.152-6.23c-.287-1.819-.575-3.638-.767-5.457-.384-2.955-.624-5.957-.768-8.958-.048-1.091-.096-2.183-.144-3.319-.048-.728-.048-1.501-.048-2.274-.048-.728-.048-1.455-.048-2.228V185.711c0-4.821.528-9.55 1.488-14.097.431-2.092.96-4.138 1.63-6.139.193-.682.433-1.364.672-2.001.336-.955.672-1.864 1.008-2.773.672-1.728 1.44-3.365 2.207-5.002a75.228 75.228 0 013.598-6.321c.288-.455.576-.91.864-1.319.863-1.319 1.775-2.637 2.782-3.911.432-.591.864-1.136 1.344-1.727a70.72 70.72 0 012.974-3.411 73.777 73.777 0 013.31-3.365c.624-.591 1.248-1.182 1.92-1.728.48-.455 1.007-.864 1.487-1.273a47.965 47.965 0 014.558-3.547c1.007-.728 2.063-1.41 3.118-2.092a21.513 21.513 0 012.447-1.5c.816-.455 1.583-.91 2.399-1.319 1.103-.637 2.207-1.228 3.358-1.728.72-.364 1.392-.682 2.111-1h.048c1.056-.455 2.111-.91 3.167-1.319.431-.182.911-.364 1.391-.5a28.4 28.4 0 012.783-.955c.815-.273 1.679-.546 2.542-.773 1.056-.273 2.063-.591 3.119-.819.384-.091.72-.182 1.103-.273.288-.045.528-.136.816-.181.144-.046.288-.046.432-.091.048 0 .096 0 .144-.046.288-.045.575-.091.815-.136a70.053 70.053 0 016.333-.955c.624-.091 1.296-.137 1.967-.182 2.207-.228 4.462-.318 6.765-.318h33.776c41.211 0 82.136 31.694 82.136 70.801z" fill="#E8EDF0"/></g><defs><clipPath id="bqclip0_969_11145"><path fill="#fff" d="M0 0h1923v570H0z"/></clipPath></defs></svg>