<?xml version="1.0" encoding="utf-8"?><svg width="35" height="35" fill="none" xmlns="http://www.w3.org/2000/svg" viewBox="0 0 35 35"><rect width="35" height="35" rx="3.6" fill="#F3BD48"/><path d="M21.192 18.2c0 4.246-3.497 7.7-7.796 7.7-4.3 0-7.796-3.454-7.796-7.7s3.497-7.7 7.796-7.7c1.734 0 3.377.551 4.751 1.595l-1.81 2.325a4.825 4.825 0 00-2.941-.987c-2.662 0-4.826 2.139-4.826 4.767 0 2.628 2.165 4.767 4.826 4.767a4.83 4.83 0 004.592-3.3h-4.592v-2.934h7.796V18.2zm8.208.959h-2.234v2.206h-1.942v-2.206h-2.232V17.24h2.232v-2.206h1.942v2.206H29.4v1.918z" fill="#163029"/></svg>