<?xml version="1.0" encoding="utf-8"?><svg width="73" height="84" fill="none" xmlns="http://www.w3.org/2000/svg" viewBox="0 0 73 84"><path fill-rule="evenodd" clip-rule="evenodd" d="M65.826 9.52a61.486 61.486 0 01-26.323-7.532l.14-.244L36.67.026 36.654 0 36.64.01 36.624 0l-.016.026-3.144 1.816.131.227A61.487 61.487 0 017.421 9.52v-.004H.5V47.5c0 19.95 16.173 36.123 36.123 36.123s36.124-16.173 36.124-36.123V9.516h-6.92v.004zM7.421 16.45A68.414 68.414 0 0036.624 8.3a68.416 68.416 0 0029.202 8.15V47.5c0 16.129-13.074 29.203-29.203 29.203-16.128 0-29.202-13.074-29.202-29.202V16.45zm49.276 17.028L34.514 59.056l-14.35-12.358 4.516-5.244 9.124 7.857L51.47 28.944l5.228 4.534z" fill="#56CCF2"/></svg>