<?xml version="1.0" encoding="utf-8"?><svg width="225" height="37" fill="none" xmlns="http://www.w3.org/2000/svg" viewBox="0 0 225 37"><path d="M36.64 3h16.8v6.912h-9.6V27h-7.2V3zM56.405 3H75.99v24h-7.2V9.912h-5.184v7.152c0 3.648-.912 6.32-2.736 8.016-1.792 1.696-4.432 2.336-7.92 1.92v-6.72c1.12.32 1.968.16 2.544-.48.608-.64.912-1.712.912-3.216V3zM98.69 5.256V3h7.2v24h-7.2v-2.256c-1.664 1.952-4.048 2.928-7.152 2.928-3.168 0-5.872-1.216-8.112-3.648-2.24-2.432-3.36-5.44-3.36-9.024 0-3.552 1.12-6.544 3.36-8.976 2.272-2.464 4.976-3.696 8.112-3.696 3.104 0 5.488.976 7.152 2.928zM87.266 15c0 1.792.528 3.216 1.584 4.272s2.432 1.584 4.128 1.584c1.696 0 3.072-.528 4.128-1.584S98.69 16.792 98.69 15c0-1.792-.528-3.216-1.584-4.272s-2.432-1.584-4.128-1.584c-1.696 0-3.072.528-4.128 1.584s-1.584 2.48-1.584 4.272zM129.076 14.712c2.144 1.152 3.216 2.96 3.216 5.424 0 2.08-.72 3.744-2.16 4.992-1.44 1.248-3.44 1.872-6 1.872h-12.96V3h12c2.56 0 4.56.624 6 1.872 1.44 1.248 2.16 2.912 2.16 4.992 0 2.112-.752 3.728-2.256 4.848zm-6.672-5.952h-4.512v3.36h4.512c1.408 0 2.112-.544 2.112-1.632 0-1.152-.704-1.728-2.112-1.728zm-4.512 12.288h5.28c1.408 0 2.112-.592 2.112-1.776 0-1.12-.704-1.68-2.112-1.68h-5.28v3.456zM151.235 11.64V3h7.2v24h-7.2v-8.64h-8.16V27h-7.2V3h7.2v8.64h8.16zM174.327 17.736L178.839 3h7.68l-8.208 23.28c-2.528 7.232-7.088 10.672-13.68 10.32v-6.72c1.632 0 2.88-.24 3.744-.72.864-.48 1.568-1.344 2.112-2.592L161.079 3h7.68l5.568 14.736zM211.492 2.328c3.552 0 6.56 1.232 9.024 3.696 2.464 2.464 3.696 5.456 3.696 8.976 0 3.552-1.232 6.56-3.696 9.024-2.432 2.432-5.44 3.648-9.024 3.648-2.944 0-5.52-.864-7.728-2.592-2.176-1.696-3.632-3.936-4.368-6.72h-3.024V27h-7.2V3h7.2v8.64h3.024c.736-2.784 2.192-5.024 4.368-6.72 2.208-1.728 4.784-2.592 7.728-2.592zm-3.984 16.752c1.056 1.056 2.384 1.584 3.984 1.584s2.912-.528 3.936-1.584c1.056-1.056 1.584-2.416 1.584-4.08 0-1.664-.528-3.024-1.584-4.08-1.024-1.056-2.336-1.584-3.936-1.584s-2.928.528-3.984 1.584c-1.024 1.088-1.536 2.448-1.536 4.08 0 1.632.512 2.992 1.536 4.08z" fill="#A0C966"/><path fill-rule="evenodd" clip-rule="evenodd" d="M9.95 15l9.525-9.525-4.95-4.95L.052 15l14.475 14.475 4.95-4.95L9.95 15z" fill="#A0C966"/></svg>