<?xml version="1.0" encoding="utf-8"?><svg width="59" height="45" xmlns="http://www.w3.org/2000/svg" viewBox="0 0 59 45"><path d="M33.58 10.755a1.007 1.007 0 01-.962-1.302 3.12 3.12 0 00-3.006-3.981 3.128 3.128 0 00-3.073 2.551 3.12 3.12 0 00.067 1.43 1.004 1.004 0 01-1.433 1.184 1.003 1.003 0 01-.49-.593 4.958 4.958 0 012.662-5.975 4.972 4.972 0 012.315-.452 4.972 4.972 0 014.097 1.958 4.96 4.96 0 01.791 4.469 1.006 1.006 0 01-.968.71z"/><path d="M28.005 5.473c-.265 0-.52-.104-.708-.29a.99.99 0 01-.293-.703V1.877a.99.99 0 01.293-.703 1.005 1.005 0 011.416 0 .99.99 0 01.294.703v2.607a.99.99 0 01-.295.7c-.188.185-.442.29-.707.29zM31.23 5.473c-.265 0-.52-.104-.707-.29a.99.99 0 01-.293-.703V1.877a.99.99 0 01.293-.703 1.005 1.005 0 011.416 0 .99.99 0 01.293.703v2.607a.99.99 0 01-.294.7c-.188.185-.442.29-.707.29zM37.886 17.875a1.008 1.008 0 01-1.008-1.004v-1.314a4.802 4.802 0 00-1.408-3.398 4.811 4.811 0 00-3.4-1.407H27.16a4.811 4.811 0 00-4.809 4.805v1.314a1.006 1.006 0 01-1.72.712 1.006 1.006 0 01-.295-.712v-1.314a6.822 6.822 0 012.002-4.817A6.835 6.835 0 0127.16 8.74h4.908a6.834 6.834 0 014.821 2 6.821 6.821 0 012 4.816v1.314a1.003 1.003 0 01-1.004 1.004z"/><path d="M31.762 37.742h-4.304a10.14 10.14 0 01-7.156-2.964 10.12 10.12 0 01-2.97-7.15v-7.91a3.86 3.86 0 013.86-3.844h16.832a3.863 3.863 0 013.847 3.844v7.91a10.121 10.121 0 01-2.963 7.144 10.14 10.14 0 01-7.146 2.97zm-10.58-19.867a1.847 1.847 0 00-1.845 1.843v7.91a8.106 8.106 0 002.384 5.727 8.122 8.122 0 005.737 2.37h4.304a8.122 8.122 0 005.732-2.375 8.106 8.106 0 002.379-5.726v-7.906a1.844 1.844 0 00-1.842-1.843h-16.85zM22.164 13.585a1.011 1.011 0 01-.722-.294l-3.63-3.627a1.013 1.013 0 01-.296-.72V1.351a1.006 1.006 0 011.72-.712c.189.189.295.445.295.712v7.183l3.335 3.332a1.006 1.006 0 01-.721 1.718h.019zM37.054 13.585a1.008 1.008 0 01-.721-1.718l3.335-3.332V1.352a1.006 1.006 0 012.015 0v7.6a1.004 1.004 0 01-.296.722L37.758 13.3c-.189.182-.441.284-.704.284z"/><path d="M18.339 22.224a1.012 1.012 0 01-.722-.294l-6.973-6.966H6.42v4.305a1.006 1.006 0 01-1.72.711 1.006 1.006 0 01-.295-.711v-5.305a1.006 1.006 0 011.008-1.006h5.646a1 1 0 01.721.295l7.262 7.253a1.005 1.005 0 01-.721 1.718h.017zM40.881 22.223a1.008 1.008 0 01-.721-1.717l7.26-7.253a1.006 1.006 0 01.72-.295h5.649a1.01 1.01 0 011.008 1.006v5.305a1.006 1.006 0 01-1.008 1.006 1.008 1.008 0 01-1.008-1.006V14.97H48.56l-6.973 6.967a1.008 1.008 0 01-.705.285zM9.477 44.781a1.008 1.008 0 01-.722-1.717l3.449-3.445V31.93a1.007 1.007 0 01.293-.72l5.122-5.117a1.009 1.009 0 011.426 1.424l-4.829 4.82v7.699a1.014 1.014 0 01-.293.72l-3.744 3.739a.996.996 0 01-.702.285zM49.744 44.781a1.002 1.002 0 01-.721-.295l-3.742-3.738a1.004 1.004 0 01-.296-.72v-7.693l-4.826-4.82a1.006 1.006 0 01.714-1.708c.265-.002.52.1.71.284l5.121 5.117a1 1 0 01.296.72v7.688l3.446 3.445a1.006 1.006 0 01-.721 1.718l.019.002zM57.93 35.02a1.005 1.005 0 01-.773.104l-5.11-1.366a1.006 1.006 0 01-.616-.477l-3.846-6.661-6.59-1.76a1.007 1.007 0 01.521-1.946l6.995 1.87a1 1 0 01.616.477l3.844 6.657 4.706 1.26a1.006 1.006 0 01.234 1.849l.018-.008zM1.52 35.02a1.004 1.004 0 00.772.104l5.11-1.366a1.007 1.007 0 00.616-.477l3.846-6.661 6.59-1.76a1.006 1.006 0 00-.521-1.946l-6.994 1.87a1 1 0 00-.617.477l-3.844 6.657-4.706 1.26a1.006 1.006 0 00-.234 1.849l-.018-.008zM29.61 37.742a1.008 1.008 0 01-1.008-1.006v-9.931a1.006 1.006 0 011.72-.712c.189.189.295.445.295.712v9.93a1.002 1.002 0 01-1.008 1.008z"/></svg>