<?xml version="1.0" encoding="utf-8"?><svg width="43" height="52" xmlns="http://www.w3.org/2000/svg" viewBox="0 0 43 52"><path d="M17.577 18.28a1.033 1.033 0 01-1.026-.907c-.027-.222-.638-5.432 1.688-8.051a4.76 4.76 0 016.964 0c2.326 2.627 1.713 7.829 1.686 8.051a1.022 1.022 0 01-1.152.899 1.035 1.035 0 01-.902-1.15c.15-1.248.232-4.832-1.186-6.432a2.675 2.675 0 00-3.86 0c-1.422 1.607-1.338 5.184-1.184 6.419a1.027 1.027 0 01-.9 1.153.76.76 0 01-.128.017z"/><path d="M21.715 51.782a1.047 1.047 0 01-.776-.349l-9.885-11.13a14.646 14.646 0 01-3.707-9.728 14.346 14.346 0 014.273-10.027 14.373 14.373 0 0120.183 0 14.346 14.346 0 014.273 10.027 14.646 14.646 0 01-3.707 9.728l-9.885 11.13a1.038 1.038 0 01-.769.349zm0-33.49a12.313 12.313 0 00-8.69 3.6 12.29 12.29 0 00-3.605 8.683 12.558 12.558 0 003.176 8.353l9.12 10.261 9.116-10.261a12.559 12.559 0 003.176-8.353 12.29 12.29 0 00-3.6-8.69 12.313 12.313 0 00-8.693-3.606v.013zM1.916 22.284a1.036 1.036 0 01-1.025-1.233c.04-.202.139-.387.284-.532l6.475-6.467a1.023 1.023 0 01.741-.303h9.122a1.036 1.036 0 01.732 1.766 1.036 1.036 0 01-.732.303H8.816L2.638 21.99a1.038 1.038 0 01-.722.294zM41.524 22.284a1.04 1.04 0 01-.742-.301l-6.178-6.173h-8.69a1.036 1.036 0 01-.732-1.766c.194-.194.458-.303.732-.303h9.145a1.036 1.036 0 01.74.304l6.476 6.466a1.034 1.034 0 01-.742 1.766l-.01.007zM18.1 12.638a1.03 1.03 0 01-.74-.304l-4.815-4.81a1.035 1.035 0 01-.302-.74V1.085a1.036 1.036 0 112.069 0v5.281l4.51 4.506a1.033 1.033 0 01-.741 1.766h.02zM25.339 12.638a1.036 1.036 0 01-1.025-1.234c.04-.201.138-.386.284-.532l4.53-4.506v-5.28a1.034 1.034 0 011.767-.732c.195.194.304.457.304.731v5.708a1.036 1.036 0 01-.304.741l-4.815 4.81a1.029 1.029 0 01-.741.294zM20.5 10.055a1.032 1.032 0 01-.88-.494l-3.003-4.83a1.034 1.034 0 011.485-1.404c.11.085.203.192.272.313l3.002 4.83a1.035 1.035 0 01-.333 1.424c-.162.105-.351.16-.544.16zM22.95 10.055a1.036 1.036 0 01-.88-1.58l3.003-4.83a1.036 1.036 0 011.76 1.092l-3.005 4.83a1.028 1.028 0 01-.877.488z"/></svg>