<?xml version="1.0" encoding="utf-8"?><svg width="42" height="51" xmlns="http://www.w3.org/2000/svg" viewBox="0 0 42 51"><path d="M23.986 22.63h-.016a1.008 1.008 0 01-.991-1.023l.067-4.425a2.046 2.046 0 00-2.052-1.898 2.05 2.05 0 00-2.036 1.915l.07 4.408a1.004 1.004 0 01-.99 1.023h-.017a1.008 1.008 0 01-1.006-.99l-.072-4.427a4.057 4.057 0 012.502-3.755 4.067 4.067 0 014.43.872 4.058 4.058 0 011.196 2.869l-.067 4.442a1.006 1.006 0 01-1.018.99z"/><path d="M21.06 28.29c-1.508-.084-4.126-1.369-4.126-5.633 0-1.898.507-3.296 1.507-4.154a4.33 4.33 0 015.113 0c1 .86 1.507 2.258 1.507 4.156 0 4.262-2.618 5.547-4.001 5.631zm-.308-8.62a1.54 1.54 0 00-1.015.375c-.514.457-.788 1.363-.788 2.612 0 3.327 1.909 3.603 2.125 3.625.065-.022 1.972-.298 1.972-3.625 0-1.252-.272-2.162-.786-2.614a1.559 1.559 0 00-1.126-.367 1.03 1.03 0 01-.271 0s-.048-.005-.11-.005z"/><path d="M20.626 41.465a1.006 1.006 0 01-.83-.437c-4.417-6.443-1.397-14.414-1.265-14.755a.999.999 0 011.301-.572 1.007 1.007 0 01.577 1.3c-.028.072-2.76 7.336 1.046 12.888a1.005 1.005 0 01-.83 1.576z"/><path d="M21.367 41.465a1.009 1.009 0 01-1.005-1.066c.01-.183.071-.36.175-.51 3.809-5.552 1.08-12.817 1.048-12.889a1.006 1.006 0 011.347-1.256c.241.103.432.295.534.536.132.336 3.15 8.312-1.267 14.755a1.007 1.007 0 01-.832.43zM17.941 18.205a1.016 1.016 0 01-.48-.117l-4.17-2.223a1.011 1.011 0 01-.51-.675l-1.22-5.638L3.639 2.2A1.007 1.007 0 115.01.726l8.152 7.565c.15.139.255.32.298.521l1.202 5.494 3.759 2.002a1.006 1.006 0 01-.481 1.895l.002.002zM24.064 18.205a1.008 1.008 0 01-.929-1.414c.092-.206.25-.375.449-.481l3.758-2.001 1.202-5.494c.045-.2.15-.383.3-.522L36.998.728a1.006 1.006 0 011.368 1.473l-7.919 7.351-1.23 5.639a1.011 1.011 0 01-.51.675l-4.168 2.222a1.025 1.025 0 01-.474.117zM6.751 26.397a5.054 5.054 0 01-1.41-.182c-2.644-.774-4.26-2.1-4.426-3.64-.075-.692.096-2.015 2.1-3.123 3.09-1.696 14.095.151 15.338.368a1.008 1.008 0 01.368 1.84c-.846.54-7.618 4.737-11.97 4.737zm.69-5.643c-1.577 0-2.84.135-3.46.48-.69.378-1.099.813-1.063 1.132.04.375.721 1.261 2.991 1.922 1.924.557 6.048-1.15 9.304-2.902a63.064 63.064 0 00-7.78-.632h.008zM35.251 26.397c-4.36 0-11.133-4.196-11.97-4.727a1.005 1.005 0 01.366-1.84c1.243-.217 12.246-2.064 15.343-.368 2.001 1.098 2.165 2.421 2.097 3.123-.168 1.54-1.784 2.866-4.43 3.64a5.037 5.037 0 01-1.406.172zm-8.462-5.016c3.259 1.754 7.4 3.477 9.301 2.902 2.275-.663 2.953-1.55 2.994-1.922.036-.322-.363-.744-1.063-1.129-1.517-.836-6.891-.44-11.232.15zM4.062 40.694a1.008 1.008 0 01-.652-1.776l5.65-4.783.963-5.431a.996.996 0 01.372-.618l6.44-5.018a1.009 1.009 0 011.652.91 1.005 1.005 0 01-.414.675l-6.134 4.78-.962 5.409a.985.985 0 01-.341.593l-5.928 5.018c-.18.154-.41.24-.646.24zM37.89 40.694c-.239 0-.47-.085-.651-.24l-5.928-5.019a.997.997 0 01-.341-.593l-.962-5.408-6.137-4.778a1.006 1.006 0 01.89-1.765c.127.035.247.095.351.177l6.442 5.016c.195.154.327.375.37.62l.962 5.431 5.651 4.783a1.007 1.007 0 01-.652 1.776h.005zM10.037 50.781a1.01 1.01 0 01-.842-1.561l4.545-6.902-.962-6.936a1.011 1.011 0 01.219-.776l5.023-6.119a1.008 1.008 0 011.558 1.276l-4.744 5.78.962 6.873c.034.242-.022.488-.156.692l-4.754 7.207a1.01 1.01 0 01-.85.466z"/><path d="M31.956 50.781a1.01 1.01 0 01-.841-.454L26.36 43.12a1.03 1.03 0 01-.156-.692l.962-6.873-4.742-5.78a1.006 1.006 0 01.881-1.622c.262.023.505.147.677.346l5.02 6.12a.994.994 0 01.22.775l-.962 6.936 4.544 6.902a1.004 1.004 0 01-.288 1.393.988.988 0 01-.56.156zM20.998 15.15a1.006 1.006 0 01-1.008-1.007V3.686a1.006 1.006 0 012.015 0v10.457a1.006 1.006 0 01-1.007 1.007z"/></svg>