<?xml version="1.0" encoding="utf-8"?><svg width="48" height="50" xmlns="http://www.w3.org/2000/svg" viewBox="0 0 48 50"><path d="M27.522 13.66a.994.994 0 01-1.006-.93 1.003 1.003 0 01.246-.73c1.318-1.507 1.878-2.78 1.578-3.582-.38-1.012-2.177-1.598-3.732-1.812a4.26 4.26 0 00-1.186 0c-1.553.214-3.35.8-3.73 1.812-.3.802.263 2.075 1.578 3.582a1.006 1.006 0 01-.829 1.666 1.008 1.008 0 01-.69-.343c-1.879-2.162-2.533-4.038-1.944-5.612.816-2.162 3.696-2.882 5.341-3.099a6.429 6.429 0 011.731 0c1.647.226 4.53.928 5.346 3.1.589 1.573-.063 3.461-1.943 5.611a1.008 1.008 0 01-.76.337z"/><path d="M24.102 28.873c-2.917-.24-8.109-2.414-8.109-8.975 0-2.842.948-5.112 2.814-6.745a8.04 8.04 0 0110.414 0c1.868 1.63 2.813 3.901 2.813 6.745 0 6.561-5.186 8.74-7.932 8.976zm-.087-15.632a5.887 5.887 0 00-3.879 1.428c-1.411 1.232-2.125 2.993-2.125 5.23 0 6.332 5.848 6.947 6.098 6.966.067-.024 5.913-.639 5.913-6.967 0-2.239-.722-4-2.124-5.23a5.896 5.896 0 00-3.883-1.426z"/><path d="M5.227 45.625c-.194 0-.384 0-.572-.024-1.972-.178-3.38-1.304-3.97-3.171-2.967-9.413 15-22.198 15.765-22.736a1.008 1.008 0 011.544.996c-.04.257-.176.49-.383.647C12.725 24.78.507 35.17 2.606 41.825c.349 1.102 1.056 1.664 2.232 1.772 4.148.385 11.898-5.064 14.72-10.402.9-1.7 1.66-4.105.174-5.905a1.008 1.008 0 01.113-1.443 1.008 1.008 0 011.44.163c1.734 2.102 1.753 4.91.053 8.125-3.126 5.905-11.044 11.49-16.11 11.49zM42.803 45.625c-5.064 0-12.985-5.585-16.111-11.49-1.7-3.215-1.683-6.023.053-8.125a1.008 1.008 0 111.553 1.28c-1.483 1.8-.721 4.204.173 5.905 2.821 5.336 10.51 10.76 14.721 10.402 1.174-.108 1.886-.67 2.232-1.773 2.1-6.654-10.121-17.044-15.002-20.487a1.005 1.005 0 111.159-1.643c.767.538 18.732 13.324 15.764 22.736-.589 1.867-1.998 2.993-3.97 3.171a6.366 6.366 0 01-.572.024z"/><path d="M29.219 42.554l.611-2.62c.25-1.07.293-2.14.162-3.152l2.073 1.857a11.95 11.95 0 01-.29 1.976l-.611 2.619c-.905 3.875-3.798 6.547-7.091 6.547s-6.186-2.672-7.09-6.547l-.612-2.62a11.948 11.948 0 01-.306-2.285l2.089-1.547a8.882 8.882 0 00.162 3.152l.611 2.62c.657 2.812 2.756 4.751 5.146 4.751s4.49-1.939 5.146-4.751zM19.965 6.83a1.01 1.01 0 01-.454-1.137l1.138-4.142a1.007 1.007 0 111.942.542l-1.148 4.139a1.006 1.006 0 01-1.478.597zM28.241 6.832a1.013 1.013 0 01-1.475-.602L25.618 2.09A1.007 1.007 0 0127.084.943a1.005 1.005 0 01.476.607l1.148 4.138a1.013 1.013 0 01-.467 1.144zM18.601 15.826c-.11 0-.218-.017-.322-.052l-6.413-2.162a1.005 1.005 0 01-.683-.961V9.37C9.572 6.772 7.706 4.857 7.081 4.857h-.034a1.006 1.006 0 01-1.222-1.463 1.005 1.005 0 01.671-.458C8.88 2.24 11.889 6.65 13.055 8.58c.094.157.144.336.144.519v2.842l5.735 1.926a1.005 1.005 0 01-.322 1.958h-.01zM29.425 15.826a1.005 1.005 0 01-.322-1.957l5.73-1.94V9.089a.99.99 0 01.144-.519c1.164-1.922 4.124-6.347 6.558-5.645a1.007 1.007 0 01-.556 1.921c-.632-.03-2.491 1.865-4.131 4.514v3.282a1.003 1.003 0 01-.685.96l-6.413 2.163c-.105.038-.214.06-.325.063zM12.682 24.941a1.009 1.009 0 01-.774-.36l-2.55-3.059H1.357a1.008 1.008 0 01-.712-1.718 1.007 1.007 0 01.712-.295H9.83a1.005 1.005 0 01.772.36l2.859 3.42a1.008 1.008 0 01-.772 1.652h-.007zM35.341 24.94a.99.99 0 01-.644-.24 1.006 1.006 0 01-.13-1.417l2.861-3.418a1.007 1.007 0 01.775-.36h8.471a1.008 1.008 0 110 2.013h-8.002l-2.559 3.058a1.002 1.002 0 01-.772.365z"/></svg>