<?xml version="1.0" encoding="utf-8"?><svg width="73" height="51" xmlns="http://www.w3.org/2000/svg" viewBox="0 0 73 51"><path d="M39.435 22.63h-.017a1.009 1.009 0 01-.99-1.023l.067-4.425a2.046 2.046 0 00-2.052-1.898 2.05 2.05 0 00-2.036 1.915l.07 4.408a1.004 1.004 0 01-.991 1.023h-.017a1.008 1.008 0 01-1.005-.99l-.072-4.427a4.057 4.057 0 012.502-3.755 4.066 4.066 0 015.625 3.74l-.067 4.443a1.006 1.006 0 01-1.017.99z"/><path d="M36.508 28.29c-1.508-.084-4.126-1.369-4.126-5.633 0-1.898.507-3.296 1.508-4.154a4.331 4.331 0 015.112 0c1 .86 1.508 2.258 1.508 4.156 0 4.262-2.62 5.547-4.002 5.631zm-.308-8.62a1.54 1.54 0 00-1.014.375c-.515.457-.79 1.363-.79 2.612 0 3.327 1.91 3.603 2.127 3.625.064-.022 1.971-.298 1.971-3.625 0-1.252-.271-2.162-.786-2.614a1.56 1.56 0 00-1.125-.367 1.03 1.03 0 01-.272 0s-.048-.005-.11-.005z"/><path d="M36.074 41.465a1.005 1.005 0 01-.83-.437c-4.417-6.444-1.397-14.415-1.264-14.756a.998.998 0 011.3-.571 1.007 1.007 0 01.578 1.3c-.03.071-2.76 7.336 1.046 12.888a1.005 1.005 0 01-.83 1.576z"/><path d="M36.817 41.465a1.008 1.008 0 01-.83-1.576c3.81-5.552 1.08-12.817 1.049-12.889a1.006 1.006 0 011.347-1.256c.24.103.431.295.533.535.132.337 3.15 8.313-1.267 14.756a1.008 1.008 0 01-.832.43zM33.387 18.205a1.017 1.017 0 01-.48-.117l-4.17-2.223a1.011 1.011 0 01-.51-.675l-1.22-5.638L19.086 2.2a1.007 1.007 0 111.37-1.473l8.152 7.565c.15.139.255.32.298.521l1.203 5.494 3.758 2.002a1.007 1.007 0 01-.481 1.895l.002.002zM39.513 18.205a1.009 1.009 0 01-.93-1.414c.092-.206.25-.375.449-.481l3.758-2.001 1.203-5.494a1 1 0 01.3-.522L52.445.728a1.006 1.006 0 011.368 1.473l-7.918 7.351-1.232 5.638a1.011 1.011 0 01-.51.675l-4.166 2.223a1.025 1.025 0 01-.474.117zM61.61 13.328c-7.946 0-20.294 5.313-21.819 5.985-.314.136-.56.336-.708.573a.918.918 0 00-.114.75c.072.253.253.484.519.663.266.18.604.3.97.343 2.265.273 22.322 2.611 27.968.465 3.646-1.39 3.945-3.065 3.822-3.953-.307-1.95-3.252-3.627-8.074-4.607a13.03 13.03 0 00-2.564-.219zm-18.106 6.558c5.939-2.22 14.775-5.34 19.625-4.677 4.021.55 7.258 2.15 7.258 3.226 0 1.077-2.15 1.742-4.57 2.201-3.495.663-12.097.663-22.313-.75zM11.42 13.328c7.946 0 20.293 5.313 21.818 5.985.314.136.561.336.708.573a.918.918 0 01.115.75c-.073.253-.254.484-.52.663-.265.18-.603.3-.97.343-2.265.273-22.322 2.611-27.967.465C.957 20.717.659 19.042.782 18.154c.306-1.95 3.252-3.627 8.073-4.607a13.03 13.03 0 012.564-.219zm18.105 6.558c-5.938-2.22-14.774-5.34-19.624-4.677-4.022.55-7.259 2.15-7.259 3.226 0 1.077 2.15 1.742 4.57 2.201 3.495.663 12.098.663 22.314-.75zM19.51 40.873a1.01 1.01 0 01-.976-1.264c.053-.2.166-.378.324-.511l5.651-4.783.962-5.432a.997.997 0 01.372-.617l6.44-5.019a1.008 1.008 0 111.239 1.586l-6.135 4.78-.962 5.408a.984.984 0 01-.341.593l-5.927 5.019c-.18.154-.41.239-.647.24zM53.34 40.845c-.24 0-.47-.086-.652-.24l-5.928-5.02a.997.997 0 01-.341-.593l-.962-5.407-6.137-4.778a1.01 1.01 0 01-.174-1.414 1.008 1.008 0 011.415-.174l6.442 5.016c.195.154.327.375.37.62l.962 5.431 5.651 4.783a1.007 1.007 0 01-.651 1.776h.004zM25.485 50.781a1.01 1.01 0 01-.842-1.562l4.545-6.901-.962-6.936a1.013 1.013 0 01.22-.776l5.022-6.119a1.008 1.008 0 011.559 1.276l-4.745 5.78.962 6.873c.034.242-.022.488-.156.692l-4.754 7.207a1.01 1.01 0 01-.849.466z"/><path d="M47.406 50.781a1.01 1.01 0 01-.842-.454L41.81 43.12a1.03 1.03 0 01-.156-.692l.962-6.873-4.742-5.78a1.006 1.006 0 011.558-1.276l5.02 6.12a.994.994 0 01.22.775l-.962 6.936 4.544 6.902a1.003 1.003 0 01-.288 1.393.988.988 0 01-.56.156zM36.447 15.15a1.006 1.006 0 01-1.008-1.007V3.686a1.006 1.006 0 011.72-.712c.19.189.296.445.296.712v10.457a1.006 1.006 0 01-1.008 1.007z"/></svg>