<?xml version="1.0" encoding="utf-8"?><svg width="60" height="49" xmlns="http://www.w3.org/2000/svg" viewBox="0 0 60 49"><path d="M42.49 31.666c-.096-3.857-1.869-8.008-4.657-10.929.177.495.365.994.555 1.498.961 2.536 2.047 5.399 2.099 9.442v.318c0 6.26-5.197 11.96-10.901 11.96s-10.902-5.7-10.902-11.96v-.318c.052-4.043 1.136-6.906 2.097-9.442.2-.504.38-.993.557-1.498-2.788 2.923-4.56 7.074-4.656 10.929v.327c0 3.416 1.362 6.91 3.735 9.58 1.826 2.054 4.055 3.435 6.45 4.031.657.166 1.328.27 2.004.312a10.649 10.649 0 001.49-.004 11.192 11.192 0 002.003-.322c2.37-.596 4.576-1.987 6.389-4.017 2.375-2.67 3.737-6.16 3.737-9.58.004-.109.004-.218 0-.327zM32.768 5.741a7.537 7.537 0 00-2.003-.645 6.989 6.989 0 00-2.291-.008 7.425 7.425 0 00-2.003.626c-3.605 1.698-6.11 6.123-6.11 10.046.004 1.597.387 3.17 1.119 4.592.032-.092.062-.185.092-.276.03-.092.062-.185.09-.277a17.908 17.908 0 00.247-.838l.072-.28a11.117 11.117 0 00.18-.823v-.036a10.956 10.956 0 00.134-.91l.024-.25c0-.1.016-.199.02-.298.004-.1.01-.183.012-.276.002-.094 0-.219 0-.328 0-3.974 3.225-8.777 7.226-8.777 4.002 0 7.224 4.803 7.224 8.777 0 1.631.379 3.113.886 4.592a10.12 10.12 0 001.117-4.592c.012-3.899-2.463-8.298-6.036-10.019z"/><path d="M42.493 31.994H40.49v-.318c-.052-4.044-1.137-6.907-2.099-9.443-.19-.504-.378-.993-.554-1.498-.044-.127-.09-.254-.132-.381-.507-1.479-.886-2.96-.886-4.592h2.003c0 1.957.671 3.727 1.446 5.776 1.02 2.692 2.175 5.734 2.227 10.134-.002.103-.002.212-.002.322zM22.364 15.76v.327c0 .094 0 .185-.012.277-.012.091-.012.198-.02.298l-.024.25a10.956 10.956 0 01-.134.91v.036c-.016.085-.032.17-.05.254a9.38 9.38 0 01-.13.569l-.073.28a17.903 17.903 0 01-.336 1.115c-.032.09-.06.184-.092.276l-.132.38a73.13 73.13 0 01-.557 1.497c-.961 2.536-2.045 5.399-2.097 9.443v.317h-2.003v-.328c.052-4.395 1.202-7.437 2.225-10.133.777-2.049 1.446-3.82 1.446-5.776l1.989.008zM27.472 7.136c-.266 0-.52-.104-.708-.29a.99.99 0 01-.293-.703V1.926a.99.99 0 01.293-.702 1.005 1.005 0 011.416 0 .99.99 0 01.294.702v4.22a.99.99 0 01-.295.7c-.188.186-.442.29-.707.29zM31.768 7.136c-.266 0-.52-.104-.708-.29a.99.99 0 01-.293-.703V1.926a.99.99 0 01.293-.702 1.005 1.005 0 011.416 0 .99.99 0 01.293.702v4.22a.99.99 0 01-.294.7c-.188.186-.442.29-.707.29zM27.873 48.781c-.265 0-.52-.104-.708-.29a.99.99 0 01-.293-.703v-2.841a.99.99 0 01.293-.703 1.005 1.005 0 011.417 0 .99.99 0 01.293.703v2.841a.99.99 0 01-.293.703c-.188.186-.443.29-.709.29zM31.367 48.781c-.266 0-.52-.104-.709-.29a.99.99 0 01-.293-.703v-2.841a.99.99 0 01.294-.703 1.005 1.005 0 011.416 0 .99.99 0 01.293.703v2.841a.99.99 0 01-.293.703c-.188.186-.443.29-.708.29z"/><path d="M29.588 44.947c-.265 0-.52-.105-.708-.291a.99.99 0 01-.293-.703v-31.78a.99.99 0 01.293-.702 1.006 1.006 0 011.416 0 .99.99 0 01.294.702v31.78a.988.988 0 01-.619.918c-.121.05-.251.076-.383.076z"/><path d="M39.656 38.968H19.53c-.266 0-.52-.105-.708-.291a.99.99 0 010-1.405c.187-.187.442-.291.708-.291h20.132c.266 0 .52.104.708.29a.99.99 0 01-.329 1.623c-.122.05-.253.075-.385.074zM41.41 32.987H17.779c-.266 0-.52-.105-.708-.291a.99.99 0 010-1.405c.187-.186.442-.291.708-.291H41.41c.265 0 .52.105.708.29a.99.99 0 010 1.406 1.005 1.005 0 01-.708.29zM40.084 27.161H19.098c-.265 0-.52-.105-.708-.29a.99.99 0 010-1.406c.188-.186.442-.29.708-.29h20.986c.265 0 .52.104.708.29a.99.99 0 010 1.405 1.006 1.006 0 01-.709.291zM38.06 20.558H21.12c-.265 0-.52-.104-.707-.29a.99.99 0 010-1.406c.187-.186.442-.29.707-.29h16.94c.266 0 .52.104.708.29a.99.99 0 010 1.405 1.005 1.005 0 01-.708.291zM20.984 15.785a1.011 1.011 0 01-.721-.293l-3.631-3.627a1.015 1.015 0 01-.296-.721V3.552a1.006 1.006 0 011.72-.711c.189.188.295.445.295.711v7.184l3.335 3.332a1.006 1.006 0 01-.721 1.717h.02zM38.024 15.785a1.01 1.01 0 01-.997-1.2c.038-.196.134-.376.275-.518l3.335-3.332V3.553a1.006 1.006 0 011.72-.711c.19.188.296.445.296.711v7.601a1.003 1.003 0 01-.296.721l-3.629 3.628c-.189.182-.442.284-.704.283z"/><path d="M8.834 46.982a1.009 1.009 0 01-.997-1.2c.039-.196.135-.376.276-.518l3.448-3.445v-7.687a1.004 1.004 0 01.293-.721l5.122-5.117a1.006 1.006 0 011.426 0 1.008 1.008 0 010 1.425l-4.828 4.819v7.7a1.01 1.01 0 01-.294.72l-3.744 3.738a.996.996 0 01-.702.286zM50.176 46.982a1.006 1.006 0 01-.722-.296l-3.741-3.738a1.004 1.004 0 01-.296-.72v-7.693l-4.826-4.819a1.006 1.006 0 011.423-1.424l5.122 5.117a.998.998 0 01.296.72v7.688l3.446 3.445a1.006 1.006 0 01-.722 1.717l.02.003zM58.361 37.22a1.004 1.004 0 01-.772.105l-5.11-1.367a1.003 1.003 0 01-.616-.476l-3.846-6.662-6.59-1.76a1.006 1.006 0 01.521-1.946l6.994 1.871a.998.998 0 01.617.476l3.843 6.658 4.707 1.26a1.007 1.007 0 01.234 1.849l.018-.008zM.877 37.22a1.004 1.004 0 00.773.105l5.11-1.367a1.004 1.004 0 00.616-.476l3.846-6.662 6.589-1.76a1.006 1.006 0 00-.52-1.946l-6.995 1.871a.999.999 0 00-.616.476L5.836 34.12l-4.707 1.26a1.006 1.006 0 00-.234 1.849l-.018-.008z"/></svg>