<?xml version="1.0" encoding="utf-8"?><svg width="58" height="50" xmlns="http://www.w3.org/2000/svg" viewBox="0 0 58 50"><path d="M30.215 16.83a1.008 1.008 0 01-.917-1.423c.093-.205.253-.373.454-.477 2.315-1.201 2.486-2.006 2.481-2.224 0-.43-.599-1.168-2.239-1.954a3.706 3.706 0 00-3.188 0c-1.64.786-2.232 1.523-2.239 1.954 0 .218.166 1.03 2.482 2.224a1.009 1.009 0 01.455 1.369 1.01 1.01 0 01-1.381.418c-2.424-1.249-3.593-2.572-3.57-4.043.02-1.417 1.16-2.673 3.385-3.738a5.81 5.81 0 014.924 0c2.225 1.065 3.367 2.32 3.386 3.738.022 1.47-1.147 2.794-3.57 4.043-.143.074-.302.113-.463.113z"/><path d="M28.399 28.309c-1.94 0-3.43-.69-4.432-2.05-2.797-3.805-.377-11.658-.274-11.99a1.007 1.007 0 011.924.6c-.626 1.997-1.845 7.722-.024 10.199.608.826 1.524 1.227 2.806 1.227 1.281 0 2.197-.4 2.806-1.227 1.823-2.477.601-8.202-.024-10.198a1.009 1.009 0 011.924-.6c.105.33 2.522 8.184-.275 11.99-1.002 1.36-2.486 2.049-4.431 2.049z"/><path d="M28.4 49.26c-.131 0-.261-.026-.383-.075-.22-.091-5.465-2.333-5.465-10.938 0-8.3 2.578-11.461 2.688-11.591a1.007 1.007 0 011.549 1.288c-.034.043-2.222 2.863-2.222 10.303 0 5.956 2.784 8.226 3.833 8.87 1.043-.642 3.833-2.91 3.833-8.87 0-7.462-2.2-10.277-2.222-10.306a1.006 1.006 0 011.548-1.285c.111.13 2.689 3.291 2.689 11.591 0 8.605-5.245 10.847-5.466 10.938-.121.05-.251.075-.382.074zM16.062 49.782a.988.988 0 01-.402-.085 1.004 1.004 0 01-.521-1.323l2.842-6.525-1.777-5.088c.732-.806 1-1.075 1.726-.723L20 41.522c.093.245.086.517-.018.757l-3.009 6.9a1.005 1.005 0 01-.911.602zM40.564 49.782a.988.988 0 00.402-.085 1.003 1.003 0 00.521-1.323l-2.842-6.525 1.777-5.088c-.732-.806-1-1.075-1.726-.723l-2.07 5.484c-.093.245-.086.517.019.757l3.008 6.9a1.004 1.004 0 00.911.602z"/><path d="M49.694 47.413c-.24.028-.482.035-.724.022-7.637-.404-15.648-22.07-16.535-24.539a1.007 1.007 0 111.895-.682c3.182 8.841 9.998 22.96 14.736 23.213 1.322.067 2.543-1.053 3.645-3.33 1.44-2.97 1.562-5.799.365-8.647-3.869-9.2-20.14-14.748-20.315-14.8a1.008 1.008 0 11.644-1.909c.703.238 17.301 5.9 21.517 15.932 1.418 3.364 1.276 6.83-.408 10.302-1.301 2.733-2.928 4.223-4.82 4.438zM7.32 47.413c.24.028.483.035.724.022 7.638-.404 15.648-22.07 16.536-24.539a1.005 1.005 0 00-.992-1.377 1.01 1.01 0 00-.903.695c-3.182 8.841-9.999 22.96-14.737 23.213-1.322.067-2.542-1.053-3.644-3.33-1.441-2.97-1.563-5.799-.366-8.647 3.87-9.2 20.14-14.748 20.316-14.8a1.009 1.009 0 00.633-1.276 1.006 1.006 0 00-1.278-.633c-.702.238-17.3 5.9-21.516 15.932-1.418 3.364-1.277 6.83.408 10.302 1.301 2.733 2.927 4.223 4.82 4.438z"/><path d="M23.624 17.686c-.121-.001-.242-.023-.356-.065l-5.602-2.11a1.01 1.01 0 01-.635-1.131c0-.015.332-1.881-.676-3.34-.625-.903-1.664-1.491-3.087-1.75a1.008 1.008 0 01-.406-1.83 1.008 1.008 0 01.769-.15c1.976.36 3.455 1.237 4.395 2.609a6.721 6.721 0 011.07 3.98l4.884 1.838a1.007 1.007 0 01-.356 1.949zM33.178 17.685a1.008 1.008 0 01-.877-1.502c.116-.205.3-.363.522-.446l4.883-1.838a6.688 6.688 0 011.068-3.98c.94-1.372 2.42-2.249 4.398-2.61a1.008 1.008 0 01.986 1.555c-.146.218-.37.37-.625.425-1.421.26-2.46.848-3.088 1.752-1.007 1.458-.68 3.324-.675 3.344a1.008 1.008 0 01-.635 1.126l-5.6 2.114c-.115.041-.235.061-.356.06zM25.57 11.278a.982.982 0 01-.204-.021c-5.05-1.028-9.44-9.007-9.619-9.345a1.007 1.007 0 111.77-.961c1.135 2.08 4.834 7.637 8.258 8.334a1.008 1.008 0 01-.197 1.993h-.008zM31.232 11.278a1.008 1.008 0 01-.81-1.606c.15-.2.368-.339.613-.388 3.424-.696 7.12-6.246 8.255-8.333a1.007 1.007 0 111.77.96c-.183.34-4.569 8.318-9.618 9.346a.98.98 0 01-.21.021z"/></svg>