<?xml version="1.0" encoding="utf-8"?><svg width="52" height="49" xmlns="http://www.w3.org/2000/svg" viewBox="0 0 52 49"><path d="M23.22 9.018c-.93.027-1.839-.335-2.56-1.022-.53-.536-1.157-1.555-1.157-3.368s.628-2.807 1.154-3.369C21.88.02 23.543.243 23.725.274c.241.04.462.179.621.393.16.214.247.488.247.772v6.383c.001.284-.087.559-.246.773a.973.973 0 01-.622.392 2.944 2.944 0 01-.505.031zm-.64-6.31a1.46 1.46 0 00-.605.354c-.303.314-.457.842-.457 1.577 0 .736.154 1.272.464 1.583.175.168.38.287.599.348V2.708zM28.782 9.018a2.933 2.933 0 01-.502-.036.976.976 0 01-.623-.392 1.296 1.296 0 01-.248-.773V1.462a1.3 1.3 0 01.249-.773.979.979 0 01.622-.392c.187-.031 1.846-.256 3.068.985.527.536 1.154 1.555 1.154 3.368 0 1.814-.627 2.822-1.157 3.369-.725.679-1.634 1.033-2.563 1zm.642-6.31V6.57a1.41 1.41 0 00.604-.354c.305-.315.46-.842.46-1.578 0-.735-.157-1.269-.465-1.583a1.452 1.452 0 00-.606-.348h.007z"/><path d="M28.417 2.638H23.59a.94.94 0 01-.713-.345 1.283 1.283 0 01-.295-.832c0-.312.106-.61.295-.831a.94.94 0 01.713-.345h4.828a.94.94 0 01.712.345c.19.22.296.52.296.831 0 .312-.107.612-.296.832a.94.94 0 01-.712.345zM28.417 8.993H23.59a.877.877 0 01-.4-.072 1 1 0 01-.344-.251 1.196 1.196 0 01-.231-.388 1.349 1.349 0 010-.927c.053-.146.132-.279.231-.388a.999.999 0 01.344-.251.877.877 0 01.4-.073h4.828a.877.877 0 01.4.073 1 1 0 01.345.25c.098.11.177.243.23.389a1.346 1.346 0 010 .927 1.196 1.196 0 01-.23.388 1 1 0 01-.344.25.877.877 0 01-.4.073z"/><path d="M25.57 24.76a.922.922 0 01-.555-.193c-2.974-2.293-4.701-5.08-5.134-8.284-.668-4.969 2.075-9.03 2.19-9.199a.97.97 0 01.671-.408c.26-.03.52.06.725.25.205.191.338.467.371.77.034.302-.035.609-.191.854-.022.036-2.309 3.455-1.772 7.388.343 2.512 1.774 4.755 4.251 6.664.181.14.319.343.393.58.074.239.08.498.018.74-.062.243-.19.456-.364.607a.915.915 0 01-.602.232z"/><path d="M26.444 24.76a.916.916 0 01-.602-.231 1.192 1.192 0 01-.365-.606 1.364 1.364 0 01.018-.74c.074-.238.212-.442.393-.58 2.482-1.913 3.912-4.161 4.252-6.685.531-3.952-1.751-7.33-1.775-7.366a1.319 1.319 0 01-.214-.865c.03-.31.164-.593.373-.788a.91.91 0 01.74-.25.98.98 0 01.676.435c.115.169 2.86 4.234 2.188 9.2-.43 3.202-2.164 5.99-5.129 8.283a.928.928 0 01-.555.194zM25.57 37.2a.902.902 0 01-.528-.175c-6.31-4.559-5.05-13.247-3.497-17.207a1.08 1.08 0 01.566-.591.876.876 0 01.758.037c.239.128.425.359.52.645.096.286.091.603-.011.885-.152.393-3.643 9.632 2.722 14.23.185.134.329.336.408.574.079.239.09.5.03.746s-.187.462-.361.617a.917.917 0 01-.606.238z"/><path d="M26.444 37.2a.917.917 0 01-.607-.238 1.197 1.197 0 01-.362-.616c-.06-.246-.05-.508.03-.747.078-.238.222-.44.408-.575 6.365-4.598 2.87-13.837 2.72-14.23a1.36 1.36 0 01-.028-.9c.094-.292.283-.53.526-.659a.876.876 0 01.771-.032c.251.11.454.33.565.614 1.549 3.961 2.811 12.65-3.491 17.208a.915.915 0 01-.532.174zM4.41 35.035a3.364 3.364 0 01-1.897-.514C1.096 33.581.567 31.6.938 28.626 2.833 13.57 20.256 10.891 20.995 10.784a.867.867 0 01.405.016.951.951 0 01.367.2c.109.096.2.216.269.354a1.366 1.366 0 01.095.92 1.253 1.253 0 01-.19.418 1.054 1.054 0 01-.316.297.9.9 0 01-.39.128c-.166.025-16.637 2.568-18.309 15.852-.166 1.313-.202 2.99.575 3.506 2.544 1.684 11.855-5.303 17.657-10.805a.984.984 0 01.35-.233.872.872 0 01.785.078c.12.074.226.176.31.298.086.123.15.265.187.417a1.364 1.364 0 01-.096.913 1.139 1.139 0 01-.266.352C20.21 25.605 9.96 35.035 4.41 35.035z"/><path d="M47.599 35.035c-5.553 0-15.803-9.43-18.035-11.537a1.242 1.242 0 01-.366-.793c-.028-.31.052-.62.22-.862a.976.976 0 01.68-.428.91.91 0 01.738.258c5.802 5.502 15.106 12.492 17.655 10.805.774-.517.74-2.193.574-3.507-1.683-13.305-18.14-15.826-18.308-15.851a.908.908 0 01-.373-.144 1.07 1.07 0 01-.297-.299 1.262 1.262 0 01-.177-.409 1.366 1.366 0 01-.029-.457c.014-.154.054-.304.118-.44.064-.137.151-.256.256-.352a.939.939 0 01.355-.206.848.848 0 01.394-.026c.741.107 18.162 2.785 20.057 17.842.373 2.97-.156 4.952-1.575 5.895a3.364 3.364 0 01-1.887.51zM6.832 29.342a.904.904 0 01-.513-.167 1.12 1.12 0 01-.369-.448 1.342 1.342 0 01.036-1.198c.24-.436.577-.604 2.443-1.533 1.7-.842 6.87-3.43 7.298-4.63.016-.15.059-.297.124-.43.066-.132.154-.247.259-.34a.926.926 0 01.351-.194.843.843 0 01.389-.02c.266.047.507.215.668.467.162.252.232.568.195.88-.219 1.965-3.032 3.705-8.49 6.428-.703.348-1.491.744-1.73.896a.929.929 0 01-.66.289z"/><path d="M45.174 29.342a.93.93 0 01-.662-.28c-.24-.152-1.026-.548-1.726-.896-5.464-2.723-8.274-4.466-8.493-6.429a1.362 1.362 0 01.026-.457c.034-.15.093-.289.174-.411.08-.122.181-.225.296-.302a.91.91 0 01.372-.146.914.914 0 01.742.237c.212.19.35.468.388.776.416 1.14 5.588 3.72 7.286 4.567 1.866.932 2.203 1.1 2.446 1.536.097.178.151.383.157.594a1.34 1.34 0 01-.123.606 1.12 1.12 0 01-.37.448.904.904 0 01-.513.165v-.008zM16.087 48.782a.867.867 0 01-.401-.099 1.015 1.015 0 01-.324-.26 1.209 1.209 0 01-.213-.386 1.346 1.346 0 01.015-.9l2.842-7.625-2.234-6.914a1.358 1.358 0 01-.003-.822 1.14 1.14 0 01.46-.623l4.754-3.054a.925.925 0 01.384-.171.867.867 0 01.41.022c.134.04.26.112.368.211.11.1.2.224.266.365a1.361 1.361 0 01.071.935 1.237 1.237 0 01-.206.414c-.093.12-.205.217-.331.284l-3.99 2.563 2.071 6.409a1.36 1.36 0 01-.02.884L17 48.077a1.148 1.148 0 01-.367.51.907.907 0 01-.545.195zM35.921 48.782a.907.907 0 01-.552-.192 1.149 1.149 0 01-.371-.513l-3.006-8.062a1.343 1.343 0 01-.02-.884l2.069-6.409-3.992-2.563a1.032 1.032 0 01-.33-.284 1.237 1.237 0 01-.207-.414 1.363 1.363 0 01.07-.935c.067-.141.157-.266.267-.365.109-.1.234-.171.368-.211a.866.866 0 01.41-.022.926.926 0 01.384.17l4.754 3.055c.212.136.376.357.46.623.084.265.083.558-.003.822l-2.234 6.914 2.844 7.625a1.34 1.34 0 01.015.9 1.21 1.21 0 01-.213.385c-.092.111-.202.2-.323.261a.869.869 0 01-.39.099zM17.8 13.911a.903.903 0 01-.552-.192 1.145 1.145 0 01-.37-.515L12.661 1.908a1.358 1.358 0 01-.005-.891c.098-.287.29-.516.532-.64a.875.875 0 01.763-.02c.247.11.447.33.556.61l4.216 11.3a1.353 1.353 0 01-.082 1.113 1.086 1.086 0 01-.363.39.895.895 0 01-.479.141zM34.208 13.911a.867.867 0 01-.402-.098 1.018 1.018 0 01-.322-.262 1.212 1.212 0 01-.212-.386 1.351 1.351 0 01.015-.899L37.502.968c.11-.281.31-.5.556-.61a.875.875 0 01.763.02c.243.123.434.352.532.639a1.36 1.36 0 01-.004.89L35.13 13.205c-.078.21-.207.39-.371.515a.905.905 0 01-.552.192z"/></svg>