<?xml version="1.0" encoding="utf-8"?><svg width="29" height="28" fill="none" xmlns="http://www.w3.org/2000/svg" viewBox="0 0 29 28"><path d="M.93 6.373c0-2.034 5.466 0 5.593 0l13.602 3.686c1.101 5.72 3 17.212 1.78 17.416-1.221.203-3.56.17-4.577.127l-5.593-2.161L1.31 11.966C1.184 10.78.93 8 .93 6.373z" fill="#fff"/><path fill-rule="evenodd" clip-rule="evenodd" d="M.978 6.685c0 1.45.72 3.465 4.006 3.625 3.286.16 8.416.333 10.679 3.233 4.323 4.35-.36 13.992 6.11 13.992 5.91 0 6.515-6.205 6.529-10.077.014-3.871.59-13.238-1.845-15.239C24.022.218 22.955.029 14.927.029 8.343.03.978-.652.978 6.685z" fill="url(#cfpaint0_linear_969_12626)"/><path fill-rule="evenodd" clip-rule="evenodd" d="M20.967 27.593s-4.871.421-12.394-7.684C1.05 11.803 1.151 9.077.92 7.642.46 19.242.661 23.36 2.938 25.999c2.767 3.19 18.029 1.595 18.029 1.595z" fill="url(#cfpaint1_linear_969_12626)"/><defs><linearGradient id="cfpaint0_linear_969_12626" x1="27.034" y1=".885" x2="7.036" y2="21.251" gradientUnits="userSpaceOnUse"><stop stop-color="#77FAEB"/><stop offset="1" stop-color="#2DD6F8"/></linearGradient><linearGradient id="cfpaint1_linear_969_12626" x1="14.021" y1="14.558" x2="2.175" y2="26.202" gradientUnits="userSpaceOnUse"><stop stop-color="#0061B6"/><stop offset="1" stop-color="#00C9DB"/></linearGradient></defs></svg>