<?xml version="1.0" encoding="utf-8"?><svg width="81" height="83" fill="none" xmlns="http://www.w3.org/2000/svg" viewBox="0 0 81 83"><path fill-rule="evenodd" clip-rule="evenodd" d="M59.462 14.35L42.465 31.347h26.582c2.3 0 4.163 1.864 4.163 4.164 0 .915-.287 1.742-.777 2.424l-2.907 4.041 2.907 4.042c.49.681.777 1.509.777 2.424s-.287 1.743-.777 2.424l-2.907 4.042 2.907 4.041c.49.682.777 1.51.777 2.425a4.163 4.163 0 01-2.263 3.707l-3.924 2.022.18 4.41a4.164 4.164 0 01-4.16 4.34H32.008a4.164 4.164 0 01-4.164-4.162c0-6.086.023-11.967.046-17.882.023-5.983.046-12 .046-18.298 0-.973.325-1.85.877-2.557l.178-.228.158-.242c.16-.244.35-.48.573-.703L53.308 8.195a4.352 4.352 0 116.154 6.155zm4.894-11.048c3.861 3.86 4.336 9.825 1.424 14.204a11.322 11.322 0 01-1.424 1.738l-5.183 5.183h9.874c6.122 0 11.084 4.962 11.084 11.084 0 2.413-.77 4.645-2.08 6.465a11.033 11.033 0 012.08 6.466c0 2.413-.77 4.646-2.08 6.466a11.034 11.034 0 012.08 6.466c0 4.294-2.442 8.018-6.013 9.859.006.152.009.304.009.458 0 6.121-4.963 11.084-11.084 11.084H33.485a11.078 11.078 0 01-9.494-5.36 13.37 13.37 0 01-10.598 5.203C5.996 82.618 0 76.622 0 69.225V40.129c0-7.397 5.996-13.393 13.393-13.393 3.455 0 6.604 1.308 8.98 3.456a11.11 11.11 0 01.985-1.497 11.33 11.33 0 011.47-1.808L48.414 3.302c4.402-4.403 11.54-4.403 15.942 0zm-44.49 36.827v29.096a6.473 6.473 0 11-12.945 0V40.129a6.473 6.473 0 0112.945 0z" fill="#FCE200"/></svg>