<?xml version="1.0" encoding="utf-8"?><svg width="1920" height="884" fill="none" xmlns="http://www.w3.org/2000/svg" viewBox="0 0 1920 884"><path d="M1880.57 110.786c-78.1.092-152.97 32.17-208.2 89.198-55.22 57.027-86.28 134.345-86.37 214.994v43.314h-103.01v-81.035h36.95l-80.38-128.706h-54.75V218.85h-44.19v29.701h-100.67l-31.3 49.998c-22.12-3.499-42.28-15.095-56.8-32.672h52.73v-17.326h-5.71c-45.11 0-79.09-41.581-79.09-96.727H1103c0 55.146-33.94 96.727-79.05 96.727v17.326h46.89c-8.98 10.867-20.16 19.557-32.75 25.453-12.59 5.895-26.29 8.85-40.117 8.654v17.326h56.757c-24.83 27.177-54.6 42.424-83.601 42.424v17.325h115.041v81.036h-30.48c-24.94-.055-49.1 8.912-68.295 25.344-19.196 16.432-32.21 39.29-36.782 64.601-18.713 8.742-34.593 22.862-45.745 40.672-11.152 17.81-17.105 38.559-17.147 59.768v6.486H690.849c-18.712-15.186-41.825-23.433-65.624-23.416h-366.66V384.633c-.013-23.383-9.01-45.805-25.016-62.344-16.007-16.539-37.714-25.843-60.357-25.869H55.653V110.786H0v17.326h38.876v37.424H0v17.325h38.876v51.087H0v17.326h38.876v206.672H0v17.326h38.876v223.453c.014 13.799 3.171 27.401 9.217 39.707 6.045 12.306 14.81 22.97 25.584 31.131H0v17.326h262.879c40.65 0 108.575 28.117 119.552 66.531a97.787 97.787 0 013.307 18.464c0 2.525.384 4.951.384 7.624v3.861H402.9v-3.861c0-2.574-.001-4.951-.336-7.673 2.031-23.129 12.354-44.64 28.945-60.317s38.254-24.39 60.743-24.431h395.469v96.48h16.778V728.179c15.11 2.083 30.483-.231 44.388-6.683l1.054-.495c2.493-1.188 4.794-2.475 7.335-3.91a76.594 76.594 0 007.238-4.951l.959-.693.767.545a86.733 86.733 0 0010.258 6.584 85.414 85.414 0 006.759 3.267 89.163 89.163 0 0010.018 3.515 90.635 90.635 0 0011.985 2.475c3.5.469 7.02.717 10.55.743 2.93-.006 5.86-.189 8.77-.546a83.156 83.156 0 0023.97-6.335 85.855 85.855 0 007.57-3.812c2.44-1.386 4.79-2.921 7.19-4.555.91-.643 1.87-1.237 2.78-1.93l2.16 1.634a85.817 85.817 0 0016.77 9.207 82.476 82.476 0 0031.4 6.337h.34c18.13-.041 35.77-6.04 50.38-17.129 14.6 11.089 32.25 17.088 50.38 17.129h3.21c17.1-.66 33.6-6.63 47.36-17.129 14.63 11.205 32.36 17.254 50.57 17.254 18.22 0 35.95-6.049 50.57-17.254 14.63 11.184 32.33 17.238 50.53 17.277a81.538 81.538 0 0029.77-5.693v46.334H1154.2c-27.63.031-54.15 11.162-73.97 31.038-1.39 1.336-2.73 2.772-4.03 4.208l-1.19 1.337c-2.54 2.97-4.8 6.039-7.19 9.256-.13.157-.24.322-.34.495a92.291 92.291 0 00-4.12 6.337c-1.3 2.178-2.69 4.95-3.93 7.326l-.77 1.485c-1.58 3.415-3.07 6.93-4.36 10.494a112.985 112.985 0 00-6.57 37.969v3.861h16.78v-3.861a94.46 94.46 0 013.26-24.306 91.08 91.08 0 014.79-13.465c1.1-2.574 2.35-4.95 3.69-7.574 7.56-13.673 18.34-25.15 31.35-33.364 14.02-8.943 30.17-13.69 46.64-13.712h765.78v-17.326h-94.48V568.237c0-18.579-4.56-36.856-13.25-53.123-8.7-16.266-21.24-29.991-36.46-39.892h144.19v-17.325h-192.03v-18.712c0-49.89 19.19-97.736 53.35-133.013s80.49-55.096 128.8-55.096h10.02V233.75h-10.02c-52.71.052-103.24 21.697-140.51 60.185-37.27 38.487-58.23 90.672-58.28 145.101v18.712h-49.61v-27.82c0-65.602 25.22-128.52 70.11-174.93 44.9-46.41 105.8-72.516 169.33-72.582h18.84V165.09h-18.84c-67.93.079-133.06 27.981-181.09 77.584s-75.05 116.857-75.13 187.006v27.821h-42.18v-42.969c.18-75.984 29.51-148.797 81.58-202.484 52.07-53.687 122.63-83.871 196.21-83.936h39.45v-17.326h-39.45zm-293.9 364.832c23.78.026 46.57 9.795 63.38 27.16 16.8 17.365 26.25 40.908 26.26 65.459v9.901c-8.66.358-16.86 4.166-22.86 10.626-6.01 6.46-9.36 15.07-9.35 24.025v15.841a34.48 34.48 0 001.34 9.9c-5.49 2.435-10.24 6.351-13.76 11.337-36.67-5.347-65.81-39.602-71.09-82.521-.01-4.57-.31-9.134-.91-13.663v-.296c-2.09-15.8-7.49-30.94-15.81-44.369-8.33-13.43-19.39-24.827-32.41-33.4h75.21zM399.352 825.847a106.824 106.824 0 00-4.793 10.297c-1.055-2.525-2.205-4.95-3.404-7.376a109.554 109.554 0 00-8.149-13.564l-.24-.396c-19.414-27.375-84.27-45.245-119.551-45.245h-4.314V649.025h366.66a86.889 86.889 0 0131.685 6.089 86.906 86.906 0 0116.73 8.663 86.639 86.639 0 0111.073 8.662c11.816 10.752 20.707 24.506 25.789 39.9a88.154 88.154 0 012.349 8.662 85.756 85.756 0 011.534 8.663c.573 4.116.877 8.267.911 12.426v27.473h-223.38c-18.925.045-37.498 5.281-53.82 15.17-16.322 9.889-29.809 24.077-39.08 41.114zm-225.585-56.284h-49.47c-18.193-.013-35.638-7.479-48.507-20.759-12.87-13.281-20.111-31.291-20.137-50.079V313.746h117.539c18.193.026 35.633 7.505 48.493 20.794 12.86 13.29 20.09 31.305 20.103 50.093v384.93h-68.021zM1010.2 488.44c13.71-8.381 29.36-12.808 45.3-12.822h400.26c21.25.395 41.67 8.577 57.62 23.086 15.94 14.509 26.37 34.399 29.43 56.118-.62 50.641-34.03 91.926-76.12 95.49v-1.832c-.04-29.252-11.31-57.295-31.34-77.979-20.03-20.684-47.18-32.322-75.51-32.361H994.57c-4.714.006-9.422.337-14.093.99a101.36 101.36 0 00-10.93 2.079c6.651-22.195 21.099-41.017 40.503-52.769h.15zm239-222.365h.29l7.38 11.782-45.39 72.57-5.95 9.504h-15.24l.67-1.039 9.11-14.553 16.78-26.831 7.81-12.475 24.54-38.958zm91.56 0v25.989h44.2v-26.187h45.58l58.73 94.054h-161.26l-51.43-82.074-4.8-7.97-2.35-3.812h71.33zm11.99-17.326v-17.226h20.22v48.363h-20.22v-31.137zm344.08 333.102a19.718 19.718 0 01-3.6-11.287c.29-5.77 2.77-11.189 6.91-15.074 4.14-3.886 9.6-5.924 15.19-5.668h11.84c5.59-.256 11.05 1.782 15.19 5.668 4.14 3.885 6.62 9.304 6.91 15.074a20.285 20.285 0 01-3.55 11.287l-9.59 13.712h27.52c4.5.013 8.81 1.863 11.98 5.146 3.18 3.284 4.98 7.734 4.99 12.377v15.841a17.854 17.854 0 01-3.36 10.297l-9.58 13.761h24.59c4.47.04 8.74 1.905 11.89 5.188 3.14 3.284 4.9 7.718 4.89 12.336v15.841c.01 4.617-1.75 9.052-4.89 12.336-3.15 3.283-7.42 5.148-11.89 5.187h-61.46v65.69h-26.17v-65.69h-45.83c-2.45-.024-4.86-.58-7.09-1.633-2.94-1.409-5.42-3.65-7.17-6.464a17.964 17.964 0 01-2.7-9.426v-15.841c.01-4.475 1.7-8.772 4.69-12.005 3-3.233 7.08-5.155 11.41-5.371l15.68-.841-9.35-12.969c-2.2-2.99-3.4-6.64-3.4-10.396v-15.841c0-4.358 1.59-8.554 4.45-11.761 2.86-3.208 6.78-5.193 10.98-5.565h29.91l-9.39-13.909zm-747.799-13.267a90.558 90.558 0 018.628-4.604 86.302 86.302 0 018.533-3.515 87.647 87.647 0 0128.378-4.95h365.41c23.85.065 46.7 9.884 63.56 27.307 16.85 17.423 26.33 41.032 26.37 65.658v.793c-12.14 6.004-25.72 8.206-39.06 6.332-13.34-1.874-25.86-7.741-36.01-16.876l-5.22-4.951-5.27 4.951c-12.57 11.296-28.67 17.518-45.33 17.518-16.66 0-32.76-6.222-45.32-17.518l-5.23-4.951-5.22 4.951c-12.5 11.3-28.54 17.529-45.16 17.529-16.61 0-32.65-6.229-45.15-17.529l-5.23-4.951-5.22 4.951c-12.54 11.266-28.59 17.487-45.2 17.523-10.99-.017-21.81-2.768-31.55-8.019a70.057 70.057 0 01-13.61-9.504l-3.16-2.872-2.07-1.831-5.22 4.95-.38.594c-12.64 10.91-28.61 16.839-45.07 16.73-16.47-.109-32.366-6.248-44.861-17.324l-5.033-4.504-5.225 4.95c-.959.841-1.966 1.633-2.972 2.425-8.583 6.906-18.615 11.636-29.289 13.811a67.85 67.85 0 01-13.087 1.287 66.406 66.406 0 01-10.402-.841v-7.624c-.039-16.064 3.949-31.865 11.576-45.866 7.627-14.001 18.634-25.725 31.95-34.03h.144zm611.609 50.195c7.4 12.572 17.18 23.467 28.76 32.028h-29.38l.48.743 8.53 12.821c10.43 15.983 24.04 29.484 39.93 39.601h-49.56v65.789h-16.64v-65.789h-49.28c15.88-10.119 29.47-23.62 39.89-39.601l9.06-13.564h-29.39c12.65-9.283 23.17-21.314 30.82-35.246 2.87-5.075 5.36-10.37 7.43-15.84.29.742.63 1.485.96 2.277 2.36 5.818 5.16 11.43 8.39 16.781zm65.15 74.649c-12.23-6.267-23.2-14.847-32.36-25.295h31.83v18.217c-.07 2.372.11 4.745.53 7.078zm-721.291-20.989v-.346l2.444.346c2.637.248 5.273.397 7.958.397 2.684 0 5.32-.001 8.005-.397a83.396 83.396 0 0025.981-6.979l3.499-1.683a56.027 56.027 0 004.794-2.723 91.416 91.416 0 008.197-5.445 79.344 79.344 0 0011.025 7.079l3.02 1.485a84.72 84.72 0 0029.628 8.266c2.2 0 4.45.248 6.66.248a79.53 79.53 0 0010.31-.693c14.54-1.828 28.38-7.506 40.17-16.484l2.15 1.633a86.17 86.17 0 0016.78 9.257 83.305 83.305 0 0031.4 6.287h.33c18.14-.016 35.79-6.017 50.38-17.127 14.6 11.103 32.25 17.104 50.38 17.127h3.22c17.09-.681 33.59-6.648 47.36-17.127 14.63 11.204 32.36 17.252 50.57 17.252s35.94-6.048 50.57-17.252c11.37 8.729 24.68 14.366 38.71 16.39a81.978 81.978 0 0041.58-4.807v38.315c-12.14 6.011-25.73 8.211-39.07 6.328s-25.86-7.767-35.99-16.922l-5.23-4.95-5.27 4.95c-12.55 11.326-28.66 17.567-45.33 17.567-16.66 0-32.77-6.241-45.32-17.567l-5.22-4.95-5.23 4.95c-12.48 11.33-28.53 17.579-45.15 17.579-16.62 0-32.68-6.249-45.16-17.579l-5.22-4.95-5.23 4.95c-10.35 9.411-23.22 15.358-36.92 17.055-13.69 1.697-27.56-.936-39.78-7.55a68.003 68.003 0 01-13.61-9.505l-3.16-2.821-2.07-1.881-5.22 4.95-.38.594a65.85 65.85 0 01-12.71 8.811 59.784 59.784 0 01-7.86 3.664 66.207 66.207 0 01-23.97 4.504 67.084 67.084 0 01-22.526-3.96 70.141 70.141 0 01-16.777-8.812 69.323 69.323 0 01-5.992-4.95l-5.033-4.505-5.225 4.951c-.959.891-1.966 1.633-2.972 2.425-11.248 9.093-24.986 14.29-39.26 14.851h-6.231a59.575 59.575 0 01-7.286-.743l-.719-39.503zm562.191-4.306h42.47c-11.61 13.321-26.19 23.516-42.47 29.701v-29.701zm109.68 52.968h111.49v48.363h-111.49v-48.363zm-319.78-262.809v-54.155h20.27v54.453h-20.27v-.298zm58.48 0h-26.22v-66.63h-44.25v66.63h-26.27v-87.024l1.63-2.575 5.42-8.663 2.16-3.465 39.16-62.62 41.37 66.085 5.42 8.663 1.58 2.575v87.223-.199zm151.14 0h-134.22v-81.134h134.22v81.134zm-264.65-81.035v81.035h-64.86v-81.035h64.86zM887.721 712.339H728.095c-3.967-14.585-10.804-28.168-20.085-39.9h179.711v39.9zm-156.366 17.325h156.366v39.899H732.074V742.09c.004-4.153-.237-8.303-.719-12.426zm735.335-8.563h59.49v48.462h-59.49v-48.462zm-269.78-403.593l-10.69 17.078a156.063 156.063 0 01-18.27-17.078h28.96zm-167.01 42.423c19.22-11.815 36.02-27.385 49.47-45.839l10.45-13.91h-31.93c14.78-9.736 27.25-22.78 36.48-38.166l8.15-13.267h-26.46c16.04-12.256 28.27-29.082 35.19-48.413 6.94 19.326 19.18 36.148 35.23 48.413h-26.46l8.15 13.267c9.23 15.386 21.7 28.43 36.48 38.166h-31.88l10.45 13.91c9.75 13.206 21.16 25.01 33.94 35.098l-6.71 10.741h-50.53v98.361h-17.3v-98.361h-72.72zm741.8 409.632h-23.96v-48.364h44.38a31.946 31.946 0 0016.78-4.95v53.116l-37.2.198zm37.06-201.326v72.175a31.702 31.702 0 00-12.18-4.406c.48-2.327.72-4.7.72-7.079v-15.841c-.05-8.928-3.41-17.497-9.4-23.943-5.98-6.446-14.13-10.278-22.76-10.708.56-2.533.83-5.124.81-7.722-.29-10.365-4.54-20.189-11.83-27.323-7.28-7.135-17.01-10.998-27.05-10.745h-11.88c-9.19-.028-18.11 3.205-25.27 9.158-6.62-27.268-23.08-50.892-46.01-66.036h75.21c23.73.052 46.48 9.811 63.26 27.141 16.78 17.331 26.23 40.821 26.28 65.329h.1zm-462.53-124.3h44.24v-52.175h-44.24v52.175zm11.98-39.602h20.28v27.424h-20.42l.14-27.424zm93.62-12.375h-44.2v52.175h44.2V391.96zm-11.99 39.602h-20.22v-27.425h20.22v27.425zM1225.33 91.926a56.117 56.117 0 00-2.99-26.943c-3.18-8.577-8.41-16.184-15.2-22.112-6.8-5.928-14.93-9.985-23.65-11.795a51.155 51.155 0 00-26.23 1.447c-6.59-10.82-15.96-19.535-27.07-25.175-11.11-5.64-23.52-7.983-35.84-6.766-12.33 1.216-24.08 5.944-33.95 13.656-9.88 7.711-17.48 18.103-21.97 30.017a43.363 43.363 0 00-8-.742c-12.17.013-23.83 5.008-32.428 13.89-8.601 8.881-13.438 20.923-13.451 33.483v8.663h239.679l1.1-7.623zm-222.8-9.9c1.81-6.181 5.51-11.595 10.53-15.445 5.02-3.85 11.11-5.933 17.37-5.94 3.59.012 7.14.7 10.49 2.03l8.92 3.563 2.25-9.554c2.45-10.38 7.95-19.721 15.74-26.74 7.8-7.02 17.51-11.372 27.8-12.457 10.29-1.086 20.66 1.148 29.67 6.395 9.01 5.246 16.22 13.247 20.65 22.902l3.69 8.019 7.72-4.01a34.09 34.09 0 0116.11-4.01c9.15.013 17.95 3.65 24.58 10.16 6.64 6.51 10.6 15.4 11.08 24.84l-206.6.246zm717.69 11.088c8.31 0 16.44-2.546 23.36-7.316 6.91-4.77 12.3-11.551 15.48-19.484a44.767 44.767 0 002.39-25.083c-1.62-8.421-5.62-16.157-11.5-22.229-5.88-6.071-13.37-10.206-21.53-11.881a40.81 40.81 0 00-24.29 2.47c-7.68 3.287-14.25 8.85-18.86 15.99-4.62 7.14-7.09 15.533-7.09 24.12.03 11.501 4.46 22.523 12.34 30.651s18.56 12.7 29.7 12.713v.05zm25.26-43.413c0 5.16-1.48 10.203-4.26 14.493-2.77 4.29-6.72 7.634-11.33 9.608a24.538 24.538 0 01-14.6 1.485c-4.9-1.007-9.4-3.491-12.93-7.14-3.54-3.648-5.94-8.297-6.92-13.357a26.94 26.94 0 011.44-15.072c1.91-4.767 5.15-8.842 9.31-11.708a24.664 24.664 0 0114.03-4.397c6.66.013 13.05 2.738 17.78 7.585 4.73 4.847 7.42 11.424 7.48 18.304v.199z" fill="#F2F2F2"/></svg>