<?xml version="1.0" encoding="utf-8"?><svg width="151" height="106" fill="none" xmlns="http://www.w3.org/2000/svg" viewBox="0 0 151 106"><g clip-path="url(#coclip0_967_4072)"><path d="M62.298 63.126a12.313 12.313 0 016.269-1.706v6.156a6.269 6.269 0 00-6.27 6.27v11.96H56.13V61.885h4.914l1.254 1.253v-.012zm72.416 10.506l8.513 12.161h-7.222l-4.915-7.008-4.902 7.008h-7.234l8.526-12.16-8.225-11.761h7.222l4.613 6.594 4.627-6.594h7.221l-8.224 11.76zm-86.771-11.76h-.84l-1.254 1.254a12.413 12.413 0 100 21.426l1.254 1.254h4.914V61.884h-4.074v-.012zm-8.338 18.217a6.269 6.269 0 110-12.538 6.269 6.269 0 010 12.538zm47.93-16.976a12.275 12.275 0 00-6.268-1.705 12.413 12.413 0 106.269 23.132l1.253 1.253h4.915V52.87h-6.168v10.243zM81.268 80.09a6.269 6.269 0 11.013 0h-.013zm27.444 0a6.27 6.27 0 01-5.566-3.41h17.652c.217-.933.327-1.888.326-2.846a12.408 12.408 0 00-7.662-11.468 12.414 12.414 0 00-16.217 6.718 12.514 12.514 0 00-.87 6.141v.276c.038.368.1.732.189 1.09a.248.248 0 010 .089 12.387 12.387 0 0020.849 5.93l-4.363-4.35a6.269 6.269 0 01-4.325 1.83h-.013zm0-12.538a6.265 6.265 0 015.567 3.41h-11.121a6.27 6.27 0 015.567-3.385l-.013-.025zm-87.962-5.704h-.84L18.655 63.1A12.413 12.413 0 002.537 81.357a12.412 12.412 0 009.85 4.875 12.462 12.462 0 006.268-1.705v1.705a6.269 6.269 0 01-12.086 2.27l-4.538 4.55a12.412 12.412 0 0022.768-6.444V61.847h-4.05zm-2.081 11.96a6.27 6.27 0 11-12.538 0 6.27 6.27 0 0112.538 0zM104.349 6.056h-5.942a15.935 15.935 0 00-27.971 6.067A15.684 15.684 0 0055.39.652h-15.71V16.31A15.621 15.621 0 0045.55 28.51a24.938 24.938 0 0049.849.3 15.93 15.93 0 006.481-12.838 16.223 16.223 0 00-.651-4.513l1.416-2.507 1.705-2.896z" fill="#1D1D1B"/><path d="M59.126 18.13L55.1 14.116V5.103h.239c1.283.007 2.555.236 3.76.677l.026 12.35zM44.156 7.108v6.268h6.269L44.156 7.11zm8.2-1.956h-6.269l6.269 6.269v-6.27zm.802 10.958h-9.002v.238c.002 1.282.227 2.555.665 3.761h12.362l-4.025-4zm-6.883 6.77a11.12 11.12 0 0015.935 2.282l-2.282-2.282H46.275zM61.871 7.284V20.9l2.295 2.282a11.147 11.147 0 00-2.294-15.935v.037z" fill="#8C9091"/><path d="M85.918 27.457a11.496 11.496 0 110-22.993 11.496 11.496 0 010 22.993zM70.472 48.482a20.5 20.5 0 01-20.236-17.377A15.658 15.658 0 0070.51 20.16a15.985 15.985 0 0015.396 11.76c1.62.004 3.231-.241 4.777-.727a20.511 20.511 0 01-20.21 17.29z" fill="#F3BD48"/><path d="M91.285 8.914a4.3 4.3 0 10-2.239 8.304 4.3 4.3 0 002.24-8.304zM145.334 68.153a5.68 5.68 0 105.679 5.667 5.647 5.647 0 00-1.66-4.015 5.656 5.656 0 00-4.019-1.652zm0 10.193a4.514 4.514 0 114.313-4.526 4.386 4.386 0 01-4.313 4.526zm1.93-4.463c.223-.33.341-.719.339-1.116a2.058 2.058 0 00-.564-1.43 1.837 1.837 0 00-1.392-.601h-2.357v6.093h1.254v-2.018h.727l1.141 2.068h1.442l-1.254-2.32c.273-.168.501-.4.664-.676zm-1.166-.577a.572.572 0 01-.451.213h-1.066v-1.492h1.066a.54.54 0 01.451.213.714.714 0 01.201.527.752.752 0 01-.201.54z" fill="#1D1D1B"/><path d="M80.114 99.81l3.924 5.379h-3.034l-2.395-3.31-2.42 3.31h-3.046l3.937-5.391-3.762-5.116h3.022l2.219 3.047 2.22-3.047h3.046l-3.711 5.128zm9.19-8.024l-2.583.765v2.131h-1.856v2.508h1.856v4.639a3.286 3.286 0 001.178 2.896 4.25 4.25 0 002.357.551c.462 0 .922-.029 1.38-.087h.175v-2.358h-.2c-.451.031-.904.031-1.355 0a1.101 1.101 0 01-.714-.238 1.051 1.051 0 01-.226-.764v-4.64h2.508v-2.507h-2.508l-.012-2.896zm7.635 4.037v-1.14h-2.583v10.506h2.583v-5.304a2.396 2.396 0 01.852-2.069 3.072 3.072 0 012.044-.564h.213V94.47h-.2a3.36 3.36 0 00-2.91 1.354zm13.954.226a5.606 5.606 0 011.479 3.911c-.011.311-.04.621-.087.928v.176h-7.974c.148.566.489 1.063.965 1.404.591.4 1.293.602 2.006.577a2.715 2.715 0 002.432-1.166l.113-.151 2.144 1.254-.125.175a5.213 5.213 0 01-1.992 1.753 5.211 5.211 0 01-2.597.542 5.634 5.634 0 01-4.125-1.567 5.53 5.53 0 013.962-9.466 4.943 4.943 0 013.799 1.63zm-1.179 2.833a2.668 2.668 0 00-.89-1.492 2.756 2.756 0 00-1.742-.589 2.873 2.873 0 00-1.894.627c-.45.374-.767.885-.902 1.454h5.428zm16.299-4.463a3.651 3.651 0 00-3.084 1.43 3.305 3.305 0 00-2.871-1.43 3.475 3.475 0 00-2.683 1.09v-.827h-2.583v10.507h2.583v-5.855a2.67 2.67 0 01.564-1.856 1.907 1.907 0 011.467-.614 1.514 1.514 0 011.254.514 2.2 2.2 0 01.451 1.492v6.268h2.583v-5.855a2.79 2.79 0 01.539-1.868 1.853 1.853 0 011.454-.601 1.668 1.668 0 011.254.514c.338.42.503.953.464 1.492v6.268H130v-6.47a4.414 4.414 0 00-1.103-3.12 3.892 3.892 0 00-2.922-1.078h.038zm17.063 5.541c-.006.311-.031.621-.075.928v.176h-7.961c.153.564.493 1.059.965 1.404a3.383 3.383 0 002.006.577 2.746 2.746 0 002.508-1.166l.1-.151 2.144 1.254-.113.175a5.245 5.245 0 01-4.589 2.295 5.604 5.604 0 01-4.124-1.567 5.52 5.52 0 01-1.239-6.08 5.524 5.524 0 015.2-3.386 4.914 4.914 0 013.762 1.63 5.56 5.56 0 011.354 3.911h.062zm-2.645-1.078a2.61 2.61 0 00-.903-1.492 2.731 2.731 0 00-1.742-.589 2.897 2.897 0 00-1.894.627 2.78 2.78 0 00-.902 1.454h5.441zm-67.99 1.078a5.901 5.901 0 01-.088.928v.176h-8.011c.152.564.493 1.059.965 1.404a3.382 3.382 0 002.006.577 2.756 2.756 0 002.445-1.166l.1-.151 2.144 1.254-.113.175a5.24 5.24 0 01-4.601 2.295 5.607 5.607 0 01-4.112-1.567 5.347 5.347 0 01-1.58-3.95 5.418 5.418 0 011.555-3.924 5.354 5.354 0 013.986-1.592 4.916 4.916 0 013.762 1.63 5.605 5.605 0 011.504 3.911h.038zm-2.658-1.078a2.507 2.507 0 00-.89-1.492 2.732 2.732 0 00-1.743-.589 2.896 2.896 0 00-1.893.627 2.784 2.784 0 00-.903 1.454h5.429z" fill="#E8EDF0"/></g><defs><clipPath id="coclip0_967_4072"><path fill="#fff" d="M0 0h151v105.439H0z"/></clipPath></defs></svg>