<?xml version="1.0" encoding="utf-8"?><svg width="151" height="112" fill="none" xmlns="http://www.w3.org/2000/svg" viewBox="0 0 151 112"><g clip-path="url(#cmclip0_967_4049)"><path d="M99.003 96.313a4.42 4.42 0 00-3.4 1.376v-5.225h-2.644v14.839h2.643v-1.113a4.42 4.42 0 003.4 1.376 5.038 5.038 0 002.062-.416 5.008 5.008 0 001.71-1.223 5.87 5.87 0 000-7.976 5.081 5.081 0 00-3.771-1.638zm1.824 7.852a2.99 2.99 0 01-2.18.866 2.923 2.923 0 01-2.18-.866 2.997 2.997 0 01-.865-2.226 2.964 2.964 0 01.866-2.21 2.937 2.937 0 012.18-.881 3.089 3.089 0 012.894 1.919 3.094 3.094 0 01-.715 3.398zm14.498-6.476a4.416 4.416 0 00-3.4-1.376 5.085 5.085 0 00-3.772 1.638 5.873 5.873 0 000 7.976 5.096 5.096 0 003.772 1.639 4.414 4.414 0 003.4-1.376v1.113h2.643V96.591h-2.643v1.098zm-.865 6.476a2.957 2.957 0 01-2.18.866 2.922 2.922 0 01-2.179-.866 3.095 3.095 0 01-.866-2.226 2.974 2.974 0 01.866-2.21 2.939 2.939 0 012.179-.881 2.984 2.984 0 013.092 3.091 3.1 3.1 0 01-.912 2.226zm12.968-7.852a4.416 4.416 0 00-3.4 1.376v-5.225h-2.644v14.839h2.644v-1.113a4.415 4.415 0 003.4 1.376 5.035 5.035 0 003.772-1.639 5.87 5.87 0 000-7.976 5.09 5.09 0 00-3.772-1.638zm1.824 7.852a2.983 2.983 0 01-2.179.866 2.924 2.924 0 01-2.18-.866 3 3 0 01-.865-2.226 2.957 2.957 0 01.865-2.21 2.939 2.939 0 012.18-.881 3.09 3.09 0 012.179 5.317zm15.751-7.574l-4.065 10.913c-.959 2.612-2.613 3.926-4.869 3.926h-.557v-2.504h.217a2.254 2.254 0 001.545-.402c.464-.414.801-.949.974-1.546l.077-.139-4.451-10.31h2.875l2.921 7.095 2.504-7.095 2.829.062z" fill="#fff"/><path d="M63.545 64.394a12.582 12.582 0 016.383-1.747v6.292a6.384 6.384 0 00-6.383 6.383v12.196h-6.276v-24.33h5.008l1.268 1.268v-.062zm73.869 10.712l8.702 12.366h-7.373l-5.008-7.142-5.023 7.142h-7.358l8.687-12.366-8.393-11.917h7.373l4.714 6.723 4.637-6.724h7.373l-8.331 11.918zM48.907 63.189h-.912l-1.268 1.267a12.66 12.66 0 100 21.856l1.268 1.268h5.008V63.188h-4.158.062zm-8.501 18.548a6.384 6.384 0 110-12.767 6.384 6.384 0 010 12.767zm48.89-17.327a12.659 12.659 0 100 21.856l1.268 1.267h5.023V53.914h-6.29V64.41zm-6.384 17.327a6.384 6.384 0 110-12.767 6.384 6.384 0 010 12.767zm27.993 0a6.383 6.383 0 01-5.673-3.478h17.992c.236-.95.356-1.926.356-2.906a12.679 12.679 0 00-7.715-12.11 12.67 12.67 0 00-14.07 2.863 12.678 12.678 0 00-3.55 9.247v1.7c.045.375.112.747.202 1.113a.202.202 0 000 .093 12.655 12.655 0 008.86 9.267 12.657 12.657 0 0012.409-3.223l-4.437-4.436a6.413 6.413 0 01-4.374 1.87zm0-12.767a6.35 6.35 0 015.673 3.477h-11.392a6.353 6.353 0 015.719-3.508v.03zm-89.728-5.782h-.85l-1.268 1.268a12.66 12.66 0 100 21.856v1.608a6.384 6.384 0 01-12.365 2.318l-4.637 4.638a12.659 12.659 0 0023.185-6.57V63.19h-4.158.093zM19.059 75.4a6.384 6.384 0 11-12.767 0 6.384 6.384 0 0112.767 0zM106.438 6.183h-6.059a16.265 16.265 0 00-24.078-1.574 16.26 16.26 0 00-4.456 7.757A15.983 15.983 0 0056.465.649H40.482v15.983a15.92 15.92 0 005.982 12.443 25.442 25.442 0 0050.854.294 16.185 16.185 0 005.936-17.699l1.452-2.488 1.732-3z" fill="#1D1D1B"/><path d="M60.36 18.502l-4.097-4.096V5.209h.248c1.312.003 2.614.233 3.848.68v12.613zM45.087 7.203v6.368h6.384l-6.384-6.368zm8.362-1.994h-6.384l6.384 6.384V5.209zm.82 11.175h-9.182v.248c.003 1.312.233 2.614.68 3.849h12.597l-4.096-4.097zm-7.018 6.91a11.378 11.378 0 0016.26 2.318l-2.333-2.318H47.252zM63.157 7.373v13.911l2.334 2.334a11.36 11.36 0 00-2.334-16.26v.015z" fill="#A2D45E"/><path d="M87.642 28.008a11.732 11.732 0 110-23.463 11.732 11.732 0 010 23.463zm-15.75 21.408a20.914 20.914 0 01-20.636-17.683 15.983 15.983 0 0020.681-11.175 16.291 16.291 0 0020.574 11.268 20.898 20.898 0 01-20.62 17.59z" fill="#F3BD48"/><path d="M93.114 9.089a4.374 4.374 0 103.091 5.363 4.358 4.358 0 00-3.091-5.363zM146.735 71.04a4.28 4.28 0 00-4.216 5.114 4.282 4.282 0 008.482-.847 4.267 4.267 0 00-4.266-4.266zm0 7.73a3.4 3.4 0 113.245-3.417 3.32 3.32 0 01-3.245 3.37v.046zm1.452-3.37c.161-.25.247-.54.248-.835a1.546 1.546 0 00-.418-1.082 1.414 1.414 0 00-1.051-.449h-1.777v4.638h.974v-1.546h.541l.865 1.546h1.098l-.974-1.762c.208-.143.377-.334.494-.557v.047zm-.881-.433a.408.408 0 01-.34.154h-.803v-1.113h.757a.415.415 0 01.34.155.618.618 0 01.046.757v.047z" fill="#1D1D1B"/></g><defs><clipPath id="cmclip0_967_4049"><path fill="#fff" d="M0 0h151v111.43H0z"/></clipPath></defs></svg>