<?xml version="1.0" encoding="utf-8"?><svg width="151" height="112" fill="none" xmlns="http://www.w3.org/2000/svg" viewBox="0 0 151 112"><g clip-path="url(#ctclip0_967_4057)"><path d="M63.545 64.394a12.582 12.582 0 016.383-1.747v6.292a6.384 6.384 0 00-6.383 6.383v12.196h-6.276v-24.33h5.008l1.268 1.268v-.062zm73.869 10.712l8.702 12.366h-7.373l-5.008-7.142-5.023 7.142h-7.358l8.687-12.366-8.393-11.917h7.373l4.714 6.723 4.637-6.724h7.373l-8.331 11.918zM48.907 63.189h-.912l-1.268 1.267a12.66 12.66 0 100 21.856l1.268 1.268h5.008V63.188h-4.158.062zm-8.501 18.548a6.384 6.384 0 110-12.767 6.384 6.384 0 010 12.767zm48.89-17.327a12.659 12.659 0 100 21.856l1.268 1.267h5.023V53.914h-6.29V64.41zm-6.384 17.327a6.384 6.384 0 110-12.767 6.384 6.384 0 010 12.767zm27.993 0a6.383 6.383 0 01-5.673-3.478h17.992c.236-.95.356-1.926.356-2.906a12.679 12.679 0 00-7.715-12.11 12.67 12.67 0 00-14.07 2.863 12.678 12.678 0 00-3.55 9.247v1.7c.045.375.112.747.202 1.113a.202.202 0 000 .093 12.655 12.655 0 008.86 9.267 12.657 12.657 0 0012.409-3.223l-4.437-4.436a6.413 6.413 0 01-4.374 1.87zm0-12.767a6.35 6.35 0 015.673 3.477h-11.392a6.353 6.353 0 015.719-3.508v.03zm-89.728-5.782h-.85l-1.268 1.268a12.66 12.66 0 100 21.856v1.608a6.384 6.384 0 01-12.365 2.318l-4.637 4.638a12.659 12.659 0 0023.185-6.57V63.19h-4.158.093zM19.059 75.4a6.384 6.384 0 11-12.767 0 6.384 6.384 0 0112.767 0zM106.438 6.183h-6.059a16.265 16.265 0 00-24.078-1.574 16.26 16.26 0 00-4.456 7.757A15.983 15.983 0 0056.465.649H40.482v15.983a15.92 15.92 0 005.982 12.443 25.442 25.442 0 0050.854.294 16.185 16.185 0 005.936-17.699l1.452-2.488 1.732-3z" fill="#1D1D1B"/><path d="M60.36 18.502l-4.097-4.096V5.209h.248c1.312.003 2.614.233 3.848.68v12.613zM45.087 7.203v6.368h6.384l-6.384-6.368zm8.362-1.994h-6.384l6.384 6.384V5.209zm.82 11.175h-9.182v.248c.003 1.312.233 2.614.68 3.849h12.597l-4.096-4.097zm-7.018 6.91a11.378 11.378 0 0016.26 2.318l-2.333-2.318H47.252zM63.157 7.373v13.911l2.334 2.334a11.36 11.36 0 00-2.334-16.26v.015z" fill="#A2D45E"/><path d="M87.642 28.008a11.732 11.732 0 110-23.463 11.732 11.732 0 010 23.463zm-15.75 21.408a20.914 20.914 0 01-20.636-17.683 15.983 15.983 0 0020.681-11.175 16.291 16.291 0 0020.574 11.268 20.898 20.898 0 01-20.62 17.59z" fill="#F3BD48"/><path d="M93.114 9.089a4.374 4.374 0 103.091 5.363 4.358 4.358 0 00-3.091-5.363zM146.735 71.04a4.28 4.28 0 00-4.216 5.114 4.282 4.282 0 008.482-.847 4.267 4.267 0 00-4.266-4.266zm0 7.73a3.4 3.4 0 113.245-3.417 3.32 3.32 0 01-3.245 3.37v.046zm1.452-3.37c.161-.25.247-.54.248-.835a1.546 1.546 0 00-.418-1.082 1.414 1.414 0 00-1.051-.449h-1.777v4.638h.974v-1.546h.541l.865 1.546h1.098l-.974-1.762c.208-.143.377-.334.494-.557v.047zm-.881-.433a.408.408 0 01-.34.154h-.803v-1.113h.757a.415.415 0 01.34.155.618.618 0 01.046.757v.047z" fill="#1D1D1B"/><path d="M73.221 96.1h8.755v2.244h-3.213V108h-2.346v-9.656h-3.196V96.1zm16.83 4.726V96.1h2.33V108h-2.33v-4.93h-4.42V108h-2.345V96.1h2.346v4.726h4.42zm6.886 2.261v2.669h5.015V108h-7.36V96.1h7.275v2.244h-4.93v2.533h4.505v2.21h-4.505zm15.73 4.913h-2.533l-2.397-4.131h-1.785V108h-2.346V96.1h4.76c1.099 0 2.034.385 2.805 1.156.771.77 1.156 1.7 1.156 2.788 0 .737-.21 1.422-.629 2.057a3.959 3.959 0 01-1.666 1.411l2.635 4.488zm-4.301-9.707h-2.414v3.519h2.414c.442 0 .822-.17 1.139-.51.317-.351.476-.771.476-1.258s-.159-.901-.476-1.241c-.317-.34-.697-.51-1.139-.51zM124.248 108h-2.55l-.714-2.142h-4.743l-.714 2.142h-2.533l4.165-11.9h2.907l4.182 11.9zm-5.627-9.197l-1.632 4.862h3.264l-1.632-4.862zm6.783-2.703h4.437c1.133 0 2.096.385 2.89 1.156.782.77 1.173 1.717 1.173 2.839 0 1.122-.391 2.068-1.173 2.839-.794.771-1.757 1.156-2.89 1.156h-2.091V108h-2.346V96.1zm2.346 5.797h2.091c.498 0 .912-.17 1.241-.51.328-.351.493-.782.493-1.292 0-.521-.165-.952-.493-1.292-.329-.34-.743-.51-1.241-.51h-2.091v3.604zm14.115-5.797h2.652l-4.08 7.259V108h-2.329v-4.641l-4.063-7.259h2.652l2.584 4.964 2.584-4.964z" fill="#fff"/></g><defs><clipPath id="ctclip0_967_4057"><path fill="#fff" d="M0 0h151v111.43H0z"/></clipPath></defs></svg>