<?xml version="1.0" encoding="utf-8"?><svg width="104" height="32" fill="none" xmlns="http://www.w3.org/2000/svg" viewBox="0 0 104 32"><g clip-path="url(#crclip0_939_2015)" fill="#1D1D1B"><path d="M42.899 7.166a8.405 8.405 0 014.317-1.192v4.301a4.287 4.287 0 00-3.053 1.283 4.412 4.412 0 00-1.264 3.097v8.366h-4.197V6.29h3.385l.864.876h-.052zm49.876 7.34l5.871 8.506h-4.982l-3.376-4.905-3.385 4.905h-4.974l5.863-8.506-5.664-8.216H87.1l3.187 4.607 3.177-4.607h4.974l-5.664 8.216zM33.012 6.29h-.57l-.864.876a8.413 8.413 0 00-4.317-1.192 8.487 8.487 0 00-6.045 2.54 8.736 8.736 0 00-2.504 6.133c0 2.3.9 4.507 2.503 6.135a8.496 8.496 0 006.046 2.546c1.518 0 3.009-.41 4.317-1.192l.864.876h3.385V6.29h-2.815zm-5.743 12.728a4.287 4.287 0 01-3.053-1.283 4.412 4.412 0 01-1.264-3.097c0-1.162.455-2.276 1.264-3.097a4.287 4.287 0 013.053-1.283c1.146 0 2.244.461 3.053 1.283a4.435 4.435 0 01.936 4.773 4.383 4.383 0 01-.936 1.42c-.4.408-.877.73-1.4.95a4.264 4.264 0 01-1.653.334zM60.29 7.157a8.404 8.404 0 00-4.317-1.191 8.496 8.496 0 00-6.048 2.54 8.745 8.745 0 00-2.51 6.132c0 1.14.222 2.269.652 3.322a8.691 8.691 0 001.855 2.816 8.55 8.55 0 002.776 1.882 8.45 8.45 0 003.275.66 8.405 8.405 0 004.318-1.19l.863.876h3.385V0H60.29v7.157zm-4.317 11.86a4.287 4.287 0 01-3.053-1.282 4.412 4.412 0 01-1.264-3.097c0-1.162.454-2.276 1.264-3.097a4.287 4.287 0 013.053-1.283c1.145 0 2.243.461 3.053 1.283a4.413 4.413 0 011.265 3.097c0 .575-.112 1.145-.329 1.676a4.385 4.385 0 01-.936 1.42 4.265 4.265 0 01-3.053 1.283zm18.893 0a4.272 4.272 0 01-2.245-.64 4.356 4.356 0 01-1.588-1.733H83.19a8.745 8.745 0 00-2.276-8.13 8.496 8.496 0 00-6.049-2.54 8.487 8.487 0 00-6.044 2.54 8.736 8.736 0 00-2.504 6.133c-.002.325.018.65.06.972a1.291 1.291 0 000 .193c.035.262.078.516.13.762v.07a8.696 8.696 0 003.013 4.807 8.481 8.481 0 005.302 1.877 8.409 8.409 0 003.273-.658 8.507 8.507 0 002.772-1.883L77.87 17.74a4.287 4.287 0 01-2.997 1.279h-.008zm0-8.76a4.27 4.27 0 012.247.646 4.356 4.356 0 011.588 1.738h-7.668a4.355 4.355 0 011.594-1.73 4.271 4.271 0 012.248-.636l-.008-.017zM14.282 6.273h-.578l-.864.876a8.388 8.388 0 00-4.317-1.191 8.487 8.487 0 00-6.045 2.54 8.736 8.736 0 00-2.504 6.132c0 2.3.9 4.508 2.503 6.136a8.496 8.496 0 006.046 2.545 8.388 8.388 0 004.317-1.191v1.2a4.412 4.412 0 01-1.264 3.097 4.287 4.287 0 01-3.053 1.283 4.275 4.275 0 01-2.426-.767 4.37 4.37 0 01-1.58-2.019l-3.135 3.18a8.578 8.578 0 003.083 2.87A8.435 8.435 0 008.523 32a8.485 8.485 0 005.955-2.447 8.73 8.73 0 002.593-5.963V6.29h-2.806l.017-.018zM12.85 14.63a4.412 4.412 0 01-1.265 3.097 4.286 4.286 0 01-3.053 1.283 4.286 4.286 0 01-3.053-1.283 4.412 4.412 0 01-1.264-3.097c0-1.162.455-2.276 1.264-3.097a4.287 4.287 0 013.053-1.283c1.145 0 2.244.462 3.053 1.283a4.412 4.412 0 011.265 3.097z"/><path d="M100.088 10.678a3.852 3.852 0 00-1.5.297 3.9 3.9 0 00-1.274.86 3.964 3.964 0 00-.85 1.29 4.01 4.01 0 00-.296 1.521 4.01 4.01 0 00.294 1.525c.196.484.485.923.85 1.293a3.855 3.855 0 002.777 1.16 3.859 3.859 0 002.771-1.163 3.978 3.978 0 001.14-2.814 3.987 3.987 0 00-1.143-2.809 3.86 3.86 0 00-2.769-1.16zm0 7.122a2.987 2.987 0 01-1.163-.254 3.022 3.022 0 01-.977-.69 3.074 3.074 0 01-.638-1.02 3.108 3.108 0 01-.2-1.19 3.073 3.073 0 01.839-2.21c.276-.292.608-.527.976-.689a2.985 2.985 0 011.163-.254 3.014 3.014 0 012.135.947 3.085 3.085 0 01.836 2.207 3.086 3.086 0 01-.836 2.206 3.014 3.014 0 01-2.135.947zm1.33-3.118a1.4 1.4 0 00.233-.78 1.415 1.415 0 00-.819-1.313 1.243 1.243 0 00-.519-.106h-1.632v4.257h.863v-1.445h.492l.786 1.445h1.002l-.864-1.62c.185-.107.342-.258.458-.438zm-.794-.403a.421.421 0 01-.311.149h-.734v-1.043h.734a.408.408 0 01.311.149.53.53 0 01.129.368.538.538 0 01-.129.377z"/></g><defs><clipPath id="crclip0_939_2015"><path fill="#fff" d="M0 0h104v32H0z"/></clipPath></defs></svg>