<?xml version="1.0" encoding="utf-8"?><svg width="152" height="109" fill="none" xmlns="http://www.w3.org/2000/svg" viewBox="0 0 152 109"><path d="M63.3 63.094a12.274 12.274 0 016.268-1.705v6.155a6.269 6.269 0 00-6.269 6.27v11.972h-6.168V61.853h4.914l1.254 1.253v-.012zM135.701 73.6l8.526 12.174h-7.222l-4.914-7.021-4.915 7.02h-7.222l8.526-12.173-8.237-11.76h7.234l4.614 6.595 4.613-6.595h7.234l-8.237 11.76zM48.944 61.84h-.878l-1.254 1.254a12.424 12.424 0 100 21.426l1.254 1.254h5.015V61.853h-4.137v-.013zm-8.338 18.23a6.269 6.269 0 110-12.538 6.269 6.269 0 010 12.537zm47.93-16.989a12.424 12.424 0 100 21.427l1.255 1.253h4.902V52.826h-6.156V63.08zM82.269 80.07a6.269 6.269 0 11.013 0h-.013zm27.444 0a6.268 6.268 0 01-5.566-3.41h17.652c.228-.931.341-1.887.339-2.846a12.426 12.426 0 00-7.573-11.835 12.42 12.42 0 00-13.769 2.796 12.423 12.423 0 00-3.495 9.04c.005.464.034.929.088 1.39v.264c.048.371.115.74.2 1.103v.088a12.4 12.4 0 0020.85 5.93l-4.363-4.363a6.165 6.165 0 01-4.35 1.843h-.013zm0-12.537a6.27 6.27 0 015.567 3.41h-11.121a6.27 6.27 0 015.567-3.397l-.013-.013zM21.738 61.84h-.828l-1.253 1.254a12.425 12.425 0 100 21.426v1.705a6.269 6.269 0 01-12.086 2.27l-4.552 4.55a12.412 12.412 0 0022.806-6.419V61.865h-4.087v-.025zm-2.069 11.973a6.268 6.268 0 11-12.536 0 6.268 6.268 0 0112.536 0zM105.337 6.036h-5.868a15.947 15.947 0 00-27.97 6.068A15.684 15.684 0 0056.454.62H40.682v15.66a15.636 15.636 0 005.867 12.21 24.937 24.937 0 0049.849.289 15.888 15.888 0 005.817-17.377l1.429-2.507 1.693-2.859z" fill="#1D1D1B"/><path d="M60.126 18.11L56.1 14.085V5.133h.239c1.282.005 2.554.23 3.76.665l.026 12.312zM45.156 7.027v6.268h6.269l-6.269-6.268zm8.2-1.944h-6.269l6.269 6.269V5.083zm.802 10.945h-9.002v.239c.004 1.282.23 2.555.665 3.76h12.362l-4.025-3.999zm-6.883 6.77A11.12 11.12 0 0063.21 25.08L60.928 22.8H47.275zM62.871 7.203v13.653l2.282 2.282a11.12 11.12 0 00-2.282-15.935z" fill="#A2D45E"/><path d="M86.931 27.425a11.497 11.497 0 110-22.994 11.497 11.497 0 010 22.994zM71.485 48.412A20.511 20.511 0 0151.25 31.073a15.635 15.635 0 0020.273-10.895A15.985 15.985 0 0086.93 31.901c1.621 0 3.232-.25 4.777-.74a20.512 20.512 0 01-20.235 17.251h.012z" fill="#F3BD48"/><path d="M92.284 8.895a4.288 4.288 0 10-2.208 8.286 4.288 4.288 0 002.209-8.286zM146.332 68.121a5.69 5.69 0 00-4.054 9.713 5.693 5.693 0 009.721-4.033 5.66 5.66 0 00-1.655-4.016 5.677 5.677 0 00-4.012-1.664zm0 10.206a4.527 4.527 0 114.313-4.526 4.388 4.388 0 01-4.313 4.526zm1.931-4.476c.213-.329.326-.712.326-1.103a2.007 2.007 0 00-.564-1.442 1.829 1.829 0 00-1.379-.602h-2.37v6.106h1.254v-2.082h.727l1.141 2.082h1.442l-1.254-2.332c.272-.153.504-.368.677-.627zm-1.166-.577a.612.612 0 01-.451.213h-1.066v-1.492h1.066a.604.604 0 01.451.213c.135.147.206.34.201.54a.769.769 0 01-.188.526h-.013z" fill="#1D1D1B"/><path d="M87.157 90.05h.188v2.507h-.213a2.209 2.209 0 00-1.68.376 1.894 1.894 0 00-.477 1.416h2.37v2.508h-2.37v7.974h-2.582v-7.974h-1.53V94.35h1.53a4.288 4.288 0 011.254-3.298 4.601 4.601 0 013.51-1.003zm10.23 4.287h2.583v10.469h-2.582v-1.079a4.327 4.327 0 01-3.322 1.342 4.93 4.93 0 01-3.686-1.605 5.73 5.73 0 010-7.798 5.014 5.014 0 013.685-1.593 4.338 4.338 0 013.323 1.342v-1.078zm0 5.24a2.957 2.957 0 00-.84-2.168 2.92 2.92 0 00-2.13-.853 2.835 2.835 0 00-2.132.853 3.172 3.172 0 000 4.325 3.083 3.083 0 004.263 0 2.974 2.974 0 00.84-2.157zm17.127-5.504a3.61 3.61 0 00-3.072 1.43 3.31 3.31 0 00-2.871-1.43 3.423 3.423 0 00-2.671 1.091v-.827h-2.595v10.469h2.583v-5.843a2.658 2.658 0 01.564-1.843 1.906 1.906 0 011.467-.602 1.546 1.546 0 011.254.502c.324.426.48.958.438 1.492v6.268h2.583v-5.842a2.79 2.79 0 01.539-1.856 1.838 1.838 0 011.455-.589 1.63 1.63 0 011.253.502c.337.421.503.954.464 1.492v6.268h2.583v-6.444a4.367 4.367 0 00-1.103-3.11 3.766 3.766 0 00-2.871-1.127zm8.425-4.024a1.528 1.528 0 00-1.129.476 1.583 1.583 0 00-.342 1.724c.082.192.203.365.355.508a1.54 1.54 0 002.231 0 1.576 1.576 0 00.356-1.73 1.582 1.582 0 00-1.471-.978zm-1.254 14.757h2.583v-10.47h-2.633l.05 10.47zm5.905 0h2.508V89.761h-2.508v15.045zm12.738-10.47l-2.507 6.947-2.846-6.946h-2.821l4.363 10.03-.076.138a3.315 3.315 0 01-.965 1.454c-.437.31-.972.448-1.504.389h-.214v2.432h.527c2.219 0 3.761-1.254 4.777-3.849l3.962-10.657-2.696.063z" fill="#E8EDF0"/></svg>