<?xml version="1.0" encoding="utf-8"?><svg width="104" height="97" fill="none" xmlns="http://www.w3.org/2000/svg" viewBox="0 0 104 97"><g clip-path="url(#clclip0_1916_1737)"><path d="M88.17 6.86h-6.716a18.039 18.039 0 00-8.058-5.8A18 18 0 0063.495.41a18.025 18.025 0 00-8.746 4.695 18.085 18.085 0 00-4.946 8.62 17.797 17.797 0 00-6.376-9.4A17.731 17.731 0 0032.674.707H15V18.47a17.76 17.76 0 001.729 7.674 17.723 17.723 0 004.872 6.168 28.31 28.31 0 008.378 19.617 28.188 28.188 0 0019.671 8.165 28.186 28.186 0 0019.765-7.934 28.309 28.309 0 008.607-19.517 17.941 17.941 0 006.423-8.779 17.981 17.981 0 00.178-10.885l1.65-2.778 1.898-3.34z" fill="#2D2A26"/><path d="M36.998 20.553l-4.538-4.548V5.785h.214c1.458.005 2.904.262 4.274.76l.05 14.008zM20.05 7.984v7.095h7.08l-7.08-7.095zm9.323-2.2h-7.112l7.113 7.096V5.785zm.908 12.421H20.05v.265c.006 1.466.263 2.92.759 4.3h13.994l-4.522-4.565zm-7.789 7.674a12.575 12.575 0 0013.513 4.866 12.581 12.581 0 004.524-2.27l-2.59-2.596H22.491zM40.15 8.183v15.496l2.557 2.597a12.695 12.695 0 002.545-9.6 12.702 12.702 0 00-5.136-8.493h.034z" fill="#A2D45E"/><path d="M67.328 31.121c-2.572 0-5.086-.764-7.224-2.196a13.025 13.025 0 01-4.79-5.849 13.057 13.057 0 012.82-14.202A12.978 12.978 0 0172.304 6.05a13.01 13.01 0 015.835 4.8 13.052 13.052 0 012.192 7.24 13.063 13.063 0 01-3.814 9.21 13.006 13.006 0 01-9.19 3.822zM49.852 54.936a23.189 23.189 0 01-15.072-5.597 23.282 23.282 0 01-7.833-14.067 17.722 17.722 0 0014.19-1.176 17.766 17.766 0 005.556-4.703 17.81 17.81 0 003.209-6.54 18.109 18.109 0 003.245 6.457 18.063 18.063 0 005.508 4.668 18.026 18.026 0 0014.07 1.393 23.265 23.265 0 01-7.846 13.999 23.172 23.172 0 01-15.027 5.566z" fill="#F3BD48"/><path d="M73.401 10.101a4.859 4.859 0 00-5.135 1.72 4.885 4.885 0 001.686 7.356 4.86 4.86 0 005.37-.699 4.888 4.888 0 001.017-6.098 4.87 4.87 0 00-2.938-2.279z" fill="#2D2A26"/><path d="M42.925 72.166a8.404 8.404 0 014.317-1.192v4.301a4.286 4.286 0 00-3.053 1.283 4.412 4.412 0 00-1.264 3.097v8.366h-4.197V71.29h3.385l.863.876h-.051zm49.875 7.34l5.872 8.506H93.69l-3.376-4.905-3.385 4.905h-4.974l5.863-8.506-5.665-8.216h4.974l3.187 4.607 3.177-4.607h4.974L92.8 79.506zM33.038 71.29h-.57l-.864.876a8.413 8.413 0 00-4.317-1.192 8.487 8.487 0 00-6.045 2.54 8.736 8.736 0 00-2.504 6.133c0 2.3.9 4.507 2.503 6.135a8.496 8.496 0 006.046 2.546c1.518 0 3.009-.41 4.317-1.192l.864.876h3.385V71.29h-2.816zm-5.743 12.728a4.287 4.287 0 01-3.053-1.283 4.412 4.412 0 01-1.264-3.097c0-1.162.455-2.276 1.264-3.097a4.287 4.287 0 013.053-1.283c1.145 0 2.243.461 3.053 1.283a4.435 4.435 0 01.936 4.773 4.385 4.385 0 01-.936 1.42c-.4.408-.877.73-1.4.95a4.264 4.264 0 01-1.653.334zm33.02-11.861a8.405 8.405 0 00-4.317-1.191 8.496 8.496 0 00-6.048 2.539 8.746 8.746 0 00-2.51 6.133c0 1.14.222 2.269.652 3.322a8.691 8.691 0 001.855 2.816 8.55 8.55 0 002.776 1.882 8.45 8.45 0 003.275.66 8.405 8.405 0 004.318-1.19l.863.876h3.385V65h-4.248v7.157zm-4.317 11.86a4.286 4.286 0 01-3.053-1.282 4.412 4.412 0 01-1.264-3.097c0-1.162.454-2.276 1.264-3.097a4.286 4.286 0 013.053-1.283c1.145 0 2.243.461 3.053 1.283a4.412 4.412 0 011.264 3.097c0 .575-.111 1.145-.328 1.676a4.384 4.384 0 01-.936 1.42 4.265 4.265 0 01-3.053 1.283zm18.893 0a4.272 4.272 0 01-2.245-.64 4.355 4.355 0 01-1.588-1.733h12.157a8.745 8.745 0 00-2.276-8.13 8.496 8.496 0 00-6.048-2.54 8.487 8.487 0 00-6.044 2.54 8.736 8.736 0 00-2.504 6.133c-.002.325.018.65.06.972a1.291 1.291 0 000 .193c.035.262.078.517.13.762v.07a8.696 8.696 0 003.013 4.807 8.48 8.48 0 005.302 1.877 8.409 8.409 0 003.273-.658 8.507 8.507 0 002.772-1.883l-2.997-3.048a4.287 4.287 0 01-2.996 1.279h-.009zm0-8.76a4.27 4.27 0 012.247.646 4.356 4.356 0 011.587 1.738h-7.667a4.355 4.355 0 011.593-1.73 4.271 4.271 0 012.249-.636l-.009-.017zm-60.583-3.985h-.578l-.864.876a8.389 8.389 0 00-4.317-1.191 8.487 8.487 0 00-6.045 2.54A8.736 8.736 0 000 79.629c0 2.3.9 4.508 2.503 6.135A8.496 8.496 0 008.55 88.31a8.388 8.388 0 004.317-1.191v1.2a4.412 4.412 0 01-1.264 3.097 4.287 4.287 0 01-3.053 1.283 4.275 4.275 0 01-2.426-.767 4.37 4.37 0 01-1.581-2.019l-3.134 3.18a8.578 8.578 0 003.083 2.87A8.435 8.435 0 008.549 97a8.485 8.485 0 005.955-2.447 8.73 8.73 0 002.593-5.962V71.29h-2.806l.017-.018zm-1.433 8.357a4.412 4.412 0 01-1.265 3.097 4.286 4.286 0 01-3.053 1.283 4.286 4.286 0 01-3.053-1.283A4.412 4.412 0 014.24 79.63c0-1.162.455-2.276 1.264-3.097a4.287 4.287 0 013.053-1.283c1.145 0 2.243.462 3.053 1.283a4.412 4.412 0 011.265 3.097z" fill="#F2F2F2"/><path d="M100.114 75.678a3.857 3.857 0 00-1.501.297 3.9 3.9 0 00-1.273.86 3.963 3.963 0 00-.85 1.29 4.01 4.01 0 00-.297 1.522 4.01 4.01 0 00.294 1.524c.196.484.485.923.85 1.293a3.9 3.9 0 001.274.862c.476.199.987.3 1.503.298.514 0 1.024-.101 1.5-.3a3.947 3.947 0 002.118-2.154c.196-.484.296-1.001.293-1.523a4.015 4.015 0 00-.295-1.52 3.953 3.953 0 00-.848-1.289 3.895 3.895 0 00-1.27-.86 3.852 3.852 0 00-1.498-.3zm0 7.122a2.986 2.986 0 01-1.164-.254 3.022 3.022 0 01-.976-.69 3.074 3.074 0 01-.639-1.02 3.108 3.108 0 01-.2-1.19 3.073 3.073 0 01.839-2.21c.277-.292.609-.527.976-.689a2.987 2.987 0 011.164-.254 2.99 2.99 0 012.134.947 3.086 3.086 0 01.836 2.206 3.086 3.086 0 01-.836 2.207 2.99 2.99 0 01-2.134.947zm1.329-3.118c.154-.23.235-.502.234-.78a1.416 1.416 0 00-.389-.999 1.247 1.247 0 00-.95-.42h-1.632v4.257h.864v-1.445h.492l.786 1.445h1.001l-.863-1.62c.185-.107.341-.258.457-.438zm-.794-.403a.417.417 0 01-.311.149h-.734v-1.043h.734a.41.41 0 01.311.15.532.532 0 01.13.367.539.539 0 01-.13.377z" fill="#F2F2F2"/></g><defs><clipPath id="clclip0_1916_1737"><path fill="#fff" d="M0 0h104v97H0z"/></clipPath></defs></svg>