<?xml version="1.0" encoding="utf-8"?><svg width="107" height="80" fill="none" xmlns="http://www.w3.org/2000/svg" viewBox="0 0 107 80"><g clip-path="url(#cqclip0_967_1962)"><path d="M9.078 72.02a8.836 8.836 0 01-7.286-3.835l2.952-2.947a4.804 4.804 0 008.089.921 4.822 4.822 0 001.055-2.997v-1.244a.233.233 0 00-.121-.206.224.224 0 00-.112 0 .289.289 0 00-.121 0 8.836 8.836 0 01-12.127-3.2 8.869 8.869 0 013.256-12.13 8.836 8.836 0 018.87.045c.04.008.082.008.122 0a.244.244 0 00.196-.103l.813-.814h3.26v17.895a8.818 8.818 0 01-2.663 6.12 8.792 8.792 0 01-6.183 2.496zm0-22.768a4.805 4.805 0 00-4.444 2.974 4.824 4.824 0 001.042 5.25 4.809 4.809 0 005.243 1.044 4.812 4.812 0 002.97-4.45 4.83 4.83 0 00-1.412-3.405 4.816 4.816 0 00-3.399-1.413zm70.429 13.676a8.8 8.8 0 01-5.494-1.908 8.823 8.823 0 01-3.258-5.725v-.197a8.869 8.869 0 012.882-7.57 8.841 8.841 0 0110.343-1.07 8.849 8.849 0 014.22 5.836 8.874 8.874 0 01-.006 3.684h-12.76a.243.243 0 00-.196.112.216.216 0 000 .224 4.806 4.806 0 003.4 2.525 4.794 4.794 0 004.073-1.15l2.858 2.863a8.792 8.792 0 01-6.062 2.376zm0-13.676a4.786 4.786 0 00-4.278 2.619.234.234 0 000 .234.242.242 0 00.196.112h8.145a.242.242 0 00.196-.112.234.234 0 000-.234 4.797 4.797 0 00-4.26-2.62zM59.443 62.928a8.835 8.835 0 01-7.036-3.467 8.863 8.863 0 01-1.52-7.704 8.863 8.863 0 015.19-5.887 8.833 8.833 0 017.822.557h.112c.04.01.081.01.121 0a.234.234 0 00.121-.206v-7.278h4.036v23.62h-3.27l-.822-.832-.065-.056a.26.26 0 00-.121 0h-.112a8.818 8.818 0 01-4.456 1.253zm0-13.676a4.805 4.805 0 00-4.444 2.974 4.824 4.824 0 001.042 5.25 4.809 4.809 0 008.213-3.407 4.83 4.83 0 00-1.412-3.404 4.816 4.816 0 00-3.399-1.413zM28.964 62.928a8.835 8.835 0 01-7.036-3.467 8.863 8.863 0 01-1.52-7.704 8.863 8.863 0 015.19-5.887 8.833 8.833 0 017.822.557c.04.01.081.01.121 0h.112l.075-.075.813-.814h3.269v17.025h-3.27l-.821-.832-.066-.056a.26.26 0 00-.121 0h-.112a8.818 8.818 0 01-4.456 1.253zm0-13.676a4.805 4.805 0 00-4.444 2.974 4.824 4.824 0 001.043 5.25 4.809 4.809 0 008.212-3.407 4.83 4.83 0 00-1.412-3.404 4.816 4.816 0 00-3.399-1.413zM99.58 62.563l-3.522-5.042a.242.242 0 00-.382 0l-3.522 5.042h-4.67l5.978-8.55a.243.243 0 000-.271L87.699 45.5h4.717l3.306 4.733a.224.224 0 00.187.103.233.233 0 00.196-.103l3.288-4.696h4.67L98.3 53.779a.244.244 0 000 .271l5.978 8.55-4.698-.037zm-58.295 0V45.538h3.26l.822.823c.02.027.045.049.074.066h.112c.04.01.082.01.122 0a8.761 8.761 0 014.222-1.216v4.05a4.807 4.807 0 00-3.248 1.488 4.821 4.821 0 00-1.33 3.32v8.494h-4.034z" fill="#1D1D1B"/><path d="M68.056 39.177v23.19h-2.933l-.738-.74a.597.597 0 00-.14-.12.466.466 0 00-.224-.057.54.54 0 00-.243.056 8.603 8.603 0 01-11.806-3.117 8.634 8.634 0 013.17-11.808 8.601 8.601 0 018.636.042c.07.043.15.066.233.066a.401.401 0 00.234-.066.458.458 0 00.243-.402v-7.044h3.568zM59.444 59.12a5.039 5.039 0 004.66-3.119 5.059 5.059 0 00-1.094-5.505 5.042 5.042 0 00-8.61 3.572 5.064 5.064 0 001.48 3.57 5.05 5.05 0 003.564 1.482zm20.063-13.677a8.573 8.573 0 016.613 3.138 8.602 8.602 0 011.794 7.106h-12.48a.457.457 0 00-.454.453c0 .08.021.16.063.23a5.03 5.03 0 004.483 2.75 4.956 4.956 0 003.213-1.17l2.532 2.535a8.598 8.598 0 01-8.348 1.815 8.601 8.601 0 01-5.794-6.286 7.587 7.587 0 01-.14-.767V55.079a8.833 8.833 0 01-.056-.935 8.641 8.641 0 012.525-6.096 8.615 8.615 0 016.087-2.529m-4.073 7.007h8.145a.457.457 0 00.393-.225.468.468 0 000-.458 5.04 5.04 0 00-4.484-2.749 5.03 5.03 0 00-4.483 2.749.45.45 0 00.166.622c.069.04.147.06.226.06m-46.47-7.08a8.64 8.64 0 014.334 1.178c.07.043.151.066.233.066a.401.401 0 00.234-.066.457.457 0 00.13-.103l.748-.748h2.933v16.595h-2.933l-.738-.74a.597.597 0 00-.14-.12.466.466 0 00-.224-.057.54.54 0 00-.243.056 8.593 8.593 0 01-10.781-1.75 8.62 8.62 0 01-1.987-7.362 8.623 8.623 0 014.627-6.057 8.591 8.591 0 013.807-.893zm0 13.676a5.038 5.038 0 004.66-3.119 5.059 5.059 0 00-1.093-5.505 5.042 5.042 0 00-8.611 3.572 5.064 5.064 0 001.48 3.57 5.05 5.05 0 003.564 1.482zM9.079 45.444a8.677 8.677 0 014.38 1.216c.07.046.151.069.234.066a.438.438 0 00.233-.066.417.417 0 00.122-.102l.747-.749h2.933v17.652a8.633 8.633 0 01-1.78 4.975 8.6 8.6 0 01-13.847-.26l2.578-2.582a5.046 5.046 0 005.674 2.417 5.044 5.044 0 002.717-1.8 5.057 5.057 0 001.053-3.087V61.88a.486.486 0 00-.234-.411.513.513 0 00-.467 0 8.603 8.603 0 01-10.815-1.725 8.629 8.629 0 01-1.996-7.382 8.631 8.631 0 014.647-6.07 8.602 8.602 0 013.82-.885m0 13.676a5.039 5.039 0 004.66-3.118 5.058 5.058 0 00-1.093-5.505 5.042 5.042 0 00-5.497-1.095 5.046 5.046 0 00-3.113 4.667c0 1.34.531 2.624 1.477 3.572a5.04 5.04 0 003.567 1.48zm40.586-13.667V49a5.05 5.05 0 00-3.26 1.63 5.065 5.065 0 00-1.317 3.403v8.297h-3.606V45.772h2.933l.729.739c.04.047.087.088.14.121a.503.503 0 00.234.056.42.42 0 00.233-.065 8.63 8.63 0 013.877-1.17m53.97.319l-5.51 7.876a.468.468 0 000 .533l5.725 8.186h-4.147l-3.456-4.94a.468.468 0 00-.757 0l-3.456 4.94h-4.147l5.725-8.185a.468.468 0 000-.534l-5.51-7.876h4.147l3.241 4.677a.448.448 0 00.757 0l3.24-4.677h4.148zm-35.112-7.035h-4.502v7.484a9.069 9.069 0 00-12.44 3.29 9.102 9.102 0 003.339 12.446 9.068 9.068 0 009.101-.04l.934.936h3.653V38.71l-.085.028zm-9.079 19.944a4.572 4.572 0 01-4.228-2.83 4.59 4.59 0 01.992-4.995 4.574 4.574 0 017.813 3.241 4.587 4.587 0 01-1.34 3.241 4.573 4.573 0 01-3.237 1.343zM79.47 45.005a9.072 9.072 0 00-6.42 2.663 9.1 9.1 0 00-2.603 7.449v.196c.028.271.075.54.14.805a.16.16 0 000 .065 9.087 9.087 0 002.27 4.194 9.068 9.068 0 008.84 2.517 9.066 9.066 0 004.134-2.37l-3.185-3.19a4.566 4.566 0 01-5.918.474 4.572 4.572 0 01-1.386-1.625H88.25a9.105 9.105 0 00-1.718-7.73 9.082 9.082 0 00-7.118-3.448h.056zm-4.073 7.006a4.572 4.572 0 014.073-2.503 4.563 4.563 0 014.073 2.503h-8.146zm-25.303-7.006c-1.61 0-3.19.43-4.577 1.244l-.934-.936h-3.587v17.531h4.502v-8.765c0-1.216.482-2.382 1.34-3.242a4.573 4.573 0 013.237-1.342v-4.518l.019.028zm-21.166 0a9.067 9.067 0 00-7.215 3.563 9.1 9.1 0 003.767 13.944 9.066 9.066 0 008.024-.566l.935.935h3.596v-17.53h-3.596l-.934.935a9.042 9.042 0 00-4.577-1.244v-.037zm0 13.676a4.571 4.571 0 01-4.229-2.83 4.59 4.59 0 01.992-4.995 4.574 4.574 0 017.814 3.241 4.587 4.587 0 01-1.341 3.241 4.573 4.573 0 01-3.236 1.343zM9.078 44.977a9.068 9.068 0 00-7.214 3.563A9.1 9.1 0 005.63 62.484a9.069 9.069 0 008.025-.566v1.244a4.588 4.588 0 01-1.059 2.918 4.575 4.575 0 01-7.778-1.253l-3.325 3.349a9.066 9.066 0 0014.719.561 9.101 9.101 0 001.917-5.304V45.304h-3.587l-.934.935a9.04 9.04 0 00-4.577-1.244l.047-.018zm0 13.676a4.573 4.573 0 01-4.228-2.83 4.59 4.59 0 01.992-4.995 4.574 4.574 0 017.814 3.241 4.587 4.587 0 01-1.341 3.241 4.574 4.574 0 01-3.236 1.343zm95.453-13.349h-5.287l-3.381 4.836-3.372-4.836h-5.24l6.025 8.616-6.24 8.914h5.287l3.596-5.135 3.587 5.135h5.287l-6.24-8.914 6.025-8.616h-.047zM59.687 76.8v-5.612a.234.234 0 00-.233-.234h-.934V69.58h.934a.233.233 0 00.233-.234 2.942 2.942 0 01.822-2.245 2.967 2.967 0 012.083-.683h.262v1.366h-.206c-.399-.026-.793.101-1.102.355a1.543 1.543 0 00-.43 1.207.234.234 0 00.234.234h1.504v1.403H61.35a.234.234 0 00-.234.234v5.613l-1.429-.028z" fill="#1D1D1B"/><path d="M62.592 66.642v.935a1.81 1.81 0 00-1.233.412 1.797 1.797 0 00-.505 1.384.468.468 0 00.467.468h1.27v.936h-1.27a.467.467 0 00-.467.467v5.35h-.934v-5.387a.468.468 0 00-.467-.468H58.8v-.936h.654a.467.467 0 00.467-.467 2.399 2.399 0 011.593-2.583c.346-.12.715-.158 1.079-.111zm0-.468a2.798 2.798 0 00-3.02 1.89 2.81 2.81 0 00-.119 1.272h-1.158v1.87h1.12v5.857h1.869v-5.856h1.737v-1.871h-1.737a1.356 1.356 0 01.355-1.038c.265-.209.598-.312.934-.29H63.012v-1.871h-.411l-.01.037zM68.019 76.988a3.395 3.395 0 01-2.532-1.104 3.988 3.988 0 010-5.407 3.39 3.39 0 012.532-1.094 2.977 2.977 0 012.27.935.215.215 0 00.168.075h.084a.234.234 0 00.15-.225v-.552h1.428v7.232H70.69v-.571a.234.234 0 00-.15-.215h-.083a.234.234 0 00-.168.075 2.95 2.95 0 01-2.27.85zm.252-6.258a2.321 2.321 0 00-1.728.701 2.356 2.356 0 00-.691 1.75 2.408 2.408 0 00.69 1.758 2.483 2.483 0 003.457 0 2.422 2.422 0 00.691-1.758 2.387 2.387 0 00-2.42-2.451z" fill="#1D1D1B"/><path d="M68.021 69.616a2.799 2.799 0 012.102.833.457.457 0 00.336.14.586.586 0 00.178 0 .468.468 0 00.29-.44v-.317h.933v6.763h-.934v-.337a.449.449 0 00-.299-.43.494.494 0 00-.168 0 .468.468 0 00-.336.15 2.736 2.736 0 01-2.102.841 3.163 3.163 0 01-2.363-1.029 3.577 3.577 0 01-.99-2.544 3.54 3.54 0 01.99-2.544 3.193 3.193 0 012.363-1.02m.253 6.258a2.556 2.556 0 001.868-.776 2.61 2.61 0 00.756-1.871 2.64 2.64 0 00-.756-1.918 2.725 2.725 0 00-3.793 0 2.674 2.674 0 00-.756 1.918 2.65 2.65 0 001.61 2.451c.322.134.667.2 1.015.196m-.253-6.726a3.609 3.609 0 00-2.7 1.17 4.213 4.213 0 000 5.725 3.587 3.587 0 002.7 1.178 3.134 3.134 0 002.438-.991v.804h1.868v-7.699h-1.868v.786a3.195 3.195 0 00-2.438-.935v-.038zm.253 6.258a2.062 2.062 0 01-1.56-.636 2.162 2.162 0 01-.626-1.59 2.138 2.138 0 01.626-1.58 2.063 2.063 0 011.56-.637 2.126 2.126 0 011.569.636 2.35 2.35 0 010 3.171 2.083 2.083 0 01-1.57.636zM84.29 76.8v-4.396a1.807 1.807 0 00-.402-1.253 1.43 1.43 0 00-1.111-.45 1.576 1.576 0 00-1.243.515 2.266 2.266 0 00-.457 1.525v4.06h-1.42v-4.397a1.873 1.873 0 00-.383-1.253 1.371 1.371 0 00-1.093-.45 1.622 1.622 0 00-1.242.524 2.173 2.173 0 00-.486 1.516v4.06h-1.42V69.57h1.42v.374a.244.244 0 00.15.215h.084c.066 0 .13-.027.177-.075a2.336 2.336 0 011.793-.72 2.173 2.173 0 011.868.935.224.224 0 00.291.078.243.243 0 00.083-.068 2.42 2.42 0 012.064-.936 2.574 2.574 0 011.962.786c.52.585.788 1.351.747 2.133v4.5l-1.382.009z" fill="#1D1D1B"/><path d="M83.012 69.616a2.342 2.342 0 011.793.711c.473.546.717 1.253.682 1.974v4.294h-.934v-4.163a2.042 2.042 0 00-.467-1.412 1.662 1.662 0 00-1.28-.524 1.803 1.803 0 00-1.41.598 2.425 2.425 0 00-.523 1.675v3.826h-.934v-4.163a2.107 2.107 0 00-.439-1.403 1.588 1.588 0 00-1.27-.533 1.866 1.866 0 00-1.41.598 2.379 2.379 0 00-.552 1.675v3.826h-.934v-6.763h.934v.14a.469.469 0 00.299.43.364.364 0 00.168 0 .476.476 0 00.346-.15 2.074 2.074 0 011.625-.645 1.94 1.94 0 011.719.842.44.44 0 00.58.153.503.503 0 00.167-.134 2.176 2.176 0 011.868-.86m0-.469a2.62 2.62 0 00-2.251 1.048 2.402 2.402 0 00-2.13-1.076 2.557 2.557 0 00-1.97.795v-.608H74.82v7.7h1.869v-4.294a1.976 1.976 0 01.42-1.357 1.402 1.402 0 011.074-.449 1.118 1.118 0 01.934.374c.236.314.352.702.327 1.095v4.677h1.868V72.75a2.033 2.033 0 01.402-1.366 1.356 1.356 0 011.065-.44 1.176 1.176 0 01.934.375c.25.307.374.699.345 1.094v4.678h1.868v-4.734a3.183 3.183 0 00-.812-2.291 2.803 2.803 0 00-2.13-.861l.056-.066zM89.194 68.288a.933.933 0 01-.903-1.114.937.937 0 01.25-.476.858.858 0 01.653-.28.933.933 0 01.673.28.937.937 0 01.261.664.936.936 0 01-.934.936v-.01z" fill="#1D1D1B"/><path d="M89.203 66.66a.625.625 0 01.486.206.693.693 0 11-1.1.818.693.693 0 01-.087-.322.657.657 0 01.196-.496.673.673 0 01.505-.206zm0-.467a1.112 1.112 0 00-.832.346 1.133 1.133 0 00-.336.823 1.17 1.17 0 001.163 1.065 1.167 1.167 0 001.163-1.065 1.132 1.132 0 00-.336-.823 1.103 1.103 0 00-.822-.346zM89.913 69.579h-1.429v7.222h1.43v-7.222z" fill="#1D1D1B"/><path d="M89.68 69.804v6.791h-.934v-6.763h.934m.467-.468H88.28v7.699h1.868v-7.7zM94.228 66.174h-1.42v10.627h1.42V66.174z" fill="#1D1D1B"/><path d="M94.005 66.408v10.187h-.934V66.408h.934zm.467-.468h-1.868v11.095h1.868V65.94zM97.376 79.757v-1.291h.085a1.68 1.68 0 001.092-.346c.362-.309.633-.71.785-1.16v-.084a.243.243 0 000-.197l-3.045-7.081h1.55l2.037 4.958a.243.243 0 00.215.15.232.232 0 00.214-.16l1.747-4.948h1.513l-2.802 7.483c-.654 1.768-1.765 2.666-3.278 2.666l-.113.01z" fill="#1D1D1B"/><path d="M103.269 69.804l-2.672 7.203c-.625 1.665-1.597 2.488-2.989 2.516v-.86a1.866 1.866 0 001.093-.384c.382-.327.67-.75.832-1.226l.046-.103a.45.45 0 000-.392l-2.905-6.754h1.037l1.98 4.817a.467.467 0 00.43.29.479.479 0 00.43-.318l1.681-4.79h1.018m.673-.467h-2.018l-1.793 5.107-2.093-5.107h-2.064l3.185 7.409v.102c-.138.41-.38.777-.7 1.067a1.54 1.54 0 01-.934.29h-.318V80h.336c1.626 0 2.803-.935 3.494-2.806l2.914-7.83-.009-.028z" fill="#1D1D1B"/><path d="M51.543 38.513a18.08 18.08 0 01-12.566-5.177 18.133 18.133 0 01-5.424-12.475.206.206 0 00-.094-.169 11.222 11.222 0 01-4.203-8.765V.702h11.209c2.458.001 4.848.813 6.801 2.309a11.226 11.226 0 014.006 5.97.234.234 0 00.233.168.243.243 0 00.225-.178 11.444 11.444 0 013.117-5.47A11.419 11.419 0 0166.66.908a11.424 11.424 0 015.115 3.665.224.224 0 00.177.094h3.942L73.82 8.307a.197.197 0 000 .178 11.71 11.71 0 01.467 3.246 11.52 11.52 0 01-4.67 9.204.253.253 0 00-.103.178A17.955 17.955 0 0164.06 33.47a17.901 17.901 0 01-12.516 5.043z" fill="#000"/><path d="M62.835.468a11.13 11.13 0 018.761 4.247.476.476 0 00.365.177h3.53l-.84 1.46-1.037 1.786a.45.45 0 000 .365c.64 2.204.59 4.551-.144 6.726a11.225 11.225 0 01-3.957 5.435.43.43 0 00-.186.365 17.787 17.787 0 01-5.271 12.538 17.734 17.734 0 01-12.58 5.133 17.735 17.735 0 01-12.519-5.279 17.787 17.787 0 01-5.125-12.598.467.467 0 00-.178-.355 10.952 10.952 0 01-4.119-8.578V.926H40.52c2.406.006 4.743.802 6.654 2.265a11.02 11.02 0 013.929 5.836.468.468 0 00.448.346.457.457 0 00.449-.355 11.227 11.227 0 013.963-6.154 11.198 11.198 0 016.91-2.396m0-.468c-2.612.002-5.147.88-7.2 2.495a11.695 11.695 0 00-4.131 6.41 11.469 11.469 0 00-4.098-6.072A11.44 11.44 0 0040.51.486H29.02v11.47a11.454 11.454 0 004.297 8.942 18.264 18.264 0 005.463 12.563 18.208 18.208 0 0025.362.143 18.263 18.263 0 005.604-12.5A11.68 11.68 0 0074.025 8.4l1.037-1.787 1.242-2.152h-4.343A11.633 11.633 0 0062.835.037L62.872 0z" fill="#000"/><path d="M62.835 23.377c1.179 0 2.35-.18 3.475-.533a14.973 14.973 0 01-5.055 9.096 14.932 14.932 0 01-19.49-.05 14.973 14.973 0 01-5.01-9.121 11.409 11.409 0 0012.766-3.82 11.448 11.448 0 002.05-4.244 11.703 11.703 0 004.165 6.248 11.675 11.675 0 007.1 2.424zm8.407-11.693a8.427 8.427 0 01-1.812 5.21 8.819 8.819 0 01-1.42 1.413 8.148 8.148 0 01-1.541.935 8.294 8.294 0 01-3.625.842 8.399 8.399 0 01-5.399-1.978 8.421 8.421 0 01-2.867-4.99 8.3 8.3 0 01-.14-1.45v-.188a9.36 9.36 0 01.196-1.637 8.42 8.42 0 013.324-4.974 8.397 8.397 0 0111.106 1.22 8.426 8.426 0 012.168 5.578l.01.019zm-3.484.43a3.13 3.13 0 001.311-2.57 3.137 3.137 0 00-1.343-2.554 3.126 3.126 0 00-4.807 1.757c-.097.362-.125.74-.084 1.113.055.596.279 1.164.645 1.637.42.534.999.921 1.653 1.104.354.087.72.116 1.083.084a3.127 3.127 0 001.532-.57h.01z" fill="#F3BD48" stroke="#F3BD48" stroke-width=".526" stroke-linecap="round" stroke-linejoin="round"/><path d="M38.288 8.307L33.71 3.723h4.577v4.584zM32.29 5.145v4.584h4.568L32.29 5.145zm4.755 11.58h-3.204c.367.508.79.972 1.26 1.385.472.406.986.76 1.533 1.057a8.125 8.125 0 008.864-.776l-1.672-1.665h-6.782zm-1.075-2.02h5.838l-1.56-1.562-1.373-1.375h-6.585v.168a8.214 8.214 0 00.486 2.807h3.194v-.038zm7.127-1.562l.14.14V4.238a8.004 8.004 0 00-2.802-.496h-.177v6.595l1.167 1.17 1.672 1.636zm5.53-1.637a7.867 7.867 0 00-.243-1.637 8.204 8.204 0 00-3.138-4.574v10l1.672 1.674a8.2 8.2 0 001.737-5.033c0-.159-.019-.299-.028-.44v.01z" fill="#A2D45E" stroke="#A2D45E" stroke-width=".526" stroke-linecap="round" stroke-linejoin="round"/></g><defs><clipPath id="cqclip0_967_1962"><path fill="#fff" d="M0 0h106.316v80H0z"/></clipPath></defs></svg>