<?xml version="1.0" encoding="utf-8"?><svg width="89" height="25" fill="none" xmlns="http://www.w3.org/2000/svg" viewBox="0 0 89 25"><path fill-rule="evenodd" clip-rule="evenodd" d="M7.373 20.708h3.051l4.263-15.586v15.586h3.434V.1H13.39L9.114 15.237 4.852.1H.034v20.608H3V5.122L7.36 20.708h.013zm25.104-10.212c0-3.648-1.853-5.01-5.646-5.01A10.796 10.796 0 0021.47 6.86v2.906a9.161 9.161 0 014.942-1.459c1.767 0 2.471.644 2.471 2.188v.827h-.556c-5.473 0-7.968 1.824-7.968 4.864.029.937.333 1.846.875 2.618a4.929 4.929 0 002.182 1.729c.882.357 1.85.456 2.786.284a4.97 4.97 0 002.496-1.252h.185c.037.415.129.824.272 1.216h3.521c-.086-1.216-.185-2.431-.185-3.647v-6.566l-.013-.072zm-3.595 6.662a3.055 3.055 0 01-1.143.926c-.453.212-.95.311-1.451.29a2.082 2.082 0 01-1.631-.583 1.988 1.988 0 01-.593-1.605c0-1.727 1.235-2.371 4.349-2.371h.556v3.38l-.087-.037zm9.822-11.392h-3.336V25h3.608v-6.079a4.322 4.322 0 001.632 1.5 4.407 4.407 0 002.173.506c3.521 0 5.93-2.735 5.93-7.757 0-5.021-2.322-7.744-5.745-7.744a4.818 4.818 0 00-2.328.57 4.727 4.727 0 00-1.749 1.618l-.185-1.92v.072zm3.052 12.486c-1.853 0-2.867-1.556-2.867-4.924 0-3.367 1.014-5.021 3.052-5.021 2.038 0 2.965 1.556 2.965 4.924 0 3.368-1.013 5.021-3.15 5.021zm18.16 2.432h4.078l-5.745-8.024 5.102-6.918H59.77l-5.09 6.93v-6.93h-3.62v14.954h3.62v-7.295l5.275 7.295-.037-.012zm16.124-.997a8.858 8.858 0 01-5.19 1.277c-4.533 0-7.128-2.554-7.128-7.757 0-4.56 2.125-7.842 6.486-7.842 3.608 0 5.93 1.92 5.93 7.112v1.921H67.49c.186 2.553 1.236 3.733 3.806 3.733a9.276 9.276 0 004.719-1.362v2.918h.025zM70.196 8.319c-1.668 0-2.594 1.216-2.693 3.563h5.003v-.28c0-1.824-.556-3.283-2.31-3.283zM89 8.6V5.766H76.954v2.833h4.262v12.158h3.62V8.599H89z" fill="#000"/></svg>