<?xml version="1.0" encoding="utf-8"?><svg width="35" height="35" fill="none" xmlns="http://www.w3.org/2000/svg" viewBox="0 0 35 35"><rect width="35" height="35" rx="3.6" fill="#F3BD48"/><path d="M16.296 21.298c-1.574-.164-2.993-.551-4.208-1.501-.15-.119-.306-.233-.444-.365-.531-.51-.585-1.095-.164-1.698.36-.516.964-.654 1.592-.358.122.058.238.13.348.206 2.264 1.556 5.375 1.6 7.647.07.225-.172.466-.313.745-.385.542-.139 1.048.06 1.34.535.332.542.327 1.07-.082 1.491-.629.645-1.385 1.112-2.224 1.438-.794.308-1.664.463-2.525.566.13.14.191.21.272.292 1.17 1.175 2.343 2.344 3.508 3.522.397.401.48.9.262 1.366-.24.51-.774.846-1.299.81-.332-.023-.591-.188-.822-.42-.882-.888-1.78-1.76-2.645-2.664-.251-.263-.372-.213-.594.015-.887.914-1.79 1.814-2.696 2.708-.408.402-.893.474-1.365.245-.502-.244-.822-.756-.797-1.272.017-.348.188-.614.428-.853 1.156-1.155 2.31-2.313 3.464-3.47.076-.077.148-.159.259-.278z" fill="#163029"/><path d="M17.254 17.275c-2.807-.01-5.11-2.337-5.093-5.149A5.146 5.146 0 0117.316 7c2.84.008 5.121 2.332 5.107 5.204-.015 2.806-2.333 5.08-5.169 5.071zm2.552-5.142a2.502 2.502 0 00-2.51-2.509 2.506 2.506 0 00-2.517 2.54 2.502 2.502 0 002.53 2.489 2.497 2.497 0 002.497-2.52z" fill="#163029"/></svg>