<?xml version="1.0" encoding="utf-8"?><svg width="203" height="60" fill="none" xmlns="http://www.w3.org/2000/svg" viewBox="0 0 203 60"><g clip-path="url(#cxclip0_967_2827)"><path d="M202.968 53.079a2.514 2.514 0 01-2.524 2.525h-45.198a2.513 2.513 0 01-2.523-2.525V7.529a2.513 2.513 0 012.523-2.525h45.174a2.514 2.514 0 012.524 2.525l.024 45.55z" fill="#F47524"/><path d="M128.625 50.88V35.192h-16.546v4.536c0 4.14-.561 7.857-1.706 11.13h-2.033V60h4.908v-4.443h12.596V60h4.908v-9.143h-2.127v.024zm-6.099 0h-6.287c.935-4.115 1.379-7.599 1.379-10.405v-.257h4.908v10.663zM101.47 30.187a4.41 4.41 0 01-1.636 2.83 5.397 5.397 0 01-6.45 0 4.298 4.298 0 01-1.636-2.807h2.313c.375 1.17 1.216 1.73 2.478 1.73 1.356 0 2.22-.584 2.594-1.73l2.337-.023zM105.934 35.308v20.39h-5.726v-11.2l-7.338 11.2h-5.796v-20.39h5.772v11.27l7.386-11.27h5.702zM67.115 35.191h16.336v4.349H73.238v3.25h9.465v4.162h-9.465v3.999h10.517v4.63h-16.64V35.19zM62.302 36.828c-1.098-1.076-2.758-1.637-4.978-1.637H47.182v20.39h6.123v-7.553h3.342c2.453 0 4.3-.585 5.492-1.73 1.191-1.146 1.8-2.76 1.8-4.84 0-2.011-.538-3.555-1.637-4.63zm-5.001 6.43c-.468.42-1.309.631-2.5.631h-1.496v-4.56h1.752c1.145 0 1.94.234 2.338.679.42.444.654 1.029.63 1.636a2.13 2.13 0 01-.724 1.614zM25.89 35.191h18.58v5.027h-6.24V55.58h-6.1V40.218h-6.24v-5.027zM113.273 4.98h6.1v7.109h6.637V4.98h6.123V25.3h-6.123v-8.23h-6.637v8.23h-6.1V4.98zM104.72 0a4.205 4.205 0 01-1.636 2.806 4.887 4.887 0 01-3.225 1.076 5.019 5.019 0 01-3.225-1.076A4.178 4.178 0 0195.022 0h2.314c.373 1.146 1.191 1.73 2.476 1.73 1.356 0 2.22-.584 2.595-1.73h2.313zM109.184 4.98V25.3h-5.726V14.146L96.143 25.3h-5.772V4.98h5.749v11.247l7.385-11.247h5.679zM81.045 4.98h-6.66L66.977 25.3h6.216l.981-3.344h6.895l.98 3.344h6.381L81.045 4.98zM75.46 17.56l2.15-7.295 2.15 7.295h-4.3zM64.92 25.3h-6.076V9.984h-4.767v6.243c0 2.573-.14 4.467-.397 5.66a3.905 3.905 0 01-1.847 2.665c-.981.561-2.547.841-4.697.841-.771 0-1.543-.07-2.29-.21v-4.139h.911c.818 0 1.402-.187 1.73-.56.327-.375.514-1.053.514-2.059V4.98h16.92V25.3zM23.953 4.98h6.076v7.109h6.66V4.98h6.1V25.3h-6.1v-8.23h-6.66v8.23h-6.076V4.98zM17.993 7.366c-1.776-1.8-4.3-2.713-7.572-2.713-3.201 0-5.702.912-7.478 2.783C1.12 9.26.115 12.486.115 15.783c0 2.385.584 3.718 1.496 5.285a8.397 8.397 0 003.529 3.46c1.449.725 3.295 1.1 5.515 1.1 2.22 0 4.02-.421 5.469-1.263a8.37 8.37 0 003.365-3.554c.771-1.52 1.168-3.461 1.168-5.846-.023-3.227-.888-5.776-2.664-7.6zm-4.51 12.252c-.725.865-1.73 1.31-3.038 1.31-1.309 0-2.29-.445-3.015-1.333-.724-.889-1.098-2.362-1.098-4.42 0-2.057.374-3.554 1.121-4.442A3.633 3.633 0 0110.421 9.4c1.286 0 2.29.444 3.039 1.333.747.888 1.121 2.268 1.121 4.185-.023 2.245-.374 3.835-1.098 4.7z" fill="#0F87C9"/><path fill-rule="evenodd" clip-rule="evenodd" d="M142.437 26.913a3.332 3.332 0 013.319 3.321 3.332 3.332 0 01-3.319 3.32 3.332 3.332 0 01-3.318-3.32 3.318 3.318 0 013.318-3.32zM142.438 23.36c.654 0 1.309.14 1.893.42V6.033c0-.959-.772-1.03-1.729-1.03h-.35c-.959 0-1.731.071-1.731 1.03V23.78a4.579 4.579 0 011.917-.42zM142.438 37.225c-.654 0-1.308-.14-1.893-.42v17.7c0 .959.771 1.076 1.729 1.076h.351c.958 0 1.73-.14 1.73-1.076v-17.7c-.608.28-1.263.42-1.917.42z" fill="#0F87C9"/><path d="M175.97 29.44v4.378h-16.603V29.44c0-1.274.091-2.283.274-3.028.187-.744.534-1.356 1.041-1.835.506-.48 1.226-.889 2.157-1.227.931-.338 2.241-.703 3.929-1.096 1.461-.342 2.394-.582 2.801-.719.406-.142.68-.358.821-.65.146-.293.219-.818.219-1.576 0-.704-.089-1.218-.266-1.542-.174-.324-.461-.536-.863-.637-.402-.1-1.006-.15-1.815-.15-.912 0-1.563.05-1.951.15-.388.096-.653.313-.794.651-.141.333-.217.881-.226 1.644v1.034h-5.327v-1.034c0-1.411.176-2.564.527-3.46.356-.895.881-1.584 1.575-2.068.698-.489 1.545-.827 2.54-1.014 1-.187 2.219-.28 3.656-.28 1.876 0 3.395.152 4.554.458 1.159.302 2.069.936 2.731 1.904.662.964.993 2.384.993 4.261 0 1.201-.096 2.17-.287 2.905-.188.735-.498 1.336-.932 1.802-.429.46-.993.845-1.69 1.15-.699.307-1.655.626-2.87.96-.625.169-1.43.358-2.417.568-.981.206-1.649.384-2.005.534-.357.147-.621.391-.795.733-.168.338-.253.86-.253 1.562h11.276zM195.143 12.773v12.824h1.794v4.07h-1.794v4.15h-5.327v-4.15H178.82v-6.008l8.052-10.886h8.271zm-5.327 12.824v-8.501h-.198l-6.388 8.501h6.586zM162.755 48.081V40.81h3.95v-2.198h-6.473v9.47h2.523zM171.675 48.158c-.701 0-1.31-.048-1.828-.145a3.687 3.687 0 01-1.349-.517 2.454 2.454 0 01-.887-1.064c-.21-.46-.314-1.043-.314-1.748v-2.676c0-.705.104-1.287.314-1.748.211-.462.507-.817.887-1.063a3.687 3.687 0 011.349-.518 10.09 10.09 0 011.828-.145c.702 0 1.312.048 1.83.145.519.096.969.27 1.349.518.382.246.678.601.888 1.063.209.46.314 1.043.314 1.748v2.676c0 .705-.105 1.288-.314 1.748a2.436 2.436 0 01-.885 1.063 3.681 3.681 0 01-1.352.518c-.518.097-1.128.145-1.83.145zm0-2.198c.483 0 .843-.033 1.084-.099a.812.812 0 00.53-.431c.111-.22.167-.561.167-1.023v-2.134c0-.355-.032-.634-.096-.835a.853.853 0 00-.296-.456 1.115 1.115 0 00-.527-.2 5.93 5.93 0 00-.862-.05c-.479 0-.837.033-1.073.099a.803.803 0 00-.52.422c-.112.216-.173.556-.185 1.02v2.133c.012.467.073.81.181 1.027.112.218.285.361.521.428.239.066.597.1 1.076.1zM177.492 45.908c.222-.302.4-.629.536-.98.138-.354.239-.771.302-1.252.063-.48.095-1.063.095-1.745v-3.32h7.293v7.297h.783v4.359h-2.398V48.08h-4.972v2.186h-2.385v-4.36h.746zm3.318-5.123l.012 1.297c0 .613-.027 1.146-.082 1.6a6.504 6.504 0 01-.256 1.212 5.488 5.488 0 01-.444 1.014h3.143v-5.123h-2.373zM193.082 46.453h-3.396l-.465 1.628h-2.625l2.838-9.47h3.838l2.878 9.47h-2.575l-.493-1.628zm-.506-1.843l-1.173-4.106h-.026l-1.149 4.106h2.348z" fill="#fff"/></g><defs><clipPath id="cxclip0_967_2827"><path fill="#fff" transform="translate(.115)" d="M0 0h202.785v60H0z"/></clipPath></defs></svg>