<?xml version="1.0" encoding="utf-8"?><svg width="275" height="60" fill="none" xmlns="http://www.w3.org/2000/svg" viewBox="0 0 275 60"><g clip-path="url(#czclip0_967_2819)"><path fill-rule="evenodd" clip-rule="evenodd" d="M33.291.166a30 30 0 10-6.305 59.668A30 30 0 0033.291.166zm-.974 45.71a16.005 16.005 0 1113.739-13.784 15.989 15.989 0 01-13.74 13.784zM76.033 1.352a7.01 7.01 0 00-6.835 8.452 7.145 7.145 0 007.1 5.543h19.47l-30.31 40.114a2.002 2.002 0 001.595 3.202h47.537a7.152 7.152 0 007.093-5.551 6.999 6.999 0 00-3.802-7.75 6.996 6.996 0 00-2.996-.694H91.124l30.279-40.091a2.015 2.015 0 00-.538-2.936 2.015 2.015 0 00-1.063-.304l-43.769.015zm189.955.166a7.108 7.108 0 00-5.461 7.024v23.3L222.763 1.799a2.013 2.013 0 00-2.123-.232 2.007 2.007 0 00-1.133 1.81v48.112a7.103 7.103 0 005.461 7.024 6.985 6.985 0 008.489-6.835V28.172l37.765 30.046a2.009 2.009 0 003.255-1.572V8.354a6.996 6.996 0 00-2.625-5.42 7.004 7.004 0 00-5.864-1.377v-.038zM167.672 14.01c15.974 0 27.908 8.445 27.908 15.99s-11.934 15.997-27.908 15.997c-15.974 0-27.908-8.444-27.908-15.997 0-7.553 11.934-15.99 27.908-15.99zm0-13.995c-23.119 0-41.858 13.43-41.858 29.985 0 16.556 18.739 29.985 41.858 29.985 23.119 0 41.858-13.422 41.858-29.985S190.791.045 167.672.045v-.03z" fill="#0069FF"/></g><defs><clipPath id="czclip0_967_2819"><path fill="#fff" transform="translate(.148)" d="M0 0h274.335v60H0z"/></clipPath></defs></svg>