<?xml version="1.0" encoding="utf-8"?><svg width="41" height="41" fill="none" xmlns="http://www.w3.org/2000/svg" viewBox="0 0 41 41"><g clip-path="url(#cyclip0_964_3432)"><rect x=".87" y=".686" width="39.369" height="39.369" rx="19.684" fill="#005CFE"/><path d="M20.227 20.37l-.656.657v-2.953l4.593-1.969 4.265.657v1.312c3.5 4.374 10.498 13.188 10.498 13.451 0 .328-1.64 6.562-1.968 7.218-.263.525-13.232 3.062-19.685 4.265l2.953-22.638z" fill="#F91156"/><path fill-rule="evenodd" clip-rule="evenodd" d="M3.342 20.437c-.94.15-1.813.583-2.497 1.238a4.553 4.553 0 00-1.328 2.418 4.432 4.432 0 00.328 2.714 4.483 4.483 0 001.863 2.015 4.64 4.64 0 002.717.577 4.693 4.693 0 002.573-1.071A4.572 4.572 0 008.487 26a4.438 4.438 0 00-.143-2.73 4.477 4.477 0 00-1.98-2.294 4.647 4.647 0 00-3.022-.539zm1.635 6.683a2.502 2.502 0 01-1.497.132c-.5-.111-.95-.373-1.287-.75a2.365 2.365 0 01-.593-1.35 2.392 2.392 0 01.322-1.445 2.476 2.476 0 011.117-.998c.468-.211.99-.273 1.493-.178.503.095.96.343 1.31.709.35.366.572.831.636 1.33a2.388 2.388 0 01-.312 1.521c-.272.46-.69.823-1.189 1.029zm4.751-8.21a1.095 1.095 0 00-.703.595 1.046 1.046 0 00.018.906c.117.218.307.389.538.484.231.095.49.11.732.04l2.888-.774-2.934 7.035a.298.298 0 00.194.4.312.312 0 00.167.002l7.052-1.89c.244-.061.46-.202.613-.4.152-.199.231-.442.223-.689a1.03 1.03 0 00-.434-.793 1.07 1.07 0 00-.903-.164l-3.525.945 2.93-7.03a.3.3 0 00-.194-.406.314.314 0 00-.17-.002L9.729 18.91zm28.186-7.526a1.094 1.094 0 00-.489.529 1.055 1.055 0 00-.047.71l.907 3.386-6.772-2.866a.311.311 0 00-.418.192.297.297 0 00-.004.167l1.874 6.993c.059.236.199.444.396.59.197.147.44.222.688.214a1.093 1.093 0 00.819-.435 1.054 1.054 0 00.174-.896l-.916-3.416 6.773 2.865a.312.312 0 00.417-.19.298.298 0 00.005-.167l-1.881-7.02a1.037 1.037 0 00-.6-.683 1.084 1.084 0 00-.925.033v-.006zm-14.098 5.724c2.37-.635 4.469.118 4.762 1.215.294 1.096-1.147 2.8-3.517 3.434-2.37.635-4.468-.118-4.763-1.216-.294-1.097 1.148-2.798 3.518-3.433zm-.545-2.034c-3.43.919-5.687 3.616-5.042 6.022.645 2.406 3.948 3.613 7.377 2.694 3.43-.919 5.687-3.614 5.042-6.022-.645-2.407-3.947-3.609-7.376-2.69l-.001-.004z" fill="#FFFFFE"/></g><defs><clipPath id="cyclip0_964_3432"><rect x=".87" y=".686" width="39.369" height="39.369" rx="19.684" fill="#fff"/></clipPath></defs></svg>