<?xml version="1.0" encoding="utf-8"?><svg width="78" height="72" fill="none" xmlns="http://www.w3.org/2000/svg" viewBox="0 0 78 72"><path fill-rule="evenodd" clip-rule="evenodd" d="M27.215 38.846a3.117 3.117 0 01-3.117 3.116H3.617a3.117 3.117 0 010-6.233h20.481a3.117 3.117 0 013.117 3.117zM77.082 38.846a3.117 3.117 0 01-3.117 3.116h-20.48a3.117 3.117 0 010-6.233h20.48a3.117 3.117 0 013.117 3.117zM.5 61.998c0-1.23.997-2.226 2.226-2.226H8.96a2.226 2.226 0 010 4.453H2.726A2.226 2.226 0 01.5 61.998zM10.295 70.013c0-.738.598-1.336 1.336-1.336h5.343a1.336 1.336 0 110 2.671H11.63a1.336 1.336 0 01-1.336-1.335zM27.215 70.013c0-.738.598-1.336 1.336-1.336h5.343a1.336 1.336 0 110 2.671H28.55a1.336 1.336 0 01-1.336-1.335zM43.242 70.013c0-.738.598-1.336 1.336-1.336h5.343a1.336 1.336 0 110 2.671h-5.343a1.336 1.336 0 01-1.336-1.335zM60.164 70.013c0-.738.598-1.336 1.336-1.336h5.343a1.336 1.336 0 110 2.671H61.5a1.336 1.336 0 01-1.336-1.335zM21.642 52.803c-1.627 1.283-3.756 2.962-7.25 2.962-3.529 0-5.511-1.399-7.064-2.52l-.008-.006c-1.418-1.025-2.314-1.672-4.148-1.672a2.226 2.226 0 010-4.453c3.28 0 5.177 1.373 6.642 2.434.04.03.081.058.121.087 1.352.977 2.375 1.678 4.457 1.678 1.936 0 2.978-.818 4.71-2.177l.027-.02c1.79-1.404 4.098-3.146 8.086-3.146a2.226 2.226 0 110 4.452c-2.424 0-3.722.929-5.338 2.197l-.235.184zM55.94 52.803c1.627 1.283 3.756 2.962 7.25 2.962 3.529 0 5.511-1.399 7.064-2.52l.008-.006c1.418-1.025 2.314-1.672 4.148-1.672a2.226 2.226 0 000-4.453c-3.28 0-5.177 1.373-6.642 2.434-.04.03-.081.058-.121.087-1.352.977-2.375 1.678-4.457 1.678-1.936 0-2.978-.818-4.71-2.177l-.027-.02c-1.789-1.404-4.098-3.146-8.086-3.146a2.226 2.226 0 100 4.452c2.424 0 3.722.929 5.339 2.197l.233.184zM17.42 61.998c0-1.23.997-2.226 2.226-2.226h6.234a2.226 2.226 0 110 4.453h-6.234a2.226 2.226 0 01-2.226-2.227zM34.338 61.998c0-1.23.997-2.226 2.226-2.226h6.233a2.226 2.226 0 110 4.453h-6.233a2.226 2.226 0 01-2.226-2.227zM51.258 61.998c0-1.23.996-2.226 2.226-2.226h6.233a2.226 2.226 0 110 4.453h-6.233a2.226 2.226 0 01-2.226-2.227zM66.397 61.998c0-1.23.996-2.226 2.226-2.226h6.233a2.226 2.226 0 110 4.453h-6.233a2.226 2.226 0 01-2.227-2.227z" fill="#27AE60"/><path d="M13.859 27.715a2.672 2.672 0 11-5.343 0 2.672 2.672 0 015.343 0zM25.5 5.5a5.5 5.5 0 11-11 0 5.5 5.5 0 0111 0zM68.5 25.5a4.5 4.5 0 11-9 0 4.5 4.5 0 019 0zM60.5 8.5a2.5 2.5 0 11-5 0 2.5 2.5 0 015 0z" fill="#27AE60"/><path d="M51.5 37c0 3.437-1.658 6.904-4.516 10.422-2.338 2.878-5.308 5.584-8.359 8.11-.246-.225-.49-.45-.734-.672-2.923-2.675-5.668-5.186-7.906-7.851C27.12 43.599 25.5 40.397 25.5 37c0-7.18 5.82-13 13-13s13 5.82 13 13z" stroke="#27AE60" stroke-width="6"/></svg>