<?xml version="1.0" encoding="utf-8"?><svg width="78" height="71" fill="none" xmlns="http://www.w3.org/2000/svg" viewBox="0 0 78 71"><path fill-rule="evenodd" clip-rule="evenodd" d="M27.215 37.846a3.117 3.117 0 01-3.117 3.116H3.617a3.117 3.117 0 010-6.233h20.481a3.117 3.117 0 013.117 3.117zM77.082 37.846a3.117 3.117 0 01-3.117 3.116h-20.48a3.117 3.117 0 010-6.233h20.48a3.117 3.117 0 013.117 3.117zM.5 60.998c0-1.23.997-2.226 2.226-2.226H8.96a2.226 2.226 0 010 4.453H2.726A2.226 2.226 0 01.5 60.998zM10.295 69.013c0-.738.598-1.336 1.336-1.336h5.343a1.336 1.336 0 110 2.671H11.63a1.336 1.336 0 01-1.336-1.335zM27.215 69.013c0-.738.598-1.336 1.336-1.336h5.343a1.336 1.336 0 110 2.671H28.55a1.336 1.336 0 01-1.336-1.335zM43.242 69.013c0-.738.598-1.336 1.336-1.336h5.343a1.336 1.336 0 110 2.671h-5.343a1.336 1.336 0 01-1.336-1.335zM60.164 69.013c0-.738.598-1.336 1.336-1.336h5.343a1.336 1.336 0 110 2.671H61.5a1.336 1.336 0 01-1.336-1.335zM21.642 51.803c-1.627 1.283-3.756 2.962-7.25 2.962-3.529 0-5.511-1.399-7.064-2.52l-.008-.006c-1.418-1.025-2.314-1.672-4.148-1.672a2.226 2.226 0 010-4.453c3.28 0 5.177 1.373 6.642 2.434.04.03.081.058.121.087 1.352.977 2.375 1.678 4.457 1.678 1.936 0 2.978-.818 4.71-2.177l.027-.02c1.79-1.404 4.098-3.146 8.086-3.146a2.226 2.226 0 110 4.452c-2.424 0-3.722.929-5.338 2.197l-.235.184zM55.94 51.803c1.627 1.283 3.756 2.962 7.25 2.962 3.529 0 5.511-1.399 7.064-2.52l.008-.006c1.418-1.025 2.314-1.672 4.148-1.672a2.226 2.226 0 000-4.453c-3.28 0-5.177 1.373-6.642 2.434-.04.03-.081.058-.121.087-1.352.977-2.375 1.678-4.457 1.678-1.936 0-2.978-.818-4.71-2.177l-.027-.02c-1.789-1.404-4.098-3.146-8.086-3.146a2.226 2.226 0 100 4.452c2.424 0 3.722.929 5.339 2.197l.233.184zM17.42 60.998c0-1.23.997-2.226 2.226-2.226h6.234a2.226 2.226 0 110 4.453h-6.234a2.226 2.226 0 01-2.226-2.227zM34.338 60.998c0-1.23.997-2.226 2.226-2.226h6.233a2.226 2.226 0 110 4.453h-6.233a2.226 2.226 0 01-2.226-2.227zM51.258 60.998c0-1.23.996-2.226 2.226-2.226h6.233a2.226 2.226 0 110 4.453h-6.233a2.226 2.226 0 01-2.226-2.227zM66.397 60.998c0-1.23.996-2.226 2.226-2.226h6.233a2.226 2.226 0 110 4.453h-6.233a2.226 2.226 0 01-2.227-2.227z" fill="#FD820B"/><path fill-rule="evenodd" clip-rule="evenodd" d="M48.588 22.262h-19.59v16.029c0 5.41 4.385 9.795 9.794 9.795 5.41 0 9.796-4.385 9.796-9.795V22.262zM22.764 16.03V38.29c0 8.853 7.176 16.029 16.028 16.029 8.853 0 16.03-7.176 16.03-16.029V16.029H22.763z" fill="#FD820B"/><path d="M13.859 26.715a2.672 2.672 0 11-5.343 0 2.672 2.672 0 015.343 0zM58.382 2.671a2.672 2.672 0 11-5.343 0 2.672 2.672 0 015.343 0z" fill="#FD820B"/><path fill-rule="evenodd" clip-rule="evenodd" d="M20.981 2.958c0-1.142-.997-2.067-2.226-2.067-1.23 0-2.226.925-2.226 2.067v1.495h-1.495c-1.142 0-2.067.996-2.067 2.226s.925 2.226 2.067 2.226h1.495V10.4c0 1.141.997 2.067 2.226 2.067 1.23 0 2.226-.926 2.226-2.067V8.905h1.495c1.142 0 2.067-.997 2.067-2.226 0-1.23-.925-2.226-2.067-2.226H20.98V2.958zM68.176 20.195c0-1.317-.996-2.385-2.226-2.385s-2.226 1.068-2.226 2.385v2.067h-2.067c-1.318 0-2.385.997-2.385 2.226 0 1.23 1.067 2.227 2.385 2.227h2.067v2.067c0 1.317.997 2.385 2.226 2.385 1.23 0 2.226-1.068 2.226-2.385v-2.067h2.068c1.317 0 2.385-.997 2.385-2.227 0-1.229-1.068-2.226-2.385-2.226h-2.068v-2.067z" fill="#FD820B"/></svg>