<?xml version="1.0" encoding="utf-8"?><svg width="200" height="286" fill="#fff" xmlns="http://www.w3.org/2000/svg" viewBox="0 0 200 286"><path d="M188.8 52l-48.4 61.6c18.133 6.4 32.533 16.533 43.2 30.4 10.933 13.6 16.4 29.6 16.4 48 0 29.333-9.867 52.267-29.6 68.8-19.733 16.533-43.867 24.8-72.4 24.8-22.667 0-42.667-5.067-60-15.2C20.667 260 8 245.067 0 225.6l55.2-32c6.933 19.733 21.2 29.6 42.8 29.6 15.733 1.067 26.933-3.867 33.6-14.8 6.667-10.933 6.667-21.867 0-32.8-6.667-10.933-17.867-15.867-33.6-14.8H84.8l-24.4-36.4L111.2 60H8.8V0h180v52z"/></svg>