<?xml version="1.0" encoding="utf-8"?><svg width="73" height="104" fill="none" xmlns="http://www.w3.org/2000/svg" viewBox="0 0 73 104"><path d="M68.912 18.936l-17.666 22.43c6.619 2.331 11.875 6.022 15.768 11.071C71.004 57.389 73 63.216 73 69.916c0 10.682-3.601 19.033-10.804 25.053C54.993 100.99 46.185 104 35.77 104c-8.273 0-15.573-1.845-21.9-5.535C7.543 94.678 2.92 89.24 0 82.151L20.148 70.5c2.53 7.185 7.738 10.778 15.622 10.778 5.743.389 9.83-1.408 12.264-5.39 2.433-3.98 2.433-7.962 0-11.943s-6.521-5.778-12.264-5.39h-4.818L22.046 45.3l18.542-23.451H3.212V0h65.7v18.936z" fill="#E8EDF0"/></svg>