<?xml version="1.0" encoding="utf-8"?><svg width="70" height="104" fill="none" xmlns="http://www.w3.org/2000/svg" viewBox="0 0 70 104"><path d="M70 104H1.014V87.104l34.058-35.541c6.86-7.186 10.29-13.206 10.29-18.062 0-3.204-.966-5.777-2.898-7.72-1.933-2.039-4.59-3.058-7.971-3.058-6.764 0-11.74 3.69-14.928 11.07L0 22.286C3.092 15.197 7.681 9.71 13.768 5.826 19.855 1.942 26.667 0 34.203 0c9.565 0 17.633 2.962 24.203 8.885 6.763 5.826 10.145 13.692 10.145 23.597 0 10.779-5.266 21.46-15.797 32.045L35.942 81.569H70V104z" fill="#E8EDF0"/></svg>