<?xml version="1.0" encoding="utf-8"?><svg width="40" height="41" fill="none" xmlns="http://www.w3.org/2000/svg" viewBox="0 0 40 41"><path fill-rule="evenodd" clip-rule="evenodd" d="M19.772 40.034a19.662 19.662 0 0018.17-12.145 19.68 19.68 0 00-4.264-21.44A19.665 19.665 0 00.105 20.36 19.646 19.646 0 0012.24 38.546a19.625 19.625 0 007.532 1.488z" fill="#FED42B"/><path fill-rule="evenodd" clip-rule="evenodd" d="M24.94 26.85a2.01 2.01 0 00-.324-1.11 1.958 1.958 0 00-.877-.736 1.918 1.918 0 00-2.133.434 2.019 2.019 0 00-.411 2.175c.151.363.406.672.73.887.325.215.705.328 1.093.322a1.92 1.92 0 001.36-.582c.36-.37.562-.869.562-1.39zm-6.84 0a1.987 1.987 0 00-.573-1.38 1.892 1.892 0 00-1.363-.563 1.926 1.926 0 00-1.092.331c-.323.219-.575.53-.723.896a2.02 2.02 0 00-.11 1.154c.077.387.266.742.542 1.02a1.918 1.918 0 002.141.41 1.96 1.96 0 00.87-.752c.209-.332.317-.72.308-1.115z" fill="#1D1D1B"/></svg>