<?xml version="1.0" encoding="utf-8"?><svg width="119" height="32" fill="none" xmlns="http://www.w3.org/2000/svg" viewBox="0 0 119 32"><g clip-path="url(#dsclip0_1931_2616)"><path d="M22.469 32.007v-.157-21.072c0-.163.028-.215.209-.21a10.982 10.982 0 017.457 3.132 10.633 10.633 0 013.191 7.334 10.618 10.618 0 01-2.843 7.472 10.964 10.964 0 01-7.303 3.468c-.037 0-.085-.018-.108.033h-.603zM10.897 10.77h10.694c.176 0 .215.045.207.211-.116 3.041-1.303 5.603-3.58 7.662a10.471 10.471 0 01-5.691 2.656c-3.299.453-6.247-.376-8.775-2.518C1.756 17.088.568 14.93.137 12.37a9.752 9.752 0 01-.13-1.425c0-.146.036-.183.184-.183 3.567.008 7.136.01 10.706.008z" fill="#015AC2"/><path d="M42.083 10.716v10.511c0 .165-.048.199-.205.193-3.075-.108-5.67-1.26-7.763-3.471a10.293 10.293 0 01-2.758-5.671 10.552 10.552 0 01.3-4.497 10.664 10.664 0 012.153-3.978c.995-1.16 2.23-2.1 3.623-2.756A11.043 11.043 0 0141.89 0c.156 0 .194.034.194.188-.002 3.51-.002 7.02 0 10.528z" fill="#FE7300"/><path d="M110.09 21.516c-1.994-.017-3.864-.519-5.489-1.748-1.693-1.281-2.721-2.977-3.161-5.022a8.371 8.371 0 01.439-4.821 8.515 8.515 0 013.046-3.802 8.625 8.625 0 013.999-1.446c1.65-.179 3.268-.045 4.807.592 2.756 1.14 4.43 3.197 5.068 6.041a8.266 8.266 0 01-.589 5.292 8.454 8.454 0 01-3.706 3.88c-1.364.724-2.838 1.034-4.414 1.034zm.109-3.468c.329-.004.657-.035.981-.09 1.515-.284 2.678-1.058 3.324-2.451a5.675 5.675 0 000-4.915c-.529-1.166-1.45-1.918-2.678-2.313a5.543 5.543 0 00-2.432-.204c-1.757.228-3.053 1.1-3.739 2.725a5.725 5.725 0 00-.019 4.456c.203.53.514 1.014.914 1.422.399.408.879.732 1.41.952a5.57 5.57 0 002.239.42v-.002zM60.664 10.064c0 1.427.007 2.853 0 4.278a8.825 8.825 0 01-.544 3.13c-.69 1.806-1.982 3.012-3.85 3.59a10.03 10.03 0 01-6.148-.008c-2.306-.74-3.668-2.349-4.208-4.654a9.904 9.904 0 01-.233-2.269V5.034c0-.145.03-.198.192-.196 1.12.006 2.239.006 3.358 0 .16 0 .195.042.195.193-.006 3.056-.006 6.111 0 9.167-.018.6.089 1.198.314 1.756.51 1.176 1.435 1.832 2.7 2.04a4.406 4.406 0 002.105-.146c1.253-.413 1.961-1.302 2.253-2.542.098-.444.145-.897.14-1.351V5.066c0-.19.057-.223.233-.221 1.108.007 2.215.007 3.322 0 .149 0 .186.035.186.182v5.045l-.015-.008zM75.876 13.065V5.033c0-.146.03-.195.191-.194h10.89c.15 0 .198.034.197.19-.01.88-.01 1.759 0 2.637 0 .138-.04.17-.177.17-2.339 0-4.677 0-7.016-.007-.17 0-.23.028-.227.213.01 1.03 0 2.06 0 3.09 0 .146.04.184.189.184 1.882 0 3.766 0 5.649-.007.164 0 .204.043.203.2-.01.87-.01 1.737 0 2.603 0 .146-.036.184-.186.182H79.94c-.155 0-.209.03-.207.196.009 1.193.009 2.385 0 3.578 0 .16.038.204.204.204 2.392 0 4.784 0 7.178-.007.163 0 .22.026.218.203-.012.89-.008 1.782 0 2.672 0 .125-.017.18-.17.18h-11.12c-.157 0-.166-.06-.166-.181l-.001-8.074zM62.555 13.065V5.033c0-.159.04-.2.203-.2h6.644a5.636 5.636 0 012.53.52c1.428.703 2.276 1.852 2.571 3.375.32 1.65-.064 3.145-1.203 4.417-.758.846-1.747 1.286-2.871 1.457-.595.066-1.193.09-1.791.068h-2.025c-.164 0-.188.047-.188.194 0 2.082 0 4.166.007 6.25 0 .164-.049.198-.206.197-1.153 0-2.309-.008-3.462 0-.18 0-.21-.052-.21-.213.004-2.675.004-5.352 0-8.033zm3.869-3.334v1.763c0 .114.03.146.148.146.324-.008.65 0 .976 0 .52 0 1.036.029 1.558-.073.68-.134 1.222-.438 1.42-1.147.096-.368.113-.75.05-1.125a1.403 1.403 0 00-.267-.703 1.436 1.436 0 00-.596-.47 3.1 3.1 0 00-.817-.221c-.784-.111-1.572-.054-2.359-.072-.124 0-.11.066-.11.146l-.004 1.756zM101.054 7.19v1.642c0 .145-.021.169-.16.103a9.213 9.213 0 00-2.814-.84c-1.601-.19-3.141-.014-4.509.894-1.629 1.084-2.287 2.642-2.134 4.543.18 2.257 1.862 4.02 4.381 4.425 1.573.254 3.072-.018 4.518-.643.2-.087.4-.174.592-.266.08-.036.129-.054.128.066v3.37c0 .112-.071.131-.148.165-.866.377-1.782.632-2.72.756-1.468.187-2.934.178-4.372-.198-3.448-.902-5.555-3.092-6.206-6.528-.547-2.887.228-5.447 2.35-7.554 1.276-1.265 2.855-1.996 4.623-2.315a12.016 12.016 0 016.025.4c.445.145.445.154.445.618l.001 1.361z" fill="#015AC2"/></g><defs><clipPath id="dsclip0_1931_2616"><path fill="#fff" d="M0 0h119v32H0z"/></clipPath></defs></svg>