<?xml version="1.0" encoding="utf-8"?><svg width="261" height="60" fill="none" xmlns="http://www.w3.org/2000/svg" viewBox="0 0 261 60"><g clip-path="url(#dtclip0_967_2852)" fill-rule="evenodd" clip-rule="evenodd"><path d="M56.69 6.677a6.72 6.72 0 00-4.157-6.21 6.71 6.71 0 00-2.575-.506H6.713A6.71 6.71 0 000 6.677v21.654a28.376 28.376 0 008.558 19.58 28.347 28.347 0 0039.574 0 28.376 28.376 0 008.558-19.58V6.677z" fill="#FFCE00"/><path d="M35.742 35.857a2.702 2.702 0 00-4.616-1.922 2.702 2.702 0 001.954 4.605 2.68 2.68 0 002.662-2.683zm-9.47 0a2.666 2.666 0 00-2.682-2.644 2.699 2.699 0 00-2.665 3.239 2.702 2.702 0 003.716 1.944 2.7 2.7 0 001.63-2.539z" fill="#1D1D1B"/><path d="M174.893 37.96c0 2.606 3.491 4.4 5.979 1.313v-8.009h9.818v7.97c2.488 3.127 5.98 1.332 5.98-1.273V17.408c-2.489-3.127-5.98-1.352-5.98 1.254v6.697h-9.818v-7.99c-2.469-3.088-5.941-1.293-5.941 1.293V37.96h-.038zm-71.196-16.075v17.6c2.662 2.837 6.038 1.139 6.038-1.466V21.943h5.786c3.164-2.451 1.331-5.887-1.292-5.887H99.164c-2.642 0-4.475 3.436-1.292 5.887l5.825-.058zM82.672 29.16L89 17.311a3.01 3.01 0 013.858-1.332 2.893 2.893 0 011.234 4.015l-4.899 9.224a38.598 38.598 0 01-4.784 7.527 11.42 11.42 0 01-8.467 4.11 2.838 2.838 0 01-2.97-2.701 2.84 2.84 0 012.7-2.972 6.612 6.612 0 003.298-1.004l-8.256-13.991a2.895 2.895 0 011.08-4.053 3.066 3.066 0 013.858 1.177l6.983 11.946.038-.097zm118.646-.81a12.244 12.244 0 007.73 11.693c1.548.612 3.203.902 4.866.851 9.22 0 15.431-8.684 11.342-18.739a10.57 10.57 0 00-5.305-5.21c-10.107-3.86-18.633 2.296-18.633 11.405zm19.174 0a6.58 6.58 0 01-11.293 4.393 6.583 6.583 0 011.082-10.07 6.573 6.573 0 013.633-1.097 6.4 6.4 0 016.185 4.168c.31.832.444 1.72.393 2.606zm26.541-6.446a2.893 2.893 0 002.951-2.895 2.95 2.95 0 00-2.951-2.914h-4.456a12.284 12.284 0 00-8.688 3.6 12.298 12.298 0 000 17.386 12.284 12.284 0 008.688 3.6h4.495a2.91 2.91 0 003.247-2.894 2.916 2.916 0 00-3.247-2.895h-4.668a6.479 6.479 0 01-6.481-6.484 6.484 6.484 0 016.481-6.485l4.629-.019zM137.53 40.026a2.89 2.89 0 003.167.633 2.89 2.89 0 00.942-.633 2.936 2.936 0 00.115-4.111l-7.561-7.72 7.272-7.526a2.914 2.914 0 00-.116-4.072 2.844 2.844 0 00-2.035-.853 2.85 2.85 0 00-2.035.853l-7.503 7.72a1.931 1.931 0 01-1.601.772 1.291 1.291 0 01-1.37-1.274V17.33c-2.488-3.088-5.96-1.293-5.96 1.293v20.611c2.488 3.088 5.96 1.293 5.96-1.312V31.11c1.216.308 1.775-.386 2.971.849l7.715 8.028.039.039zm7.407-11.58a12.22 12.22 0 007.713 11.693c1.547.613 3.201.902 4.863.852 9.24 0 15.431-8.685 11.342-18.74a10.61 10.61 0 00-5.285-5.21c-10.127-3.86-18.633 2.296-18.633 11.405zm19.154 0a6.587 6.587 0 01-4.191 5.941 6.575 6.575 0 01-8.848-4.92 6.58 6.58 0 016.461-7.794 6.404 6.404 0 016.578 6.773zm93.3-2.47a3.01 3.01 0 10-3.009-3.03 3.03 3.03 0 003.009 3.03zm0 10.711a3.045 3.045 0 003.009-3.03 3.012 3.012 0 00-1.871-2.768 3.007 3.007 0 00-4.09 2.207 3.01 3.01 0 002.952 3.591z" fill="#2FA736"/><path d="M77.657 55.774a3.857 3.857 0 01-6.674-2.78 3.707 3.707 0 011.1-2.74 4.03 4.03 0 015.574 0 3.705 3.705 0 011.157 2.74 3.86 3.86 0 01-1.099 2.78h-.058zm-4.783-.772a2.97 2.97 0 003.992 0 2.76 2.76 0 00.791-1.93 2.741 2.741 0 00-2.778-2.78 2.68 2.68 0 00-1.928.811 2.625 2.625 0 00-.791 1.93c-.018.7.238 1.378.714 1.891v.078zM87.282 49.752v6.523a.56.56 0 01-.56.54.54.54 0 01-.54-.54V53.42h-4.166v2.856a.56.56 0 01-.56.54.54.54 0 01-.54-.54v-6.523a.521.521 0 01.54-.54.54.54 0 01.56.54v2.606h4.166v-2.606a.521.521 0 01.54-.54.54.54 0 01.56.54zM94.864 56.275V50.37h-2.855l-.232 3.28c-.135 2.2-.81 3.07-2.256 3.07a.54.54 0 110-1.081c.829 0 1.138-.58 1.253-2.22l.232-3.57a.6.6 0 01.579-.56h3.857a.54.54 0 01.54.56v6.426a.54.54 0 01-.54.54.522.522 0 01-.578-.54zM105.376 56.275a.541.541 0 01-.922.382.541.541 0 01-.158-.382v-.308a3.857 3.857 0 01-5.15-.194 3.86 3.86 0 01-1.042-2.779 3.861 3.861 0 011.06-2.74 3.571 3.571 0 012.701-1.12 3.53 3.53 0 012.45.908v-.328a.541.541 0 01.922-.382.541.541 0 01.158.382v6.561h-.019zm-1.08-1.66v-3.222a2.722 2.722 0 00-2.334-1.178 2.758 2.758 0 00-1.929.792 2.972 2.972 0 000 3.995 2.736 2.736 0 002.025.79 2.678 2.678 0 002.238-1.176zM113.148 51.065l-4.243 5.52a.52.52 0 01-.617.192.482.482 0 01-.367-.54v-6.485a.542.542 0 01.922-.382.538.538 0 01.158.382v5.172l4.225-5.48a.52.52 0 01.636-.213.502.502 0 01.386.54v6.485a.542.542 0 01-.54.54.559.559 0 01-.56-.54v-5.191zm-3.124-5.327c0 .695.405 1.042 1.022 1.062.617.019.945-.367 1.022-1.062a.605.605 0 011.076-.291.604.604 0 01.12.446 2.255 2.255 0 01-3.659 1.321 2.26 2.26 0 01-.777-1.321.6.6 0 01.298-.6.598.598 0 01.668.045.609.609 0 01.23.4zM123.18 49.752v6.523a.557.557 0 01-.941.382.538.538 0 01-.159-.382V53.42h-4.185v2.856a.538.538 0 01-.54.54.518.518 0 01-.54-.54v-6.523a.5.5 0 01.578-.617.521.521 0 01.54.54v2.606h4.186v-2.606a.512.512 0 01.33-.505.542.542 0 01.731.582zM128.85 51.566c.713 0 .713 1.14 0 1.081h-3.067c-.714 0-.733-1.158 0-1.08h3.067zM131.453 49.849a.56.56 0 01.54-.56h3.858a.54.54 0 010 1.081h-3.221v5.905a.562.562 0 01-.907.328.562.562 0 01-.193-.328l-.077-6.426zM143.161 51.065l-4.243 5.52a.521.521 0 01-.617.192.504.504 0 01-.386-.54v-6.485a.56.56 0 011.099 0v5.172l4.224-5.48a.563.563 0 01.634-.22.558.558 0 01.389.548v6.484a.557.557 0 01-.55.456.559.559 0 01-.55-.456v-5.191zM152.69 49.29a.54.54 0 01.54.54v6.445a.56.56 0 01-1.099 0V50.37h-4.186v5.905a.56.56 0 01-1.099 0V49.83a.53.53 0 01.165-.39.541.541 0 01.394-.15h5.285zM161.853 50.273a3.33 3.33 0 01.83 2.644c0 .386-.232.58-.56.58h-5.632a2.722 2.722 0 002.874 2.315 2.986 2.986 0 002.083-.772c.656-.56 1.312.27.772.753a4.148 4.148 0 01-2.894 1.08 3.85 3.85 0 01-2.874-1.1 4.093 4.093 0 010-5.538 3.7 3.7 0 012.739-1.1 3.413 3.413 0 012.662 1.138zm-.251 2.22a2.286 2.286 0 00-1.494-2.162 2.273 2.273 0 00-.917-.135 2.66 2.66 0 00-2.7 2.297h5.111zM171.055 50.254a3.862 3.862 0 011.08 2.74 3.872 3.872 0 01-1.08 2.78 3.564 3.564 0 01-2.681 1.1 3.51 3.51 0 01-2.431-.907v3.493a.56.56 0 01-1.099 0v-9.746a.561.561 0 01.345-.517.562.562 0 01.425 0 .537.537 0 01.329.517v.347a3.723 3.723 0 015.112.193zm-.791 4.748a2.8 2.8 0 00-1.929-4.787 2.68 2.68 0 00-2.334 1.178v3.223a2.898 2.898 0 002.073 1.168 2.892 2.892 0 002.248-.782h-.058zM181.74 49.752v6.523a.557.557 0 01-.934.39.539.539 0 01-.165-.39v-5.461l-2.218 1.93a.563.563 0 01-.405.193.579.579 0 01-.425-.193l-2.199-1.93v5.461a.56.56 0 01-.559.54.54.54 0 01-.54-.54v-6.523a.53.53 0 01.165-.389.536.536 0 01.394-.151.62.62 0 01.367.135l2.797 2.277 2.777-2.277a.675.675 0 01.615-.1.512.512 0 01.295.295.52.52 0 01.035.21zM191.154 56.275a.538.538 0 01-.54.54.557.557 0 01-.56-.54v-.308a3.51 3.51 0 01-2.43.907 3.627 3.627 0 01-2.701-1.1 3.87 3.87 0 01-1.061-2.78 3.705 3.705 0 011.061-2.74 3.527 3.527 0 012.701-1.12 3.45 3.45 0 012.43.908v-.328a.563.563 0 01.637-.58.542.542 0 01.54.541v6.562l-.077.038zm-1.1-1.66v-3.222a2.66 2.66 0 00-2.315-1.177 2.755 2.755 0 00-1.928.79 2.973 2.973 0 000 3.996 2.73 2.73 0 002.025.79 2.622 2.622 0 002.218-1.176zM199.911 50.254a3.857 3.857 0 011.06 2.74 3.87 3.87 0 01-1.06 2.78 3.63 3.63 0 01-2.701 1.1 3.508 3.508 0 01-2.43-.907v3.493a.538.538 0 01-.152.388.531.531 0 01-.388.152.521.521 0 01-.54-.54v-9.746a.537.537 0 01.54-.54.542.542 0 01.54.54v.347a3.45 3.45 0 012.449-.926 3.525 3.525 0 012.682 1.12zm-.811 4.748a2.794 2.794 0 00-.387-4.296 2.795 2.795 0 00-1.541-.49 2.677 2.677 0 00-2.334 1.177v3.223a2.75 2.75 0 002.314 1.177 2.678 2.678 0 001.948-.869v.078zM208.589 55.85a.516.516 0 01.182.396.512.512 0 01-.182.396.537.537 0 01-.611.127.547.547 0 01-.18-.127l-3.607-3.358v2.991a.56.56 0 01-1.099 0v-6.542a.517.517 0 01.348-.493.522.522 0 01.211-.028.521.521 0 01.54.54v2.953l3.511-3.3a.617.617 0 01.791 0 .553.553 0 01.183.405.55.55 0 01-.183.405l-3.183 2.78 3.279 2.856zM216.653 50.273a3.213 3.213 0 01.829 2.644c0 .386-.212.58-.559.58h-5.633a2.741 2.741 0 002.894 2.315 3.028 3.028 0 002.083-.772c.636-.56 1.292.27.752.753a4.107 4.107 0 01-2.893 1.08 3.856 3.856 0 01-3.963-4.62 3.856 3.856 0 011.108-2.018 3.663 3.663 0 012.72-1.1 3.393 3.393 0 012.662 1.138zm-.251 2.22a2.253 2.253 0 00-.7-1.68 2.255 2.255 0 00-1.711-.617 2.68 2.68 0 00-2.701 2.297h5.112zM221.051 56.275V50.37h-1.929a.52.52 0 01-.54-.521.552.552 0 01.152-.395.531.531 0 01.388-.165h5.054a.534.534 0 01.389.165.547.547 0 01.151.395.528.528 0 01-.159.375.512.512 0 01-.381.146h-1.929v5.905a.529.529 0 01-.159.376.515.515 0 01-.381.145.522.522 0 01-.656-.52z" fill="#1D1D1B"/></g><defs><clipPath id="dtclip0_967_2852"><path fill="#fff" d="M0 0h260.4v60H0z"/></clipPath></defs></svg>