<?xml version="1.0" encoding="utf-8"?><svg width="35" height="35" fill="none" xmlns="http://www.w3.org/2000/svg" viewBox="0 0 35 35"><rect width="35" height="35" rx="3.6" fill="#F3BD48"/><path d="M18.694 25.13c.333-.068.933-.205.933-1.021 0 0-.066-2.043.866-2.315.933-.273 2.133 1.974 3.399 2.86.933.612 1.666.544 1.666.544l3.399-.068s1.732-.136.933-1.566c-.067-.136-.6-1.021-2.6-2.86-2.065-2.042-1.732-1.702.734-5.174 1.532-2.11 2.199-3.404 1.999-3.88-.267-.477-1.333-.409-1.333-.409h-3.798c-.4 0-.6.068-.8.409 0 0-.6 1.702-1.4 3.063-1.666 2.928-2.332 3.064-2.665 2.86-.6-.34-.466-1.634-.466-2.52 0-3.063.466-4.152-.867-4.425-.866-.136-3.932-.272-4.864.205-.467.272-.733.748-.534.817.2 0 .8.068 1.133.476.533.885.6 5.106-.133 5.515-1 .749-3.532-4.221-4.132-5.855-.133-.409-.333-.477-.8-.613H5.7c-.4 0-1 .068-.733.885 1.8 3.813 5.532 13.14 12.262 13.072h1.466z" fill="#163029"/></svg>