<?xml version="1.0" encoding="utf-8"?><svg width="499" height="20" fill="none" xmlns="http://www.w3.org/2000/svg" viewBox="0 0 499 20"><path d="M459.628 18.815a29.357 29.357 0 01-20.812-8.596 9.568 9.568 0 00-13.217 0 29.453 29.453 0 01-41.597 0 9.57 9.57 0 00-13.217 0 29.454 29.454 0 01-41.598 0 9.568 9.568 0 00-13.216 0 29.454 29.454 0 01-41.598 0 9.568 9.568 0 00-13.217 0 29.453 29.453 0 01-41.598 0 9.568 9.568 0 00-13.216 0 29.457 29.457 0 01-41.598 0 9.57 9.57 0 00-13.217 0 29.454 29.454 0 01-41.598 0 9.494 9.494 0 00-6.621-2.648 9.393 9.393 0 00-6.595 2.649 29.505 29.505 0 01-41.623 0 9.544 9.544 0 00-13.192 0A29.505 29.505 0 01.5 10.444l4.997-4.997a22.285 22.285 0 0031.255-.2 16.513 16.513 0 0123.335 0 22.308 22.308 0 0031.479 0 16.514 16.514 0 0123.335 0 22.309 22.309 0 0031.48 0 16.512 16.512 0 0123.334 0 22.31 22.31 0 0031.48 0 16.512 16.512 0 0123.335 0 22.334 22.334 0 0031.505 0 16.487 16.487 0 0123.31 0 22.332 22.332 0 0031.504 0 16.514 16.514 0 0123.335 0 22.309 22.309 0 0031.479 0 16.514 16.514 0 0123.335 0 22.31 22.31 0 0031.48 0 16.512 16.512 0 0123.335 0 22.309 22.309 0 0031.48 0 16.536 16.536 0 0123.11-.225l-4.997 4.998a9.595 9.595 0 00-12.992.225 29.308 29.308 0 01-20.786 8.57z" fill="#1D1D1B"/><path d="M486.959.625a16.167 16.167 0 0110.994 4.297L493.33 9.57a9.993 9.993 0 00-13.191.425 29.13 29.13 0 01-41.174 0 9.99 9.99 0 00-13.666 0 29.103 29.103 0 01-41.148 0 9.993 9.993 0 00-13.666 0 29.104 29.104 0 01-41.148 0 9.993 9.993 0 00-13.667 0 29.104 29.104 0 01-41.148 0 9.993 9.993 0 00-13.666 0 29.104 29.104 0 01-41.148 0 9.995 9.995 0 00-13.667 0 29.103 29.103 0 01-41.148 0 9.842 9.842 0 00-6.845-2.724 9.743 9.743 0 00-6.821 2.724 29.129 29.129 0 01-41.173 0 9.995 9.995 0 00-13.641 0 29.131 29.131 0 01-41.174 0 9.993 9.993 0 00-13.641 0 29.154 29.154 0 01-40.724.45l4.622-4.648a22.483 22.483 0 0031.48-.45 16.212 16.212 0 0122.885 0 22.483 22.483 0 0031.93 0 16.214 16.214 0 0122.884 0A22.496 22.496 0 00130.64 12a22.483 22.483 0 0015.965-6.652 16.213 16.213 0 0122.885 0A22.491 22.491 0 00185.455 12a22.482 22.482 0 0015.964-6.652 16.215 16.215 0 0122.886 0 22.48 22.48 0 0031.929 0 16.213 16.213 0 0122.885 0 22.48 22.48 0 0031.929 0 16.265 16.265 0 0122.91 0A22.496 22.496 0 00349.923 12a22.483 22.483 0 0015.965-6.652 16.213 16.213 0 0122.885 0 22.48 22.48 0 0031.929 0 16.215 16.215 0 0122.886 0 22.48 22.48 0 0031.929 0A16.12 16.12 0 01486.959.625zm0-.625a16.79 16.79 0 00-11.892 4.997 21.984 21.984 0 01-31.055 0 16.788 16.788 0 00-23.759 0 21.986 21.986 0 01-31.055 0 16.792 16.792 0 00-18.31-3.645 16.792 16.792 0 00-5.45 3.645 21.984 21.984 0 01-31.054 0A16.803 16.803 0 00322.503.071a16.791 16.791 0 00-11.879 4.926 21.986 21.986 0 01-31.055 0 16.792 16.792 0 00-18.31-3.645 16.792 16.792 0 00-5.45 3.645 21.984 21.984 0 01-31.055 0 16.788 16.788 0 00-23.759 0 21.986 21.986 0 01-31.055 0 16.84 16.84 0 00-23.785 0 21.958 21.958 0 01-31.029 0 16.84 16.84 0 00-23.785 0 21.96 21.96 0 01-31.03 0 16.839 16.839 0 00-23.785 0 21.96 21.96 0 01-31.03 0L0 10.52a29.729 29.729 0 0042.023 0 9.292 9.292 0 0112.791 0 29.729 29.729 0 0042.023 0 9.293 9.293 0 0112.792 0 29.728 29.728 0 0042.023 0 9.292 9.292 0 0112.792 0 29.752 29.752 0 0042.047 0 9.27 9.27 0 0112.767 0 29.754 29.754 0 0042.048 0 9.268 9.268 0 0112.766 0 29.756 29.756 0 0042.048 0 9.27 9.27 0 0112.767 0 29.754 29.754 0 0042.048 0 9.266 9.266 0 0112.767 0 29.752 29.752 0 0042.047 0 9.27 9.27 0 0112.767 0 29.754 29.754 0 0042.047 0 9.27 9.27 0 0112.767 0l5.522-5.522A16.789 16.789 0 00486.959 0z" fill="#1D1D1B"/></svg>