<?xml version="1.0" encoding="utf-8"?><svg width="210" height="60" fill="none" xmlns="http://www.w3.org/2000/svg" viewBox="0 0 210 60"><g clip-path="url(#dwclip0_967_2812)" fill-rule="evenodd" clip-rule="evenodd"><path d="M17.495.02h1.038a8.063 8.063 0 015.45 2.656 8.014 8.014 0 01-9.696 12.432 8.01 8.01 0 01-3.394-3.414 8.058 8.058 0 011.185-9.082A8.083 8.083 0 0117.49 0l.005.02zm183.109 0h1.068a8.024 8.024 0 017.497 7.719v.605c-.025.354-.059.713-.118 1.067a8.016 8.016 0 01-8.523 6.613 8.019 8.019 0 01-3.934-14.592 8.116 8.116 0 014.03-1.412h-.02zm-32.337 4.176a4.01 4.01 0 11-.054 5.614 4.08 4.08 0 01-.954-1.658 4.027 4.027 0 011.008-3.936v-.02zM34.945 6.991a15.556 15.556 0 0110.331-1.737 15.394 15.394 0 016.986 3.183 15.562 15.562 0 014.92 6.947 15.744 15.744 0 01.491 8.629 15.507 15.507 0 01-5.352 8.57v-9.795h-4.014v21.154h10.527a8.019 8.019 0 01-15.575 0h.413V38.87a7.801 7.801 0 011.771-2.588c.232-.221.492-.413.709-.644-.813.168-1.634.287-2.46.36v-13.21h-3.833v13.007a15.742 15.742 0 01-5.524-2.105c.984-3.634 1.954-7.27 2.912-10.907h-3.38c-.754 2.912-1.512 5.823-2.273 8.732a16.788 16.788 0 01-2.317-2.951A15.532 15.532 0 0134.96 6.96l-.014.03zm115.07-1.786a15.523 15.523 0 0114.582 5.47 15.42 15.42 0 00-3.153 6.51 15.646 15.646 0 00-.251 5.16c.095.918.293 1.822.59 2.696v7.985c-.202.127-.394.265-.585.403a15.96 15.96 0 01-6.465 2.46c-.167-.438-.354-.871-.492-1.314a5.61 5.61 0 003.783-5.805 5.712 5.712 0 00-4.88-5.766 20.823 20.823 0 00-4.216-.226h-7.488v20.751a8.055 8.055 0 01-2.686-3.296 8.148 8.148 0 01-.438-5.146 8.042 8.042 0 012.686-4.265 15.55 15.55 0 01-3.419-6.396 15.742 15.742 0 01.423-9.23 15.559 15.559 0 0112.009-9.991zm-57.707 5.712a8.02 8.02 0 0110.582 11.275 8.565 8.565 0 01-1.997 2.23 16.635 16.635 0 012.582 2.08c.192.197.389.399.586.59v16.84h2.607a15.515 15.515 0 01-28.48-.53 10.976 10.976 0 01-4.216.614c-.431 0-.86-.063-1.274-.187a9.25 9.25 0 008.098-6.764c.547-1.875.673-3.847.369-5.776a10.529 10.529 0 00-3.665-6.622 8.447 8.447 0 00-3.444-1.653c2.26-.11 4.494.514 6.37 1.776.579.392 1.119.837 1.614 1.328.859-.79 1.8-1.485 2.81-2.07v19.884h9.116a8.362 8.362 0 003.817-.757 5.315 5.315 0 002.549-3.07 6.394 6.394 0 00.078-3.557 4.833 4.833 0 00-2.277-2.907 6.32 6.32 0 00-1.968-.674c.46-.115.905-.28 1.328-.492a4.576 4.576 0 002.381-3.469 5.651 5.651 0 00-.703-3.606 4.92 4.92 0 00-2.554-2.165c-1.53-.491-3.158-.462-4.742-.457h-4.177c.52-.18 1.051-.327 1.59-.443a8.122 8.122 0 01-1.108-5.86 8.038 8.038 0 014.128-5.563v.005zm99.632 7.173a15.522 15.522 0 0117.195 15.167v.516a15.523 15.523 0 01-22.518 13.603 15.207 15.207 0 01-4.511-3.444h1.874v-3.31h-4.186a15.877 15.877 0 01-1.515-4.68 15.473 15.473 0 006.621-2.311 21.055 21.055 0 002.17-1.624 4.514 4.514 0 002.042 1.781c.823.368 1.68.656 2.558.861l3.562.925a4.955 4.955 0 012.061.91 2.596 2.596 0 01.423 3.07c-.4.606-.993 1.06-1.682 1.289-.714.23-1.46.336-2.209.315a6.7 6.7 0 01-3.41-.743 3.527 3.527 0 01-1.667-2.386c-1.245.246-2.46.526-3.72.782a6.837 6.837 0 001.388 2.701 6.975 6.975 0 002.597 1.84 12.07 12.07 0 005.412.876 10.16 10.16 0 004.142-1.019 6.037 6.037 0 003.498-6.43 5.963 5.963 0 00-1.348-3.119 7.379 7.379 0 00-3.414-1.884c-1.043-.295-2.096-.531-3.139-.802a12.12 12.12 0 01-2.75-.876 2.21 2.21 0 01-1.318-1.943 6.39 6.39 0 00.575-1.053c.129-.245.23-.504.3-.772a5.152 5.152 0 015.732.172c.42.394.736.886.92 1.432 1.215-.29 2.459-.59 3.645-.9a5.337 5.337 0 00-2.238-3.08 10.223 10.223 0 00-7.04-1.378c.203-1.49.19-3-.04-4.486h-.01zM67.916 25.803v14.98h2.076a12.3 12.3 0 002.214-.093 5.903 5.903 0 004.31-3.615c.48-1.279.701-2.64.65-4.005a8.614 8.614 0 00-1.575-5.166 4.85 4.85 0 00-4.049-2.1h-3.626zm20.53 0v5.816c1.476.024 2.986 0 4.482 0a3.74 3.74 0 001.554-.261 2.808 2.808 0 001.624-2.091 3.356 3.356 0 00-.217-1.997 2.73 2.73 0 00-1.56-1.265 4.556 4.556 0 00-1.765-.211l-4.118.01zm56.827 0v6.332h4.693a6.124 6.124 0 002.106-.305 2.95 2.95 0 001.387-.984 3.301 3.301 0 00.556-2.46 2.786 2.786 0 00-1.018-1.766 3.863 3.863 0 00-2.141-.777c-1.859-.04-3.719 0-5.583 0v-.04zm-92.982 8.27v6.347h6.593a8.038 8.038 0 00-4.197-5.564 7.917 7.917 0 00-2.396-.782zm36.14.576v6.046h5.067a3.444 3.444 0 002.357-.86c.45-.428.741-.998.821-1.614a2.95 2.95 0 00-2.356-3.473 10.4 10.4 0 00-2.071-.099H88.43zm56.827.551v8.693h-3.163l.339.251a8.022 8.022 0 015.244.679 7.71 7.71 0 003.808-1.904 9.572 9.572 0 001.412-1.648l-2.297-6.07h-5.343zm-8.034 7.813c.118.305.246.61.359.92h-3.055a4.062 4.062 0 00-1.436 3.123 4.009 4.009 0 001.672 3.237c.424.297.9.513 1.402.635a4.019 4.019 0 004.359-1.8 4.015 4.015 0 00-3.301-6.115zM66.062 52.36a4.015 4.015 0 106.887 3.724 3.67 3.67 0 000-2.022 3.985 3.985 0 00-4.108-3.045 4.074 4.074 0 00-2.794 1.343h.014z" fill="#EC208B"/><path d="M85.194 3.085A4.034 4.034 0 0189.68 5.26a4.016 4.016 0 01-1.791 5.331 4.014 4.014 0 11-2.697-7.493v-.014zM3.847 16.255a15.542 15.542 0 017.045-4.58 8.01 8.01 0 008.132 4.265 8.014 8.014 0 004.876-2.51 16.12 16.12 0 013.596 3.194 15.561 15.561 0 001.761 11.93c-.615.216-1.235.423-1.835.674-.59-2.155-1.179-4.308-1.766-6.46h-3.877a8390.433 8390.433 0 01-3.035 12.3 4.448 4.448 0 00-1.574 0 16091.41 16091.41 0 01-3.257-12.3H9.849c1.233 4.526 2.471 9.054 3.714 13.583a7.68 7.68 0 00-2.71 3.036 8.127 8.127 0 00-.625 1.702 15.625 15.625 0 01-6.548-4.546 15.403 15.403 0 01-3.32-6.676A16.806 16.806 0 010 27.245v-1.476c.038-.66.112-1.316.221-1.968a15.433 15.433 0 013.626-7.546zm117.043-1.24a15.515 15.515 0 0115.704.187.786.786 0 00.467.187v.098l.699.492a15.743 15.743 0 00-.167 8.457 15.538 15.538 0 003.419 6.395 8.036 8.036 0 00-2.686 4.266 8.134 8.134 0 00.438 5.146 15.712 15.712 0 01-2.042 1.505l-2.834-7.153a6.02 6.02 0 003.001-2.41 6.658 6.658 0 00.733-4.217 5.752 5.752 0 00-1.535-3.271 5.837 5.837 0 00-2.848-1.555 11.788 11.788 0 00-3.105-.33h-9.042v19.325a15.59 15.59 0 01-6.735-7.38h1.412v-3.08h-2.401a16.298 16.298 0 01-.093-5.696h4.428v-3.159h-3.543a15.57 15.57 0 016.74-7.753l-.01-.054zm-44.02.684a15.63 15.63 0 0111.315.762 8.122 8.122 0 001.107 5.86c-.538.115-1.07.263-1.59.442H84.83v1.26a16.036 16.036 0 00-2.809 2.07 11.237 11.237 0 00-1.613-1.328 10.509 10.509 0 00-6.371-1.776 11.156 11.156 0 00-2.057-.226h-3.886a14.917 14.917 0 012.952-3.694 15.506 15.506 0 015.83-3.375l-.005.005zm48.055 10.144v6.322h4.565a6.735 6.735 0 001.776-.163 3.19 3.19 0 001.796-1.053 3.276 3.276 0 00.629-2.395 2.793 2.793 0 00-1.028-1.91 3.89 3.89 0 00-2.283-.796h-5.46l.005-.005zm-65.053 7.63a15.743 15.743 0 014.103-6.302v14.43a6.601 6.601 0 00-2.681-.527v-.6h-2.13a15.334 15.334 0 01.708-7zM23.368 28.49c-.369 1.417-.703 2.843-1.057 4.265a18.49 18.49 0 011.81-1.53c-.256-.91-.492-1.83-.753-2.735zm142.262 3.015a15.768 15.768 0 004.624 3.164v9.273h11.866a15.213 15.213 0 004.512 3.444 15.491 15.491 0 01-5.245 2.912 15.7 15.7 0 01-9.313.08v.093a4.088 4.088 0 00-1.165-2.313 4.163 4.163 0 00-4.379-.816 15.44 15.44 0 01-2.952-3.4h2.062V31.505h-.01zm-4.428 1.934c.192-.138.384-.276.585-.404v7.045a9.547 9.547 0 01-.462-1.815 16.753 16.753 0 01-.118-4.826h-.005zm-36.277 1.795v8.364a15.74 15.74 0 008.363-.285c-1.013-2.692-2.037-5.383-3.05-8.074l-5.313-.005zm49.196.59v4.797h5.727a15.879 15.879 0 01-1.516-4.678 16.099 16.099 0 01-4.211-.118zM73.977 44.017a10.974 10.974 0 004.216-.615 15.551 15.551 0 006.06 7.237 15.423 15.423 0 01-9.681 3.395c-.541 0-1.087-.06-1.628-.045a.638.638 0 00-.025.074 3.985 3.985 0 00-4.108-3.045 8.516 8.516 0 00-.162-4.55 8.766 8.766 0 00-1.407-2.535c1.82-.024 3.645.064 5.46-.103.414.124.843.187 1.275.187z" fill="#7C2570"/><path d="M174.658 5.116a15.666 15.666 0 016.843.655 15.46 15.46 0 0110.509 16.805 7.167 7.167 0 00-4.876 2.82 5.909 5.909 0 00-.944 3.758 6.14 6.14 0 00.91 2.853 21.055 21.055 0 01-2.17 1.624 15.473 15.473 0 01-6.621 2.312 16.102 16.102 0 01-4.212-.118v-1.087h7.872v-3.08h-7.872V25.95h9.766v-3.168h-13.608v11.866a15.768 15.768 0 01-4.624-3.163v-8.693h-3.808v2.253a12.316 12.316 0 01-.59-2.696 15.501 15.501 0 016.051-14.213 4.08 4.08 0 00.954 1.658 4.022 4.022 0 005.255.466 4.02 4.02 0 001.19-5.14l-.025-.005zm-64.639 5.934a24.106 24.106 0 0118.695 1.943 15.539 15.539 0 00-14.562 9.795h-10.076v4.29a29.864 29.864 0 01-.585-.59 16.69 16.69 0 00-2.583-2.082 8.53 8.53 0 001.997-2.228 8.03 8.03 0 00.31-7.808 24.102 24.102 0 016.804-3.335v.015zm-52.842 4.314a15.634 15.634 0 017.655.236c2.314.664 4.44 1.86 6.209 3.493a14.913 14.913 0 00-2.952 3.695H63.96v4.359a15.744 15.744 0 00-4.088 6.326 15.334 15.334 0 00-.713 7.006h-.261a8.04 8.04 0 00-4.197-5.564 7.916 7.916 0 00-2.395-.782v-1.545a15.506 15.506 0 005.352-8.57 15.743 15.743 0 00-.492-8.63l.01-.024zm79.885.044c.31-.078.62-.142.94-.196a10.03 10.03 0 00-.256.772l-.698-.492v-.098l.014.014zm-29.154 10.543v5.687c1.826.025 3.646 0 5.466 0a16.299 16.299 0 01-.093-5.697l-5.373.01zm82.193 2.204c.224-.332.417-.684.576-1.053.128-.245.229-.504.3-.772a2.258 2.258 0 00-.876 1.825zM154.753 35.9c1.063 2.671 2.116 5.347 3.178 8.024h-4.039c-.334-.876-.659-1.752-.984-2.623a9.57 9.57 0 01-1.411 1.649 7.718 7.718 0 01-3.808 1.903 7.976 7.976 0 013.65 3.715 8.165 8.165 0 01.728 4.427 15.607 15.607 0 0012.299-.526 4.071 4.071 0 01-.211-2.18 4.027 4.027 0 012.381-2.98 15.44 15.44 0 01-2.952-3.4h-1.761v-3.862a9.624 9.624 0 01-.463-1.815 16.753 16.753 0 01-.118-4.827 15.955 15.955 0 01-6.464 2.46l-.025.035zm-46.845-1.161h6.45a15.59 15.59 0 006.735 7.38v1.82h3.833v-.335c2.762.66 5.652.56 8.363-.29.079.201.152.403.221.61h.984a4.062 4.062 0 00-1.436 3.124 4.009 4.009 0 001.672 3.237 24 24 0 01-17.138 7.753 24.005 24.005 0 01-17.466-6.98 15.528 15.528 0 006.548-7.134h11.123v-3.311h-9.889v-1.206a3.03 3.03 0 00.153-1.008c.03-.595 0-1.19 0-1.781a2.989 2.989 0 00-.148-.984v-.876l-.005-.02zm30.842 5.505a8.04 8.04 0 002.686 3.296v.393h.654l.34.251a8.486 8.486 0 00-1.968.68 4.031 4.031 0 00-3.272-1.85c-.162-.424-.334-.842-.492-1.265a15.67 15.67 0 002.052-1.505z" fill="#BB3C95"/><path d="M191.995 22.576a10.224 10.224 0 017.04 1.378 5.338 5.338 0 012.238 3.08c-1.21.31-2.43.61-3.645.9a3.492 3.492 0 00-.92-1.432 5.151 5.151 0 00-5.732-.172 2.257 2.257 0 00-.876 1.825 2.213 2.213 0 001.319 1.944c.878.4 1.802.694 2.75.875 1.043.27 2.096.492 3.139.802a7.383 7.383 0 013.414 1.884 5.963 5.963 0 011.348 3.12 6.035 6.035 0 01-3.498 6.43 10.158 10.158 0 01-4.142 1.018 12.071 12.071 0 01-5.412-.876 6.974 6.974 0 01-2.597-1.84 6.822 6.822 0 01-1.388-2.7c1.24-.257 2.46-.537 3.72-.783a3.517 3.517 0 001.667 2.386 6.696 6.696 0 003.41.743 6.6 6.6 0 002.208-.315 3.233 3.233 0 001.683-1.289 2.596 2.596 0 00-.423-3.07 4.962 4.962 0 00-2.061-.91l-3.562-.925a14.21 14.21 0 01-2.558-.86 4.515 4.515 0 01-2.042-1.782 6.129 6.129 0 01-.91-2.853 5.909 5.909 0 01.944-3.759 7.18 7.18 0 014.876-2.819h.01zM9.85 22.793h4.063c1.083 4.093 2.168 8.193 3.257 12.299.275 1.013.526 2.032.817 3.045.26-1.013.492-2.027.757-3.04 1.01-4.1 2.022-8.2 3.036-12.3h3.876c.584 2.155 1.173 4.309 1.767 6.46.806 2.952 1.613 5.904 2.425 8.855.585-2.194 1.151-4.398 1.727-6.602l2.273-8.732h3.38c-.985 3.637-1.955 7.273-2.913 10.907a5248.63 5248.63 0 00-2.735 10.238h-4.005c-1.156-4.241-2.297-8.487-3.444-12.732-.256-.91-.492-1.83-.752-2.736-.37 1.417-.704 2.844-1.058 4.266-.925 3.734-1.83 7.473-2.76 11.202h-3.936c-.688-2.52-1.376-5.038-2.061-7.557-1.24-4.53-2.478-9.057-3.714-13.583v.01zm29.985 0h3.832v21.144h-3.822V35.8 22.793h-.01zm8.457 0h4.014v17.666h8.983v3.478H48.297V22.783l-.005.01zm15.683 0h8.015c.69.011 1.38.087 2.056.226a8.446 8.446 0 013.444 1.653c2 1.677 3.306 4.037 3.665 6.622a13.242 13.242 0 01-.369 5.776 9.25 9.25 0 01-8.098 6.764c-1.815.167-3.64.079-5.46.103h-3.262V22.788l.01.005zm3.936 3.015v14.98h2.076a12.3 12.3 0 002.214-.093 5.904 5.904 0 004.31-3.616c.48-1.278.701-2.64.65-4.004a8.614 8.614 0 00-1.575-5.166 4.85 4.85 0 00-4.049-2.1h-3.626zm16.924-3.015h7.05c1.584 0 3.212-.044 4.742.457a4.92 4.92 0 012.553 2.165 5.65 5.65 0 01.704 3.606 4.574 4.574 0 01-2.381 3.468 6.392 6.392 0 01-1.328.492 6.322 6.322 0 011.968.674 4.833 4.833 0 012.277 2.908 6.394 6.394 0 01-.078 3.557 5.316 5.316 0 01-2.549 3.07 8.364 8.364 0 01-3.818.757h-9.13V22.802l-.01-.01zm3.606 3.035v5.815c1.476.025 2.986 0 4.482 0 .53.025 1.06-.064 1.554-.26a2.81 2.81 0 001.624-2.091 3.356 3.356 0 00-.217-1.998 2.73 2.73 0 00-1.56-1.264 4.553 4.553 0 00-1.765-.212l-4.118.01zm0 8.856v6.046h5.067a3.444 3.444 0 002.357-.861c.45-.428.74-.998.821-1.614a2.953 2.953 0 00-2.356-3.473 10.415 10.415 0 00-2.071-.098H88.44zm15.63-11.896h13.622v3.158h-9.785v5.687c1.825.025 3.645 0 5.466 0h2.4v3.08h-7.866V40.592h9.913v3.311h-13.736V22.758l-.014.03zm17.017 0h9.042a11.772 11.772 0 013.104.33 5.837 5.837 0 012.834 1.579 5.751 5.751 0 011.535 3.271 6.664 6.664 0 01-.733 4.216 6.024 6.024 0 01-3.001 2.411l2.863 7.153c.167.423.34.841.492 1.265.118.305.246.61.359.92h-4.039a12.719 12.719 0 00-.221-.61c-1.014-2.692-2.037-5.383-3.05-8.074h-5.348v8.698h-3.803v-21.16h-.034zm3.808 3.055v6.322h4.565a6.735 6.735 0 001.776-.163 3.191 3.191 0 001.796-1.053 3.276 3.276 0 00.629-2.395 2.794 2.794 0 00-1.028-1.91 3.89 3.89 0 00-2.283-.796h-5.46l.005-.005zm16.539-3.055h7.498a20.837 20.837 0 014.216.226 5.714 5.714 0 014.88 5.766 5.612 5.612 0 01-3.783 5.805c.153.443.34.876.492 1.314 1.063 2.671 2.116 5.347 3.178 8.024h-4.039c-.334-.876-.659-1.752-.984-2.623l-2.297-6.07h-5.323v8.693h-3.828v-.394-20.751l-.01.01zm3.833 3.05v6.332h4.693a6.124 6.124 0 002.106-.305 2.951 2.951 0 001.387-.984 3.297 3.297 0 00.556-2.46 2.786 2.786 0 00-1.018-1.766 3.862 3.862 0 00-2.14-.778c-1.86-.039-3.72 0-5.584 0v-.039zm16.53-3.05h3.827v21.154h-3.803V40.08v-7.044-7.985-2.253l-.024-.01zm8.452 0h13.612v3.168h-9.78v5.697h7.872v3.08h-7.872v5.903h9.913v3.311h-13.74V22.793l-.005-.005z" fill="#fff"/><path d="M29.257 28.554a16.793 16.793 0 002.317 2.951c-.576 2.204-1.142 4.428-1.727 6.603-.812-2.952-1.619-5.904-2.425-8.856.6-.25 1.22-.457 1.835-.674v-.024zM22.31 32.71c-.925 3.734-1.83 7.473-2.76 11.202h-3.935c-.69-2.52-1.376-5.038-2.062-7.557a7.68 7.68 0 00-2.71 3.036 8.068 8.068 0 00-.168 6.887 8.025 8.025 0 004.694 4.31 8.142 8.142 0 004.427.24 15.526 15.526 0 0028.042-1.436 8.005 8.005 0 01-4.58-5.46h-3.41V35.8a15.742 15.742 0 01-5.524-2.105c-.915 3.41-1.827 6.823-2.735 10.237h-4.005c-1.156-4.24-2.297-8.486-3.444-12.732-.635.471-1.24.982-1.81 1.53l-.02-.02zm-5.126 2.361a4.453 4.453 0 011.574 0c-.256 1.014-.492 2.027-.757 3.04-.29-1.013-.542-2.031-.817-3.045v.005zm26.497.915a21.274 21.274 0 002.46-.359c-.226.231-.492.423-.709.645a7.802 7.802 0 00-1.77 2.587v-2.873h.02zm17.627 5.063a6.602 6.602 0 012.681.526v2.356h3.262a8.767 8.767 0 011.407 2.534 8.515 8.515 0 01.162 4.55 4.025 4.025 0 00-3.68 4.92 8.25 8.25 0 01-2.179.886 8.013 8.013 0 01-9.893-7.03 8.054 8.054 0 005.766-5.85h2.46V41.05h.014zm81.14 3.133a8.033 8.033 0 018.895 4.394 8.174 8.174 0 01.728 4.427 8.053 8.053 0 01-7.085 6.986h-1.716a8.021 8.021 0 01-6.904-5.89 8.009 8.009 0 01-.2-3.187 4.018 4.018 0 004.329-6.066 8.507 8.507 0 011.968-.678l-.015.014zm24.106 3.149a4.158 4.158 0 014.379.816 4.09 4.09 0 011.166 2.313 4.012 4.012 0 01-2.951 4.458 4.014 4.014 0 01-4.763-2.426 4.025 4.025 0 012.154-5.16h.015z" fill="#8E2880"/><path d="M107.912 35.613c.103.318.153.65.148.984.029.59.034 1.186 0 1.781a3.03 3.03 0 01-.153 1.009c-.01-1.24-.01-2.51.005-3.774z" fill="#E4248C"/></g><defs><clipPath id="dwclip0_967_2812"><path fill="#fff" d="M0 0h209.149v60H0z"/></clipPath></defs></svg>