<?xml version="1.0" encoding="utf-8"?><svg width="554" height="290" fill="none" xmlns="http://www.w3.org/2000/svg" viewBox="0 0 554 290"><g style="mix-blend-mode:multiply" opacity=".5" fill="#91CF50"><path d="M478.363 289.663a1.793 1.793 0 01-1.655-1.103c-.386-.911.056-1.959.966-2.345a506.444 506.444 0 0016.369-7.157 1.79 1.79 0 011.49 3.254 525.92 525.92 0 01-16.48 7.199 1.705 1.705 0 01-.69.138v.014zM473.605 282.671a1.777 1.777 0 01-1.654-1.103 1.801 1.801 0 01.979-2.345 497.195 497.195 0 0023.251-10.288 1.789 1.789 0 012.386.855 1.788 1.788 0 01-.855 2.386 513.79 513.79 0 01-23.417 10.357 1.705 1.705 0 01-.69.138zM479.673 271.1c-.69 0-1.352-.4-1.642-1.075-.4-.91.014-1.959.924-2.358a516.514 516.514 0 0017.487-8.027 1.803 1.803 0 012.4.842 1.802 1.802 0 01-.842 2.399 519.802 519.802 0 01-17.61 8.081 1.908 1.908 0 01-.717.152v-.014zM540.228 239.671c-.607 0-1.2-.303-1.531-.855a1.8 1.8 0 01.607-2.468l1.765-1.076a1.809 1.809 0 012.469.593c.51.841.248 1.945-.593 2.469l-1.779 1.075c-.29.18-.607.262-.924.262h-.014zM478.788 262.454c-.689 0-1.338-.4-1.641-1.062-.4-.91 0-1.958.91-2.358a493.821 493.821 0 0019.9-9.337 1.784 1.784 0 012.4.814 1.784 1.784 0 01-.814 2.4 510.052 510.052 0 01-20.038 9.405c-.234.11-.482.152-.731.152l.014-.014zM542.643 228.459a1.774 1.774 0 01-1.517-.841 1.788 1.788 0 01.565-2.468 702.43 702.43 0 003.475-2.207 1.803 1.803 0 012.483.538c.538.827.289 1.944-.538 2.482-1.159.745-2.331 1.49-3.503 2.221a1.73 1.73 0 01-.952.275h-.013zM459.524 261.585c-.718 0-1.38-.428-1.669-1.131a1.795 1.795 0 01.993-2.331 504.732 504.732 0 008.895-3.668 1.809 1.809 0 012.358.952 1.788 1.788 0 01-.951 2.344 474.147 474.147 0 01-8.964 3.696 1.872 1.872 0 01-.662.124v.014zM477.933 253.766c-.69 0-1.338-.4-1.641-1.062-.4-.897 0-1.959.896-2.372a499.222 499.222 0 0019.225-9.144c.882-.455 1.958-.082 2.413.8a1.81 1.81 0 01-.8 2.414 477.577 477.577 0 01-19.376 9.212c-.234.11-.483.165-.731.165l.014-.013zM511.886 236.913a1.762 1.762 0 01-1.572-.938 1.79 1.79 0 01.717-2.427 534.628 534.628 0 007.806-4.358c.855-.482 1.958-.193 2.441.676a1.777 1.777 0 01-.676 2.441 556.09 556.09 0 01-7.861 4.386c-.276.151-.565.22-.855.22zM547.33 215.579a1.794 1.794 0 01-1.503-.8 1.782 1.782 0 01.51-2.482l1.724-1.145a1.783 1.783 0 012.482.497c.552.827.331 1.93-.496 2.482l-1.724 1.145a1.743 1.743 0 01-.993.289v.014zM38.96 226.377a1.7 1.7 0 01-.882-.234 583.487 583.487 0 01-9.584-5.544 1.782 1.782 0 01-.62-2.455 1.784 1.784 0 012.454-.62 456.91 456.91 0 009.515 5.502 1.776 1.776 0 01.676 2.441c-.33.579-.938.91-1.558.91zM345.199 283.65a1.807 1.807 0 01-1.779-1.544 1.79 1.79 0 011.517-2.028 486.42 486.42 0 0025.734-4.371 1.794 1.794 0 012.11 1.406 1.8 1.8 0 01-1.407 2.11 478.471 478.471 0 01-25.927 4.413c-.082 0-.165.014-.262.014h.014zM391.22 274.797a1.791 1.791 0 01-.413-3.531c1.337-.331 2.675-.648 3.999-.993a1.806 1.806 0 012.179 1.297 1.795 1.795 0 01-1.296 2.178c-1.338.345-2.69.676-4.027.993-.138.028-.29.056-.428.056h-.014zM451.69 255.779a1.8 1.8 0 01-1.669-1.145 1.786 1.786 0 011.02-2.316 482.808 482.808 0 0045.703-20.576 1.787 1.787 0 012.413.772 1.788 1.788 0 01-.772 2.414 484.902 484.902 0 01-46.047 20.727 1.744 1.744 0 01-.648.124zM507.322 229.963a1.79 1.79 0 01-.855-3.365c.8-.442 1.613-.883 2.413-1.324a1.793 1.793 0 012.441.703 1.793 1.793 0 01-.703 2.441c-.814.441-1.614.883-2.427 1.324a1.756 1.756 0 01-.855.221h-.014zM549.644 204.05a1.793 1.793 0 01-1.02-3.268l1.131-.773a1.795 1.795 0 012.041 2.952l-1.145.786a1.86 1.86 0 01-1.02.317l.013-.014zM25.778 208.959c-.317 0-.648-.082-.938-.275l-1.172-.731a1.792 1.792 0 111.89-3.048l1.171.731a1.791 1.791 0 01.58 2.468 1.782 1.782 0 01-1.531.842v.013z"/><path d="M41.776 218.461a1.7 1.7 0 01-.883-.234 453.962 453.962 0 01-13.708-8.095 1.809 1.809 0 01-.593-2.469 1.805 1.805 0 012.469-.593 493.241 493.241 0 0013.611 8.026 1.8 1.8 0 01.676 2.441c-.33.579-.938.91-1.558.91l-.014.014zM240.706 278.92h-.138a481.48 481.48 0 01-6.206-.496 1.785 1.785 0 01-1.627-1.945 1.776 1.776 0 011.945-1.627c2.054.179 4.109.344 6.164.496a1.789 1.789 0 01-.124 3.572h-.014z"/><path d="M259.295 279.927h-.069a482.702 482.702 0 01-17.969-.966 1.783 1.783 0 01-1.655-1.917 1.773 1.773 0 011.917-1.654 477.55 477.55 0 0017.831.965c.993.041 1.766.869 1.724 1.848a1.784 1.784 0 01-1.792 1.724h.013zM278.605 280.23c-.993 0-1.793-.8-1.793-1.779 0-.993.8-1.793 1.779-1.807a480.006 480.006 0 0019.914-.496 1.792 1.792 0 011.876 1.71 1.79 1.79 0 01-1.71 1.875c-6.661.304-13.419.469-20.066.511v-.014zM317.164 278.506c-.924 0-1.71-.703-1.779-1.641a1.802 1.802 0 011.628-1.944c27.609-2.345 55.121-7.13 81.779-14.246a1.787 1.787 0 012.192 1.269 1.788 1.788 0 01-1.268 2.192 477.676 477.676 0 01-82.4 14.343h-.152v.027zM436.123 252.759c-.731 0-1.435-.455-1.683-1.186a1.787 1.787 0 011.09-2.289 473.293 473.293 0 0057.935-25.141 1.788 1.788 0 012.413.772c.455.883.11 1.959-.772 2.414a476.48 476.48 0 01-58.377 25.333c-.193.069-.4.111-.606.111v-.014zM501.586 223.66a1.826 1.826 0 01-1.586-.937 1.797 1.797 0 01.731-2.428 507.182 507.182 0 004.827-2.634 1.795 1.795 0 012.441.704 1.793 1.793 0 01-.703 2.441 430.078 430.078 0 01-4.855 2.648 1.76 1.76 0 01-.855.22v-.014zM512.442 217.634a1.785 1.785 0 01-1.558-.897 1.784 1.784 0 01.662-2.441l1.186-.689a1.79 1.79 0 012.454.662 1.79 1.79 0 01-.662 2.455l-1.199.689a1.74 1.74 0 01-.897.235l.014-.014zM45.25 210.918c-.303 0-.606-.069-.882-.235a481.303 481.303 0 01-25.375-15.542 1.783 1.783 0 01-.51-2.482 1.782 1.782 0 012.482-.51 469.269 469.269 0 0025.182 15.431 1.804 1.804 0 01.676 2.441 1.8 1.8 0 01-1.559.911l-.013-.014zM276.384 271.955c-15.128 0-30.381-.73-45.358-2.165a1.794 1.794 0 01-1.613-1.958c.096-.979.979-1.696 1.958-1.613a475.333 475.333 0 0045.013 2.151c7.185 0 14.425-.166 21.541-.497 1.048-.013 1.834.718 1.876 1.71a1.792 1.792 0 01-1.71 1.876c-7.171.331-14.481.496-21.707.496zM306.266 271.018a1.805 1.805 0 01-1.792-1.683 1.8 1.8 0 011.682-1.903 465.473 465.473 0 0093.35-15.514 1.8 1.8 0 012.206 1.255 1.8 1.8 0 01-1.255 2.206c-30.588 8.371-62.237 13.625-94.067 15.625h-.11l-.014.014zM428.962 246.498a1.796 1.796 0 01-.593-3.489 464.384 464.384 0 0061.203-26.189 1.788 1.788 0 012.414.772c.455.883.11 1.959-.773 2.414a469.793 469.793 0 01-61.672 26.395 1.7 1.7 0 01-.579.097zM497.12 216.668a1.825 1.825 0 01-1.586-.937 1.797 1.797 0 01.73-2.428 526.774 526.774 0 008.427-4.633 1.793 1.793 0 111.751 3.13 527.37 527.37 0 01-8.495 4.675 1.89 1.89 0 01-.841.207l.014-.014zM546.891 185.805a1.767 1.767 0 01-1.462-.759c-.579-.8-.386-1.93.414-2.496l.565-.4a1.788 1.788 0 012.496.414c.579.8.386 1.931-.414 2.496l-.565.4a1.803 1.803 0 01-1.034.331v.014zM60.836 210.049c-.29 0-.58-.069-.841-.207a462.911 462.911 0 01-45.496-27.719 1.794 1.794 0 012.04-2.952 459.739 459.739 0 0045.138 27.499 1.81 1.81 0 01.745 2.427 1.78 1.78 0 01-1.586.952zM276.383 263.681a466.706 466.706 0 01-64.43-4.468 1.8 1.8 0 01-1.531-2.027 1.8 1.8 0 012.027-1.531 463.897 463.897 0 0063.934 4.427c40.917 0 81.476-5.406 120.573-16.053a1.8 1.8 0 012.206 1.255 1.8 1.8 0 01-1.255 2.207c-39.4 10.743-80.276 16.176-121.51 16.176l-.014.014zM423.144 239.727a1.782 1.782 0 01-1.696-1.228 1.8 1.8 0 011.131-2.275 455.511 455.511 0 0063.189-26.768 1.788 1.788 0 012.413.772c.455.883.11 1.959-.772 2.414a458.48 458.48 0 01-63.686 26.974 1.68 1.68 0 01-.565.097l-.014.014zM492.082 209.98a1.812 1.812 0 01-1.586-.952 1.788 1.788 0 01.745-2.427 361.37 361.37 0 006.04-3.282 1.794 1.794 0 012.441.703 1.793 1.793 0 01-.703 2.441 320.38 320.38 0 01-6.082 3.296 1.807 1.807 0 01-.841.207l-.014.014zM66.833 203.871c-.276 0-.566-.069-.828-.207a452.656 452.656 0 01-52.418-32.298 1.79 1.79 0 012.082-2.91 450.359 450.359 0 0052.005 32.036 1.786 1.786 0 01.758 2.413 1.794 1.794 0 01-1.585.966h-.014z"/><path d="M276.381 255.407c-21.72 0-43.551-1.559-64.885-4.62a1.79 1.79 0 01.51-3.544 455.364 455.364 0 0064.375 4.578c71.685 0 142.997-17.307 206.227-50.033a1.787 1.787 0 012.413.773 1.786 1.786 0 01-.772 2.413c-63.727 33.001-135.604 50.433-207.868 50.433z"/><path d="M485.272 204.215a1.767 1.767 0 01-1.586-.965 1.782 1.782 0 01.759-2.413 429.503 429.503 0 006.054-3.227 1.79 1.79 0 011.71 3.144 373.46 373.46 0 01-6.109 3.255 1.796 1.796 0 01-.828.206zM542.008 168.925a1.769 1.769 0 01-1.448-.731c-.58-.8-.414-1.917.386-2.51l1.668-1.213a1.8 1.8 0 012.51.372 1.8 1.8 0 01-.372 2.51l-1.669 1.227a1.77 1.77 0 01-1.062.345h-.013zM15.518 162.14a1.81 1.81 0 01-1.062-.345A471.121 471.121 0 01.68 151.314a1.797 1.797 0 012.234-2.813 446.072 446.072 0 0013.667 10.398c.8.579.98 1.71.386 2.51a1.77 1.77 0 01-1.448.731zM65.59 193.817c-.29 0-.58-.069-.855-.22a445.495 445.495 0 01-42.958-26.575 1.791 1.791 0 01-.442-2.496 1.791 1.791 0 012.496-.442 442.761 442.761 0 0042.614 26.355 1.79 1.79 0 01.717 2.427 1.804 1.804 0 01-1.572.937v.014zM276.382 247.132c-22.313 0-44.737-1.668-66.637-4.964a1.791 1.791 0 01-1.503-2.041c.152-.98 1.062-1.669 2.041-1.504 21.72 3.269 43.965 4.924 66.113 4.924 64.223 0 126.13-13.502 184.01-40.118a1.79 1.79 0 011.489 3.255c-58.362 26.837-120.765 40.448-185.513 40.448z"/><path d="M461.772 206.56a1.79 1.79 0 01-1.628-1.048 1.786 1.786 0 01.869-2.372c1.035-.483 2.083-.965 3.117-1.448a1.8 1.8 0 012.386.855 1.789 1.789 0 01-.855 2.386c-1.048.496-2.083.979-3.145 1.462-.248.11-.496.165-.744.165z"/><path d="M466.765 204.215c-.676 0-1.31-.372-1.613-1.02a1.782 1.782 0 01.841-2.386 452.607 452.607 0 008.633-4.234 1.798 1.798 0 011.613 3.214 462.888 462.888 0 01-8.702 4.261c-.248.124-.51.179-.772.179v-.014zM483.396 195.844a1.78 1.78 0 01-1.586-.951c-.469-.869-.124-1.959.744-2.427.814-.428 1.614-.855 2.428-1.297a1.796 1.796 0 012.427.731 1.795 1.795 0 01-.731 2.427c-.814.442-1.627.869-2.441 1.31a1.807 1.807 0 01-.841.207zM537.689 161.823a1.793 1.793 0 01-1.448-.731 1.803 1.803 0 01.386-2.51 487.395 487.395 0 006.054-4.51 1.785 1.785 0 012.51.345 1.798 1.798 0 01-.344 2.51 501.457 501.457 0 01-6.11 4.551 1.778 1.778 0 01-1.062.345h.014zM8.293 146.294c-.386 0-.773-.124-1.104-.386l-1.627-1.282a1.797 1.797 0 012.234-2.814l1.614 1.283a1.81 1.81 0 01.303 2.524 1.788 1.788 0 01-1.406.689l-.014-.014z"/><path d="M13.2 150.087a1.82 1.82 0 01-1.09-.373 480.021 480.021 0 01-4.385-3.392 1.782 1.782 0 01-.303-2.51 1.784 1.784 0 012.524-.303 486.37 486.37 0 004.344 3.351 1.8 1.8 0 01.345 2.51 1.77 1.77 0 01-1.42.703l-.015.014zM71.715 187.722c-.29 0-.58-.069-.841-.207a439.446 439.446 0 01-39.663-24.024 1.792 1.792 0 01-.469-2.496 1.781 1.781 0 012.497-.469 433.994 433.994 0 0039.33 23.817c.87.469 1.2 1.558.732 2.427a1.78 1.78 0 01-1.586.952zM106.523 204.395c-.234 0-.469-.042-.703-.152l-1.269-.538c-.91-.386-1.324-1.448-.938-2.358a1.786 1.786 0 012.358-.938l1.269.538a1.8 1.8 0 01.952 2.358 1.802 1.802 0 01-1.655 1.09h-.014z"/><path d="M113.528 207.305a1.7 1.7 0 01-.675-.138c-1.71-.69-3.42-1.393-5.117-2.11a1.807 1.807 0 01-.965-2.345c.386-.91 1.434-1.351 2.344-.965 1.683.703 3.379 1.407 5.075 2.096a1.788 1.788 0 01.993 2.331c-.275.703-.951 1.117-1.668 1.117l.013.014z"/><path d="M115.443 208.077a1.69 1.69 0 01-.676-.138l-.634-.248c-.924-.359-1.365-1.407-1.007-2.331a1.802 1.802 0 012.331-1.007l.648.262a1.788 1.788 0 01.993 2.331 1.775 1.775 0 01-1.669 1.117l.014.014z"/><path d="M133.539 214.82c-.193 0-.4-.027-.593-.096a412.118 412.118 0 01-16.879-6.275 1.784 1.784 0 01-1.007-2.331c.358-.923 1.406-1.365 2.33-1.006a426.136 426.136 0 0016.729 6.219 1.796 1.796 0 01-.593 3.489h.013zM201.553 232.431c-.096 0-.207 0-.303-.027a380.104 380.104 0 01-10.205-1.903 1.794 1.794 0 01-1.407-2.11 1.783 1.783 0 012.11-1.407c3.393.676 6.799 1.31 10.123 1.889a1.793 1.793 0 011.461 2.069 1.8 1.8 0 01-1.765 1.489h-.014zM276.385 238.858c-23.361 0-46.806-1.862-69.685-5.53a1.795 1.795 0 01-1.489-2.055 1.786 1.786 0 012.055-1.49c22.686 3.641 45.951 5.489 69.105 5.489 61.273 0 120.49-12.549 175.998-37.304.91-.4 1.958 0 2.372.91.4.911 0 1.959-.91 2.372-55.977 24.962-115.677 37.608-177.46 37.608h.014zM458.145 199.127a1.792 1.792 0 01-1.628-1.048 1.787 1.787 0 01.869-2.373c1.035-.482 2.069-.965 3.117-1.448a1.789 1.789 0 012.386.855 1.788 1.788 0 01-.855 2.386c-1.048.497-2.096.979-3.145 1.462-.248.11-.496.166-.744.166zM530.081 157.12a1.83 1.83 0 01-1.462-.745c-.579-.8-.4-1.917.4-2.496a425.01 425.01 0 008.826-6.537 1.798 1.798 0 012.51.345 1.798 1.798 0 01-.345 2.51 397.675 397.675 0 01-8.909 6.592 1.76 1.76 0 01-1.048.345l.028-.014zM79.135 182.288c-.276 0-.566-.069-.828-.207a431.198 431.198 0 01-34.656-20.258 1.8 1.8 0 01-.524-2.483 1.8 1.8 0 012.482-.524 426.156 426.156 0 0034.367 20.093 1.787 1.787 0 01.758 2.414 1.795 1.795 0 01-1.586.965h-.013z"/><path d="M84.65 185.115c-.276 0-.552-.055-.8-.193a439.794 439.794 0 01-4.316-2.206 1.792 1.792 0 01-.773-2.414 1.804 1.804 0 012.414-.772c1.42.745 2.84 1.476 4.275 2.193a1.805 1.805 0 01.8 2.413 1.8 1.8 0 01-1.6.979z"/><path d="M87.12 186.356c-.263 0-.539-.055-.8-.193l-1.862-.924a1.801 1.801 0 01-.8-2.413 1.802 1.802 0 012.413-.8l1.848.924a1.795 1.795 0 01.814 2.4 1.79 1.79 0 01-1.6.993l-.014.013zM141.247 208.711c-.193 0-.386-.027-.565-.096a432.97 432.97 0 01-35.539-13.667 1.784 1.784 0 01-.924-2.358 1.784 1.784 0 012.358-.924 423.762 423.762 0 0035.236 13.556 1.794 1.794 0 011.13 2.276 1.801 1.801 0 01-1.696 1.227v-.014z"/><path d="M145.178 210.008c-.18 0-.373-.028-.552-.083-.883-.29-1.751-.566-2.634-.855a1.804 1.804 0 01-1.145-2.262 1.786 1.786 0 012.262-1.144c.869.289 1.738.565 2.606.855a1.8 1.8 0 011.159 2.261 1.8 1.8 0 01-1.71 1.241l.014-.013zM276.385 230.583c-30.671 0-61.286-3.254-90.978-9.695a1.799 1.799 0 01-1.379-2.137 1.806 1.806 0 012.138-1.379c29.457 6.371 59.81 9.612 90.219 9.612 62.182 0 122.089-13.143 178.08-39.055a1.804 1.804 0 012.385.868 1.805 1.805 0 01-.868 2.386c-56.46 26.134-116.877 39.387-179.584 39.387l-.013.013zM521.97 152.748a1.769 1.769 0 01-1.462-.758c-.565-.814-.386-1.931.427-2.496a432.13 432.13 0 0015.984-11.86 1.782 1.782 0 012.51.317 1.782 1.782 0 01-.317 2.51 439.526 439.526 0 01-16.122 11.97 1.8 1.8 0 01-1.034.331l.014-.014z"/><path d="M276.383 222.309c-80.662 0-158.994-22.934-226.54-66.334a1.8 1.8 0 01-.539-2.482 1.8 1.8 0 012.483-.538c66.968 43.027 144.637 65.768 224.596 65.768 62.403 0 122.407-13.473 178.342-40.048a1.788 1.788 0 012.386.855 1.789 1.789 0 01-.855 2.386c-56.418 26.809-116.946 40.393-179.887 40.393h.014zM515.061 147.494a1.791 1.791 0 01-1.476-.772 1.791 1.791 0 01.442-2.496 423.672 423.672 0 0019.307-14.301 1.799 1.799 0 012.523.303 1.8 1.8 0 01-.303 2.524 430.446 430.446 0 01-19.473 14.425 1.774 1.774 0 01-1.02.317z"/><path d="M535.523 132.269a1.816 1.816 0 01-1.407-.676c-.62-.772-.482-1.903.29-2.523l1.076-.855a1.784 1.784 0 012.523.289 1.786 1.786 0 01-.289 2.524l-1.09.855a1.774 1.774 0 01-1.117.386h.014zM276.384 214.034c-82.22 0-161.586-24.175-229.52-69.932a1.783 1.783 0 01-.482-2.483 1.794 1.794 0 012.482-.482c67.327 45.344 146.003 69.312 227.506 69.312 62.914 0 123.235-13.943 179.308-41.428.882-.441 1.958-.068 2.399.814.442.883.069 1.958-.813 2.4-56.556 27.733-117.415 41.799-180.88 41.799zM509.916 140.985a1.772 1.772 0 01-1.476-.772 1.796 1.796 0 01.455-2.497 409.009 409.009 0 0020.935-15.569c.772-.621 1.903-.483 2.523.289a1.798 1.798 0 01-.289 2.524 415.875 415.875 0 01-21.114 15.694 1.776 1.776 0 01-1.02.317l-.014.014zM546.806 112.08c-.497 0-.993-.207-1.352-.607a1.806 1.806 0 01.152-2.538l.524-.455a1.79 1.79 0 012.524.166 1.806 1.806 0 01-.166 2.537l-.51.455a1.775 1.775 0 01-1.186.455l.014-.013zM551.95 107.487c-.482 0-.979-.193-1.324-.593a1.805 1.805 0 01.125-2.537l.248-.235a1.804 1.804 0 012.537.124 1.805 1.805 0 01-.124 2.538l-.248.234a1.76 1.76 0 01-1.2.469h-.014z"/><path d="M276.385 205.76c-83.02 0-162.758-25.044-230.581-72.415a1.791 1.791 0 01-.441-2.496 1.791 1.791 0 012.496-.442c67.216 46.944 146.237 71.767 228.526 71.767 63.231 0 123.703-14.342 179.735-42.613a1.805 1.805 0 012.414.786 1.804 1.804 0 01-.787 2.413c-56.542 28.533-117.566 43-181.348 43h-.014zM507.144 132.821a1.767 1.767 0 01-1.462-.759 1.8 1.8 0 01.427-2.496 400.582 400.582 0 0022.424-17.004 1.795 1.795 0 012.262 2.786 401.376 401.376 0 01-22.631 17.142 1.81 1.81 0 01-1.034.331h.014z"/><path d="M276.382 197.486c-82.303 0-161.159-25.072-228.072-72.498a1.793 1.793 0 01-.427-2.496c.565-.814 1.696-.993 2.496-.428 66.306 46.999 144.444 71.836 226.003 71.836 69.629 0 137.976-18.521 197.69-53.549.855-.497 1.958-.221 2.455.634.496.855.221 1.958-.634 2.455-60.266 35.359-129.247 54.046-199.511 54.046zM479.727 140.874c-.607 0-1.2-.303-1.531-.855a1.808 1.808 0 01.593-2.468l.579-.359a1.809 1.809 0 012.469.593c.51.842.248 1.945-.593 2.469l-.593.358c-.29.18-.621.262-.938.262h.014zM483.838 138.337a1.79 1.79 0 01-1.517-.841 1.793 1.793 0 01.579-2.469 323.504 323.504 0 004.648-2.937 1.802 1.802 0 012.482.538c.538.827.29 1.944-.538 2.482a516.858 516.858 0 01-4.689 2.965c-.289.179-.62.276-.951.276l-.014-.014zM506.716 122.96a1.784 1.784 0 01-1.448-.744c-.58-.8-.4-1.917.4-2.51a382.188 382.188 0 0015.28-11.653 1.795 1.795 0 012.248 2.799 399.056 399.056 0 01-15.419 11.764 1.766 1.766 0 01-1.048.344h-.013z"/><path d="M276.382 189.211c-83.751 0-163.448-26.34-230.457-76.18a1.788 1.788 0 01-.372-2.51c.593-.8 1.71-.965 2.51-.372 66.388 49.371 145.34 75.476 228.319 75.476 74.663 0 147.023-21.499 209.247-62.168a1.799 1.799 0 012.483.524 1.8 1.8 0 01-.524 2.482c-62.803 41.055-135.839 62.748-211.206 62.748zM504.166 114.576a1.79 1.79 0 01-1.448-.731 1.79 1.79 0 01.386-2.51 421.218 421.218 0 009.295-7.061 1.811 1.811 0 012.524.303 1.812 1.812 0 01-.304 2.524 395.2 395.2 0 01-9.378 7.116 1.777 1.777 0 01-1.061.345l-.014.014z"/><path d="M516.203 105.35a1.82 1.82 0 01-1.407-.676 1.787 1.787 0 01.29-2.524l1.076-.855a1.795 1.795 0 012.248 2.8l-1.076.868a1.803 1.803 0 01-1.117.387h-.014zM276.383 180.937c-80.165 0-156.745-24.755-221.493-71.588a1.802 1.802 0 01-.4-2.51c.58-.8 1.697-.979 2.51-.4 64.127 46.392 139.99 70.912 219.383 70.912 74.47 0 146.417-21.789 208.061-63.024a1.786 1.786 0 012.483.497c.551.827.331 1.93-.497 2.482-62.237 41.634-134.859 63.631-210.047 63.631zM502.32 105.639a1.788 1.788 0 01-1.434-.717 1.788 1.788 0 01.358-2.51 454.597 454.597 0 006.537-5.02 1.8 1.8 0 012.524.304 1.8 1.8 0 01-.303 2.524 335.653 335.653 0 01-6.592 5.061 1.745 1.745 0 01-1.076.358h-.014z"/><path d="M276.385 172.662c-78.98 0-154.333-24.534-217.922-70.953-.8-.579-.979-1.71-.386-2.51.58-.8 1.71-.98 2.51-.386 62.969 45.964 137.604 70.264 215.812 70.264 78.207 0 147.271-22.548 208.722-65.217a1.795 1.795 0 012.042 2.951c-62.059 43.083-134.943 65.865-210.764 65.865l-.014-.014zM490.635 103.943a1.83 1.83 0 01-1.462-.745c-.579-.8-.386-1.93.414-2.496a417.032 417.032 0 005.544-4.054 1.798 1.798 0 012.51.358c.593.8.427 1.917-.359 2.51a349.362 349.362 0 01-5.599 4.096 1.814 1.814 0 01-1.048.331zM501.158 96.124a1.767 1.767 0 01-1.42-.704 1.784 1.784 0 01.331-2.51c4.151-3.2 8.274-6.536 12.287-9.901a1.792 1.792 0 012.303 2.744 372.96 372.96 0 01-12.398 9.998 1.825 1.825 0 01-1.089.373h-.014zM520.798 79.85c-.497 0-.993-.206-1.352-.606a1.788 1.788 0 01.152-2.524l.51-.455a1.8 1.8 0 012.524.152 1.805 1.805 0 01-.152 2.537l-.51.455a1.779 1.779 0 01-1.186.455l.014-.014z"/><path d="M276.383 164.388c-76.704 0-149.975-23.693-211.909-68.54-.8-.58-.979-1.697-.4-2.51.58-.8 1.697-.98 2.51-.4 61.314 44.392 133.853 67.85 209.799 67.85 75.945 0 153.546-25.099 216.156-72.567a1.798 1.798 0 012.51.345 1.798 1.798 0 01-.345 2.51c-63.244 47.951-138.749 73.298-218.321 73.298v.014z"/><path d="M495.269 90.207a1.75 1.75 0 01-1.42-.703 1.783 1.783 0 01.331-2.51 361.063 361.063 0 0022.644-18.893 1.805 1.805 0 012.538.124c.662.73.607 1.862-.124 2.537a368.581 368.581 0 01-22.879 19.087 1.795 1.795 0 01-1.09.372v-.014zM44.808 69.108c-.413 0-.84-.152-1.186-.442a402.084 402.084 0 01-8.73-7.902 1.803 1.803 0 01-.082-2.537 1.803 1.803 0 012.538-.083 362.685 362.685 0 008.646 7.833c.745.648.814 1.793.166 2.538-.359.4-.855.606-1.352.606v-.013zM276.383 156.113c-77.297 0-150.719-24.492-212.322-70.843a1.8 1.8 0 01-.359-2.51 1.8 1.8 0 012.51-.358c60.969 45.882 133.646 70.126 210.157 70.126 88.785 0 173.447-33.305 238.373-93.777a1.792 1.792 0 012.538.096 1.79 1.79 0 01-.097 2.538c-65.602 61.093-151.132 94.728-240.828 94.728h.028z"/><path d="M276.385 147.839c-75.27 0-146.789-23.789-206.848-68.816a1.8 1.8 0 01-.358-2.51 1.787 1.787 0 012.51-.358c59.424 44.544 130.212 68.098 204.696 68.098 89.143 0 173.501-34.132 237.531-96.107a1.79 1.79 0 012.538.04 1.79 1.79 0 01-.041 2.538c-64.707 62.624-149.961 97.115-240.028 97.115z"/><path d="M229.578 136.324c-.083 0-.165 0-.248-.014-54.005-7.544-105.968-28.478-150.25-60.528-.8-.58-.98-1.696-.4-2.496.579-.8 1.696-.98 2.51-.4 43.813 31.705 95.211 52.419 148.65 59.893a1.8 1.8 0 011.531 2.028 1.796 1.796 0 01-1.779 1.544l-.014-.027z"/><path d="M230.945 136.503c-.083 0-.165 0-.248-.014l-.69-.097a1.786 1.786 0 01-1.53-2.013 1.797 1.797 0 012.013-1.531l.69.097a1.786 1.786 0 01-.249 3.558h.014zM276.383 139.564c-13.432 0-26.947-.799-40.186-2.372a1.802 1.802 0 01-1.572-1.985c.11-.98 1.006-1.669 1.986-1.573a337.805 337.805 0 0039.772 2.345c89.585 0 173.653-35.042 236.732-98.66a1.79 1.79 0 012.538 0 1.79 1.79 0 010 2.538c-63.755 64.307-148.72 99.721-239.27 99.721v-.014zM237.731 129.028h-.207c-52.101-6.137-102.575-25.016-145.988-54.611a1.793 1.793 0 01-.47-2.496 1.793 1.793 0 012.497-.47c42.93 29.265 92.867 47.937 144.389 54.005a1.797 1.797 0 011.572 1.986 1.8 1.8 0 01-1.779 1.586h-.014z"/><path d="M246.65 129.952h-.165a380.385 380.385 0 01-6.896-.689 1.8 1.8 0 01-1.586-1.986c.111-.979.993-1.71 1.986-1.586 2.262.248 4.537.482 6.827.689.979.083 1.71.966 1.627 1.945a1.795 1.795 0 01-1.779 1.627h-.014z"/><path d="M276.382 131.29c-9.502 0-19.087-.414-28.52-1.214a1.775 1.775 0 01-1.627-1.944c.083-.979.938-1.751 1.945-1.627 9.322.8 18.824 1.213 28.215 1.213 82.345 0 160.897-30.85 221.19-86.868a1.791 1.791 0 012.538.097 1.79 1.79 0 01-.097 2.537c-60.955 56.639-140.376 87.82-223.631 87.82l-.013-.014z"/><path d="M499.298 43.47c-.483 0-.952-.193-1.31-.565a1.802 1.802 0 01.083-2.538l1.503-1.406a1.802 1.802 0 012.537.069 1.803 1.803 0 01-.069 2.537l-1.517 1.42a1.814 1.814 0 01-1.227.483z"/><path d="M502.318 40.63c-.469 0-.938-.18-1.296-.552a1.79 1.79 0 01.055-2.538l.497-.468a1.79 1.79 0 012.537.04 1.79 1.79 0 01-.041 2.538l-.497.483a1.8 1.8 0 01-1.241.496h-.014zM221.911 118.382c-.097 0-.207 0-.303-.028-42.476-7.323-82.414-22.906-118.697-46.323a1.8 1.8 0 01-.538-2.482 1.8 1.8 0 012.482-.538c35.884 23.154 75.367 38.573 117.359 45.813a1.785 1.785 0 011.462 2.068 1.8 1.8 0 01-1.765 1.49zM238.967 120.837h-.207a314.524 314.524 0 01-12.37-1.697 1.794 1.794 0 01-1.489-2.055 1.784 1.784 0 012.054-1.489c4.055.634 8.164 1.2 12.233 1.669a1.796 1.796 0 011.572 1.986 1.8 1.8 0 01-1.779 1.586h-.014z"/><path d="M276.382 123.015c-11.874 0-23.83-.661-35.566-1.944a1.793 1.793 0 01-1.586-1.972 1.793 1.793 0 011.972-1.586 321.104 321.104 0 0035.166 1.931c33.319 0 66.141-5.144 97.556-15.308a1.784 1.784 0 012.262 1.158 1.795 1.795 0 01-1.159 2.262c-31.76 10.274-64.954 15.473-98.659 15.473l.014-.014zM379.718 105.887a1.801 1.801 0 01-1.697-1.213 1.794 1.794 0 011.118-2.276c44.323-15.197 85.53-40.668 119.138-73.67a1.79 1.79 0 012.537.028 1.79 1.79 0 01-.027 2.537c-33.994 33.374-75.656 59.135-120.49 74.498a1.7 1.7 0 01-.579.096zM132.023 79.188c-.276 0-.566-.069-.828-.206a327.157 327.157 0 01-16.3-9.213 1.806 1.806 0 01-.607-2.468 1.805 1.805 0 012.468-.607 313.581 313.581 0 0016.108 9.116 1.782 1.782 0 01.745 2.427 1.781 1.781 0 01-1.586.951z"/><path d="M140.021 83.243c-.262 0-.538-.055-.786-.18a331.9 331.9 0 01-4.965-2.482 1.786 1.786 0 01-.772-2.413 1.787 1.787 0 012.413-.772c1.627.827 3.255 1.655 4.909 2.454a1.809 1.809 0 01.828 2.4 1.808 1.808 0 01-1.614 1.007l-.013-.014zM157.603 91.2c-.234 0-.455-.041-.689-.138a313.51 313.51 0 01-12.688-5.599 1.802 1.802 0 01-.869-2.385 1.801 1.801 0 012.386-.87 299.043 299.043 0 0012.55 5.53 1.793 1.793 0 01-.69 3.448v.014z"/><path d="M167.863 95.241c-.207 0-.414-.041-.62-.11a290.01 290.01 0 01-7.751-3.02 1.788 1.788 0 01-.993-2.331c.373-.91 1.421-1.365 2.331-.993a283.993 283.993 0 007.668 2.979 1.792 1.792 0 011.048 2.303 1.798 1.798 0 01-1.683 1.172z"/><path d="M198.77 104.963c-.152 0-.303-.013-.455-.055a310.78 310.78 0 01-29.126-9.046 1.793 1.793 0 011.241-3.365 307.83 307.83 0 0028.795 8.95 1.782 1.782 0 011.283 2.179 1.794 1.794 0 01-1.738 1.351v-.014z"/><path d="M205.473 106.604c-.138 0-.276-.013-.414-.041a288.527 288.527 0 01-4.716-1.145 1.797 1.797 0 01-1.311-2.178 1.779 1.779 0 012.179-1.297c1.545.386 3.103.759 4.662 1.131a1.79 1.79 0 011.337 2.151 1.783 1.783 0 01-1.751 1.379h.014z"/><path d="M218.959 109.446c-.11 0-.22-.001-.331-.028a303.631 303.631 0 01-10.191-2.082 1.805 1.805 0 01-1.365-2.138 1.804 1.804 0 012.137-1.365c3.324.731 6.703 1.434 10.081 2.068a1.793 1.793 0 011.435 2.096 1.802 1.802 0 01-1.766 1.462v-.013zM242.831 112.948h-.193a319.08 319.08 0 01-15.129-1.999 1.795 1.795 0 01-1.489-2.055 1.778 1.778 0 012.055-1.49c4.964.787 9.998 1.448 14.949 1.973a1.79 1.79 0 01-.193 3.571z"/><path d="M253.132 113.886h-.138a346.2 346.2 0 01-7.598-.662 1.802 1.802 0 01-1.614-1.958 1.804 1.804 0 011.958-1.614c2.496.249 5.006.455 7.516.648a1.789 1.789 0 01-.124 3.572v.014z"/><path d="M268.977 114.658h-.042c-4.62-.11-9.281-.317-13.86-.634a1.79 1.79 0 01-1.668-1.903 1.808 1.808 0 011.903-1.669c4.523.304 9.129.51 13.694.621a1.79 1.79 0 011.752 1.834 1.8 1.8 0 01-1.793 1.751h.014z"/><path d="M276.385 114.741c-2.262 0-4.51-.027-6.758-.069a1.788 1.788 0 01-1.751-1.834 1.78 1.78 0 011.834-1.751 313.65 313.65 0 0047.868-2.648 1.789 1.789 0 012.013 1.544c.124.979-.565 1.89-1.545 2.014a315.375 315.375 0 01-41.661 2.758v-.014z"/><path d="M318.486 111.914a1.795 1.795 0 01-1.779-1.545 1.78 1.78 0 011.531-2.013c17.431-2.372 34.739-6.247 51.439-11.543a1.781 1.781 0 012.248 1.172 1.78 1.78 0 01-1.172 2.248 312.603 312.603 0 01-52.046 11.681c-.083 0-.166.014-.249.014l.028-.014zM393.563 91.848a1.79 1.79 0 01-1.655-1.117 1.807 1.807 0 01.979-2.344c36.794-15.018 69.974-36.752 98.59-64.596a1.79 1.79 0 012.537.041 1.79 1.79 0 01-.041 2.538c-28.961 28.174-62.513 50.157-99.735 65.354a1.69 1.69 0 01-.675.138v-.014z"/><path d="M493.229 26.397c-.469 0-.924-.179-1.283-.537a1.802 1.802 0 01.028-2.538A314.825 314.825 0 00506.192 8.47c.662-.73 1.793-.8 2.538-.137.73.662.799 1.792.137 2.537a315.313 315.313 0 01-14.383 15.018c-.345.345-.8.51-1.255.51z"/><path d="M508 10.938a1.75 1.75 0 01-1.186-.455 1.805 1.805 0 01-.152-2.537l.91-1.021a1.777 1.777 0 012.524-.152c.745.662.814 1.793.152 2.538l-.924 1.034c-.359.4-.841.607-1.338.607l.014-.014zM136.282 72.073c-.276 0-.565-.07-.827-.207a306.692 306.692 0 01-14.522-8.137 1.78 1.78 0 01-.62-2.454 1.784 1.784 0 012.454-.621c4.703 2.8 9.53 5.516 14.357 8.04a1.786 1.786 0 01.758 2.413 1.793 1.793 0 01-1.586.966h-.014zM158.073 82.415c-.234 0-.469-.04-.703-.137a313.367 313.367 0 01-12.012-5.434 1.786 1.786 0 01-.841-2.386 1.782 1.782 0 012.386-.841 305.483 305.483 0 0011.86 5.365 1.799 1.799 0 01.951 2.358 1.8 1.8 0 01-1.655 1.09l.014-.015zM174.773 88.952c-.207 0-.4-.041-.607-.11a325.437 325.437 0 01-9.088-3.406 1.785 1.785 0 01-1.007-2.33 1.785 1.785 0 012.331-1.008 316.677 316.677 0 008.978 3.38 1.79 1.79 0 01-.593 3.475h-.014zM212.546 99.709c-.124 0-.248 0-.386-.041-1.131-.249-2.261-.497-3.378-.745a1.798 1.798 0 01-1.352-2.151 1.792 1.792 0 012.151-1.352l3.352.745a1.8 1.8 0 01-.373 3.558l-.014-.014zM246.594 105.019h-.179a308.806 308.806 0 01-15.142-1.862 1.792 1.792 0 01-1.504-2.041 1.784 1.784 0 012.041-1.503c4.937.731 9.971 1.351 14.963 1.848.979.096 1.71.979 1.614 1.958a1.793 1.793 0 01-1.779 1.613l-.014-.013zM254.153 105.667h-.138l-2.069-.152a1.783 1.783 0 01-1.641-1.931 1.785 1.785 0 011.931-1.641l2.055.152a1.783 1.783 0 011.655 1.917 1.8 1.8 0 01-1.779 1.669l-.014-.014z"/><path d="M259.655 106.011h-.097l-3.461-.206a1.79 1.79 0 01-1.669-1.904c.069-.992.91-1.765 1.903-1.668l3.42.207a1.792 1.792 0 011.697 1.889 1.798 1.798 0 01-1.793 1.696v-.014zM276.383 106.467c-3.751 0-7.543-.069-11.294-.207a1.79 1.79 0 01-1.724-1.862c.041-.993.882-1.807 1.862-1.724 19.845.731 39.951-.51 59.424-3.655.965-.165 1.889.51 2.055 1.49a1.796 1.796 0 01-1.49 2.055 307.004 307.004 0 01-48.846 3.903h.013z"/><path d="M326.308 102.357a1.8 1.8 0 01-1.765-1.503 1.795 1.795 0 011.476-2.069l1.351-.22a1.797 1.797 0 012.069 1.461 1.797 1.797 0 01-1.462 2.069l-1.365.234a2.047 2.047 0 01-.29.028h-.014z"/><path d="M328.346 102.012c-.855 0-1.614-.62-1.766-1.489a1.787 1.787 0 011.462-2.069l1.352-.234c.965-.193 1.903.469 2.082 1.448a1.787 1.787 0 01-1.448 2.082l-1.365.235a2.4 2.4 0 01-.304.027h-.013zM355.929 95.89a1.791 1.791 0 01-1.724-1.325 1.8 1.8 0 011.255-2.206l1.986-.552a1.786 1.786 0 012.206 1.241 1.793 1.793 0 01-1.241 2.207c-.662.193-1.338.372-2 .552a1.928 1.928 0 01-.469.068l-.013.014zM389.879 84.415a1.825 1.825 0 01-1.669-1.117 1.788 1.788 0 01.993-2.33 300.304 300.304 0 0013.198-5.737 1.806 1.806 0 012.386.868 1.806 1.806 0 01-.869 2.386 307.807 307.807 0 01-13.363 5.806 1.973 1.973 0 01-.676.138v-.014z"/><path d="M403.783 78.36a1.8 1.8 0 01-1.627-1.033 1.805 1.805 0 01.869-2.386 372.605 372.605 0 007.406-3.572 1.79 1.79 0 011.599 3.2 291.45 291.45 0 01-7.502 3.613c-.248.11-.496.165-.758.165l.013.014zM427.627 65.935a1.788 1.788 0 01-1.559-.896 1.791 1.791 0 01.662-2.455l1.186-.69a1.798 1.798 0 012.455.635 1.798 1.798 0 01-.634 2.455l-1.2.703a1.78 1.78 0 01-.897.235l-.013.013zM451.389 50.628a1.768 1.768 0 01-1.462-.759c-.579-.8-.386-1.93.414-2.496.924-.662 1.861-1.324 2.785-2 .8-.579 1.917-.413 2.51.387.58.8.414 1.917-.386 2.51l-2.813 2.027c-.317.22-.676.33-1.034.33h-.014zM458.614 45.318a1.834 1.834 0 01-1.434-.703 1.798 1.798 0 01.345-2.51 302.5 302.5 0 0036.255-32.38 1.804 1.804 0 012.538-.07c.717.69.745 1.82.055 2.538A306.289 306.289 0 01459.69 44.96a1.771 1.771 0 01-1.076.358z"/><path d="M495.56 12.248c-.441 0-.882-.165-1.227-.496a1.803 1.803 0 01-.069-2.538c2.661-2.8 5.296-5.695 7.861-8.605a1.788 1.788 0 012.523-.166c.745.648.814 1.78.166 2.538a296.483 296.483 0 01-7.944 8.716 1.8 1.8 0 01-1.296.565l-.014-.014zM141.632 65.536c-.276 0-.565-.07-.827-.193a280.928 280.928 0 01-13.363-7.365 1.8 1.8 0 01-.649-2.455 1.8 1.8 0 012.455-.648 294.416 294.416 0 0013.212 7.268 1.788 1.788 0 01-.828 3.379v.014z"/><path d="M162.856 75.451c-.235 0-.469-.041-.69-.138a295.657 295.657 0 01-18.893-8.716 1.788 1.788 0 01-.786-2.413 1.784 1.784 0 012.413-.786 288.576 288.576 0 0018.659 8.62 1.806 1.806 0 01.965 2.344 1.79 1.79 0 01-1.654 1.103l-.014-.014zM173.119 79.533c-.207 0-.428-.041-.635-.11l-1.296-.496a1.783 1.783 0 01-1.034-2.317 1.794 1.794 0 012.317-1.035l1.282.483a1.792 1.792 0 011.048 2.303 1.796 1.796 0 01-1.682 1.158v.014zM210.063 90.676a1.87 1.87 0 01-.4-.041 267.921 267.921 0 01-6.743-1.641 1.802 1.802 0 01-1.297-2.18 1.802 1.802 0 012.179-1.295c2.207.565 4.427 1.103 6.661 1.627a1.78 1.78 0 011.338 2.151 1.797 1.797 0 01-1.752 1.393l.014-.014zM246.084 96.647h-.18a271.213 271.213 0 01-4.826-.537 1.795 1.795 0 01-1.572-1.986 1.795 1.795 0 011.985-1.572c1.586.193 3.172.358 4.772.524a1.798 1.798 0 01-.179 3.585v-.014zM257.766 97.613h-.11l-1.393-.097a1.79 1.79 0 01-1.669-1.903 1.799 1.799 0 011.903-1.668l1.366.082c.993.055 1.737.91 1.682 1.903a1.786 1.786 0 01-1.793 1.683h.014zM272.92 98.178h-.717a1.79 1.79 0 01-1.765-1.82c0-.98.813-1.765 1.792-1.765h.718a1.79 1.79 0 011.765 1.82c0 .98-.814 1.765-1.793 1.765z"/><path d="M274.99 98.192h-1.392a1.8 1.8 0 01-1.779-1.82c0-.98.813-1.78 1.792-1.78h1.393c.993.015 1.793.828 1.779 1.807 0 .98-.813 1.78-1.793 1.78v.013z"/><path d="M277.058 98.192c-.993 0-1.792-.8-1.792-1.793 0-.993.799-1.793 1.792-1.793h2.055c.993-.082 1.793.773 1.807 1.766 0 .993-.786 1.793-1.779 1.806h-2.083v.014z"/><path d="M279.816 98.178a1.795 1.795 0 01-1.793-1.779c0-.993.787-1.806 1.779-1.806a294.024 294.024 0 0051.081-5.061c.98-.18 1.917.455 2.097 1.434a1.792 1.792 0 01-1.435 2.096 297.28 297.28 0 01-51.715 5.116h-.014zM383.496 78.058a1.779 1.779 0 01-1.668-1.145 1.786 1.786 0 011.02-2.317c.634-.248 1.269-.496 1.917-.758.91-.373 1.958.083 2.331.993a1.795 1.795 0 01-.993 2.33c-.648.262-1.283.51-1.931.759a1.857 1.857 0 01-.648.124l-.028.014z"/><path d="M386.695 76.775a1.823 1.823 0 01-1.668-1.117 1.782 1.782 0 01.993-2.33c.634-.263 1.268-.51 1.903-.773a1.79 1.79 0 012.344.965 1.807 1.807 0 01-.965 2.345c-.648.262-1.283.524-1.931.786a1.906 1.906 0 01-.676.138v-.014zM456.915 36.189a1.793 1.793 0 01-1.103-3.213 300.159 300.159 0 0018.797-15.97 1.79 1.79 0 012.537.096 1.79 1.79 0 01-.096 2.538 302.89 302.89 0 01-19.018 16.176 1.834 1.834 0 01-1.103.373h-.014zM163.052 66.542c-.235 0-.483-.055-.718-.151a286.406 286.406 0 01-26.712-13.267 1.793 1.793 0 111.751-3.13 286.184 286.184 0 0026.382 13.1c.91.4 1.324 1.449.938 2.359a1.784 1.784 0 01-1.641 1.076v.013zM204.076 80.678c-.152 0-.303-.014-.455-.055l-.676-.18a1.789 1.789 0 01-1.269-2.192 1.79 1.79 0 012.193-1.269l.662.165a1.801 1.801 0 011.283 2.193 1.797 1.797 0 01-1.738 1.338z"/><path d="M212.794 82.815c-.138 0-.262 0-.4-.04a313.315 313.315 0 01-8.095-1.96 1.793 1.793 0 01-1.283-2.178 1.794 1.794 0 012.179-1.283c2.662.69 5.351 1.338 7.985 1.945a1.8 1.8 0 011.352 2.151 1.797 1.797 0 01-1.752 1.393l.014-.028zM292.932 89.449c-.937 0-1.737-.731-1.792-1.696a1.789 1.789 0 011.682-1.89c1.834-.11 3.655-.22 5.475-.358 1.007-.083 1.848.662 1.931 1.655a1.803 1.803 0 01-1.655 1.93c-1.848.138-3.682.262-5.544.373h-.11l.013-.014z"/><path d="M299.125 89.021c-.924 0-1.71-.703-1.779-1.64a1.783 1.783 0 011.641-1.931l.69-.056a1.784 1.784 0 011.931 1.641 1.792 1.792 0 01-1.642 1.931l-.689.055h-.152z"/><path d="M300.49 88.91c-.924 0-1.71-.703-1.779-1.64a1.784 1.784 0 011.642-1.931 283.976 283.976 0 0027.829-3.724 1.796 1.796 0 012.083 1.435 1.788 1.788 0 01-1.435 2.082 287.591 287.591 0 01-28.188 3.765h-.152v.014z"/><path d="M329.174 85.05a1.812 1.812 0 01-1.765-1.462 1.799 1.799 0 011.434-2.096l1.352-.263a1.782 1.782 0 012.096 1.421c.179.98-.455 1.917-1.42 2.096l-1.366.262c-.11.028-.22.028-.331.028v.013zM369.155 74.513a1.792 1.792 0 01-.579-3.49c.648-.22 1.296-.454 1.945-.674.924-.318 1.958.165 2.289 1.09a1.799 1.799 0 01-1.09 2.288c-.648.235-1.31.456-1.972.69a1.7 1.7 0 01-.579.096h-.014z"/><path d="M372.408 73.369a1.787 1.787 0 01-.593-3.475 287.286 287.286 0 0012.784-4.924c.91-.386 1.958.055 2.344.966a1.8 1.8 0 01-.979 2.344 278.054 278.054 0 01-12.949 4.978c-.193.07-.4.11-.607.11zM161.824 56.93c-.249 0-.497-.055-.745-.165a280.197 280.197 0 01-15.556-7.668 1.81 1.81 0 01-.745-2.427 1.81 1.81 0 012.427-.745 278.426 278.426 0 0015.363 7.571 1.809 1.809 0 01.897 2.372 1.79 1.79 0 01-1.628 1.048l-.013.014zM224.102 76.72c-.11 0-.22 0-.344-.028a281.911 281.911 0 01-13.557-2.937 1.792 1.792 0 01-1.324-2.165 1.773 1.773 0 012.166-1.31 259.816 259.816 0 0013.39 2.896 1.78 1.78 0 011.421 2.096 1.8 1.8 0 01-1.765 1.462l.013-.014zM297.551 80.843a1.789 1.789 0 01-.124-3.572l2.055-.165c.993-.11 1.848.648 1.93 1.641a1.783 1.783 0 01-1.641 1.93c-.689.056-1.379.111-2.082.166h-.138zM308.531 79.795a1.8 1.8 0 01-1.779-1.586 1.795 1.795 0 011.572-1.986c2.275-.261 4.537-.551 6.799-.868a1.79 1.79 0 012.027 1.53 1.8 1.8 0 01-1.531 2.028c-2.289.317-4.578.62-6.882.882h-.206zM451.401 19.42a1.794 1.794 0 01-1.131-3.186 314.837 314.837 0 005.254-4.4c.759-.648 1.89-.565 2.524.194.648.744.565 1.889-.193 2.523a273.928 273.928 0 01-5.323 4.455c-.331.276-.731.4-1.131.4v.013zM158.526 46.242c-.262 0-.538-.055-.786-.179-1.034-.51-2.082-1.02-3.103-1.544a1.807 1.807 0 01-.8-2.414 1.802 1.802 0 012.414-.8c1.02.51 2.041 1.02 3.061 1.517a1.797 1.797 0 01.828 2.4 1.81 1.81 0 01-1.614 1.007v.014z"/><path d="M160.404 47.139c-.262 0-.524-.055-.773-.18l-1.255-.606a1.781 1.781 0 01-.827-2.4c.428-.896 1.503-1.255 2.4-.827l1.241.593a1.798 1.798 0 01-.772 3.42h-.014zM253.035 72.376h-.152a274.653 274.653 0 01-28.174-3.917 1.785 1.785 0 01-1.42-2.096 1.814 1.814 0 012.096-1.42 271.192 271.192 0 0027.802 3.875 1.775 1.775 0 011.627 1.944 1.796 1.796 0 01-1.779 1.641v-.027zM304.667 71.907c-.91 0-1.682-.69-1.779-1.6-.11-.979.607-1.862 1.6-1.972 3.172-.33 6.385-.73 9.515-1.172a1.79 1.79 0 012.028 1.53 1.79 1.79 0 01-1.531 2.028c-3.186.455-6.427.841-9.64 1.186h-.193zM297.744 64.226c-.924 0-1.71-.704-1.779-1.642a1.793 1.793 0 011.641-1.93c2.952-.235 5.93-.538 8.854-.869a1.796 1.796 0 011.986 1.572c.11.98-.593 1.876-1.572 1.986a274.38 274.38 0 01-8.978.883h-.152z"/><path d="M308.033 63.191a1.789 1.789 0 01-1.779-1.572 1.797 1.797 0 011.559-2l.689-.082c.979-.138 1.876.579 2 1.558a1.797 1.797 0 01-1.558 2l-.69.083h-.221v.013zM293.856 56.227c-.938 0-1.724-.731-1.793-1.669a1.794 1.794 0 011.669-1.917c2.965-.207 5.957-.455 8.867-.758.993-.11 1.862.607 1.972 1.6a1.804 1.804 0 01-1.599 1.972c-2.952.303-5.986.565-8.992.772h-.124zM280.494 48.518a1.793 1.793 0 01-.027-3.586c.689 0 1.365-.027 2.054-.041 1.007 0 1.807.759 1.835 1.751a1.79 1.79 0 01-1.752 1.835l-2.082.041h-.028zM257.477 39.526h-.138l-1.379-.11a1.775 1.775 0 01-1.627-1.945 1.775 1.775 0 011.944-1.627l1.366.11a1.783 1.783 0 011.641 1.931 1.789 1.789 0 01-1.779 1.655l-.028-.014z"/><path d="M268.48 40.147h-.055a278.058 278.058 0 01-8.33-.414 1.79 1.79 0 01-1.669-1.903 1.807 1.807 0 011.903-1.669c2.703.18 5.462.318 8.206.414a1.79 1.79 0 011.738 1.848 1.797 1.797 0 01-1.793 1.738v-.014zM254.138 30.92h-.179a257.751 257.751 0 01-8.289-.95c-.979-.125-1.668-1.035-1.544-2.014a1.8 1.8 0 012.013-1.545c2.662.359 5.406.676 8.151.938.979.097 1.71.98 1.613 1.958a1.792 1.792 0 01-1.779 1.614h.014z"/><path d="M258.95 31.335h-.138l-1.393-.11a1.79 1.79 0 01-1.641-1.931 1.784 1.784 0 011.931-1.642l1.365.11a1.79 1.79 0 011.655 1.918 1.8 1.8 0 01-1.779 1.668v-.013z"/><path d="M263.764 31.652h-.096c-1.393-.07-2.772-.166-4.165-.262a1.783 1.783 0 01-1.655-1.917 1.766 1.766 0 011.917-1.655c1.365.096 2.731.193 4.096.262a1.791 1.791 0 011.696 1.89 1.798 1.798 0 01-1.793 1.696v-.014z"/></g><path d="M372.258 95.557h-14.251a38.276 38.276 0 00-17.1-12.308 38.192 38.192 0 00-21.007-1.381 38.25 38.25 0 00-18.559 9.961 38.373 38.373 0 00-10.493 18.291 37.76 37.76 0 00-13.53-19.947 37.622 37.622 0 00-22.816-7.67H217v37.688a37.698 37.698 0 003.669 16.283 37.61 37.61 0 0010.337 13.088 60.07 60.07 0 0017.778 41.623 59.81 59.81 0 0041.739 17.326 59.805 59.805 0 0041.938-16.835 60.066 60.066 0 0018.263-41.412 38.071 38.071 0 0013.63-18.627 38.156 38.156 0 00.376-23.097l3.502-5.895 4.026-7.088z" fill="#2D2A26"/><path d="M263.68 124.612l-9.63-9.651V93.275h.456a26.81 26.81 0 019.069 1.614l.105 29.723zm-35.961-26.67v15.054h15.021l-15.021-15.054zm19.783-4.667h-15.091l15.091 15.054V93.275zm1.926 26.354h-21.709v.561a27.315 27.315 0 001.61 9.124h29.694l-9.595-9.685zm-16.527 16.282a26.75 26.75 0 007.858 7.328 26.66 26.66 0 0020.816 2.996 26.693 26.693 0 009.598-4.815l-5.498-5.509h-32.774zm37.467-37.548v32.881l5.427 5.509a26.935 26.935 0 004.772-9.632 26.99 26.99 0 00.628-10.735 26.943 26.943 0 00-10.897-18.023h.07z" fill="#A2D45E"/><path d="M328.032 147.035a27.553 27.553 0 01-15.329-4.66 27.635 27.635 0 01-10.162-12.41 27.71 27.71 0 01-1.571-15.977 27.672 27.672 0 017.552-14.158 27.574 27.574 0 0114.127-7.568 27.536 27.536 0 0115.942 1.574 27.6 27.6 0 0112.383 10.184 27.697 27.697 0 014.651 15.363 27.724 27.724 0 01-8.092 19.543 27.601 27.601 0 01-19.501 8.109zm-37.081 50.532a49.208 49.208 0 01-31.981-11.877 49.4 49.4 0 01-16.62-29.847 37.594 37.594 0 0030.107-2.496 37.705 37.705 0 0011.79-9.979 37.79 37.79 0 006.809-13.879 38.438 38.438 0 006.885 13.702 38.32 38.32 0 0011.689 9.906 38.215 38.215 0 0029.852 2.956 49.368 49.368 0 01-16.646 29.703 49.174 49.174 0 01-31.885 11.811z" fill="#F3BD48"/><path d="M340.921 102.434a10.306 10.306 0 00-6.001.165 10.333 10.333 0 00-4.895 3.482 10.366 10.366 0 003.578 15.611 10.309 10.309 0 0011.392-1.484 10.371 10.371 0 002.159-12.939 10.328 10.328 0 00-6.233-4.835z" fill="#2D2A26"/></svg>