<?xml version="1.0" encoding="utf-8"?><svg width="41" height="41" fill="none" xmlns="http://www.w3.org/2000/svg" viewBox="0 0 41 41"><g clip-path="url(#dzclip0_964_3422)"><rect x=".754" y=".686" width="39.369" height="39.369" rx="19.684" fill="#511E75"/><path fill-rule="evenodd" clip-rule="evenodd" d="M12.233.699h.68a5.29 5.29 0 013.578 1.743 5.259 5.259 0 01-3.254 8.716 5.255 5.255 0 01-5.876-5.9A5.288 5.288 0 018.679 2.4a5.304 5.304 0 013.55-1.714l.004.013zm120.147 0h.7A5.266 5.266 0 01138 5.764v.397a7.248 7.248 0 01-.078.7 5.257 5.257 0 01-5.592 4.34 5.264 5.264 0 01-4.851-5.155 5.252 5.252 0 012.27-4.42 5.325 5.325 0 012.644-.927h-.013zm-21.218 2.74a2.632 2.632 0 11-.035 3.684 2.686 2.686 0 01-.627-1.088 2.65 2.65 0 01.662-2.583V3.44zm-87.48 1.834a10.207 10.207 0 016.78-1.14 10.1 10.1 0 014.583 2.089 10.21 10.21 0 013.228 4.558 10.33 10.33 0 01.323 5.662 10.175 10.175 0 01-3.512 5.623l-.21-4.975-2.424-1.452v13.88h6.908a5.262 5.262 0 01-10.22 0h.271V26.19a5.12 5.12 0 011.162-1.697c.152-.146.323-.272.465-.423a13.96 13.96 0 01-1.614.235v-8.667h-2.515v8.535a10.328 10.328 0 01-3.625-1.382c.646-2.384 1.283-4.77 1.911-7.156h-2.217a2477.9 2477.9 0 01-1.492 5.73 11.012 11.012 0 01-1.52-1.937 10.193 10.193 0 013.728-14.174l-.01.019zM99.187 4.1a10.185 10.185 0 019.568 3.59 10.12 10.12 0 00-2.069 4.27 10.275 10.275 0 00-.165 3.387c.063.602.193 1.195.388 1.769v5.239c-.133.084-.259.174-.385.264a10.464 10.464 0 01-4.241 1.614c-.11-.287-.233-.571-.323-.862a3.685 3.685 0 002.482-3.809 3.746 3.746 0 00-3.202-3.783 13.66 13.66 0 00-2.766-.148H93.56v13.615a5.282 5.282 0 01-1.763-2.162 5.343 5.343 0 01-.287-3.377 5.274 5.274 0 011.762-2.798 10.2 10.2 0 01-2.243-4.197 10.33 10.33 0 01.278-6.056 10.204 10.204 0 017.88-6.556zM61.321 7.85a5.262 5.262 0 016.944 7.399 5.606 5.606 0 01-1.31 1.462c.608.398 1.176.855 1.694 1.365.126.13.255.262.384.388v11.05h1.711a10.181 10.181 0 01-18.687-.35 7.202 7.202 0 01-2.767.404 2.93 2.93 0 01-.835-.123 6.068 6.068 0 005.313-4.438 8.69 8.69 0 00.242-3.79 6.908 6.908 0 00-2.405-4.345c-.66-.53-1.433-.9-2.26-1.084a6.896 6.896 0 014.18 1.165c.38.257.734.549 1.06.871a10.522 10.522 0 011.843-1.358v13.047h5.981a5.488 5.488 0 002.505-.497 3.487 3.487 0 001.672-2.014 4.196 4.196 0 00.052-2.334 3.173 3.173 0 00-1.495-1.908 4.149 4.149 0 00-1.29-.442c.3-.075.593-.183.87-.323a3.002 3.002 0 001.563-2.276 3.71 3.71 0 00-.462-2.366 3.228 3.228 0 00-1.675-1.42c-1.004-.323-2.072-.304-3.112-.3h-2.74c.341-.118.69-.215 1.042-.29a5.329 5.329 0 01-.726-3.845 5.274 5.274 0 012.708-3.651v.003zm65.374 4.706a10.187 10.187 0 0110.346 5.857c.593 1.285.912 2.68.936 4.095v.34a10.185 10.185 0 01-14.774 8.925 9.973 9.973 0 01-2.96-2.26h1.229V27.34h-2.747a10.444 10.444 0 01-.994-3.07 10.157 10.157 0 004.345-1.517c.497-.325.972-.68 1.424-1.066.316.518.784.926 1.339 1.169a9.36 9.36 0 001.679.565l2.337.607c.491.092.953.297 1.352.597a1.7 1.7 0 01.278 2.014 2.117 2.117 0 01-1.104.846c-.468.15-.958.22-1.449.207a4.39 4.39 0 01-2.237-.488 2.31 2.31 0 01-1.095-1.565c-.816.161-1.614.345-2.44.513.167.651.478 1.257.91 1.772a4.583 4.583 0 001.705 1.207 7.915 7.915 0 003.55.575 6.662 6.662 0 002.718-.668 3.958 3.958 0 002.296-4.22 3.913 3.913 0 00-.885-2.046 4.84 4.84 0 00-2.24-1.236c-.684-.194-1.375-.349-2.06-.526a7.937 7.937 0 01-1.804-.575 1.446 1.446 0 01-.865-1.275c.147-.218.274-.45.378-.69.084-.162.15-.332.196-.508a3.382 3.382 0 013.761.113c.276.259.483.582.604.94.797-.19 1.614-.388 2.392-.591a3.506 3.506 0 00-1.469-2.02 6.708 6.708 0 00-4.619-.905c.133-.977.124-1.969-.026-2.944h-.007zm-81.378 5.062v9.83h1.362c.485.023.971.002 1.453-.062a3.874 3.874 0 002.827-2.373 6.74 6.74 0 00.426-2.627 5.651 5.651 0 00-1.032-3.39 3.182 3.182 0 00-2.657-1.378h-2.38zm13.47 0v3.815c.969.017 1.96 0 2.941 0 .348.017.696-.042 1.02-.17a1.844 1.844 0 001.065-1.373 2.201 2.201 0 00-.142-1.31 1.791 1.791 0 00-1.023-.83 2.987 2.987 0 00-1.159-.139l-2.702.007zm37.287 0v4.154h3.08c.469.015.936-.053 1.381-.2.361-.121.677-.346.911-.645.33-.469.461-1.05.364-1.614a1.822 1.822 0 00-.668-1.16 2.532 2.532 0 00-1.404-.51c-1.22-.025-2.44 0-3.664 0v-.025zm-61.01 5.426v4.164h4.326a5.274 5.274 0 00-2.753-3.65 5.192 5.192 0 00-1.572-.514zm23.714.378v3.967h3.325a2.259 2.259 0 001.546-.565c.296-.28.486-.654.539-1.059a1.939 1.939 0 00-1.546-2.279 6.82 6.82 0 00-1.36-.064h-2.504zm37.287.361v5.704h-2.076l.223.165a5.265 5.265 0 013.44.445 5.06 5.06 0 002.499-1.249c.349-.324.66-.687.927-1.081l-1.508-3.984h-3.505zm-5.272 5.127c.078.2.162.4.236.603h-2.005a2.662 2.662 0 00-.648 3.244c.19.369.466.688.803.93.278.195.59.336.92.416a2.634 2.634 0 10.694-5.193zM44.1 35.041a2.632 2.632 0 001.858 4.365 2.635 2.635 0 002.661-1.922 2.409 2.409 0 000-1.326 2.615 2.615 0 00-2.695-1.998 2.673 2.673 0 00-1.834.88h.01z" fill="#EC208B"/><circle cx="34.546" cy="27.916" r="4.921" fill="#EC208B"/><ellipse cx="31.921" cy="19.058" rx="4.265" ry="4.593" fill="#EC208B"/><path fill-rule="evenodd" clip-rule="evenodd" d="M56.655 2.71a2.647 2.647 0 012.944 1.428 2.633 2.633 0 01-1.175 3.498 2.635 2.635 0 11-1.77-4.916v-.01zM3.279 11.35a10.198 10.198 0 014.623-3.005 5.256 5.256 0 005.336 2.799 5.258 5.258 0 003.199-1.647 10.58 10.58 0 012.36 2.095 10.211 10.211 0 001.155 7.828c-.404.142-.81.278-1.204.443a4035.91 4035.91 0 01-1.159-4.239h-2.544a5513.96 5513.96 0 01-1.991 8.07 2.92 2.92 0 00-1.033 0c-.713-2.685-1.425-5.375-2.137-8.07H7.217c.81 2.97 1.622 5.94 2.438 8.913a5.039 5.039 0 00-1.78 1.991 5.33 5.33 0 00-.409 1.117 10.252 10.252 0 01-4.297-2.982 10.107 10.107 0 01-2.178-4.38 11.026 11.026 0 01-.236-1.721v-.969c.025-.432.074-.863.145-1.29a10.126 10.126 0 012.38-4.953zm76.798-.813a10.178 10.178 0 0110.304.123.516.516 0 00.307.122v.065l.458.323a10.33 10.33 0 00-.11 5.549 10.2 10.2 0 002.244 4.196c-.873.72-1.49 1.7-1.763 2.799a5.342 5.342 0 00.288 3.376c-.42.365-.868.695-1.34.988l-1.86-4.694a3.951 3.951 0 001.97-1.581c.46-.845.629-1.817.48-2.767a3.774 3.774 0 00-1.007-2.146 3.832 3.832 0 00-1.868-1.02 7.726 7.726 0 00-2.037-.217H80.21v12.68a10.23 10.23 0 01-4.42-4.842h.927v-2.02H75.14a10.694 10.694 0 01-.06-3.739h2.904v-2.072h-2.324a10.213 10.213 0 014.423-5.088l-.007-.035zm-28.884.449c2.45-.77 5.1-.59 7.424.5a5.33 5.33 0 00.727 3.845 9.071 9.071 0 00-1.043.29h-1.885v.826c-.662.385-1.28.84-1.843 1.36a7.37 7.37 0 00-1.06-.872 6.895 6.895 0 00-4.18-1.165 7.319 7.319 0 00-1.349-.149h-2.55a9.787 9.787 0 011.937-2.424 10.176 10.176 0 013.825-2.215l-.003.004zm31.531 6.656v4.148h2.996a4.42 4.42 0 001.165-.107 2.092 2.092 0 001.178-.69 2.15 2.15 0 00.413-1.573 1.828 1.828 0 00-.674-1.252 2.553 2.553 0 00-1.498-.523h-3.583l.003-.003zM40.04 22.649a10.33 10.33 0 012.692-4.135v9.468a4.332 4.332 0 00-1.76-.345v-.394h-1.397a10.062 10.062 0 01.465-4.594zm-23.952-3.27c-.242.93-.462 1.866-.694 2.8.374-.36.77-.696 1.188-1.005-.168-.597-.323-1.2-.494-1.795zm93.345 1.98c.879.867 1.907 1.57 3.034 2.075v6.085h7.786a9.986 9.986 0 002.96 2.26 10.155 10.155 0 01-3.441 1.91 10.299 10.299 0 01-6.11.052v.061a2.683 2.683 0 00-.766-1.517 2.721 2.721 0 00-2.872-.536 10.101 10.101 0 01-1.937-2.23h1.352v-8.16h-.006zm-2.905 1.268c.125-.09.251-.18.384-.265v4.623a6.273 6.273 0 01-.304-1.191 10.949 10.949 0 01-.077-3.167h-.003zm-23.804 1.178v5.488a10.33 10.33 0 005.488-.188c-.665-1.765-1.337-3.531-2.002-5.297l-3.486-.003zm32.28.387v3.148h3.758a10.415 10.415 0 01-.994-3.07c-.921.095-1.85.07-2.764-.078zm-65.71 5.375c.94.048 1.88-.09 2.767-.403a10.204 10.204 0 003.977 4.748 10.12 10.12 0 01-6.353 2.227c-.355 0-.713-.038-1.068-.029a.436.436 0 00-.016.049 2.615 2.615 0 00-2.696-1.998c.236-.987.2-2.02-.106-2.986a5.752 5.752 0 00-.923-1.663c1.194-.016 2.392.042 3.583-.068.27.082.553.123.836.123z" fill="#7C2570"/><path fill-rule="evenodd" clip-rule="evenodd" d="M115.355 4.043a10.28 10.28 0 014.49.43 10.146 10.146 0 016.895 11.026 4.703 4.703 0 00-3.199 1.85 3.873 3.873 0 00-.619 2.466c.041.664.246 1.307.597 1.872-.451.386-.927.741-1.424 1.066a10.152 10.152 0 01-4.345 1.517c-.92.095-1.849.07-2.763-.078v-.713h5.165v-2.02h-5.165v-3.745h6.408v-2.08h-8.929v7.787a10.346 10.346 0 01-3.034-2.076v-5.704h-2.499v1.479a8.054 8.054 0 01-.387-1.77 10.17 10.17 0 013.97-9.326c.12.408.335.78.627 1.089a2.636 2.636 0 004.228-3.067l-.016-.003zM72.942 7.936A15.817 15.817 0 0185.21 9.211a10.197 10.197 0 00-9.555 6.427h-6.611v2.815c-.13-.126-.259-.258-.384-.387a10.942 10.942 0 00-1.695-1.366 5.61 5.61 0 001.31-1.462 5.272 5.272 0 00.204-5.123 15.818 15.818 0 014.464-2.189v.01zM38.27 10.767a10.259 10.259 0 015.023.155 10.114 10.114 0 014.074 2.292 9.788 9.788 0 00-1.937 2.424H42.72v2.86a10.33 10.33 0 00-2.682 4.151 10.061 10.061 0 00-.468 4.597H39.4a5.274 5.274 0 00-2.754-3.65 5.195 5.195 0 00-1.572-.514v-1.014a10.174 10.174 0 003.512-5.623 10.33 10.33 0 00-.322-5.662l.006-.016zm52.417.03c.203-.053.406-.095.616-.13a6.703 6.703 0 00-.168.507l-.458-.323v-.065l.01.01zm-19.13 6.917v3.731c1.198.017 2.392 0 3.587 0a10.694 10.694 0 01-.062-3.738l-3.525.007zm53.931 1.446c.147-.218.274-.45.378-.69a2.48 2.48 0 00.197-.508 1.48 1.48 0 00-.575 1.198zm-23.193 5.08c.697 1.754 1.388 3.51 2.085 5.266h-2.65c-.22-.575-.433-1.15-.646-1.72a6.324 6.324 0 01-.926 1.08 5.065 5.065 0 01-2.499 1.25 5.23 5.23 0 012.395 2.437c.428.905.593 1.911.478 2.905a10.238 10.238 0 008.07-.345 2.673 2.673 0 01-.139-1.43 2.647 2.647 0 011.563-1.956 10.128 10.128 0 01-1.937-2.23h-1.156v-2.535a6.271 6.271 0 01-.303-1.191 10.984 10.984 0 01-.078-3.167 10.462 10.462 0 01-4.241 1.614l-.016.023zm-30.738-.761h4.232a10.23 10.23 0 004.42 4.842v1.194h2.514v-.22a10.33 10.33 0 005.488-.19c.051.133.1.265.145.4h.646a2.664 2.664 0 00-.943 2.05 2.636 2.636 0 001.098 2.125 15.753 15.753 0 01-22.706.506 10.184 10.184 0 004.296-4.68h7.299v-2.173h-6.489v-.79c.07-.214.105-.438.1-.662.02-.39 0-.782 0-1.169a1.982 1.982 0 00-.096-.645v-.575l-.004-.013zm20.237 3.612a5.28 5.28 0 001.762 2.163v.258h.43l.222.165c-.447.095-.88.245-1.29.445a2.646 2.646 0 00-2.147-1.213c-.107-.278-.22-.552-.323-.83.474-.292.925-.623 1.346-.988z" fill="#BB3C95"/><path fill-rule="evenodd" clip-rule="evenodd" d="M19.951 19.421c.433.7.943 1.35 1.52 1.937-.377 1.446-.748 2.905-1.132 4.332-.533-1.937-1.062-3.873-1.592-5.81.394-.165.8-.3 1.204-.442v-.017zm-4.558 2.728c-.607 2.45-1.2 4.903-1.81 7.35H11a4205.71 4205.71 0 01-1.353-4.958 5.04 5.04 0 00-1.778 1.992 5.294 5.294 0 00-.11 4.519 5.265 5.265 0 003.08 2.828c.935.32 1.94.375 2.905.158a10.188 10.188 0 0018.4-.943 5.251 5.251 0 01-3.006-3.583h-2.237v-5.336a10.332 10.332 0 01-3.625-1.381c-.6 2.238-1.199 4.477-1.795 6.717h-2.627c-.759-2.782-1.508-5.568-2.26-8.354-.417.309-.814.644-1.188 1.004l-.013-.013zM12.03 23.7a2.924 2.924 0 011.033 0c-.168.664-.323 1.33-.498 1.994-.19-.665-.355-1.333-.535-1.998v.003zm17.386.6a13.963 13.963 0 001.614-.236c-.149.152-.323.278-.465.423a5.12 5.12 0 00-1.162 1.698V24.3h.013zm11.566 3.322a4.331 4.331 0 011.76.345v1.546h2.14c.397.5.71 1.061.922 1.663.306.967.343 1.999.107 2.986a2.64 2.64 0 00-2.415 3.228 5.412 5.412 0 01-1.43.58 5.259 5.259 0 01-6.491-4.612 5.285 5.285 0 003.783-3.838h1.614V27.62h.01zm53.24 2.056a5.271 5.271 0 015.836 2.883c.427.904.593 1.91.478 2.905a5.288 5.288 0 01-4.649 4.583h-1.126a5.263 5.263 0 01-4.661-5.955 2.638 2.638 0 002.84-3.98c.41-.201.844-.35 1.291-.446l-.01.01zm15.817 2.066a2.727 2.727 0 012.873.536c.413.41.681.941.765 1.517a2.633 2.633 0 01-5.062 1.333 2.646 2.646 0 011.414-3.386h.01z" fill="#8E2880"/><path fill="#511E75" d="M26.345 16.433h2.625v13.123h-2.625z"/><path fill-rule="evenodd" clip-rule="evenodd" d="M28.23 15.778h-1.885l.006.006v13.874h5.991a5.487 5.487 0 002.505-.497 3.486 3.486 0 001.672-2.014 4.196 4.196 0 00.052-2.334 3.173 3.173 0 00-1.494-1.907 4.147 4.147 0 00-1.292-.443c.302-.075.594-.183.872-.323a3.002 3.002 0 001.562-2.275 3.709 3.709 0 00-.461-2.366 3.228 3.228 0 00-1.676-1.42c-.928-.305-1.912-.303-2.878-.301H28.23zm.48 1.992v3.815c.646.011 1.302.007 1.958.004.328-.002.656-.004.984-.004.348.016.696-.042 1.02-.17a1.843 1.843 0 001.065-1.373 2.202 2.202 0 00-.142-1.31 1.792 1.792 0 00-1.023-.83 2.991 2.991 0 00-1.16-.139l-2.701.007zm0 9.777V23.58h2.506c.454-.024.91-.002 1.359.065a1.936 1.936 0 011.546 2.279 1.776 1.776 0 01-.539 1.059 2.26 2.26 0 01-1.546.564H28.71z" fill="#511E75"/><path fill-rule="evenodd" clip-rule="evenodd" d="M5.348 14.475h2.666c.71 2.685 1.422 5.376 2.137 8.07.18.665.345 1.333.536 1.998.17-.665.323-1.33.497-1.995l1.992-8.07h2.543c.383 1.414.77 2.827 1.16 4.238.529 1.937 1.058 3.874 1.59 5.81.385-1.439.756-2.885 1.134-4.331l1.491-5.73h2.218c-.646 2.387-1.283 4.772-1.911 7.157-.6 2.238-1.199 4.477-1.795 6.717h-2.628c-.758-2.782-1.507-5.568-2.26-8.354-.167-.597-.322-1.2-.493-1.795-.242.93-.462 1.866-.694 2.799-.607 2.45-1.201 4.903-1.811 7.35H9.137c-.452-1.653-.902-3.305-1.352-4.958-.814-2.972-1.626-5.943-2.437-8.913v.007zm19.675 0h4.625c1.04 0 2.108-.03 3.112.3.707.263 1.3.766 1.675 1.42a3.71 3.71 0 01.462 2.366 3.002 3.002 0 01-1.562 2.276c-.278.14-.57.248-.872.323.452.075.888.225 1.291.442a3.174 3.174 0 011.495 1.908 4.197 4.197 0 01-.052 2.334 3.486 3.486 0 01-1.672 2.014c-.784.36-1.642.53-2.505.497H25.03V14.481l-.006-.006zm2.366 1.992v3.815c.968.016 1.959 0 2.94 0 .349.016.696-.042 1.02-.171a1.843 1.843 0 001.066-1.372 2.201 2.201 0 00-.142-1.31 1.792 1.792 0 00-1.024-.83 2.989 2.989 0 00-1.159-.139l-2.701.006zm0 5.81v3.967h3.325a2.26 2.26 0 001.546-.565c.296-.28.486-.654.539-1.058a1.937 1.937 0 00-1.546-2.28 6.828 6.828 0 00-1.36-.064H27.39z" fill="#fff"/></g><defs><clipPath id="dzclip0_964_3422"><rect x=".754" y=".686" width="39.369" height="39.369" rx="19.684" fill="#fff"/></clipPath></defs></svg>