<?xml version="1.0" encoding="utf-8"?><svg width="28" height="28" fill="none" xmlns="http://www.w3.org/2000/svg" viewBox="0 0 28 28"><path fill-rule="evenodd" clip-rule="evenodd" d="M27.798 13.678c0-2.705-.815-5.35-2.343-7.6a13.853 13.853 0 00-6.237-5.037 14.108 14.108 0 00-8.03-.778A13.97 13.97 0 004.07 4.006 13.612 13.612 0 00.267 11.01a13.476 13.476 0 00.791 7.903 13.727 13.727 0 005.12 6.139 14.06 14.06 0 007.72 2.305 14.038 14.038 0 009.822-4.014 13.593 13.593 0 004.078-9.664z" fill="#FC3F1D"/><path fill-rule="evenodd" clip-rule="evenodd" d="M15.938 7.672h-1.384c-2.41 0-3.62 1.215-3.62 3.015s.84 3.003 2.595 4.194l1.396.997-3.99 6.08H7.696l3.793-5.569c-2.224-1.544-3.422-3.003-3.422-5.556 0-3.198 2.224-5.386 6.486-5.386h4.262V21.86H16.05V7.672h-.111z" fill="#fff"/></svg>