<?xml version="1.0" encoding="utf-8"?><svg width="41" height="41" fill="none" xmlns="http://www.w3.org/2000/svg" viewBox="0 0 41 41"><path fill-rule="evenodd" clip-rule="evenodd" d="M20.653 40.034a19.662 19.662 0 0018.17-12.145A19.68 19.68 0 0034.56 6.45 19.665 19.665 0 00.986 20.36a19.646 19.646 0 0012.136 18.186 19.626 19.626 0 007.531 1.488z" fill="#FED42B"/><path fill-rule="evenodd" clip-rule="evenodd" d="M10.952 11.441l-9.65 12.661a19.24 19.24 0 002.972 7.258l6.8-9.024-1.311 9.304 7.22 2.5 8.74-13.99c-.384 2.64-1.048 8.744 4.721 10.493a8.738 8.738 0 008.164-2.273 19.506 19.506 0 001.748-7.975 19.774 19.774 0 00-.384-3.83c-2.815 4.232-5.525 7.24-6.993 6.855-2.5-.647-.262-8.656 1.171-13.763v-.14l-7.99-2.745-9.597 15.564 1.312-8.534-6.993-2.361h.07z" fill="#000"/></svg>