<?xml version="1.0" encoding="utf-8"?><svg width="326" height="60" fill="none" xmlns="http://www.w3.org/2000/svg" viewBox="0 0 326 60"><g clip-path="url(#ecclip0_967_2821)" fill-rule="evenodd" clip-rule="evenodd"><path d="M153.046 50.803h6.433l8.985-33.4v33.4h7.24V6.643h-9.975l-9.011 32.436-8.985-32.436h-10.157v44.16h6.251v-33.4l9.193 33.4h.026zm52.92-21.884c0-7.816-3.906-10.734-11.902-10.734a22.464 22.464 0 00-11.302 2.944v6.227a19.083 19.083 0 0110.417-3.127c3.724 0 5.209 1.381 5.209 4.69v1.771h-1.172c-11.538 0-16.798 3.908-16.798 10.421a10.422 10.422 0 006.445 9.316 10.414 10.414 0 0011.134-2.073h.391c.078.89.271 1.765.573 2.606h7.422c-.182-2.606-.391-5.211-.391-7.816V29.075l-.026-.156zm-7.578 14.277a6.464 6.464 0 01-5.47 2.605 4.318 4.318 0 01-3.438-1.25 4.325 4.325 0 01-1.249-3.44c0-3.699 2.604-5.08 9.167-5.08h1.172v7.243l-.182-.078zm20.704-24.412h-7.032V60h7.605V46.974a9.166 9.166 0 008.022 4.298c7.422 0 12.5-5.862 12.5-16.622s-4.896-16.595-12.11-16.595a10.024 10.024 0 00-8.594 4.69l-.391-4.117v.156zm6.433 26.757c-3.907 0-6.042-3.335-6.042-10.552s2.135-10.76 6.433-10.76c4.297 0 6.25 3.335 6.25 10.552 0 7.216-2.136 10.76-6.641 10.76zm38.284 5.21h8.594l-12.11-17.195 10.756-14.824h-7.553l-10.73 14.85v-14.85h-7.63v32.045h7.63V35.145l11.121 15.632-.078-.026zm33.987-2.136a18.437 18.437 0 01-10.939 2.735c-9.558 0-15.027-5.47-15.027-16.622 0-9.77 4.48-16.804 13.673-16.804 7.605 0 12.501 4.117 12.501 15.241v4.117h-18.231c.391 5.47 2.605 7.998 8.022 7.998a19.314 19.314 0 009.948-2.918v6.253h.053zm-12.319-24.36c-3.516 0-5.469 2.605-5.678 7.634h10.548v-.6c0-3.907-1.172-7.034-4.87-7.034zm39.638.6v-6.07h-25.392v6.07h8.985v26.052h7.63V24.855h8.777z" fill="#000"/><path d="M92.496 58.62a29.291 29.291 0 0027.069-18.094 29.32 29.32 0 00-6.351-31.941 29.297 29.297 0 00-31.93-6.354A29.317 29.317 0 0063.197 29.31a29.267 29.267 0 008.566 20.74 29.246 29.246 0 0020.733 8.57z" fill="#FED42B"/><path d="M59.082 29.31A29.317 29.317 0 0040.995 2.23a29.29 29.29 0 00-31.93 6.354 29.313 29.313 0 00-6.35 31.94 29.292 29.292 0 0027.069 18.093 29.346 29.346 0 0020.702-8.599 29.367 29.367 0 008.596-20.71z" fill="#FC3F1D"/><path d="M34.08 16.44h-2.917c-5.078 0-7.63 2.605-7.63 6.46 0 3.856 1.77 6.436 5.468 8.989l2.943 2.136-8.412 13.027H16.71l7.995-11.933c-4.688-3.308-7.214-6.435-7.214-11.906 0-6.852 4.688-11.541 13.673-11.541h8.985v35.171h-5.834V16.44h-.234z" fill="#fff"/><path d="M78.042 16.023L63.666 34.885a28.666 28.666 0 004.427 10.812l10.131-13.443-1.953 13.86 10.756 3.725 13.022-20.842c-.573 3.934-1.563 13.026 7.031 15.632a13.016 13.016 0 0012.163-3.387 29.058 29.058 0 002.604-11.88 29.466 29.466 0 00-.573-5.706c-4.193 6.305-8.23 10.786-10.417 10.213-3.724-.964-.391-12.896 1.745-20.504v-.208L100.7 9.067 86.402 32.254l1.953-12.714-10.417-3.517h.104z" fill="#000"/></g><defs><clipPath id="ecclip0_967_2821"><path fill="#fff" transform="translate(.484)" d="M0 0h324.632v60H0z"/></clipPath></defs></svg>